G04 #@! TF.FileFunction,Legend,Bot*
%FSLAX46Y46*%
G04 Gerber Fmt 4.6, Leading zero omitted, Abs format (unit mm)*
G04 Created by KiCad (PCBNEW 4.0.7) date 12/17/17 16:59:44*
%MOMM*%
%LPD*%
G01*
G04 APERTURE LIST*
%ADD10C,0.100000*%
%ADD11C,0.150000*%
%ADD12C,0.120000*%
G04 APERTURE END LIST*
D10*
D11*
X11400000Y-34170000D02*
X8600000Y-34170000D01*
X8600000Y-34170000D02*
X8600000Y-37770000D01*
X8600000Y-37770000D02*
X11400000Y-37770000D01*
X11400000Y-37770000D02*
X11400000Y-34170000D01*
X8600000Y-65830000D02*
X11400000Y-65830000D01*
X11400000Y-65830000D02*
X11400000Y-62230000D01*
X11400000Y-62230000D02*
X8600000Y-62230000D01*
X8600000Y-62230000D02*
X8600000Y-65830000D01*
X11400000Y-87500000D02*
X8600000Y-87500000D01*
X8600000Y-87500000D02*
X8600000Y-91100000D01*
X8600000Y-91100000D02*
X11400000Y-91100000D01*
X11400000Y-91100000D02*
X11400000Y-87500000D01*
X38070000Y-87500000D02*
X35270000Y-87500000D01*
X35270000Y-87500000D02*
X35270000Y-91100000D01*
X35270000Y-91100000D02*
X38070000Y-91100000D01*
X38070000Y-91100000D02*
X38070000Y-87500000D01*
X64730000Y-87500000D02*
X61930000Y-87500000D01*
X61930000Y-87500000D02*
X61930000Y-91100000D01*
X61930000Y-91100000D02*
X64730000Y-91100000D01*
X64730000Y-91100000D02*
X64730000Y-87500000D01*
X91400000Y-87500000D02*
X88600000Y-87500000D01*
X88600000Y-87500000D02*
X88600000Y-91100000D01*
X88600000Y-91100000D02*
X91400000Y-91100000D01*
X91400000Y-91100000D02*
X91400000Y-87500000D01*
X88600000Y-65830000D02*
X91400000Y-65830000D01*
X91400000Y-65830000D02*
X91400000Y-62230000D01*
X91400000Y-62230000D02*
X88600000Y-62230000D01*
X88600000Y-62230000D02*
X88600000Y-65830000D01*
X91400000Y-34170000D02*
X88600000Y-34170000D01*
X88600000Y-34170000D02*
X88600000Y-37770000D01*
X88600000Y-37770000D02*
X91400000Y-37770000D01*
X91400000Y-37770000D02*
X91400000Y-34170000D01*
X88600000Y-12500000D02*
X91400000Y-12500000D01*
X91400000Y-12500000D02*
X91400000Y-8900000D01*
X91400000Y-8900000D02*
X88600000Y-8900000D01*
X88600000Y-8900000D02*
X88600000Y-12500000D01*
X61930000Y-12500000D02*
X64730000Y-12500000D01*
X64730000Y-12500000D02*
X64730000Y-8900000D01*
X64730000Y-8900000D02*
X61930000Y-8900000D01*
X61930000Y-8900000D02*
X61930000Y-12500000D01*
X35270000Y-12500000D02*
X38070000Y-12500000D01*
X38070000Y-12500000D02*
X38070000Y-8900000D01*
X38070000Y-8900000D02*
X35270000Y-8900000D01*
X35270000Y-8900000D02*
X35270000Y-12500000D01*
X8600000Y-12500000D02*
X11400000Y-12500000D01*
X11400000Y-12500000D02*
X11400000Y-8900000D01*
X11400000Y-8900000D02*
X8600000Y-8900000D01*
X8600000Y-8900000D02*
X8600000Y-12500000D01*
D12*
X9810000Y-32985000D02*
X10510000Y-32985000D01*
X10510000Y-31785000D02*
X9810000Y-31785000D01*
X10510000Y-66710000D02*
X9810000Y-66710000D01*
X9810000Y-67910000D02*
X10510000Y-67910000D01*
X9810000Y-86325000D02*
X10510000Y-86325000D01*
X10510000Y-85125000D02*
X9810000Y-85125000D01*
X36480000Y-86325000D02*
X37180000Y-86325000D01*
X37180000Y-85125000D02*
X36480000Y-85125000D01*
X63150000Y-86325000D02*
X63850000Y-86325000D01*
X63850000Y-85125000D02*
X63150000Y-85125000D01*
X89820000Y-86325000D02*
X90520000Y-86325000D01*
X90520000Y-85125000D02*
X89820000Y-85125000D01*
X89885000Y-66710000D02*
X89185000Y-66710000D01*
X89185000Y-67910000D02*
X89885000Y-67910000D01*
X89185000Y-32985000D02*
X89885000Y-32985000D01*
X89885000Y-31785000D02*
X89185000Y-31785000D01*
X90520000Y-14005000D02*
X89820000Y-14005000D01*
X89820000Y-15205000D02*
X90520000Y-15205000D01*
X63850000Y-14005000D02*
X63150000Y-14005000D01*
X63150000Y-15205000D02*
X63850000Y-15205000D01*
X37180000Y-14005000D02*
X36480000Y-14005000D01*
X36480000Y-15205000D02*
X37180000Y-15205000D01*
X10510000Y-14005000D02*
X9810000Y-14005000D01*
X9810000Y-15205000D02*
X10510000Y-15205000D01*
D11*
X12023809Y-39222381D02*
X12023809Y-38222381D01*
X11690475Y-38936667D01*
X11357142Y-38222381D01*
X11357142Y-39222381D01*
X10880952Y-39222381D02*
X10880952Y-38222381D01*
X9833333Y-39127143D02*
X9880952Y-39174762D01*
X10023809Y-39222381D01*
X10119047Y-39222381D01*
X10261905Y-39174762D01*
X10357143Y-39079524D01*
X10404762Y-38984286D01*
X10452381Y-38793810D01*
X10452381Y-38650952D01*
X10404762Y-38460476D01*
X10357143Y-38365238D01*
X10261905Y-38270000D01*
X10119047Y-38222381D01*
X10023809Y-38222381D01*
X9880952Y-38270000D01*
X9833333Y-38317619D01*
X8880952Y-39222381D02*
X9452381Y-39222381D01*
X9166667Y-39222381D02*
X9166667Y-38222381D01*
X9261905Y-38365238D01*
X9357143Y-38460476D01*
X9452381Y-38508095D01*
X8500000Y-38317619D02*
X8452381Y-38270000D01*
X8357143Y-38222381D01*
X8119047Y-38222381D01*
X8023809Y-38270000D01*
X7976190Y-38317619D01*
X7928571Y-38412857D01*
X7928571Y-38508095D01*
X7976190Y-38650952D01*
X8547619Y-39222381D01*
X7928571Y-39222381D01*
X12023809Y-61682381D02*
X12023809Y-60682381D01*
X11690475Y-61396667D01*
X11357142Y-60682381D01*
X11357142Y-61682381D01*
X10880952Y-61682381D02*
X10880952Y-60682381D01*
X9833333Y-61587143D02*
X9880952Y-61634762D01*
X10023809Y-61682381D01*
X10119047Y-61682381D01*
X10261905Y-61634762D01*
X10357143Y-61539524D01*
X10404762Y-61444286D01*
X10452381Y-61253810D01*
X10452381Y-61110952D01*
X10404762Y-60920476D01*
X10357143Y-60825238D01*
X10261905Y-60730000D01*
X10119047Y-60682381D01*
X10023809Y-60682381D01*
X9880952Y-60730000D01*
X9833333Y-60777619D01*
X8880952Y-61682381D02*
X9452381Y-61682381D01*
X9166667Y-61682381D02*
X9166667Y-60682381D01*
X9261905Y-60825238D01*
X9357143Y-60920476D01*
X9452381Y-60968095D01*
X7928571Y-61682381D02*
X8500000Y-61682381D01*
X8214286Y-61682381D02*
X8214286Y-60682381D01*
X8309524Y-60825238D01*
X8404762Y-60920476D01*
X8500000Y-60968095D01*
X12023809Y-92552381D02*
X12023809Y-91552381D01*
X11690475Y-92266667D01*
X11357142Y-91552381D01*
X11357142Y-92552381D01*
X10880952Y-92552381D02*
X10880952Y-91552381D01*
X9833333Y-92457143D02*
X9880952Y-92504762D01*
X10023809Y-92552381D01*
X10119047Y-92552381D01*
X10261905Y-92504762D01*
X10357143Y-92409524D01*
X10404762Y-92314286D01*
X10452381Y-92123810D01*
X10452381Y-91980952D01*
X10404762Y-91790476D01*
X10357143Y-91695238D01*
X10261905Y-91600000D01*
X10119047Y-91552381D01*
X10023809Y-91552381D01*
X9880952Y-91600000D01*
X9833333Y-91647619D01*
X8880952Y-92552381D02*
X9452381Y-92552381D01*
X9166667Y-92552381D02*
X9166667Y-91552381D01*
X9261905Y-91695238D01*
X9357143Y-91790476D01*
X9452381Y-91838095D01*
X8261905Y-91552381D02*
X8166666Y-91552381D01*
X8071428Y-91600000D01*
X8023809Y-91647619D01*
X7976190Y-91742857D01*
X7928571Y-91933333D01*
X7928571Y-92171429D01*
X7976190Y-92361905D01*
X8023809Y-92457143D01*
X8071428Y-92504762D01*
X8166666Y-92552381D01*
X8261905Y-92552381D01*
X8357143Y-92504762D01*
X8404762Y-92457143D01*
X8452381Y-92361905D01*
X8500000Y-92171429D01*
X8500000Y-91933333D01*
X8452381Y-91742857D01*
X8404762Y-91647619D01*
X8357143Y-91600000D01*
X8261905Y-91552381D01*
X38217619Y-92552381D02*
X38217619Y-91552381D01*
X37884285Y-92266667D01*
X37550952Y-91552381D01*
X37550952Y-92552381D01*
X37074762Y-92552381D02*
X37074762Y-91552381D01*
X36027143Y-92457143D02*
X36074762Y-92504762D01*
X36217619Y-92552381D01*
X36312857Y-92552381D01*
X36455715Y-92504762D01*
X36550953Y-92409524D01*
X36598572Y-92314286D01*
X36646191Y-92123810D01*
X36646191Y-91980952D01*
X36598572Y-91790476D01*
X36550953Y-91695238D01*
X36455715Y-91600000D01*
X36312857Y-91552381D01*
X36217619Y-91552381D01*
X36074762Y-91600000D01*
X36027143Y-91647619D01*
X35550953Y-92552381D02*
X35360477Y-92552381D01*
X35265238Y-92504762D01*
X35217619Y-92457143D01*
X35122381Y-92314286D01*
X35074762Y-92123810D01*
X35074762Y-91742857D01*
X35122381Y-91647619D01*
X35170000Y-91600000D01*
X35265238Y-91552381D01*
X35455715Y-91552381D01*
X35550953Y-91600000D01*
X35598572Y-91647619D01*
X35646191Y-91742857D01*
X35646191Y-91980952D01*
X35598572Y-92076190D01*
X35550953Y-92123810D01*
X35455715Y-92171429D01*
X35265238Y-92171429D01*
X35170000Y-92123810D01*
X35122381Y-92076190D01*
X35074762Y-91980952D01*
X64877619Y-92552381D02*
X64877619Y-91552381D01*
X64544285Y-92266667D01*
X64210952Y-91552381D01*
X64210952Y-92552381D01*
X63734762Y-92552381D02*
X63734762Y-91552381D01*
X62687143Y-92457143D02*
X62734762Y-92504762D01*
X62877619Y-92552381D01*
X62972857Y-92552381D01*
X63115715Y-92504762D01*
X63210953Y-92409524D01*
X63258572Y-92314286D01*
X63306191Y-92123810D01*
X63306191Y-91980952D01*
X63258572Y-91790476D01*
X63210953Y-91695238D01*
X63115715Y-91600000D01*
X62972857Y-91552381D01*
X62877619Y-91552381D01*
X62734762Y-91600000D01*
X62687143Y-91647619D01*
X62115715Y-91980952D02*
X62210953Y-91933333D01*
X62258572Y-91885714D01*
X62306191Y-91790476D01*
X62306191Y-91742857D01*
X62258572Y-91647619D01*
X62210953Y-91600000D01*
X62115715Y-91552381D01*
X61925238Y-91552381D01*
X61830000Y-91600000D01*
X61782381Y-91647619D01*
X61734762Y-91742857D01*
X61734762Y-91790476D01*
X61782381Y-91885714D01*
X61830000Y-91933333D01*
X61925238Y-91980952D01*
X62115715Y-91980952D01*
X62210953Y-92028571D01*
X62258572Y-92076190D01*
X62306191Y-92171429D01*
X62306191Y-92361905D01*
X62258572Y-92457143D01*
X62210953Y-92504762D01*
X62115715Y-92552381D01*
X61925238Y-92552381D01*
X61830000Y-92504762D01*
X61782381Y-92457143D01*
X61734762Y-92361905D01*
X61734762Y-92171429D01*
X61782381Y-92076190D01*
X61830000Y-92028571D01*
X61925238Y-91980952D01*
X91547619Y-92552381D02*
X91547619Y-91552381D01*
X91214285Y-92266667D01*
X90880952Y-91552381D01*
X90880952Y-92552381D01*
X90404762Y-92552381D02*
X90404762Y-91552381D01*
X89357143Y-92457143D02*
X89404762Y-92504762D01*
X89547619Y-92552381D01*
X89642857Y-92552381D01*
X89785715Y-92504762D01*
X89880953Y-92409524D01*
X89928572Y-92314286D01*
X89976191Y-92123810D01*
X89976191Y-91980952D01*
X89928572Y-91790476D01*
X89880953Y-91695238D01*
X89785715Y-91600000D01*
X89642857Y-91552381D01*
X89547619Y-91552381D01*
X89404762Y-91600000D01*
X89357143Y-91647619D01*
X89023810Y-91552381D02*
X88357143Y-91552381D01*
X88785715Y-92552381D01*
X91547619Y-61682381D02*
X91547619Y-60682381D01*
X91214285Y-61396667D01*
X90880952Y-60682381D01*
X90880952Y-61682381D01*
X90404762Y-61682381D02*
X90404762Y-60682381D01*
X89357143Y-61587143D02*
X89404762Y-61634762D01*
X89547619Y-61682381D01*
X89642857Y-61682381D01*
X89785715Y-61634762D01*
X89880953Y-61539524D01*
X89928572Y-61444286D01*
X89976191Y-61253810D01*
X89976191Y-61110952D01*
X89928572Y-60920476D01*
X89880953Y-60825238D01*
X89785715Y-60730000D01*
X89642857Y-60682381D01*
X89547619Y-60682381D01*
X89404762Y-60730000D01*
X89357143Y-60777619D01*
X88500000Y-60682381D02*
X88690477Y-60682381D01*
X88785715Y-60730000D01*
X88833334Y-60777619D01*
X88928572Y-60920476D01*
X88976191Y-61110952D01*
X88976191Y-61491905D01*
X88928572Y-61587143D01*
X88880953Y-61634762D01*
X88785715Y-61682381D01*
X88595238Y-61682381D01*
X88500000Y-61634762D01*
X88452381Y-61587143D01*
X88404762Y-61491905D01*
X88404762Y-61253810D01*
X88452381Y-61158571D01*
X88500000Y-61110952D01*
X88595238Y-61063333D01*
X88785715Y-61063333D01*
X88880953Y-61110952D01*
X88928572Y-61158571D01*
X88976191Y-61253810D01*
X91547619Y-39222381D02*
X91547619Y-38222381D01*
X91214285Y-38936667D01*
X90880952Y-38222381D01*
X90880952Y-39222381D01*
X90404762Y-39222381D02*
X90404762Y-38222381D01*
X89357143Y-39127143D02*
X89404762Y-39174762D01*
X89547619Y-39222381D01*
X89642857Y-39222381D01*
X89785715Y-39174762D01*
X89880953Y-39079524D01*
X89928572Y-38984286D01*
X89976191Y-38793810D01*
X89976191Y-38650952D01*
X89928572Y-38460476D01*
X89880953Y-38365238D01*
X89785715Y-38270000D01*
X89642857Y-38222381D01*
X89547619Y-38222381D01*
X89404762Y-38270000D01*
X89357143Y-38317619D01*
X88452381Y-38222381D02*
X88928572Y-38222381D01*
X88976191Y-38698571D01*
X88928572Y-38650952D01*
X88833334Y-38603333D01*
X88595238Y-38603333D01*
X88500000Y-38650952D01*
X88452381Y-38698571D01*
X88404762Y-38793810D01*
X88404762Y-39031905D01*
X88452381Y-39127143D01*
X88500000Y-39174762D01*
X88595238Y-39222381D01*
X88833334Y-39222381D01*
X88928572Y-39174762D01*
X88976191Y-39127143D01*
X91547619Y-8352381D02*
X91547619Y-7352381D01*
X91214285Y-8066667D01*
X90880952Y-7352381D01*
X90880952Y-8352381D01*
X90404762Y-8352381D02*
X90404762Y-7352381D01*
X89357143Y-8257143D02*
X89404762Y-8304762D01*
X89547619Y-8352381D01*
X89642857Y-8352381D01*
X89785715Y-8304762D01*
X89880953Y-8209524D01*
X89928572Y-8114286D01*
X89976191Y-7923810D01*
X89976191Y-7780952D01*
X89928572Y-7590476D01*
X89880953Y-7495238D01*
X89785715Y-7400000D01*
X89642857Y-7352381D01*
X89547619Y-7352381D01*
X89404762Y-7400000D01*
X89357143Y-7447619D01*
X88500000Y-7685714D02*
X88500000Y-8352381D01*
X88738096Y-7304762D02*
X88976191Y-8019048D01*
X88357143Y-8019048D01*
X64877619Y-8352381D02*
X64877619Y-7352381D01*
X64544285Y-8066667D01*
X64210952Y-7352381D01*
X64210952Y-8352381D01*
X63734762Y-8352381D02*
X63734762Y-7352381D01*
X62687143Y-8257143D02*
X62734762Y-8304762D01*
X62877619Y-8352381D01*
X62972857Y-8352381D01*
X63115715Y-8304762D01*
X63210953Y-8209524D01*
X63258572Y-8114286D01*
X63306191Y-7923810D01*
X63306191Y-7780952D01*
X63258572Y-7590476D01*
X63210953Y-7495238D01*
X63115715Y-7400000D01*
X62972857Y-7352381D01*
X62877619Y-7352381D01*
X62734762Y-7400000D01*
X62687143Y-7447619D01*
X62353810Y-7352381D02*
X61734762Y-7352381D01*
X62068096Y-7733333D01*
X61925238Y-7733333D01*
X61830000Y-7780952D01*
X61782381Y-7828571D01*
X61734762Y-7923810D01*
X61734762Y-8161905D01*
X61782381Y-8257143D01*
X61830000Y-8304762D01*
X61925238Y-8352381D01*
X62210953Y-8352381D01*
X62306191Y-8304762D01*
X62353810Y-8257143D01*
X38217619Y-8352381D02*
X38217619Y-7352381D01*
X37884285Y-8066667D01*
X37550952Y-7352381D01*
X37550952Y-8352381D01*
X37074762Y-8352381D02*
X37074762Y-7352381D01*
X36027143Y-8257143D02*
X36074762Y-8304762D01*
X36217619Y-8352381D01*
X36312857Y-8352381D01*
X36455715Y-8304762D01*
X36550953Y-8209524D01*
X36598572Y-8114286D01*
X36646191Y-7923810D01*
X36646191Y-7780952D01*
X36598572Y-7590476D01*
X36550953Y-7495238D01*
X36455715Y-7400000D01*
X36312857Y-7352381D01*
X36217619Y-7352381D01*
X36074762Y-7400000D01*
X36027143Y-7447619D01*
X35646191Y-7447619D02*
X35598572Y-7400000D01*
X35503334Y-7352381D01*
X35265238Y-7352381D01*
X35170000Y-7400000D01*
X35122381Y-7447619D01*
X35074762Y-7542857D01*
X35074762Y-7638095D01*
X35122381Y-7780952D01*
X35693810Y-8352381D01*
X35074762Y-8352381D01*
X11547619Y-8352381D02*
X11547619Y-7352381D01*
X11214285Y-8066667D01*
X10880952Y-7352381D01*
X10880952Y-8352381D01*
X10404762Y-8352381D02*
X10404762Y-7352381D01*
X9357143Y-8257143D02*
X9404762Y-8304762D01*
X9547619Y-8352381D01*
X9642857Y-8352381D01*
X9785715Y-8304762D01*
X9880953Y-8209524D01*
X9928572Y-8114286D01*
X9976191Y-7923810D01*
X9976191Y-7780952D01*
X9928572Y-7590476D01*
X9880953Y-7495238D01*
X9785715Y-7400000D01*
X9642857Y-7352381D01*
X9547619Y-7352381D01*
X9404762Y-7400000D01*
X9357143Y-7447619D01*
X8404762Y-8352381D02*
X8976191Y-8352381D01*
X8690477Y-8352381D02*
X8690477Y-7352381D01*
X8785715Y-7495238D01*
X8880953Y-7590476D01*
X8976191Y-7638095D01*
X10802857Y-33992143D02*
X10850476Y-34039762D01*
X10993333Y-34087381D01*
X11088571Y-34087381D01*
X11231429Y-34039762D01*
X11326667Y-33944524D01*
X11374286Y-33849286D01*
X11421905Y-33658810D01*
X11421905Y-33515952D01*
X11374286Y-33325476D01*
X11326667Y-33230238D01*
X11231429Y-33135000D01*
X11088571Y-33087381D01*
X10993333Y-33087381D01*
X10850476Y-33135000D01*
X10802857Y-33182619D01*
X9850476Y-34087381D02*
X10421905Y-34087381D01*
X10136191Y-34087381D02*
X10136191Y-33087381D01*
X10231429Y-33230238D01*
X10326667Y-33325476D01*
X10421905Y-33373095D01*
X9469524Y-33182619D02*
X9421905Y-33135000D01*
X9326667Y-33087381D01*
X9088571Y-33087381D01*
X8993333Y-33135000D01*
X8945714Y-33182619D01*
X8898095Y-33277857D01*
X8898095Y-33373095D01*
X8945714Y-33515952D01*
X9517143Y-34087381D01*
X8898095Y-34087381D01*
X10802857Y-69357143D02*
X10850476Y-69404762D01*
X10993333Y-69452381D01*
X11088571Y-69452381D01*
X11231429Y-69404762D01*
X11326667Y-69309524D01*
X11374286Y-69214286D01*
X11421905Y-69023810D01*
X11421905Y-68880952D01*
X11374286Y-68690476D01*
X11326667Y-68595238D01*
X11231429Y-68500000D01*
X11088571Y-68452381D01*
X10993333Y-68452381D01*
X10850476Y-68500000D01*
X10802857Y-68547619D01*
X9850476Y-69452381D02*
X10421905Y-69452381D01*
X10136191Y-69452381D02*
X10136191Y-68452381D01*
X10231429Y-68595238D01*
X10326667Y-68690476D01*
X10421905Y-68738095D01*
X8898095Y-69452381D02*
X9469524Y-69452381D01*
X9183810Y-69452381D02*
X9183810Y-68452381D01*
X9279048Y-68595238D01*
X9374286Y-68690476D01*
X9469524Y-68738095D01*
X10802857Y-87332143D02*
X10850476Y-87379762D01*
X10993333Y-87427381D01*
X11088571Y-87427381D01*
X11231429Y-87379762D01*
X11326667Y-87284524D01*
X11374286Y-87189286D01*
X11421905Y-86998810D01*
X11421905Y-86855952D01*
X11374286Y-86665476D01*
X11326667Y-86570238D01*
X11231429Y-86475000D01*
X11088571Y-86427381D01*
X10993333Y-86427381D01*
X10850476Y-86475000D01*
X10802857Y-86522619D01*
X9850476Y-87427381D02*
X10421905Y-87427381D01*
X10136191Y-87427381D02*
X10136191Y-86427381D01*
X10231429Y-86570238D01*
X10326667Y-86665476D01*
X10421905Y-86713095D01*
X9231429Y-86427381D02*
X9136190Y-86427381D01*
X9040952Y-86475000D01*
X8993333Y-86522619D01*
X8945714Y-86617857D01*
X8898095Y-86808333D01*
X8898095Y-87046429D01*
X8945714Y-87236905D01*
X8993333Y-87332143D01*
X9040952Y-87379762D01*
X9136190Y-87427381D01*
X9231429Y-87427381D01*
X9326667Y-87379762D01*
X9374286Y-87332143D01*
X9421905Y-87236905D01*
X9469524Y-87046429D01*
X9469524Y-86808333D01*
X9421905Y-86617857D01*
X9374286Y-86522619D01*
X9326667Y-86475000D01*
X9231429Y-86427381D01*
X36996666Y-87332143D02*
X37044285Y-87379762D01*
X37187142Y-87427381D01*
X37282380Y-87427381D01*
X37425238Y-87379762D01*
X37520476Y-87284524D01*
X37568095Y-87189286D01*
X37615714Y-86998810D01*
X37615714Y-86855952D01*
X37568095Y-86665476D01*
X37520476Y-86570238D01*
X37425238Y-86475000D01*
X37282380Y-86427381D01*
X37187142Y-86427381D01*
X37044285Y-86475000D01*
X36996666Y-86522619D01*
X36520476Y-87427381D02*
X36330000Y-87427381D01*
X36234761Y-87379762D01*
X36187142Y-87332143D01*
X36091904Y-87189286D01*
X36044285Y-86998810D01*
X36044285Y-86617857D01*
X36091904Y-86522619D01*
X36139523Y-86475000D01*
X36234761Y-86427381D01*
X36425238Y-86427381D01*
X36520476Y-86475000D01*
X36568095Y-86522619D01*
X36615714Y-86617857D01*
X36615714Y-86855952D01*
X36568095Y-86951190D01*
X36520476Y-86998810D01*
X36425238Y-87046429D01*
X36234761Y-87046429D01*
X36139523Y-86998810D01*
X36091904Y-86951190D01*
X36044285Y-86855952D01*
X63666666Y-87332143D02*
X63714285Y-87379762D01*
X63857142Y-87427381D01*
X63952380Y-87427381D01*
X64095238Y-87379762D01*
X64190476Y-87284524D01*
X64238095Y-87189286D01*
X64285714Y-86998810D01*
X64285714Y-86855952D01*
X64238095Y-86665476D01*
X64190476Y-86570238D01*
X64095238Y-86475000D01*
X63952380Y-86427381D01*
X63857142Y-86427381D01*
X63714285Y-86475000D01*
X63666666Y-86522619D01*
X63095238Y-86855952D02*
X63190476Y-86808333D01*
X63238095Y-86760714D01*
X63285714Y-86665476D01*
X63285714Y-86617857D01*
X63238095Y-86522619D01*
X63190476Y-86475000D01*
X63095238Y-86427381D01*
X62904761Y-86427381D01*
X62809523Y-86475000D01*
X62761904Y-86522619D01*
X62714285Y-86617857D01*
X62714285Y-86665476D01*
X62761904Y-86760714D01*
X62809523Y-86808333D01*
X62904761Y-86855952D01*
X63095238Y-86855952D01*
X63190476Y-86903571D01*
X63238095Y-86951190D01*
X63285714Y-87046429D01*
X63285714Y-87236905D01*
X63238095Y-87332143D01*
X63190476Y-87379762D01*
X63095238Y-87427381D01*
X62904761Y-87427381D01*
X62809523Y-87379762D01*
X62761904Y-87332143D01*
X62714285Y-87236905D01*
X62714285Y-87046429D01*
X62761904Y-86951190D01*
X62809523Y-86903571D01*
X62904761Y-86855952D01*
X90336666Y-87332143D02*
X90384285Y-87379762D01*
X90527142Y-87427381D01*
X90622380Y-87427381D01*
X90765238Y-87379762D01*
X90860476Y-87284524D01*
X90908095Y-87189286D01*
X90955714Y-86998810D01*
X90955714Y-86855952D01*
X90908095Y-86665476D01*
X90860476Y-86570238D01*
X90765238Y-86475000D01*
X90622380Y-86427381D01*
X90527142Y-86427381D01*
X90384285Y-86475000D01*
X90336666Y-86522619D01*
X90003333Y-86427381D02*
X89336666Y-86427381D01*
X89765238Y-87427381D01*
X89701666Y-69357143D02*
X89749285Y-69404762D01*
X89892142Y-69452381D01*
X89987380Y-69452381D01*
X90130238Y-69404762D01*
X90225476Y-69309524D01*
X90273095Y-69214286D01*
X90320714Y-69023810D01*
X90320714Y-68880952D01*
X90273095Y-68690476D01*
X90225476Y-68595238D01*
X90130238Y-68500000D01*
X89987380Y-68452381D01*
X89892142Y-68452381D01*
X89749285Y-68500000D01*
X89701666Y-68547619D01*
X88844523Y-68452381D02*
X89035000Y-68452381D01*
X89130238Y-68500000D01*
X89177857Y-68547619D01*
X89273095Y-68690476D01*
X89320714Y-68880952D01*
X89320714Y-69261905D01*
X89273095Y-69357143D01*
X89225476Y-69404762D01*
X89130238Y-69452381D01*
X88939761Y-69452381D01*
X88844523Y-69404762D01*
X88796904Y-69357143D01*
X88749285Y-69261905D01*
X88749285Y-69023810D01*
X88796904Y-68928571D01*
X88844523Y-68880952D01*
X88939761Y-68833333D01*
X89130238Y-68833333D01*
X89225476Y-68880952D01*
X89273095Y-68928571D01*
X89320714Y-69023810D01*
X89701666Y-33992143D02*
X89749285Y-34039762D01*
X89892142Y-34087381D01*
X89987380Y-34087381D01*
X90130238Y-34039762D01*
X90225476Y-33944524D01*
X90273095Y-33849286D01*
X90320714Y-33658810D01*
X90320714Y-33515952D01*
X90273095Y-33325476D01*
X90225476Y-33230238D01*
X90130238Y-33135000D01*
X89987380Y-33087381D01*
X89892142Y-33087381D01*
X89749285Y-33135000D01*
X89701666Y-33182619D01*
X88796904Y-33087381D02*
X89273095Y-33087381D01*
X89320714Y-33563571D01*
X89273095Y-33515952D01*
X89177857Y-33468333D01*
X88939761Y-33468333D01*
X88844523Y-33515952D01*
X88796904Y-33563571D01*
X88749285Y-33658810D01*
X88749285Y-33896905D01*
X88796904Y-33992143D01*
X88844523Y-34039762D01*
X88939761Y-34087381D01*
X89177857Y-34087381D01*
X89273095Y-34039762D01*
X89320714Y-33992143D01*
X90336666Y-13712143D02*
X90384285Y-13759762D01*
X90527142Y-13807381D01*
X90622380Y-13807381D01*
X90765238Y-13759762D01*
X90860476Y-13664524D01*
X90908095Y-13569286D01*
X90955714Y-13378810D01*
X90955714Y-13235952D01*
X90908095Y-13045476D01*
X90860476Y-12950238D01*
X90765238Y-12855000D01*
X90622380Y-12807381D01*
X90527142Y-12807381D01*
X90384285Y-12855000D01*
X90336666Y-12902619D01*
X89479523Y-13140714D02*
X89479523Y-13807381D01*
X89717619Y-12759762D02*
X89955714Y-13474048D01*
X89336666Y-13474048D01*
X63666666Y-13712143D02*
X63714285Y-13759762D01*
X63857142Y-13807381D01*
X63952380Y-13807381D01*
X64095238Y-13759762D01*
X64190476Y-13664524D01*
X64238095Y-13569286D01*
X64285714Y-13378810D01*
X64285714Y-13235952D01*
X64238095Y-13045476D01*
X64190476Y-12950238D01*
X64095238Y-12855000D01*
X63952380Y-12807381D01*
X63857142Y-12807381D01*
X63714285Y-12855000D01*
X63666666Y-12902619D01*
X63333333Y-12807381D02*
X62714285Y-12807381D01*
X63047619Y-13188333D01*
X62904761Y-13188333D01*
X62809523Y-13235952D01*
X62761904Y-13283571D01*
X62714285Y-13378810D01*
X62714285Y-13616905D01*
X62761904Y-13712143D01*
X62809523Y-13759762D01*
X62904761Y-13807381D01*
X63190476Y-13807381D01*
X63285714Y-13759762D01*
X63333333Y-13712143D01*
X36996666Y-13712143D02*
X37044285Y-13759762D01*
X37187142Y-13807381D01*
X37282380Y-13807381D01*
X37425238Y-13759762D01*
X37520476Y-13664524D01*
X37568095Y-13569286D01*
X37615714Y-13378810D01*
X37615714Y-13235952D01*
X37568095Y-13045476D01*
X37520476Y-12950238D01*
X37425238Y-12855000D01*
X37282380Y-12807381D01*
X37187142Y-12807381D01*
X37044285Y-12855000D01*
X36996666Y-12902619D01*
X36615714Y-12902619D02*
X36568095Y-12855000D01*
X36472857Y-12807381D01*
X36234761Y-12807381D01*
X36139523Y-12855000D01*
X36091904Y-12902619D01*
X36044285Y-12997857D01*
X36044285Y-13093095D01*
X36091904Y-13235952D01*
X36663333Y-13807381D01*
X36044285Y-13807381D01*
X10326666Y-13712143D02*
X10374285Y-13759762D01*
X10517142Y-13807381D01*
X10612380Y-13807381D01*
X10755238Y-13759762D01*
X10850476Y-13664524D01*
X10898095Y-13569286D01*
X10945714Y-13378810D01*
X10945714Y-13235952D01*
X10898095Y-13045476D01*
X10850476Y-12950238D01*
X10755238Y-12855000D01*
X10612380Y-12807381D01*
X10517142Y-12807381D01*
X10374285Y-12855000D01*
X10326666Y-12902619D01*
X9374285Y-13807381D02*
X9945714Y-13807381D01*
X9660000Y-13807381D02*
X9660000Y-12807381D01*
X9755238Y-12950238D01*
X9850476Y-13045476D01*
X9945714Y-13093095D01*
M02*
