M48
;DRILL file {KiCad 4.0.7} date 12/17/17 16:52:37
;FORMAT={-:-/ absolute / metric / decimal}
FMAT,2
METRIC,TZ
T1C0.400
T2C0.762
T3C1.000
T4C3.200
%
G90
G05
M71
T1
X5.Y-10.
X5.Y-20.
X5.Y-80.
X5.Y-90.
X7.62Y-88.9
X8.255Y-22.86
X8.355Y-73.635
X10.Y-5.
X10.Y-95.
X11.43Y-20.955
X12.7Y-9.525
X12.7Y-22.86
X12.7Y-77.47
X13.335Y-36.83
X13.335Y-63.5
X13.97Y-11.43
X13.97Y-80.01
X15.24Y-9.525
X15.24Y-49.53
X15.604Y-52.068
X15.875Y-94.615
X16.51Y-88.265
X17.145Y-46.99
X19.05Y-36.83
X19.05Y-63.5
X19.685Y-41.91
X20.Y-15.
X20.Y-21.
X20.Y-75.
X20.Y-80.
X20.Y-86.
X20.144Y-59.685
X20.881Y-39.754
X20.955Y-57.15
X22.169Y-33.895
X22.62Y-31.772
X23.495Y-69.85
X24.Y-15.
X24.Y-21.
X24.Y-47.
X24.Y-52.5
X25.Y-75.
X25.Y-80.
X25.Y-86.
X25.Y-98.
X26.035Y-26.67
X26.67Y-66.04
X28.Y-21.
X28.Y-35.
X28.Y-39.
X28.Y-56.5
X30.Y-86.
X31.Y-28.
X32.Y-15.
X33.Y-2.
X33.Y-8.
X33.Y-70.
X33.02Y-12.065
X34.29Y-96.52
X39.37Y-5.08
X39.37Y-87.63
X42.Y-2.
X42.Y-8.
X45.Y-15.
X45.Y-67.
X45.Y-86.
X45.Y-98.
X50.Y-15.
X50.Y-24.
X50.Y-41.
X50.Y-58.
X50.Y-76.
X50.Y-86.
X55.Y-15.
X55.Y-32.
X55.Y-50.
X55.Y-86.
X55.Y-98.
X60.325Y-13.335
X60.96Y-96.52
X66.04Y-5.08
X66.04Y-87.63
X67.5Y-71.5
X70.Y-2.
X70.Y-15.
X70.Y-28.
X72.Y-44.
X72.Y-61.
X74.69Y-34.279
X74.854Y-29.224
X75.Y-2.
X75.Y-15.
X75.Y-20.
X75.Y-25.
X75.Y-80.
X75.Y-86.
X76.5Y-52.5
X76.835Y-83.185
X78.Y-86.
X78.735Y-64.979
X79.375Y-69.85
X79.51Y-86.
X80.Y-2.
X80.Y-15.
X80.Y-20.
X80.Y-25.
X80.Y-75.
X80.Y-80.
X80.01Y-41.91
X80.01Y-62.865
X80.01Y-83.185
X80.645Y-39.37
X81.915Y-57.15
X82.55Y-90.17
X83.022Y-46.986
X83.185Y-54.61
X83.319Y-49.54
X85.Y-20.
X85.Y-25.
X85.Y-75.
X85.Y-80.
X85.Y-86.
X85.09Y-36.195
X85.09Y-62.865
X86.36Y-12.065
X86.36Y-90.17
X86.995Y-20.955
X86.995Y-78.74
X90.Y-5.
X90.Y-95.
X90.463Y-23.533
X91.44Y-80.01
X91.44Y-82.55
X92.71Y-10.795
X95.Y-10.
X95.Y-20.
X95.Y-80.
X95.Y-90.
T2
X20.Y-47.5
X20.Y-52.5
X25.Y-38.8
X25.Y-43.8
X25.Y-56.2
X25.Y-61.2
X30.Y-30.1
X30.Y-35.1
X30.Y-47.5
X30.Y-52.5
X30.Y-64.9
X30.Y-69.9
X35.Y-21.4
X35.Y-26.4
X35.Y-38.8
X35.Y-43.8
X35.Y-56.2
X35.Y-61.2
X35.Y-73.6
X35.Y-78.6
X40.Y-30.1
X40.Y-35.1
X40.Y-47.5
X40.Y-52.5
X40.Y-64.9
X40.Y-69.9
X45.Y-21.4
X45.Y-26.4
X45.Y-38.8
X45.Y-43.8
X45.Y-56.2
X45.Y-61.2
X45.Y-73.6
X45.Y-78.6
X50.Y-30.1
X50.Y-35.1
X50.Y-47.5
X50.Y-52.5
X50.Y-64.9
X50.Y-69.9
X55.Y-21.4
X55.Y-26.4
X55.Y-38.8
X55.Y-43.8
X55.Y-56.2
X55.Y-61.2
X55.Y-73.6
X55.Y-78.6
X60.Y-30.1
X60.Y-35.1
X60.Y-47.5
X60.Y-52.5
X60.Y-64.9
X60.Y-69.9
X65.Y-21.4
X65.Y-26.4
X65.Y-38.8
X65.Y-43.8
X65.Y-56.2
X65.Y-61.2
X65.Y-73.6
X65.Y-78.6
X70.Y-30.1
X70.Y-35.1
X70.Y-47.5
X70.Y-52.5
X70.Y-64.9
X70.Y-69.9
X75.Y-38.8
X75.Y-43.8
X75.Y-56.2
X75.Y-61.2
X80.Y-47.5
X80.Y-52.5
T3
X3.81Y-25.4
X3.81Y-27.94
X3.81Y-30.48
X3.81Y-33.02
X3.81Y-35.56
X3.81Y-38.1
X3.81Y-40.64
X3.81Y-43.18
X3.81Y-45.72
X3.81Y-48.26
X3.81Y-50.8
X3.81Y-53.34
X3.81Y-55.88
X3.81Y-58.42
X3.81Y-60.96
X3.81Y-63.5
X3.81Y-66.04
X3.81Y-68.58
X3.81Y-71.12
X3.81Y-73.66
X6.35Y-25.4
X6.35Y-27.94
X6.35Y-30.48
X6.35Y-33.02
X6.35Y-35.56
X6.35Y-38.1
X6.35Y-40.64
X6.35Y-43.18
X6.35Y-45.72
X6.35Y-48.26
X6.35Y-50.8
X6.35Y-53.34
X6.35Y-55.88
X6.35Y-58.42
X6.35Y-60.96
X6.35Y-63.5
X6.35Y-66.04
X6.35Y-68.58
X6.35Y-71.12
X6.35Y-73.66
X10.Y-10.
X10.Y-36.67
X10.Y-63.33
X10.Y-90.
X12.7Y-5.08
X12.7Y-7.62
X15.24Y-5.08
X15.24Y-7.62
X17.78Y-5.08
X17.78Y-7.62
X20.32Y-5.08
X20.32Y-7.62
X22.86Y-5.08
X22.86Y-7.62
X25.4Y-5.08
X25.4Y-7.62
X27.94Y-5.08
X27.94Y-7.62
X36.67Y-10.
X36.67Y-90.
X63.33Y-10.
X63.33Y-90.
X71.12Y-93.98
X71.12Y-96.52
X73.66Y-93.98
X73.66Y-96.52
X76.2Y-93.98
X76.2Y-96.52
X78.74Y-93.98
X78.74Y-96.52
X81.28Y-93.98
X81.28Y-96.52
X83.82Y-93.98
X83.82Y-96.52
X86.36Y-93.98
X86.36Y-96.52
X90.Y-10.
X90.Y-36.67
X90.Y-63.33
X90.Y-90.
X93.98Y-25.4
X93.98Y-27.94
X93.98Y-30.48
X93.98Y-33.02
X93.98Y-35.56
X93.98Y-38.1
X93.98Y-40.64
X93.98Y-43.18
X93.98Y-45.72
X93.98Y-48.26
X93.98Y-50.8
X93.98Y-53.34
X93.98Y-55.88
X93.98Y-58.42
X93.98Y-60.96
X93.98Y-63.5
X93.98Y-66.04
X93.98Y-68.58
X93.98Y-71.12
X93.98Y-73.66
X96.52Y-25.4
X96.52Y-27.94
X96.52Y-30.48
X96.52Y-33.02
X96.52Y-35.56
X96.52Y-38.1
X96.52Y-40.64
X96.52Y-43.18
X96.52Y-45.72
X96.52Y-48.26
X96.52Y-50.8
X96.52Y-53.34
X96.52Y-55.88
X96.52Y-58.42
X96.52Y-60.96
X96.52Y-63.5
X96.52Y-66.04
X96.52Y-68.58
X96.52Y-71.12
X96.52Y-73.66
T4
X5.Y-5.
X5.Y-95.
X95.Y-5.
X95.Y-95.
T0
M30
