G04 #@! TF.FileFunction,Copper,L1,Top,Signal*
%FSLAX46Y46*%
G04 Gerber Fmt 4.6, Leading zero omitted, Abs format (unit mm)*
G04 Created by KiCad (PCBNEW 4.0.7) date 10/23/17 22:32:18*
%MOMM*%
%LPD*%
G01*
G04 APERTURE LIST*
%ADD10C,0.100000*%
%ADD11R,1.524000X1.524000*%
%ADD12C,1.524000*%
%ADD13C,1.650000*%
%ADD14R,1.700000X1.700000*%
%ADD15O,1.700000X1.700000*%
%ADD16C,6.400000*%
%ADD17C,0.800000*%
%ADD18C,0.500000*%
%ADD19C,1.000000*%
%ADD20C,0.250000*%
G04 APERTURE END LIST*
D10*
D11*
X60000000Y-52500000D03*
D12*
X60000000Y-47500000D03*
D11*
X40000000Y-30100000D03*
D12*
X40000000Y-35100000D03*
D11*
X35000000Y-38800000D03*
D12*
X35000000Y-43800000D03*
D11*
X25000000Y-38800000D03*
D12*
X25000000Y-43800000D03*
D11*
X30000000Y-30100000D03*
D12*
X30000000Y-35100000D03*
D11*
X40000000Y-47500000D03*
D12*
X40000000Y-52500000D03*
D11*
X40000000Y-64900000D03*
D12*
X40000000Y-69900000D03*
D11*
X35000000Y-56200000D03*
D12*
X35000000Y-61200000D03*
D11*
X25000000Y-56200000D03*
D12*
X25000000Y-61200000D03*
D11*
X30000000Y-47500000D03*
D12*
X30000000Y-52500000D03*
D11*
X30000000Y-64900000D03*
D12*
X30000000Y-69900000D03*
D11*
X65000000Y-78600000D03*
D12*
X65000000Y-73600000D03*
D11*
X55000000Y-78600000D03*
D12*
X55000000Y-73600000D03*
D11*
X45000000Y-73600000D03*
D12*
X45000000Y-78600000D03*
D11*
X35000000Y-73600000D03*
D12*
X35000000Y-78600000D03*
D11*
X70000000Y-69900000D03*
D12*
X70000000Y-64900000D03*
D11*
X60000000Y-69900000D03*
D12*
X60000000Y-64900000D03*
D11*
X50000000Y-69900000D03*
D12*
X50000000Y-64900000D03*
D11*
X75000000Y-61200000D03*
D12*
X75000000Y-56200000D03*
D11*
X65000000Y-61200000D03*
D12*
X65000000Y-56200000D03*
D11*
X55000000Y-61200000D03*
D12*
X55000000Y-56200000D03*
D11*
X45000000Y-56200000D03*
D12*
X45000000Y-61200000D03*
D11*
X80000000Y-52500000D03*
D12*
X80000000Y-47500000D03*
D11*
X70000000Y-52500000D03*
D12*
X70000000Y-47500000D03*
D11*
X50000000Y-47500000D03*
D12*
X50000000Y-52500000D03*
D11*
X20000000Y-47500000D03*
D12*
X20000000Y-52500000D03*
D11*
X75000000Y-43800000D03*
D12*
X75000000Y-38800000D03*
D11*
X65000000Y-43800000D03*
D12*
X65000000Y-38800000D03*
D11*
X55000000Y-43800000D03*
D12*
X55000000Y-38800000D03*
D11*
X45000000Y-38800000D03*
D12*
X45000000Y-43800000D03*
D11*
X70000000Y-35100000D03*
D12*
X70000000Y-30100000D03*
D11*
X60000000Y-35100000D03*
D12*
X60000000Y-30100000D03*
D11*
X50000000Y-30100000D03*
D12*
X50000000Y-35100000D03*
D11*
X65000000Y-26400000D03*
D12*
X65000000Y-21400000D03*
D11*
X55000000Y-26400000D03*
D12*
X55000000Y-21400000D03*
D11*
X45000000Y-21400000D03*
D12*
X45000000Y-26400000D03*
D13*
X10000000Y-36670000D03*
X10000000Y-63330000D03*
X10000000Y-90000000D03*
X36670000Y-90000000D03*
X63330000Y-90000000D03*
X90000000Y-90000000D03*
X90000000Y-63330000D03*
X90000000Y-36670000D03*
X90000000Y-10000000D03*
X63330000Y-10000000D03*
X36670000Y-10000000D03*
X10000000Y-10000000D03*
D14*
X71120000Y-96520000D03*
D15*
X71120000Y-93980000D03*
X73660000Y-96520000D03*
X73660000Y-93980000D03*
X76200000Y-96520000D03*
X76200000Y-93980000D03*
X78740000Y-96520000D03*
X78740000Y-93980000D03*
X81280000Y-96520000D03*
X81280000Y-93980000D03*
D14*
X93980000Y-25400000D03*
D15*
X96520000Y-25400000D03*
X93980000Y-27940000D03*
X96520000Y-27940000D03*
X93980000Y-30480000D03*
X96520000Y-30480000D03*
X93980000Y-33020000D03*
X96520000Y-33020000D03*
X93980000Y-35560000D03*
X96520000Y-35560000D03*
X93980000Y-38100000D03*
X96520000Y-38100000D03*
X93980000Y-40640000D03*
X96520000Y-40640000D03*
X93980000Y-43180000D03*
X96520000Y-43180000D03*
X93980000Y-45720000D03*
X96520000Y-45720000D03*
X93980000Y-48260000D03*
X96520000Y-48260000D03*
X93980000Y-50800000D03*
X96520000Y-50800000D03*
X93980000Y-53340000D03*
X96520000Y-53340000D03*
X93980000Y-55880000D03*
X96520000Y-55880000D03*
X93980000Y-58420000D03*
X96520000Y-58420000D03*
X93980000Y-60960000D03*
X96520000Y-60960000D03*
X93980000Y-63500000D03*
X96520000Y-63500000D03*
X93980000Y-66040000D03*
X96520000Y-66040000D03*
X93980000Y-68580000D03*
X96520000Y-68580000D03*
X93980000Y-71120000D03*
X96520000Y-71120000D03*
X93980000Y-73660000D03*
X96520000Y-73660000D03*
D14*
X27940000Y-5080000D03*
D15*
X27940000Y-7620000D03*
X25400000Y-5080000D03*
X25400000Y-7620000D03*
X22860000Y-5080000D03*
X22860000Y-7620000D03*
X20320000Y-5080000D03*
X20320000Y-7620000D03*
X17780000Y-5080000D03*
X17780000Y-7620000D03*
D11*
X35000000Y-21400000D03*
D12*
X35000000Y-26400000D03*
D14*
X3810000Y-25400000D03*
D15*
X6350000Y-25400000D03*
X3810000Y-27940000D03*
X6350000Y-27940000D03*
X3810000Y-30480000D03*
X6350000Y-30480000D03*
X3810000Y-33020000D03*
X6350000Y-33020000D03*
X3810000Y-35560000D03*
X6350000Y-35560000D03*
X3810000Y-38100000D03*
X6350000Y-38100000D03*
X3810000Y-40640000D03*
X6350000Y-40640000D03*
X3810000Y-43180000D03*
X6350000Y-43180000D03*
X3810000Y-45720000D03*
X6350000Y-45720000D03*
X3810000Y-48260000D03*
X6350000Y-48260000D03*
X3810000Y-50800000D03*
X6350000Y-50800000D03*
X3810000Y-53340000D03*
X6350000Y-53340000D03*
X3810000Y-55880000D03*
X6350000Y-55880000D03*
X3810000Y-58420000D03*
X6350000Y-58420000D03*
X3810000Y-60960000D03*
X6350000Y-60960000D03*
X3810000Y-63500000D03*
X6350000Y-63500000D03*
X3810000Y-66040000D03*
X6350000Y-66040000D03*
X3810000Y-68580000D03*
X6350000Y-68580000D03*
X3810000Y-71120000D03*
X6350000Y-71120000D03*
X3810000Y-73660000D03*
X6350000Y-73660000D03*
D16*
X5000000Y-5000000D03*
X95000000Y-5000000D03*
X95000000Y-95000000D03*
X5000000Y-95000000D03*
D17*
X85090000Y-36195000D03*
X85090000Y-62865000D03*
X19050000Y-36830000D03*
X13335000Y-36830000D03*
X75000000Y-25000000D03*
X80000000Y-25000000D03*
X85000000Y-25000000D03*
X55000000Y-50000000D03*
X50000000Y-24000000D03*
X55000000Y-32000000D03*
X50000000Y-41000000D03*
X50000000Y-58000000D03*
X45000000Y-67000000D03*
X30000000Y-86000000D03*
X13000000Y-21000000D03*
X55000000Y-86000000D03*
X91440000Y-82550000D03*
X13970000Y-80010000D03*
X15875000Y-94615000D03*
X80000000Y-86000000D03*
X75000000Y-86000000D03*
X24000000Y-21000000D03*
X55000000Y-98000000D03*
X25000000Y-98000000D03*
X45000000Y-98000000D03*
X33000000Y-70000000D03*
X67500000Y-71500000D03*
X72000000Y-61000000D03*
X76500000Y-52500000D03*
X72000000Y-44000000D03*
X28000000Y-56500000D03*
X24000000Y-52500000D03*
X24000000Y-47000000D03*
X28000000Y-35000000D03*
X28000000Y-39000000D03*
X70000000Y-28000000D03*
X31000000Y-28000000D03*
X20000000Y-86000000D03*
X25000000Y-86000000D03*
X45000000Y-86000000D03*
X50000000Y-86000000D03*
X80000000Y-2000000D03*
X75000000Y-2000000D03*
X70000000Y-2000000D03*
X42000000Y-2000000D03*
X33000000Y-2000000D03*
X32000000Y-15000000D03*
X45000000Y-15000000D03*
X55000000Y-15000000D03*
X50000000Y-15000000D03*
X22000000Y-13000000D03*
X20000000Y-21000000D03*
X28000000Y-21000000D03*
X50000000Y-76000000D03*
X75000000Y-80000000D03*
X80000000Y-75000000D03*
X80000000Y-80000000D03*
X85000000Y-80000000D03*
X85000000Y-75000000D03*
X25000000Y-75000000D03*
X25000000Y-80000000D03*
X20000000Y-80000000D03*
X20000000Y-75000000D03*
X19050000Y-63500000D03*
X13335000Y-63500000D03*
X42000000Y-8000000D03*
X33000000Y-8000000D03*
X5000000Y-90000000D03*
X90000000Y-95000000D03*
X95000000Y-90000000D03*
X10000000Y-95000000D03*
X90000000Y-5000000D03*
X5000000Y-10000000D03*
X95000000Y-10000000D03*
X10000000Y-5000000D03*
X5000000Y-20000000D03*
X95000000Y-15000000D03*
X95000000Y-20000000D03*
X85000000Y-20000000D03*
X75000000Y-20000000D03*
X80000000Y-20000000D03*
X80000000Y-15000000D03*
X75000000Y-15000000D03*
X70000000Y-15000000D03*
X5000000Y-15000000D03*
X5000000Y-80000000D03*
X86360000Y-12065000D03*
X90463057Y-23532682D03*
X33020000Y-12065000D03*
X60325000Y-13335000D03*
X12700000Y-24130000D03*
X26035000Y-26670000D03*
X22620469Y-31772020D03*
X22169158Y-33895446D03*
X20880532Y-39753504D03*
X19685000Y-41910000D03*
X17145000Y-46990000D03*
X15240000Y-49530000D03*
X15603834Y-52068472D03*
X20955000Y-57150000D03*
X20144309Y-59684933D03*
X26670000Y-66040000D03*
X23495000Y-69850000D03*
X74853625Y-29223867D03*
X74690166Y-34279072D03*
X80645000Y-39370000D03*
X80010000Y-41910000D03*
X83022184Y-46985591D03*
X83319443Y-49540099D03*
X83185000Y-54610000D03*
X81915000Y-57150000D03*
X80010000Y-62865000D03*
X78735091Y-64979308D03*
X79375000Y-69850000D03*
X92710000Y-87630000D03*
X86995000Y-77470000D03*
X39370000Y-87630000D03*
X66040000Y-87630000D03*
X8354985Y-73634587D03*
X16510000Y-88265000D03*
X86995000Y-20955000D03*
X66040000Y-5080000D03*
X39370000Y-5080000D03*
X8255000Y-23495000D03*
X92710000Y-10795000D03*
X13335000Y-10795000D03*
X12700000Y-75565000D03*
X91440000Y-77470000D03*
X60960000Y-96520000D03*
X34290000Y-96520000D03*
X86360000Y-90170000D03*
X7620000Y-88900000D03*
D18*
X85565000Y-36670000D02*
X85090000Y-36195000D01*
X90000000Y-36670000D02*
X85565000Y-36670000D01*
X85555000Y-63330000D02*
X85090000Y-62865000D01*
X90000000Y-63330000D02*
X85555000Y-63330000D01*
X10000000Y-36670000D02*
X13175000Y-36670000D01*
X13175000Y-36670000D02*
X13335000Y-36830000D01*
X10000000Y-63330000D02*
X13165000Y-63330000D01*
X13165000Y-63330000D02*
X13335000Y-63500000D01*
D19*
X85000000Y-25000000D02*
X93580000Y-25000000D01*
X93580000Y-25000000D02*
X93980000Y-25400000D01*
D20*
X80000000Y-25000000D02*
X75000000Y-25000000D01*
X67500000Y-71500000D02*
X54500000Y-71500000D01*
X54500000Y-71500000D02*
X50000000Y-76000000D01*
X55000000Y-50000000D02*
X55000000Y-52000000D01*
X56000000Y-48000000D02*
X56000000Y-49000000D01*
X56000000Y-49000000D02*
X55000000Y-50000000D01*
X50000000Y-58000000D02*
X50000000Y-61000000D01*
X46000000Y-54000000D02*
X50000000Y-58000000D01*
X50000000Y-27000000D02*
X50000000Y-24000000D01*
X50000000Y-24000000D02*
X50000000Y-21000000D01*
X50000000Y-41000000D02*
X50000000Y-39000000D01*
X50000000Y-44000000D02*
X50000000Y-41000000D01*
X45000000Y-70000000D02*
X45000000Y-67000000D01*
D19*
X93980000Y-73660000D02*
X92710000Y-73660000D01*
X17780000Y-9220000D02*
X17000000Y-10000000D01*
X17780000Y-5080000D02*
X17780000Y-9220000D01*
D20*
X55000000Y-86000000D02*
X45000000Y-86000000D01*
X13970000Y-80010000D02*
X13970000Y-86030000D01*
X13970000Y-86030000D02*
X10000000Y-90000000D01*
X10000000Y-90000000D02*
X11260000Y-90000000D01*
X11260000Y-90000000D02*
X15875000Y-94615000D01*
X75000000Y-80000000D02*
X75000000Y-86000000D01*
X20000000Y-21000000D02*
X24000000Y-21000000D01*
X45000000Y-98000000D02*
X25000000Y-98000000D01*
X40000000Y-73500000D02*
X36500000Y-70000000D01*
X36500000Y-70000000D02*
X33000000Y-70000000D01*
X43500000Y-70000000D02*
X40000000Y-73500000D01*
X45000000Y-70000000D02*
X43500000Y-70000000D01*
X53000000Y-63000000D02*
X70000000Y-63000000D01*
X70000000Y-63000000D02*
X72000000Y-61000000D01*
X51000000Y-61000000D02*
X53000000Y-63000000D01*
X50000000Y-61000000D02*
X51000000Y-61000000D01*
X59000000Y-56000000D02*
X59937001Y-55062999D01*
X59937001Y-55062999D02*
X73937001Y-55062999D01*
X73937001Y-55062999D02*
X76500000Y-52500000D01*
X55000000Y-52000000D02*
X59000000Y-56000000D01*
X58500000Y-45500000D02*
X70500000Y-45500000D01*
X70500000Y-45500000D02*
X72000000Y-44000000D01*
X56000000Y-48000000D02*
X58500000Y-45500000D01*
X24000000Y-52500000D02*
X28000000Y-56500000D01*
X46000000Y-54000000D02*
X25500000Y-54000000D01*
X25500000Y-54000000D02*
X24000000Y-52500000D01*
X46000000Y-46000000D02*
X25000000Y-46000000D01*
X25000000Y-46000000D02*
X24000000Y-47000000D01*
X48000000Y-44000000D02*
X46000000Y-46000000D01*
X50000000Y-44000000D02*
X48000000Y-44000000D01*
X28000000Y-39000000D02*
X28000000Y-35000000D01*
X47000000Y-37000000D02*
X30000000Y-37000000D01*
X30000000Y-37000000D02*
X28000000Y-39000000D01*
X49000000Y-39000000D02*
X47000000Y-37000000D01*
X50000000Y-39000000D02*
X49000000Y-39000000D01*
X25000000Y-80000000D02*
X25000000Y-86000000D01*
X50000000Y-76000000D02*
X50000000Y-86000000D01*
X75000000Y-2000000D02*
X80000000Y-2000000D01*
X70000000Y-2000000D02*
X75000000Y-2000000D01*
X33000000Y-2000000D02*
X42000000Y-2000000D01*
X45000000Y-15000000D02*
X32000000Y-15000000D01*
X50000000Y-21000000D02*
X50000000Y-15000000D01*
X20000000Y-21000000D02*
X20000000Y-15000000D01*
X20000000Y-15000000D02*
X22000000Y-13000000D01*
X48000000Y-19000000D02*
X30000000Y-19000000D01*
X30000000Y-19000000D02*
X28000000Y-21000000D01*
X50000000Y-21000000D02*
X48000000Y-19000000D01*
X80000000Y-80000000D02*
X75000000Y-80000000D01*
X85000000Y-75000000D02*
X85000000Y-80000000D01*
X25000000Y-80000000D02*
X25000000Y-75000000D01*
X20000000Y-75000000D02*
X20000000Y-80000000D01*
D19*
X33000000Y-8000000D02*
X42000000Y-8000000D01*
X95000000Y-15000000D02*
X95000000Y-10000000D01*
X93980000Y-21020000D02*
X96520000Y-23560000D01*
X96520000Y-23560000D02*
X96520000Y-25400000D01*
X93980000Y-25400000D02*
X93980000Y-21020000D01*
X95000000Y-74680000D02*
X95500000Y-74680000D01*
X95500000Y-74680000D02*
X96520000Y-73660000D01*
X95000000Y-90000000D02*
X95000000Y-74680000D01*
X95000000Y-74680000D02*
X93980000Y-73660000D01*
X5000000Y-74850000D02*
X5160000Y-74850000D01*
X5160000Y-74850000D02*
X6350000Y-73660000D01*
X3810000Y-73660000D02*
X5000000Y-74850000D01*
X90000000Y-95000000D02*
X95000000Y-95000000D01*
X5000000Y-95000000D02*
X5000000Y-90000000D01*
X95000000Y-95000000D02*
X95000000Y-90000000D01*
X5000000Y-95000000D02*
X10000000Y-95000000D01*
X95000000Y-5000000D02*
X90000000Y-5000000D01*
X95000000Y-5000000D02*
X95000000Y-10000000D01*
X5000000Y-5000000D02*
X10000000Y-5000000D01*
X5000000Y-5000000D02*
X5000000Y-10000000D01*
X5000000Y-15000000D02*
X5000000Y-20000000D01*
X80000000Y-20000000D02*
X75000000Y-20000000D01*
X80000000Y-15000000D02*
X80000000Y-20000000D01*
X75000000Y-15000000D02*
X80000000Y-15000000D01*
D20*
X80689999Y-6394999D02*
X86360000Y-12065000D01*
X25400000Y-5080000D02*
X26714999Y-6394999D01*
X26714999Y-6394999D02*
X80689999Y-6394999D01*
X89897372Y-23532682D02*
X90463057Y-23532682D01*
X75086680Y-23532682D02*
X89897372Y-23532682D01*
X25400000Y-7620000D02*
X29069999Y-11289999D01*
X62843997Y-11289999D02*
X75086680Y-23532682D01*
X29069999Y-11289999D02*
X62843997Y-11289999D01*
X22860000Y-5080000D02*
X24085001Y-6305001D01*
X24085001Y-6305001D02*
X24085001Y-8118003D01*
X24085001Y-8118003D02*
X28031998Y-12065000D01*
X28031998Y-12065000D02*
X33020000Y-12065000D01*
X27372919Y-13335000D02*
X60325000Y-13335000D01*
X22860000Y-7620000D02*
X22860000Y-8822081D01*
X22860000Y-8822081D02*
X27372919Y-13335000D01*
X12700000Y-24130000D02*
X19050000Y-17780000D01*
X19050000Y-17780000D02*
X19050000Y-6350000D01*
X19050000Y-6350000D02*
X20320000Y-5080000D01*
X29210000Y-25400000D02*
X33210000Y-21400000D01*
X33210000Y-21400000D02*
X35000000Y-21400000D01*
X6350000Y-25400000D02*
X29210000Y-25400000D01*
X3980000Y-26670000D02*
X26035000Y-26670000D01*
X3810000Y-26500000D02*
X3980000Y-26670000D01*
X3810000Y-25400000D02*
X3810000Y-26500000D01*
X4445000Y-24765000D02*
X3810000Y-25400000D01*
X3810000Y-25400000D02*
X4445000Y-26035000D01*
X31822120Y-23495000D02*
X41893000Y-23495000D01*
X41893000Y-23495000D02*
X43988000Y-21400000D01*
X43988000Y-21400000D02*
X45000000Y-21400000D01*
X6350000Y-27940000D02*
X27377120Y-27940000D01*
X27377120Y-27940000D02*
X31822120Y-23495000D01*
X31259240Y-24765000D02*
X26859239Y-29165001D01*
X26859239Y-29165001D02*
X5035001Y-29165001D01*
X5035001Y-29165001D02*
X3810000Y-27940000D01*
X45000000Y-26400000D02*
X43365000Y-24765000D01*
X43365000Y-24765000D02*
X31259240Y-24765000D01*
X6350000Y-30480000D02*
X29620000Y-30480000D01*
X29620000Y-30480000D02*
X30000000Y-30100000D01*
X5102020Y-31772020D02*
X22620469Y-31772020D01*
X3810000Y-30480000D02*
X5102020Y-31772020D01*
X38988000Y-30100000D02*
X40000000Y-30100000D01*
X23902154Y-32385000D02*
X36703000Y-32385000D01*
X6350000Y-33020000D02*
X23267154Y-33020000D01*
X23267154Y-33020000D02*
X23902154Y-32385000D01*
X36703000Y-32385000D02*
X38988000Y-30100000D01*
X21769159Y-34295445D02*
X22169158Y-33895446D01*
X5085445Y-34295445D02*
X21769159Y-34295445D01*
X3810000Y-33020000D02*
X5085445Y-34295445D01*
X50000000Y-30100000D02*
X43317238Y-30100000D01*
X43317238Y-30100000D02*
X40397238Y-33020000D01*
X7017078Y-34892922D02*
X6350000Y-35560000D01*
X40397238Y-33020000D02*
X24642312Y-33020000D01*
X24642312Y-33020000D02*
X22769390Y-34892922D01*
X22769390Y-34892922D02*
X7017078Y-34892922D01*
X3810000Y-35560000D02*
X5124999Y-36874999D01*
X9133384Y-35406614D02*
X23648386Y-35406614D01*
X5124999Y-36874999D02*
X7664999Y-36874999D01*
X7664999Y-36874999D02*
X9133384Y-35406614D01*
X48862999Y-33962999D02*
X50000000Y-35100000D01*
X23648386Y-35406614D02*
X25092001Y-33962999D01*
X25092001Y-33962999D02*
X48862999Y-33962999D01*
X6350000Y-38100000D02*
X24300000Y-38100000D01*
X24300000Y-38100000D02*
X25000000Y-38800000D01*
X20452029Y-39325001D02*
X20880532Y-39753504D01*
X5035001Y-39325001D02*
X20452029Y-39325001D01*
X3810000Y-38100000D02*
X5035001Y-39325001D01*
X34172000Y-40640000D02*
X35000000Y-39812000D01*
X35000000Y-39812000D02*
X35000000Y-38800000D01*
X6350000Y-40640000D02*
X34172000Y-40640000D01*
X3810000Y-40640000D02*
X5080000Y-41910000D01*
X5080000Y-41910000D02*
X19685000Y-41910000D01*
X3736954Y-40640000D02*
X3727436Y-40630482D01*
X3810000Y-40640000D02*
X3736954Y-40640000D01*
X21814444Y-43180000D02*
X23854434Y-41140010D01*
X43988000Y-38800000D02*
X45000000Y-38800000D01*
X41647990Y-41140010D02*
X43988000Y-38800000D01*
X6350000Y-43180000D02*
X21814444Y-43180000D01*
X23854434Y-41140010D02*
X41647990Y-41140010D01*
X5035001Y-44405001D02*
X3810000Y-43180000D01*
X21296565Y-44405001D02*
X5035001Y-44405001D01*
X42840021Y-41640021D02*
X24061545Y-41640021D01*
X45000000Y-43800000D02*
X42840021Y-41640021D01*
X24061545Y-41640021D02*
X21296565Y-44405001D01*
X6350000Y-45720000D02*
X19232000Y-45720000D01*
X19232000Y-45720000D02*
X20000000Y-46488000D01*
X20000000Y-46488000D02*
X20000000Y-47500000D01*
X3810000Y-45720000D02*
X5080000Y-46990000D01*
X5080000Y-46990000D02*
X17145000Y-46990000D01*
X18415000Y-49530000D02*
X26958000Y-49530000D01*
X26958000Y-49530000D02*
X28988000Y-47500000D01*
X28988000Y-47500000D02*
X30000000Y-47500000D01*
X17145000Y-48260000D02*
X18415000Y-49530000D01*
X6350000Y-48260000D02*
X17145000Y-48260000D01*
X3810000Y-48260000D02*
X5080000Y-49530000D01*
X5080000Y-49530000D02*
X15240000Y-49530000D01*
X6350000Y-50800000D02*
X17707880Y-50800000D01*
X17707880Y-50800000D02*
X18342880Y-50165000D01*
X18342880Y-50165000D02*
X36323000Y-50165000D01*
X36323000Y-50165000D02*
X38988000Y-47500000D01*
X38988000Y-47500000D02*
X40000000Y-47500000D01*
X5078472Y-52068472D02*
X15603834Y-52068472D01*
X3810000Y-50800000D02*
X5078472Y-52068472D01*
X18415000Y-50800000D02*
X45688000Y-50800000D01*
X45688000Y-50800000D02*
X48988000Y-47500000D01*
X48988000Y-47500000D02*
X50000000Y-47500000D01*
X15875000Y-53340000D02*
X18415000Y-50800000D01*
X6350000Y-53340000D02*
X15875000Y-53340000D01*
X50000000Y-52500000D02*
X48862999Y-51362999D01*
X48862999Y-51362999D02*
X18559121Y-51362999D01*
X18559121Y-51362999D02*
X15357119Y-54565001D01*
X15357119Y-54565001D02*
X5035001Y-54565001D01*
X5035001Y-54565001D02*
X3810000Y-53340000D01*
X6350000Y-55880000D02*
X24680000Y-55880000D01*
X24680000Y-55880000D02*
X25000000Y-56200000D01*
X3810000Y-55880000D02*
X5080000Y-57150000D01*
X5080000Y-57150000D02*
X20955000Y-57150000D01*
X6350000Y-58420000D02*
X33792000Y-58420000D01*
X33792000Y-58420000D02*
X35000000Y-57212000D01*
X35000000Y-57212000D02*
X35000000Y-56200000D01*
X5074933Y-59684933D02*
X20144309Y-59684933D01*
X3810000Y-58420000D02*
X5074933Y-59684933D01*
X20320000Y-60960000D02*
X6350000Y-60960000D01*
X22225000Y-59055000D02*
X20320000Y-60960000D01*
X45000000Y-56200000D02*
X43988000Y-56200000D01*
X43988000Y-56200000D02*
X41133000Y-59055000D01*
X41133000Y-59055000D02*
X22225000Y-59055000D01*
X45000000Y-61200000D02*
X43517599Y-59717599D01*
X43517599Y-59717599D02*
X22269521Y-59717599D01*
X22269521Y-59717599D02*
X20392120Y-61595000D01*
X20392120Y-61595000D02*
X8255000Y-61595000D01*
X8255000Y-61595000D02*
X7664999Y-62185001D01*
X7664999Y-62185001D02*
X5035001Y-62185001D01*
X5035001Y-62185001D02*
X3810000Y-60960000D01*
X6350000Y-63500000D02*
X7620000Y-63500000D01*
X7620000Y-63500000D02*
X8890000Y-64770000D01*
X8890000Y-64770000D02*
X29870000Y-64770000D01*
X29870000Y-64770000D02*
X30000000Y-64900000D01*
X8817880Y-65405000D02*
X26035000Y-65405000D01*
X26035000Y-65405000D02*
X26670000Y-66040000D01*
X3810000Y-63500000D02*
X5124999Y-64814999D01*
X5124999Y-64814999D02*
X8227879Y-64814999D01*
X8227879Y-64814999D02*
X8817880Y-65405000D01*
X37033012Y-66854988D02*
X38988000Y-64900000D01*
X38988000Y-64900000D02*
X40000000Y-64900000D01*
X25579988Y-66854988D02*
X37033012Y-66854988D01*
X24765000Y-66040000D02*
X25579988Y-66854988D01*
X6350000Y-66040000D02*
X24765000Y-66040000D01*
X3810000Y-66040000D02*
X5124999Y-67354999D01*
X5124999Y-67354999D02*
X37454999Y-67354999D01*
X37454999Y-67354999D02*
X40000000Y-69900000D01*
X24765000Y-68580000D02*
X29785000Y-73600000D01*
X29785000Y-73600000D02*
X35000000Y-73600000D01*
X6350000Y-68580000D02*
X24765000Y-68580000D01*
X3810000Y-68580000D02*
X5080000Y-69850000D01*
X5080000Y-69850000D02*
X23495000Y-69850000D01*
X31042880Y-75565000D02*
X42023000Y-75565000D01*
X42023000Y-75565000D02*
X43988000Y-73600000D01*
X43988000Y-73600000D02*
X45000000Y-73600000D01*
X6350000Y-71120000D02*
X26597880Y-71120000D01*
X26597880Y-71120000D02*
X31042880Y-75565000D01*
X27115761Y-72345001D02*
X5035001Y-72345001D01*
X30970760Y-76200000D02*
X27115761Y-72345001D01*
X45000000Y-78600000D02*
X42600000Y-76200000D01*
X5035001Y-72345001D02*
X3810000Y-71120000D01*
X42600000Y-76200000D02*
X30970760Y-76200000D01*
X69215000Y-24130000D02*
X58282000Y-24130000D01*
X58282000Y-24130000D02*
X56012000Y-26400000D01*
X56012000Y-26400000D02*
X55000000Y-26400000D01*
X73025000Y-27940000D02*
X69215000Y-24130000D01*
X93980000Y-27940000D02*
X73025000Y-27940000D01*
X96520000Y-27940000D02*
X95294999Y-26714999D01*
X95294999Y-26714999D02*
X72507119Y-26714999D01*
X72507119Y-26714999D02*
X69422110Y-23629990D01*
X69422110Y-23629990D02*
X57229990Y-23629990D01*
X57229990Y-23629990D02*
X55000000Y-21400000D01*
X74295000Y-30480000D02*
X70215000Y-26400000D01*
X70215000Y-26400000D02*
X65000000Y-26400000D01*
X93980000Y-30480000D02*
X74295000Y-30480000D01*
X95263867Y-29223867D02*
X74853625Y-29223867D01*
X96520000Y-30480000D02*
X95263867Y-29223867D01*
X93980000Y-33020000D02*
X69128292Y-33020000D01*
X69128292Y-33020000D02*
X67048292Y-35100000D01*
X67048292Y-35100000D02*
X59515000Y-35100000D01*
X59515000Y-35100000D02*
X60000000Y-35100000D01*
X96520000Y-33020000D02*
X95294999Y-31794999D01*
X95294999Y-31794999D02*
X61694999Y-31794999D01*
X61694999Y-31794999D02*
X60000000Y-30100000D01*
X91440000Y-35560000D02*
X90980000Y-35100000D01*
X90980000Y-35100000D02*
X70000000Y-35100000D01*
X93980000Y-35560000D02*
X91440000Y-35560000D01*
X95239072Y-34279072D02*
X74690166Y-34279072D01*
X96520000Y-35560000D02*
X95239072Y-34279072D01*
X93980000Y-38100000D02*
X92777919Y-38100000D01*
X87422889Y-38600011D02*
X86922878Y-38100000D01*
X86922878Y-38100000D02*
X78740000Y-38100000D01*
X56012000Y-43800000D02*
X55000000Y-43800000D01*
X92777919Y-38100000D02*
X92277908Y-38600011D01*
X92277908Y-38600011D02*
X87422889Y-38600011D01*
X78740000Y-38100000D02*
X76700009Y-40139989D01*
X76700009Y-40139989D02*
X59672011Y-40139989D01*
X59672011Y-40139989D02*
X56012000Y-43800000D01*
X96520000Y-38100000D02*
X95294999Y-36874999D01*
X91440000Y-38100000D02*
X88265000Y-38100000D01*
X95294999Y-36874999D02*
X92665001Y-36874999D01*
X92665001Y-36874999D02*
X91440000Y-38100000D01*
X88265000Y-38100000D02*
X87739230Y-37574230D01*
X87739230Y-37574230D02*
X56225770Y-37574230D01*
X56225770Y-37574230D02*
X55000000Y-38800000D01*
X93980000Y-40640000D02*
X69172000Y-40640000D01*
X69172000Y-40640000D02*
X66012000Y-43800000D01*
X66012000Y-43800000D02*
X65000000Y-43800000D01*
X80645000Y-39370000D02*
X95250000Y-39370000D01*
X95250000Y-39370000D02*
X96520000Y-40640000D01*
X93980000Y-43180000D02*
X75620000Y-43180000D01*
X75620000Y-43180000D02*
X75000000Y-43800000D01*
X80010000Y-41910000D02*
X95250000Y-41910000D01*
X95250000Y-41910000D02*
X96520000Y-43180000D01*
X61012000Y-52500000D02*
X60000000Y-52500000D01*
X63153383Y-50358617D02*
X61012000Y-52500000D01*
X74879319Y-50358617D02*
X63153383Y-50358617D01*
X93980000Y-45720000D02*
X79517936Y-45720000D01*
X79517936Y-45720000D02*
X74879319Y-50358617D01*
X95294999Y-44494999D02*
X80035815Y-44494999D01*
X96520000Y-45720000D02*
X95294999Y-44494999D01*
X62358606Y-49858606D02*
X60000000Y-47500000D01*
X80035815Y-44494999D02*
X74672208Y-49858606D01*
X74672208Y-49858606D02*
X62358606Y-49858606D01*
X93980000Y-48260000D02*
X82622120Y-48260000D01*
X82622120Y-48260000D02*
X80017800Y-50864320D01*
X80017800Y-50864320D02*
X72647680Y-50864320D01*
X72647680Y-50864320D02*
X71012000Y-52500000D01*
X71012000Y-52500000D02*
X70000000Y-52500000D01*
X95245591Y-46985591D02*
X83022184Y-46985591D01*
X96520000Y-48260000D02*
X95245591Y-46985591D01*
X93980000Y-50800000D02*
X81700000Y-50800000D01*
X81700000Y-50800000D02*
X80000000Y-52500000D01*
X95260099Y-49540099D02*
X83319443Y-49540099D01*
X96520000Y-50800000D02*
X95260099Y-49540099D01*
X93980000Y-53340000D02*
X83025086Y-53340000D01*
X83025086Y-53340000D02*
X77810096Y-58554990D01*
X77810096Y-58554990D02*
X58657010Y-58554990D01*
X58657010Y-58554990D02*
X56012000Y-61200000D01*
X56012000Y-61200000D02*
X55000000Y-61200000D01*
X96520000Y-53340000D02*
X95294999Y-52114999D01*
X95294999Y-52114999D02*
X83542967Y-52114999D01*
X83542967Y-52114999D02*
X77602986Y-58054980D01*
X77602986Y-58054980D02*
X56854980Y-58054980D01*
X56854980Y-58054980D02*
X55000000Y-56200000D01*
X93980000Y-55880000D02*
X81416424Y-55880000D01*
X81416424Y-55880000D02*
X78241424Y-59055000D01*
X78241424Y-59055000D02*
X68157000Y-59055000D01*
X68157000Y-59055000D02*
X66012000Y-61200000D01*
X66012000Y-61200000D02*
X65000000Y-61200000D01*
X83185000Y-54610000D02*
X95250000Y-54610000D01*
X95250000Y-54610000D02*
X96520000Y-55880000D01*
X80010000Y-58420000D02*
X77230000Y-61200000D01*
X77230000Y-61200000D02*
X75000000Y-61200000D01*
X93980000Y-58420000D02*
X80010000Y-58420000D01*
X81915000Y-57150000D02*
X95250000Y-57150000D01*
X95250000Y-57150000D02*
X96520000Y-58420000D01*
X93980000Y-60960000D02*
X80572880Y-60960000D01*
X80572880Y-60960000D02*
X74087890Y-67444990D01*
X74087890Y-67444990D02*
X53467010Y-67444990D01*
X53467010Y-67444990D02*
X51012000Y-69900000D01*
X51012000Y-69900000D02*
X50000000Y-69900000D01*
X50000000Y-64900000D02*
X52044980Y-66944980D01*
X52044980Y-66944980D02*
X73880780Y-66944980D01*
X95294999Y-59734999D02*
X96520000Y-60960000D01*
X73880780Y-66944980D02*
X81090761Y-59734999D01*
X81090761Y-59734999D02*
X95294999Y-59734999D01*
X61012000Y-69900000D02*
X60000000Y-69900000D01*
X91507919Y-64770000D02*
X88342489Y-64770000D01*
X74295000Y-67945000D02*
X62967000Y-67945000D01*
X62967000Y-67945000D02*
X61012000Y-69900000D01*
X78105000Y-64135000D02*
X74295000Y-67945000D01*
X92777919Y-63500000D02*
X91507919Y-64770000D01*
X87707489Y-64135000D02*
X78105000Y-64135000D01*
X93980000Y-63500000D02*
X92777919Y-63500000D01*
X88342489Y-64770000D02*
X87707489Y-64135000D01*
X92075000Y-61595000D02*
X81280000Y-61595000D01*
X81280000Y-61595000D02*
X80010000Y-62865000D01*
X92754999Y-62274999D02*
X92075000Y-61595000D01*
X96520000Y-63500000D02*
X95294999Y-62274999D01*
X95294999Y-62274999D02*
X92754999Y-62274999D01*
X70000000Y-69900000D02*
X73610000Y-69900000D01*
X77470000Y-66040000D02*
X93980000Y-66040000D01*
X73610000Y-69900000D02*
X77470000Y-66040000D01*
X79135090Y-65379307D02*
X78735091Y-64979308D01*
X92665001Y-64814999D02*
X92100693Y-65379307D01*
X96520000Y-66040000D02*
X95294999Y-64814999D01*
X92100693Y-65379307D02*
X79135090Y-65379307D01*
X95294999Y-64814999D02*
X92665001Y-64814999D01*
X93980000Y-68580000D02*
X79302880Y-68580000D01*
X79302880Y-68580000D02*
X71682880Y-76200000D01*
X71682880Y-76200000D02*
X58412000Y-76200000D01*
X58412000Y-76200000D02*
X56012000Y-78600000D01*
X56012000Y-78600000D02*
X55000000Y-78600000D01*
X96520000Y-68580000D02*
X95294999Y-67354999D01*
X95294999Y-67354999D02*
X79820761Y-67354999D01*
X79820761Y-67354999D02*
X71610760Y-75565000D01*
X71610760Y-75565000D02*
X56965000Y-75565000D01*
X56965000Y-75565000D02*
X55000000Y-73600000D01*
X77470000Y-71120000D02*
X69990000Y-78600000D01*
X69990000Y-78600000D02*
X65000000Y-78600000D01*
X93980000Y-71120000D02*
X77470000Y-71120000D01*
X79375000Y-69850000D02*
X95250000Y-69850000D01*
X95250000Y-69850000D02*
X96520000Y-71120000D01*
X83820000Y-87630000D02*
X79965001Y-91484999D01*
X79965001Y-91484999D02*
X79965001Y-95294999D01*
X79965001Y-95294999D02*
X78740000Y-96520000D01*
X92710000Y-87630000D02*
X83820000Y-87630000D01*
X86995000Y-83747880D02*
X86995000Y-77470000D01*
X78740000Y-93980000D02*
X78740000Y-92002880D01*
X78740000Y-92002880D02*
X86995000Y-83747880D01*
X43815000Y-92075000D02*
X73658000Y-92075000D01*
X73658000Y-92075000D02*
X74974999Y-93391999D01*
X74974999Y-93391999D02*
X74974999Y-95294999D01*
X74974999Y-95294999D02*
X76200000Y-96520000D01*
X39370000Y-87630000D02*
X43815000Y-92075000D01*
X76200000Y-91440000D02*
X72390000Y-87630000D01*
X72390000Y-87630000D02*
X66040000Y-87630000D01*
X76200000Y-93980000D02*
X76200000Y-91440000D01*
X12551589Y-73634587D02*
X8354985Y-73634587D01*
X15240000Y-90805000D02*
X15240000Y-76322998D01*
X73660000Y-96520000D02*
X72434999Y-95294999D01*
X15240000Y-76322998D02*
X12551589Y-73634587D01*
X19729999Y-95294999D02*
X15240000Y-90805000D01*
X72434999Y-95294999D02*
X19729999Y-95294999D01*
X16510000Y-88265000D02*
X20999999Y-92754999D01*
X20999999Y-92754999D02*
X72434999Y-92754999D01*
X72434999Y-92754999D02*
X73660000Y-93980000D01*
X92710000Y-10795000D02*
X92710000Y-15240000D01*
X92710000Y-15240000D02*
X86995000Y-20955000D01*
X39370000Y-5080000D02*
X66040000Y-5080000D01*
X66040000Y-5080000D02*
X87630000Y-5080000D01*
X27940000Y-5080000D02*
X39370000Y-5080000D01*
X14605000Y-11134000D02*
X14605000Y-10795000D01*
X14605000Y-10795000D02*
X14605000Y-10372000D01*
X14234000Y-10743000D02*
X14553000Y-10743000D01*
X14553000Y-10743000D02*
X14605000Y-10795000D01*
X14605000Y-11134000D02*
X14605000Y-17145000D01*
X14605000Y-17145000D02*
X8255000Y-23495000D01*
X87630000Y-5080000D02*
X92710000Y-10160000D01*
X92710000Y-10160000D02*
X92710000Y-10795000D01*
X14234000Y-10795000D02*
X14266000Y-10795000D01*
X14266000Y-10795000D02*
X14605000Y-11134000D01*
X13335000Y-10795000D02*
X14234000Y-10795000D01*
X14605000Y-10372000D02*
X14605000Y-5080000D01*
X14234000Y-10795000D02*
X14234000Y-10743000D01*
X14234000Y-10743000D02*
X14605000Y-10372000D01*
X16510000Y-3175000D02*
X27135000Y-3175000D01*
X27135000Y-3175000D02*
X27940000Y-3980000D01*
X27940000Y-3980000D02*
X27940000Y-5080000D01*
X14605000Y-5080000D02*
X16510000Y-3175000D01*
X12700000Y-79375000D02*
X7620000Y-84455000D01*
X7620000Y-84455000D02*
X7620000Y-88900000D01*
X12700000Y-75565000D02*
X12700000Y-79375000D01*
X93485001Y-88759999D02*
X88991998Y-93253002D01*
X88991998Y-93253002D02*
X86360000Y-93253002D01*
X91440000Y-77470000D02*
X93485001Y-79515001D01*
X93485001Y-79515001D02*
X93485001Y-88759999D01*
X71120000Y-96520000D02*
X60960000Y-96520000D01*
X60960000Y-96520000D02*
X34290000Y-96520000D01*
X34290000Y-96520000D02*
X13970000Y-96520000D01*
X81823002Y-97790000D02*
X86360000Y-93253002D01*
X72390000Y-97790000D02*
X81823002Y-97790000D01*
X86360000Y-93253002D02*
X86360000Y-90170000D01*
X71755000Y-97155000D02*
X72390000Y-97790000D01*
X71120000Y-96520000D02*
X71755000Y-97155000D01*
X7620000Y-90170000D02*
X7620000Y-88900000D01*
X13970000Y-96520000D02*
X7620000Y-90170000D01*
G36*
X96640291Y-1039988D02*
X98030862Y-1969138D01*
X98960012Y-3359709D01*
X99300000Y-5068945D01*
X99300000Y-94931055D01*
X98960012Y-96640291D01*
X98030862Y-98030862D01*
X96640291Y-98960012D01*
X94931055Y-99300000D01*
X5068945Y-99300000D01*
X3359709Y-98960012D01*
X1969138Y-98030862D01*
X1770847Y-97734098D01*
X2442678Y-97734098D01*
X2809980Y-98226967D01*
X4211592Y-98819413D01*
X5733232Y-98830388D01*
X7143243Y-98258221D01*
X7190020Y-98226967D01*
X7557322Y-97734098D01*
X5000000Y-95176777D01*
X2442678Y-97734098D01*
X1770847Y-97734098D01*
X1039988Y-96640291D01*
X859563Y-95733232D01*
X1169612Y-95733232D01*
X1741779Y-97143243D01*
X1773033Y-97190020D01*
X2265902Y-97557322D01*
X4823223Y-95000000D01*
X5176777Y-95000000D01*
X7734098Y-97557322D01*
X8226967Y-97190020D01*
X8819413Y-95788408D01*
X8830388Y-94266768D01*
X8258221Y-92856757D01*
X8226967Y-92809980D01*
X7734098Y-92442678D01*
X5176777Y-95000000D01*
X4823223Y-95000000D01*
X2265902Y-92442678D01*
X1773033Y-92809980D01*
X1180587Y-94211592D01*
X1169612Y-95733232D01*
X859563Y-95733232D01*
X700000Y-94931055D01*
X700000Y-92265902D01*
X2442678Y-92265902D01*
X5000000Y-94823223D01*
X7557322Y-92265902D01*
X7190020Y-91773033D01*
X5788408Y-91180587D01*
X4266768Y-91169612D01*
X2856757Y-91741779D01*
X2809980Y-91773033D01*
X2442678Y-92265902D01*
X700000Y-92265902D01*
X700000Y-74013372D01*
X2377955Y-74013372D01*
X2547513Y-74422742D01*
X2935503Y-74847815D01*
X3456627Y-75092054D01*
X3685000Y-74973453D01*
X3685000Y-73785000D01*
X3935000Y-73785000D01*
X3935000Y-74973453D01*
X4163373Y-75092054D01*
X4684497Y-74847815D01*
X5072487Y-74422742D01*
X5080000Y-74404603D01*
X5087513Y-74422742D01*
X5475503Y-74847815D01*
X5996627Y-75092054D01*
X6225000Y-74973453D01*
X6225000Y-73785000D01*
X3935000Y-73785000D01*
X3685000Y-73785000D01*
X2497188Y-73785000D01*
X2377955Y-74013372D01*
X700000Y-74013372D01*
X700000Y-27940000D01*
X2306103Y-27940000D01*
X2418381Y-28504458D01*
X2738120Y-28982983D01*
X3077876Y-29210000D01*
X2738120Y-29437017D01*
X2418381Y-29915542D01*
X2306103Y-30480000D01*
X2418381Y-31044458D01*
X2738120Y-31522983D01*
X3077876Y-31750000D01*
X2738120Y-31977017D01*
X2418381Y-32455542D01*
X2306103Y-33020000D01*
X2418381Y-33584458D01*
X2738120Y-34062983D01*
X3077876Y-34290000D01*
X2738120Y-34517017D01*
X2418381Y-34995542D01*
X2306103Y-35560000D01*
X2418381Y-36124458D01*
X2738120Y-36602983D01*
X3077876Y-36830000D01*
X2738120Y-37057017D01*
X2418381Y-37535542D01*
X2306103Y-38100000D01*
X2418381Y-38664458D01*
X2738120Y-39142983D01*
X3077876Y-39370000D01*
X2738120Y-39597017D01*
X2418381Y-40075542D01*
X2306103Y-40640000D01*
X2418381Y-41204458D01*
X2738120Y-41682983D01*
X3077876Y-41910000D01*
X2738120Y-42137017D01*
X2418381Y-42615542D01*
X2306103Y-43180000D01*
X2418381Y-43744458D01*
X2738120Y-44222983D01*
X3077876Y-44450000D01*
X2738120Y-44677017D01*
X2418381Y-45155542D01*
X2306103Y-45720000D01*
X2418381Y-46284458D01*
X2738120Y-46762983D01*
X3077876Y-46990000D01*
X2738120Y-47217017D01*
X2418381Y-47695542D01*
X2306103Y-48260000D01*
X2418381Y-48824458D01*
X2738120Y-49302983D01*
X3077876Y-49530000D01*
X2738120Y-49757017D01*
X2418381Y-50235542D01*
X2306103Y-50800000D01*
X2418381Y-51364458D01*
X2738120Y-51842983D01*
X3077876Y-52070000D01*
X2738120Y-52297017D01*
X2418381Y-52775542D01*
X2306103Y-53340000D01*
X2418381Y-53904458D01*
X2738120Y-54382983D01*
X3077876Y-54610000D01*
X2738120Y-54837017D01*
X2418381Y-55315542D01*
X2306103Y-55880000D01*
X2418381Y-56444458D01*
X2738120Y-56922983D01*
X3077876Y-57150000D01*
X2738120Y-57377017D01*
X2418381Y-57855542D01*
X2306103Y-58420000D01*
X2418381Y-58984458D01*
X2738120Y-59462983D01*
X3077876Y-59690000D01*
X2738120Y-59917017D01*
X2418381Y-60395542D01*
X2306103Y-60960000D01*
X2418381Y-61524458D01*
X2738120Y-62002983D01*
X3077876Y-62230000D01*
X2738120Y-62457017D01*
X2418381Y-62935542D01*
X2306103Y-63500000D01*
X2418381Y-64064458D01*
X2738120Y-64542983D01*
X3077876Y-64770000D01*
X2738120Y-64997017D01*
X2418381Y-65475542D01*
X2306103Y-66040000D01*
X2418381Y-66604458D01*
X2738120Y-67082983D01*
X3077876Y-67310000D01*
X2738120Y-67537017D01*
X2418381Y-68015542D01*
X2306103Y-68580000D01*
X2418381Y-69144458D01*
X2738120Y-69622983D01*
X3077876Y-69850000D01*
X2738120Y-70077017D01*
X2418381Y-70555542D01*
X2306103Y-71120000D01*
X2418381Y-71684458D01*
X2738120Y-72162983D01*
X3091473Y-72399085D01*
X2935503Y-72472185D01*
X2547513Y-72897258D01*
X2377955Y-73306628D01*
X2497188Y-73535000D01*
X3685000Y-73535000D01*
X3685000Y-73515000D01*
X3935000Y-73515000D01*
X3935000Y-73535000D01*
X6225000Y-73535000D01*
X6225000Y-73515000D01*
X6475000Y-73515000D01*
X6475000Y-73535000D01*
X6495000Y-73535000D01*
X6495000Y-73785000D01*
X6475000Y-73785000D01*
X6475000Y-74973453D01*
X6703373Y-75092054D01*
X7224497Y-74847815D01*
X7612487Y-74422742D01*
X7636232Y-74365414D01*
X7773611Y-74503033D01*
X8150205Y-74659409D01*
X8557976Y-74659765D01*
X8934842Y-74504046D01*
X9054510Y-74384587D01*
X12240929Y-74384587D01*
X12425649Y-74569307D01*
X12120143Y-74695541D01*
X11831554Y-74983626D01*
X11675178Y-75360220D01*
X11674822Y-75767991D01*
X11830541Y-76144857D01*
X11950000Y-76264525D01*
X11950000Y-79064340D01*
X7089670Y-83924670D01*
X6927090Y-84167987D01*
X6870000Y-84455000D01*
X6870000Y-88200387D01*
X6751554Y-88318626D01*
X6595178Y-88695220D01*
X6594822Y-89102991D01*
X6750541Y-89479857D01*
X6870000Y-89599525D01*
X6870000Y-90170000D01*
X6927090Y-90457013D01*
X7089670Y-90700330D01*
X13439670Y-97050330D01*
X13682987Y-97212910D01*
X13970000Y-97270000D01*
X33590387Y-97270000D01*
X33708626Y-97388446D01*
X34085220Y-97544822D01*
X34492991Y-97545178D01*
X34869857Y-97389459D01*
X34989525Y-97270000D01*
X60260387Y-97270000D01*
X60378626Y-97388446D01*
X60755220Y-97544822D01*
X61162991Y-97545178D01*
X61539857Y-97389459D01*
X61659525Y-97270000D01*
X69632756Y-97270000D01*
X69632756Y-97370000D01*
X69676337Y-97601611D01*
X69813219Y-97814332D01*
X70022076Y-97957038D01*
X70270000Y-98007244D01*
X71546584Y-98007244D01*
X71859670Y-98320330D01*
X72102987Y-98482910D01*
X72390000Y-98540000D01*
X81823002Y-98540000D01*
X82110015Y-98482910D01*
X82353332Y-98320330D01*
X82939564Y-97734098D01*
X92442678Y-97734098D01*
X92809980Y-98226967D01*
X94211592Y-98819413D01*
X95733232Y-98830388D01*
X97143243Y-98258221D01*
X97190020Y-98226967D01*
X97557322Y-97734098D01*
X95000000Y-95176777D01*
X92442678Y-97734098D01*
X82939564Y-97734098D01*
X84940430Y-95733232D01*
X91169612Y-95733232D01*
X91741779Y-97143243D01*
X91773033Y-97190020D01*
X92265902Y-97557322D01*
X94823223Y-95000000D01*
X95176777Y-95000000D01*
X97734098Y-97557322D01*
X98226967Y-97190020D01*
X98819413Y-95788408D01*
X98830388Y-94266768D01*
X98258221Y-92856757D01*
X98226967Y-92809980D01*
X97734098Y-92442678D01*
X95176777Y-95000000D01*
X94823223Y-95000000D01*
X92265902Y-92442678D01*
X91773033Y-92809980D01*
X91180587Y-94211592D01*
X91169612Y-95733232D01*
X84940430Y-95733232D01*
X86670660Y-94003002D01*
X88991998Y-94003002D01*
X89279011Y-93945912D01*
X89522328Y-93783332D01*
X91039758Y-92265902D01*
X92442678Y-92265902D01*
X95000000Y-94823223D01*
X97557322Y-92265902D01*
X97190020Y-91773033D01*
X95788408Y-91180587D01*
X94266768Y-91169612D01*
X92856757Y-91741779D01*
X92809980Y-91773033D01*
X92442678Y-92265902D01*
X91039758Y-92265902D01*
X94015331Y-89290329D01*
X94112556Y-89144822D01*
X94177911Y-89047012D01*
X94235001Y-88759999D01*
X94235001Y-79515001D01*
X94177911Y-79227988D01*
X94015331Y-78984671D01*
X92465032Y-77434372D01*
X92465178Y-77267009D01*
X92309459Y-76890143D01*
X92021374Y-76601554D01*
X91644780Y-76445178D01*
X91237009Y-76444822D01*
X90860143Y-76600541D01*
X90571554Y-76888626D01*
X90415178Y-77265220D01*
X90414822Y-77672991D01*
X90570541Y-78049857D01*
X90858626Y-78338446D01*
X91235220Y-78494822D01*
X91404310Y-78494970D01*
X92735001Y-79825661D01*
X92735001Y-86605021D01*
X92507009Y-86604822D01*
X92130143Y-86760541D01*
X92010475Y-86880000D01*
X84923540Y-86880000D01*
X87525330Y-84278210D01*
X87598979Y-84167987D01*
X87687910Y-84034893D01*
X87745000Y-83747880D01*
X87745000Y-78169613D01*
X87863446Y-78051374D01*
X88019822Y-77674780D01*
X88020178Y-77267009D01*
X87864459Y-76890143D01*
X87576374Y-76601554D01*
X87199780Y-76445178D01*
X86792009Y-76444822D01*
X86415143Y-76600541D01*
X86126554Y-76888626D01*
X85970178Y-77265220D01*
X85969822Y-77672991D01*
X86125541Y-78049857D01*
X86245000Y-78169525D01*
X86245000Y-83437220D01*
X78209670Y-91472550D01*
X78047090Y-91715867D01*
X77990000Y-92002880D01*
X77990000Y-92712356D01*
X77697017Y-92908120D01*
X77470000Y-93247876D01*
X77242983Y-92908120D01*
X76950000Y-92712356D01*
X76950000Y-91440000D01*
X76892910Y-91152987D01*
X76730330Y-90909670D01*
X72920330Y-87099670D01*
X72677013Y-86937090D01*
X72390000Y-86880000D01*
X66739613Y-86880000D01*
X66621374Y-86761554D01*
X66244780Y-86605178D01*
X65837009Y-86604822D01*
X65460143Y-86760541D01*
X65171554Y-87048626D01*
X65015178Y-87425220D01*
X65014822Y-87832991D01*
X65170541Y-88209857D01*
X65458626Y-88498446D01*
X65835220Y-88654822D01*
X66242991Y-88655178D01*
X66619857Y-88499459D01*
X66739525Y-88380000D01*
X72079340Y-88380000D01*
X75450000Y-91750660D01*
X75450000Y-92712356D01*
X75393660Y-92750000D01*
X74188330Y-91544670D01*
X73945013Y-91382090D01*
X73658000Y-91325000D01*
X63950491Y-91325000D01*
X64094747Y-91265247D01*
X64172330Y-91019107D01*
X63330000Y-90176777D01*
X62487670Y-91019107D01*
X62565253Y-91265247D01*
X62730320Y-91325000D01*
X44125660Y-91325000D01*
X42578315Y-89777655D01*
X61868408Y-89777655D01*
X61894577Y-90353907D01*
X62064753Y-90764747D01*
X62310893Y-90842330D01*
X63153223Y-90000000D01*
X63506777Y-90000000D01*
X64349107Y-90842330D01*
X64595247Y-90764747D01*
X64791592Y-90222345D01*
X64765423Y-89646093D01*
X64595247Y-89235253D01*
X64349107Y-89157670D01*
X63506777Y-90000000D01*
X63153223Y-90000000D01*
X62310893Y-89157670D01*
X62064753Y-89235253D01*
X61868408Y-89777655D01*
X42578315Y-89777655D01*
X41781553Y-88980893D01*
X62487670Y-88980893D01*
X63330000Y-89823223D01*
X64172330Y-88980893D01*
X64094747Y-88734753D01*
X63552345Y-88538408D01*
X62976093Y-88564577D01*
X62565253Y-88734753D01*
X62487670Y-88980893D01*
X41781553Y-88980893D01*
X40395032Y-87594372D01*
X40395178Y-87427009D01*
X40239459Y-87050143D01*
X39951374Y-86761554D01*
X39574780Y-86605178D01*
X39167009Y-86604822D01*
X38790143Y-86760541D01*
X38501554Y-87048626D01*
X38345178Y-87425220D01*
X38344822Y-87832991D01*
X38500541Y-88209857D01*
X38788626Y-88498446D01*
X39165220Y-88654822D01*
X39334310Y-88654970D01*
X42684339Y-92004999D01*
X21310659Y-92004999D01*
X20324767Y-91019107D01*
X35827670Y-91019107D01*
X35905253Y-91265247D01*
X36447655Y-91461592D01*
X37023907Y-91435423D01*
X37434747Y-91265247D01*
X37512330Y-91019107D01*
X36670000Y-90176777D01*
X35827670Y-91019107D01*
X20324767Y-91019107D01*
X19083315Y-89777655D01*
X35208408Y-89777655D01*
X35234577Y-90353907D01*
X35404753Y-90764747D01*
X35650893Y-90842330D01*
X36493223Y-90000000D01*
X36846777Y-90000000D01*
X37689107Y-90842330D01*
X37935247Y-90764747D01*
X38131592Y-90222345D01*
X38105423Y-89646093D01*
X37935247Y-89235253D01*
X37689107Y-89157670D01*
X36846777Y-90000000D01*
X36493223Y-90000000D01*
X35650893Y-89157670D01*
X35404753Y-89235253D01*
X35208408Y-89777655D01*
X19083315Y-89777655D01*
X18286553Y-88980893D01*
X35827670Y-88980893D01*
X36670000Y-89823223D01*
X37512330Y-88980893D01*
X37434747Y-88734753D01*
X36892345Y-88538408D01*
X36316093Y-88564577D01*
X35905253Y-88734753D01*
X35827670Y-88980893D01*
X18286553Y-88980893D01*
X17535032Y-88229372D01*
X17535178Y-88062009D01*
X17379459Y-87685143D01*
X17091374Y-87396554D01*
X16714780Y-87240178D01*
X16307009Y-87239822D01*
X15990000Y-87370808D01*
X15990000Y-78874681D01*
X33612760Y-78874681D01*
X33823473Y-79384646D01*
X34213302Y-79775156D01*
X34722898Y-79986759D01*
X35274681Y-79987240D01*
X35784646Y-79776527D01*
X36175156Y-79386698D01*
X36386759Y-78877102D01*
X36387240Y-78325319D01*
X36176527Y-77815354D01*
X35786698Y-77424844D01*
X35277102Y-77213241D01*
X34725319Y-77212760D01*
X34215354Y-77423473D01*
X33824844Y-77813302D01*
X33613241Y-78322898D01*
X33612760Y-78874681D01*
X15990000Y-78874681D01*
X15990000Y-76322998D01*
X15932910Y-76035985D01*
X15770330Y-75792668D01*
X13081919Y-73104257D01*
X13068066Y-73095001D01*
X26805101Y-73095001D01*
X30440430Y-76730330D01*
X30683747Y-76892910D01*
X30970760Y-76950000D01*
X42289340Y-76950000D01*
X43627617Y-78288277D01*
X43613241Y-78322898D01*
X43612760Y-78874681D01*
X43823473Y-79384646D01*
X44213302Y-79775156D01*
X44722898Y-79986759D01*
X45274681Y-79987240D01*
X45784646Y-79776527D01*
X46175156Y-79386698D01*
X46386759Y-78877102D01*
X46387240Y-78325319D01*
X46176527Y-77815354D01*
X45786698Y-77424844D01*
X45277102Y-77213241D01*
X44725319Y-77212760D01*
X44688594Y-77227934D01*
X43130330Y-75669670D01*
X43039608Y-75609052D01*
X43817523Y-74831137D01*
X43990076Y-74949038D01*
X44238000Y-74999244D01*
X45762000Y-74999244D01*
X45993611Y-74955663D01*
X46206332Y-74818781D01*
X46349038Y-74609924D01*
X46399244Y-74362000D01*
X46399244Y-72838000D01*
X46355663Y-72606389D01*
X46218781Y-72393668D01*
X46009924Y-72250962D01*
X45762000Y-72200756D01*
X44238000Y-72200756D01*
X44006389Y-72244337D01*
X43793668Y-72381219D01*
X43650962Y-72590076D01*
X43600756Y-72838000D01*
X43600756Y-72974063D01*
X43482300Y-73053213D01*
X43457670Y-73069670D01*
X41712340Y-74815000D01*
X36208915Y-74815000D01*
X36349038Y-74609924D01*
X36399244Y-74362000D01*
X36399244Y-72838000D01*
X36355663Y-72606389D01*
X36218781Y-72393668D01*
X36009924Y-72250962D01*
X35762000Y-72200756D01*
X34238000Y-72200756D01*
X34006389Y-72244337D01*
X33793668Y-72381219D01*
X33650962Y-72590076D01*
X33600756Y-72838000D01*
X33600756Y-72850000D01*
X30095660Y-72850000D01*
X27420341Y-70174681D01*
X28612760Y-70174681D01*
X28823473Y-70684646D01*
X29213302Y-71075156D01*
X29722898Y-71286759D01*
X30274681Y-71287240D01*
X30784646Y-71076527D01*
X31175156Y-70686698D01*
X31386759Y-70177102D01*
X31387240Y-69625319D01*
X31176527Y-69115354D01*
X30786698Y-68724844D01*
X30277102Y-68513241D01*
X29725319Y-68512760D01*
X29215354Y-68723473D01*
X28824844Y-69113302D01*
X28613241Y-69622898D01*
X28612760Y-70174681D01*
X27420341Y-70174681D01*
X25350659Y-68104999D01*
X37144339Y-68104999D01*
X38627617Y-69588277D01*
X38613241Y-69622898D01*
X38612760Y-70174681D01*
X38823473Y-70684646D01*
X39213302Y-71075156D01*
X39722898Y-71286759D01*
X40274681Y-71287240D01*
X40784646Y-71076527D01*
X41175156Y-70686698D01*
X41386759Y-70177102D01*
X41387240Y-69625319D01*
X41185885Y-69138000D01*
X48600756Y-69138000D01*
X48600756Y-70662000D01*
X48644337Y-70893611D01*
X48781219Y-71106332D01*
X48990076Y-71249038D01*
X49238000Y-71299244D01*
X50762000Y-71299244D01*
X50993611Y-71255663D01*
X51206332Y-71118781D01*
X51349038Y-70909924D01*
X51399244Y-70662000D01*
X51399244Y-70525937D01*
X51542330Y-70430330D01*
X53777670Y-68194990D01*
X61656350Y-68194990D01*
X61182477Y-68668863D01*
X61009924Y-68550962D01*
X60762000Y-68500756D01*
X59238000Y-68500756D01*
X59006389Y-68544337D01*
X58793668Y-68681219D01*
X58650962Y-68890076D01*
X58600756Y-69138000D01*
X58600756Y-70662000D01*
X58644337Y-70893611D01*
X58781219Y-71106332D01*
X58990076Y-71249038D01*
X59238000Y-71299244D01*
X60762000Y-71299244D01*
X60993611Y-71255663D01*
X61206332Y-71118781D01*
X61349038Y-70909924D01*
X61399244Y-70662000D01*
X61399244Y-70525937D01*
X61542330Y-70430330D01*
X63277660Y-68695000D01*
X68784252Y-68695000D01*
X68650962Y-68890076D01*
X68600756Y-69138000D01*
X68600756Y-70662000D01*
X68644337Y-70893611D01*
X68781219Y-71106332D01*
X68990076Y-71249038D01*
X69238000Y-71299244D01*
X70762000Y-71299244D01*
X70993611Y-71255663D01*
X71206332Y-71118781D01*
X71349038Y-70909924D01*
X71399244Y-70662000D01*
X71399244Y-70650000D01*
X73610000Y-70650000D01*
X73897013Y-70592910D01*
X74140330Y-70430330D01*
X77780660Y-66790000D01*
X79342317Y-66790000D01*
X79290431Y-66824669D01*
X71300100Y-74815000D01*
X65691534Y-74815000D01*
X65784646Y-74776527D01*
X66175156Y-74386698D01*
X66386759Y-73877102D01*
X66387240Y-73325319D01*
X66176527Y-72815354D01*
X65786698Y-72424844D01*
X65277102Y-72213241D01*
X64725319Y-72212760D01*
X64215354Y-72423473D01*
X63824844Y-72813302D01*
X63613241Y-73322898D01*
X63612760Y-73874681D01*
X63823473Y-74384646D01*
X64213302Y-74775156D01*
X64309257Y-74815000D01*
X57275660Y-74815000D01*
X56372383Y-73911723D01*
X56386759Y-73877102D01*
X56387240Y-73325319D01*
X56176527Y-72815354D01*
X55786698Y-72424844D01*
X55277102Y-72213241D01*
X54725319Y-72212760D01*
X54215354Y-72423473D01*
X53824844Y-72813302D01*
X53613241Y-73322898D01*
X53612760Y-73874681D01*
X53823473Y-74384646D01*
X54213302Y-74775156D01*
X54722898Y-74986759D01*
X55274681Y-74987240D01*
X55311406Y-74972066D01*
X56434670Y-76095330D01*
X56677987Y-76257910D01*
X56965000Y-76315000D01*
X57236340Y-76315000D01*
X56182477Y-77368863D01*
X56009924Y-77250962D01*
X55762000Y-77200756D01*
X54238000Y-77200756D01*
X54006389Y-77244337D01*
X53793668Y-77381219D01*
X53650962Y-77590076D01*
X53600756Y-77838000D01*
X53600756Y-79362000D01*
X53644337Y-79593611D01*
X53781219Y-79806332D01*
X53990076Y-79949038D01*
X54238000Y-79999244D01*
X55762000Y-79999244D01*
X55993611Y-79955663D01*
X56206332Y-79818781D01*
X56349038Y-79609924D01*
X56399244Y-79362000D01*
X56399244Y-79225937D01*
X56542330Y-79130330D01*
X58722660Y-76950000D01*
X70579340Y-76950000D01*
X69679340Y-77850000D01*
X66399244Y-77850000D01*
X66399244Y-77838000D01*
X66355663Y-77606389D01*
X66218781Y-77393668D01*
X66009924Y-77250962D01*
X65762000Y-77200756D01*
X64238000Y-77200756D01*
X64006389Y-77244337D01*
X63793668Y-77381219D01*
X63650962Y-77590076D01*
X63600756Y-77838000D01*
X63600756Y-79362000D01*
X63644337Y-79593611D01*
X63781219Y-79806332D01*
X63990076Y-79949038D01*
X64238000Y-79999244D01*
X65762000Y-79999244D01*
X65993611Y-79955663D01*
X66206332Y-79818781D01*
X66349038Y-79609924D01*
X66399244Y-79362000D01*
X66399244Y-79350000D01*
X69990000Y-79350000D01*
X70277013Y-79292910D01*
X70520330Y-79130330D01*
X75637288Y-74013372D01*
X92547955Y-74013372D01*
X92717513Y-74422742D01*
X93105503Y-74847815D01*
X93626627Y-75092054D01*
X93855000Y-74973453D01*
X93855000Y-73785000D01*
X94105000Y-73785000D01*
X94105000Y-74973453D01*
X94333373Y-75092054D01*
X94854497Y-74847815D01*
X95242487Y-74422742D01*
X95250000Y-74404603D01*
X95257513Y-74422742D01*
X95645503Y-74847815D01*
X96166627Y-75092054D01*
X96395000Y-74973453D01*
X96395000Y-73785000D01*
X96645000Y-73785000D01*
X96645000Y-74973453D01*
X96873373Y-75092054D01*
X97394497Y-74847815D01*
X97782487Y-74422742D01*
X97952045Y-74013372D01*
X97832812Y-73785000D01*
X96645000Y-73785000D01*
X96395000Y-73785000D01*
X94105000Y-73785000D01*
X93855000Y-73785000D01*
X92667188Y-73785000D01*
X92547955Y-74013372D01*
X75637288Y-74013372D01*
X77780660Y-71870000D01*
X92712356Y-71870000D01*
X92908120Y-72162983D01*
X93261473Y-72399085D01*
X93105503Y-72472185D01*
X92717513Y-72897258D01*
X92547955Y-73306628D01*
X92667188Y-73535000D01*
X93855000Y-73535000D01*
X93855000Y-73515000D01*
X94105000Y-73515000D01*
X94105000Y-73535000D01*
X96395000Y-73535000D01*
X96395000Y-73515000D01*
X96645000Y-73515000D01*
X96645000Y-73535000D01*
X97832812Y-73535000D01*
X97952045Y-73306628D01*
X97782487Y-72897258D01*
X97394497Y-72472185D01*
X97238527Y-72399085D01*
X97591880Y-72162983D01*
X97911619Y-71684458D01*
X98023897Y-71120000D01*
X97911619Y-70555542D01*
X97591880Y-70077017D01*
X97252124Y-69850000D01*
X97591880Y-69622983D01*
X97911619Y-69144458D01*
X98023897Y-68580000D01*
X97911619Y-68015542D01*
X97591880Y-67537017D01*
X97252124Y-67310000D01*
X97591880Y-67082983D01*
X97911619Y-66604458D01*
X98023897Y-66040000D01*
X97911619Y-65475542D01*
X97591880Y-64997017D01*
X97252124Y-64770000D01*
X97591880Y-64542983D01*
X97911619Y-64064458D01*
X98023897Y-63500000D01*
X97911619Y-62935542D01*
X97591880Y-62457017D01*
X97252124Y-62230000D01*
X97591880Y-62002983D01*
X97911619Y-61524458D01*
X98023897Y-60960000D01*
X97911619Y-60395542D01*
X97591880Y-59917017D01*
X97252124Y-59690000D01*
X97591880Y-59462983D01*
X97911619Y-58984458D01*
X98023897Y-58420000D01*
X97911619Y-57855542D01*
X97591880Y-57377017D01*
X97252124Y-57150000D01*
X97591880Y-56922983D01*
X97911619Y-56444458D01*
X98023897Y-55880000D01*
X97911619Y-55315542D01*
X97591880Y-54837017D01*
X97252124Y-54610000D01*
X97591880Y-54382983D01*
X97911619Y-53904458D01*
X98023897Y-53340000D01*
X97911619Y-52775542D01*
X97591880Y-52297017D01*
X97252124Y-52070000D01*
X97591880Y-51842983D01*
X97911619Y-51364458D01*
X98023897Y-50800000D01*
X97911619Y-50235542D01*
X97591880Y-49757017D01*
X97252124Y-49530000D01*
X97591880Y-49302983D01*
X97911619Y-48824458D01*
X98023897Y-48260000D01*
X97911619Y-47695542D01*
X97591880Y-47217017D01*
X97252124Y-46990000D01*
X97591880Y-46762983D01*
X97911619Y-46284458D01*
X98023897Y-45720000D01*
X97911619Y-45155542D01*
X97591880Y-44677017D01*
X97252124Y-44450000D01*
X97591880Y-44222983D01*
X97911619Y-43744458D01*
X98023897Y-43180000D01*
X97911619Y-42615542D01*
X97591880Y-42137017D01*
X97252124Y-41910000D01*
X97591880Y-41682983D01*
X97911619Y-41204458D01*
X98023897Y-40640000D01*
X97911619Y-40075542D01*
X97591880Y-39597017D01*
X97252124Y-39370000D01*
X97591880Y-39142983D01*
X97911619Y-38664458D01*
X98023897Y-38100000D01*
X97911619Y-37535542D01*
X97591880Y-37057017D01*
X97252124Y-36830000D01*
X97591880Y-36602983D01*
X97911619Y-36124458D01*
X98023897Y-35560000D01*
X97911619Y-34995542D01*
X97591880Y-34517017D01*
X97252124Y-34290000D01*
X97591880Y-34062983D01*
X97911619Y-33584458D01*
X98023897Y-33020000D01*
X97911619Y-32455542D01*
X97591880Y-31977017D01*
X97252124Y-31750000D01*
X97591880Y-31522983D01*
X97911619Y-31044458D01*
X98023897Y-30480000D01*
X97911619Y-29915542D01*
X97591880Y-29437017D01*
X97252124Y-29210000D01*
X97591880Y-28982983D01*
X97911619Y-28504458D01*
X98023897Y-27940000D01*
X97911619Y-27375542D01*
X97591880Y-26897017D01*
X97238527Y-26660915D01*
X97394497Y-26587815D01*
X97782487Y-26162742D01*
X97952045Y-25753372D01*
X97832812Y-25525000D01*
X96645000Y-25525000D01*
X96645000Y-25545000D01*
X96395000Y-25545000D01*
X96395000Y-25525000D01*
X94105000Y-25525000D01*
X94105000Y-25545000D01*
X93855000Y-25545000D01*
X93855000Y-25525000D01*
X92661250Y-25525000D01*
X92505000Y-25681250D01*
X92505000Y-25964999D01*
X72817779Y-25964999D01*
X69952440Y-23099660D01*
X69709123Y-22937080D01*
X69422110Y-22879990D01*
X57540650Y-22879990D01*
X56372383Y-21711723D01*
X56386759Y-21677102D01*
X56386761Y-21674681D01*
X63612760Y-21674681D01*
X63823473Y-22184646D01*
X64213302Y-22575156D01*
X64722898Y-22786759D01*
X65274681Y-22787240D01*
X65784646Y-22576527D01*
X66175156Y-22186698D01*
X66386759Y-21677102D01*
X66387240Y-21125319D01*
X66176527Y-20615354D01*
X65786698Y-20224844D01*
X65277102Y-20013241D01*
X64725319Y-20012760D01*
X64215354Y-20223473D01*
X63824844Y-20613302D01*
X63613241Y-21122898D01*
X63612760Y-21674681D01*
X56386761Y-21674681D01*
X56387240Y-21125319D01*
X56176527Y-20615354D01*
X55786698Y-20224844D01*
X55277102Y-20013241D01*
X54725319Y-20012760D01*
X54215354Y-20223473D01*
X53824844Y-20613302D01*
X53613241Y-21122898D01*
X53612760Y-21674681D01*
X53823473Y-22184646D01*
X54213302Y-22575156D01*
X54722898Y-22786759D01*
X55274681Y-22787240D01*
X55311406Y-22772066D01*
X56699660Y-24160320D01*
X56942977Y-24322900D01*
X57014261Y-24337079D01*
X56182477Y-25168863D01*
X56009924Y-25050962D01*
X55762000Y-25000756D01*
X54238000Y-25000756D01*
X54006389Y-25044337D01*
X53793668Y-25181219D01*
X53650962Y-25390076D01*
X53600756Y-25638000D01*
X53600756Y-27162000D01*
X53644337Y-27393611D01*
X53781219Y-27606332D01*
X53990076Y-27749038D01*
X54238000Y-27799244D01*
X55762000Y-27799244D01*
X55993611Y-27755663D01*
X56206332Y-27618781D01*
X56349038Y-27409924D01*
X56399244Y-27162000D01*
X56399244Y-27025937D01*
X56542330Y-26930330D01*
X58592660Y-24880000D01*
X68904340Y-24880000D01*
X69674340Y-25650000D01*
X66399244Y-25650000D01*
X66399244Y-25638000D01*
X66355663Y-25406389D01*
X66218781Y-25193668D01*
X66009924Y-25050962D01*
X65762000Y-25000756D01*
X64238000Y-25000756D01*
X64006389Y-25044337D01*
X63793668Y-25181219D01*
X63650962Y-25390076D01*
X63600756Y-25638000D01*
X63600756Y-27162000D01*
X63644337Y-27393611D01*
X63781219Y-27606332D01*
X63990076Y-27749038D01*
X64238000Y-27799244D01*
X65762000Y-27799244D01*
X65993611Y-27755663D01*
X66206332Y-27618781D01*
X66349038Y-27409924D01*
X66399244Y-27162000D01*
X66399244Y-27150000D01*
X69904340Y-27150000D01*
X73764670Y-31010330D01*
X73816556Y-31044999D01*
X71016578Y-31044999D01*
X71175156Y-30886698D01*
X71386759Y-30377102D01*
X71387240Y-29825319D01*
X71176527Y-29315354D01*
X70786698Y-28924844D01*
X70277102Y-28713241D01*
X69725319Y-28712760D01*
X69215354Y-28923473D01*
X68824844Y-29313302D01*
X68613241Y-29822898D01*
X68612760Y-30374681D01*
X68823473Y-30884646D01*
X68983546Y-31044999D01*
X62005659Y-31044999D01*
X61372383Y-30411723D01*
X61386759Y-30377102D01*
X61387240Y-29825319D01*
X61176527Y-29315354D01*
X60786698Y-28924844D01*
X60277102Y-28713241D01*
X59725319Y-28712760D01*
X59215354Y-28923473D01*
X58824844Y-29313302D01*
X58613241Y-29822898D01*
X58612760Y-30374681D01*
X58823473Y-30884646D01*
X59213302Y-31275156D01*
X59722898Y-31486759D01*
X60274681Y-31487240D01*
X60311406Y-31472066D01*
X61164669Y-32325329D01*
X61407986Y-32487909D01*
X61694999Y-32544999D01*
X68542633Y-32544999D01*
X66737632Y-34350000D01*
X61399244Y-34350000D01*
X61399244Y-34338000D01*
X61355663Y-34106389D01*
X61218781Y-33893668D01*
X61009924Y-33750962D01*
X60762000Y-33700756D01*
X59238000Y-33700756D01*
X59006389Y-33744337D01*
X58793668Y-33881219D01*
X58650962Y-34090076D01*
X58600756Y-34338000D01*
X58600756Y-35862000D01*
X58644337Y-36093611D01*
X58781219Y-36306332D01*
X58990076Y-36449038D01*
X59238000Y-36499244D01*
X60762000Y-36499244D01*
X60993611Y-36455663D01*
X61206332Y-36318781D01*
X61349038Y-36109924D01*
X61399244Y-35862000D01*
X61399244Y-35850000D01*
X67048292Y-35850000D01*
X67335305Y-35792910D01*
X67578622Y-35630330D01*
X68600756Y-34608196D01*
X68600756Y-35862000D01*
X68644337Y-36093611D01*
X68781219Y-36306332D01*
X68990076Y-36449038D01*
X69238000Y-36499244D01*
X70762000Y-36499244D01*
X70993611Y-36455663D01*
X71206332Y-36318781D01*
X71349038Y-36109924D01*
X71399244Y-35862000D01*
X71399244Y-35850000D01*
X88910049Y-35850000D01*
X88734753Y-35905253D01*
X88538408Y-36447655D01*
X88564577Y-37023907D01*
X88699650Y-37350000D01*
X88575660Y-37350000D01*
X88269560Y-37043900D01*
X88026243Y-36881320D01*
X87739230Y-36824230D01*
X56225770Y-36824230D01*
X55938758Y-36881319D01*
X55695440Y-37043900D01*
X55311723Y-37427617D01*
X55277102Y-37413241D01*
X54725319Y-37412760D01*
X54215354Y-37623473D01*
X53824844Y-38013302D01*
X53613241Y-38522898D01*
X53612760Y-39074681D01*
X53823473Y-39584646D01*
X54213302Y-39975156D01*
X54722898Y-40186759D01*
X55274681Y-40187240D01*
X55784646Y-39976527D01*
X56175156Y-39586698D01*
X56386759Y-39077102D01*
X56387240Y-38525319D01*
X56372066Y-38488594D01*
X56536430Y-38324230D01*
X63695735Y-38324230D01*
X63613241Y-38522898D01*
X63612760Y-39074681D01*
X63743042Y-39389989D01*
X59672011Y-39389989D01*
X59384998Y-39447079D01*
X59141681Y-39609659D01*
X56182477Y-42568863D01*
X56009924Y-42450962D01*
X55762000Y-42400756D01*
X54238000Y-42400756D01*
X54006389Y-42444337D01*
X53793668Y-42581219D01*
X53650962Y-42790076D01*
X53600756Y-43038000D01*
X53600756Y-44562000D01*
X53644337Y-44793611D01*
X53781219Y-45006332D01*
X53990076Y-45149038D01*
X54238000Y-45199244D01*
X55762000Y-45199244D01*
X55993611Y-45155663D01*
X56206332Y-45018781D01*
X56349038Y-44809924D01*
X56399244Y-44562000D01*
X56399244Y-44425937D01*
X56542330Y-44330330D01*
X59982671Y-40889989D01*
X67861351Y-40889989D01*
X66182477Y-42568863D01*
X66009924Y-42450962D01*
X65762000Y-42400756D01*
X64238000Y-42400756D01*
X64006389Y-42444337D01*
X63793668Y-42581219D01*
X63650962Y-42790076D01*
X63600756Y-43038000D01*
X63600756Y-44562000D01*
X63644337Y-44793611D01*
X63781219Y-45006332D01*
X63990076Y-45149038D01*
X64238000Y-45199244D01*
X65762000Y-45199244D01*
X65993611Y-45155663D01*
X66206332Y-45018781D01*
X66349038Y-44809924D01*
X66399244Y-44562000D01*
X66399244Y-44425937D01*
X66542330Y-44330330D01*
X69482660Y-41390000D01*
X79116069Y-41390000D01*
X78985178Y-41705220D01*
X78984822Y-42112991D01*
X79115808Y-42430000D01*
X75906411Y-42430000D01*
X75762000Y-42400756D01*
X74238000Y-42400756D01*
X74006389Y-42444337D01*
X73793668Y-42581219D01*
X73650962Y-42790076D01*
X73600756Y-43038000D01*
X73600756Y-44562000D01*
X73644337Y-44793611D01*
X73781219Y-45006332D01*
X73990076Y-45149038D01*
X74238000Y-45199244D01*
X75762000Y-45199244D01*
X75993611Y-45155663D01*
X76206332Y-45018781D01*
X76349038Y-44809924D01*
X76399244Y-44562000D01*
X76399244Y-43930000D01*
X79557371Y-43930000D01*
X79505485Y-43964669D01*
X74361548Y-49108606D01*
X62669266Y-49108606D01*
X61372383Y-47811723D01*
X61386759Y-47777102D01*
X61386761Y-47774681D01*
X68612760Y-47774681D01*
X68823473Y-48284646D01*
X69213302Y-48675156D01*
X69722898Y-48886759D01*
X70274681Y-48887240D01*
X70784646Y-48676527D01*
X71175156Y-48286698D01*
X71386759Y-47777102D01*
X71387240Y-47225319D01*
X71176527Y-46715354D01*
X70786698Y-46324844D01*
X70277102Y-46113241D01*
X69725319Y-46112760D01*
X69215354Y-46323473D01*
X68824844Y-46713302D01*
X68613241Y-47222898D01*
X68612760Y-47774681D01*
X61386761Y-47774681D01*
X61387240Y-47225319D01*
X61176527Y-46715354D01*
X60786698Y-46324844D01*
X60277102Y-46113241D01*
X59725319Y-46112760D01*
X59215354Y-46323473D01*
X58824844Y-46713302D01*
X58613241Y-47222898D01*
X58612760Y-47774681D01*
X58823473Y-48284646D01*
X59213302Y-48675156D01*
X59722898Y-48886759D01*
X60274681Y-48887240D01*
X60311406Y-48872066D01*
X61828276Y-50388936D01*
X61968625Y-50482715D01*
X61182477Y-51268863D01*
X61009924Y-51150962D01*
X60762000Y-51100756D01*
X59238000Y-51100756D01*
X59006389Y-51144337D01*
X58793668Y-51281219D01*
X58650962Y-51490076D01*
X58600756Y-51738000D01*
X58600756Y-53262000D01*
X58644337Y-53493611D01*
X58781219Y-53706332D01*
X58990076Y-53849038D01*
X59238000Y-53899244D01*
X60762000Y-53899244D01*
X60993611Y-53855663D01*
X61206332Y-53718781D01*
X61349038Y-53509924D01*
X61399244Y-53262000D01*
X61399244Y-53125937D01*
X61542330Y-53030330D01*
X63464043Y-51108617D01*
X69196223Y-51108617D01*
X69006389Y-51144337D01*
X68793668Y-51281219D01*
X68650962Y-51490076D01*
X68600756Y-51738000D01*
X68600756Y-53262000D01*
X68644337Y-53493611D01*
X68781219Y-53706332D01*
X68990076Y-53849038D01*
X69238000Y-53899244D01*
X70762000Y-53899244D01*
X70993611Y-53855663D01*
X71206332Y-53718781D01*
X71349038Y-53509924D01*
X71399244Y-53262000D01*
X71399244Y-53125937D01*
X71542330Y-53030330D01*
X72958340Y-51614320D01*
X78625802Y-51614320D01*
X78600756Y-51738000D01*
X78600756Y-53262000D01*
X78644337Y-53493611D01*
X78781219Y-53706332D01*
X78990076Y-53849038D01*
X79238000Y-53899244D01*
X80698062Y-53899244D01*
X77292326Y-57304980D01*
X75856318Y-57304980D01*
X76175156Y-56986698D01*
X76386759Y-56477102D01*
X76387240Y-55925319D01*
X76176527Y-55415354D01*
X75786698Y-55024844D01*
X75277102Y-54813241D01*
X74725319Y-54812760D01*
X74215354Y-55023473D01*
X73824844Y-55413302D01*
X73613241Y-55922898D01*
X73612760Y-56474681D01*
X73823473Y-56984646D01*
X74143248Y-57304980D01*
X65856318Y-57304980D01*
X66175156Y-56986698D01*
X66386759Y-56477102D01*
X66387240Y-55925319D01*
X66176527Y-55415354D01*
X65786698Y-55024844D01*
X65277102Y-54813241D01*
X64725319Y-54812760D01*
X64215354Y-55023473D01*
X63824844Y-55413302D01*
X63613241Y-55922898D01*
X63612760Y-56474681D01*
X63823473Y-56984646D01*
X64143248Y-57304980D01*
X57165640Y-57304980D01*
X56372383Y-56511723D01*
X56386759Y-56477102D01*
X56387240Y-55925319D01*
X56176527Y-55415354D01*
X55786698Y-55024844D01*
X55277102Y-54813241D01*
X54725319Y-54812760D01*
X54215354Y-55023473D01*
X53824844Y-55413302D01*
X53613241Y-55922898D01*
X53612760Y-56474681D01*
X53823473Y-56984646D01*
X54213302Y-57375156D01*
X54722898Y-57586759D01*
X55274681Y-57587240D01*
X55311406Y-57572066D01*
X56324650Y-58585310D01*
X56567967Y-58747890D01*
X56854980Y-58804980D01*
X57346360Y-58804980D01*
X56182477Y-59968863D01*
X56009924Y-59850962D01*
X55762000Y-59800756D01*
X54238000Y-59800756D01*
X54006389Y-59844337D01*
X53793668Y-59981219D01*
X53650962Y-60190076D01*
X53600756Y-60438000D01*
X53600756Y-61962000D01*
X53644337Y-62193611D01*
X53781219Y-62406332D01*
X53990076Y-62549038D01*
X54238000Y-62599244D01*
X55762000Y-62599244D01*
X55993611Y-62555663D01*
X56206332Y-62418781D01*
X56349038Y-62209924D01*
X56399244Y-61962000D01*
X56399244Y-61825937D01*
X56542330Y-61730330D01*
X58967670Y-59304990D01*
X66846350Y-59304990D01*
X66182477Y-59968863D01*
X66009924Y-59850962D01*
X65762000Y-59800756D01*
X64238000Y-59800756D01*
X64006389Y-59844337D01*
X63793668Y-59981219D01*
X63650962Y-60190076D01*
X63600756Y-60438000D01*
X63600756Y-61962000D01*
X63644337Y-62193611D01*
X63781219Y-62406332D01*
X63990076Y-62549038D01*
X64238000Y-62599244D01*
X65762000Y-62599244D01*
X65993611Y-62555663D01*
X66206332Y-62418781D01*
X66349038Y-62209924D01*
X66399244Y-61962000D01*
X66399244Y-61825937D01*
X66542330Y-61730330D01*
X68467660Y-59805000D01*
X74215445Y-59805000D01*
X74006389Y-59844337D01*
X73793668Y-59981219D01*
X73650962Y-60190076D01*
X73600756Y-60438000D01*
X73600756Y-61962000D01*
X73644337Y-62193611D01*
X73781219Y-62406332D01*
X73990076Y-62549038D01*
X74238000Y-62599244D01*
X75762000Y-62599244D01*
X75993611Y-62555663D01*
X76206332Y-62418781D01*
X76349038Y-62209924D01*
X76399244Y-61962000D01*
X76399244Y-61950000D01*
X77230000Y-61950000D01*
X77517013Y-61892910D01*
X77760330Y-61730330D01*
X80320660Y-59170000D01*
X80612317Y-59170000D01*
X80560431Y-59204669D01*
X73570120Y-66194980D01*
X70497968Y-66194980D01*
X70784646Y-66076527D01*
X71175156Y-65686698D01*
X71386759Y-65177102D01*
X71387240Y-64625319D01*
X71176527Y-64115354D01*
X70786698Y-63724844D01*
X70277102Y-63513241D01*
X69725319Y-63512760D01*
X69215354Y-63723473D01*
X68824844Y-64113302D01*
X68613241Y-64622898D01*
X68612760Y-65174681D01*
X68823473Y-65684646D01*
X69213302Y-66075156D01*
X69501870Y-66194980D01*
X60497968Y-66194980D01*
X60784646Y-66076527D01*
X61175156Y-65686698D01*
X61386759Y-65177102D01*
X61387240Y-64625319D01*
X61176527Y-64115354D01*
X60786698Y-63724844D01*
X60277102Y-63513241D01*
X59725319Y-63512760D01*
X59215354Y-63723473D01*
X58824844Y-64113302D01*
X58613241Y-64622898D01*
X58612760Y-65174681D01*
X58823473Y-65684646D01*
X59213302Y-66075156D01*
X59501870Y-66194980D01*
X52355640Y-66194980D01*
X51372383Y-65211723D01*
X51386759Y-65177102D01*
X51387240Y-64625319D01*
X51176527Y-64115354D01*
X50786698Y-63724844D01*
X50277102Y-63513241D01*
X49725319Y-63512760D01*
X49215354Y-63723473D01*
X48824844Y-64113302D01*
X48613241Y-64622898D01*
X48612760Y-65174681D01*
X48823473Y-65684646D01*
X49213302Y-66075156D01*
X49722898Y-66286759D01*
X50274681Y-66287240D01*
X50311406Y-66272066D01*
X51514650Y-67475310D01*
X51757967Y-67637890D01*
X52044980Y-67694980D01*
X52156360Y-67694980D01*
X51182477Y-68668863D01*
X51009924Y-68550962D01*
X50762000Y-68500756D01*
X49238000Y-68500756D01*
X49006389Y-68544337D01*
X48793668Y-68681219D01*
X48650962Y-68890076D01*
X48600756Y-69138000D01*
X41185885Y-69138000D01*
X41176527Y-69115354D01*
X40786698Y-68724844D01*
X40277102Y-68513241D01*
X39725319Y-68512760D01*
X39688594Y-68527934D01*
X38054660Y-66894000D01*
X38817523Y-66131137D01*
X38990076Y-66249038D01*
X39238000Y-66299244D01*
X40762000Y-66299244D01*
X40993611Y-66255663D01*
X41206332Y-66118781D01*
X41349038Y-65909924D01*
X41399244Y-65662000D01*
X41399244Y-64138000D01*
X41355663Y-63906389D01*
X41218781Y-63693668D01*
X41009924Y-63550962D01*
X40762000Y-63500756D01*
X39238000Y-63500756D01*
X39006389Y-63544337D01*
X38793668Y-63681219D01*
X38650962Y-63890076D01*
X38600756Y-64138000D01*
X38600756Y-64274062D01*
X38457670Y-64369670D01*
X36722352Y-66104988D01*
X31215756Y-66104988D01*
X31349038Y-65909924D01*
X31399244Y-65662000D01*
X31399244Y-64138000D01*
X31355663Y-63906389D01*
X31218781Y-63693668D01*
X31009924Y-63550962D01*
X30762000Y-63500756D01*
X29238000Y-63500756D01*
X29006389Y-63544337D01*
X28793668Y-63681219D01*
X28650962Y-63890076D01*
X28624652Y-64020000D01*
X11292305Y-64020000D01*
X11461592Y-63552345D01*
X11435423Y-62976093D01*
X11265247Y-62565253D01*
X11019109Y-62487671D01*
X11132050Y-62374730D01*
X11102320Y-62345000D01*
X20392120Y-62345000D01*
X20679133Y-62287910D01*
X20922450Y-62125330D01*
X22580181Y-60467599D01*
X23802298Y-60467599D01*
X23613241Y-60922898D01*
X23612760Y-61474681D01*
X23823473Y-61984646D01*
X24213302Y-62375156D01*
X24722898Y-62586759D01*
X25274681Y-62587240D01*
X25784646Y-62376527D01*
X26175156Y-61986698D01*
X26386759Y-61477102D01*
X26387240Y-60925319D01*
X26198114Y-60467599D01*
X33802298Y-60467599D01*
X33613241Y-60922898D01*
X33612760Y-61474681D01*
X33823473Y-61984646D01*
X34213302Y-62375156D01*
X34722898Y-62586759D01*
X35274681Y-62587240D01*
X35784646Y-62376527D01*
X36175156Y-61986698D01*
X36386759Y-61477102D01*
X36387240Y-60925319D01*
X36198114Y-60467599D01*
X43206939Y-60467599D01*
X43627617Y-60888277D01*
X43613241Y-60922898D01*
X43612760Y-61474681D01*
X43823473Y-61984646D01*
X44213302Y-62375156D01*
X44722898Y-62586759D01*
X45274681Y-62587240D01*
X45784646Y-62376527D01*
X46175156Y-61986698D01*
X46386759Y-61477102D01*
X46387240Y-60925319D01*
X46176527Y-60415354D01*
X45786698Y-60024844D01*
X45277102Y-59813241D01*
X44725319Y-59812760D01*
X44688594Y-59827934D01*
X44047929Y-59187269D01*
X43804612Y-59024689D01*
X43517599Y-58967599D01*
X42281061Y-58967599D01*
X43817523Y-57431137D01*
X43990076Y-57549038D01*
X44238000Y-57599244D01*
X45762000Y-57599244D01*
X45993611Y-57555663D01*
X46206332Y-57418781D01*
X46349038Y-57209924D01*
X46399244Y-56962000D01*
X46399244Y-55438000D01*
X46355663Y-55206389D01*
X46218781Y-54993668D01*
X46009924Y-54850962D01*
X45762000Y-54800756D01*
X44238000Y-54800756D01*
X44006389Y-54844337D01*
X43793668Y-54981219D01*
X43650962Y-55190076D01*
X43600756Y-55438000D01*
X43600756Y-55574063D01*
X43509291Y-55635178D01*
X43457670Y-55669670D01*
X40822340Y-58305000D01*
X34967660Y-58305000D01*
X35530330Y-57742330D01*
X35625937Y-57599244D01*
X35762000Y-57599244D01*
X35993611Y-57555663D01*
X36206332Y-57418781D01*
X36349038Y-57209924D01*
X36399244Y-56962000D01*
X36399244Y-55438000D01*
X36355663Y-55206389D01*
X36218781Y-54993668D01*
X36009924Y-54850962D01*
X35762000Y-54800756D01*
X34238000Y-54800756D01*
X34006389Y-54844337D01*
X33793668Y-54981219D01*
X33650962Y-55190076D01*
X33600756Y-55438000D01*
X33600756Y-56962000D01*
X33644337Y-57193611D01*
X33767041Y-57384299D01*
X33481340Y-57670000D01*
X21848931Y-57670000D01*
X21979822Y-57354780D01*
X21980178Y-56947009D01*
X21849192Y-56630000D01*
X23600756Y-56630000D01*
X23600756Y-56962000D01*
X23644337Y-57193611D01*
X23781219Y-57406332D01*
X23990076Y-57549038D01*
X24238000Y-57599244D01*
X25762000Y-57599244D01*
X25993611Y-57555663D01*
X26206332Y-57418781D01*
X26349038Y-57209924D01*
X26399244Y-56962000D01*
X26399244Y-55438000D01*
X26355663Y-55206389D01*
X26218781Y-54993668D01*
X26009924Y-54850962D01*
X25762000Y-54800756D01*
X24238000Y-54800756D01*
X24006389Y-54844337D01*
X23793668Y-54981219D01*
X23692010Y-55130000D01*
X15835563Y-55130000D01*
X15887449Y-55095331D01*
X18613113Y-52369667D01*
X18612760Y-52774681D01*
X18823473Y-53284646D01*
X19213302Y-53675156D01*
X19722898Y-53886759D01*
X20274681Y-53887240D01*
X20784646Y-53676527D01*
X21175156Y-53286698D01*
X21386759Y-52777102D01*
X21387240Y-52225319D01*
X21340830Y-52112999D01*
X28658875Y-52112999D01*
X28613241Y-52222898D01*
X28612760Y-52774681D01*
X28823473Y-53284646D01*
X29213302Y-53675156D01*
X29722898Y-53886759D01*
X30274681Y-53887240D01*
X30784646Y-53676527D01*
X31175156Y-53286698D01*
X31386759Y-52777102D01*
X31387240Y-52225319D01*
X31340830Y-52112999D01*
X38658875Y-52112999D01*
X38613241Y-52222898D01*
X38612760Y-52774681D01*
X38823473Y-53284646D01*
X39213302Y-53675156D01*
X39722898Y-53886759D01*
X40274681Y-53887240D01*
X40784646Y-53676527D01*
X41175156Y-53286698D01*
X41386759Y-52777102D01*
X41387240Y-52225319D01*
X41340830Y-52112999D01*
X48552339Y-52112999D01*
X48627617Y-52188277D01*
X48613241Y-52222898D01*
X48612760Y-52774681D01*
X48823473Y-53284646D01*
X49213302Y-53675156D01*
X49722898Y-53886759D01*
X50274681Y-53887240D01*
X50784646Y-53676527D01*
X51175156Y-53286698D01*
X51386759Y-52777102D01*
X51387240Y-52225319D01*
X51176527Y-51715354D01*
X50786698Y-51324844D01*
X50277102Y-51113241D01*
X49725319Y-51112760D01*
X49688594Y-51127934D01*
X49393329Y-50832669D01*
X49150012Y-50670089D01*
X48862999Y-50612999D01*
X46935661Y-50612999D01*
X48817523Y-48731137D01*
X48990076Y-48849038D01*
X49238000Y-48899244D01*
X50762000Y-48899244D01*
X50993611Y-48855663D01*
X51206332Y-48718781D01*
X51349038Y-48509924D01*
X51399244Y-48262000D01*
X51399244Y-46738000D01*
X51355663Y-46506389D01*
X51218781Y-46293668D01*
X51009924Y-46150962D01*
X50762000Y-46100756D01*
X49238000Y-46100756D01*
X49006389Y-46144337D01*
X48793668Y-46281219D01*
X48650962Y-46490076D01*
X48600756Y-46738000D01*
X48600756Y-46874063D01*
X48566012Y-46897278D01*
X48457670Y-46969670D01*
X45377340Y-50050000D01*
X37498660Y-50050000D01*
X38817523Y-48731137D01*
X38990076Y-48849038D01*
X39238000Y-48899244D01*
X40762000Y-48899244D01*
X40993611Y-48855663D01*
X41206332Y-48718781D01*
X41349038Y-48509924D01*
X41399244Y-48262000D01*
X41399244Y-46738000D01*
X41355663Y-46506389D01*
X41218781Y-46293668D01*
X41009924Y-46150962D01*
X40762000Y-46100756D01*
X39238000Y-46100756D01*
X39006389Y-46144337D01*
X38793668Y-46281219D01*
X38650962Y-46490076D01*
X38600756Y-46738000D01*
X38600756Y-46874063D01*
X38457670Y-46969670D01*
X36012340Y-49415000D01*
X28133660Y-49415000D01*
X28817523Y-48731137D01*
X28990076Y-48849038D01*
X29238000Y-48899244D01*
X30762000Y-48899244D01*
X30993611Y-48855663D01*
X31206332Y-48718781D01*
X31349038Y-48509924D01*
X31399244Y-48262000D01*
X31399244Y-46738000D01*
X31355663Y-46506389D01*
X31218781Y-46293668D01*
X31009924Y-46150962D01*
X30762000Y-46100756D01*
X29238000Y-46100756D01*
X29006389Y-46144337D01*
X28793668Y-46281219D01*
X28650962Y-46490076D01*
X28600756Y-46738000D01*
X28600756Y-46874062D01*
X28457670Y-46969670D01*
X26647340Y-48780000D01*
X21111195Y-48780000D01*
X21206332Y-48718781D01*
X21349038Y-48509924D01*
X21399244Y-48262000D01*
X21399244Y-46738000D01*
X21355663Y-46506389D01*
X21218781Y-46293668D01*
X21009924Y-46150962D01*
X20762000Y-46100756D01*
X20625937Y-46100756D01*
X20530330Y-45957670D01*
X19762330Y-45189670D01*
X19710444Y-45155001D01*
X21296565Y-45155001D01*
X21583578Y-45097911D01*
X21826895Y-44935331D01*
X22687545Y-44074681D01*
X23612760Y-44074681D01*
X23823473Y-44584646D01*
X24213302Y-44975156D01*
X24722898Y-45186759D01*
X25274681Y-45187240D01*
X25784646Y-44976527D01*
X26175156Y-44586698D01*
X26386759Y-44077102D01*
X26386761Y-44074681D01*
X33612760Y-44074681D01*
X33823473Y-44584646D01*
X34213302Y-44975156D01*
X34722898Y-45186759D01*
X35274681Y-45187240D01*
X35784646Y-44976527D01*
X36175156Y-44586698D01*
X36386759Y-44077102D01*
X36387240Y-43525319D01*
X36176527Y-43015354D01*
X35786698Y-42624844D01*
X35277102Y-42413241D01*
X34725319Y-42412760D01*
X34215354Y-42623473D01*
X33824844Y-43013302D01*
X33613241Y-43522898D01*
X33612760Y-44074681D01*
X26386761Y-44074681D01*
X26387240Y-43525319D01*
X26176527Y-43015354D01*
X25786698Y-42624844D01*
X25277102Y-42413241D01*
X24725319Y-42412760D01*
X24215354Y-42623473D01*
X23824844Y-43013302D01*
X23613241Y-43522898D01*
X23612760Y-44074681D01*
X22687545Y-44074681D01*
X24372205Y-42390021D01*
X42529361Y-42390021D01*
X43627617Y-43488277D01*
X43613241Y-43522898D01*
X43612760Y-44074681D01*
X43823473Y-44584646D01*
X44213302Y-44975156D01*
X44722898Y-45186759D01*
X45274681Y-45187240D01*
X45784646Y-44976527D01*
X46175156Y-44586698D01*
X46386759Y-44077102D01*
X46387240Y-43525319D01*
X46176527Y-43015354D01*
X45786698Y-42624844D01*
X45277102Y-42413241D01*
X44725319Y-42412760D01*
X44688594Y-42427934D01*
X43370351Y-41109691D01*
X43127034Y-40947111D01*
X42938959Y-40909701D01*
X43817523Y-40031137D01*
X43990076Y-40149038D01*
X44238000Y-40199244D01*
X45762000Y-40199244D01*
X45993611Y-40155663D01*
X46206332Y-40018781D01*
X46349038Y-39809924D01*
X46399244Y-39562000D01*
X46399244Y-38038000D01*
X46355663Y-37806389D01*
X46218781Y-37593668D01*
X46009924Y-37450962D01*
X45762000Y-37400756D01*
X44238000Y-37400756D01*
X44006389Y-37444337D01*
X43793668Y-37581219D01*
X43650962Y-37790076D01*
X43600756Y-38038000D01*
X43600756Y-38174063D01*
X43461456Y-38267140D01*
X43457670Y-38269670D01*
X41337330Y-40390010D01*
X35482650Y-40390010D01*
X35530330Y-40342330D01*
X35569416Y-40283834D01*
X35625937Y-40199244D01*
X35762000Y-40199244D01*
X35993611Y-40155663D01*
X36206332Y-40018781D01*
X36349038Y-39809924D01*
X36399244Y-39562000D01*
X36399244Y-38038000D01*
X36355663Y-37806389D01*
X36218781Y-37593668D01*
X36009924Y-37450962D01*
X35762000Y-37400756D01*
X34238000Y-37400756D01*
X34006389Y-37444337D01*
X33793668Y-37581219D01*
X33650962Y-37790076D01*
X33600756Y-38038000D01*
X33600756Y-39562000D01*
X33644337Y-39793611D01*
X33706362Y-39890000D01*
X26294324Y-39890000D01*
X26349038Y-39809924D01*
X26399244Y-39562000D01*
X26399244Y-38038000D01*
X26355663Y-37806389D01*
X26218781Y-37593668D01*
X26009924Y-37450962D01*
X25762000Y-37400756D01*
X24555170Y-37400756D01*
X24300000Y-37350000D01*
X11295925Y-37350000D01*
X11461592Y-36892345D01*
X11435423Y-36316093D01*
X11369364Y-36156614D01*
X23648386Y-36156614D01*
X23935399Y-36099524D01*
X24178716Y-35936944D01*
X25402661Y-34712999D01*
X28658875Y-34712999D01*
X28613241Y-34822898D01*
X28612760Y-35374681D01*
X28823473Y-35884646D01*
X29213302Y-36275156D01*
X29722898Y-36486759D01*
X30274681Y-36487240D01*
X30784646Y-36276527D01*
X31175156Y-35886698D01*
X31386759Y-35377102D01*
X31387240Y-34825319D01*
X31340830Y-34712999D01*
X38658875Y-34712999D01*
X38613241Y-34822898D01*
X38612760Y-35374681D01*
X38823473Y-35884646D01*
X39213302Y-36275156D01*
X39722898Y-36486759D01*
X40274681Y-36487240D01*
X40784646Y-36276527D01*
X41175156Y-35886698D01*
X41386759Y-35377102D01*
X41387240Y-34825319D01*
X41340830Y-34712999D01*
X48552339Y-34712999D01*
X48627617Y-34788277D01*
X48613241Y-34822898D01*
X48612760Y-35374681D01*
X48823473Y-35884646D01*
X49213302Y-36275156D01*
X49722898Y-36486759D01*
X50274681Y-36487240D01*
X50784646Y-36276527D01*
X51175156Y-35886698D01*
X51386759Y-35377102D01*
X51387240Y-34825319D01*
X51176527Y-34315354D01*
X50786698Y-33924844D01*
X50277102Y-33713241D01*
X49725319Y-33712760D01*
X49688594Y-33727934D01*
X49393329Y-33432669D01*
X49150012Y-33270089D01*
X48862999Y-33212999D01*
X41264899Y-33212999D01*
X43627898Y-30850000D01*
X48600756Y-30850000D01*
X48600756Y-30862000D01*
X48644337Y-31093611D01*
X48781219Y-31306332D01*
X48990076Y-31449038D01*
X49238000Y-31499244D01*
X50762000Y-31499244D01*
X50993611Y-31455663D01*
X51206332Y-31318781D01*
X51349038Y-31109924D01*
X51399244Y-30862000D01*
X51399244Y-29338000D01*
X51355663Y-29106389D01*
X51218781Y-28893668D01*
X51009924Y-28750962D01*
X50762000Y-28700756D01*
X49238000Y-28700756D01*
X49006389Y-28744337D01*
X48793668Y-28881219D01*
X48650962Y-29090076D01*
X48600756Y-29338000D01*
X48600756Y-29350000D01*
X43317238Y-29350000D01*
X43030225Y-29407090D01*
X42874893Y-29510880D01*
X42786908Y-29569670D01*
X41375036Y-30981542D01*
X41399244Y-30862000D01*
X41399244Y-29338000D01*
X41355663Y-29106389D01*
X41218781Y-28893668D01*
X41009924Y-28750962D01*
X40762000Y-28700756D01*
X39238000Y-28700756D01*
X39006389Y-28744337D01*
X38793668Y-28881219D01*
X38650962Y-29090076D01*
X38600756Y-29338000D01*
X38600756Y-29474063D01*
X38457670Y-29569670D01*
X36392340Y-31635000D01*
X23902154Y-31635000D01*
X23645545Y-31686042D01*
X23645647Y-31569029D01*
X23505562Y-31230000D01*
X28732101Y-31230000D01*
X28781219Y-31306332D01*
X28990076Y-31449038D01*
X29238000Y-31499244D01*
X30762000Y-31499244D01*
X30993611Y-31455663D01*
X31206332Y-31318781D01*
X31349038Y-31109924D01*
X31399244Y-30862000D01*
X31399244Y-29338000D01*
X31355663Y-29106389D01*
X31218781Y-28893668D01*
X31009924Y-28750962D01*
X30762000Y-28700756D01*
X29238000Y-28700756D01*
X29006389Y-28744337D01*
X28793668Y-28881219D01*
X28650962Y-29090076D01*
X28600756Y-29338000D01*
X28600756Y-29730000D01*
X27337683Y-29730000D01*
X27389569Y-29695331D01*
X31569900Y-25515000D01*
X33923318Y-25515000D01*
X33824844Y-25613302D01*
X33613241Y-26122898D01*
X33612760Y-26674681D01*
X33823473Y-27184646D01*
X34213302Y-27575156D01*
X34722898Y-27786759D01*
X35274681Y-27787240D01*
X35784646Y-27576527D01*
X36175156Y-27186698D01*
X36386759Y-26677102D01*
X36387240Y-26125319D01*
X36176527Y-25615354D01*
X36076348Y-25515000D01*
X43054340Y-25515000D01*
X43627617Y-26088277D01*
X43613241Y-26122898D01*
X43612760Y-26674681D01*
X43823473Y-27184646D01*
X44213302Y-27575156D01*
X44722898Y-27786759D01*
X45274681Y-27787240D01*
X45784646Y-27576527D01*
X46175156Y-27186698D01*
X46386759Y-26677102D01*
X46387240Y-26125319D01*
X46176527Y-25615354D01*
X45786698Y-25224844D01*
X45277102Y-25013241D01*
X44725319Y-25012760D01*
X44688594Y-25027934D01*
X43895330Y-24234670D01*
X43652013Y-24072090D01*
X43365000Y-24015000D01*
X42433660Y-24015000D01*
X43817523Y-22631137D01*
X43990076Y-22749038D01*
X44238000Y-22799244D01*
X45762000Y-22799244D01*
X45993611Y-22755663D01*
X46206332Y-22618781D01*
X46349038Y-22409924D01*
X46399244Y-22162000D01*
X46399244Y-20638000D01*
X46355663Y-20406389D01*
X46218781Y-20193668D01*
X46009924Y-20050962D01*
X45762000Y-20000756D01*
X44238000Y-20000756D01*
X44006389Y-20044337D01*
X43793668Y-20181219D01*
X43650962Y-20390076D01*
X43600756Y-20638000D01*
X43600756Y-20774063D01*
X43457670Y-20869670D01*
X41582340Y-22745000D01*
X36010182Y-22745000D01*
X36206332Y-22618781D01*
X36349038Y-22409924D01*
X36399244Y-22162000D01*
X36399244Y-20638000D01*
X36355663Y-20406389D01*
X36218781Y-20193668D01*
X36009924Y-20050962D01*
X35762000Y-20000756D01*
X34238000Y-20000756D01*
X34006389Y-20044337D01*
X33793668Y-20181219D01*
X33650962Y-20390076D01*
X33600756Y-20638000D01*
X33600756Y-20650000D01*
X33210000Y-20650000D01*
X32922987Y-20707090D01*
X32679670Y-20869670D01*
X28899340Y-24650000D01*
X13593931Y-24650000D01*
X13724822Y-24334780D01*
X13724970Y-24165690D01*
X19580330Y-18310330D01*
X19742910Y-18067013D01*
X19800000Y-17780000D01*
X19800000Y-9020462D01*
X20320000Y-9123897D01*
X20884458Y-9011619D01*
X21362983Y-8691880D01*
X21590000Y-8352124D01*
X21817017Y-8691880D01*
X22125040Y-8897694D01*
X22167090Y-9109094D01*
X22329670Y-9352411D01*
X26842589Y-13865330D01*
X27085906Y-14027910D01*
X27372919Y-14085000D01*
X59625387Y-14085000D01*
X59743626Y-14203446D01*
X60120220Y-14359822D01*
X60527991Y-14360178D01*
X60904857Y-14204459D01*
X61193446Y-13916374D01*
X61349822Y-13539780D01*
X61350178Y-13132009D01*
X61194459Y-12755143D01*
X60906374Y-12466554D01*
X60529780Y-12310178D01*
X60122009Y-12309822D01*
X59745143Y-12465541D01*
X59625475Y-12585000D01*
X33913931Y-12585000D01*
X34044822Y-12269780D01*
X34045023Y-12039999D01*
X62533337Y-12039999D01*
X74556350Y-24063012D01*
X74799667Y-24225592D01*
X75086680Y-24282682D01*
X89763444Y-24282682D01*
X89881683Y-24401128D01*
X90258277Y-24557504D01*
X90666048Y-24557860D01*
X90985945Y-24425680D01*
X92505000Y-24425680D01*
X92505000Y-25118750D01*
X92661250Y-25275000D01*
X93855000Y-25275000D01*
X93855000Y-24081250D01*
X94105000Y-24081250D01*
X94105000Y-25275000D01*
X96395000Y-25275000D01*
X96395000Y-24086547D01*
X96645000Y-24086547D01*
X96645000Y-25275000D01*
X97832812Y-25275000D01*
X97952045Y-25046628D01*
X97782487Y-24637258D01*
X97394497Y-24212185D01*
X96873373Y-23967946D01*
X96645000Y-24086547D01*
X96395000Y-24086547D01*
X96166627Y-23967946D01*
X95645503Y-24212185D01*
X95453637Y-24422389D01*
X95359849Y-24195966D01*
X95184034Y-24020150D01*
X94954320Y-23925000D01*
X94261250Y-23925000D01*
X94105000Y-24081250D01*
X93855000Y-24081250D01*
X93698750Y-23925000D01*
X93005680Y-23925000D01*
X92775966Y-24020150D01*
X92600151Y-24195966D01*
X92505000Y-24425680D01*
X90985945Y-24425680D01*
X91042914Y-24402141D01*
X91331503Y-24114056D01*
X91487879Y-23737462D01*
X91488235Y-23329691D01*
X91332516Y-22952825D01*
X91044431Y-22664236D01*
X90667837Y-22507860D01*
X90260066Y-22507504D01*
X89883200Y-22663223D01*
X89763532Y-22782682D01*
X75397340Y-22782682D01*
X63942831Y-11328173D01*
X64094747Y-11265247D01*
X64172330Y-11019107D01*
X63330000Y-10176777D01*
X63315858Y-10190919D01*
X63139081Y-10014142D01*
X63153223Y-10000000D01*
X63506777Y-10000000D01*
X64349107Y-10842330D01*
X64595247Y-10764747D01*
X64791592Y-10222345D01*
X64765423Y-9646093D01*
X64595247Y-9235253D01*
X64349107Y-9157670D01*
X63506777Y-10000000D01*
X63153223Y-10000000D01*
X62310893Y-9157670D01*
X62064753Y-9235253D01*
X61868408Y-9777655D01*
X61894577Y-10353907D01*
X61971659Y-10539999D01*
X38016604Y-10539999D01*
X38131592Y-10222345D01*
X38105423Y-9646093D01*
X37935247Y-9235253D01*
X37689107Y-9157670D01*
X36846777Y-10000000D01*
X36860919Y-10014142D01*
X36684142Y-10190919D01*
X36670000Y-10176777D01*
X36655858Y-10190919D01*
X36479081Y-10014142D01*
X36493223Y-10000000D01*
X35650893Y-9157670D01*
X35404753Y-9235253D01*
X35208408Y-9777655D01*
X35234577Y-10353907D01*
X35311659Y-10539999D01*
X29380659Y-10539999D01*
X27960483Y-9119823D01*
X28504458Y-9011619D01*
X28550442Y-8980893D01*
X35827670Y-8980893D01*
X36670000Y-9823223D01*
X37512330Y-8980893D01*
X62487670Y-8980893D01*
X63330000Y-9823223D01*
X64172330Y-8980893D01*
X64094747Y-8734753D01*
X63552345Y-8538408D01*
X62976093Y-8564577D01*
X62565253Y-8734753D01*
X62487670Y-8980893D01*
X37512330Y-8980893D01*
X37434747Y-8734753D01*
X36892345Y-8538408D01*
X36316093Y-8564577D01*
X35905253Y-8734753D01*
X35827670Y-8980893D01*
X28550442Y-8980893D01*
X28982983Y-8691880D01*
X29302722Y-8213355D01*
X29415000Y-7648897D01*
X29415000Y-7591103D01*
X29326264Y-7144999D01*
X80379339Y-7144999D01*
X85334968Y-12100628D01*
X85334822Y-12267991D01*
X85490541Y-12644857D01*
X85778626Y-12933446D01*
X86155220Y-13089822D01*
X86562991Y-13090178D01*
X86939857Y-12934459D01*
X87228446Y-12646374D01*
X87384822Y-12269780D01*
X87385178Y-11862009D01*
X87229459Y-11485143D01*
X86941374Y-11196554D01*
X86564780Y-11040178D01*
X86395690Y-11040030D01*
X86374767Y-11019107D01*
X89157670Y-11019107D01*
X89235253Y-11265247D01*
X89777655Y-11461592D01*
X90353907Y-11435423D01*
X90764747Y-11265247D01*
X90842330Y-11019107D01*
X90000000Y-10176777D01*
X89157670Y-11019107D01*
X86374767Y-11019107D01*
X85133315Y-9777655D01*
X88538408Y-9777655D01*
X88564577Y-10353907D01*
X88734753Y-10764747D01*
X88980893Y-10842330D01*
X89823223Y-10000000D01*
X88980893Y-9157670D01*
X88734753Y-9235253D01*
X88538408Y-9777655D01*
X85133315Y-9777655D01*
X81220329Y-5864669D01*
X81168443Y-5830000D01*
X87319340Y-5830000D01*
X90036201Y-8546861D01*
X89646093Y-8564577D01*
X89235253Y-8734753D01*
X89157670Y-8980893D01*
X90000000Y-9823223D01*
X90014142Y-9809081D01*
X90190919Y-9985858D01*
X90176777Y-10000000D01*
X91019107Y-10842330D01*
X91265247Y-10764747D01*
X91461592Y-10222345D01*
X91449694Y-9960354D01*
X91800892Y-10311552D01*
X91685178Y-10590220D01*
X91684822Y-10997991D01*
X91840541Y-11374857D01*
X91960000Y-11494525D01*
X91960000Y-14929340D01*
X86959372Y-19929968D01*
X86792009Y-19929822D01*
X86415143Y-20085541D01*
X86126554Y-20373626D01*
X85970178Y-20750220D01*
X85969822Y-21157991D01*
X86125541Y-21534857D01*
X86413626Y-21823446D01*
X86790220Y-21979822D01*
X87197991Y-21980178D01*
X87574857Y-21824459D01*
X87863446Y-21536374D01*
X88019822Y-21159780D01*
X88019970Y-20990690D01*
X93240330Y-15770330D01*
X93402911Y-15527012D01*
X93460000Y-15240000D01*
X93460000Y-11494613D01*
X93578446Y-11376374D01*
X93734822Y-10999780D01*
X93735178Y-10592009D01*
X93579459Y-10215143D01*
X93443971Y-10079418D01*
X93402910Y-9872987D01*
X93240330Y-9629670D01*
X91344758Y-7734098D01*
X92442678Y-7734098D01*
X92809980Y-8226967D01*
X94211592Y-8819413D01*
X95733232Y-8830388D01*
X97143243Y-8258221D01*
X97190020Y-8226967D01*
X97557322Y-7734098D01*
X95000000Y-5176777D01*
X92442678Y-7734098D01*
X91344758Y-7734098D01*
X89343892Y-5733232D01*
X91169612Y-5733232D01*
X91741779Y-7143243D01*
X91773033Y-7190020D01*
X92265902Y-7557322D01*
X94823223Y-5000000D01*
X95176777Y-5000000D01*
X97734098Y-7557322D01*
X98226967Y-7190020D01*
X98819413Y-5788408D01*
X98830388Y-4266768D01*
X98258221Y-2856757D01*
X98226967Y-2809980D01*
X97734098Y-2442678D01*
X95176777Y-5000000D01*
X94823223Y-5000000D01*
X92265902Y-2442678D01*
X91773033Y-2809980D01*
X91180587Y-4211592D01*
X91169612Y-5733232D01*
X89343892Y-5733232D01*
X88160330Y-4549670D01*
X87917013Y-4387090D01*
X87630000Y-4330000D01*
X66739613Y-4330000D01*
X66621374Y-4211554D01*
X66244780Y-4055178D01*
X65837009Y-4054822D01*
X65460143Y-4210541D01*
X65340475Y-4330000D01*
X40069613Y-4330000D01*
X39951374Y-4211554D01*
X39574780Y-4055178D01*
X39167009Y-4054822D01*
X38790143Y-4210541D01*
X38670475Y-4330000D01*
X29427244Y-4330000D01*
X29427244Y-4230000D01*
X29383663Y-3998389D01*
X29246781Y-3785668D01*
X29037924Y-3642962D01*
X28790000Y-3592756D01*
X28565937Y-3592756D01*
X28470330Y-3449670D01*
X27665330Y-2644670D01*
X27422013Y-2482090D01*
X27135000Y-2425000D01*
X16510000Y-2425000D01*
X16222987Y-2482090D01*
X15979670Y-2644670D01*
X14074670Y-4549670D01*
X13912090Y-4792987D01*
X13855000Y-5080000D01*
X13855000Y-9901069D01*
X13539780Y-9770178D01*
X13132009Y-9769822D01*
X12755143Y-9925541D01*
X12466554Y-10213626D01*
X12310178Y-10590220D01*
X12309822Y-10997991D01*
X12465541Y-11374857D01*
X12753626Y-11663446D01*
X13130220Y-11819822D01*
X13537991Y-11820178D01*
X13855000Y-11689192D01*
X13855000Y-16834340D01*
X8219372Y-22469968D01*
X8052009Y-22469822D01*
X7675143Y-22625541D01*
X7386554Y-22913626D01*
X7230178Y-23290220D01*
X7229822Y-23697991D01*
X7385541Y-24074857D01*
X7673626Y-24363446D01*
X8050220Y-24519822D01*
X8457991Y-24520178D01*
X8834857Y-24364459D01*
X9123446Y-24076374D01*
X9279822Y-23699780D01*
X9279970Y-23530690D01*
X15135330Y-17675330D01*
X15297910Y-17432013D01*
X15355000Y-17145000D01*
X15355000Y-7973373D01*
X16347946Y-7973373D01*
X16592185Y-8494497D01*
X17017258Y-8882487D01*
X17426628Y-9052045D01*
X17655000Y-8932812D01*
X17655000Y-7745000D01*
X16466547Y-7745000D01*
X16347946Y-7973373D01*
X15355000Y-7973373D01*
X15355000Y-5433373D01*
X16347946Y-5433373D01*
X16592185Y-5954497D01*
X17017258Y-6342487D01*
X17035397Y-6350000D01*
X17017258Y-6357513D01*
X16592185Y-6745503D01*
X16347946Y-7266627D01*
X16466547Y-7495000D01*
X17655000Y-7495000D01*
X17655000Y-5205000D01*
X16466547Y-5205000D01*
X16347946Y-5433373D01*
X15355000Y-5433373D01*
X15355000Y-5390660D01*
X16820660Y-3925000D01*
X16899498Y-3925000D01*
X16592185Y-4205503D01*
X16347946Y-4726627D01*
X16466547Y-4955000D01*
X17655000Y-4955000D01*
X17655000Y-4935000D01*
X17905000Y-4935000D01*
X17905000Y-4955000D01*
X17925000Y-4955000D01*
X17925000Y-5205000D01*
X17905000Y-5205000D01*
X17905000Y-7495000D01*
X17925000Y-7495000D01*
X17925000Y-7745000D01*
X17905000Y-7745000D01*
X17905000Y-8932812D01*
X18133372Y-9052045D01*
X18300000Y-8983029D01*
X18300000Y-17469340D01*
X12664372Y-23104968D01*
X12497009Y-23104822D01*
X12120143Y-23260541D01*
X11831554Y-23548626D01*
X11675178Y-23925220D01*
X11674822Y-24332991D01*
X11805808Y-24650000D01*
X7617644Y-24650000D01*
X7421880Y-24357017D01*
X6943355Y-24037278D01*
X6378897Y-23925000D01*
X6321103Y-23925000D01*
X5756645Y-24037278D01*
X5278120Y-24357017D01*
X5264708Y-24377089D01*
X5253663Y-24318389D01*
X5116781Y-24105668D01*
X4907924Y-23962962D01*
X4660000Y-23912756D01*
X2960000Y-23912756D01*
X2728389Y-23956337D01*
X2515668Y-24093219D01*
X2372962Y-24302076D01*
X2322756Y-24550000D01*
X2322756Y-26250000D01*
X2366337Y-26481611D01*
X2503219Y-26694332D01*
X2712076Y-26837038D01*
X2800950Y-26855035D01*
X2738120Y-26897017D01*
X2418381Y-27375542D01*
X2306103Y-27940000D01*
X700000Y-27940000D01*
X700000Y-11019107D01*
X9157670Y-11019107D01*
X9235253Y-11265247D01*
X9777655Y-11461592D01*
X10353907Y-11435423D01*
X10764747Y-11265247D01*
X10842330Y-11019107D01*
X10000000Y-10176777D01*
X9157670Y-11019107D01*
X700000Y-11019107D01*
X700000Y-9777655D01*
X8538408Y-9777655D01*
X8564577Y-10353907D01*
X8734753Y-10764747D01*
X8980893Y-10842330D01*
X9823223Y-10000000D01*
X10176777Y-10000000D01*
X11019107Y-10842330D01*
X11265247Y-10764747D01*
X11461592Y-10222345D01*
X11435423Y-9646093D01*
X11265247Y-9235253D01*
X11019107Y-9157670D01*
X10176777Y-10000000D01*
X9823223Y-10000000D01*
X8980893Y-9157670D01*
X8734753Y-9235253D01*
X8538408Y-9777655D01*
X700000Y-9777655D01*
X700000Y-8980893D01*
X9157670Y-8980893D01*
X10000000Y-9823223D01*
X10842330Y-8980893D01*
X10764747Y-8734753D01*
X10222345Y-8538408D01*
X9646093Y-8564577D01*
X9235253Y-8734753D01*
X9157670Y-8980893D01*
X700000Y-8980893D01*
X700000Y-7734098D01*
X2442678Y-7734098D01*
X2809980Y-8226967D01*
X4211592Y-8819413D01*
X5733232Y-8830388D01*
X7143243Y-8258221D01*
X7190020Y-8226967D01*
X7557322Y-7734098D01*
X5000000Y-5176777D01*
X2442678Y-7734098D01*
X700000Y-7734098D01*
X700000Y-5733232D01*
X1169612Y-5733232D01*
X1741779Y-7143243D01*
X1773033Y-7190020D01*
X2265902Y-7557322D01*
X4823223Y-5000000D01*
X5176777Y-5000000D01*
X7734098Y-7557322D01*
X8226967Y-7190020D01*
X8819413Y-5788408D01*
X8830388Y-4266768D01*
X8258221Y-2856757D01*
X8226967Y-2809980D01*
X7734098Y-2442678D01*
X5176777Y-5000000D01*
X4823223Y-5000000D01*
X2265902Y-2442678D01*
X1773033Y-2809980D01*
X1180587Y-4211592D01*
X1169612Y-5733232D01*
X700000Y-5733232D01*
X700000Y-5068945D01*
X1039988Y-3359709D01*
X1770846Y-2265902D01*
X2442678Y-2265902D01*
X5000000Y-4823223D01*
X7557322Y-2265902D01*
X92442678Y-2265902D01*
X95000000Y-4823223D01*
X97557322Y-2265902D01*
X97190020Y-1773033D01*
X95788408Y-1180587D01*
X94266768Y-1169612D01*
X92856757Y-1741779D01*
X92809980Y-1773033D01*
X92442678Y-2265902D01*
X7557322Y-2265902D01*
X7190020Y-1773033D01*
X5788408Y-1180587D01*
X4266768Y-1169612D01*
X2856757Y-1741779D01*
X2809980Y-1773033D01*
X2442678Y-2265902D01*
X1770846Y-2265902D01*
X1969138Y-1969138D01*
X3359709Y-1039988D01*
X5068945Y-700000D01*
X94931055Y-700000D01*
X96640291Y-1039988D01*
X96640291Y-1039988D01*
G37*
X96640291Y-1039988D02*
X98030862Y-1969138D01*
X98960012Y-3359709D01*
X99300000Y-5068945D01*
X99300000Y-94931055D01*
X98960012Y-96640291D01*
X98030862Y-98030862D01*
X96640291Y-98960012D01*
X94931055Y-99300000D01*
X5068945Y-99300000D01*
X3359709Y-98960012D01*
X1969138Y-98030862D01*
X1770847Y-97734098D01*
X2442678Y-97734098D01*
X2809980Y-98226967D01*
X4211592Y-98819413D01*
X5733232Y-98830388D01*
X7143243Y-98258221D01*
X7190020Y-98226967D01*
X7557322Y-97734098D01*
X5000000Y-95176777D01*
X2442678Y-97734098D01*
X1770847Y-97734098D01*
X1039988Y-96640291D01*
X859563Y-95733232D01*
X1169612Y-95733232D01*
X1741779Y-97143243D01*
X1773033Y-97190020D01*
X2265902Y-97557322D01*
X4823223Y-95000000D01*
X5176777Y-95000000D01*
X7734098Y-97557322D01*
X8226967Y-97190020D01*
X8819413Y-95788408D01*
X8830388Y-94266768D01*
X8258221Y-92856757D01*
X8226967Y-92809980D01*
X7734098Y-92442678D01*
X5176777Y-95000000D01*
X4823223Y-95000000D01*
X2265902Y-92442678D01*
X1773033Y-92809980D01*
X1180587Y-94211592D01*
X1169612Y-95733232D01*
X859563Y-95733232D01*
X700000Y-94931055D01*
X700000Y-92265902D01*
X2442678Y-92265902D01*
X5000000Y-94823223D01*
X7557322Y-92265902D01*
X7190020Y-91773033D01*
X5788408Y-91180587D01*
X4266768Y-91169612D01*
X2856757Y-91741779D01*
X2809980Y-91773033D01*
X2442678Y-92265902D01*
X700000Y-92265902D01*
X700000Y-74013372D01*
X2377955Y-74013372D01*
X2547513Y-74422742D01*
X2935503Y-74847815D01*
X3456627Y-75092054D01*
X3685000Y-74973453D01*
X3685000Y-73785000D01*
X3935000Y-73785000D01*
X3935000Y-74973453D01*
X4163373Y-75092054D01*
X4684497Y-74847815D01*
X5072487Y-74422742D01*
X5080000Y-74404603D01*
X5087513Y-74422742D01*
X5475503Y-74847815D01*
X5996627Y-75092054D01*
X6225000Y-74973453D01*
X6225000Y-73785000D01*
X3935000Y-73785000D01*
X3685000Y-73785000D01*
X2497188Y-73785000D01*
X2377955Y-74013372D01*
X700000Y-74013372D01*
X700000Y-27940000D01*
X2306103Y-27940000D01*
X2418381Y-28504458D01*
X2738120Y-28982983D01*
X3077876Y-29210000D01*
X2738120Y-29437017D01*
X2418381Y-29915542D01*
X2306103Y-30480000D01*
X2418381Y-31044458D01*
X2738120Y-31522983D01*
X3077876Y-31750000D01*
X2738120Y-31977017D01*
X2418381Y-32455542D01*
X2306103Y-33020000D01*
X2418381Y-33584458D01*
X2738120Y-34062983D01*
X3077876Y-34290000D01*
X2738120Y-34517017D01*
X2418381Y-34995542D01*
X2306103Y-35560000D01*
X2418381Y-36124458D01*
X2738120Y-36602983D01*
X3077876Y-36830000D01*
X2738120Y-37057017D01*
X2418381Y-37535542D01*
X2306103Y-38100000D01*
X2418381Y-38664458D01*
X2738120Y-39142983D01*
X3077876Y-39370000D01*
X2738120Y-39597017D01*
X2418381Y-40075542D01*
X2306103Y-40640000D01*
X2418381Y-41204458D01*
X2738120Y-41682983D01*
X3077876Y-41910000D01*
X2738120Y-42137017D01*
X2418381Y-42615542D01*
X2306103Y-43180000D01*
X2418381Y-43744458D01*
X2738120Y-44222983D01*
X3077876Y-44450000D01*
X2738120Y-44677017D01*
X2418381Y-45155542D01*
X2306103Y-45720000D01*
X2418381Y-46284458D01*
X2738120Y-46762983D01*
X3077876Y-46990000D01*
X2738120Y-47217017D01*
X2418381Y-47695542D01*
X2306103Y-48260000D01*
X2418381Y-48824458D01*
X2738120Y-49302983D01*
X3077876Y-49530000D01*
X2738120Y-49757017D01*
X2418381Y-50235542D01*
X2306103Y-50800000D01*
X2418381Y-51364458D01*
X2738120Y-51842983D01*
X3077876Y-52070000D01*
X2738120Y-52297017D01*
X2418381Y-52775542D01*
X2306103Y-53340000D01*
X2418381Y-53904458D01*
X2738120Y-54382983D01*
X3077876Y-54610000D01*
X2738120Y-54837017D01*
X2418381Y-55315542D01*
X2306103Y-55880000D01*
X2418381Y-56444458D01*
X2738120Y-56922983D01*
X3077876Y-57150000D01*
X2738120Y-57377017D01*
X2418381Y-57855542D01*
X2306103Y-58420000D01*
X2418381Y-58984458D01*
X2738120Y-59462983D01*
X3077876Y-59690000D01*
X2738120Y-59917017D01*
X2418381Y-60395542D01*
X2306103Y-60960000D01*
X2418381Y-61524458D01*
X2738120Y-62002983D01*
X3077876Y-62230000D01*
X2738120Y-62457017D01*
X2418381Y-62935542D01*
X2306103Y-63500000D01*
X2418381Y-64064458D01*
X2738120Y-64542983D01*
X3077876Y-64770000D01*
X2738120Y-64997017D01*
X2418381Y-65475542D01*
X2306103Y-66040000D01*
X2418381Y-66604458D01*
X2738120Y-67082983D01*
X3077876Y-67310000D01*
X2738120Y-67537017D01*
X2418381Y-68015542D01*
X2306103Y-68580000D01*
X2418381Y-69144458D01*
X2738120Y-69622983D01*
X3077876Y-69850000D01*
X2738120Y-70077017D01*
X2418381Y-70555542D01*
X2306103Y-71120000D01*
X2418381Y-71684458D01*
X2738120Y-72162983D01*
X3091473Y-72399085D01*
X2935503Y-72472185D01*
X2547513Y-72897258D01*
X2377955Y-73306628D01*
X2497188Y-73535000D01*
X3685000Y-73535000D01*
X3685000Y-73515000D01*
X3935000Y-73515000D01*
X3935000Y-73535000D01*
X6225000Y-73535000D01*
X6225000Y-73515000D01*
X6475000Y-73515000D01*
X6475000Y-73535000D01*
X6495000Y-73535000D01*
X6495000Y-73785000D01*
X6475000Y-73785000D01*
X6475000Y-74973453D01*
X6703373Y-75092054D01*
X7224497Y-74847815D01*
X7612487Y-74422742D01*
X7636232Y-74365414D01*
X7773611Y-74503033D01*
X8150205Y-74659409D01*
X8557976Y-74659765D01*
X8934842Y-74504046D01*
X9054510Y-74384587D01*
X12240929Y-74384587D01*
X12425649Y-74569307D01*
X12120143Y-74695541D01*
X11831554Y-74983626D01*
X11675178Y-75360220D01*
X11674822Y-75767991D01*
X11830541Y-76144857D01*
X11950000Y-76264525D01*
X11950000Y-79064340D01*
X7089670Y-83924670D01*
X6927090Y-84167987D01*
X6870000Y-84455000D01*
X6870000Y-88200387D01*
X6751554Y-88318626D01*
X6595178Y-88695220D01*
X6594822Y-89102991D01*
X6750541Y-89479857D01*
X6870000Y-89599525D01*
X6870000Y-90170000D01*
X6927090Y-90457013D01*
X7089670Y-90700330D01*
X13439670Y-97050330D01*
X13682987Y-97212910D01*
X13970000Y-97270000D01*
X33590387Y-97270000D01*
X33708626Y-97388446D01*
X34085220Y-97544822D01*
X34492991Y-97545178D01*
X34869857Y-97389459D01*
X34989525Y-97270000D01*
X60260387Y-97270000D01*
X60378626Y-97388446D01*
X60755220Y-97544822D01*
X61162991Y-97545178D01*
X61539857Y-97389459D01*
X61659525Y-97270000D01*
X69632756Y-97270000D01*
X69632756Y-97370000D01*
X69676337Y-97601611D01*
X69813219Y-97814332D01*
X70022076Y-97957038D01*
X70270000Y-98007244D01*
X71546584Y-98007244D01*
X71859670Y-98320330D01*
X72102987Y-98482910D01*
X72390000Y-98540000D01*
X81823002Y-98540000D01*
X82110015Y-98482910D01*
X82353332Y-98320330D01*
X82939564Y-97734098D01*
X92442678Y-97734098D01*
X92809980Y-98226967D01*
X94211592Y-98819413D01*
X95733232Y-98830388D01*
X97143243Y-98258221D01*
X97190020Y-98226967D01*
X97557322Y-97734098D01*
X95000000Y-95176777D01*
X92442678Y-97734098D01*
X82939564Y-97734098D01*
X84940430Y-95733232D01*
X91169612Y-95733232D01*
X91741779Y-97143243D01*
X91773033Y-97190020D01*
X92265902Y-97557322D01*
X94823223Y-95000000D01*
X95176777Y-95000000D01*
X97734098Y-97557322D01*
X98226967Y-97190020D01*
X98819413Y-95788408D01*
X98830388Y-94266768D01*
X98258221Y-92856757D01*
X98226967Y-92809980D01*
X97734098Y-92442678D01*
X95176777Y-95000000D01*
X94823223Y-95000000D01*
X92265902Y-92442678D01*
X91773033Y-92809980D01*
X91180587Y-94211592D01*
X91169612Y-95733232D01*
X84940430Y-95733232D01*
X86670660Y-94003002D01*
X88991998Y-94003002D01*
X89279011Y-93945912D01*
X89522328Y-93783332D01*
X91039758Y-92265902D01*
X92442678Y-92265902D01*
X95000000Y-94823223D01*
X97557322Y-92265902D01*
X97190020Y-91773033D01*
X95788408Y-91180587D01*
X94266768Y-91169612D01*
X92856757Y-91741779D01*
X92809980Y-91773033D01*
X92442678Y-92265902D01*
X91039758Y-92265902D01*
X94015331Y-89290329D01*
X94112556Y-89144822D01*
X94177911Y-89047012D01*
X94235001Y-88759999D01*
X94235001Y-79515001D01*
X94177911Y-79227988D01*
X94015331Y-78984671D01*
X92465032Y-77434372D01*
X92465178Y-77267009D01*
X92309459Y-76890143D01*
X92021374Y-76601554D01*
X91644780Y-76445178D01*
X91237009Y-76444822D01*
X90860143Y-76600541D01*
X90571554Y-76888626D01*
X90415178Y-77265220D01*
X90414822Y-77672991D01*
X90570541Y-78049857D01*
X90858626Y-78338446D01*
X91235220Y-78494822D01*
X91404310Y-78494970D01*
X92735001Y-79825661D01*
X92735001Y-86605021D01*
X92507009Y-86604822D01*
X92130143Y-86760541D01*
X92010475Y-86880000D01*
X84923540Y-86880000D01*
X87525330Y-84278210D01*
X87598979Y-84167987D01*
X87687910Y-84034893D01*
X87745000Y-83747880D01*
X87745000Y-78169613D01*
X87863446Y-78051374D01*
X88019822Y-77674780D01*
X88020178Y-77267009D01*
X87864459Y-76890143D01*
X87576374Y-76601554D01*
X87199780Y-76445178D01*
X86792009Y-76444822D01*
X86415143Y-76600541D01*
X86126554Y-76888626D01*
X85970178Y-77265220D01*
X85969822Y-77672991D01*
X86125541Y-78049857D01*
X86245000Y-78169525D01*
X86245000Y-83437220D01*
X78209670Y-91472550D01*
X78047090Y-91715867D01*
X77990000Y-92002880D01*
X77990000Y-92712356D01*
X77697017Y-92908120D01*
X77470000Y-93247876D01*
X77242983Y-92908120D01*
X76950000Y-92712356D01*
X76950000Y-91440000D01*
X76892910Y-91152987D01*
X76730330Y-90909670D01*
X72920330Y-87099670D01*
X72677013Y-86937090D01*
X72390000Y-86880000D01*
X66739613Y-86880000D01*
X66621374Y-86761554D01*
X66244780Y-86605178D01*
X65837009Y-86604822D01*
X65460143Y-86760541D01*
X65171554Y-87048626D01*
X65015178Y-87425220D01*
X65014822Y-87832991D01*
X65170541Y-88209857D01*
X65458626Y-88498446D01*
X65835220Y-88654822D01*
X66242991Y-88655178D01*
X66619857Y-88499459D01*
X66739525Y-88380000D01*
X72079340Y-88380000D01*
X75450000Y-91750660D01*
X75450000Y-92712356D01*
X75393660Y-92750000D01*
X74188330Y-91544670D01*
X73945013Y-91382090D01*
X73658000Y-91325000D01*
X63950491Y-91325000D01*
X64094747Y-91265247D01*
X64172330Y-91019107D01*
X63330000Y-90176777D01*
X62487670Y-91019107D01*
X62565253Y-91265247D01*
X62730320Y-91325000D01*
X44125660Y-91325000D01*
X42578315Y-89777655D01*
X61868408Y-89777655D01*
X61894577Y-90353907D01*
X62064753Y-90764747D01*
X62310893Y-90842330D01*
X63153223Y-90000000D01*
X63506777Y-90000000D01*
X64349107Y-90842330D01*
X64595247Y-90764747D01*
X64791592Y-90222345D01*
X64765423Y-89646093D01*
X64595247Y-89235253D01*
X64349107Y-89157670D01*
X63506777Y-90000000D01*
X63153223Y-90000000D01*
X62310893Y-89157670D01*
X62064753Y-89235253D01*
X61868408Y-89777655D01*
X42578315Y-89777655D01*
X41781553Y-88980893D01*
X62487670Y-88980893D01*
X63330000Y-89823223D01*
X64172330Y-88980893D01*
X64094747Y-88734753D01*
X63552345Y-88538408D01*
X62976093Y-88564577D01*
X62565253Y-88734753D01*
X62487670Y-88980893D01*
X41781553Y-88980893D01*
X40395032Y-87594372D01*
X40395178Y-87427009D01*
X40239459Y-87050143D01*
X39951374Y-86761554D01*
X39574780Y-86605178D01*
X39167009Y-86604822D01*
X38790143Y-86760541D01*
X38501554Y-87048626D01*
X38345178Y-87425220D01*
X38344822Y-87832991D01*
X38500541Y-88209857D01*
X38788626Y-88498446D01*
X39165220Y-88654822D01*
X39334310Y-88654970D01*
X42684339Y-92004999D01*
X21310659Y-92004999D01*
X20324767Y-91019107D01*
X35827670Y-91019107D01*
X35905253Y-91265247D01*
X36447655Y-91461592D01*
X37023907Y-91435423D01*
X37434747Y-91265247D01*
X37512330Y-91019107D01*
X36670000Y-90176777D01*
X35827670Y-91019107D01*
X20324767Y-91019107D01*
X19083315Y-89777655D01*
X35208408Y-89777655D01*
X35234577Y-90353907D01*
X35404753Y-90764747D01*
X35650893Y-90842330D01*
X36493223Y-90000000D01*
X36846777Y-90000000D01*
X37689107Y-90842330D01*
X37935247Y-90764747D01*
X38131592Y-90222345D01*
X38105423Y-89646093D01*
X37935247Y-89235253D01*
X37689107Y-89157670D01*
X36846777Y-90000000D01*
X36493223Y-90000000D01*
X35650893Y-89157670D01*
X35404753Y-89235253D01*
X35208408Y-89777655D01*
X19083315Y-89777655D01*
X18286553Y-88980893D01*
X35827670Y-88980893D01*
X36670000Y-89823223D01*
X37512330Y-88980893D01*
X37434747Y-88734753D01*
X36892345Y-88538408D01*
X36316093Y-88564577D01*
X35905253Y-88734753D01*
X35827670Y-88980893D01*
X18286553Y-88980893D01*
X17535032Y-88229372D01*
X17535178Y-88062009D01*
X17379459Y-87685143D01*
X17091374Y-87396554D01*
X16714780Y-87240178D01*
X16307009Y-87239822D01*
X15990000Y-87370808D01*
X15990000Y-78874681D01*
X33612760Y-78874681D01*
X33823473Y-79384646D01*
X34213302Y-79775156D01*
X34722898Y-79986759D01*
X35274681Y-79987240D01*
X35784646Y-79776527D01*
X36175156Y-79386698D01*
X36386759Y-78877102D01*
X36387240Y-78325319D01*
X36176527Y-77815354D01*
X35786698Y-77424844D01*
X35277102Y-77213241D01*
X34725319Y-77212760D01*
X34215354Y-77423473D01*
X33824844Y-77813302D01*
X33613241Y-78322898D01*
X33612760Y-78874681D01*
X15990000Y-78874681D01*
X15990000Y-76322998D01*
X15932910Y-76035985D01*
X15770330Y-75792668D01*
X13081919Y-73104257D01*
X13068066Y-73095001D01*
X26805101Y-73095001D01*
X30440430Y-76730330D01*
X30683747Y-76892910D01*
X30970760Y-76950000D01*
X42289340Y-76950000D01*
X43627617Y-78288277D01*
X43613241Y-78322898D01*
X43612760Y-78874681D01*
X43823473Y-79384646D01*
X44213302Y-79775156D01*
X44722898Y-79986759D01*
X45274681Y-79987240D01*
X45784646Y-79776527D01*
X46175156Y-79386698D01*
X46386759Y-78877102D01*
X46387240Y-78325319D01*
X46176527Y-77815354D01*
X45786698Y-77424844D01*
X45277102Y-77213241D01*
X44725319Y-77212760D01*
X44688594Y-77227934D01*
X43130330Y-75669670D01*
X43039608Y-75609052D01*
X43817523Y-74831137D01*
X43990076Y-74949038D01*
X44238000Y-74999244D01*
X45762000Y-74999244D01*
X45993611Y-74955663D01*
X46206332Y-74818781D01*
X46349038Y-74609924D01*
X46399244Y-74362000D01*
X46399244Y-72838000D01*
X46355663Y-72606389D01*
X46218781Y-72393668D01*
X46009924Y-72250962D01*
X45762000Y-72200756D01*
X44238000Y-72200756D01*
X44006389Y-72244337D01*
X43793668Y-72381219D01*
X43650962Y-72590076D01*
X43600756Y-72838000D01*
X43600756Y-72974063D01*
X43482300Y-73053213D01*
X43457670Y-73069670D01*
X41712340Y-74815000D01*
X36208915Y-74815000D01*
X36349038Y-74609924D01*
X36399244Y-74362000D01*
X36399244Y-72838000D01*
X36355663Y-72606389D01*
X36218781Y-72393668D01*
X36009924Y-72250962D01*
X35762000Y-72200756D01*
X34238000Y-72200756D01*
X34006389Y-72244337D01*
X33793668Y-72381219D01*
X33650962Y-72590076D01*
X33600756Y-72838000D01*
X33600756Y-72850000D01*
X30095660Y-72850000D01*
X27420341Y-70174681D01*
X28612760Y-70174681D01*
X28823473Y-70684646D01*
X29213302Y-71075156D01*
X29722898Y-71286759D01*
X30274681Y-71287240D01*
X30784646Y-71076527D01*
X31175156Y-70686698D01*
X31386759Y-70177102D01*
X31387240Y-69625319D01*
X31176527Y-69115354D01*
X30786698Y-68724844D01*
X30277102Y-68513241D01*
X29725319Y-68512760D01*
X29215354Y-68723473D01*
X28824844Y-69113302D01*
X28613241Y-69622898D01*
X28612760Y-70174681D01*
X27420341Y-70174681D01*
X25350659Y-68104999D01*
X37144339Y-68104999D01*
X38627617Y-69588277D01*
X38613241Y-69622898D01*
X38612760Y-70174681D01*
X38823473Y-70684646D01*
X39213302Y-71075156D01*
X39722898Y-71286759D01*
X40274681Y-71287240D01*
X40784646Y-71076527D01*
X41175156Y-70686698D01*
X41386759Y-70177102D01*
X41387240Y-69625319D01*
X41185885Y-69138000D01*
X48600756Y-69138000D01*
X48600756Y-70662000D01*
X48644337Y-70893611D01*
X48781219Y-71106332D01*
X48990076Y-71249038D01*
X49238000Y-71299244D01*
X50762000Y-71299244D01*
X50993611Y-71255663D01*
X51206332Y-71118781D01*
X51349038Y-70909924D01*
X51399244Y-70662000D01*
X51399244Y-70525937D01*
X51542330Y-70430330D01*
X53777670Y-68194990D01*
X61656350Y-68194990D01*
X61182477Y-68668863D01*
X61009924Y-68550962D01*
X60762000Y-68500756D01*
X59238000Y-68500756D01*
X59006389Y-68544337D01*
X58793668Y-68681219D01*
X58650962Y-68890076D01*
X58600756Y-69138000D01*
X58600756Y-70662000D01*
X58644337Y-70893611D01*
X58781219Y-71106332D01*
X58990076Y-71249038D01*
X59238000Y-71299244D01*
X60762000Y-71299244D01*
X60993611Y-71255663D01*
X61206332Y-71118781D01*
X61349038Y-70909924D01*
X61399244Y-70662000D01*
X61399244Y-70525937D01*
X61542330Y-70430330D01*
X63277660Y-68695000D01*
X68784252Y-68695000D01*
X68650962Y-68890076D01*
X68600756Y-69138000D01*
X68600756Y-70662000D01*
X68644337Y-70893611D01*
X68781219Y-71106332D01*
X68990076Y-71249038D01*
X69238000Y-71299244D01*
X70762000Y-71299244D01*
X70993611Y-71255663D01*
X71206332Y-71118781D01*
X71349038Y-70909924D01*
X71399244Y-70662000D01*
X71399244Y-70650000D01*
X73610000Y-70650000D01*
X73897013Y-70592910D01*
X74140330Y-70430330D01*
X77780660Y-66790000D01*
X79342317Y-66790000D01*
X79290431Y-66824669D01*
X71300100Y-74815000D01*
X65691534Y-74815000D01*
X65784646Y-74776527D01*
X66175156Y-74386698D01*
X66386759Y-73877102D01*
X66387240Y-73325319D01*
X66176527Y-72815354D01*
X65786698Y-72424844D01*
X65277102Y-72213241D01*
X64725319Y-72212760D01*
X64215354Y-72423473D01*
X63824844Y-72813302D01*
X63613241Y-73322898D01*
X63612760Y-73874681D01*
X63823473Y-74384646D01*
X64213302Y-74775156D01*
X64309257Y-74815000D01*
X57275660Y-74815000D01*
X56372383Y-73911723D01*
X56386759Y-73877102D01*
X56387240Y-73325319D01*
X56176527Y-72815354D01*
X55786698Y-72424844D01*
X55277102Y-72213241D01*
X54725319Y-72212760D01*
X54215354Y-72423473D01*
X53824844Y-72813302D01*
X53613241Y-73322898D01*
X53612760Y-73874681D01*
X53823473Y-74384646D01*
X54213302Y-74775156D01*
X54722898Y-74986759D01*
X55274681Y-74987240D01*
X55311406Y-74972066D01*
X56434670Y-76095330D01*
X56677987Y-76257910D01*
X56965000Y-76315000D01*
X57236340Y-76315000D01*
X56182477Y-77368863D01*
X56009924Y-77250962D01*
X55762000Y-77200756D01*
X54238000Y-77200756D01*
X54006389Y-77244337D01*
X53793668Y-77381219D01*
X53650962Y-77590076D01*
X53600756Y-77838000D01*
X53600756Y-79362000D01*
X53644337Y-79593611D01*
X53781219Y-79806332D01*
X53990076Y-79949038D01*
X54238000Y-79999244D01*
X55762000Y-79999244D01*
X55993611Y-79955663D01*
X56206332Y-79818781D01*
X56349038Y-79609924D01*
X56399244Y-79362000D01*
X56399244Y-79225937D01*
X56542330Y-79130330D01*
X58722660Y-76950000D01*
X70579340Y-76950000D01*
X69679340Y-77850000D01*
X66399244Y-77850000D01*
X66399244Y-77838000D01*
X66355663Y-77606389D01*
X66218781Y-77393668D01*
X66009924Y-77250962D01*
X65762000Y-77200756D01*
X64238000Y-77200756D01*
X64006389Y-77244337D01*
X63793668Y-77381219D01*
X63650962Y-77590076D01*
X63600756Y-77838000D01*
X63600756Y-79362000D01*
X63644337Y-79593611D01*
X63781219Y-79806332D01*
X63990076Y-79949038D01*
X64238000Y-79999244D01*
X65762000Y-79999244D01*
X65993611Y-79955663D01*
X66206332Y-79818781D01*
X66349038Y-79609924D01*
X66399244Y-79362000D01*
X66399244Y-79350000D01*
X69990000Y-79350000D01*
X70277013Y-79292910D01*
X70520330Y-79130330D01*
X75637288Y-74013372D01*
X92547955Y-74013372D01*
X92717513Y-74422742D01*
X93105503Y-74847815D01*
X93626627Y-75092054D01*
X93855000Y-74973453D01*
X93855000Y-73785000D01*
X94105000Y-73785000D01*
X94105000Y-74973453D01*
X94333373Y-75092054D01*
X94854497Y-74847815D01*
X95242487Y-74422742D01*
X95250000Y-74404603D01*
X95257513Y-74422742D01*
X95645503Y-74847815D01*
X96166627Y-75092054D01*
X96395000Y-74973453D01*
X96395000Y-73785000D01*
X96645000Y-73785000D01*
X96645000Y-74973453D01*
X96873373Y-75092054D01*
X97394497Y-74847815D01*
X97782487Y-74422742D01*
X97952045Y-74013372D01*
X97832812Y-73785000D01*
X96645000Y-73785000D01*
X96395000Y-73785000D01*
X94105000Y-73785000D01*
X93855000Y-73785000D01*
X92667188Y-73785000D01*
X92547955Y-74013372D01*
X75637288Y-74013372D01*
X77780660Y-71870000D01*
X92712356Y-71870000D01*
X92908120Y-72162983D01*
X93261473Y-72399085D01*
X93105503Y-72472185D01*
X92717513Y-72897258D01*
X92547955Y-73306628D01*
X92667188Y-73535000D01*
X93855000Y-73535000D01*
X93855000Y-73515000D01*
X94105000Y-73515000D01*
X94105000Y-73535000D01*
X96395000Y-73535000D01*
X96395000Y-73515000D01*
X96645000Y-73515000D01*
X96645000Y-73535000D01*
X97832812Y-73535000D01*
X97952045Y-73306628D01*
X97782487Y-72897258D01*
X97394497Y-72472185D01*
X97238527Y-72399085D01*
X97591880Y-72162983D01*
X97911619Y-71684458D01*
X98023897Y-71120000D01*
X97911619Y-70555542D01*
X97591880Y-70077017D01*
X97252124Y-69850000D01*
X97591880Y-69622983D01*
X97911619Y-69144458D01*
X98023897Y-68580000D01*
X97911619Y-68015542D01*
X97591880Y-67537017D01*
X97252124Y-67310000D01*
X97591880Y-67082983D01*
X97911619Y-66604458D01*
X98023897Y-66040000D01*
X97911619Y-65475542D01*
X97591880Y-64997017D01*
X97252124Y-64770000D01*
X97591880Y-64542983D01*
X97911619Y-64064458D01*
X98023897Y-63500000D01*
X97911619Y-62935542D01*
X97591880Y-62457017D01*
X97252124Y-62230000D01*
X97591880Y-62002983D01*
X97911619Y-61524458D01*
X98023897Y-60960000D01*
X97911619Y-60395542D01*
X97591880Y-59917017D01*
X97252124Y-59690000D01*
X97591880Y-59462983D01*
X97911619Y-58984458D01*
X98023897Y-58420000D01*
X97911619Y-57855542D01*
X97591880Y-57377017D01*
X97252124Y-57150000D01*
X97591880Y-56922983D01*
X97911619Y-56444458D01*
X98023897Y-55880000D01*
X97911619Y-55315542D01*
X97591880Y-54837017D01*
X97252124Y-54610000D01*
X97591880Y-54382983D01*
X97911619Y-53904458D01*
X98023897Y-53340000D01*
X97911619Y-52775542D01*
X97591880Y-52297017D01*
X97252124Y-52070000D01*
X97591880Y-51842983D01*
X97911619Y-51364458D01*
X98023897Y-50800000D01*
X97911619Y-50235542D01*
X97591880Y-49757017D01*
X97252124Y-49530000D01*
X97591880Y-49302983D01*
X97911619Y-48824458D01*
X98023897Y-48260000D01*
X97911619Y-47695542D01*
X97591880Y-47217017D01*
X97252124Y-46990000D01*
X97591880Y-46762983D01*
X97911619Y-46284458D01*
X98023897Y-45720000D01*
X97911619Y-45155542D01*
X97591880Y-44677017D01*
X97252124Y-44450000D01*
X97591880Y-44222983D01*
X97911619Y-43744458D01*
X98023897Y-43180000D01*
X97911619Y-42615542D01*
X97591880Y-42137017D01*
X97252124Y-41910000D01*
X97591880Y-41682983D01*
X97911619Y-41204458D01*
X98023897Y-40640000D01*
X97911619Y-40075542D01*
X97591880Y-39597017D01*
X97252124Y-39370000D01*
X97591880Y-39142983D01*
X97911619Y-38664458D01*
X98023897Y-38100000D01*
X97911619Y-37535542D01*
X97591880Y-37057017D01*
X97252124Y-36830000D01*
X97591880Y-36602983D01*
X97911619Y-36124458D01*
X98023897Y-35560000D01*
X97911619Y-34995542D01*
X97591880Y-34517017D01*
X97252124Y-34290000D01*
X97591880Y-34062983D01*
X97911619Y-33584458D01*
X98023897Y-33020000D01*
X97911619Y-32455542D01*
X97591880Y-31977017D01*
X97252124Y-31750000D01*
X97591880Y-31522983D01*
X97911619Y-31044458D01*
X98023897Y-30480000D01*
X97911619Y-29915542D01*
X97591880Y-29437017D01*
X97252124Y-29210000D01*
X97591880Y-28982983D01*
X97911619Y-28504458D01*
X98023897Y-27940000D01*
X97911619Y-27375542D01*
X97591880Y-26897017D01*
X97238527Y-26660915D01*
X97394497Y-26587815D01*
X97782487Y-26162742D01*
X97952045Y-25753372D01*
X97832812Y-25525000D01*
X96645000Y-25525000D01*
X96645000Y-25545000D01*
X96395000Y-25545000D01*
X96395000Y-25525000D01*
X94105000Y-25525000D01*
X94105000Y-25545000D01*
X93855000Y-25545000D01*
X93855000Y-25525000D01*
X92661250Y-25525000D01*
X92505000Y-25681250D01*
X92505000Y-25964999D01*
X72817779Y-25964999D01*
X69952440Y-23099660D01*
X69709123Y-22937080D01*
X69422110Y-22879990D01*
X57540650Y-22879990D01*
X56372383Y-21711723D01*
X56386759Y-21677102D01*
X56386761Y-21674681D01*
X63612760Y-21674681D01*
X63823473Y-22184646D01*
X64213302Y-22575156D01*
X64722898Y-22786759D01*
X65274681Y-22787240D01*
X65784646Y-22576527D01*
X66175156Y-22186698D01*
X66386759Y-21677102D01*
X66387240Y-21125319D01*
X66176527Y-20615354D01*
X65786698Y-20224844D01*
X65277102Y-20013241D01*
X64725319Y-20012760D01*
X64215354Y-20223473D01*
X63824844Y-20613302D01*
X63613241Y-21122898D01*
X63612760Y-21674681D01*
X56386761Y-21674681D01*
X56387240Y-21125319D01*
X56176527Y-20615354D01*
X55786698Y-20224844D01*
X55277102Y-20013241D01*
X54725319Y-20012760D01*
X54215354Y-20223473D01*
X53824844Y-20613302D01*
X53613241Y-21122898D01*
X53612760Y-21674681D01*
X53823473Y-22184646D01*
X54213302Y-22575156D01*
X54722898Y-22786759D01*
X55274681Y-22787240D01*
X55311406Y-22772066D01*
X56699660Y-24160320D01*
X56942977Y-24322900D01*
X57014261Y-24337079D01*
X56182477Y-25168863D01*
X56009924Y-25050962D01*
X55762000Y-25000756D01*
X54238000Y-25000756D01*
X54006389Y-25044337D01*
X53793668Y-25181219D01*
X53650962Y-25390076D01*
X53600756Y-25638000D01*
X53600756Y-27162000D01*
X53644337Y-27393611D01*
X53781219Y-27606332D01*
X53990076Y-27749038D01*
X54238000Y-27799244D01*
X55762000Y-27799244D01*
X55993611Y-27755663D01*
X56206332Y-27618781D01*
X56349038Y-27409924D01*
X56399244Y-27162000D01*
X56399244Y-27025937D01*
X56542330Y-26930330D01*
X58592660Y-24880000D01*
X68904340Y-24880000D01*
X69674340Y-25650000D01*
X66399244Y-25650000D01*
X66399244Y-25638000D01*
X66355663Y-25406389D01*
X66218781Y-25193668D01*
X66009924Y-25050962D01*
X65762000Y-25000756D01*
X64238000Y-25000756D01*
X64006389Y-25044337D01*
X63793668Y-25181219D01*
X63650962Y-25390076D01*
X63600756Y-25638000D01*
X63600756Y-27162000D01*
X63644337Y-27393611D01*
X63781219Y-27606332D01*
X63990076Y-27749038D01*
X64238000Y-27799244D01*
X65762000Y-27799244D01*
X65993611Y-27755663D01*
X66206332Y-27618781D01*
X66349038Y-27409924D01*
X66399244Y-27162000D01*
X66399244Y-27150000D01*
X69904340Y-27150000D01*
X73764670Y-31010330D01*
X73816556Y-31044999D01*
X71016578Y-31044999D01*
X71175156Y-30886698D01*
X71386759Y-30377102D01*
X71387240Y-29825319D01*
X71176527Y-29315354D01*
X70786698Y-28924844D01*
X70277102Y-28713241D01*
X69725319Y-28712760D01*
X69215354Y-28923473D01*
X68824844Y-29313302D01*
X68613241Y-29822898D01*
X68612760Y-30374681D01*
X68823473Y-30884646D01*
X68983546Y-31044999D01*
X62005659Y-31044999D01*
X61372383Y-30411723D01*
X61386759Y-30377102D01*
X61387240Y-29825319D01*
X61176527Y-29315354D01*
X60786698Y-28924844D01*
X60277102Y-28713241D01*
X59725319Y-28712760D01*
X59215354Y-28923473D01*
X58824844Y-29313302D01*
X58613241Y-29822898D01*
X58612760Y-30374681D01*
X58823473Y-30884646D01*
X59213302Y-31275156D01*
X59722898Y-31486759D01*
X60274681Y-31487240D01*
X60311406Y-31472066D01*
X61164669Y-32325329D01*
X61407986Y-32487909D01*
X61694999Y-32544999D01*
X68542633Y-32544999D01*
X66737632Y-34350000D01*
X61399244Y-34350000D01*
X61399244Y-34338000D01*
X61355663Y-34106389D01*
X61218781Y-33893668D01*
X61009924Y-33750962D01*
X60762000Y-33700756D01*
X59238000Y-33700756D01*
X59006389Y-33744337D01*
X58793668Y-33881219D01*
X58650962Y-34090076D01*
X58600756Y-34338000D01*
X58600756Y-35862000D01*
X58644337Y-36093611D01*
X58781219Y-36306332D01*
X58990076Y-36449038D01*
X59238000Y-36499244D01*
X60762000Y-36499244D01*
X60993611Y-36455663D01*
X61206332Y-36318781D01*
X61349038Y-36109924D01*
X61399244Y-35862000D01*
X61399244Y-35850000D01*
X67048292Y-35850000D01*
X67335305Y-35792910D01*
X67578622Y-35630330D01*
X68600756Y-34608196D01*
X68600756Y-35862000D01*
X68644337Y-36093611D01*
X68781219Y-36306332D01*
X68990076Y-36449038D01*
X69238000Y-36499244D01*
X70762000Y-36499244D01*
X70993611Y-36455663D01*
X71206332Y-36318781D01*
X71349038Y-36109924D01*
X71399244Y-35862000D01*
X71399244Y-35850000D01*
X88910049Y-35850000D01*
X88734753Y-35905253D01*
X88538408Y-36447655D01*
X88564577Y-37023907D01*
X88699650Y-37350000D01*
X88575660Y-37350000D01*
X88269560Y-37043900D01*
X88026243Y-36881320D01*
X87739230Y-36824230D01*
X56225770Y-36824230D01*
X55938758Y-36881319D01*
X55695440Y-37043900D01*
X55311723Y-37427617D01*
X55277102Y-37413241D01*
X54725319Y-37412760D01*
X54215354Y-37623473D01*
X53824844Y-38013302D01*
X53613241Y-38522898D01*
X53612760Y-39074681D01*
X53823473Y-39584646D01*
X54213302Y-39975156D01*
X54722898Y-40186759D01*
X55274681Y-40187240D01*
X55784646Y-39976527D01*
X56175156Y-39586698D01*
X56386759Y-39077102D01*
X56387240Y-38525319D01*
X56372066Y-38488594D01*
X56536430Y-38324230D01*
X63695735Y-38324230D01*
X63613241Y-38522898D01*
X63612760Y-39074681D01*
X63743042Y-39389989D01*
X59672011Y-39389989D01*
X59384998Y-39447079D01*
X59141681Y-39609659D01*
X56182477Y-42568863D01*
X56009924Y-42450962D01*
X55762000Y-42400756D01*
X54238000Y-42400756D01*
X54006389Y-42444337D01*
X53793668Y-42581219D01*
X53650962Y-42790076D01*
X53600756Y-43038000D01*
X53600756Y-44562000D01*
X53644337Y-44793611D01*
X53781219Y-45006332D01*
X53990076Y-45149038D01*
X54238000Y-45199244D01*
X55762000Y-45199244D01*
X55993611Y-45155663D01*
X56206332Y-45018781D01*
X56349038Y-44809924D01*
X56399244Y-44562000D01*
X56399244Y-44425937D01*
X56542330Y-44330330D01*
X59982671Y-40889989D01*
X67861351Y-40889989D01*
X66182477Y-42568863D01*
X66009924Y-42450962D01*
X65762000Y-42400756D01*
X64238000Y-42400756D01*
X64006389Y-42444337D01*
X63793668Y-42581219D01*
X63650962Y-42790076D01*
X63600756Y-43038000D01*
X63600756Y-44562000D01*
X63644337Y-44793611D01*
X63781219Y-45006332D01*
X63990076Y-45149038D01*
X64238000Y-45199244D01*
X65762000Y-45199244D01*
X65993611Y-45155663D01*
X66206332Y-45018781D01*
X66349038Y-44809924D01*
X66399244Y-44562000D01*
X66399244Y-44425937D01*
X66542330Y-44330330D01*
X69482660Y-41390000D01*
X79116069Y-41390000D01*
X78985178Y-41705220D01*
X78984822Y-42112991D01*
X79115808Y-42430000D01*
X75906411Y-42430000D01*
X75762000Y-42400756D01*
X74238000Y-42400756D01*
X74006389Y-42444337D01*
X73793668Y-42581219D01*
X73650962Y-42790076D01*
X73600756Y-43038000D01*
X73600756Y-44562000D01*
X73644337Y-44793611D01*
X73781219Y-45006332D01*
X73990076Y-45149038D01*
X74238000Y-45199244D01*
X75762000Y-45199244D01*
X75993611Y-45155663D01*
X76206332Y-45018781D01*
X76349038Y-44809924D01*
X76399244Y-44562000D01*
X76399244Y-43930000D01*
X79557371Y-43930000D01*
X79505485Y-43964669D01*
X74361548Y-49108606D01*
X62669266Y-49108606D01*
X61372383Y-47811723D01*
X61386759Y-47777102D01*
X61386761Y-47774681D01*
X68612760Y-47774681D01*
X68823473Y-48284646D01*
X69213302Y-48675156D01*
X69722898Y-48886759D01*
X70274681Y-48887240D01*
X70784646Y-48676527D01*
X71175156Y-48286698D01*
X71386759Y-47777102D01*
X71387240Y-47225319D01*
X71176527Y-46715354D01*
X70786698Y-46324844D01*
X70277102Y-46113241D01*
X69725319Y-46112760D01*
X69215354Y-46323473D01*
X68824844Y-46713302D01*
X68613241Y-47222898D01*
X68612760Y-47774681D01*
X61386761Y-47774681D01*
X61387240Y-47225319D01*
X61176527Y-46715354D01*
X60786698Y-46324844D01*
X60277102Y-46113241D01*
X59725319Y-46112760D01*
X59215354Y-46323473D01*
X58824844Y-46713302D01*
X58613241Y-47222898D01*
X58612760Y-47774681D01*
X58823473Y-48284646D01*
X59213302Y-48675156D01*
X59722898Y-48886759D01*
X60274681Y-48887240D01*
X60311406Y-48872066D01*
X61828276Y-50388936D01*
X61968625Y-50482715D01*
X61182477Y-51268863D01*
X61009924Y-51150962D01*
X60762000Y-51100756D01*
X59238000Y-51100756D01*
X59006389Y-51144337D01*
X58793668Y-51281219D01*
X58650962Y-51490076D01*
X58600756Y-51738000D01*
X58600756Y-53262000D01*
X58644337Y-53493611D01*
X58781219Y-53706332D01*
X58990076Y-53849038D01*
X59238000Y-53899244D01*
X60762000Y-53899244D01*
X60993611Y-53855663D01*
X61206332Y-53718781D01*
X61349038Y-53509924D01*
X61399244Y-53262000D01*
X61399244Y-53125937D01*
X61542330Y-53030330D01*
X63464043Y-51108617D01*
X69196223Y-51108617D01*
X69006389Y-51144337D01*
X68793668Y-51281219D01*
X68650962Y-51490076D01*
X68600756Y-51738000D01*
X68600756Y-53262000D01*
X68644337Y-53493611D01*
X68781219Y-53706332D01*
X68990076Y-53849038D01*
X69238000Y-53899244D01*
X70762000Y-53899244D01*
X70993611Y-53855663D01*
X71206332Y-53718781D01*
X71349038Y-53509924D01*
X71399244Y-53262000D01*
X71399244Y-53125937D01*
X71542330Y-53030330D01*
X72958340Y-51614320D01*
X78625802Y-51614320D01*
X78600756Y-51738000D01*
X78600756Y-53262000D01*
X78644337Y-53493611D01*
X78781219Y-53706332D01*
X78990076Y-53849038D01*
X79238000Y-53899244D01*
X80698062Y-53899244D01*
X77292326Y-57304980D01*
X75856318Y-57304980D01*
X76175156Y-56986698D01*
X76386759Y-56477102D01*
X76387240Y-55925319D01*
X76176527Y-55415354D01*
X75786698Y-55024844D01*
X75277102Y-54813241D01*
X74725319Y-54812760D01*
X74215354Y-55023473D01*
X73824844Y-55413302D01*
X73613241Y-55922898D01*
X73612760Y-56474681D01*
X73823473Y-56984646D01*
X74143248Y-57304980D01*
X65856318Y-57304980D01*
X66175156Y-56986698D01*
X66386759Y-56477102D01*
X66387240Y-55925319D01*
X66176527Y-55415354D01*
X65786698Y-55024844D01*
X65277102Y-54813241D01*
X64725319Y-54812760D01*
X64215354Y-55023473D01*
X63824844Y-55413302D01*
X63613241Y-55922898D01*
X63612760Y-56474681D01*
X63823473Y-56984646D01*
X64143248Y-57304980D01*
X57165640Y-57304980D01*
X56372383Y-56511723D01*
X56386759Y-56477102D01*
X56387240Y-55925319D01*
X56176527Y-55415354D01*
X55786698Y-55024844D01*
X55277102Y-54813241D01*
X54725319Y-54812760D01*
X54215354Y-55023473D01*
X53824844Y-55413302D01*
X53613241Y-55922898D01*
X53612760Y-56474681D01*
X53823473Y-56984646D01*
X54213302Y-57375156D01*
X54722898Y-57586759D01*
X55274681Y-57587240D01*
X55311406Y-57572066D01*
X56324650Y-58585310D01*
X56567967Y-58747890D01*
X56854980Y-58804980D01*
X57346360Y-58804980D01*
X56182477Y-59968863D01*
X56009924Y-59850962D01*
X55762000Y-59800756D01*
X54238000Y-59800756D01*
X54006389Y-59844337D01*
X53793668Y-59981219D01*
X53650962Y-60190076D01*
X53600756Y-60438000D01*
X53600756Y-61962000D01*
X53644337Y-62193611D01*
X53781219Y-62406332D01*
X53990076Y-62549038D01*
X54238000Y-62599244D01*
X55762000Y-62599244D01*
X55993611Y-62555663D01*
X56206332Y-62418781D01*
X56349038Y-62209924D01*
X56399244Y-61962000D01*
X56399244Y-61825937D01*
X56542330Y-61730330D01*
X58967670Y-59304990D01*
X66846350Y-59304990D01*
X66182477Y-59968863D01*
X66009924Y-59850962D01*
X65762000Y-59800756D01*
X64238000Y-59800756D01*
X64006389Y-59844337D01*
X63793668Y-59981219D01*
X63650962Y-60190076D01*
X63600756Y-60438000D01*
X63600756Y-61962000D01*
X63644337Y-62193611D01*
X63781219Y-62406332D01*
X63990076Y-62549038D01*
X64238000Y-62599244D01*
X65762000Y-62599244D01*
X65993611Y-62555663D01*
X66206332Y-62418781D01*
X66349038Y-62209924D01*
X66399244Y-61962000D01*
X66399244Y-61825937D01*
X66542330Y-61730330D01*
X68467660Y-59805000D01*
X74215445Y-59805000D01*
X74006389Y-59844337D01*
X73793668Y-59981219D01*
X73650962Y-60190076D01*
X73600756Y-60438000D01*
X73600756Y-61962000D01*
X73644337Y-62193611D01*
X73781219Y-62406332D01*
X73990076Y-62549038D01*
X74238000Y-62599244D01*
X75762000Y-62599244D01*
X75993611Y-62555663D01*
X76206332Y-62418781D01*
X76349038Y-62209924D01*
X76399244Y-61962000D01*
X76399244Y-61950000D01*
X77230000Y-61950000D01*
X77517013Y-61892910D01*
X77760330Y-61730330D01*
X80320660Y-59170000D01*
X80612317Y-59170000D01*
X80560431Y-59204669D01*
X73570120Y-66194980D01*
X70497968Y-66194980D01*
X70784646Y-66076527D01*
X71175156Y-65686698D01*
X71386759Y-65177102D01*
X71387240Y-64625319D01*
X71176527Y-64115354D01*
X70786698Y-63724844D01*
X70277102Y-63513241D01*
X69725319Y-63512760D01*
X69215354Y-63723473D01*
X68824844Y-64113302D01*
X68613241Y-64622898D01*
X68612760Y-65174681D01*
X68823473Y-65684646D01*
X69213302Y-66075156D01*
X69501870Y-66194980D01*
X60497968Y-66194980D01*
X60784646Y-66076527D01*
X61175156Y-65686698D01*
X61386759Y-65177102D01*
X61387240Y-64625319D01*
X61176527Y-64115354D01*
X60786698Y-63724844D01*
X60277102Y-63513241D01*
X59725319Y-63512760D01*
X59215354Y-63723473D01*
X58824844Y-64113302D01*
X58613241Y-64622898D01*
X58612760Y-65174681D01*
X58823473Y-65684646D01*
X59213302Y-66075156D01*
X59501870Y-66194980D01*
X52355640Y-66194980D01*
X51372383Y-65211723D01*
X51386759Y-65177102D01*
X51387240Y-64625319D01*
X51176527Y-64115354D01*
X50786698Y-63724844D01*
X50277102Y-63513241D01*
X49725319Y-63512760D01*
X49215354Y-63723473D01*
X48824844Y-64113302D01*
X48613241Y-64622898D01*
X48612760Y-65174681D01*
X48823473Y-65684646D01*
X49213302Y-66075156D01*
X49722898Y-66286759D01*
X50274681Y-66287240D01*
X50311406Y-66272066D01*
X51514650Y-67475310D01*
X51757967Y-67637890D01*
X52044980Y-67694980D01*
X52156360Y-67694980D01*
X51182477Y-68668863D01*
X51009924Y-68550962D01*
X50762000Y-68500756D01*
X49238000Y-68500756D01*
X49006389Y-68544337D01*
X48793668Y-68681219D01*
X48650962Y-68890076D01*
X48600756Y-69138000D01*
X41185885Y-69138000D01*
X41176527Y-69115354D01*
X40786698Y-68724844D01*
X40277102Y-68513241D01*
X39725319Y-68512760D01*
X39688594Y-68527934D01*
X38054660Y-66894000D01*
X38817523Y-66131137D01*
X38990076Y-66249038D01*
X39238000Y-66299244D01*
X40762000Y-66299244D01*
X40993611Y-66255663D01*
X41206332Y-66118781D01*
X41349038Y-65909924D01*
X41399244Y-65662000D01*
X41399244Y-64138000D01*
X41355663Y-63906389D01*
X41218781Y-63693668D01*
X41009924Y-63550962D01*
X40762000Y-63500756D01*
X39238000Y-63500756D01*
X39006389Y-63544337D01*
X38793668Y-63681219D01*
X38650962Y-63890076D01*
X38600756Y-64138000D01*
X38600756Y-64274062D01*
X38457670Y-64369670D01*
X36722352Y-66104988D01*
X31215756Y-66104988D01*
X31349038Y-65909924D01*
X31399244Y-65662000D01*
X31399244Y-64138000D01*
X31355663Y-63906389D01*
X31218781Y-63693668D01*
X31009924Y-63550962D01*
X30762000Y-63500756D01*
X29238000Y-63500756D01*
X29006389Y-63544337D01*
X28793668Y-63681219D01*
X28650962Y-63890076D01*
X28624652Y-64020000D01*
X11292305Y-64020000D01*
X11461592Y-63552345D01*
X11435423Y-62976093D01*
X11265247Y-62565253D01*
X11019109Y-62487671D01*
X11132050Y-62374730D01*
X11102320Y-62345000D01*
X20392120Y-62345000D01*
X20679133Y-62287910D01*
X20922450Y-62125330D01*
X22580181Y-60467599D01*
X23802298Y-60467599D01*
X23613241Y-60922898D01*
X23612760Y-61474681D01*
X23823473Y-61984646D01*
X24213302Y-62375156D01*
X24722898Y-62586759D01*
X25274681Y-62587240D01*
X25784646Y-62376527D01*
X26175156Y-61986698D01*
X26386759Y-61477102D01*
X26387240Y-60925319D01*
X26198114Y-60467599D01*
X33802298Y-60467599D01*
X33613241Y-60922898D01*
X33612760Y-61474681D01*
X33823473Y-61984646D01*
X34213302Y-62375156D01*
X34722898Y-62586759D01*
X35274681Y-62587240D01*
X35784646Y-62376527D01*
X36175156Y-61986698D01*
X36386759Y-61477102D01*
X36387240Y-60925319D01*
X36198114Y-60467599D01*
X43206939Y-60467599D01*
X43627617Y-60888277D01*
X43613241Y-60922898D01*
X43612760Y-61474681D01*
X43823473Y-61984646D01*
X44213302Y-62375156D01*
X44722898Y-62586759D01*
X45274681Y-62587240D01*
X45784646Y-62376527D01*
X46175156Y-61986698D01*
X46386759Y-61477102D01*
X46387240Y-60925319D01*
X46176527Y-60415354D01*
X45786698Y-60024844D01*
X45277102Y-59813241D01*
X44725319Y-59812760D01*
X44688594Y-59827934D01*
X44047929Y-59187269D01*
X43804612Y-59024689D01*
X43517599Y-58967599D01*
X42281061Y-58967599D01*
X43817523Y-57431137D01*
X43990076Y-57549038D01*
X44238000Y-57599244D01*
X45762000Y-57599244D01*
X45993611Y-57555663D01*
X46206332Y-57418781D01*
X46349038Y-57209924D01*
X46399244Y-56962000D01*
X46399244Y-55438000D01*
X46355663Y-55206389D01*
X46218781Y-54993668D01*
X46009924Y-54850962D01*
X45762000Y-54800756D01*
X44238000Y-54800756D01*
X44006389Y-54844337D01*
X43793668Y-54981219D01*
X43650962Y-55190076D01*
X43600756Y-55438000D01*
X43600756Y-55574063D01*
X43509291Y-55635178D01*
X43457670Y-55669670D01*
X40822340Y-58305000D01*
X34967660Y-58305000D01*
X35530330Y-57742330D01*
X35625937Y-57599244D01*
X35762000Y-57599244D01*
X35993611Y-57555663D01*
X36206332Y-57418781D01*
X36349038Y-57209924D01*
X36399244Y-56962000D01*
X36399244Y-55438000D01*
X36355663Y-55206389D01*
X36218781Y-54993668D01*
X36009924Y-54850962D01*
X35762000Y-54800756D01*
X34238000Y-54800756D01*
X34006389Y-54844337D01*
X33793668Y-54981219D01*
X33650962Y-55190076D01*
X33600756Y-55438000D01*
X33600756Y-56962000D01*
X33644337Y-57193611D01*
X33767041Y-57384299D01*
X33481340Y-57670000D01*
X21848931Y-57670000D01*
X21979822Y-57354780D01*
X21980178Y-56947009D01*
X21849192Y-56630000D01*
X23600756Y-56630000D01*
X23600756Y-56962000D01*
X23644337Y-57193611D01*
X23781219Y-57406332D01*
X23990076Y-57549038D01*
X24238000Y-57599244D01*
X25762000Y-57599244D01*
X25993611Y-57555663D01*
X26206332Y-57418781D01*
X26349038Y-57209924D01*
X26399244Y-56962000D01*
X26399244Y-55438000D01*
X26355663Y-55206389D01*
X26218781Y-54993668D01*
X26009924Y-54850962D01*
X25762000Y-54800756D01*
X24238000Y-54800756D01*
X24006389Y-54844337D01*
X23793668Y-54981219D01*
X23692010Y-55130000D01*
X15835563Y-55130000D01*
X15887449Y-55095331D01*
X18613113Y-52369667D01*
X18612760Y-52774681D01*
X18823473Y-53284646D01*
X19213302Y-53675156D01*
X19722898Y-53886759D01*
X20274681Y-53887240D01*
X20784646Y-53676527D01*
X21175156Y-53286698D01*
X21386759Y-52777102D01*
X21387240Y-52225319D01*
X21340830Y-52112999D01*
X28658875Y-52112999D01*
X28613241Y-52222898D01*
X28612760Y-52774681D01*
X28823473Y-53284646D01*
X29213302Y-53675156D01*
X29722898Y-53886759D01*
X30274681Y-53887240D01*
X30784646Y-53676527D01*
X31175156Y-53286698D01*
X31386759Y-52777102D01*
X31387240Y-52225319D01*
X31340830Y-52112999D01*
X38658875Y-52112999D01*
X38613241Y-52222898D01*
X38612760Y-52774681D01*
X38823473Y-53284646D01*
X39213302Y-53675156D01*
X39722898Y-53886759D01*
X40274681Y-53887240D01*
X40784646Y-53676527D01*
X41175156Y-53286698D01*
X41386759Y-52777102D01*
X41387240Y-52225319D01*
X41340830Y-52112999D01*
X48552339Y-52112999D01*
X48627617Y-52188277D01*
X48613241Y-52222898D01*
X48612760Y-52774681D01*
X48823473Y-53284646D01*
X49213302Y-53675156D01*
X49722898Y-53886759D01*
X50274681Y-53887240D01*
X50784646Y-53676527D01*
X51175156Y-53286698D01*
X51386759Y-52777102D01*
X51387240Y-52225319D01*
X51176527Y-51715354D01*
X50786698Y-51324844D01*
X50277102Y-51113241D01*
X49725319Y-51112760D01*
X49688594Y-51127934D01*
X49393329Y-50832669D01*
X49150012Y-50670089D01*
X48862999Y-50612999D01*
X46935661Y-50612999D01*
X48817523Y-48731137D01*
X48990076Y-48849038D01*
X49238000Y-48899244D01*
X50762000Y-48899244D01*
X50993611Y-48855663D01*
X51206332Y-48718781D01*
X51349038Y-48509924D01*
X51399244Y-48262000D01*
X51399244Y-46738000D01*
X51355663Y-46506389D01*
X51218781Y-46293668D01*
X51009924Y-46150962D01*
X50762000Y-46100756D01*
X49238000Y-46100756D01*
X49006389Y-46144337D01*
X48793668Y-46281219D01*
X48650962Y-46490076D01*
X48600756Y-46738000D01*
X48600756Y-46874063D01*
X48566012Y-46897278D01*
X48457670Y-46969670D01*
X45377340Y-50050000D01*
X37498660Y-50050000D01*
X38817523Y-48731137D01*
X38990076Y-48849038D01*
X39238000Y-48899244D01*
X40762000Y-48899244D01*
X40993611Y-48855663D01*
X41206332Y-48718781D01*
X41349038Y-48509924D01*
X41399244Y-48262000D01*
X41399244Y-46738000D01*
X41355663Y-46506389D01*
X41218781Y-46293668D01*
X41009924Y-46150962D01*
X40762000Y-46100756D01*
X39238000Y-46100756D01*
X39006389Y-46144337D01*
X38793668Y-46281219D01*
X38650962Y-46490076D01*
X38600756Y-46738000D01*
X38600756Y-46874063D01*
X38457670Y-46969670D01*
X36012340Y-49415000D01*
X28133660Y-49415000D01*
X28817523Y-48731137D01*
X28990076Y-48849038D01*
X29238000Y-48899244D01*
X30762000Y-48899244D01*
X30993611Y-48855663D01*
X31206332Y-48718781D01*
X31349038Y-48509924D01*
X31399244Y-48262000D01*
X31399244Y-46738000D01*
X31355663Y-46506389D01*
X31218781Y-46293668D01*
X31009924Y-46150962D01*
X30762000Y-46100756D01*
X29238000Y-46100756D01*
X29006389Y-46144337D01*
X28793668Y-46281219D01*
X28650962Y-46490076D01*
X28600756Y-46738000D01*
X28600756Y-46874062D01*
X28457670Y-46969670D01*
X26647340Y-48780000D01*
X21111195Y-48780000D01*
X21206332Y-48718781D01*
X21349038Y-48509924D01*
X21399244Y-48262000D01*
X21399244Y-46738000D01*
X21355663Y-46506389D01*
X21218781Y-46293668D01*
X21009924Y-46150962D01*
X20762000Y-46100756D01*
X20625937Y-46100756D01*
X20530330Y-45957670D01*
X19762330Y-45189670D01*
X19710444Y-45155001D01*
X21296565Y-45155001D01*
X21583578Y-45097911D01*
X21826895Y-44935331D01*
X22687545Y-44074681D01*
X23612760Y-44074681D01*
X23823473Y-44584646D01*
X24213302Y-44975156D01*
X24722898Y-45186759D01*
X25274681Y-45187240D01*
X25784646Y-44976527D01*
X26175156Y-44586698D01*
X26386759Y-44077102D01*
X26386761Y-44074681D01*
X33612760Y-44074681D01*
X33823473Y-44584646D01*
X34213302Y-44975156D01*
X34722898Y-45186759D01*
X35274681Y-45187240D01*
X35784646Y-44976527D01*
X36175156Y-44586698D01*
X36386759Y-44077102D01*
X36387240Y-43525319D01*
X36176527Y-43015354D01*
X35786698Y-42624844D01*
X35277102Y-42413241D01*
X34725319Y-42412760D01*
X34215354Y-42623473D01*
X33824844Y-43013302D01*
X33613241Y-43522898D01*
X33612760Y-44074681D01*
X26386761Y-44074681D01*
X26387240Y-43525319D01*
X26176527Y-43015354D01*
X25786698Y-42624844D01*
X25277102Y-42413241D01*
X24725319Y-42412760D01*
X24215354Y-42623473D01*
X23824844Y-43013302D01*
X23613241Y-43522898D01*
X23612760Y-44074681D01*
X22687545Y-44074681D01*
X24372205Y-42390021D01*
X42529361Y-42390021D01*
X43627617Y-43488277D01*
X43613241Y-43522898D01*
X43612760Y-44074681D01*
X43823473Y-44584646D01*
X44213302Y-44975156D01*
X44722898Y-45186759D01*
X45274681Y-45187240D01*
X45784646Y-44976527D01*
X46175156Y-44586698D01*
X46386759Y-44077102D01*
X46387240Y-43525319D01*
X46176527Y-43015354D01*
X45786698Y-42624844D01*
X45277102Y-42413241D01*
X44725319Y-42412760D01*
X44688594Y-42427934D01*
X43370351Y-41109691D01*
X43127034Y-40947111D01*
X42938959Y-40909701D01*
X43817523Y-40031137D01*
X43990076Y-40149038D01*
X44238000Y-40199244D01*
X45762000Y-40199244D01*
X45993611Y-40155663D01*
X46206332Y-40018781D01*
X46349038Y-39809924D01*
X46399244Y-39562000D01*
X46399244Y-38038000D01*
X46355663Y-37806389D01*
X46218781Y-37593668D01*
X46009924Y-37450962D01*
X45762000Y-37400756D01*
X44238000Y-37400756D01*
X44006389Y-37444337D01*
X43793668Y-37581219D01*
X43650962Y-37790076D01*
X43600756Y-38038000D01*
X43600756Y-38174063D01*
X43461456Y-38267140D01*
X43457670Y-38269670D01*
X41337330Y-40390010D01*
X35482650Y-40390010D01*
X35530330Y-40342330D01*
X35569416Y-40283834D01*
X35625937Y-40199244D01*
X35762000Y-40199244D01*
X35993611Y-40155663D01*
X36206332Y-40018781D01*
X36349038Y-39809924D01*
X36399244Y-39562000D01*
X36399244Y-38038000D01*
X36355663Y-37806389D01*
X36218781Y-37593668D01*
X36009924Y-37450962D01*
X35762000Y-37400756D01*
X34238000Y-37400756D01*
X34006389Y-37444337D01*
X33793668Y-37581219D01*
X33650962Y-37790076D01*
X33600756Y-38038000D01*
X33600756Y-39562000D01*
X33644337Y-39793611D01*
X33706362Y-39890000D01*
X26294324Y-39890000D01*
X26349038Y-39809924D01*
X26399244Y-39562000D01*
X26399244Y-38038000D01*
X26355663Y-37806389D01*
X26218781Y-37593668D01*
X26009924Y-37450962D01*
X25762000Y-37400756D01*
X24555170Y-37400756D01*
X24300000Y-37350000D01*
X11295925Y-37350000D01*
X11461592Y-36892345D01*
X11435423Y-36316093D01*
X11369364Y-36156614D01*
X23648386Y-36156614D01*
X23935399Y-36099524D01*
X24178716Y-35936944D01*
X25402661Y-34712999D01*
X28658875Y-34712999D01*
X28613241Y-34822898D01*
X28612760Y-35374681D01*
X28823473Y-35884646D01*
X29213302Y-36275156D01*
X29722898Y-36486759D01*
X30274681Y-36487240D01*
X30784646Y-36276527D01*
X31175156Y-35886698D01*
X31386759Y-35377102D01*
X31387240Y-34825319D01*
X31340830Y-34712999D01*
X38658875Y-34712999D01*
X38613241Y-34822898D01*
X38612760Y-35374681D01*
X38823473Y-35884646D01*
X39213302Y-36275156D01*
X39722898Y-36486759D01*
X40274681Y-36487240D01*
X40784646Y-36276527D01*
X41175156Y-35886698D01*
X41386759Y-35377102D01*
X41387240Y-34825319D01*
X41340830Y-34712999D01*
X48552339Y-34712999D01*
X48627617Y-34788277D01*
X48613241Y-34822898D01*
X48612760Y-35374681D01*
X48823473Y-35884646D01*
X49213302Y-36275156D01*
X49722898Y-36486759D01*
X50274681Y-36487240D01*
X50784646Y-36276527D01*
X51175156Y-35886698D01*
X51386759Y-35377102D01*
X51387240Y-34825319D01*
X51176527Y-34315354D01*
X50786698Y-33924844D01*
X50277102Y-33713241D01*
X49725319Y-33712760D01*
X49688594Y-33727934D01*
X49393329Y-33432669D01*
X49150012Y-33270089D01*
X48862999Y-33212999D01*
X41264899Y-33212999D01*
X43627898Y-30850000D01*
X48600756Y-30850000D01*
X48600756Y-30862000D01*
X48644337Y-31093611D01*
X48781219Y-31306332D01*
X48990076Y-31449038D01*
X49238000Y-31499244D01*
X50762000Y-31499244D01*
X50993611Y-31455663D01*
X51206332Y-31318781D01*
X51349038Y-31109924D01*
X51399244Y-30862000D01*
X51399244Y-29338000D01*
X51355663Y-29106389D01*
X51218781Y-28893668D01*
X51009924Y-28750962D01*
X50762000Y-28700756D01*
X49238000Y-28700756D01*
X49006389Y-28744337D01*
X48793668Y-28881219D01*
X48650962Y-29090076D01*
X48600756Y-29338000D01*
X48600756Y-29350000D01*
X43317238Y-29350000D01*
X43030225Y-29407090D01*
X42874893Y-29510880D01*
X42786908Y-29569670D01*
X41375036Y-30981542D01*
X41399244Y-30862000D01*
X41399244Y-29338000D01*
X41355663Y-29106389D01*
X41218781Y-28893668D01*
X41009924Y-28750962D01*
X40762000Y-28700756D01*
X39238000Y-28700756D01*
X39006389Y-28744337D01*
X38793668Y-28881219D01*
X38650962Y-29090076D01*
X38600756Y-29338000D01*
X38600756Y-29474063D01*
X38457670Y-29569670D01*
X36392340Y-31635000D01*
X23902154Y-31635000D01*
X23645545Y-31686042D01*
X23645647Y-31569029D01*
X23505562Y-31230000D01*
X28732101Y-31230000D01*
X28781219Y-31306332D01*
X28990076Y-31449038D01*
X29238000Y-31499244D01*
X30762000Y-31499244D01*
X30993611Y-31455663D01*
X31206332Y-31318781D01*
X31349038Y-31109924D01*
X31399244Y-30862000D01*
X31399244Y-29338000D01*
X31355663Y-29106389D01*
X31218781Y-28893668D01*
X31009924Y-28750962D01*
X30762000Y-28700756D01*
X29238000Y-28700756D01*
X29006389Y-28744337D01*
X28793668Y-28881219D01*
X28650962Y-29090076D01*
X28600756Y-29338000D01*
X28600756Y-29730000D01*
X27337683Y-29730000D01*
X27389569Y-29695331D01*
X31569900Y-25515000D01*
X33923318Y-25515000D01*
X33824844Y-25613302D01*
X33613241Y-26122898D01*
X33612760Y-26674681D01*
X33823473Y-27184646D01*
X34213302Y-27575156D01*
X34722898Y-27786759D01*
X35274681Y-27787240D01*
X35784646Y-27576527D01*
X36175156Y-27186698D01*
X36386759Y-26677102D01*
X36387240Y-26125319D01*
X36176527Y-25615354D01*
X36076348Y-25515000D01*
X43054340Y-25515000D01*
X43627617Y-26088277D01*
X43613241Y-26122898D01*
X43612760Y-26674681D01*
X43823473Y-27184646D01*
X44213302Y-27575156D01*
X44722898Y-27786759D01*
X45274681Y-27787240D01*
X45784646Y-27576527D01*
X46175156Y-27186698D01*
X46386759Y-26677102D01*
X46387240Y-26125319D01*
X46176527Y-25615354D01*
X45786698Y-25224844D01*
X45277102Y-25013241D01*
X44725319Y-25012760D01*
X44688594Y-25027934D01*
X43895330Y-24234670D01*
X43652013Y-24072090D01*
X43365000Y-24015000D01*
X42433660Y-24015000D01*
X43817523Y-22631137D01*
X43990076Y-22749038D01*
X44238000Y-22799244D01*
X45762000Y-22799244D01*
X45993611Y-22755663D01*
X46206332Y-22618781D01*
X46349038Y-22409924D01*
X46399244Y-22162000D01*
X46399244Y-20638000D01*
X46355663Y-20406389D01*
X46218781Y-20193668D01*
X46009924Y-20050962D01*
X45762000Y-20000756D01*
X44238000Y-20000756D01*
X44006389Y-20044337D01*
X43793668Y-20181219D01*
X43650962Y-20390076D01*
X43600756Y-20638000D01*
X43600756Y-20774063D01*
X43457670Y-20869670D01*
X41582340Y-22745000D01*
X36010182Y-22745000D01*
X36206332Y-22618781D01*
X36349038Y-22409924D01*
X36399244Y-22162000D01*
X36399244Y-20638000D01*
X36355663Y-20406389D01*
X36218781Y-20193668D01*
X36009924Y-20050962D01*
X35762000Y-20000756D01*
X34238000Y-20000756D01*
X34006389Y-20044337D01*
X33793668Y-20181219D01*
X33650962Y-20390076D01*
X33600756Y-20638000D01*
X33600756Y-20650000D01*
X33210000Y-20650000D01*
X32922987Y-20707090D01*
X32679670Y-20869670D01*
X28899340Y-24650000D01*
X13593931Y-24650000D01*
X13724822Y-24334780D01*
X13724970Y-24165690D01*
X19580330Y-18310330D01*
X19742910Y-18067013D01*
X19800000Y-17780000D01*
X19800000Y-9020462D01*
X20320000Y-9123897D01*
X20884458Y-9011619D01*
X21362983Y-8691880D01*
X21590000Y-8352124D01*
X21817017Y-8691880D01*
X22125040Y-8897694D01*
X22167090Y-9109094D01*
X22329670Y-9352411D01*
X26842589Y-13865330D01*
X27085906Y-14027910D01*
X27372919Y-14085000D01*
X59625387Y-14085000D01*
X59743626Y-14203446D01*
X60120220Y-14359822D01*
X60527991Y-14360178D01*
X60904857Y-14204459D01*
X61193446Y-13916374D01*
X61349822Y-13539780D01*
X61350178Y-13132009D01*
X61194459Y-12755143D01*
X60906374Y-12466554D01*
X60529780Y-12310178D01*
X60122009Y-12309822D01*
X59745143Y-12465541D01*
X59625475Y-12585000D01*
X33913931Y-12585000D01*
X34044822Y-12269780D01*
X34045023Y-12039999D01*
X62533337Y-12039999D01*
X74556350Y-24063012D01*
X74799667Y-24225592D01*
X75086680Y-24282682D01*
X89763444Y-24282682D01*
X89881683Y-24401128D01*
X90258277Y-24557504D01*
X90666048Y-24557860D01*
X90985945Y-24425680D01*
X92505000Y-24425680D01*
X92505000Y-25118750D01*
X92661250Y-25275000D01*
X93855000Y-25275000D01*
X93855000Y-24081250D01*
X94105000Y-24081250D01*
X94105000Y-25275000D01*
X96395000Y-25275000D01*
X96395000Y-24086547D01*
X96645000Y-24086547D01*
X96645000Y-25275000D01*
X97832812Y-25275000D01*
X97952045Y-25046628D01*
X97782487Y-24637258D01*
X97394497Y-24212185D01*
X96873373Y-23967946D01*
X96645000Y-24086547D01*
X96395000Y-24086547D01*
X96166627Y-23967946D01*
X95645503Y-24212185D01*
X95453637Y-24422389D01*
X95359849Y-24195966D01*
X95184034Y-24020150D01*
X94954320Y-23925000D01*
X94261250Y-23925000D01*
X94105000Y-24081250D01*
X93855000Y-24081250D01*
X93698750Y-23925000D01*
X93005680Y-23925000D01*
X92775966Y-24020150D01*
X92600151Y-24195966D01*
X92505000Y-24425680D01*
X90985945Y-24425680D01*
X91042914Y-24402141D01*
X91331503Y-24114056D01*
X91487879Y-23737462D01*
X91488235Y-23329691D01*
X91332516Y-22952825D01*
X91044431Y-22664236D01*
X90667837Y-22507860D01*
X90260066Y-22507504D01*
X89883200Y-22663223D01*
X89763532Y-22782682D01*
X75397340Y-22782682D01*
X63942831Y-11328173D01*
X64094747Y-11265247D01*
X64172330Y-11019107D01*
X63330000Y-10176777D01*
X63315858Y-10190919D01*
X63139081Y-10014142D01*
X63153223Y-10000000D01*
X63506777Y-10000000D01*
X64349107Y-10842330D01*
X64595247Y-10764747D01*
X64791592Y-10222345D01*
X64765423Y-9646093D01*
X64595247Y-9235253D01*
X64349107Y-9157670D01*
X63506777Y-10000000D01*
X63153223Y-10000000D01*
X62310893Y-9157670D01*
X62064753Y-9235253D01*
X61868408Y-9777655D01*
X61894577Y-10353907D01*
X61971659Y-10539999D01*
X38016604Y-10539999D01*
X38131592Y-10222345D01*
X38105423Y-9646093D01*
X37935247Y-9235253D01*
X37689107Y-9157670D01*
X36846777Y-10000000D01*
X36860919Y-10014142D01*
X36684142Y-10190919D01*
X36670000Y-10176777D01*
X36655858Y-10190919D01*
X36479081Y-10014142D01*
X36493223Y-10000000D01*
X35650893Y-9157670D01*
X35404753Y-9235253D01*
X35208408Y-9777655D01*
X35234577Y-10353907D01*
X35311659Y-10539999D01*
X29380659Y-10539999D01*
X27960483Y-9119823D01*
X28504458Y-9011619D01*
X28550442Y-8980893D01*
X35827670Y-8980893D01*
X36670000Y-9823223D01*
X37512330Y-8980893D01*
X62487670Y-8980893D01*
X63330000Y-9823223D01*
X64172330Y-8980893D01*
X64094747Y-8734753D01*
X63552345Y-8538408D01*
X62976093Y-8564577D01*
X62565253Y-8734753D01*
X62487670Y-8980893D01*
X37512330Y-8980893D01*
X37434747Y-8734753D01*
X36892345Y-8538408D01*
X36316093Y-8564577D01*
X35905253Y-8734753D01*
X35827670Y-8980893D01*
X28550442Y-8980893D01*
X28982983Y-8691880D01*
X29302722Y-8213355D01*
X29415000Y-7648897D01*
X29415000Y-7591103D01*
X29326264Y-7144999D01*
X80379339Y-7144999D01*
X85334968Y-12100628D01*
X85334822Y-12267991D01*
X85490541Y-12644857D01*
X85778626Y-12933446D01*
X86155220Y-13089822D01*
X86562991Y-13090178D01*
X86939857Y-12934459D01*
X87228446Y-12646374D01*
X87384822Y-12269780D01*
X87385178Y-11862009D01*
X87229459Y-11485143D01*
X86941374Y-11196554D01*
X86564780Y-11040178D01*
X86395690Y-11040030D01*
X86374767Y-11019107D01*
X89157670Y-11019107D01*
X89235253Y-11265247D01*
X89777655Y-11461592D01*
X90353907Y-11435423D01*
X90764747Y-11265247D01*
X90842330Y-11019107D01*
X90000000Y-10176777D01*
X89157670Y-11019107D01*
X86374767Y-11019107D01*
X85133315Y-9777655D01*
X88538408Y-9777655D01*
X88564577Y-10353907D01*
X88734753Y-10764747D01*
X88980893Y-10842330D01*
X89823223Y-10000000D01*
X88980893Y-9157670D01*
X88734753Y-9235253D01*
X88538408Y-9777655D01*
X85133315Y-9777655D01*
X81220329Y-5864669D01*
X81168443Y-5830000D01*
X87319340Y-5830000D01*
X90036201Y-8546861D01*
X89646093Y-8564577D01*
X89235253Y-8734753D01*
X89157670Y-8980893D01*
X90000000Y-9823223D01*
X90014142Y-9809081D01*
X90190919Y-9985858D01*
X90176777Y-10000000D01*
X91019107Y-10842330D01*
X91265247Y-10764747D01*
X91461592Y-10222345D01*
X91449694Y-9960354D01*
X91800892Y-10311552D01*
X91685178Y-10590220D01*
X91684822Y-10997991D01*
X91840541Y-11374857D01*
X91960000Y-11494525D01*
X91960000Y-14929340D01*
X86959372Y-19929968D01*
X86792009Y-19929822D01*
X86415143Y-20085541D01*
X86126554Y-20373626D01*
X85970178Y-20750220D01*
X85969822Y-21157991D01*
X86125541Y-21534857D01*
X86413626Y-21823446D01*
X86790220Y-21979822D01*
X87197991Y-21980178D01*
X87574857Y-21824459D01*
X87863446Y-21536374D01*
X88019822Y-21159780D01*
X88019970Y-20990690D01*
X93240330Y-15770330D01*
X93402911Y-15527012D01*
X93460000Y-15240000D01*
X93460000Y-11494613D01*
X93578446Y-11376374D01*
X93734822Y-10999780D01*
X93735178Y-10592009D01*
X93579459Y-10215143D01*
X93443971Y-10079418D01*
X93402910Y-9872987D01*
X93240330Y-9629670D01*
X91344758Y-7734098D01*
X92442678Y-7734098D01*
X92809980Y-8226967D01*
X94211592Y-8819413D01*
X95733232Y-8830388D01*
X97143243Y-8258221D01*
X97190020Y-8226967D01*
X97557322Y-7734098D01*
X95000000Y-5176777D01*
X92442678Y-7734098D01*
X91344758Y-7734098D01*
X89343892Y-5733232D01*
X91169612Y-5733232D01*
X91741779Y-7143243D01*
X91773033Y-7190020D01*
X92265902Y-7557322D01*
X94823223Y-5000000D01*
X95176777Y-5000000D01*
X97734098Y-7557322D01*
X98226967Y-7190020D01*
X98819413Y-5788408D01*
X98830388Y-4266768D01*
X98258221Y-2856757D01*
X98226967Y-2809980D01*
X97734098Y-2442678D01*
X95176777Y-5000000D01*
X94823223Y-5000000D01*
X92265902Y-2442678D01*
X91773033Y-2809980D01*
X91180587Y-4211592D01*
X91169612Y-5733232D01*
X89343892Y-5733232D01*
X88160330Y-4549670D01*
X87917013Y-4387090D01*
X87630000Y-4330000D01*
X66739613Y-4330000D01*
X66621374Y-4211554D01*
X66244780Y-4055178D01*
X65837009Y-4054822D01*
X65460143Y-4210541D01*
X65340475Y-4330000D01*
X40069613Y-4330000D01*
X39951374Y-4211554D01*
X39574780Y-4055178D01*
X39167009Y-4054822D01*
X38790143Y-4210541D01*
X38670475Y-4330000D01*
X29427244Y-4330000D01*
X29427244Y-4230000D01*
X29383663Y-3998389D01*
X29246781Y-3785668D01*
X29037924Y-3642962D01*
X28790000Y-3592756D01*
X28565937Y-3592756D01*
X28470330Y-3449670D01*
X27665330Y-2644670D01*
X27422013Y-2482090D01*
X27135000Y-2425000D01*
X16510000Y-2425000D01*
X16222987Y-2482090D01*
X15979670Y-2644670D01*
X14074670Y-4549670D01*
X13912090Y-4792987D01*
X13855000Y-5080000D01*
X13855000Y-9901069D01*
X13539780Y-9770178D01*
X13132009Y-9769822D01*
X12755143Y-9925541D01*
X12466554Y-10213626D01*
X12310178Y-10590220D01*
X12309822Y-10997991D01*
X12465541Y-11374857D01*
X12753626Y-11663446D01*
X13130220Y-11819822D01*
X13537991Y-11820178D01*
X13855000Y-11689192D01*
X13855000Y-16834340D01*
X8219372Y-22469968D01*
X8052009Y-22469822D01*
X7675143Y-22625541D01*
X7386554Y-22913626D01*
X7230178Y-23290220D01*
X7229822Y-23697991D01*
X7385541Y-24074857D01*
X7673626Y-24363446D01*
X8050220Y-24519822D01*
X8457991Y-24520178D01*
X8834857Y-24364459D01*
X9123446Y-24076374D01*
X9279822Y-23699780D01*
X9279970Y-23530690D01*
X15135330Y-17675330D01*
X15297910Y-17432013D01*
X15355000Y-17145000D01*
X15355000Y-7973373D01*
X16347946Y-7973373D01*
X16592185Y-8494497D01*
X17017258Y-8882487D01*
X17426628Y-9052045D01*
X17655000Y-8932812D01*
X17655000Y-7745000D01*
X16466547Y-7745000D01*
X16347946Y-7973373D01*
X15355000Y-7973373D01*
X15355000Y-5433373D01*
X16347946Y-5433373D01*
X16592185Y-5954497D01*
X17017258Y-6342487D01*
X17035397Y-6350000D01*
X17017258Y-6357513D01*
X16592185Y-6745503D01*
X16347946Y-7266627D01*
X16466547Y-7495000D01*
X17655000Y-7495000D01*
X17655000Y-5205000D01*
X16466547Y-5205000D01*
X16347946Y-5433373D01*
X15355000Y-5433373D01*
X15355000Y-5390660D01*
X16820660Y-3925000D01*
X16899498Y-3925000D01*
X16592185Y-4205503D01*
X16347946Y-4726627D01*
X16466547Y-4955000D01*
X17655000Y-4955000D01*
X17655000Y-4935000D01*
X17905000Y-4935000D01*
X17905000Y-4955000D01*
X17925000Y-4955000D01*
X17925000Y-5205000D01*
X17905000Y-5205000D01*
X17905000Y-7495000D01*
X17925000Y-7495000D01*
X17925000Y-7745000D01*
X17905000Y-7745000D01*
X17905000Y-8932812D01*
X18133372Y-9052045D01*
X18300000Y-8983029D01*
X18300000Y-17469340D01*
X12664372Y-23104968D01*
X12497009Y-23104822D01*
X12120143Y-23260541D01*
X11831554Y-23548626D01*
X11675178Y-23925220D01*
X11674822Y-24332991D01*
X11805808Y-24650000D01*
X7617644Y-24650000D01*
X7421880Y-24357017D01*
X6943355Y-24037278D01*
X6378897Y-23925000D01*
X6321103Y-23925000D01*
X5756645Y-24037278D01*
X5278120Y-24357017D01*
X5264708Y-24377089D01*
X5253663Y-24318389D01*
X5116781Y-24105668D01*
X4907924Y-23962962D01*
X4660000Y-23912756D01*
X2960000Y-23912756D01*
X2728389Y-23956337D01*
X2515668Y-24093219D01*
X2372962Y-24302076D01*
X2322756Y-24550000D01*
X2322756Y-26250000D01*
X2366337Y-26481611D01*
X2503219Y-26694332D01*
X2712076Y-26837038D01*
X2800950Y-26855035D01*
X2738120Y-26897017D01*
X2418381Y-27375542D01*
X2306103Y-27940000D01*
X700000Y-27940000D01*
X700000Y-11019107D01*
X9157670Y-11019107D01*
X9235253Y-11265247D01*
X9777655Y-11461592D01*
X10353907Y-11435423D01*
X10764747Y-11265247D01*
X10842330Y-11019107D01*
X10000000Y-10176777D01*
X9157670Y-11019107D01*
X700000Y-11019107D01*
X700000Y-9777655D01*
X8538408Y-9777655D01*
X8564577Y-10353907D01*
X8734753Y-10764747D01*
X8980893Y-10842330D01*
X9823223Y-10000000D01*
X10176777Y-10000000D01*
X11019107Y-10842330D01*
X11265247Y-10764747D01*
X11461592Y-10222345D01*
X11435423Y-9646093D01*
X11265247Y-9235253D01*
X11019107Y-9157670D01*
X10176777Y-10000000D01*
X9823223Y-10000000D01*
X8980893Y-9157670D01*
X8734753Y-9235253D01*
X8538408Y-9777655D01*
X700000Y-9777655D01*
X700000Y-8980893D01*
X9157670Y-8980893D01*
X10000000Y-9823223D01*
X10842330Y-8980893D01*
X10764747Y-8734753D01*
X10222345Y-8538408D01*
X9646093Y-8564577D01*
X9235253Y-8734753D01*
X9157670Y-8980893D01*
X700000Y-8980893D01*
X700000Y-7734098D01*
X2442678Y-7734098D01*
X2809980Y-8226967D01*
X4211592Y-8819413D01*
X5733232Y-8830388D01*
X7143243Y-8258221D01*
X7190020Y-8226967D01*
X7557322Y-7734098D01*
X5000000Y-5176777D01*
X2442678Y-7734098D01*
X700000Y-7734098D01*
X700000Y-5733232D01*
X1169612Y-5733232D01*
X1741779Y-7143243D01*
X1773033Y-7190020D01*
X2265902Y-7557322D01*
X4823223Y-5000000D01*
X5176777Y-5000000D01*
X7734098Y-7557322D01*
X8226967Y-7190020D01*
X8819413Y-5788408D01*
X8830388Y-4266768D01*
X8258221Y-2856757D01*
X8226967Y-2809980D01*
X7734098Y-2442678D01*
X5176777Y-5000000D01*
X4823223Y-5000000D01*
X2265902Y-2442678D01*
X1773033Y-2809980D01*
X1180587Y-4211592D01*
X1169612Y-5733232D01*
X700000Y-5733232D01*
X700000Y-5068945D01*
X1039988Y-3359709D01*
X1770846Y-2265902D01*
X2442678Y-2265902D01*
X5000000Y-4823223D01*
X7557322Y-2265902D01*
X92442678Y-2265902D01*
X95000000Y-4823223D01*
X97557322Y-2265902D01*
X97190020Y-1773033D01*
X95788408Y-1180587D01*
X94266768Y-1169612D01*
X92856757Y-1741779D01*
X92809980Y-1773033D01*
X92442678Y-2265902D01*
X7557322Y-2265902D01*
X7190020Y-1773033D01*
X5788408Y-1180587D01*
X4266768Y-1169612D01*
X2856757Y-1741779D01*
X2809980Y-1773033D01*
X2442678Y-2265902D01*
X1770846Y-2265902D01*
X1969138Y-1969138D01*
X3359709Y-1039988D01*
X5068945Y-700000D01*
X94931055Y-700000D01*
X96640291Y-1039988D01*
G36*
X92128626Y-88498446D02*
X92505220Y-88654822D01*
X92529497Y-88654843D01*
X91439890Y-89744450D01*
X91435423Y-89646093D01*
X91265247Y-89235253D01*
X91019107Y-89157670D01*
X90176777Y-90000000D01*
X90190919Y-90014142D01*
X90014142Y-90190919D01*
X90000000Y-90176777D01*
X89157670Y-91019107D01*
X89235253Y-91265247D01*
X89737341Y-91446999D01*
X88681338Y-92503002D01*
X87110000Y-92503002D01*
X87110000Y-90869613D01*
X87228446Y-90751374D01*
X87384822Y-90374780D01*
X87385178Y-89967009D01*
X87306938Y-89777655D01*
X88538408Y-89777655D01*
X88564577Y-90353907D01*
X88734753Y-90764747D01*
X88980893Y-90842330D01*
X89823223Y-90000000D01*
X88980893Y-89157670D01*
X88734753Y-89235253D01*
X88538408Y-89777655D01*
X87306938Y-89777655D01*
X87229459Y-89590143D01*
X86941374Y-89301554D01*
X86564780Y-89145178D01*
X86157009Y-89144822D01*
X85780143Y-89300541D01*
X85491554Y-89588626D01*
X85335178Y-89965220D01*
X85334822Y-90372991D01*
X85490541Y-90749857D01*
X85610000Y-90869525D01*
X85610000Y-92942342D01*
X82607914Y-95944428D01*
X82467815Y-95645503D01*
X82042742Y-95257513D01*
X82024603Y-95250000D01*
X82042742Y-95242487D01*
X82467815Y-94854497D01*
X82712054Y-94333373D01*
X82593453Y-94105000D01*
X81405000Y-94105000D01*
X81405000Y-96395000D01*
X81425000Y-96395000D01*
X81425000Y-96645000D01*
X81405000Y-96645000D01*
X81405000Y-96665000D01*
X81155000Y-96665000D01*
X81155000Y-96645000D01*
X81135000Y-96645000D01*
X81135000Y-96395000D01*
X81155000Y-96395000D01*
X81155000Y-94105000D01*
X81135000Y-94105000D01*
X81135000Y-93855000D01*
X81155000Y-93855000D01*
X81155000Y-92667188D01*
X81405000Y-92667188D01*
X81405000Y-93855000D01*
X82593453Y-93855000D01*
X82712054Y-93626627D01*
X82467815Y-93105503D01*
X82042742Y-92717513D01*
X81633372Y-92547955D01*
X81405000Y-92667188D01*
X81155000Y-92667188D01*
X80926628Y-92547955D01*
X80715001Y-92635609D01*
X80715001Y-91795659D01*
X83529767Y-88980893D01*
X89157670Y-88980893D01*
X90000000Y-89823223D01*
X90842330Y-88980893D01*
X90764747Y-88734753D01*
X90222345Y-88538408D01*
X89646093Y-88564577D01*
X89235253Y-88734753D01*
X89157670Y-88980893D01*
X83529767Y-88980893D01*
X84130660Y-88380000D01*
X92010387Y-88380000D01*
X92128626Y-88498446D01*
X92128626Y-88498446D01*
G37*
X92128626Y-88498446D02*
X92505220Y-88654822D01*
X92529497Y-88654843D01*
X91439890Y-89744450D01*
X91435423Y-89646093D01*
X91265247Y-89235253D01*
X91019107Y-89157670D01*
X90176777Y-90000000D01*
X90190919Y-90014142D01*
X90014142Y-90190919D01*
X90000000Y-90176777D01*
X89157670Y-91019107D01*
X89235253Y-91265247D01*
X89737341Y-91446999D01*
X88681338Y-92503002D01*
X87110000Y-92503002D01*
X87110000Y-90869613D01*
X87228446Y-90751374D01*
X87384822Y-90374780D01*
X87385178Y-89967009D01*
X87306938Y-89777655D01*
X88538408Y-89777655D01*
X88564577Y-90353907D01*
X88734753Y-90764747D01*
X88980893Y-90842330D01*
X89823223Y-90000000D01*
X88980893Y-89157670D01*
X88734753Y-89235253D01*
X88538408Y-89777655D01*
X87306938Y-89777655D01*
X87229459Y-89590143D01*
X86941374Y-89301554D01*
X86564780Y-89145178D01*
X86157009Y-89144822D01*
X85780143Y-89300541D01*
X85491554Y-89588626D01*
X85335178Y-89965220D01*
X85334822Y-90372991D01*
X85490541Y-90749857D01*
X85610000Y-90869525D01*
X85610000Y-92942342D01*
X82607914Y-95944428D01*
X82467815Y-95645503D01*
X82042742Y-95257513D01*
X82024603Y-95250000D01*
X82042742Y-95242487D01*
X82467815Y-94854497D01*
X82712054Y-94333373D01*
X82593453Y-94105000D01*
X81405000Y-94105000D01*
X81405000Y-96395000D01*
X81425000Y-96395000D01*
X81425000Y-96645000D01*
X81405000Y-96645000D01*
X81405000Y-96665000D01*
X81155000Y-96665000D01*
X81155000Y-96645000D01*
X81135000Y-96645000D01*
X81135000Y-96395000D01*
X81155000Y-96395000D01*
X81155000Y-94105000D01*
X81135000Y-94105000D01*
X81135000Y-93855000D01*
X81155000Y-93855000D01*
X81155000Y-92667188D01*
X81405000Y-92667188D01*
X81405000Y-93855000D01*
X82593453Y-93855000D01*
X82712054Y-93626627D01*
X82467815Y-93105503D01*
X82042742Y-92717513D01*
X81633372Y-92547955D01*
X81405000Y-92667188D01*
X81155000Y-92667188D01*
X80926628Y-92547955D01*
X80715001Y-92635609D01*
X80715001Y-91795659D01*
X83529767Y-88980893D01*
X89157670Y-88980893D01*
X90000000Y-89823223D01*
X90842330Y-88980893D01*
X90764747Y-88734753D01*
X90222345Y-88538408D01*
X89646093Y-88564577D01*
X89235253Y-88734753D01*
X89157670Y-88980893D01*
X83529767Y-88980893D01*
X84130660Y-88380000D01*
X92010387Y-88380000D01*
X92128626Y-88498446D01*
G36*
X14490000Y-76633658D02*
X14490000Y-90805000D01*
X14547090Y-91092013D01*
X14709670Y-91335330D01*
X19144340Y-95770000D01*
X14280660Y-95770000D01*
X9963799Y-91453139D01*
X10353907Y-91435423D01*
X10764747Y-91265247D01*
X10842330Y-91019107D01*
X10000000Y-90176777D01*
X9985858Y-90190919D01*
X9809081Y-90014142D01*
X9823223Y-90000000D01*
X10176777Y-90000000D01*
X11019107Y-90842330D01*
X11265247Y-90764747D01*
X11461592Y-90222345D01*
X11435423Y-89646093D01*
X11265247Y-89235253D01*
X11019107Y-89157670D01*
X10176777Y-90000000D01*
X9823223Y-90000000D01*
X8980893Y-89157670D01*
X8734753Y-89235253D01*
X8538408Y-89777655D01*
X8550306Y-90039646D01*
X8370000Y-89859340D01*
X8370000Y-89599613D01*
X8488446Y-89481374D01*
X8644822Y-89104780D01*
X8644930Y-88980893D01*
X9157670Y-88980893D01*
X10000000Y-89823223D01*
X10842330Y-88980893D01*
X10764747Y-88734753D01*
X10222345Y-88538408D01*
X9646093Y-88564577D01*
X9235253Y-88734753D01*
X9157670Y-88980893D01*
X8644930Y-88980893D01*
X8645178Y-88697009D01*
X8489459Y-88320143D01*
X8370000Y-88200475D01*
X8370000Y-84765660D01*
X13230330Y-79905330D01*
X13288160Y-79818781D01*
X13392910Y-79662013D01*
X13450000Y-79375000D01*
X13450000Y-76264613D01*
X13568446Y-76146374D01*
X13695863Y-75839521D01*
X14490000Y-76633658D01*
X14490000Y-76633658D01*
G37*
X14490000Y-76633658D02*
X14490000Y-90805000D01*
X14547090Y-91092013D01*
X14709670Y-91335330D01*
X19144340Y-95770000D01*
X14280660Y-95770000D01*
X9963799Y-91453139D01*
X10353907Y-91435423D01*
X10764747Y-91265247D01*
X10842330Y-91019107D01*
X10000000Y-90176777D01*
X9985858Y-90190919D01*
X9809081Y-90014142D01*
X9823223Y-90000000D01*
X10176777Y-90000000D01*
X11019107Y-90842330D01*
X11265247Y-90764747D01*
X11461592Y-90222345D01*
X11435423Y-89646093D01*
X11265247Y-89235253D01*
X11019107Y-89157670D01*
X10176777Y-90000000D01*
X9823223Y-90000000D01*
X8980893Y-89157670D01*
X8734753Y-89235253D01*
X8538408Y-89777655D01*
X8550306Y-90039646D01*
X8370000Y-89859340D01*
X8370000Y-89599613D01*
X8488446Y-89481374D01*
X8644822Y-89104780D01*
X8644930Y-88980893D01*
X9157670Y-88980893D01*
X10000000Y-89823223D01*
X10842330Y-88980893D01*
X10764747Y-88734753D01*
X10222345Y-88538408D01*
X9646093Y-88564577D01*
X9235253Y-88734753D01*
X9157670Y-88980893D01*
X8644930Y-88980893D01*
X8645178Y-88697009D01*
X8489459Y-88320143D01*
X8370000Y-88200475D01*
X8370000Y-84765660D01*
X13230330Y-79905330D01*
X13288160Y-79818781D01*
X13392910Y-79662013D01*
X13450000Y-79375000D01*
X13450000Y-76264613D01*
X13568446Y-76146374D01*
X13695863Y-75839521D01*
X14490000Y-76633658D01*
G36*
X10190919Y-63315858D02*
X10176777Y-63330000D01*
X10190919Y-63344142D01*
X10014142Y-63520919D01*
X10000000Y-63506777D01*
X9985858Y-63520919D01*
X9809081Y-63344142D01*
X9823223Y-63330000D01*
X9809081Y-63315858D01*
X9985858Y-63139081D01*
X10000000Y-63153223D01*
X10014142Y-63139081D01*
X10190919Y-63315858D01*
X10190919Y-63315858D01*
G37*
X10190919Y-63315858D02*
X10176777Y-63330000D01*
X10190919Y-63344142D01*
X10014142Y-63520919D01*
X10000000Y-63506777D01*
X9985858Y-63520919D01*
X9809081Y-63344142D01*
X9823223Y-63330000D01*
X9809081Y-63315858D01*
X9985858Y-63139081D01*
X10000000Y-63153223D01*
X10014142Y-63139081D01*
X10190919Y-63315858D01*
G36*
X10190919Y-36655858D02*
X10176777Y-36670000D01*
X10190919Y-36684142D01*
X10014142Y-36860919D01*
X10000000Y-36846777D01*
X9985858Y-36860919D01*
X9809081Y-36684142D01*
X9823223Y-36670000D01*
X9809081Y-36655858D01*
X9985858Y-36479081D01*
X10000000Y-36493223D01*
X10014142Y-36479081D01*
X10190919Y-36655858D01*
X10190919Y-36655858D01*
G37*
X10190919Y-36655858D02*
X10176777Y-36670000D01*
X10190919Y-36684142D01*
X10014142Y-36860919D01*
X10000000Y-36846777D01*
X9985858Y-36860919D01*
X9809081Y-36684142D01*
X9823223Y-36670000D01*
X9809081Y-36655858D01*
X9985858Y-36479081D01*
X10000000Y-36493223D01*
X10014142Y-36479081D01*
X10190919Y-36655858D01*
G36*
X88867950Y-62374730D02*
X88980891Y-62487671D01*
X88734753Y-62565253D01*
X88538408Y-63107655D01*
X88564577Y-63683907D01*
X88703792Y-64020000D01*
X88653149Y-64020000D01*
X88237819Y-63604670D01*
X87994502Y-63442090D01*
X87707489Y-63385000D01*
X80903931Y-63385000D01*
X81034822Y-63069780D01*
X81034970Y-62900690D01*
X81590660Y-62345000D01*
X88897680Y-62345000D01*
X88867950Y-62374730D01*
X88867950Y-62374730D01*
G37*
X88867950Y-62374730D02*
X88980891Y-62487671D01*
X88734753Y-62565253D01*
X88538408Y-63107655D01*
X88564577Y-63683907D01*
X88703792Y-64020000D01*
X88653149Y-64020000D01*
X88237819Y-63604670D01*
X87994502Y-63442090D01*
X87707489Y-63385000D01*
X80903931Y-63385000D01*
X81034822Y-63069780D01*
X81034970Y-62900690D01*
X81590660Y-62345000D01*
X88897680Y-62345000D01*
X88867950Y-62374730D01*
G36*
X90190919Y-63315858D02*
X90176777Y-63330000D01*
X90190919Y-63344142D01*
X90014142Y-63520919D01*
X90000000Y-63506777D01*
X89985858Y-63520919D01*
X89809081Y-63344142D01*
X89823223Y-63330000D01*
X89809081Y-63315858D01*
X89985858Y-63139081D01*
X90000000Y-63153223D01*
X90014142Y-63139081D01*
X90190919Y-63315858D01*
X90190919Y-63315858D01*
G37*
X90190919Y-63315858D02*
X90176777Y-63330000D01*
X90190919Y-63344142D01*
X90014142Y-63520919D01*
X90000000Y-63506777D01*
X89985858Y-63520919D01*
X89809081Y-63344142D01*
X89823223Y-63330000D01*
X89809081Y-63315858D01*
X89985858Y-63139081D01*
X90000000Y-63153223D01*
X90014142Y-63139081D01*
X90190919Y-63315858D01*
G36*
X90190919Y-36655858D02*
X90176777Y-36670000D01*
X90190919Y-36684142D01*
X90014142Y-36860919D01*
X90000000Y-36846777D01*
X89985858Y-36860919D01*
X89809081Y-36684142D01*
X89823223Y-36670000D01*
X89809081Y-36655858D01*
X89985858Y-36479081D01*
X90000000Y-36493223D01*
X90014142Y-36479081D01*
X90190919Y-36655858D01*
X90190919Y-36655858D01*
G37*
X90190919Y-36655858D02*
X90176777Y-36670000D01*
X90190919Y-36684142D01*
X90014142Y-36860919D01*
X90000000Y-36846777D01*
X89985858Y-36860919D01*
X89809081Y-36684142D01*
X89823223Y-36670000D01*
X89809081Y-36655858D01*
X89985858Y-36479081D01*
X90000000Y-36493223D01*
X90014142Y-36479081D01*
X90190919Y-36655858D01*
M02*
