M48
;DRILL file {KiCad 4.0.7} date 10/23/17 22:28:36
;FORMAT={-:-/ absolute / inch / decimal}
FMAT,2
INCH,TZ
T1C0.016
T2C0.030
T3C0.039
T4C0.126
%
G90
G05
M72
T1
X0.1969Y-0.3937
X0.1969Y-0.5906
X0.1969Y-0.7874
X0.1969Y-3.1496
X0.1969Y-3.5433
X0.3Y-3.5
X0.325Y-0.925
X0.3289Y-2.899
X0.3937Y-0.1969
X0.3937Y-3.7402
X0.5Y-0.95
X0.5Y-2.975
X0.5118Y-0.8268
X0.525Y-0.425
X0.525Y-1.45
X0.525Y-2.5
X0.55Y-3.15
X0.6Y-1.95
X0.6143Y-2.0499
X0.625Y-3.725
X0.65Y-3.475
X0.675Y-1.85
X0.75Y-1.45
X0.75Y-2.5
X0.775Y-1.65
X0.7874Y-0.8268
X0.7874Y-2.9528
X0.7874Y-3.1496
X0.7874Y-3.3858
X0.7931Y-2.3498
X0.8221Y-1.5651
X0.825Y-2.25
X0.8661Y-0.5118
X0.8728Y-1.3345
X0.8906Y-1.2509
X0.925Y-2.75
X0.9449Y-0.8268
X0.9449Y-1.8504
X0.9449Y-2.0669
X0.9843Y-2.9528
X0.9843Y-3.1496
X0.9843Y-3.3858
X0.9843Y-3.8583
X1.025Y-1.05
X1.05Y-2.6
X1.1024Y-0.8268
X1.1024Y-1.378
X1.1024Y-1.5354
X1.1024Y-2.2244
X1.1811Y-3.3858
X1.2205Y-1.1024
X1.2598Y-0.5906
X1.2992Y-0.0787
X1.2992Y-0.315
X1.2992Y-2.7559
X1.3Y-0.475
X1.35Y-3.8
X1.55Y-0.2
X1.55Y-3.45
X1.6535Y-0.0787
X1.6535Y-0.315
X1.7717Y-0.5906
X1.7717Y-2.6378
X1.7717Y-3.3858
X1.7717Y-3.8583
X1.9685Y-0.5906
X1.9685Y-0.9449
X1.9685Y-1.6142
X1.9685Y-2.2835
X1.9685Y-2.9921
X1.9685Y-3.3858
X2.1654Y-0.5906
X2.1654Y-1.2598
X2.1654Y-1.9685
X2.1654Y-3.3858
X2.1654Y-3.8583
X2.375Y-0.525
X2.4Y-3.8
X2.6Y-0.2
X2.6Y-3.45
X2.6575Y-2.815
X2.7559Y-0.0787
X2.7559Y-0.5906
X2.7559Y-1.1024
X2.8346Y-1.7323
X2.8346Y-2.4016
X2.9406Y-1.3496
X2.947Y-1.1505
X2.9528Y-0.0787
X2.9528Y-0.5906
X2.9528Y-0.7874
X2.9528Y-0.9843
X2.9528Y-3.1496
X2.9528Y-3.3858
X3.0118Y-2.0669
X3.0998Y-2.5582
X3.125Y-2.75
X3.1496Y-0.0787
X3.1496Y-0.5906
X3.1496Y-0.7874
X3.1496Y-0.9843
X3.1496Y-2.9528
X3.1496Y-3.1496
X3.1496Y-3.3858
X3.15Y-1.65
X3.15Y-2.475
X3.175Y-1.55
X3.225Y-2.25
X3.2686Y-1.8498
X3.275Y-2.15
X3.2803Y-1.9504
X3.3465Y-0.7874
X3.3465Y-0.9843
X3.3465Y-2.9528
X3.3465Y-3.1496
X3.35Y-1.425
X3.35Y-2.475
X3.4Y-0.475
X3.4Y-3.55
X3.425Y-0.825
X3.425Y-3.05
X3.5433Y-0.1969
X3.5433Y-3.7402
X3.5615Y-0.9265
X3.6Y-3.05
X3.6Y-3.25
X3.65Y-0.425
X3.65Y-3.45
X3.7402Y-0.3937
X3.7402Y-0.5906
X3.7402Y-0.7874
X3.7402Y-3.5433
T2
X0.7874Y-1.8701
X0.7874Y-2.0669
X0.9843Y-1.5276
X0.9843Y-1.7244
X0.9843Y-2.2126
X0.9843Y-2.4094
X1.1811Y-1.185
X1.1811Y-1.3819
X1.1811Y-1.8701
X1.1811Y-2.0669
X1.1811Y-2.5551
X1.1811Y-2.752
X1.378Y-0.8425
X1.378Y-1.0394
X1.378Y-1.5276
X1.378Y-1.7244
X1.378Y-2.2126
X1.378Y-2.4094
X1.378Y-2.8976
X1.378Y-3.0945
X1.5748Y-1.185
X1.5748Y-1.3819
X1.5748Y-1.8701
X1.5748Y-2.0669
X1.5748Y-2.5551
X1.5748Y-2.752
X1.7717Y-0.8425
X1.7717Y-1.0394
X1.7717Y-1.5276
X1.7717Y-1.7244
X1.7717Y-2.2126
X1.7717Y-2.4094
X1.7717Y-2.8976
X1.7717Y-3.0945
X1.9685Y-1.185
X1.9685Y-1.3819
X1.9685Y-1.8701
X1.9685Y-2.0669
X1.9685Y-2.5551
X1.9685Y-2.752
X2.1654Y-0.8425
X2.1654Y-1.0394
X2.1654Y-1.5276
X2.1654Y-1.7244
X2.1654Y-2.2126
X2.1654Y-2.4094
X2.1654Y-2.8976
X2.1654Y-3.0945
X2.3622Y-1.185
X2.3622Y-1.3819
X2.3622Y-1.8701
X2.3622Y-2.0669
X2.3622Y-2.5551
X2.3622Y-2.752
X2.5591Y-0.8425
X2.5591Y-1.0394
X2.5591Y-1.5276
X2.5591Y-1.7244
X2.5591Y-2.2126
X2.5591Y-2.4094
X2.5591Y-2.8976
X2.5591Y-3.0945
X2.7559Y-1.185
X2.7559Y-1.3819
X2.7559Y-1.8701
X2.7559Y-2.0669
X2.7559Y-2.5551
X2.7559Y-2.752
X2.9528Y-1.5276
X2.9528Y-1.7244
X2.9528Y-2.2126
X2.9528Y-2.4094
X3.1496Y-1.8701
X3.1496Y-2.0669
T3
X0.15Y-1.
X0.15Y-1.1
X0.15Y-1.2
X0.15Y-1.3
X0.15Y-1.4
X0.15Y-1.5
X0.15Y-1.6
X0.15Y-1.7
X0.15Y-1.8
X0.15Y-1.9
X0.15Y-2.
X0.15Y-2.1
X0.15Y-2.2
X0.15Y-2.3
X0.15Y-2.4
X0.15Y-2.5
X0.15Y-2.6
X0.15Y-2.7
X0.15Y-2.8
X0.15Y-2.9
X0.25Y-1.
X0.25Y-1.1
X0.25Y-1.2
X0.25Y-1.3
X0.25Y-1.4
X0.25Y-1.5
X0.25Y-1.6
X0.25Y-1.7
X0.25Y-1.8
X0.25Y-1.9
X0.25Y-2.
X0.25Y-2.1
X0.25Y-2.2
X0.25Y-2.3
X0.25Y-2.4
X0.25Y-2.5
X0.25Y-2.6
X0.25Y-2.7
X0.25Y-2.8
X0.25Y-2.9
X0.3937Y-0.3937
X0.3937Y-1.4437
X0.3937Y-2.4933
X0.3937Y-3.5433
X0.7Y-0.2
X0.7Y-0.3
X0.8Y-0.2
X0.8Y-0.3
X0.9Y-0.2
X0.9Y-0.3
X1.Y-0.2
X1.Y-0.3
X1.1Y-0.2
X1.1Y-0.3
X1.4437Y-0.3937
X1.4437Y-3.5433
X2.4933Y-0.3937
X2.4933Y-3.5433
X2.8Y-3.7
X2.8Y-3.8
X2.9Y-3.7
X2.9Y-3.8
X3.Y-3.7
X3.Y-3.8
X3.1Y-3.7
X3.1Y-3.8
X3.2Y-3.7
X3.2Y-3.8
X3.5433Y-0.3937
X3.5433Y-1.4437
X3.5433Y-2.4933
X3.5433Y-3.5433
X3.7Y-1.
X3.7Y-1.1
X3.7Y-1.2
X3.7Y-1.3
X3.7Y-1.4
X3.7Y-1.5
X3.7Y-1.6
X3.7Y-1.7
X3.7Y-1.8
X3.7Y-1.9
X3.7Y-2.
X3.7Y-2.1
X3.7Y-2.2
X3.7Y-2.3
X3.7Y-2.4
X3.7Y-2.5
X3.7Y-2.6
X3.7Y-2.7
X3.7Y-2.8
X3.7Y-2.9
X3.8Y-1.
X3.8Y-1.1
X3.8Y-1.2
X3.8Y-1.3
X3.8Y-1.4
X3.8Y-1.5
X3.8Y-1.6
X3.8Y-1.7
X3.8Y-1.8
X3.8Y-1.9
X3.8Y-2.
X3.8Y-2.1
X3.8Y-2.2
X3.8Y-2.3
X3.8Y-2.4
X3.8Y-2.5
X3.8Y-2.6
X3.8Y-2.7
X3.8Y-2.8
X3.8Y-2.9
T4
X0.1969Y-0.1969
X0.1969Y-3.7402
X3.7402Y-0.1969
X3.7402Y-3.7402
T0
M30
