G04 #@! TF.FileFunction,Soldermask,Bot*
%FSLAX46Y46*%
G04 Gerber Fmt 4.6, Leading zero omitted, Abs format (unit mm)*
G04 Created by KiCad (PCBNEW 4.0.7) date 10/23/17 22:32:18*
%MOMM*%
%LPD*%
G01*
G04 APERTURE LIST*
%ADD10C,0.100000*%
%ADD11R,1.924000X1.924000*%
%ADD12C,1.924000*%
%ADD13C,1.670000*%
%ADD14R,0.720000X0.520000*%
%ADD15R,2.100000X2.100000*%
%ADD16O,2.100000X2.100000*%
%ADD17R,1.600000X1.150000*%
%ADD18C,6.800000*%
G04 APERTURE END LIST*
D10*
D11*
X60000000Y-52500000D03*
D12*
X60000000Y-47500000D03*
D11*
X40000000Y-30100000D03*
D12*
X40000000Y-35100000D03*
D11*
X35000000Y-38800000D03*
D12*
X35000000Y-43800000D03*
D11*
X25000000Y-38800000D03*
D12*
X25000000Y-43800000D03*
D11*
X30000000Y-30100000D03*
D12*
X30000000Y-35100000D03*
D11*
X40000000Y-47500000D03*
D12*
X40000000Y-52500000D03*
D11*
X40000000Y-64900000D03*
D12*
X40000000Y-69900000D03*
D11*
X35000000Y-56200000D03*
D12*
X35000000Y-61200000D03*
D11*
X25000000Y-56200000D03*
D12*
X25000000Y-61200000D03*
D11*
X30000000Y-47500000D03*
D12*
X30000000Y-52500000D03*
D11*
X30000000Y-64900000D03*
D12*
X30000000Y-69900000D03*
D11*
X65000000Y-78600000D03*
D12*
X65000000Y-73600000D03*
D11*
X55000000Y-78600000D03*
D12*
X55000000Y-73600000D03*
D11*
X45000000Y-73600000D03*
D12*
X45000000Y-78600000D03*
D11*
X35000000Y-73600000D03*
D12*
X35000000Y-78600000D03*
D11*
X70000000Y-69900000D03*
D12*
X70000000Y-64900000D03*
D11*
X60000000Y-69900000D03*
D12*
X60000000Y-64900000D03*
D11*
X50000000Y-69900000D03*
D12*
X50000000Y-64900000D03*
D11*
X75000000Y-61200000D03*
D12*
X75000000Y-56200000D03*
D11*
X65000000Y-61200000D03*
D12*
X65000000Y-56200000D03*
D11*
X55000000Y-61200000D03*
D12*
X55000000Y-56200000D03*
D11*
X45000000Y-56200000D03*
D12*
X45000000Y-61200000D03*
D11*
X80000000Y-52500000D03*
D12*
X80000000Y-47500000D03*
D11*
X70000000Y-52500000D03*
D12*
X70000000Y-47500000D03*
D11*
X50000000Y-47500000D03*
D12*
X50000000Y-52500000D03*
D11*
X20000000Y-47500000D03*
D12*
X20000000Y-52500000D03*
D11*
X75000000Y-43800000D03*
D12*
X75000000Y-38800000D03*
D11*
X65000000Y-43800000D03*
D12*
X65000000Y-38800000D03*
D11*
X55000000Y-43800000D03*
D12*
X55000000Y-38800000D03*
D11*
X45000000Y-38800000D03*
D12*
X45000000Y-43800000D03*
D11*
X70000000Y-35100000D03*
D12*
X70000000Y-30100000D03*
D11*
X60000000Y-35100000D03*
D12*
X60000000Y-30100000D03*
D11*
X50000000Y-30100000D03*
D12*
X50000000Y-35100000D03*
D11*
X65000000Y-26400000D03*
D12*
X65000000Y-21400000D03*
D11*
X55000000Y-26400000D03*
D12*
X55000000Y-21400000D03*
D11*
X45000000Y-21400000D03*
D12*
X45000000Y-26400000D03*
D13*
X10000000Y-36670000D03*
D14*
X10837500Y-34596000D03*
X10837500Y-35418000D03*
X9162500Y-34596000D03*
X9162500Y-35418000D03*
D13*
X10000000Y-63330000D03*
D14*
X9162500Y-65404000D03*
X9162500Y-64582000D03*
X10837500Y-65404000D03*
X10837500Y-64582000D03*
D13*
X10000000Y-90000000D03*
D14*
X10837500Y-87926000D03*
X10837500Y-88748000D03*
X9162500Y-87926000D03*
X9162500Y-88748000D03*
D13*
X36670000Y-90000000D03*
D14*
X37507500Y-87926000D03*
X37507500Y-88748000D03*
X35832500Y-87926000D03*
X35832500Y-88748000D03*
D13*
X63330000Y-90000000D03*
D14*
X64167500Y-87926000D03*
X64167500Y-88748000D03*
X62492500Y-87926000D03*
X62492500Y-88748000D03*
D13*
X90000000Y-90000000D03*
D14*
X90837500Y-87926000D03*
X90837500Y-88748000D03*
X89162500Y-87926000D03*
X89162500Y-88748000D03*
D13*
X90000000Y-63330000D03*
D14*
X89162500Y-65404000D03*
X89162500Y-64582000D03*
X90837500Y-65404000D03*
X90837500Y-64582000D03*
D13*
X90000000Y-36670000D03*
D14*
X90837500Y-34596000D03*
X90837500Y-35418000D03*
X89162500Y-34596000D03*
X89162500Y-35418000D03*
D13*
X90000000Y-10000000D03*
D14*
X89162500Y-12074000D03*
X89162500Y-11252000D03*
X90837500Y-12074000D03*
X90837500Y-11252000D03*
D13*
X63330000Y-10000000D03*
D14*
X62492500Y-12074000D03*
X62492500Y-11252000D03*
X64167500Y-12074000D03*
X64167500Y-11252000D03*
D13*
X36670000Y-10000000D03*
D14*
X35832500Y-12074000D03*
X35832500Y-11252000D03*
X37507500Y-12074000D03*
X37507500Y-11252000D03*
D13*
X10000000Y-10000000D03*
D14*
X9162500Y-12074000D03*
X9162500Y-11252000D03*
X10837500Y-12074000D03*
X10837500Y-11252000D03*
D15*
X71120000Y-96520000D03*
D16*
X71120000Y-93980000D03*
X73660000Y-96520000D03*
X73660000Y-93980000D03*
X76200000Y-96520000D03*
X76200000Y-93980000D03*
X78740000Y-96520000D03*
X78740000Y-93980000D03*
X81280000Y-96520000D03*
X81280000Y-93980000D03*
D15*
X93980000Y-25400000D03*
D16*
X96520000Y-25400000D03*
X93980000Y-27940000D03*
X96520000Y-27940000D03*
X93980000Y-30480000D03*
X96520000Y-30480000D03*
X93980000Y-33020000D03*
X96520000Y-33020000D03*
X93980000Y-35560000D03*
X96520000Y-35560000D03*
X93980000Y-38100000D03*
X96520000Y-38100000D03*
X93980000Y-40640000D03*
X96520000Y-40640000D03*
X93980000Y-43180000D03*
X96520000Y-43180000D03*
X93980000Y-45720000D03*
X96520000Y-45720000D03*
X93980000Y-48260000D03*
X96520000Y-48260000D03*
X93980000Y-50800000D03*
X96520000Y-50800000D03*
X93980000Y-53340000D03*
X96520000Y-53340000D03*
X93980000Y-55880000D03*
X96520000Y-55880000D03*
X93980000Y-58420000D03*
X96520000Y-58420000D03*
X93980000Y-60960000D03*
X96520000Y-60960000D03*
X93980000Y-63500000D03*
X96520000Y-63500000D03*
X93980000Y-66040000D03*
X96520000Y-66040000D03*
X93980000Y-68580000D03*
X96520000Y-68580000D03*
X93980000Y-71120000D03*
X96520000Y-71120000D03*
X93980000Y-73660000D03*
X96520000Y-73660000D03*
D15*
X27940000Y-5080000D03*
D16*
X27940000Y-7620000D03*
X25400000Y-5080000D03*
X25400000Y-7620000D03*
X22860000Y-5080000D03*
X22860000Y-7620000D03*
X20320000Y-5080000D03*
X20320000Y-7620000D03*
X17780000Y-5080000D03*
X17780000Y-7620000D03*
D17*
X9210000Y-32385000D03*
X11110000Y-32385000D03*
X11110000Y-67310000D03*
X9210000Y-67310000D03*
X9210000Y-85725000D03*
X11110000Y-85725000D03*
X35880000Y-85725000D03*
X37780000Y-85725000D03*
X62550000Y-85725000D03*
X64450000Y-85725000D03*
X89220000Y-85725000D03*
X91120000Y-85725000D03*
X90485000Y-67310000D03*
X88585000Y-67310000D03*
X88585000Y-32385000D03*
X90485000Y-32385000D03*
X91120000Y-14605000D03*
X89220000Y-14605000D03*
X64450000Y-14605000D03*
X62550000Y-14605000D03*
X37780000Y-14605000D03*
X35880000Y-14605000D03*
X11110000Y-14605000D03*
X9210000Y-14605000D03*
D11*
X35000000Y-21400000D03*
D12*
X35000000Y-26400000D03*
D15*
X3810000Y-25400000D03*
D16*
X6350000Y-25400000D03*
X3810000Y-27940000D03*
X6350000Y-27940000D03*
X3810000Y-30480000D03*
X6350000Y-30480000D03*
X3810000Y-33020000D03*
X6350000Y-33020000D03*
X3810000Y-35560000D03*
X6350000Y-35560000D03*
X3810000Y-38100000D03*
X6350000Y-38100000D03*
X3810000Y-40640000D03*
X6350000Y-40640000D03*
X3810000Y-43180000D03*
X6350000Y-43180000D03*
X3810000Y-45720000D03*
X6350000Y-45720000D03*
X3810000Y-48260000D03*
X6350000Y-48260000D03*
X3810000Y-50800000D03*
X6350000Y-50800000D03*
X3810000Y-53340000D03*
X6350000Y-53340000D03*
X3810000Y-55880000D03*
X6350000Y-55880000D03*
X3810000Y-58420000D03*
X6350000Y-58420000D03*
X3810000Y-60960000D03*
X6350000Y-60960000D03*
X3810000Y-63500000D03*
X6350000Y-63500000D03*
X3810000Y-66040000D03*
X6350000Y-66040000D03*
X3810000Y-68580000D03*
X6350000Y-68580000D03*
X3810000Y-71120000D03*
X6350000Y-71120000D03*
X3810000Y-73660000D03*
X6350000Y-73660000D03*
D18*
X5000000Y-5000000D03*
X95000000Y-5000000D03*
X95000000Y-95000000D03*
X5000000Y-95000000D03*
M02*
