G04 #@! TF.FileFunction,Soldermask,Top*
%FSLAX46Y46*%
G04 Gerber Fmt 4.6, Leading zero omitted, Abs format (unit mm)*
G04 Created by KiCad (PCBNEW 4.0.7) date 12/17/17 16:59:44*
%MOMM*%
%LPD*%
G01*
G04 APERTURE LIST*
%ADD10C,0.100000*%
%ADD11R,0.650000X1.075000*%
%ADD12R,1.075000X0.650000*%
%ADD13R,1.150000X1.600000*%
%ADD14R,1.600000X1.150000*%
%ADD15R,1.924000X1.924000*%
%ADD16C,1.924000*%
%ADD17C,1.670000*%
%ADD18R,2.100000X2.100000*%
%ADD19O,2.100000X2.100000*%
%ADD20C,6.800000*%
%ADD21R,1.400000X1.200000*%
G04 APERTURE END LIST*
D10*
D11*
X80010000Y-89277500D03*
X80510000Y-89277500D03*
X79510000Y-89277500D03*
X80510000Y-87252500D03*
X80010000Y-87252500D03*
X79510000Y-87252500D03*
D12*
X81272500Y-89015000D03*
X81272500Y-88515000D03*
X81272500Y-88015000D03*
X81272500Y-87515000D03*
X78747500Y-87515000D03*
X78747500Y-88015000D03*
X78747500Y-88515000D03*
X78747500Y-89015000D03*
D13*
X76835000Y-87630000D03*
X76835000Y-89530000D03*
D14*
X80965000Y-85090000D03*
X82865000Y-85090000D03*
D15*
X60000000Y-52500000D03*
D16*
X60000000Y-47500000D03*
D15*
X40000000Y-30100000D03*
D16*
X40000000Y-35100000D03*
D15*
X35000000Y-38800000D03*
D16*
X35000000Y-43800000D03*
D15*
X25000000Y-38800000D03*
D16*
X25000000Y-43800000D03*
D15*
X30000000Y-30100000D03*
D16*
X30000000Y-35100000D03*
D15*
X40000000Y-47500000D03*
D16*
X40000000Y-52500000D03*
D15*
X40000000Y-64900000D03*
D16*
X40000000Y-69900000D03*
D15*
X35000000Y-56200000D03*
D16*
X35000000Y-61200000D03*
D15*
X25000000Y-56200000D03*
D16*
X25000000Y-61200000D03*
D15*
X30000000Y-47500000D03*
D16*
X30000000Y-52500000D03*
D15*
X30000000Y-64900000D03*
D16*
X30000000Y-69900000D03*
D15*
X65000000Y-78600000D03*
D16*
X65000000Y-73600000D03*
D15*
X55000000Y-78600000D03*
D16*
X55000000Y-73600000D03*
D15*
X45000000Y-73600000D03*
D16*
X45000000Y-78600000D03*
D15*
X35000000Y-73600000D03*
D16*
X35000000Y-78600000D03*
D15*
X70000000Y-69900000D03*
D16*
X70000000Y-64900000D03*
D15*
X60000000Y-69900000D03*
D16*
X60000000Y-64900000D03*
D15*
X50000000Y-69900000D03*
D16*
X50000000Y-64900000D03*
D15*
X75000000Y-61200000D03*
D16*
X75000000Y-56200000D03*
D15*
X65000000Y-61200000D03*
D16*
X65000000Y-56200000D03*
D15*
X55000000Y-61200000D03*
D16*
X55000000Y-56200000D03*
D15*
X45000000Y-56200000D03*
D16*
X45000000Y-61200000D03*
D15*
X80000000Y-52500000D03*
D16*
X80000000Y-47500000D03*
D15*
X70000000Y-52500000D03*
D16*
X70000000Y-47500000D03*
D15*
X50000000Y-47500000D03*
D16*
X50000000Y-52500000D03*
D15*
X20000000Y-47500000D03*
D16*
X20000000Y-52500000D03*
D15*
X75000000Y-43800000D03*
D16*
X75000000Y-38800000D03*
D15*
X65000000Y-43800000D03*
D16*
X65000000Y-38800000D03*
D15*
X55000000Y-43800000D03*
D16*
X55000000Y-38800000D03*
D15*
X45000000Y-38800000D03*
D16*
X45000000Y-43800000D03*
D15*
X70000000Y-35100000D03*
D16*
X70000000Y-30100000D03*
D15*
X60000000Y-35100000D03*
D16*
X60000000Y-30100000D03*
D15*
X50000000Y-30100000D03*
D16*
X50000000Y-35100000D03*
D15*
X65000000Y-26400000D03*
D16*
X65000000Y-21400000D03*
D15*
X55000000Y-26400000D03*
D16*
X55000000Y-21400000D03*
D15*
X45000000Y-21400000D03*
D16*
X45000000Y-26400000D03*
D17*
X10000000Y-36670000D03*
X10000000Y-63330000D03*
X10000000Y-90000000D03*
X36670000Y-90000000D03*
X63330000Y-90000000D03*
X90000000Y-90000000D03*
X90000000Y-63330000D03*
X90000000Y-36670000D03*
X90000000Y-10000000D03*
X63330000Y-10000000D03*
X36670000Y-10000000D03*
X10000000Y-10000000D03*
D18*
X93980000Y-25400000D03*
D19*
X96520000Y-25400000D03*
X93980000Y-27940000D03*
X96520000Y-27940000D03*
X93980000Y-30480000D03*
X96520000Y-30480000D03*
X93980000Y-33020000D03*
X96520000Y-33020000D03*
X93980000Y-35560000D03*
X96520000Y-35560000D03*
X93980000Y-38100000D03*
X96520000Y-38100000D03*
X93980000Y-40640000D03*
X96520000Y-40640000D03*
X93980000Y-43180000D03*
X96520000Y-43180000D03*
X93980000Y-45720000D03*
X96520000Y-45720000D03*
X93980000Y-48260000D03*
X96520000Y-48260000D03*
X93980000Y-50800000D03*
X96520000Y-50800000D03*
X93980000Y-53340000D03*
X96520000Y-53340000D03*
X93980000Y-55880000D03*
X96520000Y-55880000D03*
X93980000Y-58420000D03*
X96520000Y-58420000D03*
X93980000Y-60960000D03*
X96520000Y-60960000D03*
X93980000Y-63500000D03*
X96520000Y-63500000D03*
X93980000Y-66040000D03*
X96520000Y-66040000D03*
X93980000Y-68580000D03*
X96520000Y-68580000D03*
X93980000Y-71120000D03*
X96520000Y-71120000D03*
X93980000Y-73660000D03*
X96520000Y-73660000D03*
D15*
X35000000Y-21400000D03*
D16*
X35000000Y-26400000D03*
D18*
X3810000Y-25400000D03*
D19*
X6350000Y-25400000D03*
X3810000Y-27940000D03*
X6350000Y-27940000D03*
X3810000Y-30480000D03*
X6350000Y-30480000D03*
X3810000Y-33020000D03*
X6350000Y-33020000D03*
X3810000Y-35560000D03*
X6350000Y-35560000D03*
X3810000Y-38100000D03*
X6350000Y-38100000D03*
X3810000Y-40640000D03*
X6350000Y-40640000D03*
X3810000Y-43180000D03*
X6350000Y-43180000D03*
X3810000Y-45720000D03*
X6350000Y-45720000D03*
X3810000Y-48260000D03*
X6350000Y-48260000D03*
X3810000Y-50800000D03*
X6350000Y-50800000D03*
X3810000Y-53340000D03*
X6350000Y-53340000D03*
X3810000Y-55880000D03*
X6350000Y-55880000D03*
X3810000Y-58420000D03*
X6350000Y-58420000D03*
X3810000Y-60960000D03*
X6350000Y-60960000D03*
X3810000Y-63500000D03*
X6350000Y-63500000D03*
X3810000Y-66040000D03*
X6350000Y-66040000D03*
X3810000Y-68580000D03*
X6350000Y-68580000D03*
X3810000Y-71120000D03*
X6350000Y-71120000D03*
X3810000Y-73660000D03*
X6350000Y-73660000D03*
D20*
X5000000Y-5000000D03*
X95000000Y-5000000D03*
X95000000Y-95000000D03*
X5000000Y-95000000D03*
D18*
X71120000Y-96520000D03*
D19*
X71120000Y-93980000D03*
X73660000Y-96520000D03*
X73660000Y-93980000D03*
X76200000Y-96520000D03*
X76200000Y-93980000D03*
X78740000Y-96520000D03*
X78740000Y-93980000D03*
X81280000Y-96520000D03*
X81280000Y-93980000D03*
X83820000Y-96520000D03*
X83820000Y-93980000D03*
X86360000Y-96520000D03*
X86360000Y-93980000D03*
D18*
X27940000Y-5080000D03*
D19*
X27940000Y-7620000D03*
X25400000Y-5080000D03*
X25400000Y-7620000D03*
X22860000Y-5080000D03*
X22860000Y-7620000D03*
X20320000Y-5080000D03*
X20320000Y-7620000D03*
X17780000Y-5080000D03*
X17780000Y-7620000D03*
X15240000Y-5080000D03*
X15240000Y-7620000D03*
X12700000Y-5080000D03*
X12700000Y-7620000D03*
D21*
X20435000Y-13250000D03*
X18935000Y-13250000D03*
X18935000Y-12150000D03*
X20435000Y-12150000D03*
M02*
