G04 #@! TF.FileFunction,Legend,Bot*
%FSLAX46Y46*%
G04 Gerber Fmt 4.6, Leading zero omitted, Abs format (unit mm)*
G04 Created by KiCad (PCBNEW 4.0.7) date 10/23/17 22:32:18*
%MOMM*%
%LPD*%
G01*
G04 APERTURE LIST*
%ADD10C,0.100000*%
%ADD11C,0.150000*%
%ADD12C,0.120000*%
G04 APERTURE END LIST*
D10*
D11*
X11400000Y-34170000D02*
X8600000Y-34170000D01*
X8600000Y-34170000D02*
X8600000Y-37770000D01*
X8600000Y-37770000D02*
X11400000Y-37770000D01*
X11400000Y-37770000D02*
X11400000Y-34170000D01*
X8600000Y-65830000D02*
X11400000Y-65830000D01*
X11400000Y-65830000D02*
X11400000Y-62230000D01*
X11400000Y-62230000D02*
X8600000Y-62230000D01*
X8600000Y-62230000D02*
X8600000Y-65830000D01*
X11400000Y-87500000D02*
X8600000Y-87500000D01*
X8600000Y-87500000D02*
X8600000Y-91100000D01*
X8600000Y-91100000D02*
X11400000Y-91100000D01*
X11400000Y-91100000D02*
X11400000Y-87500000D01*
X38070000Y-87500000D02*
X35270000Y-87500000D01*
X35270000Y-87500000D02*
X35270000Y-91100000D01*
X35270000Y-91100000D02*
X38070000Y-91100000D01*
X38070000Y-91100000D02*
X38070000Y-87500000D01*
X64730000Y-87500000D02*
X61930000Y-87500000D01*
X61930000Y-87500000D02*
X61930000Y-91100000D01*
X61930000Y-91100000D02*
X64730000Y-91100000D01*
X64730000Y-91100000D02*
X64730000Y-87500000D01*
X91400000Y-87500000D02*
X88600000Y-87500000D01*
X88600000Y-87500000D02*
X88600000Y-91100000D01*
X88600000Y-91100000D02*
X91400000Y-91100000D01*
X91400000Y-91100000D02*
X91400000Y-87500000D01*
X88600000Y-65830000D02*
X91400000Y-65830000D01*
X91400000Y-65830000D02*
X91400000Y-62230000D01*
X91400000Y-62230000D02*
X88600000Y-62230000D01*
X88600000Y-62230000D02*
X88600000Y-65830000D01*
X91400000Y-34170000D02*
X88600000Y-34170000D01*
X88600000Y-34170000D02*
X88600000Y-37770000D01*
X88600000Y-37770000D02*
X91400000Y-37770000D01*
X91400000Y-37770000D02*
X91400000Y-34170000D01*
X88600000Y-12500000D02*
X91400000Y-12500000D01*
X91400000Y-12500000D02*
X91400000Y-8900000D01*
X91400000Y-8900000D02*
X88600000Y-8900000D01*
X88600000Y-8900000D02*
X88600000Y-12500000D01*
X61930000Y-12500000D02*
X64730000Y-12500000D01*
X64730000Y-12500000D02*
X64730000Y-8900000D01*
X64730000Y-8900000D02*
X61930000Y-8900000D01*
X61930000Y-8900000D02*
X61930000Y-12500000D01*
X35270000Y-12500000D02*
X38070000Y-12500000D01*
X38070000Y-12500000D02*
X38070000Y-8900000D01*
X38070000Y-8900000D02*
X35270000Y-8900000D01*
X35270000Y-8900000D02*
X35270000Y-12500000D01*
X8600000Y-12500000D02*
X11400000Y-12500000D01*
X11400000Y-12500000D02*
X11400000Y-8900000D01*
X11400000Y-8900000D02*
X8600000Y-8900000D01*
X8600000Y-8900000D02*
X8600000Y-12500000D01*
D12*
X9810000Y-32985000D02*
X10510000Y-32985000D01*
X10510000Y-31785000D02*
X9810000Y-31785000D01*
X10510000Y-66710000D02*
X9810000Y-66710000D01*
X9810000Y-67910000D02*
X10510000Y-67910000D01*
X9810000Y-86325000D02*
X10510000Y-86325000D01*
X10510000Y-85125000D02*
X9810000Y-85125000D01*
X36480000Y-86325000D02*
X37180000Y-86325000D01*
X37180000Y-85125000D02*
X36480000Y-85125000D01*
X63150000Y-86325000D02*
X63850000Y-86325000D01*
X63850000Y-85125000D02*
X63150000Y-85125000D01*
X89820000Y-86325000D02*
X90520000Y-86325000D01*
X90520000Y-85125000D02*
X89820000Y-85125000D01*
X89885000Y-66710000D02*
X89185000Y-66710000D01*
X89185000Y-67910000D02*
X89885000Y-67910000D01*
X89185000Y-32985000D02*
X89885000Y-32985000D01*
X89885000Y-31785000D02*
X89185000Y-31785000D01*
X90520000Y-14005000D02*
X89820000Y-14005000D01*
X89820000Y-15205000D02*
X90520000Y-15205000D01*
X63850000Y-14005000D02*
X63150000Y-14005000D01*
X63150000Y-15205000D02*
X63850000Y-15205000D01*
X37180000Y-14005000D02*
X36480000Y-14005000D01*
X36480000Y-15205000D02*
X37180000Y-15205000D01*
X10510000Y-14005000D02*
X9810000Y-14005000D01*
X9810000Y-15205000D02*
X10510000Y-15205000D01*
D11*
X12023809Y-39222381D02*
X12023809Y-38222381D01*
X11690475Y-38936667D01*
X11357142Y-38222381D01*
X11357142Y-39222381D01*
X10880952Y-39222381D02*
X10880952Y-38222381D01*
X9833333Y-39127143D02*
X9880952Y-39174762D01*
X10023809Y-39222381D01*
X10119047Y-39222381D01*
X10261905Y-39174762D01*
X10357143Y-39079524D01*
X10404762Y-38984286D01*
X10452381Y-38793810D01*
X10452381Y-38650952D01*
X10404762Y-38460476D01*
X10357143Y-38365238D01*
X10261905Y-38270000D01*
X10119047Y-38222381D01*
X10023809Y-38222381D01*
X9880952Y-38270000D01*
X9833333Y-38317619D01*
X8880952Y-39222381D02*
X9452381Y-39222381D01*
X9166667Y-39222381D02*
X9166667Y-38222381D01*
X9261905Y-38365238D01*
X9357143Y-38460476D01*
X9452381Y-38508095D01*
X8500000Y-38317619D02*
X8452381Y-38270000D01*
X8357143Y-38222381D01*
X8119047Y-38222381D01*
X8023809Y-38270000D01*
X7976190Y-38317619D01*
X7928571Y-38412857D01*
X7928571Y-38508095D01*
X7976190Y-38650952D01*
X8547619Y-39222381D01*
X7928571Y-39222381D01*
X12023809Y-61682381D02*
X12023809Y-60682381D01*
X11690475Y-61396667D01*
X11357142Y-60682381D01*
X11357142Y-61682381D01*
X10880952Y-61682381D02*
X10880952Y-60682381D01*
X9833333Y-61587143D02*
X9880952Y-61634762D01*
X10023809Y-61682381D01*
X10119047Y-61682381D01*
X10261905Y-61634762D01*
X10357143Y-61539524D01*
X10404762Y-61444286D01*
X10452381Y-61253810D01*
X10452381Y-61110952D01*
X10404762Y-60920476D01*
X10357143Y-60825238D01*
X10261905Y-60730000D01*
X10119047Y-60682381D01*
X10023809Y-60682381D01*
X9880952Y-60730000D01*
X9833333Y-60777619D01*
X8880952Y-61682381D02*
X9452381Y-61682381D01*
X9166667Y-61682381D02*
X9166667Y-60682381D01*
X9261905Y-60825238D01*
X9357143Y-60920476D01*
X9452381Y-60968095D01*
X7928571Y-61682381D02*
X8500000Y-61682381D01*
X8214286Y-61682381D02*
X8214286Y-60682381D01*
X8309524Y-60825238D01*
X8404762Y-60920476D01*
X8500000Y-60968095D01*
X12023809Y-92552381D02*
X12023809Y-91552381D01*
X11690475Y-92266667D01*
X11357142Y-91552381D01*
X11357142Y-92552381D01*
X10880952Y-92552381D02*
X10880952Y-91552381D01*
X9833333Y-92457143D02*
X9880952Y-92504762D01*
X10023809Y-92552381D01*
X10119047Y-92552381D01*
X10261905Y-92504762D01*
X10357143Y-92409524D01*
X10404762Y-92314286D01*
X10452381Y-92123810D01*
X10452381Y-91980952D01*
X10404762Y-91790476D01*
X10357143Y-91695238D01*
X10261905Y-91600000D01*
X10119047Y-91552381D01*
X10023809Y-91552381D01*
X9880952Y-91600000D01*
X9833333Y-91647619D01*
X8880952Y-92552381D02*
X9452381Y-92552381D01*
X9166667Y-92552381D02*
X9166667Y-91552381D01*
X9261905Y-91695238D01*
X9357143Y-91790476D01*
X9452381Y-91838095D01*
X8261905Y-91552381D02*
X8166666Y-91552381D01*
X8071428Y-91600000D01*
X8023809Y-91647619D01*
X7976190Y-91742857D01*
X7928571Y-91933333D01*
X7928571Y-92171429D01*
X7976190Y-92361905D01*
X8023809Y-92457143D01*
X8071428Y-92504762D01*
X8166666Y-92552381D01*
X8261905Y-92552381D01*
X8357143Y-92504762D01*
X8404762Y-92457143D01*
X8452381Y-92361905D01*
X8500000Y-92171429D01*
X8500000Y-91933333D01*
X8452381Y-91742857D01*
X8404762Y-91647619D01*
X8357143Y-91600000D01*
X8261905Y-91552381D01*
X38217619Y-92552381D02*
X38217619Y-91552381D01*
X37884285Y-92266667D01*
X37550952Y-91552381D01*
X37550952Y-92552381D01*
X37074762Y-92552381D02*
X37074762Y-91552381D01*
X36027143Y-92457143D02*
X36074762Y-92504762D01*
X36217619Y-92552381D01*
X36312857Y-92552381D01*
X36455715Y-92504762D01*
X36550953Y-92409524D01*
X36598572Y-92314286D01*
X36646191Y-92123810D01*
X36646191Y-91980952D01*
X36598572Y-91790476D01*
X36550953Y-91695238D01*
X36455715Y-91600000D01*
X36312857Y-91552381D01*
X36217619Y-91552381D01*
X36074762Y-91600000D01*
X36027143Y-91647619D01*
X35550953Y-92552381D02*
X35360477Y-92552381D01*
X35265238Y-92504762D01*
X35217619Y-92457143D01*
X35122381Y-92314286D01*
X35074762Y-92123810D01*
X35074762Y-91742857D01*
X35122381Y-91647619D01*
X35170000Y-91600000D01*
X35265238Y-91552381D01*
X35455715Y-91552381D01*
X35550953Y-91600000D01*
X35598572Y-91647619D01*
X35646191Y-91742857D01*
X35646191Y-91980952D01*
X35598572Y-92076190D01*
X35550953Y-92123810D01*
X35455715Y-92171429D01*
X35265238Y-92171429D01*
X35170000Y-92123810D01*
X35122381Y-92076190D01*
X35074762Y-91980952D01*
X64877619Y-92552381D02*
X64877619Y-91552381D01*
X64544285Y-92266667D01*
X64210952Y-91552381D01*
X64210952Y-92552381D01*
X63734762Y-92552381D02*
X63734762Y-91552381D01*
X62687143Y-92457143D02*
X62734762Y-92504762D01*
X62877619Y-92552381D01*
X62972857Y-92552381D01*
X63115715Y-92504762D01*
X63210953Y-92409524D01*
X63258572Y-92314286D01*
X63306191Y-92123810D01*
X63306191Y-91980952D01*
X63258572Y-91790476D01*
X63210953Y-91695238D01*
X63115715Y-91600000D01*
X62972857Y-91552381D01*
X62877619Y-91552381D01*
X62734762Y-91600000D01*
X62687143Y-91647619D01*
X62115715Y-91980952D02*
X62210953Y-91933333D01*
X62258572Y-91885714D01*
X62306191Y-91790476D01*
X62306191Y-91742857D01*
X62258572Y-91647619D01*
X62210953Y-91600000D01*
X62115715Y-91552381D01*
X61925238Y-91552381D01*
X61830000Y-91600000D01*
X61782381Y-91647619D01*
X61734762Y-91742857D01*
X61734762Y-91790476D01*
X61782381Y-91885714D01*
X61830000Y-91933333D01*
X61925238Y-91980952D01*
X62115715Y-91980952D01*
X62210953Y-92028571D01*
X62258572Y-92076190D01*
X62306191Y-92171429D01*
X62306191Y-92361905D01*
X62258572Y-92457143D01*
X62210953Y-92504762D01*
X62115715Y-92552381D01*
X61925238Y-92552381D01*
X61830000Y-92504762D01*
X61782381Y-92457143D01*
X61734762Y-92361905D01*
X61734762Y-92171429D01*
X61782381Y-92076190D01*
X61830000Y-92028571D01*
X61925238Y-91980952D01*
X91547619Y-92552381D02*
X91547619Y-91552381D01*
X91214285Y-92266667D01*
X90880952Y-91552381D01*
X90880952Y-92552381D01*
X90404762Y-92552381D02*
X90404762Y-91552381D01*
X89357143Y-92457143D02*
X89404762Y-92504762D01*
X89547619Y-92552381D01*
X89642857Y-92552381D01*
X89785715Y-92504762D01*
X89880953Y-92409524D01*
X89928572Y-92314286D01*
X89976191Y-92123810D01*
X89976191Y-91980952D01*
X89928572Y-91790476D01*
X89880953Y-91695238D01*
X89785715Y-91600000D01*
X89642857Y-91552381D01*
X89547619Y-91552381D01*
X89404762Y-91600000D01*
X89357143Y-91647619D01*
X89023810Y-91552381D02*
X88357143Y-91552381D01*
X88785715Y-92552381D01*
X91547619Y-61682381D02*
X91547619Y-60682381D01*
X91214285Y-61396667D01*
X90880952Y-60682381D01*
X90880952Y-61682381D01*
X90404762Y-61682381D02*
X90404762Y-60682381D01*
X89357143Y-61587143D02*
X89404762Y-61634762D01*
X89547619Y-61682381D01*
X89642857Y-61682381D01*
X89785715Y-61634762D01*
X89880953Y-61539524D01*
X89928572Y-61444286D01*
X89976191Y-61253810D01*
X89976191Y-61110952D01*
X89928572Y-60920476D01*
X89880953Y-60825238D01*
X89785715Y-60730000D01*
X89642857Y-60682381D01*
X89547619Y-60682381D01*
X89404762Y-60730000D01*
X89357143Y-60777619D01*
X88500000Y-60682381D02*
X88690477Y-60682381D01*
X88785715Y-60730000D01*
X88833334Y-60777619D01*
X88928572Y-60920476D01*
X88976191Y-61110952D01*
X88976191Y-61491905D01*
X88928572Y-61587143D01*
X88880953Y-61634762D01*
X88785715Y-61682381D01*
X88595238Y-61682381D01*
X88500000Y-61634762D01*
X88452381Y-61587143D01*
X88404762Y-61491905D01*
X88404762Y-61253810D01*
X88452381Y-61158571D01*
X88500000Y-61110952D01*
X88595238Y-61063333D01*
X88785715Y-61063333D01*
X88880953Y-61110952D01*
X88928572Y-61158571D01*
X88976191Y-61253810D01*
X91547619Y-39222381D02*
X91547619Y-38222381D01*
X91214285Y-38936667D01*
X90880952Y-38222381D01*
X90880952Y-39222381D01*
X90404762Y-39222381D02*
X90404762Y-38222381D01*
X89357143Y-39127143D02*
X89404762Y-39174762D01*
X89547619Y-39222381D01*
X89642857Y-39222381D01*
X89785715Y-39174762D01*
X89880953Y-39079524D01*
X89928572Y-38984286D01*
X89976191Y-38793810D01*
X89976191Y-38650952D01*
X89928572Y-38460476D01*
X89880953Y-38365238D01*
X89785715Y-38270000D01*
X89642857Y-38222381D01*
X89547619Y-38222381D01*
X89404762Y-38270000D01*
X89357143Y-38317619D01*
X88452381Y-38222381D02*
X88928572Y-38222381D01*
X88976191Y-38698571D01*
X88928572Y-38650952D01*
X88833334Y-38603333D01*
X88595238Y-38603333D01*
X88500000Y-38650952D01*
X88452381Y-38698571D01*
X88404762Y-38793810D01*
X88404762Y-39031905D01*
X88452381Y-39127143D01*
X88500000Y-39174762D01*
X88595238Y-39222381D01*
X88833334Y-39222381D01*
X88928572Y-39174762D01*
X88976191Y-39127143D01*
X91547619Y-8352381D02*
X91547619Y-7352381D01*
X91214285Y-8066667D01*
X90880952Y-7352381D01*
X90880952Y-8352381D01*
X90404762Y-8352381D02*
X90404762Y-7352381D01*
X89357143Y-8257143D02*
X89404762Y-8304762D01*
X89547619Y-8352381D01*
X89642857Y-8352381D01*
X89785715Y-8304762D01*
X89880953Y-8209524D01*
X89928572Y-8114286D01*
X89976191Y-7923810D01*
X89976191Y-7780952D01*
X89928572Y-7590476D01*
X89880953Y-7495238D01*
X89785715Y-7400000D01*
X89642857Y-7352381D01*
X89547619Y-7352381D01*
X89404762Y-7400000D01*
X89357143Y-7447619D01*
X88500000Y-7685714D02*
X88500000Y-8352381D01*
X88738096Y-7304762D02*
X88976191Y-8019048D01*
X88357143Y-8019048D01*
X64877619Y-8352381D02*
X64877619Y-7352381D01*
X64544285Y-8066667D01*
X64210952Y-7352381D01*
X64210952Y-8352381D01*
X63734762Y-8352381D02*
X63734762Y-7352381D01*
X62687143Y-8257143D02*
X62734762Y-8304762D01*
X62877619Y-8352381D01*
X62972857Y-8352381D01*
X63115715Y-8304762D01*
X63210953Y-8209524D01*
X63258572Y-8114286D01*
X63306191Y-7923810D01*
X63306191Y-7780952D01*
X63258572Y-7590476D01*
X63210953Y-7495238D01*
X63115715Y-7400000D01*
X62972857Y-7352381D01*
X62877619Y-7352381D01*
X62734762Y-7400000D01*
X62687143Y-7447619D01*
X62353810Y-7352381D02*
X61734762Y-7352381D01*
X62068096Y-7733333D01*
X61925238Y-7733333D01*
X61830000Y-7780952D01*
X61782381Y-7828571D01*
X61734762Y-7923810D01*
X61734762Y-8161905D01*
X61782381Y-8257143D01*
X61830000Y-8304762D01*
X61925238Y-8352381D01*
X62210953Y-8352381D01*
X62306191Y-8304762D01*
X62353810Y-8257143D01*
X38217619Y-8352381D02*
X38217619Y-7352381D01*
X37884285Y-8066667D01*
X37550952Y-7352381D01*
X37550952Y-8352381D01*
X37074762Y-8352381D02*
X37074762Y-7352381D01*
X36027143Y-8257143D02*
X36074762Y-8304762D01*
X36217619Y-8352381D01*
X36312857Y-8352381D01*
X36455715Y-8304762D01*
X36550953Y-8209524D01*
X36598572Y-8114286D01*
X36646191Y-7923810D01*
X36646191Y-7780952D01*
X36598572Y-7590476D01*
X36550953Y-7495238D01*
X36455715Y-7400000D01*
X36312857Y-7352381D01*
X36217619Y-7352381D01*
X36074762Y-7400000D01*
X36027143Y-7447619D01*
X35646191Y-7447619D02*
X35598572Y-7400000D01*
X35503334Y-7352381D01*
X35265238Y-7352381D01*
X35170000Y-7400000D01*
X35122381Y-7447619D01*
X35074762Y-7542857D01*
X35074762Y-7638095D01*
X35122381Y-7780952D01*
X35693810Y-8352381D01*
X35074762Y-8352381D01*
X11547619Y-8352381D02*
X11547619Y-7352381D01*
X11214285Y-8066667D01*
X10880952Y-7352381D01*
X10880952Y-8352381D01*
X10404762Y-8352381D02*
X10404762Y-7352381D01*
X9357143Y-8257143D02*
X9404762Y-8304762D01*
X9547619Y-8352381D01*
X9642857Y-8352381D01*
X9785715Y-8304762D01*
X9880953Y-8209524D01*
X9928572Y-8114286D01*
X9976191Y-7923810D01*
X9976191Y-7780952D01*
X9928572Y-7590476D01*
X9880953Y-7495238D01*
X9785715Y-7400000D01*
X9642857Y-7352381D01*
X9547619Y-7352381D01*
X9404762Y-7400000D01*
X9357143Y-7447619D01*
X8404762Y-8352381D02*
X8976191Y-8352381D01*
X8690477Y-8352381D02*
X8690477Y-7352381D01*
X8785715Y-7495238D01*
X8880953Y-7590476D01*
X8976191Y-7638095D01*
X10802857Y-31472143D02*
X10850476Y-31519762D01*
X10993333Y-31567381D01*
X11088571Y-31567381D01*
X11231429Y-31519762D01*
X11326667Y-31424524D01*
X11374286Y-31329286D01*
X11421905Y-31138810D01*
X11421905Y-30995952D01*
X11374286Y-30805476D01*
X11326667Y-30710238D01*
X11231429Y-30615000D01*
X11088571Y-30567381D01*
X10993333Y-30567381D01*
X10850476Y-30615000D01*
X10802857Y-30662619D01*
X9850476Y-31567381D02*
X10421905Y-31567381D01*
X10136191Y-31567381D02*
X10136191Y-30567381D01*
X10231429Y-30710238D01*
X10326667Y-30805476D01*
X10421905Y-30853095D01*
X9469524Y-30662619D02*
X9421905Y-30615000D01*
X9326667Y-30567381D01*
X9088571Y-30567381D01*
X8993333Y-30615000D01*
X8945714Y-30662619D01*
X8898095Y-30757857D01*
X8898095Y-30853095D01*
X8945714Y-30995952D01*
X9517143Y-31567381D01*
X8898095Y-31567381D01*
X10802857Y-68937143D02*
X10850476Y-68984762D01*
X10993333Y-69032381D01*
X11088571Y-69032381D01*
X11231429Y-68984762D01*
X11326667Y-68889524D01*
X11374286Y-68794286D01*
X11421905Y-68603810D01*
X11421905Y-68460952D01*
X11374286Y-68270476D01*
X11326667Y-68175238D01*
X11231429Y-68080000D01*
X11088571Y-68032381D01*
X10993333Y-68032381D01*
X10850476Y-68080000D01*
X10802857Y-68127619D01*
X9850476Y-69032381D02*
X10421905Y-69032381D01*
X10136191Y-69032381D02*
X10136191Y-68032381D01*
X10231429Y-68175238D01*
X10326667Y-68270476D01*
X10421905Y-68318095D01*
X8898095Y-69032381D02*
X9469524Y-69032381D01*
X9183810Y-69032381D02*
X9183810Y-68032381D01*
X9279048Y-68175238D01*
X9374286Y-68270476D01*
X9469524Y-68318095D01*
X10802857Y-84812143D02*
X10850476Y-84859762D01*
X10993333Y-84907381D01*
X11088571Y-84907381D01*
X11231429Y-84859762D01*
X11326667Y-84764524D01*
X11374286Y-84669286D01*
X11421905Y-84478810D01*
X11421905Y-84335952D01*
X11374286Y-84145476D01*
X11326667Y-84050238D01*
X11231429Y-83955000D01*
X11088571Y-83907381D01*
X10993333Y-83907381D01*
X10850476Y-83955000D01*
X10802857Y-84002619D01*
X9850476Y-84907381D02*
X10421905Y-84907381D01*
X10136191Y-84907381D02*
X10136191Y-83907381D01*
X10231429Y-84050238D01*
X10326667Y-84145476D01*
X10421905Y-84193095D01*
X9231429Y-83907381D02*
X9136190Y-83907381D01*
X9040952Y-83955000D01*
X8993333Y-84002619D01*
X8945714Y-84097857D01*
X8898095Y-84288333D01*
X8898095Y-84526429D01*
X8945714Y-84716905D01*
X8993333Y-84812143D01*
X9040952Y-84859762D01*
X9136190Y-84907381D01*
X9231429Y-84907381D01*
X9326667Y-84859762D01*
X9374286Y-84812143D01*
X9421905Y-84716905D01*
X9469524Y-84526429D01*
X9469524Y-84288333D01*
X9421905Y-84097857D01*
X9374286Y-84002619D01*
X9326667Y-83955000D01*
X9231429Y-83907381D01*
X36996666Y-84812143D02*
X37044285Y-84859762D01*
X37187142Y-84907381D01*
X37282380Y-84907381D01*
X37425238Y-84859762D01*
X37520476Y-84764524D01*
X37568095Y-84669286D01*
X37615714Y-84478810D01*
X37615714Y-84335952D01*
X37568095Y-84145476D01*
X37520476Y-84050238D01*
X37425238Y-83955000D01*
X37282380Y-83907381D01*
X37187142Y-83907381D01*
X37044285Y-83955000D01*
X36996666Y-84002619D01*
X36520476Y-84907381D02*
X36330000Y-84907381D01*
X36234761Y-84859762D01*
X36187142Y-84812143D01*
X36091904Y-84669286D01*
X36044285Y-84478810D01*
X36044285Y-84097857D01*
X36091904Y-84002619D01*
X36139523Y-83955000D01*
X36234761Y-83907381D01*
X36425238Y-83907381D01*
X36520476Y-83955000D01*
X36568095Y-84002619D01*
X36615714Y-84097857D01*
X36615714Y-84335952D01*
X36568095Y-84431190D01*
X36520476Y-84478810D01*
X36425238Y-84526429D01*
X36234761Y-84526429D01*
X36139523Y-84478810D01*
X36091904Y-84431190D01*
X36044285Y-84335952D01*
X63666666Y-84812143D02*
X63714285Y-84859762D01*
X63857142Y-84907381D01*
X63952380Y-84907381D01*
X64095238Y-84859762D01*
X64190476Y-84764524D01*
X64238095Y-84669286D01*
X64285714Y-84478810D01*
X64285714Y-84335952D01*
X64238095Y-84145476D01*
X64190476Y-84050238D01*
X64095238Y-83955000D01*
X63952380Y-83907381D01*
X63857142Y-83907381D01*
X63714285Y-83955000D01*
X63666666Y-84002619D01*
X63095238Y-84335952D02*
X63190476Y-84288333D01*
X63238095Y-84240714D01*
X63285714Y-84145476D01*
X63285714Y-84097857D01*
X63238095Y-84002619D01*
X63190476Y-83955000D01*
X63095238Y-83907381D01*
X62904761Y-83907381D01*
X62809523Y-83955000D01*
X62761904Y-84002619D01*
X62714285Y-84097857D01*
X62714285Y-84145476D01*
X62761904Y-84240714D01*
X62809523Y-84288333D01*
X62904761Y-84335952D01*
X63095238Y-84335952D01*
X63190476Y-84383571D01*
X63238095Y-84431190D01*
X63285714Y-84526429D01*
X63285714Y-84716905D01*
X63238095Y-84812143D01*
X63190476Y-84859762D01*
X63095238Y-84907381D01*
X62904761Y-84907381D01*
X62809523Y-84859762D01*
X62761904Y-84812143D01*
X62714285Y-84716905D01*
X62714285Y-84526429D01*
X62761904Y-84431190D01*
X62809523Y-84383571D01*
X62904761Y-84335952D01*
X90336666Y-84812143D02*
X90384285Y-84859762D01*
X90527142Y-84907381D01*
X90622380Y-84907381D01*
X90765238Y-84859762D01*
X90860476Y-84764524D01*
X90908095Y-84669286D01*
X90955714Y-84478810D01*
X90955714Y-84335952D01*
X90908095Y-84145476D01*
X90860476Y-84050238D01*
X90765238Y-83955000D01*
X90622380Y-83907381D01*
X90527142Y-83907381D01*
X90384285Y-83955000D01*
X90336666Y-84002619D01*
X90003333Y-83907381D02*
X89336666Y-83907381D01*
X89765238Y-84907381D01*
X89701666Y-68937143D02*
X89749285Y-68984762D01*
X89892142Y-69032381D01*
X89987380Y-69032381D01*
X90130238Y-68984762D01*
X90225476Y-68889524D01*
X90273095Y-68794286D01*
X90320714Y-68603810D01*
X90320714Y-68460952D01*
X90273095Y-68270476D01*
X90225476Y-68175238D01*
X90130238Y-68080000D01*
X89987380Y-68032381D01*
X89892142Y-68032381D01*
X89749285Y-68080000D01*
X89701666Y-68127619D01*
X88844523Y-68032381D02*
X89035000Y-68032381D01*
X89130238Y-68080000D01*
X89177857Y-68127619D01*
X89273095Y-68270476D01*
X89320714Y-68460952D01*
X89320714Y-68841905D01*
X89273095Y-68937143D01*
X89225476Y-68984762D01*
X89130238Y-69032381D01*
X88939761Y-69032381D01*
X88844523Y-68984762D01*
X88796904Y-68937143D01*
X88749285Y-68841905D01*
X88749285Y-68603810D01*
X88796904Y-68508571D01*
X88844523Y-68460952D01*
X88939761Y-68413333D01*
X89130238Y-68413333D01*
X89225476Y-68460952D01*
X89273095Y-68508571D01*
X89320714Y-68603810D01*
X89701666Y-31472143D02*
X89749285Y-31519762D01*
X89892142Y-31567381D01*
X89987380Y-31567381D01*
X90130238Y-31519762D01*
X90225476Y-31424524D01*
X90273095Y-31329286D01*
X90320714Y-31138810D01*
X90320714Y-30995952D01*
X90273095Y-30805476D01*
X90225476Y-30710238D01*
X90130238Y-30615000D01*
X89987380Y-30567381D01*
X89892142Y-30567381D01*
X89749285Y-30615000D01*
X89701666Y-30662619D01*
X88796904Y-30567381D02*
X89273095Y-30567381D01*
X89320714Y-31043571D01*
X89273095Y-30995952D01*
X89177857Y-30948333D01*
X88939761Y-30948333D01*
X88844523Y-30995952D01*
X88796904Y-31043571D01*
X88749285Y-31138810D01*
X88749285Y-31376905D01*
X88796904Y-31472143D01*
X88844523Y-31519762D01*
X88939761Y-31567381D01*
X89177857Y-31567381D01*
X89273095Y-31519762D01*
X89320714Y-31472143D01*
X90336666Y-16232143D02*
X90384285Y-16279762D01*
X90527142Y-16327381D01*
X90622380Y-16327381D01*
X90765238Y-16279762D01*
X90860476Y-16184524D01*
X90908095Y-16089286D01*
X90955714Y-15898810D01*
X90955714Y-15755952D01*
X90908095Y-15565476D01*
X90860476Y-15470238D01*
X90765238Y-15375000D01*
X90622380Y-15327381D01*
X90527142Y-15327381D01*
X90384285Y-15375000D01*
X90336666Y-15422619D01*
X89479523Y-15660714D02*
X89479523Y-16327381D01*
X89717619Y-15279762D02*
X89955714Y-15994048D01*
X89336666Y-15994048D01*
X63666666Y-16232143D02*
X63714285Y-16279762D01*
X63857142Y-16327381D01*
X63952380Y-16327381D01*
X64095238Y-16279762D01*
X64190476Y-16184524D01*
X64238095Y-16089286D01*
X64285714Y-15898810D01*
X64285714Y-15755952D01*
X64238095Y-15565476D01*
X64190476Y-15470238D01*
X64095238Y-15375000D01*
X63952380Y-15327381D01*
X63857142Y-15327381D01*
X63714285Y-15375000D01*
X63666666Y-15422619D01*
X63333333Y-15327381D02*
X62714285Y-15327381D01*
X63047619Y-15708333D01*
X62904761Y-15708333D01*
X62809523Y-15755952D01*
X62761904Y-15803571D01*
X62714285Y-15898810D01*
X62714285Y-16136905D01*
X62761904Y-16232143D01*
X62809523Y-16279762D01*
X62904761Y-16327381D01*
X63190476Y-16327381D01*
X63285714Y-16279762D01*
X63333333Y-16232143D01*
X36996666Y-16232143D02*
X37044285Y-16279762D01*
X37187142Y-16327381D01*
X37282380Y-16327381D01*
X37425238Y-16279762D01*
X37520476Y-16184524D01*
X37568095Y-16089286D01*
X37615714Y-15898810D01*
X37615714Y-15755952D01*
X37568095Y-15565476D01*
X37520476Y-15470238D01*
X37425238Y-15375000D01*
X37282380Y-15327381D01*
X37187142Y-15327381D01*
X37044285Y-15375000D01*
X36996666Y-15422619D01*
X36615714Y-15422619D02*
X36568095Y-15375000D01*
X36472857Y-15327381D01*
X36234761Y-15327381D01*
X36139523Y-15375000D01*
X36091904Y-15422619D01*
X36044285Y-15517857D01*
X36044285Y-15613095D01*
X36091904Y-15755952D01*
X36663333Y-16327381D01*
X36044285Y-16327381D01*
X10326666Y-16232143D02*
X10374285Y-16279762D01*
X10517142Y-16327381D01*
X10612380Y-16327381D01*
X10755238Y-16279762D01*
X10850476Y-16184524D01*
X10898095Y-16089286D01*
X10945714Y-15898810D01*
X10945714Y-15755952D01*
X10898095Y-15565476D01*
X10850476Y-15470238D01*
X10755238Y-15375000D01*
X10612380Y-15327381D01*
X10517142Y-15327381D01*
X10374285Y-15375000D01*
X10326666Y-15422619D01*
X9374285Y-16327381D02*
X9945714Y-16327381D01*
X9660000Y-16327381D02*
X9660000Y-15327381D01*
X9755238Y-15470238D01*
X9850476Y-15565476D01*
X9945714Y-15613095D01*
M02*
