G04 #@! TF.FileFunction,Paste,Bot*
%FSLAX46Y46*%
G04 Gerber Fmt 4.6, Leading zero omitted, Abs format (unit mm)*
G04 Created by KiCad (PCBNEW 4.0.7) date 12/17/17 16:59:44*
%MOMM*%
%LPD*%
G01*
G04 APERTURE LIST*
%ADD10C,0.100000*%
%ADD11R,0.700000X0.500000*%
%ADD12R,1.200000X0.750000*%
G04 APERTURE END LIST*
D10*
D11*
X10837500Y-34596000D03*
X10837500Y-35418000D03*
X9162500Y-34596000D03*
X9162500Y-35418000D03*
D10*
G36*
X10803553Y-36361421D02*
X10591421Y-36573553D01*
X10096447Y-36078579D01*
X10308579Y-35866447D01*
X10803553Y-36361421D01*
X10803553Y-36361421D01*
G37*
G36*
X9903553Y-37261421D02*
X9691421Y-37473553D01*
X9196447Y-36978579D01*
X9408579Y-36766447D01*
X9903553Y-37261421D01*
X9903553Y-37261421D01*
G37*
G36*
X10308579Y-37473553D02*
X10096447Y-37261421D01*
X10591421Y-36766447D01*
X10803553Y-36978579D01*
X10308579Y-37473553D01*
X10308579Y-37473553D01*
G37*
G36*
X9408579Y-36573553D02*
X9196447Y-36361421D01*
X9691421Y-35866447D01*
X9903553Y-36078579D01*
X9408579Y-36573553D01*
X9408579Y-36573553D01*
G37*
D11*
X9162500Y-65404000D03*
X9162500Y-64582000D03*
X10837500Y-65404000D03*
X10837500Y-64582000D03*
D10*
G36*
X9196447Y-63638579D02*
X9408579Y-63426447D01*
X9903553Y-63921421D01*
X9691421Y-64133553D01*
X9196447Y-63638579D01*
X9196447Y-63638579D01*
G37*
G36*
X10096447Y-62738579D02*
X10308579Y-62526447D01*
X10803553Y-63021421D01*
X10591421Y-63233553D01*
X10096447Y-62738579D01*
X10096447Y-62738579D01*
G37*
G36*
X9691421Y-62526447D02*
X9903553Y-62738579D01*
X9408579Y-63233553D01*
X9196447Y-63021421D01*
X9691421Y-62526447D01*
X9691421Y-62526447D01*
G37*
G36*
X10591421Y-63426447D02*
X10803553Y-63638579D01*
X10308579Y-64133553D01*
X10096447Y-63921421D01*
X10591421Y-63426447D01*
X10591421Y-63426447D01*
G37*
D11*
X10837500Y-87926000D03*
X10837500Y-88748000D03*
X9162500Y-87926000D03*
X9162500Y-88748000D03*
D10*
G36*
X10803553Y-89691421D02*
X10591421Y-89903553D01*
X10096447Y-89408579D01*
X10308579Y-89196447D01*
X10803553Y-89691421D01*
X10803553Y-89691421D01*
G37*
G36*
X9903553Y-90591421D02*
X9691421Y-90803553D01*
X9196447Y-90308579D01*
X9408579Y-90096447D01*
X9903553Y-90591421D01*
X9903553Y-90591421D01*
G37*
G36*
X10308579Y-90803553D02*
X10096447Y-90591421D01*
X10591421Y-90096447D01*
X10803553Y-90308579D01*
X10308579Y-90803553D01*
X10308579Y-90803553D01*
G37*
G36*
X9408579Y-89903553D02*
X9196447Y-89691421D01*
X9691421Y-89196447D01*
X9903553Y-89408579D01*
X9408579Y-89903553D01*
X9408579Y-89903553D01*
G37*
D11*
X37507500Y-87926000D03*
X37507500Y-88748000D03*
X35832500Y-87926000D03*
X35832500Y-88748000D03*
D10*
G36*
X37473553Y-89691421D02*
X37261421Y-89903553D01*
X36766447Y-89408579D01*
X36978579Y-89196447D01*
X37473553Y-89691421D01*
X37473553Y-89691421D01*
G37*
G36*
X36573553Y-90591421D02*
X36361421Y-90803553D01*
X35866447Y-90308579D01*
X36078579Y-90096447D01*
X36573553Y-90591421D01*
X36573553Y-90591421D01*
G37*
G36*
X36978579Y-90803553D02*
X36766447Y-90591421D01*
X37261421Y-90096447D01*
X37473553Y-90308579D01*
X36978579Y-90803553D01*
X36978579Y-90803553D01*
G37*
G36*
X36078579Y-89903553D02*
X35866447Y-89691421D01*
X36361421Y-89196447D01*
X36573553Y-89408579D01*
X36078579Y-89903553D01*
X36078579Y-89903553D01*
G37*
D11*
X64167500Y-87926000D03*
X64167500Y-88748000D03*
X62492500Y-87926000D03*
X62492500Y-88748000D03*
D10*
G36*
X64133553Y-89691421D02*
X63921421Y-89903553D01*
X63426447Y-89408579D01*
X63638579Y-89196447D01*
X64133553Y-89691421D01*
X64133553Y-89691421D01*
G37*
G36*
X63233553Y-90591421D02*
X63021421Y-90803553D01*
X62526447Y-90308579D01*
X62738579Y-90096447D01*
X63233553Y-90591421D01*
X63233553Y-90591421D01*
G37*
G36*
X63638579Y-90803553D02*
X63426447Y-90591421D01*
X63921421Y-90096447D01*
X64133553Y-90308579D01*
X63638579Y-90803553D01*
X63638579Y-90803553D01*
G37*
G36*
X62738579Y-89903553D02*
X62526447Y-89691421D01*
X63021421Y-89196447D01*
X63233553Y-89408579D01*
X62738579Y-89903553D01*
X62738579Y-89903553D01*
G37*
D11*
X90837500Y-87926000D03*
X90837500Y-88748000D03*
X89162500Y-87926000D03*
X89162500Y-88748000D03*
D10*
G36*
X90803553Y-89691421D02*
X90591421Y-89903553D01*
X90096447Y-89408579D01*
X90308579Y-89196447D01*
X90803553Y-89691421D01*
X90803553Y-89691421D01*
G37*
G36*
X89903553Y-90591421D02*
X89691421Y-90803553D01*
X89196447Y-90308579D01*
X89408579Y-90096447D01*
X89903553Y-90591421D01*
X89903553Y-90591421D01*
G37*
G36*
X90308579Y-90803553D02*
X90096447Y-90591421D01*
X90591421Y-90096447D01*
X90803553Y-90308579D01*
X90308579Y-90803553D01*
X90308579Y-90803553D01*
G37*
G36*
X89408579Y-89903553D02*
X89196447Y-89691421D01*
X89691421Y-89196447D01*
X89903553Y-89408579D01*
X89408579Y-89903553D01*
X89408579Y-89903553D01*
G37*
D11*
X89162500Y-65404000D03*
X89162500Y-64582000D03*
X90837500Y-65404000D03*
X90837500Y-64582000D03*
D10*
G36*
X89196447Y-63638579D02*
X89408579Y-63426447D01*
X89903553Y-63921421D01*
X89691421Y-64133553D01*
X89196447Y-63638579D01*
X89196447Y-63638579D01*
G37*
G36*
X90096447Y-62738579D02*
X90308579Y-62526447D01*
X90803553Y-63021421D01*
X90591421Y-63233553D01*
X90096447Y-62738579D01*
X90096447Y-62738579D01*
G37*
G36*
X89691421Y-62526447D02*
X89903553Y-62738579D01*
X89408579Y-63233553D01*
X89196447Y-63021421D01*
X89691421Y-62526447D01*
X89691421Y-62526447D01*
G37*
G36*
X90591421Y-63426447D02*
X90803553Y-63638579D01*
X90308579Y-64133553D01*
X90096447Y-63921421D01*
X90591421Y-63426447D01*
X90591421Y-63426447D01*
G37*
D11*
X90837500Y-34596000D03*
X90837500Y-35418000D03*
X89162500Y-34596000D03*
X89162500Y-35418000D03*
D10*
G36*
X90803553Y-36361421D02*
X90591421Y-36573553D01*
X90096447Y-36078579D01*
X90308579Y-35866447D01*
X90803553Y-36361421D01*
X90803553Y-36361421D01*
G37*
G36*
X89903553Y-37261421D02*
X89691421Y-37473553D01*
X89196447Y-36978579D01*
X89408579Y-36766447D01*
X89903553Y-37261421D01*
X89903553Y-37261421D01*
G37*
G36*
X90308579Y-37473553D02*
X90096447Y-37261421D01*
X90591421Y-36766447D01*
X90803553Y-36978579D01*
X90308579Y-37473553D01*
X90308579Y-37473553D01*
G37*
G36*
X89408579Y-36573553D02*
X89196447Y-36361421D01*
X89691421Y-35866447D01*
X89903553Y-36078579D01*
X89408579Y-36573553D01*
X89408579Y-36573553D01*
G37*
D11*
X89162500Y-12074000D03*
X89162500Y-11252000D03*
X90837500Y-12074000D03*
X90837500Y-11252000D03*
D10*
G36*
X89196447Y-10308579D02*
X89408579Y-10096447D01*
X89903553Y-10591421D01*
X89691421Y-10803553D01*
X89196447Y-10308579D01*
X89196447Y-10308579D01*
G37*
G36*
X90096447Y-9408579D02*
X90308579Y-9196447D01*
X90803553Y-9691421D01*
X90591421Y-9903553D01*
X90096447Y-9408579D01*
X90096447Y-9408579D01*
G37*
G36*
X89691421Y-9196447D02*
X89903553Y-9408579D01*
X89408579Y-9903553D01*
X89196447Y-9691421D01*
X89691421Y-9196447D01*
X89691421Y-9196447D01*
G37*
G36*
X90591421Y-10096447D02*
X90803553Y-10308579D01*
X90308579Y-10803553D01*
X90096447Y-10591421D01*
X90591421Y-10096447D01*
X90591421Y-10096447D01*
G37*
D11*
X62492500Y-12074000D03*
X62492500Y-11252000D03*
X64167500Y-12074000D03*
X64167500Y-11252000D03*
D10*
G36*
X62526447Y-10308579D02*
X62738579Y-10096447D01*
X63233553Y-10591421D01*
X63021421Y-10803553D01*
X62526447Y-10308579D01*
X62526447Y-10308579D01*
G37*
G36*
X63426447Y-9408579D02*
X63638579Y-9196447D01*
X64133553Y-9691421D01*
X63921421Y-9903553D01*
X63426447Y-9408579D01*
X63426447Y-9408579D01*
G37*
G36*
X63021421Y-9196447D02*
X63233553Y-9408579D01*
X62738579Y-9903553D01*
X62526447Y-9691421D01*
X63021421Y-9196447D01*
X63021421Y-9196447D01*
G37*
G36*
X63921421Y-10096447D02*
X64133553Y-10308579D01*
X63638579Y-10803553D01*
X63426447Y-10591421D01*
X63921421Y-10096447D01*
X63921421Y-10096447D01*
G37*
D11*
X35832500Y-12074000D03*
X35832500Y-11252000D03*
X37507500Y-12074000D03*
X37507500Y-11252000D03*
D10*
G36*
X35866447Y-10308579D02*
X36078579Y-10096447D01*
X36573553Y-10591421D01*
X36361421Y-10803553D01*
X35866447Y-10308579D01*
X35866447Y-10308579D01*
G37*
G36*
X36766447Y-9408579D02*
X36978579Y-9196447D01*
X37473553Y-9691421D01*
X37261421Y-9903553D01*
X36766447Y-9408579D01*
X36766447Y-9408579D01*
G37*
G36*
X36361421Y-9196447D02*
X36573553Y-9408579D01*
X36078579Y-9903553D01*
X35866447Y-9691421D01*
X36361421Y-9196447D01*
X36361421Y-9196447D01*
G37*
G36*
X37261421Y-10096447D02*
X37473553Y-10308579D01*
X36978579Y-10803553D01*
X36766447Y-10591421D01*
X37261421Y-10096447D01*
X37261421Y-10096447D01*
G37*
D11*
X9162500Y-12074000D03*
X9162500Y-11252000D03*
X10837500Y-12074000D03*
X10837500Y-11252000D03*
D10*
G36*
X9196447Y-10308579D02*
X9408579Y-10096447D01*
X9903553Y-10591421D01*
X9691421Y-10803553D01*
X9196447Y-10308579D01*
X9196447Y-10308579D01*
G37*
G36*
X10096447Y-9408579D02*
X10308579Y-9196447D01*
X10803553Y-9691421D01*
X10591421Y-9903553D01*
X10096447Y-9408579D01*
X10096447Y-9408579D01*
G37*
G36*
X9691421Y-9196447D02*
X9903553Y-9408579D01*
X9408579Y-9903553D01*
X9196447Y-9691421D01*
X9691421Y-9196447D01*
X9691421Y-9196447D01*
G37*
G36*
X10591421Y-10096447D02*
X10803553Y-10308579D01*
X10308579Y-10803553D01*
X10096447Y-10591421D01*
X10591421Y-10096447D01*
X10591421Y-10096447D01*
G37*
D12*
X9210000Y-32385000D03*
X11110000Y-32385000D03*
X11110000Y-67310000D03*
X9210000Y-67310000D03*
X9210000Y-85725000D03*
X11110000Y-85725000D03*
X35880000Y-85725000D03*
X37780000Y-85725000D03*
X62550000Y-85725000D03*
X64450000Y-85725000D03*
X89220000Y-85725000D03*
X91120000Y-85725000D03*
X90485000Y-67310000D03*
X88585000Y-67310000D03*
X88585000Y-32385000D03*
X90485000Y-32385000D03*
X91120000Y-14605000D03*
X89220000Y-14605000D03*
X64450000Y-14605000D03*
X62550000Y-14605000D03*
X37780000Y-14605000D03*
X35880000Y-14605000D03*
X11110000Y-14605000D03*
X9210000Y-14605000D03*
M02*
