%TF.GenerationSoftware,KiCad,Pcbnew,4.0.7*%
%TF.CreationDate,2017-10-08T11:45:17+09:00*%
%TF.ProjectId,TestBoard1,54657374426F617264312E6B69636164,rev?*%
%TF.FileFunction,Copper,L1,Top,Signal*%
%FSLAX46Y46*%
G04 Gerber Fmt 4.6, Leading zero omitted, Abs format (unit mm)*
G04 Created by KiCad (PCBNEW 4.0.7) date 10/08/17 11:45:17*
%MOMM*%
%LPD*%
G01*
G04 APERTURE LIST*
%ADD10C,0.100000*%
%ADD11R,1.200000X0.750000*%
%ADD12R,1.700000X1.700000*%
%ADD13O,1.700000X1.700000*%
%ADD14C,1.650000*%
%ADD15R,1.524000X1.524000*%
%ADD16C,1.524000*%
%ADD17R,2.000000X0.300000*%
%ADD18R,2.000000X0.500000*%
%ADD19C,0.800000*%
%ADD20C,0.250000*%
%ADD21C,0.500000*%
G04 APERTURE END LIST*
D10*
D11*
X12302000Y-12980000D03*
X14202000Y-12980000D03*
X15980000Y-3836000D03*
X14080000Y-3836000D03*
D12*
X3600000Y-7900000D03*
D13*
X3600000Y-10440000D03*
X3600000Y-12980000D03*
X3600000Y-15520000D03*
X3600000Y-18060000D03*
D12*
X44240000Y-7900000D03*
D13*
X44240000Y-10440000D03*
X44240000Y-12980000D03*
X44240000Y-15520000D03*
X44240000Y-18060000D03*
D14*
X37890000Y-13615000D03*
D15*
X27730000Y-10480000D03*
D16*
X27730000Y-15480000D03*
D17*
X14470000Y-15475000D03*
X14470000Y-14825000D03*
X7970000Y-14825000D03*
X7970000Y-15475000D03*
X7970000Y-16125000D03*
X7970000Y-16775000D03*
X7970000Y-17425000D03*
X7970000Y-18075000D03*
X7970000Y-18725000D03*
X7970000Y-19375000D03*
X7970000Y-20025000D03*
X7970000Y-20675000D03*
X14470000Y-20675000D03*
X14470000Y-20025000D03*
X14470000Y-19375000D03*
X14470000Y-18725000D03*
X14470000Y-18075000D03*
X14470000Y-17425000D03*
X14470000Y-16775000D03*
X14470000Y-16125000D03*
D18*
X14570000Y-5900000D03*
X14570000Y-6900000D03*
X14570000Y-7900000D03*
X14570000Y-8900000D03*
X14570000Y-9900000D03*
X20570000Y-9900000D03*
X20570000Y-8900000D03*
X20570000Y-7900000D03*
X20570000Y-6900000D03*
X20570000Y-5900000D03*
D19*
X16500000Y-11500000D03*
X11728000Y-5614000D03*
X41065000Y-9805000D03*
X11728000Y-8408000D03*
X16808000Y-15774000D03*
D20*
X14570000Y-9900000D02*
X16268000Y-9900000D01*
X16268000Y-9900000D02*
X16300000Y-9932000D01*
X14570000Y-9900000D02*
X12776000Y-9900000D01*
X12776000Y-9900000D02*
X12744000Y-9932000D01*
X14570000Y-8900000D02*
X12760000Y-8900000D01*
X12760000Y-8900000D02*
X12744000Y-8916000D01*
X14570000Y-8900000D02*
X16284000Y-8900000D01*
X16284000Y-8900000D02*
X16300000Y-8916000D01*
X7970000Y-19375000D02*
X6185000Y-19375000D01*
X6185000Y-19375000D02*
X6140000Y-19330000D01*
X7970000Y-18725000D02*
X6170000Y-18725000D01*
X6170000Y-18725000D02*
X6140000Y-18695000D01*
X7970000Y-16775000D02*
X6155000Y-16775000D01*
X6155000Y-16775000D02*
X6140000Y-16790000D01*
X7970000Y-16125000D02*
X6170000Y-16125000D01*
X6170000Y-16125000D02*
X6140000Y-16155000D01*
X14470000Y-15475000D02*
X12025000Y-15475000D01*
X12025000Y-15475000D02*
X12000000Y-15500000D01*
X7970000Y-14825000D02*
X10325000Y-14825000D01*
X10325000Y-14825000D02*
X10500000Y-15000000D01*
X7970000Y-20675000D02*
X10325000Y-20675000D01*
X10325000Y-20675000D02*
X10500000Y-20500000D01*
X7970000Y-20025000D02*
X10475000Y-20025000D01*
X10475000Y-20025000D02*
X10500000Y-20000000D01*
X7970000Y-19375000D02*
X10125000Y-19375000D01*
X10225000Y-18725000D02*
X10500000Y-19000000D01*
X10225000Y-18725000D02*
X7970000Y-18725000D01*
X10125000Y-19375000D02*
X10500000Y-19000000D01*
X7970000Y-18075000D02*
X10425000Y-18075000D01*
X10425000Y-18075000D02*
X10500000Y-18000000D01*
X7970000Y-17425000D02*
X10425000Y-17425000D01*
X10425000Y-17425000D02*
X10500000Y-17500000D01*
X7970000Y-16775000D02*
X10225000Y-16775000D01*
X10125000Y-16125000D02*
X10500000Y-16500000D01*
X10125000Y-16125000D02*
X7970000Y-16125000D01*
X10225000Y-16775000D02*
X10500000Y-16500000D01*
X7970000Y-20675000D02*
X6175000Y-20675000D01*
X6175000Y-20675000D02*
X6000000Y-20500000D01*
X7970000Y-20025000D02*
X6025000Y-20025000D01*
X6025000Y-20025000D02*
X6000000Y-20000000D01*
X7970000Y-18075000D02*
X6075000Y-18075000D01*
X6075000Y-18075000D02*
X6000000Y-18000000D01*
X7970000Y-17425000D02*
X6075000Y-17425000D01*
X6075000Y-17425000D02*
X6000000Y-17500000D01*
D21*
X14202000Y-12980000D02*
X20364000Y-12980000D01*
X35096000Y-7900000D02*
X44240000Y-7900000D01*
X32810000Y-10186000D02*
X35096000Y-7900000D01*
X32810000Y-15012000D02*
X32810000Y-10186000D01*
X29762000Y-18060000D02*
X32810000Y-15012000D01*
X25444000Y-18060000D02*
X29762000Y-18060000D01*
X20364000Y-12980000D02*
X25444000Y-18060000D01*
D20*
X14470000Y-14825000D02*
X14470000Y-13248000D01*
X14470000Y-13248000D02*
X14202000Y-12980000D01*
D21*
X14202000Y-12980000D02*
X14202000Y-12914000D01*
D20*
X14570000Y-6900000D02*
X9680000Y-6900000D01*
X9680000Y-6900000D02*
X3600000Y-12980000D01*
X7970000Y-15475000D02*
X6095000Y-15475000D01*
X6095000Y-15475000D02*
X3600000Y-12980000D01*
X27730000Y-10480000D02*
X27730000Y-10440000D01*
X27730000Y-10440000D02*
X23190000Y-5900000D01*
X23190000Y-5900000D02*
X20570000Y-5900000D01*
X27710000Y-10500000D02*
X27730000Y-10480000D01*
X20570000Y-6900000D02*
X22285000Y-6900000D01*
X25825000Y-13575000D02*
X27730000Y-15480000D01*
X25825000Y-10440000D02*
X25825000Y-13575000D01*
X22285000Y-6900000D02*
X25825000Y-10440000D01*
X14470000Y-16125000D02*
X16457000Y-16125000D01*
X12236000Y-7900000D02*
X14570000Y-7900000D01*
X11728000Y-8408000D02*
X12236000Y-7900000D01*
X16457000Y-16125000D02*
X16808000Y-15774000D01*
D21*
X14080000Y-3836000D02*
X7664000Y-3836000D01*
X7664000Y-3836000D02*
X3600000Y-7900000D01*
D20*
X14080000Y-3836000D02*
X14080000Y-4664000D01*
X14570000Y-5154000D02*
X14570000Y-5900000D01*
X14080000Y-4664000D02*
X14570000Y-5154000D01*
G36*
X46875000Y-24875000D02*
X1125000Y-24875000D01*
X1125000Y-18348854D01*
X2255683Y-18348854D01*
X2445169Y-18806328D01*
X2818683Y-19191452D01*
X3311145Y-19404323D01*
X3525000Y-19301709D01*
X3525000Y-18135000D01*
X3675000Y-18135000D01*
X3675000Y-19301709D01*
X3888855Y-19404323D01*
X4381317Y-19191452D01*
X4754831Y-18806328D01*
X4944317Y-18348854D01*
X4841487Y-18135000D01*
X3675000Y-18135000D01*
X3525000Y-18135000D01*
X2358513Y-18135000D01*
X2255683Y-18348854D01*
X1125000Y-18348854D01*
X1125000Y-10440000D01*
X2198062Y-10440000D01*
X2302728Y-10966190D01*
X2600790Y-11412272D01*
X3046372Y-11710000D01*
X2600790Y-12007728D01*
X2302728Y-12453810D01*
X2198062Y-12980000D01*
X2302728Y-13506190D01*
X2600790Y-13952272D01*
X3046372Y-14250000D01*
X2600790Y-14547728D01*
X2302728Y-14993810D01*
X2198062Y-15520000D01*
X2302728Y-16046190D01*
X2600790Y-16492272D01*
X3046872Y-16790334D01*
X3109577Y-16802807D01*
X2818683Y-16928548D01*
X2445169Y-17313672D01*
X2255683Y-17771146D01*
X2358513Y-17985000D01*
X3525000Y-17985000D01*
X3525000Y-17965000D01*
X3675000Y-17965000D01*
X3675000Y-17985000D01*
X4841487Y-17985000D01*
X4944317Y-17771146D01*
X4754831Y-17313672D01*
X4381317Y-16928548D01*
X4090423Y-16802807D01*
X4153128Y-16790334D01*
X4599210Y-16492272D01*
X4897272Y-16046190D01*
X5001938Y-15520000D01*
X4947603Y-15246842D01*
X5635381Y-15934620D01*
X5846256Y-16075522D01*
X6095000Y-16125000D01*
X6777000Y-16125000D01*
X6777000Y-16136687D01*
X6672611Y-16179926D01*
X6652537Y-16200000D01*
X6576250Y-16200000D01*
X6445000Y-16331250D01*
X6445000Y-16379429D01*
X6474231Y-16450000D01*
X6445000Y-16520571D01*
X6445000Y-16568750D01*
X6576250Y-16700000D01*
X6652537Y-16700000D01*
X6672611Y-16720074D01*
X6777000Y-16763313D01*
X6777000Y-16786687D01*
X6672611Y-16829926D01*
X6652537Y-16850000D01*
X6576250Y-16850000D01*
X6445000Y-16981250D01*
X6445000Y-17029429D01*
X6474231Y-17100000D01*
X6445000Y-17170571D01*
X6445000Y-17218750D01*
X6576250Y-17350000D01*
X6652537Y-17350000D01*
X6672611Y-17370074D01*
X6777000Y-17413313D01*
X6777000Y-17436687D01*
X6672611Y-17479926D01*
X6652537Y-17500000D01*
X6576250Y-17500000D01*
X6445000Y-17631250D01*
X6445000Y-17679429D01*
X6474231Y-17750000D01*
X6445000Y-17820571D01*
X6445000Y-17868750D01*
X6576250Y-18000000D01*
X6652537Y-18000000D01*
X6672611Y-18020074D01*
X6777000Y-18063313D01*
X6777000Y-18086687D01*
X6672611Y-18129926D01*
X6652537Y-18150000D01*
X6576250Y-18150000D01*
X6445000Y-18281250D01*
X6445000Y-18329429D01*
X6474231Y-18400000D01*
X6445000Y-18470571D01*
X6445000Y-18518750D01*
X6576250Y-18650000D01*
X6652537Y-18650000D01*
X6672611Y-18670074D01*
X6777000Y-18713313D01*
X6777000Y-18736687D01*
X6672611Y-18779926D01*
X6652537Y-18800000D01*
X6576250Y-18800000D01*
X6445000Y-18931250D01*
X6445000Y-18979429D01*
X6474231Y-19050000D01*
X6445000Y-19120571D01*
X6445000Y-19168750D01*
X6576250Y-19300000D01*
X6652537Y-19300000D01*
X6672611Y-19320074D01*
X6777000Y-19363313D01*
X6777000Y-19386687D01*
X6672611Y-19429926D01*
X6652537Y-19450000D01*
X6576250Y-19450000D01*
X6445000Y-19581250D01*
X6445000Y-19629429D01*
X6474231Y-19700000D01*
X6445000Y-19770571D01*
X6445000Y-19818750D01*
X6576250Y-19950000D01*
X6652537Y-19950000D01*
X6672611Y-19970074D01*
X6777000Y-20013313D01*
X6777000Y-20036687D01*
X6672611Y-20079926D01*
X6652537Y-20100000D01*
X6576250Y-20100000D01*
X6445000Y-20231250D01*
X6445000Y-20279429D01*
X6474231Y-20350000D01*
X6445000Y-20420571D01*
X6445000Y-20468750D01*
X6576250Y-20600000D01*
X6652537Y-20600000D01*
X6672611Y-20620074D01*
X6777000Y-20663313D01*
X6777000Y-20750000D01*
X6576250Y-20750000D01*
X6445000Y-20881250D01*
X6445000Y-20929429D01*
X6524926Y-21122389D01*
X6672611Y-21270074D01*
X6865571Y-21350000D01*
X7763750Y-21350000D01*
X7880750Y-21233000D01*
X8059250Y-21233000D01*
X8176250Y-21350000D01*
X9074429Y-21350000D01*
X9267389Y-21270074D01*
X9415074Y-21122389D01*
X9495000Y-20929429D01*
X9495000Y-20881250D01*
X9363750Y-20750000D01*
X9059000Y-20750000D01*
X9059000Y-20700000D01*
X9074429Y-20700000D01*
X9267389Y-20620074D01*
X9287463Y-20600000D01*
X9363750Y-20600000D01*
X9495000Y-20468750D01*
X9495000Y-20420571D01*
X9465769Y-20350000D01*
X9495000Y-20279429D01*
X9495000Y-20231250D01*
X9363750Y-20100000D01*
X9287463Y-20100000D01*
X9267389Y-20079926D01*
X9134785Y-20025000D01*
X9267389Y-19970074D01*
X9287463Y-19950000D01*
X9363750Y-19950000D01*
X9495000Y-19818750D01*
X9495000Y-19770571D01*
X9465769Y-19700000D01*
X9495000Y-19629429D01*
X9495000Y-19581250D01*
X9363750Y-19450000D01*
X9287463Y-19450000D01*
X9267389Y-19429926D01*
X9134785Y-19375000D01*
X9267389Y-19320074D01*
X9287463Y-19300000D01*
X9363750Y-19300000D01*
X9495000Y-19168750D01*
X9495000Y-19120571D01*
X9465769Y-19050000D01*
X9495000Y-18979429D01*
X9495000Y-18931250D01*
X9363750Y-18800000D01*
X9287463Y-18800000D01*
X9267389Y-18779926D01*
X9134785Y-18725000D01*
X9267389Y-18670074D01*
X9287463Y-18650000D01*
X9363750Y-18650000D01*
X9495000Y-18518750D01*
X9495000Y-18470571D01*
X9465769Y-18400000D01*
X9495000Y-18329429D01*
X9495000Y-18281250D01*
X9363750Y-18150000D01*
X9287463Y-18150000D01*
X9267389Y-18129926D01*
X9134785Y-18075000D01*
X9267389Y-18020074D01*
X9287463Y-18000000D01*
X9363750Y-18000000D01*
X9495000Y-17868750D01*
X9495000Y-17820571D01*
X9465769Y-17750000D01*
X9495000Y-17679429D01*
X9495000Y-17631250D01*
X9363750Y-17500000D01*
X9287463Y-17500000D01*
X9267389Y-17479926D01*
X9134785Y-17425000D01*
X9267389Y-17370074D01*
X9287463Y-17350000D01*
X9363750Y-17350000D01*
X9495000Y-17218750D01*
X9495000Y-17170571D01*
X9465769Y-17100000D01*
X9495000Y-17029429D01*
X9495000Y-16981250D01*
X9363750Y-16850000D01*
X9287463Y-16850000D01*
X9267389Y-16829926D01*
X9134785Y-16775000D01*
X9267389Y-16720074D01*
X9287463Y-16700000D01*
X9363750Y-16700000D01*
X9495000Y-16568750D01*
X9495000Y-16520571D01*
X9465769Y-16450000D01*
X9495000Y-16379429D01*
X9495000Y-16331250D01*
X9363750Y-16200000D01*
X9287463Y-16200000D01*
X9267389Y-16179926D01*
X9141887Y-16127942D01*
X9164553Y-16123677D01*
X9279051Y-16050000D01*
X9363750Y-16050000D01*
X9495000Y-15918750D01*
X9495000Y-15870571D01*
X9468508Y-15806612D01*
X9505285Y-15625000D01*
X9505285Y-15325000D01*
X9470298Y-15139064D01*
X9495000Y-15079429D01*
X9495000Y-15031250D01*
X9363750Y-14900000D01*
X9277941Y-14900000D01*
X9178256Y-14831888D01*
X8970000Y-14789715D01*
X6970000Y-14789715D01*
X6782478Y-14825000D01*
X6364239Y-14825000D01*
X6109810Y-14570571D01*
X6445000Y-14570571D01*
X6445000Y-14618750D01*
X6576250Y-14750000D01*
X7895000Y-14750000D01*
X7895000Y-14281250D01*
X8045000Y-14281250D01*
X8045000Y-14750000D01*
X9363750Y-14750000D01*
X9495000Y-14618750D01*
X9495000Y-14570571D01*
X9415074Y-14377611D01*
X9267389Y-14229926D01*
X9074429Y-14150000D01*
X8176250Y-14150000D01*
X8045000Y-14281250D01*
X7895000Y-14281250D01*
X7763750Y-14150000D01*
X6865571Y-14150000D01*
X6672611Y-14229926D01*
X6524926Y-14377611D01*
X6445000Y-14570571D01*
X6109810Y-14570571D01*
X4921853Y-13382614D01*
X4960912Y-13186250D01*
X11177000Y-13186250D01*
X11177000Y-13459429D01*
X11256926Y-13652389D01*
X11404611Y-13800074D01*
X11597571Y-13880000D01*
X12095750Y-13880000D01*
X12227000Y-13748750D01*
X12227000Y-13055000D01*
X11308250Y-13055000D01*
X11177000Y-13186250D01*
X4960912Y-13186250D01*
X5001938Y-12980000D01*
X4921853Y-12577385D01*
X4998667Y-12500571D01*
X11177000Y-12500571D01*
X11177000Y-12773750D01*
X11308250Y-12905000D01*
X12227000Y-12905000D01*
X12227000Y-12211250D01*
X12377000Y-12211250D01*
X12377000Y-12905000D01*
X12397000Y-12905000D01*
X12397000Y-13055000D01*
X12377000Y-13055000D01*
X12377000Y-13748750D01*
X12508250Y-13880000D01*
X13006429Y-13880000D01*
X13199389Y-13800074D01*
X13249743Y-13749720D01*
X13393744Y-13848112D01*
X13602000Y-13890285D01*
X13820000Y-13890285D01*
X13820000Y-14139715D01*
X13470000Y-14139715D01*
X13275447Y-14176323D01*
X13096761Y-14291304D01*
X12976888Y-14466744D01*
X12934715Y-14675000D01*
X12934715Y-14975000D01*
X12969702Y-15160936D01*
X12945000Y-15220571D01*
X12945000Y-15268750D01*
X13076250Y-15400000D01*
X13162059Y-15400000D01*
X13261744Y-15468112D01*
X13289362Y-15473705D01*
X13275447Y-15476323D01*
X13160949Y-15550000D01*
X13076250Y-15550000D01*
X12945000Y-15681250D01*
X12945000Y-15729429D01*
X12971492Y-15793388D01*
X12934715Y-15975000D01*
X12934715Y-16275000D01*
X12968853Y-16456424D01*
X12934715Y-16625000D01*
X12934715Y-16925000D01*
X12968853Y-17106424D01*
X12934715Y-17275000D01*
X12934715Y-17575000D01*
X12968853Y-17756424D01*
X12934715Y-17925000D01*
X12934715Y-18225000D01*
X12968853Y-18406424D01*
X12934715Y-18575000D01*
X12934715Y-18875000D01*
X12968853Y-19056424D01*
X12934715Y-19225000D01*
X12934715Y-19525000D01*
X12968853Y-19706424D01*
X12934715Y-19875000D01*
X12934715Y-20175000D01*
X12968853Y-20356424D01*
X12934715Y-20525000D01*
X12934715Y-20825000D01*
X12971323Y-21019553D01*
X13086304Y-21198239D01*
X13261744Y-21318112D01*
X13470000Y-21360285D01*
X15470000Y-21360285D01*
X15664553Y-21323677D01*
X15843239Y-21208696D01*
X15963112Y-21033256D01*
X16005285Y-20825000D01*
X16005285Y-20525000D01*
X15971147Y-20343576D01*
X16005285Y-20175000D01*
X16005285Y-19875000D01*
X15971147Y-19693576D01*
X16005285Y-19525000D01*
X16005285Y-19225000D01*
X15971147Y-19043576D01*
X16005285Y-18875000D01*
X16005285Y-18575000D01*
X15971147Y-18393576D01*
X16005285Y-18225000D01*
X16005285Y-17925000D01*
X15971147Y-17743576D01*
X16005285Y-17575000D01*
X16005285Y-17275000D01*
X15971147Y-17093576D01*
X16005285Y-16925000D01*
X16005285Y-16775000D01*
X16457000Y-16775000D01*
X16664476Y-16733731D01*
X16705745Y-16725522D01*
X16745519Y-16698946D01*
X16991187Y-16699160D01*
X17331286Y-16558634D01*
X17591720Y-16298655D01*
X17732839Y-15958801D01*
X17733160Y-15590813D01*
X17592634Y-15250714D01*
X17332655Y-14990280D01*
X16992801Y-14849161D01*
X16624813Y-14848840D01*
X16284714Y-14989366D01*
X16024280Y-15249345D01*
X15961724Y-15399998D01*
X15863752Y-15399998D01*
X15995000Y-15268750D01*
X15995000Y-15220571D01*
X15968508Y-15156612D01*
X16005285Y-14975000D01*
X16005285Y-14675000D01*
X15968677Y-14480447D01*
X15853696Y-14301761D01*
X15678256Y-14181888D01*
X15470000Y-14139715D01*
X15120000Y-14139715D01*
X15120000Y-13774241D01*
X15149902Y-13755000D01*
X20042984Y-13755000D01*
X24895992Y-18608008D01*
X25147420Y-18776007D01*
X25444000Y-18835000D01*
X29762000Y-18835000D01*
X30058580Y-18776007D01*
X30310008Y-18608008D01*
X30569162Y-18348854D01*
X42895683Y-18348854D01*
X43085169Y-18806328D01*
X43458683Y-19191452D01*
X43951145Y-19404323D01*
X44165000Y-19301709D01*
X44165000Y-18135000D01*
X44315000Y-18135000D01*
X44315000Y-19301709D01*
X44528855Y-19404323D01*
X45021317Y-19191452D01*
X45394831Y-18806328D01*
X45584317Y-18348854D01*
X45481487Y-18135000D01*
X44315000Y-18135000D01*
X44165000Y-18135000D01*
X42998513Y-18135000D01*
X42895683Y-18348854D01*
X30569162Y-18348854D01*
X33358008Y-15560008D01*
X33526007Y-15308580D01*
X33585000Y-15012000D01*
X33585000Y-14546922D01*
X37064144Y-14546922D01*
X37142823Y-14770999D01*
X37642081Y-14968936D01*
X38179081Y-14960749D01*
X38637177Y-14770999D01*
X38715856Y-14546922D01*
X37890000Y-13721066D01*
X37064144Y-14546922D01*
X33585000Y-14546922D01*
X33585000Y-13367081D01*
X36536064Y-13367081D01*
X36544251Y-13904081D01*
X36734001Y-14362177D01*
X36958078Y-14440856D01*
X37783934Y-13615000D01*
X37996066Y-13615000D01*
X38821922Y-14440856D01*
X39045999Y-14362177D01*
X39243936Y-13862919D01*
X39235749Y-13325919D01*
X39045999Y-12867823D01*
X38821922Y-12789144D01*
X37996066Y-13615000D01*
X37783934Y-13615000D01*
X36958078Y-12789144D01*
X36734001Y-12867823D01*
X36536064Y-13367081D01*
X33585000Y-13367081D01*
X33585000Y-12683078D01*
X37064144Y-12683078D01*
X37890000Y-13508934D01*
X38715856Y-12683078D01*
X38637177Y-12459001D01*
X38137919Y-12261064D01*
X37600919Y-12269251D01*
X37142823Y-12459001D01*
X37064144Y-12683078D01*
X33585000Y-12683078D01*
X33585000Y-10507016D01*
X35417016Y-8675000D01*
X42854715Y-8675000D01*
X42854715Y-8750000D01*
X42891323Y-8944553D01*
X43006304Y-9123239D01*
X43181744Y-9243112D01*
X43390000Y-9285285D01*
X43513836Y-9285285D01*
X43240790Y-9467728D01*
X42942728Y-9913810D01*
X42838062Y-10440000D01*
X42942728Y-10966190D01*
X43240790Y-11412272D01*
X43686372Y-11710000D01*
X43240790Y-12007728D01*
X42942728Y-12453810D01*
X42838062Y-12980000D01*
X42942728Y-13506190D01*
X43240790Y-13952272D01*
X43686372Y-14250000D01*
X43240790Y-14547728D01*
X42942728Y-14993810D01*
X42838062Y-15520000D01*
X42942728Y-16046190D01*
X43240790Y-16492272D01*
X43686872Y-16790334D01*
X43749577Y-16802807D01*
X43458683Y-16928548D01*
X43085169Y-17313672D01*
X42895683Y-17771146D01*
X42998513Y-17985000D01*
X44165000Y-17985000D01*
X44165000Y-17965000D01*
X44315000Y-17965000D01*
X44315000Y-17985000D01*
X45481487Y-17985000D01*
X45584317Y-17771146D01*
X45394831Y-17313672D01*
X45021317Y-16928548D01*
X44730423Y-16802807D01*
X44793128Y-16790334D01*
X45239210Y-16492272D01*
X45537272Y-16046190D01*
X45641938Y-15520000D01*
X45537272Y-14993810D01*
X45239210Y-14547728D01*
X44793628Y-14250000D01*
X45239210Y-13952272D01*
X45537272Y-13506190D01*
X45641938Y-12980000D01*
X45537272Y-12453810D01*
X45239210Y-12007728D01*
X44793628Y-11710000D01*
X45239210Y-11412272D01*
X45537272Y-10966190D01*
X45641938Y-10440000D01*
X45537272Y-9913810D01*
X45239210Y-9467728D01*
X44966164Y-9285285D01*
X45090000Y-9285285D01*
X45284553Y-9248677D01*
X45463239Y-9133696D01*
X45583112Y-8958256D01*
X45625285Y-8750000D01*
X45625285Y-7050000D01*
X45588677Y-6855447D01*
X45473696Y-6676761D01*
X45298256Y-6556888D01*
X45090000Y-6514715D01*
X43390000Y-6514715D01*
X43195447Y-6551323D01*
X43016761Y-6666304D01*
X42896888Y-6841744D01*
X42854715Y-7050000D01*
X42854715Y-7125000D01*
X35096000Y-7125000D01*
X34799420Y-7183993D01*
X34547992Y-7351992D01*
X32261992Y-9637992D01*
X32093993Y-9889420D01*
X32035000Y-10186000D01*
X32035000Y-14690984D01*
X29440984Y-17285000D01*
X25765016Y-17285000D01*
X20912008Y-12431992D01*
X20660580Y-12263993D01*
X20364000Y-12205000D01*
X15146530Y-12205000D01*
X15010256Y-12111888D01*
X14802000Y-12069715D01*
X13602000Y-12069715D01*
X13407447Y-12106323D01*
X13248236Y-12208773D01*
X13199389Y-12159926D01*
X13006429Y-12080000D01*
X12508250Y-12080000D01*
X12377000Y-12211250D01*
X12227000Y-12211250D01*
X12095750Y-12080000D01*
X11597571Y-12080000D01*
X11404611Y-12159926D01*
X11256926Y-12307611D01*
X11177000Y-12500571D01*
X4998667Y-12500571D01*
X9949239Y-7550000D01*
X11382273Y-7550000D01*
X11204714Y-7623366D01*
X10944280Y-7883345D01*
X10803161Y-8223199D01*
X10802840Y-8591187D01*
X10943366Y-8931286D01*
X11203345Y-9191720D01*
X11543199Y-9332839D01*
X11911187Y-9333160D01*
X12251286Y-9192634D01*
X12511720Y-8932655D01*
X12652839Y-8592801D01*
X12652876Y-8550000D01*
X13045000Y-8550000D01*
X13045000Y-8693750D01*
X13127000Y-8775750D01*
X13127000Y-9024250D01*
X13045000Y-9106250D01*
X13045000Y-9254429D01*
X13105297Y-9400000D01*
X13045000Y-9545571D01*
X13045000Y-9693750D01*
X13127000Y-9775750D01*
X13127000Y-10024250D01*
X13045000Y-10106250D01*
X13045000Y-10254429D01*
X13124926Y-10447389D01*
X13129193Y-10451656D01*
X13135549Y-10485432D01*
X13162399Y-10527159D01*
X13203368Y-10555152D01*
X13240134Y-10562597D01*
X13272611Y-10595074D01*
X13465571Y-10675000D01*
X14363750Y-10675000D01*
X14473750Y-10565000D01*
X14666250Y-10565000D01*
X14776250Y-10675000D01*
X15674429Y-10675000D01*
X15867389Y-10595074D01*
X16015074Y-10447389D01*
X16095000Y-10254429D01*
X16095000Y-10106250D01*
X19045000Y-10106250D01*
X19045000Y-10254429D01*
X19124926Y-10447389D01*
X19272611Y-10595074D01*
X19465571Y-10675000D01*
X20363750Y-10675000D01*
X20495000Y-10543750D01*
X20495000Y-9975000D01*
X20645000Y-9975000D01*
X20645000Y-10543750D01*
X20776250Y-10675000D01*
X21674429Y-10675000D01*
X21867389Y-10595074D01*
X22015074Y-10447389D01*
X22095000Y-10254429D01*
X22095000Y-10106250D01*
X21963750Y-9975000D01*
X20645000Y-9975000D01*
X20495000Y-9975000D01*
X19176250Y-9975000D01*
X19045000Y-10106250D01*
X16095000Y-10106250D01*
X15963750Y-9975000D01*
X15917000Y-9975000D01*
X15917000Y-9825000D01*
X15963750Y-9825000D01*
X16095000Y-9693750D01*
X16095000Y-9545571D01*
X16034703Y-9400000D01*
X16095000Y-9254429D01*
X16095000Y-9106250D01*
X15963750Y-8975000D01*
X15917000Y-8975000D01*
X15917000Y-8825000D01*
X15963750Y-8825000D01*
X16095000Y-8693750D01*
X16095000Y-8545571D01*
X16034660Y-8399897D01*
X16063112Y-8358256D01*
X16105285Y-8150000D01*
X16105285Y-7650000D01*
X16068677Y-7455447D01*
X16033770Y-7401200D01*
X16063112Y-7358256D01*
X16105285Y-7150000D01*
X16105285Y-6650000D01*
X16068677Y-6455447D01*
X16033770Y-6401200D01*
X16063112Y-6358256D01*
X16105285Y-6150000D01*
X16105285Y-5650000D01*
X19034715Y-5650000D01*
X19034715Y-6150000D01*
X19071323Y-6344553D01*
X19106230Y-6398800D01*
X19076888Y-6441744D01*
X19034715Y-6650000D01*
X19034715Y-7150000D01*
X19071323Y-7344553D01*
X19106230Y-7398800D01*
X19076888Y-7441744D01*
X19034715Y-7650000D01*
X19034715Y-8150000D01*
X19071323Y-8344553D01*
X19106230Y-8398800D01*
X19076888Y-8441744D01*
X19034715Y-8650000D01*
X19034715Y-9150000D01*
X19071323Y-9344553D01*
X19105965Y-9398388D01*
X19045000Y-9545571D01*
X19045000Y-9693750D01*
X19176250Y-9825000D01*
X20495000Y-9825000D01*
X20495000Y-9805000D01*
X20645000Y-9805000D01*
X20645000Y-9825000D01*
X21963750Y-9825000D01*
X22095000Y-9693750D01*
X22095000Y-9545571D01*
X22034660Y-9399897D01*
X22063112Y-9358256D01*
X22105285Y-9150000D01*
X22105285Y-8650000D01*
X22068677Y-8455447D01*
X22033770Y-8401200D01*
X22063112Y-8358256D01*
X22105285Y-8150000D01*
X22105285Y-7650000D01*
X22102857Y-7637095D01*
X25175000Y-10709238D01*
X25175000Y-13575000D01*
X25204054Y-13721066D01*
X25224478Y-13823745D01*
X25365381Y-14034619D01*
X26475620Y-15144859D01*
X26443224Y-15222877D01*
X26442777Y-15734877D01*
X26638298Y-16208075D01*
X27000021Y-16570429D01*
X27472877Y-16766776D01*
X27984877Y-16767223D01*
X28458075Y-16571702D01*
X28820429Y-16209979D01*
X29016776Y-15737123D01*
X29017223Y-15225123D01*
X28821702Y-14751925D01*
X28459979Y-14389571D01*
X27987123Y-14193224D01*
X27475123Y-14192777D01*
X27395086Y-14225848D01*
X26475000Y-13305762D01*
X26475000Y-11445375D01*
X26584304Y-11615239D01*
X26759744Y-11735112D01*
X26968000Y-11777285D01*
X28492000Y-11777285D01*
X28686553Y-11740677D01*
X28865239Y-11625696D01*
X28985112Y-11450256D01*
X29027285Y-11242000D01*
X29027285Y-9718000D01*
X28990677Y-9523447D01*
X28875696Y-9344761D01*
X28700256Y-9224888D01*
X28492000Y-9182715D01*
X27391954Y-9182715D01*
X23649619Y-5440381D01*
X23438745Y-5299478D01*
X23397476Y-5291269D01*
X23190000Y-5250000D01*
X21914530Y-5250000D01*
X21778256Y-5156888D01*
X21570000Y-5114715D01*
X19570000Y-5114715D01*
X19375447Y-5151323D01*
X19196761Y-5266304D01*
X19076888Y-5441744D01*
X19034715Y-5650000D01*
X16105285Y-5650000D01*
X16068677Y-5455447D01*
X15953696Y-5276761D01*
X15778256Y-5156888D01*
X15570000Y-5114715D01*
X15212186Y-5114715D01*
X15170522Y-4905256D01*
X15029620Y-4694381D01*
X14978213Y-4642974D01*
X15033764Y-4607227D01*
X15082611Y-4656074D01*
X15275571Y-4736000D01*
X15773750Y-4736000D01*
X15905000Y-4604750D01*
X15905000Y-3911000D01*
X16055000Y-3911000D01*
X16055000Y-4604750D01*
X16186250Y-4736000D01*
X16684429Y-4736000D01*
X16877389Y-4656074D01*
X17025074Y-4508389D01*
X17105000Y-4315429D01*
X17105000Y-4042250D01*
X16973750Y-3911000D01*
X16055000Y-3911000D01*
X15905000Y-3911000D01*
X15885000Y-3911000D01*
X15885000Y-3761000D01*
X15905000Y-3761000D01*
X15905000Y-3067250D01*
X16055000Y-3067250D01*
X16055000Y-3761000D01*
X16973750Y-3761000D01*
X17105000Y-3629750D01*
X17105000Y-3356571D01*
X17025074Y-3163611D01*
X16877389Y-3015926D01*
X16684429Y-2936000D01*
X16186250Y-2936000D01*
X16055000Y-3067250D01*
X15905000Y-3067250D01*
X15773750Y-2936000D01*
X15275571Y-2936000D01*
X15082611Y-3015926D01*
X15032257Y-3066280D01*
X14888256Y-2967888D01*
X14680000Y-2925715D01*
X13480000Y-2925715D01*
X13285447Y-2962323D01*
X13132098Y-3061000D01*
X7664000Y-3061000D01*
X7367420Y-3119993D01*
X7115992Y-3287992D01*
X3889269Y-6514715D01*
X2750000Y-6514715D01*
X2555447Y-6551323D01*
X2376761Y-6666304D01*
X2256888Y-6841744D01*
X2214715Y-7050000D01*
X2214715Y-8750000D01*
X2251323Y-8944553D01*
X2366304Y-9123239D01*
X2541744Y-9243112D01*
X2750000Y-9285285D01*
X2873836Y-9285285D01*
X2600790Y-9467728D01*
X2302728Y-9913810D01*
X2198062Y-10440000D01*
X1125000Y-10440000D01*
X1125000Y-1125000D01*
X46875000Y-1125000D01*
X46875000Y-24875000D01*
X46875000Y-24875000D01*
G37*
X46875000Y-24875000D02*
X1125000Y-24875000D01*
X1125000Y-18348854D01*
X2255683Y-18348854D01*
X2445169Y-18806328D01*
X2818683Y-19191452D01*
X3311145Y-19404323D01*
X3525000Y-19301709D01*
X3525000Y-18135000D01*
X3675000Y-18135000D01*
X3675000Y-19301709D01*
X3888855Y-19404323D01*
X4381317Y-19191452D01*
X4754831Y-18806328D01*
X4944317Y-18348854D01*
X4841487Y-18135000D01*
X3675000Y-18135000D01*
X3525000Y-18135000D01*
X2358513Y-18135000D01*
X2255683Y-18348854D01*
X1125000Y-18348854D01*
X1125000Y-10440000D01*
X2198062Y-10440000D01*
X2302728Y-10966190D01*
X2600790Y-11412272D01*
X3046372Y-11710000D01*
X2600790Y-12007728D01*
X2302728Y-12453810D01*
X2198062Y-12980000D01*
X2302728Y-13506190D01*
X2600790Y-13952272D01*
X3046372Y-14250000D01*
X2600790Y-14547728D01*
X2302728Y-14993810D01*
X2198062Y-15520000D01*
X2302728Y-16046190D01*
X2600790Y-16492272D01*
X3046872Y-16790334D01*
X3109577Y-16802807D01*
X2818683Y-16928548D01*
X2445169Y-17313672D01*
X2255683Y-17771146D01*
X2358513Y-17985000D01*
X3525000Y-17985000D01*
X3525000Y-17965000D01*
X3675000Y-17965000D01*
X3675000Y-17985000D01*
X4841487Y-17985000D01*
X4944317Y-17771146D01*
X4754831Y-17313672D01*
X4381317Y-16928548D01*
X4090423Y-16802807D01*
X4153128Y-16790334D01*
X4599210Y-16492272D01*
X4897272Y-16046190D01*
X5001938Y-15520000D01*
X4947603Y-15246842D01*
X5635381Y-15934620D01*
X5846256Y-16075522D01*
X6095000Y-16125000D01*
X6777000Y-16125000D01*
X6777000Y-16136687D01*
X6672611Y-16179926D01*
X6652537Y-16200000D01*
X6576250Y-16200000D01*
X6445000Y-16331250D01*
X6445000Y-16379429D01*
X6474231Y-16450000D01*
X6445000Y-16520571D01*
X6445000Y-16568750D01*
X6576250Y-16700000D01*
X6652537Y-16700000D01*
X6672611Y-16720074D01*
X6777000Y-16763313D01*
X6777000Y-16786687D01*
X6672611Y-16829926D01*
X6652537Y-16850000D01*
X6576250Y-16850000D01*
X6445000Y-16981250D01*
X6445000Y-17029429D01*
X6474231Y-17100000D01*
X6445000Y-17170571D01*
X6445000Y-17218750D01*
X6576250Y-17350000D01*
X6652537Y-17350000D01*
X6672611Y-17370074D01*
X6777000Y-17413313D01*
X6777000Y-17436687D01*
X6672611Y-17479926D01*
X6652537Y-17500000D01*
X6576250Y-17500000D01*
X6445000Y-17631250D01*
X6445000Y-17679429D01*
X6474231Y-17750000D01*
X6445000Y-17820571D01*
X6445000Y-17868750D01*
X6576250Y-18000000D01*
X6652537Y-18000000D01*
X6672611Y-18020074D01*
X6777000Y-18063313D01*
X6777000Y-18086687D01*
X6672611Y-18129926D01*
X6652537Y-18150000D01*
X6576250Y-18150000D01*
X6445000Y-18281250D01*
X6445000Y-18329429D01*
X6474231Y-18400000D01*
X6445000Y-18470571D01*
X6445000Y-18518750D01*
X6576250Y-18650000D01*
X6652537Y-18650000D01*
X6672611Y-18670074D01*
X6777000Y-18713313D01*
X6777000Y-18736687D01*
X6672611Y-18779926D01*
X6652537Y-18800000D01*
X6576250Y-18800000D01*
X6445000Y-18931250D01*
X6445000Y-18979429D01*
X6474231Y-19050000D01*
X6445000Y-19120571D01*
X6445000Y-19168750D01*
X6576250Y-19300000D01*
X6652537Y-19300000D01*
X6672611Y-19320074D01*
X6777000Y-19363313D01*
X6777000Y-19386687D01*
X6672611Y-19429926D01*
X6652537Y-19450000D01*
X6576250Y-19450000D01*
X6445000Y-19581250D01*
X6445000Y-19629429D01*
X6474231Y-19700000D01*
X6445000Y-19770571D01*
X6445000Y-19818750D01*
X6576250Y-19950000D01*
X6652537Y-19950000D01*
X6672611Y-19970074D01*
X6777000Y-20013313D01*
X6777000Y-20036687D01*
X6672611Y-20079926D01*
X6652537Y-20100000D01*
X6576250Y-20100000D01*
X6445000Y-20231250D01*
X6445000Y-20279429D01*
X6474231Y-20350000D01*
X6445000Y-20420571D01*
X6445000Y-20468750D01*
X6576250Y-20600000D01*
X6652537Y-20600000D01*
X6672611Y-20620074D01*
X6777000Y-20663313D01*
X6777000Y-20750000D01*
X6576250Y-20750000D01*
X6445000Y-20881250D01*
X6445000Y-20929429D01*
X6524926Y-21122389D01*
X6672611Y-21270074D01*
X6865571Y-21350000D01*
X7763750Y-21350000D01*
X7880750Y-21233000D01*
X8059250Y-21233000D01*
X8176250Y-21350000D01*
X9074429Y-21350000D01*
X9267389Y-21270074D01*
X9415074Y-21122389D01*
X9495000Y-20929429D01*
X9495000Y-20881250D01*
X9363750Y-20750000D01*
X9059000Y-20750000D01*
X9059000Y-20700000D01*
X9074429Y-20700000D01*
X9267389Y-20620074D01*
X9287463Y-20600000D01*
X9363750Y-20600000D01*
X9495000Y-20468750D01*
X9495000Y-20420571D01*
X9465769Y-20350000D01*
X9495000Y-20279429D01*
X9495000Y-20231250D01*
X9363750Y-20100000D01*
X9287463Y-20100000D01*
X9267389Y-20079926D01*
X9134785Y-20025000D01*
X9267389Y-19970074D01*
X9287463Y-19950000D01*
X9363750Y-19950000D01*
X9495000Y-19818750D01*
X9495000Y-19770571D01*
X9465769Y-19700000D01*
X9495000Y-19629429D01*
X9495000Y-19581250D01*
X9363750Y-19450000D01*
X9287463Y-19450000D01*
X9267389Y-19429926D01*
X9134785Y-19375000D01*
X9267389Y-19320074D01*
X9287463Y-19300000D01*
X9363750Y-19300000D01*
X9495000Y-19168750D01*
X9495000Y-19120571D01*
X9465769Y-19050000D01*
X9495000Y-18979429D01*
X9495000Y-18931250D01*
X9363750Y-18800000D01*
X9287463Y-18800000D01*
X9267389Y-18779926D01*
X9134785Y-18725000D01*
X9267389Y-18670074D01*
X9287463Y-18650000D01*
X9363750Y-18650000D01*
X9495000Y-18518750D01*
X9495000Y-18470571D01*
X9465769Y-18400000D01*
X9495000Y-18329429D01*
X9495000Y-18281250D01*
X9363750Y-18150000D01*
X9287463Y-18150000D01*
X9267389Y-18129926D01*
X9134785Y-18075000D01*
X9267389Y-18020074D01*
X9287463Y-18000000D01*
X9363750Y-18000000D01*
X9495000Y-17868750D01*
X9495000Y-17820571D01*
X9465769Y-17750000D01*
X9495000Y-17679429D01*
X9495000Y-17631250D01*
X9363750Y-17500000D01*
X9287463Y-17500000D01*
X9267389Y-17479926D01*
X9134785Y-17425000D01*
X9267389Y-17370074D01*
X9287463Y-17350000D01*
X9363750Y-17350000D01*
X9495000Y-17218750D01*
X9495000Y-17170571D01*
X9465769Y-17100000D01*
X9495000Y-17029429D01*
X9495000Y-16981250D01*
X9363750Y-16850000D01*
X9287463Y-16850000D01*
X9267389Y-16829926D01*
X9134785Y-16775000D01*
X9267389Y-16720074D01*
X9287463Y-16700000D01*
X9363750Y-16700000D01*
X9495000Y-16568750D01*
X9495000Y-16520571D01*
X9465769Y-16450000D01*
X9495000Y-16379429D01*
X9495000Y-16331250D01*
X9363750Y-16200000D01*
X9287463Y-16200000D01*
X9267389Y-16179926D01*
X9141887Y-16127942D01*
X9164553Y-16123677D01*
X9279051Y-16050000D01*
X9363750Y-16050000D01*
X9495000Y-15918750D01*
X9495000Y-15870571D01*
X9468508Y-15806612D01*
X9505285Y-15625000D01*
X9505285Y-15325000D01*
X9470298Y-15139064D01*
X9495000Y-15079429D01*
X9495000Y-15031250D01*
X9363750Y-14900000D01*
X9277941Y-14900000D01*
X9178256Y-14831888D01*
X8970000Y-14789715D01*
X6970000Y-14789715D01*
X6782478Y-14825000D01*
X6364239Y-14825000D01*
X6109810Y-14570571D01*
X6445000Y-14570571D01*
X6445000Y-14618750D01*
X6576250Y-14750000D01*
X7895000Y-14750000D01*
X7895000Y-14281250D01*
X8045000Y-14281250D01*
X8045000Y-14750000D01*
X9363750Y-14750000D01*
X9495000Y-14618750D01*
X9495000Y-14570571D01*
X9415074Y-14377611D01*
X9267389Y-14229926D01*
X9074429Y-14150000D01*
X8176250Y-14150000D01*
X8045000Y-14281250D01*
X7895000Y-14281250D01*
X7763750Y-14150000D01*
X6865571Y-14150000D01*
X6672611Y-14229926D01*
X6524926Y-14377611D01*
X6445000Y-14570571D01*
X6109810Y-14570571D01*
X4921853Y-13382614D01*
X4960912Y-13186250D01*
X11177000Y-13186250D01*
X11177000Y-13459429D01*
X11256926Y-13652389D01*
X11404611Y-13800074D01*
X11597571Y-13880000D01*
X12095750Y-13880000D01*
X12227000Y-13748750D01*
X12227000Y-13055000D01*
X11308250Y-13055000D01*
X11177000Y-13186250D01*
X4960912Y-13186250D01*
X5001938Y-12980000D01*
X4921853Y-12577385D01*
X4998667Y-12500571D01*
X11177000Y-12500571D01*
X11177000Y-12773750D01*
X11308250Y-12905000D01*
X12227000Y-12905000D01*
X12227000Y-12211250D01*
X12377000Y-12211250D01*
X12377000Y-12905000D01*
X12397000Y-12905000D01*
X12397000Y-13055000D01*
X12377000Y-13055000D01*
X12377000Y-13748750D01*
X12508250Y-13880000D01*
X13006429Y-13880000D01*
X13199389Y-13800074D01*
X13249743Y-13749720D01*
X13393744Y-13848112D01*
X13602000Y-13890285D01*
X13820000Y-13890285D01*
X13820000Y-14139715D01*
X13470000Y-14139715D01*
X13275447Y-14176323D01*
X13096761Y-14291304D01*
X12976888Y-14466744D01*
X12934715Y-14675000D01*
X12934715Y-14975000D01*
X12969702Y-15160936D01*
X12945000Y-15220571D01*
X12945000Y-15268750D01*
X13076250Y-15400000D01*
X13162059Y-15400000D01*
X13261744Y-15468112D01*
X13289362Y-15473705D01*
X13275447Y-15476323D01*
X13160949Y-15550000D01*
X13076250Y-15550000D01*
X12945000Y-15681250D01*
X12945000Y-15729429D01*
X12971492Y-15793388D01*
X12934715Y-15975000D01*
X12934715Y-16275000D01*
X12968853Y-16456424D01*
X12934715Y-16625000D01*
X12934715Y-16925000D01*
X12968853Y-17106424D01*
X12934715Y-17275000D01*
X12934715Y-17575000D01*
X12968853Y-17756424D01*
X12934715Y-17925000D01*
X12934715Y-18225000D01*
X12968853Y-18406424D01*
X12934715Y-18575000D01*
X12934715Y-18875000D01*
X12968853Y-19056424D01*
X12934715Y-19225000D01*
X12934715Y-19525000D01*
X12968853Y-19706424D01*
X12934715Y-19875000D01*
X12934715Y-20175000D01*
X12968853Y-20356424D01*
X12934715Y-20525000D01*
X12934715Y-20825000D01*
X12971323Y-21019553D01*
X13086304Y-21198239D01*
X13261744Y-21318112D01*
X13470000Y-21360285D01*
X15470000Y-21360285D01*
X15664553Y-21323677D01*
X15843239Y-21208696D01*
X15963112Y-21033256D01*
X16005285Y-20825000D01*
X16005285Y-20525000D01*
X15971147Y-20343576D01*
X16005285Y-20175000D01*
X16005285Y-19875000D01*
X15971147Y-19693576D01*
X16005285Y-19525000D01*
X16005285Y-19225000D01*
X15971147Y-19043576D01*
X16005285Y-18875000D01*
X16005285Y-18575000D01*
X15971147Y-18393576D01*
X16005285Y-18225000D01*
X16005285Y-17925000D01*
X15971147Y-17743576D01*
X16005285Y-17575000D01*
X16005285Y-17275000D01*
X15971147Y-17093576D01*
X16005285Y-16925000D01*
X16005285Y-16775000D01*
X16457000Y-16775000D01*
X16664476Y-16733731D01*
X16705745Y-16725522D01*
X16745519Y-16698946D01*
X16991187Y-16699160D01*
X17331286Y-16558634D01*
X17591720Y-16298655D01*
X17732839Y-15958801D01*
X17733160Y-15590813D01*
X17592634Y-15250714D01*
X17332655Y-14990280D01*
X16992801Y-14849161D01*
X16624813Y-14848840D01*
X16284714Y-14989366D01*
X16024280Y-15249345D01*
X15961724Y-15399998D01*
X15863752Y-15399998D01*
X15995000Y-15268750D01*
X15995000Y-15220571D01*
X15968508Y-15156612D01*
X16005285Y-14975000D01*
X16005285Y-14675000D01*
X15968677Y-14480447D01*
X15853696Y-14301761D01*
X15678256Y-14181888D01*
X15470000Y-14139715D01*
X15120000Y-14139715D01*
X15120000Y-13774241D01*
X15149902Y-13755000D01*
X20042984Y-13755000D01*
X24895992Y-18608008D01*
X25147420Y-18776007D01*
X25444000Y-18835000D01*
X29762000Y-18835000D01*
X30058580Y-18776007D01*
X30310008Y-18608008D01*
X30569162Y-18348854D01*
X42895683Y-18348854D01*
X43085169Y-18806328D01*
X43458683Y-19191452D01*
X43951145Y-19404323D01*
X44165000Y-19301709D01*
X44165000Y-18135000D01*
X44315000Y-18135000D01*
X44315000Y-19301709D01*
X44528855Y-19404323D01*
X45021317Y-19191452D01*
X45394831Y-18806328D01*
X45584317Y-18348854D01*
X45481487Y-18135000D01*
X44315000Y-18135000D01*
X44165000Y-18135000D01*
X42998513Y-18135000D01*
X42895683Y-18348854D01*
X30569162Y-18348854D01*
X33358008Y-15560008D01*
X33526007Y-15308580D01*
X33585000Y-15012000D01*
X33585000Y-14546922D01*
X37064144Y-14546922D01*
X37142823Y-14770999D01*
X37642081Y-14968936D01*
X38179081Y-14960749D01*
X38637177Y-14770999D01*
X38715856Y-14546922D01*
X37890000Y-13721066D01*
X37064144Y-14546922D01*
X33585000Y-14546922D01*
X33585000Y-13367081D01*
X36536064Y-13367081D01*
X36544251Y-13904081D01*
X36734001Y-14362177D01*
X36958078Y-14440856D01*
X37783934Y-13615000D01*
X37996066Y-13615000D01*
X38821922Y-14440856D01*
X39045999Y-14362177D01*
X39243936Y-13862919D01*
X39235749Y-13325919D01*
X39045999Y-12867823D01*
X38821922Y-12789144D01*
X37996066Y-13615000D01*
X37783934Y-13615000D01*
X36958078Y-12789144D01*
X36734001Y-12867823D01*
X36536064Y-13367081D01*
X33585000Y-13367081D01*
X33585000Y-12683078D01*
X37064144Y-12683078D01*
X37890000Y-13508934D01*
X38715856Y-12683078D01*
X38637177Y-12459001D01*
X38137919Y-12261064D01*
X37600919Y-12269251D01*
X37142823Y-12459001D01*
X37064144Y-12683078D01*
X33585000Y-12683078D01*
X33585000Y-10507016D01*
X35417016Y-8675000D01*
X42854715Y-8675000D01*
X42854715Y-8750000D01*
X42891323Y-8944553D01*
X43006304Y-9123239D01*
X43181744Y-9243112D01*
X43390000Y-9285285D01*
X43513836Y-9285285D01*
X43240790Y-9467728D01*
X42942728Y-9913810D01*
X42838062Y-10440000D01*
X42942728Y-10966190D01*
X43240790Y-11412272D01*
X43686372Y-11710000D01*
X43240790Y-12007728D01*
X42942728Y-12453810D01*
X42838062Y-12980000D01*
X42942728Y-13506190D01*
X43240790Y-13952272D01*
X43686372Y-14250000D01*
X43240790Y-14547728D01*
X42942728Y-14993810D01*
X42838062Y-15520000D01*
X42942728Y-16046190D01*
X43240790Y-16492272D01*
X43686872Y-16790334D01*
X43749577Y-16802807D01*
X43458683Y-16928548D01*
X43085169Y-17313672D01*
X42895683Y-17771146D01*
X42998513Y-17985000D01*
X44165000Y-17985000D01*
X44165000Y-17965000D01*
X44315000Y-17965000D01*
X44315000Y-17985000D01*
X45481487Y-17985000D01*
X45584317Y-17771146D01*
X45394831Y-17313672D01*
X45021317Y-16928548D01*
X44730423Y-16802807D01*
X44793128Y-16790334D01*
X45239210Y-16492272D01*
X45537272Y-16046190D01*
X45641938Y-15520000D01*
X45537272Y-14993810D01*
X45239210Y-14547728D01*
X44793628Y-14250000D01*
X45239210Y-13952272D01*
X45537272Y-13506190D01*
X45641938Y-12980000D01*
X45537272Y-12453810D01*
X45239210Y-12007728D01*
X44793628Y-11710000D01*
X45239210Y-11412272D01*
X45537272Y-10966190D01*
X45641938Y-10440000D01*
X45537272Y-9913810D01*
X45239210Y-9467728D01*
X44966164Y-9285285D01*
X45090000Y-9285285D01*
X45284553Y-9248677D01*
X45463239Y-9133696D01*
X45583112Y-8958256D01*
X45625285Y-8750000D01*
X45625285Y-7050000D01*
X45588677Y-6855447D01*
X45473696Y-6676761D01*
X45298256Y-6556888D01*
X45090000Y-6514715D01*
X43390000Y-6514715D01*
X43195447Y-6551323D01*
X43016761Y-6666304D01*
X42896888Y-6841744D01*
X42854715Y-7050000D01*
X42854715Y-7125000D01*
X35096000Y-7125000D01*
X34799420Y-7183993D01*
X34547992Y-7351992D01*
X32261992Y-9637992D01*
X32093993Y-9889420D01*
X32035000Y-10186000D01*
X32035000Y-14690984D01*
X29440984Y-17285000D01*
X25765016Y-17285000D01*
X20912008Y-12431992D01*
X20660580Y-12263993D01*
X20364000Y-12205000D01*
X15146530Y-12205000D01*
X15010256Y-12111888D01*
X14802000Y-12069715D01*
X13602000Y-12069715D01*
X13407447Y-12106323D01*
X13248236Y-12208773D01*
X13199389Y-12159926D01*
X13006429Y-12080000D01*
X12508250Y-12080000D01*
X12377000Y-12211250D01*
X12227000Y-12211250D01*
X12095750Y-12080000D01*
X11597571Y-12080000D01*
X11404611Y-12159926D01*
X11256926Y-12307611D01*
X11177000Y-12500571D01*
X4998667Y-12500571D01*
X9949239Y-7550000D01*
X11382273Y-7550000D01*
X11204714Y-7623366D01*
X10944280Y-7883345D01*
X10803161Y-8223199D01*
X10802840Y-8591187D01*
X10943366Y-8931286D01*
X11203345Y-9191720D01*
X11543199Y-9332839D01*
X11911187Y-9333160D01*
X12251286Y-9192634D01*
X12511720Y-8932655D01*
X12652839Y-8592801D01*
X12652876Y-8550000D01*
X13045000Y-8550000D01*
X13045000Y-8693750D01*
X13127000Y-8775750D01*
X13127000Y-9024250D01*
X13045000Y-9106250D01*
X13045000Y-9254429D01*
X13105297Y-9400000D01*
X13045000Y-9545571D01*
X13045000Y-9693750D01*
X13127000Y-9775750D01*
X13127000Y-10024250D01*
X13045000Y-10106250D01*
X13045000Y-10254429D01*
X13124926Y-10447389D01*
X13129193Y-10451656D01*
X13135549Y-10485432D01*
X13162399Y-10527159D01*
X13203368Y-10555152D01*
X13240134Y-10562597D01*
X13272611Y-10595074D01*
X13465571Y-10675000D01*
X14363750Y-10675000D01*
X14473750Y-10565000D01*
X14666250Y-10565000D01*
X14776250Y-10675000D01*
X15674429Y-10675000D01*
X15867389Y-10595074D01*
X16015074Y-10447389D01*
X16095000Y-10254429D01*
X16095000Y-10106250D01*
X19045000Y-10106250D01*
X19045000Y-10254429D01*
X19124926Y-10447389D01*
X19272611Y-10595074D01*
X19465571Y-10675000D01*
X20363750Y-10675000D01*
X20495000Y-10543750D01*
X20495000Y-9975000D01*
X20645000Y-9975000D01*
X20645000Y-10543750D01*
X20776250Y-10675000D01*
X21674429Y-10675000D01*
X21867389Y-10595074D01*
X22015074Y-10447389D01*
X22095000Y-10254429D01*
X22095000Y-10106250D01*
X21963750Y-9975000D01*
X20645000Y-9975000D01*
X20495000Y-9975000D01*
X19176250Y-9975000D01*
X19045000Y-10106250D01*
X16095000Y-10106250D01*
X15963750Y-9975000D01*
X15917000Y-9975000D01*
X15917000Y-9825000D01*
X15963750Y-9825000D01*
X16095000Y-9693750D01*
X16095000Y-9545571D01*
X16034703Y-9400000D01*
X16095000Y-9254429D01*
X16095000Y-9106250D01*
X15963750Y-8975000D01*
X15917000Y-8975000D01*
X15917000Y-8825000D01*
X15963750Y-8825000D01*
X16095000Y-8693750D01*
X16095000Y-8545571D01*
X16034660Y-8399897D01*
X16063112Y-8358256D01*
X16105285Y-8150000D01*
X16105285Y-7650000D01*
X16068677Y-7455447D01*
X16033770Y-7401200D01*
X16063112Y-7358256D01*
X16105285Y-7150000D01*
X16105285Y-6650000D01*
X16068677Y-6455447D01*
X16033770Y-6401200D01*
X16063112Y-6358256D01*
X16105285Y-6150000D01*
X16105285Y-5650000D01*
X19034715Y-5650000D01*
X19034715Y-6150000D01*
X19071323Y-6344553D01*
X19106230Y-6398800D01*
X19076888Y-6441744D01*
X19034715Y-6650000D01*
X19034715Y-7150000D01*
X19071323Y-7344553D01*
X19106230Y-7398800D01*
X19076888Y-7441744D01*
X19034715Y-7650000D01*
X19034715Y-8150000D01*
X19071323Y-8344553D01*
X19106230Y-8398800D01*
X19076888Y-8441744D01*
X19034715Y-8650000D01*
X19034715Y-9150000D01*
X19071323Y-9344553D01*
X19105965Y-9398388D01*
X19045000Y-9545571D01*
X19045000Y-9693750D01*
X19176250Y-9825000D01*
X20495000Y-9825000D01*
X20495000Y-9805000D01*
X20645000Y-9805000D01*
X20645000Y-9825000D01*
X21963750Y-9825000D01*
X22095000Y-9693750D01*
X22095000Y-9545571D01*
X22034660Y-9399897D01*
X22063112Y-9358256D01*
X22105285Y-9150000D01*
X22105285Y-8650000D01*
X22068677Y-8455447D01*
X22033770Y-8401200D01*
X22063112Y-8358256D01*
X22105285Y-8150000D01*
X22105285Y-7650000D01*
X22102857Y-7637095D01*
X25175000Y-10709238D01*
X25175000Y-13575000D01*
X25204054Y-13721066D01*
X25224478Y-13823745D01*
X25365381Y-14034619D01*
X26475620Y-15144859D01*
X26443224Y-15222877D01*
X26442777Y-15734877D01*
X26638298Y-16208075D01*
X27000021Y-16570429D01*
X27472877Y-16766776D01*
X27984877Y-16767223D01*
X28458075Y-16571702D01*
X28820429Y-16209979D01*
X29016776Y-15737123D01*
X29017223Y-15225123D01*
X28821702Y-14751925D01*
X28459979Y-14389571D01*
X27987123Y-14193224D01*
X27475123Y-14192777D01*
X27395086Y-14225848D01*
X26475000Y-13305762D01*
X26475000Y-11445375D01*
X26584304Y-11615239D01*
X26759744Y-11735112D01*
X26968000Y-11777285D01*
X28492000Y-11777285D01*
X28686553Y-11740677D01*
X28865239Y-11625696D01*
X28985112Y-11450256D01*
X29027285Y-11242000D01*
X29027285Y-9718000D01*
X28990677Y-9523447D01*
X28875696Y-9344761D01*
X28700256Y-9224888D01*
X28492000Y-9182715D01*
X27391954Y-9182715D01*
X23649619Y-5440381D01*
X23438745Y-5299478D01*
X23397476Y-5291269D01*
X23190000Y-5250000D01*
X21914530Y-5250000D01*
X21778256Y-5156888D01*
X21570000Y-5114715D01*
X19570000Y-5114715D01*
X19375447Y-5151323D01*
X19196761Y-5266304D01*
X19076888Y-5441744D01*
X19034715Y-5650000D01*
X16105285Y-5650000D01*
X16068677Y-5455447D01*
X15953696Y-5276761D01*
X15778256Y-5156888D01*
X15570000Y-5114715D01*
X15212186Y-5114715D01*
X15170522Y-4905256D01*
X15029620Y-4694381D01*
X14978213Y-4642974D01*
X15033764Y-4607227D01*
X15082611Y-4656074D01*
X15275571Y-4736000D01*
X15773750Y-4736000D01*
X15905000Y-4604750D01*
X15905000Y-3911000D01*
X16055000Y-3911000D01*
X16055000Y-4604750D01*
X16186250Y-4736000D01*
X16684429Y-4736000D01*
X16877389Y-4656074D01*
X17025074Y-4508389D01*
X17105000Y-4315429D01*
X17105000Y-4042250D01*
X16973750Y-3911000D01*
X16055000Y-3911000D01*
X15905000Y-3911000D01*
X15885000Y-3911000D01*
X15885000Y-3761000D01*
X15905000Y-3761000D01*
X15905000Y-3067250D01*
X16055000Y-3067250D01*
X16055000Y-3761000D01*
X16973750Y-3761000D01*
X17105000Y-3629750D01*
X17105000Y-3356571D01*
X17025074Y-3163611D01*
X16877389Y-3015926D01*
X16684429Y-2936000D01*
X16186250Y-2936000D01*
X16055000Y-3067250D01*
X15905000Y-3067250D01*
X15773750Y-2936000D01*
X15275571Y-2936000D01*
X15082611Y-3015926D01*
X15032257Y-3066280D01*
X14888256Y-2967888D01*
X14680000Y-2925715D01*
X13480000Y-2925715D01*
X13285447Y-2962323D01*
X13132098Y-3061000D01*
X7664000Y-3061000D01*
X7367420Y-3119993D01*
X7115992Y-3287992D01*
X3889269Y-6514715D01*
X2750000Y-6514715D01*
X2555447Y-6551323D01*
X2376761Y-6666304D01*
X2256888Y-6841744D01*
X2214715Y-7050000D01*
X2214715Y-8750000D01*
X2251323Y-8944553D01*
X2366304Y-9123239D01*
X2541744Y-9243112D01*
X2750000Y-9285285D01*
X2873836Y-9285285D01*
X2600790Y-9467728D01*
X2302728Y-9913810D01*
X2198062Y-10440000D01*
X1125000Y-10440000D01*
X1125000Y-1125000D01*
X46875000Y-1125000D01*
X46875000Y-24875000D01*
G36*
X13271744Y-4704112D02*
X13444956Y-4739188D01*
X13471269Y-4871476D01*
X13479478Y-4912745D01*
X13614431Y-5114715D01*
X13570000Y-5114715D01*
X13375447Y-5151323D01*
X13196761Y-5266304D01*
X13076888Y-5441744D01*
X13034715Y-5650000D01*
X13034715Y-6150000D01*
X13053531Y-6250000D01*
X9680000Y-6250000D01*
X9431256Y-6299478D01*
X9431254Y-6299479D01*
X9431255Y-6299479D01*
X9220380Y-6440381D01*
X4947603Y-10713158D01*
X5001938Y-10440000D01*
X4897272Y-9913810D01*
X4599210Y-9467728D01*
X4326164Y-9285285D01*
X4450000Y-9285285D01*
X4644553Y-9248677D01*
X4823239Y-9133696D01*
X4943112Y-8958256D01*
X4985285Y-8750000D01*
X4985285Y-7610731D01*
X7985016Y-4611000D01*
X13135470Y-4611000D01*
X13271744Y-4704112D01*
X13271744Y-4704112D01*
G37*
X13271744Y-4704112D02*
X13444956Y-4739188D01*
X13471269Y-4871476D01*
X13479478Y-4912745D01*
X13614431Y-5114715D01*
X13570000Y-5114715D01*
X13375447Y-5151323D01*
X13196761Y-5266304D01*
X13076888Y-5441744D01*
X13034715Y-5650000D01*
X13034715Y-6150000D01*
X13053531Y-6250000D01*
X9680000Y-6250000D01*
X9431256Y-6299478D01*
X9431254Y-6299479D01*
X9431255Y-6299479D01*
X9220380Y-6440381D01*
X4947603Y-10713158D01*
X5001938Y-10440000D01*
X4897272Y-9913810D01*
X4599210Y-9467728D01*
X4326164Y-9285285D01*
X4450000Y-9285285D01*
X4644553Y-9248677D01*
X4823239Y-9133696D01*
X4943112Y-8958256D01*
X4985285Y-8750000D01*
X4985285Y-7610731D01*
X7985016Y-4611000D01*
X13135470Y-4611000D01*
X13271744Y-4704112D01*
M02*
