%TF.GenerationSoftware,KiCad,Pcbnew,4.0.7*%
%TF.CreationDate,2017-10-08T11:45:17+09:00*%
%TF.ProjectId,TestBoard1,54657374426F617264312E6B69636164,rev?*%
%TF.FileFunction,Legend,Bot*%
%FSLAX46Y46*%
G04 Gerber Fmt 4.6, Leading zero omitted, Abs format (unit mm)*
G04 Created by KiCad (PCBNEW 4.0.7) date 10/08/17 11:45:17*
%MOMM*%
%LPD*%
G01*
G04 APERTURE LIST*
%ADD10C,0.100000*%
%ADD11C,0.120000*%
%ADD12C,0.150000*%
G04 APERTURE END LIST*
D10*
D11*
X37540000Y-10405000D02*
X38240000Y-10405000D01*
X38240000Y-9205000D02*
X37540000Y-9205000D01*
D12*
X39290000Y-11115000D02*
X36490000Y-11115000D01*
X36490000Y-11115000D02*
X36490000Y-14715000D01*
X36490000Y-14715000D02*
X39290000Y-14715000D01*
X39290000Y-14715000D02*
X39290000Y-11115000D01*
X38056666Y-8765143D02*
X38104285Y-8812762D01*
X38247142Y-8860381D01*
X38342380Y-8860381D01*
X38485238Y-8812762D01*
X38580476Y-8717524D01*
X38628095Y-8622286D01*
X38675714Y-8431810D01*
X38675714Y-8288952D01*
X38628095Y-8098476D01*
X38580476Y-8003238D01*
X38485238Y-7908000D01*
X38342380Y-7860381D01*
X38247142Y-7860381D01*
X38104285Y-7908000D01*
X38056666Y-7955619D01*
X37723333Y-7860381D02*
X37104285Y-7860381D01*
X37437619Y-8241333D01*
X37294761Y-8241333D01*
X37199523Y-8288952D01*
X37151904Y-8336571D01*
X37104285Y-8431810D01*
X37104285Y-8669905D01*
X37151904Y-8765143D01*
X37199523Y-8812762D01*
X37294761Y-8860381D01*
X37580476Y-8860381D01*
X37675714Y-8812762D01*
X37723333Y-8765143D01*
X39437619Y-16167381D02*
X39437619Y-15167381D01*
X39104285Y-15881667D01*
X38770952Y-15167381D01*
X38770952Y-16167381D01*
X38294762Y-16167381D02*
X38294762Y-15167381D01*
X37247143Y-16072143D02*
X37294762Y-16119762D01*
X37437619Y-16167381D01*
X37532857Y-16167381D01*
X37675715Y-16119762D01*
X37770953Y-16024524D01*
X37818572Y-15929286D01*
X37866191Y-15738810D01*
X37866191Y-15595952D01*
X37818572Y-15405476D01*
X37770953Y-15310238D01*
X37675715Y-15215000D01*
X37532857Y-15167381D01*
X37437619Y-15167381D01*
X37294762Y-15215000D01*
X37247143Y-15262619D01*
X36294762Y-16167381D02*
X36866191Y-16167381D01*
X36580477Y-16167381D02*
X36580477Y-15167381D01*
X36675715Y-15310238D01*
X36770953Y-15405476D01*
X36866191Y-15453095D01*
M02*
