%TF.GenerationSoftware,KiCad,Pcbnew,4.0.7*%
%TF.CreationDate,2017-10-08T11:45:17+09:00*%
%TF.ProjectId,TestBoard1,54657374426F617264312E6B69636164,rev?*%
%TF.FileFunction,Legend,Top*%
%FSLAX46Y46*%
G04 Gerber Fmt 4.6, Leading zero omitted, Abs format (unit mm)*
G04 Created by KiCad (PCBNEW 4.0.7) date 10/08/17 11:45:17*
%MOMM*%
%LPD*%
G01*
G04 APERTURE LIST*
%ADD10C,0.100000*%
%ADD11C,0.200000*%
%ADD12C,0.120000*%
%ADD13C,0.150000*%
G04 APERTURE END LIST*
D10*
D11*
X17901715Y-23682857D02*
X17901715Y-22482857D01*
X18187430Y-22482857D01*
X18358858Y-22540000D01*
X18473144Y-22654286D01*
X18530287Y-22768571D01*
X18587430Y-22997143D01*
X18587430Y-23168571D01*
X18530287Y-23397143D01*
X18473144Y-23511429D01*
X18358858Y-23625714D01*
X18187430Y-23682857D01*
X17901715Y-23682857D01*
X19558858Y-23625714D02*
X19444572Y-23682857D01*
X19216001Y-23682857D01*
X19101715Y-23625714D01*
X19044572Y-23511429D01*
X19044572Y-23054286D01*
X19101715Y-22940000D01*
X19216001Y-22882857D01*
X19444572Y-22882857D01*
X19558858Y-22940000D01*
X19616001Y-23054286D01*
X19616001Y-23168571D01*
X19044572Y-23282857D01*
X20073143Y-23625714D02*
X20187429Y-23682857D01*
X20416001Y-23682857D01*
X20530286Y-23625714D01*
X20587429Y-23511429D01*
X20587429Y-23454286D01*
X20530286Y-23340000D01*
X20416001Y-23282857D01*
X20244572Y-23282857D01*
X20130286Y-23225714D01*
X20073143Y-23111429D01*
X20073143Y-23054286D01*
X20130286Y-22940000D01*
X20244572Y-22882857D01*
X20416001Y-22882857D01*
X20530286Y-22940000D01*
X21101715Y-23682857D02*
X21101715Y-22882857D01*
X21101715Y-22482857D02*
X21044572Y-22540000D01*
X21101715Y-22597143D01*
X21158858Y-22540000D01*
X21101715Y-22482857D01*
X21101715Y-22597143D01*
X22187430Y-22882857D02*
X22187430Y-23854286D01*
X22130287Y-23968571D01*
X22073144Y-24025714D01*
X21958859Y-24082857D01*
X21787430Y-24082857D01*
X21673144Y-24025714D01*
X22187430Y-23625714D02*
X22073144Y-23682857D01*
X21844573Y-23682857D01*
X21730287Y-23625714D01*
X21673144Y-23568571D01*
X21616001Y-23454286D01*
X21616001Y-23111429D01*
X21673144Y-22997143D01*
X21730287Y-22940000D01*
X21844573Y-22882857D01*
X22073144Y-22882857D01*
X22187430Y-22940000D01*
X22758858Y-22882857D02*
X22758858Y-23682857D01*
X22758858Y-22997143D02*
X22816001Y-22940000D01*
X22930287Y-22882857D01*
X23101715Y-22882857D01*
X23216001Y-22940000D01*
X23273144Y-23054286D01*
X23273144Y-23682857D01*
X24301715Y-23625714D02*
X24187429Y-23682857D01*
X23958858Y-23682857D01*
X23844572Y-23625714D01*
X23787429Y-23511429D01*
X23787429Y-23054286D01*
X23844572Y-22940000D01*
X23958858Y-22882857D01*
X24187429Y-22882857D01*
X24301715Y-22940000D01*
X24358858Y-23054286D01*
X24358858Y-23168571D01*
X23787429Y-23282857D01*
X25387429Y-23682857D02*
X25387429Y-22482857D01*
X25387429Y-23625714D02*
X25273143Y-23682857D01*
X25044572Y-23682857D01*
X24930286Y-23625714D01*
X24873143Y-23568571D01*
X24816000Y-23454286D01*
X24816000Y-23111429D01*
X24873143Y-22997143D01*
X24930286Y-22940000D01*
X25044572Y-22882857D01*
X25273143Y-22882857D01*
X25387429Y-22940000D01*
X26873143Y-23682857D02*
X26873143Y-22482857D01*
X26873143Y-22940000D02*
X26987429Y-22882857D01*
X27216000Y-22882857D01*
X27330286Y-22940000D01*
X27387429Y-22997143D01*
X27444572Y-23111429D01*
X27444572Y-23454286D01*
X27387429Y-23568571D01*
X27330286Y-23625714D01*
X27216000Y-23682857D01*
X26987429Y-23682857D01*
X26873143Y-23625714D01*
X27844572Y-22882857D02*
X28130286Y-23682857D01*
X28416000Y-22882857D02*
X28130286Y-23682857D01*
X28016000Y-23968571D01*
X27958857Y-24025714D01*
X27844572Y-24082857D01*
X29616001Y-22482857D02*
X30301715Y-22482857D01*
X29958858Y-23682857D02*
X29958858Y-22482857D01*
X31216001Y-23682857D02*
X31216001Y-23054286D01*
X31158858Y-22940000D01*
X31044572Y-22882857D01*
X30816001Y-22882857D01*
X30701715Y-22940000D01*
X31216001Y-23625714D02*
X31101715Y-23682857D01*
X30816001Y-23682857D01*
X30701715Y-23625714D01*
X30644572Y-23511429D01*
X30644572Y-23397143D01*
X30701715Y-23282857D01*
X30816001Y-23225714D01*
X31101715Y-23225714D01*
X31216001Y-23168571D01*
X31787429Y-23682857D02*
X31787429Y-22882857D01*
X31787429Y-22997143D02*
X31844572Y-22940000D01*
X31958858Y-22882857D01*
X32130286Y-22882857D01*
X32244572Y-22940000D01*
X32301715Y-23054286D01*
X32301715Y-23682857D01*
X32301715Y-23054286D02*
X32358858Y-22940000D01*
X32473144Y-22882857D01*
X32644572Y-22882857D01*
X32758858Y-22940000D01*
X32816001Y-23054286D01*
X32816001Y-23682857D01*
X33901715Y-23682857D02*
X33901715Y-23054286D01*
X33844572Y-22940000D01*
X33730286Y-22882857D01*
X33501715Y-22882857D01*
X33387429Y-22940000D01*
X33901715Y-23625714D02*
X33787429Y-23682857D01*
X33501715Y-23682857D01*
X33387429Y-23625714D01*
X33330286Y-23511429D01*
X33330286Y-23397143D01*
X33387429Y-23282857D01*
X33501715Y-23225714D01*
X33787429Y-23225714D01*
X33901715Y-23168571D01*
X34473143Y-22882857D02*
X34473143Y-24082857D01*
X34473143Y-22940000D02*
X34587429Y-22882857D01*
X34816000Y-22882857D01*
X34930286Y-22940000D01*
X34987429Y-22997143D01*
X35044572Y-23111429D01*
X35044572Y-23454286D01*
X34987429Y-23568571D01*
X34930286Y-23625714D01*
X34816000Y-23682857D01*
X34587429Y-23682857D01*
X34473143Y-23625714D01*
X35730286Y-23682857D02*
X35616000Y-23625714D01*
X35558857Y-23568571D01*
X35501714Y-23454286D01*
X35501714Y-23111429D01*
X35558857Y-22997143D01*
X35616000Y-22940000D01*
X35730286Y-22882857D01*
X35901714Y-22882857D01*
X36016000Y-22940000D01*
X36073143Y-22997143D01*
X36130286Y-23111429D01*
X36130286Y-23454286D01*
X36073143Y-23568571D01*
X36016000Y-23625714D01*
X35901714Y-23682857D01*
X35730286Y-23682857D01*
X37158857Y-23625714D02*
X37044571Y-23682857D01*
X36816000Y-23682857D01*
X36701714Y-23625714D01*
X36644571Y-23568571D01*
X36587428Y-23454286D01*
X36587428Y-23111429D01*
X36644571Y-22997143D01*
X36701714Y-22940000D01*
X36816000Y-22882857D01*
X37044571Y-22882857D01*
X37158857Y-22940000D01*
X37673142Y-23682857D02*
X37673142Y-22482857D01*
X38187428Y-23682857D02*
X38187428Y-23054286D01*
X38130285Y-22940000D01*
X38015999Y-22882857D01*
X37844571Y-22882857D01*
X37730285Y-22940000D01*
X37673142Y-22997143D01*
X38758856Y-23682857D02*
X38758856Y-22882857D01*
X38758856Y-22482857D02*
X38701713Y-22540000D01*
X38758856Y-22597143D01*
X38815999Y-22540000D01*
X38758856Y-22482857D01*
X38758856Y-22597143D01*
X39558857Y-22482857D02*
X39787428Y-22482857D01*
X39901714Y-22540000D01*
X40016000Y-22654286D01*
X40073142Y-22882857D01*
X40073142Y-23282857D01*
X40016000Y-23511429D01*
X39901714Y-23625714D01*
X39787428Y-23682857D01*
X39558857Y-23682857D01*
X39444571Y-23625714D01*
X39330285Y-23511429D01*
X39273142Y-23282857D01*
X39273142Y-22882857D01*
X39330285Y-22654286D01*
X39444571Y-22540000D01*
X39558857Y-22482857D01*
X40587428Y-22882857D02*
X40587428Y-23682857D01*
X40587428Y-22997143D02*
X40644571Y-22940000D01*
X40758857Y-22882857D01*
X40930285Y-22882857D01*
X41044571Y-22940000D01*
X41101714Y-23054286D01*
X41101714Y-23682857D01*
X42130285Y-23625714D02*
X42015999Y-23682857D01*
X41787428Y-23682857D01*
X41673142Y-23625714D01*
X41615999Y-23511429D01*
X41615999Y-23054286D01*
X41673142Y-22940000D01*
X41787428Y-22882857D01*
X42015999Y-22882857D01*
X42130285Y-22940000D01*
X42187428Y-23054286D01*
X42187428Y-23168571D01*
X41615999Y-23282857D01*
X23698858Y-4067714D02*
X23870287Y-4124857D01*
X24156001Y-4124857D01*
X24270287Y-4067714D01*
X24327430Y-4010571D01*
X24384573Y-3896286D01*
X24384573Y-3782000D01*
X24327430Y-3667714D01*
X24270287Y-3610571D01*
X24156001Y-3553429D01*
X23927430Y-3496286D01*
X23813144Y-3439143D01*
X23756001Y-3382000D01*
X23698858Y-3267714D01*
X23698858Y-3153429D01*
X23756001Y-3039143D01*
X23813144Y-2982000D01*
X23927430Y-2924857D01*
X24213144Y-2924857D01*
X24384573Y-2982000D01*
X25070287Y-4124857D02*
X24956001Y-4067714D01*
X24898858Y-4010571D01*
X24841715Y-3896286D01*
X24841715Y-3553429D01*
X24898858Y-3439143D01*
X24956001Y-3382000D01*
X25070287Y-3324857D01*
X25241715Y-3324857D01*
X25356001Y-3382000D01*
X25413144Y-3439143D01*
X25470287Y-3553429D01*
X25470287Y-3896286D01*
X25413144Y-4010571D01*
X25356001Y-4067714D01*
X25241715Y-4124857D01*
X25070287Y-4124857D01*
X25984572Y-3324857D02*
X25984572Y-4124857D01*
X25984572Y-3439143D02*
X26041715Y-3382000D01*
X26156001Y-3324857D01*
X26327429Y-3324857D01*
X26441715Y-3382000D01*
X26498858Y-3496286D01*
X26498858Y-4124857D01*
X27584572Y-4124857D02*
X27584572Y-3496286D01*
X27527429Y-3382000D01*
X27413143Y-3324857D01*
X27184572Y-3324857D01*
X27070286Y-3382000D01*
X27584572Y-4067714D02*
X27470286Y-4124857D01*
X27184572Y-4124857D01*
X27070286Y-4067714D01*
X27013143Y-3953429D01*
X27013143Y-3839143D01*
X27070286Y-3724857D01*
X27184572Y-3667714D01*
X27470286Y-3667714D01*
X27584572Y-3610571D01*
X28156000Y-4124857D02*
X28156000Y-3324857D01*
X28156000Y-3553429D02*
X28213143Y-3439143D01*
X28270286Y-3382000D01*
X28384572Y-3324857D01*
X28498857Y-3324857D01*
X30670286Y-2867714D02*
X29641715Y-4410571D01*
X31813144Y-2924857D02*
X32498858Y-2924857D01*
X32156001Y-4124857D02*
X32156001Y-2924857D01*
X33356001Y-4067714D02*
X33241715Y-4124857D01*
X33013144Y-4124857D01*
X32898858Y-4067714D01*
X32841715Y-3953429D01*
X32841715Y-3496286D01*
X32898858Y-3382000D01*
X33013144Y-3324857D01*
X33241715Y-3324857D01*
X33356001Y-3382000D01*
X33413144Y-3496286D01*
X33413144Y-3610571D01*
X32841715Y-3724857D01*
X33870286Y-4067714D02*
X33984572Y-4124857D01*
X34213144Y-4124857D01*
X34327429Y-4067714D01*
X34384572Y-3953429D01*
X34384572Y-3896286D01*
X34327429Y-3782000D01*
X34213144Y-3724857D01*
X34041715Y-3724857D01*
X33927429Y-3667714D01*
X33870286Y-3553429D01*
X33870286Y-3496286D01*
X33927429Y-3382000D01*
X34041715Y-3324857D01*
X34213144Y-3324857D01*
X34327429Y-3382000D01*
X34727430Y-3324857D02*
X35184573Y-3324857D01*
X34898858Y-2924857D02*
X34898858Y-3953429D01*
X34956001Y-4067714D01*
X35070287Y-4124857D01*
X35184573Y-4124857D01*
X35984572Y-3496286D02*
X36156001Y-3553429D01*
X36213144Y-3610571D01*
X36270287Y-3724857D01*
X36270287Y-3896286D01*
X36213144Y-4010571D01*
X36156001Y-4067714D01*
X36041715Y-4124857D01*
X35584572Y-4124857D01*
X35584572Y-2924857D01*
X35984572Y-2924857D01*
X36098858Y-2982000D01*
X36156001Y-3039143D01*
X36213144Y-3153429D01*
X36213144Y-3267714D01*
X36156001Y-3382000D01*
X36098858Y-3439143D01*
X35984572Y-3496286D01*
X35584572Y-3496286D01*
X36956001Y-4124857D02*
X36841715Y-4067714D01*
X36784572Y-4010571D01*
X36727429Y-3896286D01*
X36727429Y-3553429D01*
X36784572Y-3439143D01*
X36841715Y-3382000D01*
X36956001Y-3324857D01*
X37127429Y-3324857D01*
X37241715Y-3382000D01*
X37298858Y-3439143D01*
X37356001Y-3553429D01*
X37356001Y-3896286D01*
X37298858Y-4010571D01*
X37241715Y-4067714D01*
X37127429Y-4124857D01*
X36956001Y-4124857D01*
X38384572Y-4124857D02*
X38384572Y-3496286D01*
X38327429Y-3382000D01*
X38213143Y-3324857D01*
X37984572Y-3324857D01*
X37870286Y-3382000D01*
X38384572Y-4067714D02*
X38270286Y-4124857D01*
X37984572Y-4124857D01*
X37870286Y-4067714D01*
X37813143Y-3953429D01*
X37813143Y-3839143D01*
X37870286Y-3724857D01*
X37984572Y-3667714D01*
X38270286Y-3667714D01*
X38384572Y-3610571D01*
X38956000Y-4124857D02*
X38956000Y-3324857D01*
X38956000Y-3553429D02*
X39013143Y-3439143D01*
X39070286Y-3382000D01*
X39184572Y-3324857D01*
X39298857Y-3324857D01*
X40213143Y-4124857D02*
X40213143Y-2924857D01*
X40213143Y-4067714D02*
X40098857Y-4124857D01*
X39870286Y-4124857D01*
X39756000Y-4067714D01*
X39698857Y-4010571D01*
X39641714Y-3896286D01*
X39641714Y-3553429D01*
X39698857Y-3439143D01*
X39756000Y-3382000D01*
X39870286Y-3324857D01*
X40098857Y-3324857D01*
X40213143Y-3382000D01*
X41413143Y-4124857D02*
X40727428Y-4124857D01*
X41070286Y-4124857D02*
X41070286Y-2924857D01*
X40956000Y-3096286D01*
X40841714Y-3210571D01*
X40727428Y-3267714D01*
X40223715Y-15948571D02*
X40166572Y-16005714D01*
X39995143Y-16062857D01*
X39880857Y-16062857D01*
X39709429Y-16005714D01*
X39595143Y-15891429D01*
X39538000Y-15777143D01*
X39480857Y-15548571D01*
X39480857Y-15377143D01*
X39538000Y-15148571D01*
X39595143Y-15034286D01*
X39709429Y-14920000D01*
X39880857Y-14862857D01*
X39995143Y-14862857D01*
X40166572Y-14920000D01*
X40223715Y-14977143D01*
X41309429Y-16062857D02*
X40738000Y-16062857D01*
X40738000Y-14862857D01*
X41709429Y-16062857D02*
X41709429Y-14862857D01*
X42395144Y-16062857D02*
X41880858Y-15377143D01*
X42395144Y-14862857D02*
X41709429Y-15548571D01*
X39138000Y-13522857D02*
X39138000Y-12322857D01*
X39423715Y-12322857D01*
X39595143Y-12380000D01*
X39709429Y-12494286D01*
X39766572Y-12608571D01*
X39823715Y-12837143D01*
X39823715Y-13008571D01*
X39766572Y-13237143D01*
X39709429Y-13351429D01*
X39595143Y-13465714D01*
X39423715Y-13522857D01*
X39138000Y-13522857D01*
X40280857Y-13180000D02*
X40852286Y-13180000D01*
X40166572Y-13522857D02*
X40566572Y-12322857D01*
X40966572Y-13522857D01*
X41195143Y-12322857D02*
X41880857Y-12322857D01*
X41538000Y-13522857D02*
X41538000Y-12322857D01*
X42223714Y-13180000D02*
X42795143Y-13180000D01*
X42109429Y-13522857D02*
X42509429Y-12322857D01*
X42909429Y-13522857D01*
X38912572Y-7242857D02*
X39655429Y-7242857D01*
X39255429Y-7700000D01*
X39426857Y-7700000D01*
X39541143Y-7757143D01*
X39598286Y-7814286D01*
X39655429Y-7928571D01*
X39655429Y-8214286D01*
X39598286Y-8328571D01*
X39541143Y-8385714D01*
X39426857Y-8442857D01*
X39084000Y-8442857D01*
X38969714Y-8385714D01*
X38912572Y-8328571D01*
X40169714Y-8328571D02*
X40226857Y-8385714D01*
X40169714Y-8442857D01*
X40112571Y-8385714D01*
X40169714Y-8328571D01*
X40169714Y-8442857D01*
X40626858Y-7242857D02*
X41369715Y-7242857D01*
X40969715Y-7700000D01*
X41141143Y-7700000D01*
X41255429Y-7757143D01*
X41312572Y-7814286D01*
X41369715Y-7928571D01*
X41369715Y-8214286D01*
X41312572Y-8328571D01*
X41255429Y-8385714D01*
X41141143Y-8442857D01*
X40798286Y-8442857D01*
X40684000Y-8385714D01*
X40626858Y-8328571D01*
X41712572Y-7242857D02*
X42112572Y-8442857D01*
X42512572Y-7242857D01*
X43325715Y-20000000D02*
X43211429Y-19942857D01*
X43040000Y-19942857D01*
X42868572Y-20000000D01*
X42754286Y-20114286D01*
X42697143Y-20228571D01*
X42640000Y-20457143D01*
X42640000Y-20628571D01*
X42697143Y-20857143D01*
X42754286Y-20971429D01*
X42868572Y-21085714D01*
X43040000Y-21142857D01*
X43154286Y-21142857D01*
X43325715Y-21085714D01*
X43382858Y-21028571D01*
X43382858Y-20628571D01*
X43154286Y-20628571D01*
X43897143Y-21142857D02*
X43897143Y-19942857D01*
X44582858Y-21142857D01*
X44582858Y-19942857D01*
X45154286Y-21142857D02*
X45154286Y-19942857D01*
X45440001Y-19942857D01*
X45611429Y-20000000D01*
X45725715Y-20114286D01*
X45782858Y-20228571D01*
X45840001Y-20457143D01*
X45840001Y-20628571D01*
X45782858Y-20857143D01*
X45725715Y-20971429D01*
X45611429Y-21085714D01*
X45440001Y-21142857D01*
X45154286Y-21142857D01*
X2685715Y-20000000D02*
X2571429Y-19942857D01*
X2400000Y-19942857D01*
X2228572Y-20000000D01*
X2114286Y-20114286D01*
X2057143Y-20228571D01*
X2000000Y-20457143D01*
X2000000Y-20628571D01*
X2057143Y-20857143D01*
X2114286Y-20971429D01*
X2228572Y-21085714D01*
X2400000Y-21142857D01*
X2514286Y-21142857D01*
X2685715Y-21085714D01*
X2742858Y-21028571D01*
X2742858Y-20628571D01*
X2514286Y-20628571D01*
X3257143Y-21142857D02*
X3257143Y-19942857D01*
X3942858Y-21142857D01*
X3942858Y-19942857D01*
X4514286Y-21142857D02*
X4514286Y-19942857D01*
X4800001Y-19942857D01*
X4971429Y-20000000D01*
X5085715Y-20114286D01*
X5142858Y-20228571D01*
X5200001Y-20457143D01*
X5200001Y-20628571D01*
X5142858Y-20857143D01*
X5085715Y-20971429D01*
X4971429Y-21085714D01*
X4800001Y-21142857D01*
X4514286Y-21142857D01*
X5511428Y-13522857D02*
X5511428Y-12322857D01*
X6082857Y-13522857D02*
X6082857Y-12322857D01*
X6768572Y-13522857D01*
X6768572Y-12322857D01*
X5905144Y-8442857D02*
X5219429Y-8442857D01*
X5562287Y-8442857D02*
X5562287Y-7242857D01*
X5448001Y-7414286D01*
X5333715Y-7528571D01*
X5219429Y-7585714D01*
X6362286Y-7357143D02*
X6419429Y-7300000D01*
X6533715Y-7242857D01*
X6819429Y-7242857D01*
X6933715Y-7300000D01*
X6990858Y-7357143D01*
X7048001Y-7471429D01*
X7048001Y-7585714D01*
X6990858Y-7757143D01*
X6305144Y-8442857D01*
X7048001Y-8442857D01*
X7390858Y-7242857D02*
X7790858Y-8442857D01*
X8190858Y-7242857D01*
D12*
X12902000Y-12380000D02*
X13602000Y-12380000D01*
X13602000Y-13580000D02*
X12902000Y-13580000D01*
X15380000Y-4436000D02*
X14680000Y-4436000D01*
X14680000Y-3236000D02*
X15380000Y-3236000D01*
X2270000Y-19390000D02*
X4930000Y-19390000D01*
X2270000Y-9170000D02*
X2270000Y-19390000D01*
X4930000Y-9170000D02*
X4930000Y-19390000D01*
X2270000Y-9170000D02*
X4930000Y-9170000D01*
X2270000Y-7900000D02*
X2270000Y-6570000D01*
X2270000Y-6570000D02*
X3600000Y-6570000D01*
X42910000Y-19390000D02*
X45570000Y-19390000D01*
X42910000Y-9170000D02*
X42910000Y-19390000D01*
X45570000Y-9170000D02*
X45570000Y-19390000D01*
X42910000Y-9170000D02*
X45570000Y-9170000D01*
X42910000Y-7900000D02*
X42910000Y-6570000D01*
X42910000Y-6570000D02*
X44240000Y-6570000D01*
D13*
X32730000Y-12980000D02*
G75*
G03X32730000Y-12980000I-5000000J0D01*
G01*
X8970000Y-14175000D02*
X6970000Y-14175000D01*
X8970000Y-21075000D02*
X8970000Y-21325000D01*
X8970000Y-21325000D02*
X13470000Y-21325000D01*
X13470000Y-21325000D02*
X13470000Y-21075000D01*
X8970000Y-14425000D02*
X8970000Y-14175000D01*
X8970000Y-14175000D02*
X13470000Y-14175000D01*
X13470000Y-14175000D02*
X13470000Y-14425000D01*
X10470000Y-15175000D02*
G75*
G03X10470000Y-15175000I-500000J0D01*
G01*
X15570000Y-5150000D02*
X13570000Y-5150000D01*
X17070000Y-6150000D02*
G75*
G03X17070000Y-6150000I-500000J0D01*
G01*
X15570000Y-10400000D02*
X15570000Y-10650000D01*
X15570000Y-10650000D02*
X19570000Y-10650000D01*
X19570000Y-10650000D02*
X19570000Y-10400000D01*
X15570000Y-5400000D02*
X15570000Y-5150000D01*
X15570000Y-5150000D02*
X19570000Y-5150000D01*
X19570000Y-5150000D02*
X19570000Y-5400000D01*
X16260334Y-13337143D02*
X16212715Y-13384762D01*
X16069858Y-13432381D01*
X15974620Y-13432381D01*
X15831762Y-13384762D01*
X15736524Y-13289524D01*
X15688905Y-13194286D01*
X15641286Y-13003810D01*
X15641286Y-12860952D01*
X15688905Y-12670476D01*
X15736524Y-12575238D01*
X15831762Y-12480000D01*
X15974620Y-12432381D01*
X16069858Y-12432381D01*
X16212715Y-12480000D01*
X16260334Y-12527619D01*
X17212715Y-13432381D02*
X16641286Y-13432381D01*
X16927000Y-13432381D02*
X16927000Y-12432381D01*
X16831762Y-12575238D01*
X16736524Y-12670476D01*
X16641286Y-12718095D01*
X14863334Y-2923143D02*
X14815715Y-2970762D01*
X14672858Y-3018381D01*
X14577620Y-3018381D01*
X14434762Y-2970762D01*
X14339524Y-2875524D01*
X14291905Y-2780286D01*
X14244286Y-2589810D01*
X14244286Y-2446952D01*
X14291905Y-2256476D01*
X14339524Y-2161238D01*
X14434762Y-2066000D01*
X14577620Y-2018381D01*
X14672858Y-2018381D01*
X14815715Y-2066000D01*
X14863334Y-2113619D01*
X15244286Y-2113619D02*
X15291905Y-2066000D01*
X15387143Y-2018381D01*
X15625239Y-2018381D01*
X15720477Y-2066000D01*
X15768096Y-2113619D01*
X15815715Y-2208857D01*
X15815715Y-2304095D01*
X15768096Y-2446952D01*
X15196667Y-3018381D01*
X15815715Y-3018381D01*
X3266667Y-5022381D02*
X3266667Y-5736667D01*
X3219047Y-5879524D01*
X3123809Y-5974762D01*
X2980952Y-6022381D01*
X2885714Y-6022381D01*
X4266667Y-6022381D02*
X3695238Y-6022381D01*
X3980952Y-6022381D02*
X3980952Y-5022381D01*
X3885714Y-5165238D01*
X3790476Y-5260476D01*
X3695238Y-5308095D01*
X43906667Y-5022381D02*
X43906667Y-5736667D01*
X43859047Y-5879524D01*
X43763809Y-5974762D01*
X43620952Y-6022381D01*
X43525714Y-6022381D01*
X44335238Y-5117619D02*
X44382857Y-5070000D01*
X44478095Y-5022381D01*
X44716191Y-5022381D01*
X44811429Y-5070000D01*
X44859048Y-5117619D01*
X44906667Y-5212857D01*
X44906667Y-5308095D01*
X44859048Y-5450952D01*
X44287619Y-6022381D01*
X44906667Y-6022381D01*
X31294095Y-18464762D02*
X31436952Y-18512381D01*
X31675048Y-18512381D01*
X31770286Y-18464762D01*
X31817905Y-18417143D01*
X31865524Y-18321905D01*
X31865524Y-18226667D01*
X31817905Y-18131429D01*
X31770286Y-18083810D01*
X31675048Y-18036190D01*
X31484571Y-17988571D01*
X31389333Y-17940952D01*
X31341714Y-17893333D01*
X31294095Y-17798095D01*
X31294095Y-17702857D01*
X31341714Y-17607619D01*
X31389333Y-17560000D01*
X31484571Y-17512381D01*
X31722667Y-17512381D01*
X31865524Y-17560000D01*
X32294095Y-18512381D02*
X32294095Y-17512381D01*
X32675048Y-17512381D01*
X32770286Y-17560000D01*
X32817905Y-17607619D01*
X32865524Y-17702857D01*
X32865524Y-17845714D01*
X32817905Y-17940952D01*
X32770286Y-17988571D01*
X32675048Y-18036190D01*
X32294095Y-18036190D01*
X33817905Y-18512381D02*
X33246476Y-18512381D01*
X33532190Y-18512381D02*
X33532190Y-17512381D01*
X33436952Y-17655238D01*
X33341714Y-17750476D01*
X33246476Y-17798095D01*
X9188095Y-12686381D02*
X9188095Y-13495905D01*
X9235714Y-13591143D01*
X9283333Y-13638762D01*
X9378571Y-13686381D01*
X9569048Y-13686381D01*
X9664286Y-13638762D01*
X9711905Y-13591143D01*
X9759524Y-13495905D01*
X9759524Y-12686381D01*
X10759524Y-13686381D02*
X10188095Y-13686381D01*
X10473809Y-13686381D02*
X10473809Y-12686381D01*
X10378571Y-12829238D01*
X10283333Y-12924476D01*
X10188095Y-12972095D01*
X17308095Y-3852381D02*
X17308095Y-4661905D01*
X17355714Y-4757143D01*
X17403333Y-4804762D01*
X17498571Y-4852381D01*
X17689048Y-4852381D01*
X17784286Y-4804762D01*
X17831905Y-4757143D01*
X17879524Y-4661905D01*
X17879524Y-3852381D01*
X18308095Y-3947619D02*
X18355714Y-3900000D01*
X18450952Y-3852381D01*
X18689048Y-3852381D01*
X18784286Y-3900000D01*
X18831905Y-3947619D01*
X18879524Y-4042857D01*
X18879524Y-4138095D01*
X18831905Y-4280952D01*
X18260476Y-4852381D01*
X18879524Y-4852381D01*
M02*
