G04 #@! TF.FileFunction,Legend,Top*
%FSLAX46Y46*%
G04 Gerber Fmt 4.6, Leading zero omitted, Abs format (unit mm)*
G04 Created by KiCad (PCBNEW 4.0.7) date 12/04/17 00:21:40*
%MOMM*%
%LPD*%
G01*
G04 APERTURE LIST*
%ADD10C,0.100000*%
%ADD11C,0.150000*%
%ADD12C,0.120000*%
G04 APERTURE END LIST*
D10*
D11*
X39880000Y-85730000D02*
X39380000Y-84230000D01*
X39380000Y-84230000D02*
X40380000Y-84230000D01*
X40380000Y-84230000D02*
X39880000Y-85730000D01*
X19380000Y-99730000D02*
X19380000Y-90730000D01*
X45380000Y-90730000D02*
X45380000Y-99730000D01*
D12*
X106325001Y-63045000D02*
X105625001Y-63045000D01*
X105625001Y-61845000D02*
X106325001Y-61845000D01*
X73520000Y-15000000D02*
X73520000Y-17000000D01*
X76480000Y-17000000D02*
X76480000Y-15000000D01*
X52950000Y-81280000D02*
X52450000Y-81280000D01*
X52450000Y-82220000D02*
X52950000Y-82220000D01*
X57250000Y-82220000D02*
X57750000Y-82220000D01*
X57750000Y-81280000D02*
X57250000Y-81280000D01*
X62750000Y-81280000D02*
X62250000Y-81280000D01*
X62250000Y-82220000D02*
X62750000Y-82220000D01*
X73030000Y-72250000D02*
X73030000Y-72750000D01*
X73970000Y-72750000D02*
X73970000Y-72250000D01*
X73220000Y-67500000D02*
X73220000Y-67000000D01*
X72280000Y-67000000D02*
X72280000Y-67500000D01*
X67500000Y-56720000D02*
X68000000Y-56720000D01*
X68000000Y-55780000D02*
X67500000Y-55780000D01*
X59000000Y-56720000D02*
X59500000Y-56720000D01*
X59500000Y-55780000D02*
X59000000Y-55780000D01*
X53000000Y-56720000D02*
X53500000Y-56720000D01*
X53500000Y-55780000D02*
X53000000Y-55780000D01*
X46780000Y-64250000D02*
X46780000Y-64750000D01*
X47720000Y-64750000D02*
X47720000Y-64250000D01*
X46780000Y-71000000D02*
X46780000Y-71500000D01*
X47720000Y-71500000D02*
X47720000Y-71000000D01*
X46780000Y-76000000D02*
X46780000Y-76500000D01*
X47720000Y-76500000D02*
X47720000Y-76000000D01*
X153302857Y-21965000D02*
X152802857Y-21965000D01*
X152802857Y-22905000D02*
X153302857Y-22905000D01*
X124805001Y-44375000D02*
X125505001Y-44375000D01*
X125505001Y-45575000D02*
X124805001Y-45575000D01*
X118265001Y-49375000D02*
X118965001Y-49375000D01*
X118965001Y-50575000D02*
X118265001Y-50575000D01*
X144075001Y-24435000D02*
X144775001Y-24435000D01*
X144775001Y-25635000D02*
X144075001Y-25635000D01*
X171712857Y-5775000D02*
X171212857Y-5775000D01*
X171212857Y-6715000D02*
X171712857Y-6715000D01*
X161232857Y-15325000D02*
X160732857Y-15325000D01*
X160732857Y-16265000D02*
X161232857Y-16265000D01*
X132952857Y-42365000D02*
X132452857Y-42365000D01*
X132452857Y-43305000D02*
X132952857Y-43305000D01*
X122732857Y-54115000D02*
X122232857Y-54115000D01*
X122232857Y-55055000D02*
X122732857Y-55055000D01*
X157552857Y-19915000D02*
X157052857Y-19915000D01*
X157052857Y-20855000D02*
X157552857Y-20855000D01*
X126412857Y-53915000D02*
X125912857Y-53915000D01*
X125912857Y-54855000D02*
X126412857Y-54855000D01*
X132952857Y-46955000D02*
X132452857Y-46955000D01*
X132452857Y-47895000D02*
X132952857Y-47895000D01*
X164912857Y-14915000D02*
X164412857Y-14915000D01*
X164412857Y-15855000D02*
X164912857Y-15855000D01*
X141082857Y-38765000D02*
X140582857Y-38765000D01*
X140582857Y-39705000D02*
X141082857Y-39705000D01*
X137402857Y-38765000D02*
X136902857Y-38765000D01*
X136902857Y-39705000D02*
X137402857Y-39705000D01*
X168032857Y-5775000D02*
X167532857Y-5775000D01*
X167532857Y-6715000D02*
X168032857Y-6715000D01*
X148262857Y-29385000D02*
X147762857Y-29385000D01*
X147762857Y-30325000D02*
X148262857Y-30325000D01*
X153302857Y-26555000D02*
X152802857Y-26555000D01*
X152802857Y-27495000D02*
X153302857Y-27495000D01*
X136632857Y-43355000D02*
X136132857Y-43355000D01*
X136132857Y-44295000D02*
X136632857Y-44295000D01*
X161232857Y-19915000D02*
X160732857Y-19915000D01*
X160732857Y-20855000D02*
X161232857Y-20855000D01*
X156982857Y-24505000D02*
X156482857Y-24505000D01*
X156482857Y-25445000D02*
X156982857Y-25445000D01*
X115092857Y-54725000D02*
X114592857Y-54725000D01*
X114592857Y-55665000D02*
X115092857Y-55665000D01*
X164912857Y-19505000D02*
X164412857Y-19505000D01*
X164412857Y-20445000D02*
X164912857Y-20445000D01*
X149622857Y-19585000D02*
X149122857Y-19585000D01*
X149122857Y-20525000D02*
X149622857Y-20525000D01*
X118772857Y-54325000D02*
X118272857Y-54325000D01*
X118272857Y-55265000D02*
X118772857Y-55265000D01*
X137402857Y-34175000D02*
X136902857Y-34175000D01*
X136902857Y-35115000D02*
X137402857Y-35115000D01*
X149622857Y-24175000D02*
X149122857Y-24175000D01*
X149122857Y-25115000D02*
X149622857Y-25115000D01*
X144582857Y-29385000D02*
X144082857Y-29385000D01*
X144082857Y-30325000D02*
X144582857Y-30325000D01*
X129272857Y-44115000D02*
X128772857Y-44115000D01*
X128772857Y-45055000D02*
X129272857Y-45055000D01*
X173942857Y-775000D02*
X173442857Y-775000D01*
X173442857Y-1715000D02*
X173942857Y-1715000D01*
X141082857Y-34175000D02*
X140582857Y-34175000D01*
X140582857Y-35115000D02*
X141082857Y-35115000D01*
X164352857Y-10325000D02*
X163852857Y-10325000D01*
X163852857Y-11265000D02*
X164352857Y-11265000D01*
X133272857Y-63145000D02*
X132772857Y-63145000D01*
X132772857Y-64085000D02*
X133272857Y-64085000D01*
X129592857Y-63145000D02*
X129092857Y-63145000D01*
X129092857Y-64085000D02*
X129592857Y-64085000D01*
X128942857Y-77335000D02*
X128442857Y-77335000D01*
X128442857Y-78275000D02*
X128942857Y-78275000D01*
X132622857Y-76915000D02*
X132122857Y-76915000D01*
X132122857Y-77855000D02*
X132622857Y-77855000D01*
X112242857Y-96535000D02*
X111742857Y-96535000D01*
X111742857Y-97475000D02*
X112242857Y-97475000D01*
X123932857Y-86925000D02*
X123432857Y-86925000D01*
X123432857Y-87865000D02*
X123932857Y-87865000D01*
X128942857Y-81925000D02*
X128442857Y-81925000D01*
X128442857Y-82865000D02*
X128942857Y-82865000D01*
X125262857Y-81925000D02*
X124762857Y-81925000D01*
X124762857Y-82865000D02*
X125262857Y-82865000D01*
X116572857Y-91525000D02*
X116072857Y-91525000D01*
X116072857Y-92465000D02*
X116572857Y-92465000D01*
X120252857Y-86925000D02*
X119752857Y-86925000D01*
X119752857Y-87865000D02*
X120252857Y-87865000D01*
X108562857Y-96535000D02*
X108062857Y-96535000D01*
X108062857Y-97475000D02*
X108562857Y-97475000D01*
X132242857Y-72325000D02*
X131742857Y-72325000D01*
X131742857Y-73265000D02*
X132242857Y-73265000D01*
X116572857Y-86935000D02*
X116072857Y-86935000D01*
X116072857Y-87875000D02*
X116572857Y-87875000D01*
X121582857Y-82335000D02*
X121082857Y-82335000D01*
X121082857Y-83275000D02*
X121582857Y-83275000D01*
X129592857Y-67735000D02*
X129092857Y-67735000D01*
X129092857Y-68675000D02*
X129592857Y-68675000D01*
X125262857Y-77335000D02*
X124762857Y-77335000D01*
X124762857Y-78275000D02*
X125262857Y-78275000D01*
X111862857Y-91945000D02*
X111362857Y-91945000D01*
X111362857Y-92885000D02*
X111862857Y-92885000D01*
X108182857Y-91945000D02*
X107682857Y-91945000D01*
X107682857Y-92885000D02*
X108182857Y-92885000D01*
X121582857Y-77745000D02*
X121082857Y-77745000D01*
X121082857Y-78685000D02*
X121582857Y-78685000D01*
X112892857Y-87345000D02*
X112392857Y-87345000D01*
X112392857Y-88285000D02*
X112892857Y-88285000D01*
X116192857Y-82345000D02*
X115692857Y-82345000D01*
X115692857Y-83285000D02*
X116192857Y-83285000D01*
X133272857Y-67735000D02*
X132772857Y-67735000D01*
X132772857Y-68675000D02*
X133272857Y-68675000D01*
X128562857Y-72745000D02*
X128062857Y-72745000D01*
X128062857Y-73685000D02*
X128562857Y-73685000D01*
X134882857Y-99945000D02*
X134382857Y-99945000D01*
X134382857Y-100885000D02*
X134882857Y-100885000D01*
X124882857Y-72745000D02*
X124382857Y-72745000D01*
X124382857Y-73685000D02*
X124882857Y-73685000D01*
X92540000Y-9380000D02*
X92540000Y-19540000D01*
X93810000Y-9380000D02*
X86190000Y-9380000D01*
X86190000Y-9380000D02*
X86190000Y-19540000D01*
X86190000Y-19540000D02*
X93810000Y-19540000D01*
X93810000Y-19540000D02*
X93810000Y-9380000D01*
X47220000Y-86190000D02*
X47220000Y-93810000D01*
X67540000Y-93810000D02*
X67540000Y-86190000D01*
X67540000Y-92540000D02*
X47220000Y-92540000D01*
X47220000Y-86190000D02*
X67540000Y-86190000D01*
X47220000Y-93810000D02*
X67540000Y-93810000D01*
D11*
X92200000Y-80800000D02*
X99800000Y-80800000D01*
X92200000Y-89200000D02*
X99800000Y-89200000D01*
D12*
X57510000Y-8560000D02*
X70330000Y-8560000D01*
X70330000Y-8560000D02*
X70330000Y-5900000D01*
X70330000Y-5900000D02*
X57510000Y-5900000D01*
X57510000Y-5900000D02*
X57510000Y-8560000D01*
X58460000Y-5900000D02*
X58460000Y100000D01*
X58460000Y100000D02*
X59220000Y100000D01*
X59220000Y100000D02*
X59220000Y-5900000D01*
X58520000Y-5900000D02*
X58520000Y100000D01*
X58640000Y-5900000D02*
X58640000Y100000D01*
X58760000Y-5900000D02*
X58760000Y100000D01*
X58880000Y-5900000D02*
X58880000Y100000D01*
X59000000Y-5900000D02*
X59000000Y100000D01*
X59120000Y-5900000D02*
X59120000Y100000D01*
X58460000Y-8957071D02*
X58460000Y-8560000D01*
X59220000Y-8957071D02*
X59220000Y-8560000D01*
X58460000Y-11430000D02*
X58460000Y-11042929D01*
X59220000Y-11430000D02*
X59220000Y-11042929D01*
X60110000Y-8560000D02*
X60110000Y-5900000D01*
X61000000Y-5900000D02*
X61000000Y100000D01*
X61000000Y100000D02*
X61760000Y100000D01*
X61760000Y100000D02*
X61760000Y-5900000D01*
X61000000Y-8957071D02*
X61000000Y-8560000D01*
X61760000Y-8957071D02*
X61760000Y-8560000D01*
X61000000Y-11497071D02*
X61000000Y-11042929D01*
X61760000Y-11497071D02*
X61760000Y-11042929D01*
X62650000Y-8560000D02*
X62650000Y-5900000D01*
X63540000Y-5900000D02*
X63540000Y100000D01*
X63540000Y100000D02*
X64300000Y100000D01*
X64300000Y100000D02*
X64300000Y-5900000D01*
X63540000Y-8957071D02*
X63540000Y-8560000D01*
X64300000Y-8957071D02*
X64300000Y-8560000D01*
X63540000Y-11497071D02*
X63540000Y-11042929D01*
X64300000Y-11497071D02*
X64300000Y-11042929D01*
X65190000Y-8560000D02*
X65190000Y-5900000D01*
X66080000Y-5900000D02*
X66080000Y100000D01*
X66080000Y100000D02*
X66840000Y100000D01*
X66840000Y100000D02*
X66840000Y-5900000D01*
X66080000Y-8957071D02*
X66080000Y-8560000D01*
X66840000Y-8957071D02*
X66840000Y-8560000D01*
X66080000Y-11497071D02*
X66080000Y-11042929D01*
X66840000Y-11497071D02*
X66840000Y-11042929D01*
X67730000Y-8560000D02*
X67730000Y-5900000D01*
X68620000Y-5900000D02*
X68620000Y100000D01*
X68620000Y100000D02*
X69380000Y100000D01*
X69380000Y100000D02*
X69380000Y-5900000D01*
X68620000Y-8957071D02*
X68620000Y-8560000D01*
X69380000Y-8957071D02*
X69380000Y-8560000D01*
X68620000Y-11497071D02*
X68620000Y-11042929D01*
X69380000Y-11497071D02*
X69380000Y-11042929D01*
X58840000Y-13810000D02*
X57570000Y-13810000D01*
X57570000Y-13810000D02*
X57570000Y-12540000D01*
X11370000Y-3750000D02*
X11370000Y-8950000D01*
X26670000Y-3750000D02*
X11370000Y-3750000D01*
X29270000Y-8950000D02*
X11370000Y-8950000D01*
X26670000Y-3750000D02*
X26670000Y-6350000D01*
X26670000Y-6350000D02*
X29270000Y-6350000D01*
X29270000Y-6350000D02*
X29270000Y-8950000D01*
X27940000Y-3750000D02*
X29270000Y-3750000D01*
X29270000Y-3750000D02*
X29270000Y-5080000D01*
X2480000Y-74990000D02*
X7680000Y-74990000D01*
X2480000Y-26670000D02*
X2480000Y-74990000D01*
X7680000Y-24070000D02*
X7680000Y-74990000D01*
X2480000Y-26670000D02*
X5080000Y-26670000D01*
X5080000Y-26670000D02*
X5080000Y-24070000D01*
X5080000Y-24070000D02*
X7680000Y-24070000D01*
X2480000Y-25400000D02*
X2480000Y-24070000D01*
X2480000Y-24070000D02*
X3810000Y-24070000D01*
X92650000Y-74990000D02*
X97850000Y-74990000D01*
X92650000Y-26670000D02*
X92650000Y-74990000D01*
X97850000Y-24070000D02*
X97850000Y-74990000D01*
X92650000Y-26670000D02*
X95250000Y-26670000D01*
X95250000Y-26670000D02*
X95250000Y-24070000D01*
X95250000Y-24070000D02*
X97850000Y-24070000D01*
X92650000Y-25400000D02*
X92650000Y-24070000D01*
X92650000Y-24070000D02*
X93980000Y-24070000D01*
X87690000Y-97850000D02*
X87690000Y-92650000D01*
X72390000Y-97850000D02*
X87690000Y-97850000D01*
X69790000Y-92650000D02*
X87690000Y-92650000D01*
X72390000Y-97850000D02*
X72390000Y-95250000D01*
X72390000Y-95250000D02*
X69790000Y-95250000D01*
X69790000Y-95250000D02*
X69790000Y-92650000D01*
X71120000Y-97850000D02*
X69790000Y-97850000D01*
X69790000Y-97850000D02*
X69790000Y-96520000D01*
X34890000Y-55550000D02*
X34950000Y-55550000D01*
X34950000Y-55550000D02*
X34950000Y-60950000D01*
X34950000Y-60950000D02*
X34890000Y-60950000D01*
X29810000Y-55550000D02*
X32690000Y-55550000D01*
X27610000Y-61550000D02*
X27610000Y-60950000D01*
X27610000Y-60950000D02*
X27550000Y-60950000D01*
X27550000Y-60950000D02*
X27550000Y-55550000D01*
X27550000Y-55550000D02*
X27610000Y-55550000D01*
X32690000Y-60950000D02*
X29810000Y-60950000D01*
X29810000Y-60950000D02*
X29810000Y-61550000D01*
X154075238Y-13705000D02*
X153075238Y-13705000D01*
X153075238Y-12345000D02*
X154075238Y-12345000D01*
X121835238Y-45855000D02*
X120835238Y-45855000D01*
X120835238Y-44495000D02*
X121835238Y-44495000D01*
X141105238Y-25915000D02*
X140105238Y-25915000D01*
X140105238Y-24555000D02*
X141105238Y-24555000D01*
X146477143Y-20915000D02*
X145477143Y-20915000D01*
X145477143Y-19555000D02*
X146477143Y-19555000D01*
X170875001Y-2105000D02*
X169875001Y-2105000D01*
X169875001Y-745000D02*
X170875001Y-745000D01*
X118565001Y-45855000D02*
X117565001Y-45855000D01*
X117565001Y-44495000D02*
X118565001Y-44495000D01*
X125517143Y-40855000D02*
X124517143Y-40855000D01*
X124517143Y-39495000D02*
X125517143Y-39495000D01*
X133925238Y-34105000D02*
X132925238Y-34105000D01*
X132925238Y-32745000D02*
X133925238Y-32745000D01*
X137515238Y-29105000D02*
X136515238Y-29105000D01*
X136515238Y-27745000D02*
X137515238Y-27745000D01*
X111705238Y-56055000D02*
X110705238Y-56055000D01*
X110705238Y-54695000D02*
X111705238Y-54695000D01*
X133925238Y-29105000D02*
X132925238Y-29105000D01*
X132925238Y-27745000D02*
X133925238Y-27745000D01*
X171195238Y2895000D02*
X170195238Y2895000D01*
X170195238Y4255000D02*
X171195238Y4255000D01*
X122165238Y-40855000D02*
X121165238Y-40855000D01*
X121165238Y-39495000D02*
X122165238Y-39495000D01*
X143125238Y-20915000D02*
X142125238Y-20915000D01*
X142125238Y-19555000D02*
X143125238Y-19555000D01*
X115295238Y-46055000D02*
X114295238Y-46055000D01*
X114295238Y-44695000D02*
X115295238Y-44695000D01*
X137515238Y-24105000D02*
X136515238Y-24105000D01*
X136515238Y-22745000D02*
X137515238Y-22745000D01*
X118575238Y-40855000D02*
X117575238Y-40855000D01*
X117575238Y-39495000D02*
X118575238Y-39495000D01*
X133925238Y-24105000D02*
X132925238Y-24105000D01*
X132925238Y-22745000D02*
X133925238Y-22745000D01*
X111705238Y-46055000D02*
X110705238Y-46055000D01*
X110705238Y-44695000D02*
X111705238Y-44695000D01*
X117075238Y-63075000D02*
X116075238Y-63075000D01*
X116075238Y-61715000D02*
X117075238Y-61715000D01*
X113485238Y-63075000D02*
X112485238Y-63075000D01*
X112485238Y-61715000D02*
X113485238Y-61715000D01*
X109895238Y-63075000D02*
X108895238Y-63075000D01*
X108895238Y-61715000D02*
X109895238Y-61715000D01*
X160965238Y-11655000D02*
X159965238Y-11655000D01*
X159965238Y-10295000D02*
X160965238Y-10295000D01*
X111705238Y-51055000D02*
X110705238Y-51055000D01*
X110705238Y-49695000D02*
X111705238Y-49695000D01*
X154075238Y-8705000D02*
X153075238Y-8705000D01*
X153075238Y-7345000D02*
X154075238Y-7345000D01*
X164275238Y-6655000D02*
X163275238Y-6655000D01*
X163275238Y-5295000D02*
X164275238Y-5295000D01*
X115295238Y-51055000D02*
X114295238Y-51055000D01*
X114295238Y-49695000D02*
X115295238Y-49695000D01*
X157522381Y-8705000D02*
X156522381Y-8705000D01*
X156522381Y-7345000D02*
X157522381Y-7345000D01*
X174642381Y2895000D02*
X173642381Y2895000D01*
X173642381Y4255000D02*
X174642381Y4255000D01*
X121642381Y-74075000D02*
X120642381Y-74075000D01*
X120642381Y-72715000D02*
X121642381Y-72715000D01*
X104942381Y-93275000D02*
X103942381Y-93275000D01*
X103942381Y-91915000D02*
X104942381Y-91915000D01*
X112952381Y-83675000D02*
X111952381Y-83675000D01*
X111952381Y-82315000D02*
X112952381Y-82315000D01*
D11*
X78000000Y-12350000D02*
X78000000Y-17650000D01*
X84000000Y-12350000D02*
X78000000Y-12350000D01*
X84000000Y-17650000D02*
X84000000Y-12350000D01*
X78000000Y-17650000D02*
X84000000Y-17650000D01*
X49825000Y-79175000D02*
X50800000Y-79175000D01*
X49825000Y-58825000D02*
X50875000Y-58825000D01*
X70175000Y-58825000D02*
X69125000Y-58825000D01*
X70175000Y-79175000D02*
X69125000Y-79175000D01*
X49825000Y-79175000D02*
X49825000Y-78125000D01*
X70175000Y-79175000D02*
X70175000Y-78125000D01*
X70175000Y-58825000D02*
X70175000Y-59875000D01*
X49825000Y-58825000D02*
X49825000Y-59875000D01*
X50800000Y-79175000D02*
X50800000Y-80475000D01*
X22900000Y-77100000D02*
G75*
G03X22900000Y-77100000I-500000J0D01*
G01*
X21600000Y-77900000D02*
X21600000Y-79300000D01*
X21600000Y-67800000D02*
X21600000Y-77900000D01*
X44000000Y-77900000D02*
X44000000Y-67800000D01*
X38175000Y-23825000D02*
X38175000Y-24800000D01*
X58525000Y-23825000D02*
X58525000Y-24875000D01*
X58525000Y-44175000D02*
X58525000Y-43125000D01*
X38175000Y-44175000D02*
X38175000Y-43125000D01*
X38175000Y-23825000D02*
X39225000Y-23825000D01*
X38175000Y-44175000D02*
X39225000Y-44175000D01*
X58525000Y-44175000D02*
X57475000Y-44175000D01*
X58525000Y-23825000D02*
X57475000Y-23825000D01*
X38175000Y-24800000D02*
X36875000Y-24800000D01*
X30225000Y-40550000D02*
X25775000Y-40550000D01*
X31750000Y-47450000D02*
X25775000Y-47450000D01*
X30225000Y-31550000D02*
X25775000Y-31550000D01*
X31750000Y-38450000D02*
X25775000Y-38450000D01*
X30225000Y-22550000D02*
X25775000Y-22550000D01*
X31750000Y-29450000D02*
X25775000Y-29450000D01*
X17000000Y-19750000D02*
X18500000Y-19750000D01*
X16500000Y-18750000D02*
G75*
G03X16500000Y-18750000I-500000J0D01*
G01*
X17000000Y-14500000D02*
X17000000Y-14250000D01*
X17000000Y-14250000D02*
X13000000Y-14250000D01*
X13000000Y-14250000D02*
X13000000Y-14500000D01*
X17000000Y-19500000D02*
X17000000Y-19750000D01*
X17000000Y-19750000D02*
X13000000Y-19750000D01*
X13000000Y-19750000D02*
X13000000Y-19500000D01*
X17000000Y-25750000D02*
X18500000Y-25750000D01*
X16500000Y-24750000D02*
G75*
G03X16500000Y-24750000I-500000J0D01*
G01*
X17000000Y-20500000D02*
X17000000Y-20250000D01*
X17000000Y-20250000D02*
X13000000Y-20250000D01*
X13000000Y-20250000D02*
X13000000Y-20500000D01*
X17000000Y-25500000D02*
X17000000Y-25750000D01*
X17000000Y-25750000D02*
X13000000Y-25750000D01*
X13000000Y-25750000D02*
X13000000Y-25500000D01*
X17000000Y-31750000D02*
X18500000Y-31750000D01*
X16500000Y-30750000D02*
G75*
G03X16500000Y-30750000I-500000J0D01*
G01*
X17000000Y-26500000D02*
X17000000Y-26250000D01*
X17000000Y-26250000D02*
X13000000Y-26250000D01*
X13000000Y-26250000D02*
X13000000Y-26500000D01*
X17000000Y-31500000D02*
X17000000Y-31750000D01*
X17000000Y-31750000D02*
X13000000Y-31750000D01*
X13000000Y-31750000D02*
X13000000Y-31500000D01*
X17000000Y-37750000D02*
X18500000Y-37750000D01*
X16500000Y-36750000D02*
G75*
G03X16500000Y-36750000I-500000J0D01*
G01*
X17000000Y-32500000D02*
X17000000Y-32250000D01*
X17000000Y-32250000D02*
X13000000Y-32250000D01*
X13000000Y-32250000D02*
X13000000Y-32500000D01*
X17000000Y-37500000D02*
X17000000Y-37750000D01*
X17000000Y-37750000D02*
X13000000Y-37750000D01*
X13000000Y-37750000D02*
X13000000Y-37500000D01*
X17000000Y-43750000D02*
X18500000Y-43750000D01*
X16500000Y-42750000D02*
G75*
G03X16500000Y-42750000I-500000J0D01*
G01*
X17000000Y-38500000D02*
X17000000Y-38250000D01*
X17000000Y-38250000D02*
X13000000Y-38250000D01*
X13000000Y-38250000D02*
X13000000Y-38500000D01*
X17000000Y-43500000D02*
X17000000Y-43750000D01*
X17000000Y-43750000D02*
X13000000Y-43750000D01*
X13000000Y-43750000D02*
X13000000Y-43500000D01*
X17000000Y-49750000D02*
X18500000Y-49750000D01*
X16500000Y-48750000D02*
G75*
G03X16500000Y-48750000I-500000J0D01*
G01*
X17000000Y-44500000D02*
X17000000Y-44250000D01*
X17000000Y-44250000D02*
X13000000Y-44250000D01*
X13000000Y-44250000D02*
X13000000Y-44500000D01*
X17000000Y-49500000D02*
X17000000Y-49750000D01*
X17000000Y-49750000D02*
X13000000Y-49750000D01*
X13000000Y-49750000D02*
X13000000Y-49500000D01*
X17000000Y-55750000D02*
X18500000Y-55750000D01*
X16500000Y-54750000D02*
G75*
G03X16500000Y-54750000I-500000J0D01*
G01*
X17000000Y-50500000D02*
X17000000Y-50250000D01*
X17000000Y-50250000D02*
X13000000Y-50250000D01*
X13000000Y-50250000D02*
X13000000Y-50500000D01*
X17000000Y-55500000D02*
X17000000Y-55750000D01*
X17000000Y-55750000D02*
X13000000Y-55750000D01*
X13000000Y-55750000D02*
X13000000Y-55500000D01*
X17000000Y-61750000D02*
X18500000Y-61750000D01*
X16500000Y-60750000D02*
G75*
G03X16500000Y-60750000I-500000J0D01*
G01*
X17000000Y-56500000D02*
X17000000Y-56250000D01*
X17000000Y-56250000D02*
X13000000Y-56250000D01*
X13000000Y-56250000D02*
X13000000Y-56500000D01*
X17000000Y-61500000D02*
X17000000Y-61750000D01*
X17000000Y-61750000D02*
X13000000Y-61750000D01*
X13000000Y-61750000D02*
X13000000Y-61500000D01*
X17000000Y-67750000D02*
X18500000Y-67750000D01*
X16500000Y-66750000D02*
G75*
G03X16500000Y-66750000I-500000J0D01*
G01*
X17000000Y-62500000D02*
X17000000Y-62250000D01*
X17000000Y-62250000D02*
X13000000Y-62250000D01*
X13000000Y-62250000D02*
X13000000Y-62500000D01*
X17000000Y-67500000D02*
X17000000Y-67750000D01*
X17000000Y-67750000D02*
X13000000Y-67750000D01*
X13000000Y-67750000D02*
X13000000Y-67500000D01*
X17000000Y-73750000D02*
X18500000Y-73750000D01*
X16500000Y-72750000D02*
G75*
G03X16500000Y-72750000I-500000J0D01*
G01*
X17000000Y-68500000D02*
X17000000Y-68250000D01*
X17000000Y-68250000D02*
X13000000Y-68250000D01*
X13000000Y-68250000D02*
X13000000Y-68500000D01*
X17000000Y-73500000D02*
X17000000Y-73750000D01*
X17000000Y-73750000D02*
X13000000Y-73750000D01*
X13000000Y-73750000D02*
X13000000Y-73500000D01*
X45250000Y-14250000D02*
X46700000Y-14250000D01*
X45250000Y-8000000D02*
X45250000Y-7750000D01*
X45250000Y-7750000D02*
X40750000Y-7750000D01*
X40750000Y-7750000D02*
X40750000Y-8000000D01*
X45250000Y-14000000D02*
X45250000Y-14250000D01*
X45250000Y-14250000D02*
X40750000Y-14250000D01*
X40750000Y-14250000D02*
X40750000Y-14000000D01*
X44750000Y-13250000D02*
G75*
G03X44750000Y-13250000I-500000J0D01*
G01*
X66775000Y-29450000D02*
X71225000Y-29450000D01*
X65250000Y-22550000D02*
X71225000Y-22550000D01*
X66775000Y-38450000D02*
X71225000Y-38450000D01*
X65250000Y-31550000D02*
X71225000Y-31550000D01*
X66775000Y-47450000D02*
X71225000Y-47450000D01*
X65250000Y-40550000D02*
X71225000Y-40550000D01*
X83000000Y-25250000D02*
X81500000Y-25250000D01*
X84500000Y-26250000D02*
G75*
G03X84500000Y-26250000I-500000J0D01*
G01*
X83000000Y-30500000D02*
X83000000Y-30750000D01*
X83000000Y-30750000D02*
X87000000Y-30750000D01*
X87000000Y-30750000D02*
X87000000Y-30500000D01*
X83000000Y-25500000D02*
X83000000Y-25250000D01*
X83000000Y-25250000D02*
X87000000Y-25250000D01*
X87000000Y-25250000D02*
X87000000Y-25500000D01*
X83000000Y-31250000D02*
X81500000Y-31250000D01*
X84500000Y-32250000D02*
G75*
G03X84500000Y-32250000I-500000J0D01*
G01*
X83000000Y-36500000D02*
X83000000Y-36750000D01*
X83000000Y-36750000D02*
X87000000Y-36750000D01*
X87000000Y-36750000D02*
X87000000Y-36500000D01*
X83000000Y-31500000D02*
X83000000Y-31250000D01*
X83000000Y-31250000D02*
X87000000Y-31250000D01*
X87000000Y-31250000D02*
X87000000Y-31500000D01*
X83000000Y-37250000D02*
X81500000Y-37250000D01*
X84500000Y-38250000D02*
G75*
G03X84500000Y-38250000I-500000J0D01*
G01*
X83000000Y-42500000D02*
X83000000Y-42750000D01*
X83000000Y-42750000D02*
X87000000Y-42750000D01*
X87000000Y-42750000D02*
X87000000Y-42500000D01*
X83000000Y-37500000D02*
X83000000Y-37250000D01*
X83000000Y-37250000D02*
X87000000Y-37250000D01*
X87000000Y-37250000D02*
X87000000Y-37500000D01*
X83000000Y-43250000D02*
X81500000Y-43250000D01*
X84500000Y-44250000D02*
G75*
G03X84500000Y-44250000I-500000J0D01*
G01*
X83000000Y-48500000D02*
X83000000Y-48750000D01*
X83000000Y-48750000D02*
X87000000Y-48750000D01*
X87000000Y-48750000D02*
X87000000Y-48500000D01*
X83000000Y-43500000D02*
X83000000Y-43250000D01*
X83000000Y-43250000D02*
X87000000Y-43250000D01*
X87000000Y-43250000D02*
X87000000Y-43500000D01*
X83000000Y-49250000D02*
X81500000Y-49250000D01*
X84500000Y-50250000D02*
G75*
G03X84500000Y-50250000I-500000J0D01*
G01*
X83000000Y-54500000D02*
X83000000Y-54750000D01*
X83000000Y-54750000D02*
X87000000Y-54750000D01*
X87000000Y-54750000D02*
X87000000Y-54500000D01*
X83000000Y-49500000D02*
X83000000Y-49250000D01*
X83000000Y-49250000D02*
X87000000Y-49250000D01*
X87000000Y-49250000D02*
X87000000Y-49500000D01*
X83000000Y-55250000D02*
X81500000Y-55250000D01*
X84500000Y-56250000D02*
G75*
G03X84500000Y-56250000I-500000J0D01*
G01*
X83000000Y-60500000D02*
X83000000Y-60750000D01*
X83000000Y-60750000D02*
X87000000Y-60750000D01*
X87000000Y-60750000D02*
X87000000Y-60500000D01*
X83000000Y-55500000D02*
X83000000Y-55250000D01*
X83000000Y-55250000D02*
X87000000Y-55250000D01*
X87000000Y-55250000D02*
X87000000Y-55500000D01*
X83000000Y-61250000D02*
X81500000Y-61250000D01*
X84500000Y-62250000D02*
G75*
G03X84500000Y-62250000I-500000J0D01*
G01*
X83000000Y-66500000D02*
X83000000Y-66750000D01*
X83000000Y-66750000D02*
X87000000Y-66750000D01*
X87000000Y-66750000D02*
X87000000Y-66500000D01*
X83000000Y-61500000D02*
X83000000Y-61250000D01*
X83000000Y-61250000D02*
X87000000Y-61250000D01*
X87000000Y-61250000D02*
X87000000Y-61500000D01*
X83000000Y-67250000D02*
X81500000Y-67250000D01*
X84500000Y-68250000D02*
G75*
G03X84500000Y-68250000I-500000J0D01*
G01*
X83000000Y-72500000D02*
X83000000Y-72750000D01*
X83000000Y-72750000D02*
X87000000Y-72750000D01*
X87000000Y-72750000D02*
X87000000Y-72500000D01*
X83000000Y-67500000D02*
X83000000Y-67250000D01*
X83000000Y-67250000D02*
X87000000Y-67250000D01*
X87000000Y-67250000D02*
X87000000Y-67500000D01*
X83000000Y-73250000D02*
X81500000Y-73250000D01*
X84500000Y-74250000D02*
G75*
G03X84500000Y-74250000I-500000J0D01*
G01*
X83000000Y-78500000D02*
X83000000Y-78750000D01*
X83000000Y-78750000D02*
X87000000Y-78750000D01*
X87000000Y-78750000D02*
X87000000Y-78500000D01*
X83000000Y-73500000D02*
X83000000Y-73250000D01*
X83000000Y-73250000D02*
X87000000Y-73250000D01*
X87000000Y-73250000D02*
X87000000Y-73500000D01*
X46832381Y-89063333D02*
X47546667Y-89063333D01*
X47689524Y-89110953D01*
X47784762Y-89206191D01*
X47832381Y-89349048D01*
X47832381Y-89444286D01*
X46832381Y-88682381D02*
X46832381Y-88063333D01*
X47213333Y-88396667D01*
X47213333Y-88253809D01*
X47260952Y-88158571D01*
X47308571Y-88110952D01*
X47403810Y-88063333D01*
X47641905Y-88063333D01*
X47737143Y-88110952D01*
X47784762Y-88158571D01*
X47832381Y-88253809D01*
X47832381Y-88539524D01*
X47784762Y-88634762D01*
X47737143Y-88682381D01*
X105808335Y-61302143D02*
X105760716Y-61349762D01*
X105617859Y-61397381D01*
X105522621Y-61397381D01*
X105379763Y-61349762D01*
X105284525Y-61254524D01*
X105236906Y-61159286D01*
X105189287Y-60968810D01*
X105189287Y-60825952D01*
X105236906Y-60635476D01*
X105284525Y-60540238D01*
X105379763Y-60445000D01*
X105522621Y-60397381D01*
X105617859Y-60397381D01*
X105760716Y-60445000D01*
X105808335Y-60492619D01*
X106760716Y-61397381D02*
X106189287Y-61397381D01*
X106475001Y-61397381D02*
X106475001Y-60397381D01*
X106379763Y-60540238D01*
X106284525Y-60635476D01*
X106189287Y-60683095D01*
X73107143Y-16166666D02*
X73154762Y-16214285D01*
X73202381Y-16357142D01*
X73202381Y-16452380D01*
X73154762Y-16595238D01*
X73059524Y-16690476D01*
X72964286Y-16738095D01*
X72773810Y-16785714D01*
X72630952Y-16785714D01*
X72440476Y-16738095D01*
X72345238Y-16690476D01*
X72250000Y-16595238D01*
X72202381Y-16452380D01*
X72202381Y-16357142D01*
X72250000Y-16214285D01*
X72297619Y-16166666D01*
X72297619Y-15785714D02*
X72250000Y-15738095D01*
X72202381Y-15642857D01*
X72202381Y-15404761D01*
X72250000Y-15309523D01*
X72297619Y-15261904D01*
X72392857Y-15214285D01*
X72488095Y-15214285D01*
X72630952Y-15261904D01*
X73202381Y-15833333D01*
X73202381Y-15214285D01*
X52533334Y-80837143D02*
X52485715Y-80884762D01*
X52342858Y-80932381D01*
X52247620Y-80932381D01*
X52104762Y-80884762D01*
X52009524Y-80789524D01*
X51961905Y-80694286D01*
X51914286Y-80503810D01*
X51914286Y-80360952D01*
X51961905Y-80170476D01*
X52009524Y-80075238D01*
X52104762Y-79980000D01*
X52247620Y-79932381D01*
X52342858Y-79932381D01*
X52485715Y-79980000D01*
X52533334Y-80027619D01*
X52866667Y-79932381D02*
X53485715Y-79932381D01*
X53152381Y-80313333D01*
X53295239Y-80313333D01*
X53390477Y-80360952D01*
X53438096Y-80408571D01*
X53485715Y-80503810D01*
X53485715Y-80741905D01*
X53438096Y-80837143D01*
X53390477Y-80884762D01*
X53295239Y-80932381D01*
X53009524Y-80932381D01*
X52914286Y-80884762D01*
X52866667Y-80837143D01*
X57333334Y-83377143D02*
X57285715Y-83424762D01*
X57142858Y-83472381D01*
X57047620Y-83472381D01*
X56904762Y-83424762D01*
X56809524Y-83329524D01*
X56761905Y-83234286D01*
X56714286Y-83043810D01*
X56714286Y-82900952D01*
X56761905Y-82710476D01*
X56809524Y-82615238D01*
X56904762Y-82520000D01*
X57047620Y-82472381D01*
X57142858Y-82472381D01*
X57285715Y-82520000D01*
X57333334Y-82567619D01*
X58190477Y-82805714D02*
X58190477Y-83472381D01*
X57952381Y-82424762D02*
X57714286Y-83139048D01*
X58333334Y-83139048D01*
X62333334Y-80837143D02*
X62285715Y-80884762D01*
X62142858Y-80932381D01*
X62047620Y-80932381D01*
X61904762Y-80884762D01*
X61809524Y-80789524D01*
X61761905Y-80694286D01*
X61714286Y-80503810D01*
X61714286Y-80360952D01*
X61761905Y-80170476D01*
X61809524Y-80075238D01*
X61904762Y-79980000D01*
X62047620Y-79932381D01*
X62142858Y-79932381D01*
X62285715Y-79980000D01*
X62333334Y-80027619D01*
X63238096Y-79932381D02*
X62761905Y-79932381D01*
X62714286Y-80408571D01*
X62761905Y-80360952D01*
X62857143Y-80313333D01*
X63095239Y-80313333D01*
X63190477Y-80360952D01*
X63238096Y-80408571D01*
X63285715Y-80503810D01*
X63285715Y-80741905D01*
X63238096Y-80837143D01*
X63190477Y-80884762D01*
X63095239Y-80932381D01*
X62857143Y-80932381D01*
X62761905Y-80884762D01*
X62714286Y-80837143D01*
X72587143Y-72666666D02*
X72634762Y-72714285D01*
X72682381Y-72857142D01*
X72682381Y-72952380D01*
X72634762Y-73095238D01*
X72539524Y-73190476D01*
X72444286Y-73238095D01*
X72253810Y-73285714D01*
X72110952Y-73285714D01*
X71920476Y-73238095D01*
X71825238Y-73190476D01*
X71730000Y-73095238D01*
X71682381Y-72952380D01*
X71682381Y-72857142D01*
X71730000Y-72714285D01*
X71777619Y-72666666D01*
X71682381Y-71809523D02*
X71682381Y-72000000D01*
X71730000Y-72095238D01*
X71777619Y-72142857D01*
X71920476Y-72238095D01*
X72110952Y-72285714D01*
X72491905Y-72285714D01*
X72587143Y-72238095D01*
X72634762Y-72190476D01*
X72682381Y-72095238D01*
X72682381Y-71904761D01*
X72634762Y-71809523D01*
X72587143Y-71761904D01*
X72491905Y-71714285D01*
X72253810Y-71714285D01*
X72158571Y-71761904D01*
X72110952Y-71809523D01*
X72063333Y-71904761D01*
X72063333Y-72095238D01*
X72110952Y-72190476D01*
X72158571Y-72238095D01*
X72253810Y-72285714D01*
X74377143Y-67416666D02*
X74424762Y-67464285D01*
X74472381Y-67607142D01*
X74472381Y-67702380D01*
X74424762Y-67845238D01*
X74329524Y-67940476D01*
X74234286Y-67988095D01*
X74043810Y-68035714D01*
X73900952Y-68035714D01*
X73710476Y-67988095D01*
X73615238Y-67940476D01*
X73520000Y-67845238D01*
X73472381Y-67702380D01*
X73472381Y-67607142D01*
X73520000Y-67464285D01*
X73567619Y-67416666D01*
X73472381Y-67083333D02*
X73472381Y-66416666D01*
X74472381Y-66845238D01*
X67583334Y-57877143D02*
X67535715Y-57924762D01*
X67392858Y-57972381D01*
X67297620Y-57972381D01*
X67154762Y-57924762D01*
X67059524Y-57829524D01*
X67011905Y-57734286D01*
X66964286Y-57543810D01*
X66964286Y-57400952D01*
X67011905Y-57210476D01*
X67059524Y-57115238D01*
X67154762Y-57020000D01*
X67297620Y-56972381D01*
X67392858Y-56972381D01*
X67535715Y-57020000D01*
X67583334Y-57067619D01*
X68154762Y-57400952D02*
X68059524Y-57353333D01*
X68011905Y-57305714D01*
X67964286Y-57210476D01*
X67964286Y-57162857D01*
X68011905Y-57067619D01*
X68059524Y-57020000D01*
X68154762Y-56972381D01*
X68345239Y-56972381D01*
X68440477Y-57020000D01*
X68488096Y-57067619D01*
X68535715Y-57162857D01*
X68535715Y-57210476D01*
X68488096Y-57305714D01*
X68440477Y-57353333D01*
X68345239Y-57400952D01*
X68154762Y-57400952D01*
X68059524Y-57448571D01*
X68011905Y-57496190D01*
X67964286Y-57591429D01*
X67964286Y-57781905D01*
X68011905Y-57877143D01*
X68059524Y-57924762D01*
X68154762Y-57972381D01*
X68345239Y-57972381D01*
X68440477Y-57924762D01*
X68488096Y-57877143D01*
X68535715Y-57781905D01*
X68535715Y-57591429D01*
X68488096Y-57496190D01*
X68440477Y-57448571D01*
X68345239Y-57400952D01*
X59083334Y-57877143D02*
X59035715Y-57924762D01*
X58892858Y-57972381D01*
X58797620Y-57972381D01*
X58654762Y-57924762D01*
X58559524Y-57829524D01*
X58511905Y-57734286D01*
X58464286Y-57543810D01*
X58464286Y-57400952D01*
X58511905Y-57210476D01*
X58559524Y-57115238D01*
X58654762Y-57020000D01*
X58797620Y-56972381D01*
X58892858Y-56972381D01*
X59035715Y-57020000D01*
X59083334Y-57067619D01*
X59559524Y-57972381D02*
X59750000Y-57972381D01*
X59845239Y-57924762D01*
X59892858Y-57877143D01*
X59988096Y-57734286D01*
X60035715Y-57543810D01*
X60035715Y-57162857D01*
X59988096Y-57067619D01*
X59940477Y-57020000D01*
X59845239Y-56972381D01*
X59654762Y-56972381D01*
X59559524Y-57020000D01*
X59511905Y-57067619D01*
X59464286Y-57162857D01*
X59464286Y-57400952D01*
X59511905Y-57496190D01*
X59559524Y-57543810D01*
X59654762Y-57591429D01*
X59845239Y-57591429D01*
X59940477Y-57543810D01*
X59988096Y-57496190D01*
X60035715Y-57400952D01*
X52607143Y-57877143D02*
X52559524Y-57924762D01*
X52416667Y-57972381D01*
X52321429Y-57972381D01*
X52178571Y-57924762D01*
X52083333Y-57829524D01*
X52035714Y-57734286D01*
X51988095Y-57543810D01*
X51988095Y-57400952D01*
X52035714Y-57210476D01*
X52083333Y-57115238D01*
X52178571Y-57020000D01*
X52321429Y-56972381D01*
X52416667Y-56972381D01*
X52559524Y-57020000D01*
X52607143Y-57067619D01*
X53559524Y-57972381D02*
X52988095Y-57972381D01*
X53273809Y-57972381D02*
X53273809Y-56972381D01*
X53178571Y-57115238D01*
X53083333Y-57210476D01*
X52988095Y-57258095D01*
X54178571Y-56972381D02*
X54273810Y-56972381D01*
X54369048Y-57020000D01*
X54416667Y-57067619D01*
X54464286Y-57162857D01*
X54511905Y-57353333D01*
X54511905Y-57591429D01*
X54464286Y-57781905D01*
X54416667Y-57877143D01*
X54369048Y-57924762D01*
X54273810Y-57972381D01*
X54178571Y-57972381D01*
X54083333Y-57924762D01*
X54035714Y-57877143D01*
X53988095Y-57781905D01*
X53940476Y-57591429D01*
X53940476Y-57353333D01*
X53988095Y-57162857D01*
X54035714Y-57067619D01*
X54083333Y-57020000D01*
X54178571Y-56972381D01*
X46337143Y-65142857D02*
X46384762Y-65190476D01*
X46432381Y-65333333D01*
X46432381Y-65428571D01*
X46384762Y-65571429D01*
X46289524Y-65666667D01*
X46194286Y-65714286D01*
X46003810Y-65761905D01*
X45860952Y-65761905D01*
X45670476Y-65714286D01*
X45575238Y-65666667D01*
X45480000Y-65571429D01*
X45432381Y-65428571D01*
X45432381Y-65333333D01*
X45480000Y-65190476D01*
X45527619Y-65142857D01*
X46432381Y-64190476D02*
X46432381Y-64761905D01*
X46432381Y-64476191D02*
X45432381Y-64476191D01*
X45575238Y-64571429D01*
X45670476Y-64666667D01*
X45718095Y-64761905D01*
X46432381Y-63238095D02*
X46432381Y-63809524D01*
X46432381Y-63523810D02*
X45432381Y-63523810D01*
X45575238Y-63619048D01*
X45670476Y-63714286D01*
X45718095Y-63809524D01*
X46337143Y-71892857D02*
X46384762Y-71940476D01*
X46432381Y-72083333D01*
X46432381Y-72178571D01*
X46384762Y-72321429D01*
X46289524Y-72416667D01*
X46194286Y-72464286D01*
X46003810Y-72511905D01*
X45860952Y-72511905D01*
X45670476Y-72464286D01*
X45575238Y-72416667D01*
X45480000Y-72321429D01*
X45432381Y-72178571D01*
X45432381Y-72083333D01*
X45480000Y-71940476D01*
X45527619Y-71892857D01*
X46432381Y-70940476D02*
X46432381Y-71511905D01*
X46432381Y-71226191D02*
X45432381Y-71226191D01*
X45575238Y-71321429D01*
X45670476Y-71416667D01*
X45718095Y-71511905D01*
X45527619Y-70559524D02*
X45480000Y-70511905D01*
X45432381Y-70416667D01*
X45432381Y-70178571D01*
X45480000Y-70083333D01*
X45527619Y-70035714D01*
X45622857Y-69988095D01*
X45718095Y-69988095D01*
X45860952Y-70035714D01*
X46432381Y-70607143D01*
X46432381Y-69988095D01*
X46337143Y-76892857D02*
X46384762Y-76940476D01*
X46432381Y-77083333D01*
X46432381Y-77178571D01*
X46384762Y-77321429D01*
X46289524Y-77416667D01*
X46194286Y-77464286D01*
X46003810Y-77511905D01*
X45860952Y-77511905D01*
X45670476Y-77464286D01*
X45575238Y-77416667D01*
X45480000Y-77321429D01*
X45432381Y-77178571D01*
X45432381Y-77083333D01*
X45480000Y-76940476D01*
X45527619Y-76892857D01*
X46432381Y-75940476D02*
X46432381Y-76511905D01*
X46432381Y-76226191D02*
X45432381Y-76226191D01*
X45575238Y-76321429D01*
X45670476Y-76416667D01*
X45718095Y-76511905D01*
X45432381Y-75607143D02*
X45432381Y-74988095D01*
X45813333Y-75321429D01*
X45813333Y-75178571D01*
X45860952Y-75083333D01*
X45908571Y-75035714D01*
X46003810Y-74988095D01*
X46241905Y-74988095D01*
X46337143Y-75035714D01*
X46384762Y-75083333D01*
X46432381Y-75178571D01*
X46432381Y-75464286D01*
X46384762Y-75559524D01*
X46337143Y-75607143D01*
X152410000Y-21522143D02*
X152362381Y-21569762D01*
X152219524Y-21617381D01*
X152124286Y-21617381D01*
X151981428Y-21569762D01*
X151886190Y-21474524D01*
X151838571Y-21379286D01*
X151790952Y-21188810D01*
X151790952Y-21045952D01*
X151838571Y-20855476D01*
X151886190Y-20760238D01*
X151981428Y-20665000D01*
X152124286Y-20617381D01*
X152219524Y-20617381D01*
X152362381Y-20665000D01*
X152410000Y-20712619D01*
X153362381Y-21617381D02*
X152790952Y-21617381D01*
X153076666Y-21617381D02*
X153076666Y-20617381D01*
X152981428Y-20760238D01*
X152886190Y-20855476D01*
X152790952Y-20903095D01*
X154219524Y-20950714D02*
X154219524Y-21617381D01*
X153981428Y-20569762D02*
X153743333Y-21284048D01*
X154362381Y-21284048D01*
X124512144Y-44082143D02*
X124464525Y-44129762D01*
X124321668Y-44177381D01*
X124226430Y-44177381D01*
X124083572Y-44129762D01*
X123988334Y-44034524D01*
X123940715Y-43939286D01*
X123893096Y-43748810D01*
X123893096Y-43605952D01*
X123940715Y-43415476D01*
X123988334Y-43320238D01*
X124083572Y-43225000D01*
X124226430Y-43177381D01*
X124321668Y-43177381D01*
X124464525Y-43225000D01*
X124512144Y-43272619D01*
X125464525Y-44177381D02*
X124893096Y-44177381D01*
X125178810Y-44177381D02*
X125178810Y-43177381D01*
X125083572Y-43320238D01*
X124988334Y-43415476D01*
X124893096Y-43463095D01*
X126369287Y-43177381D02*
X125893096Y-43177381D01*
X125845477Y-43653571D01*
X125893096Y-43605952D01*
X125988334Y-43558333D01*
X126226430Y-43558333D01*
X126321668Y-43605952D01*
X126369287Y-43653571D01*
X126416906Y-43748810D01*
X126416906Y-43986905D01*
X126369287Y-44082143D01*
X126321668Y-44129762D01*
X126226430Y-44177381D01*
X125988334Y-44177381D01*
X125893096Y-44129762D01*
X125845477Y-44082143D01*
X117972144Y-49082143D02*
X117924525Y-49129762D01*
X117781668Y-49177381D01*
X117686430Y-49177381D01*
X117543572Y-49129762D01*
X117448334Y-49034524D01*
X117400715Y-48939286D01*
X117353096Y-48748810D01*
X117353096Y-48605952D01*
X117400715Y-48415476D01*
X117448334Y-48320238D01*
X117543572Y-48225000D01*
X117686430Y-48177381D01*
X117781668Y-48177381D01*
X117924525Y-48225000D01*
X117972144Y-48272619D01*
X118924525Y-49177381D02*
X118353096Y-49177381D01*
X118638810Y-49177381D02*
X118638810Y-48177381D01*
X118543572Y-48320238D01*
X118448334Y-48415476D01*
X118353096Y-48463095D01*
X119781668Y-48177381D02*
X119591191Y-48177381D01*
X119495953Y-48225000D01*
X119448334Y-48272619D01*
X119353096Y-48415476D01*
X119305477Y-48605952D01*
X119305477Y-48986905D01*
X119353096Y-49082143D01*
X119400715Y-49129762D01*
X119495953Y-49177381D01*
X119686430Y-49177381D01*
X119781668Y-49129762D01*
X119829287Y-49082143D01*
X119876906Y-48986905D01*
X119876906Y-48748810D01*
X119829287Y-48653571D01*
X119781668Y-48605952D01*
X119686430Y-48558333D01*
X119495953Y-48558333D01*
X119400715Y-48605952D01*
X119353096Y-48653571D01*
X119305477Y-48748810D01*
X143782144Y-24142143D02*
X143734525Y-24189762D01*
X143591668Y-24237381D01*
X143496430Y-24237381D01*
X143353572Y-24189762D01*
X143258334Y-24094524D01*
X143210715Y-23999286D01*
X143163096Y-23808810D01*
X143163096Y-23665952D01*
X143210715Y-23475476D01*
X143258334Y-23380238D01*
X143353572Y-23285000D01*
X143496430Y-23237381D01*
X143591668Y-23237381D01*
X143734525Y-23285000D01*
X143782144Y-23332619D01*
X144734525Y-24237381D02*
X144163096Y-24237381D01*
X144448810Y-24237381D02*
X144448810Y-23237381D01*
X144353572Y-23380238D01*
X144258334Y-23475476D01*
X144163096Y-23523095D01*
X145067858Y-23237381D02*
X145734525Y-23237381D01*
X145305953Y-24237381D01*
X170820000Y-5332143D02*
X170772381Y-5379762D01*
X170629524Y-5427381D01*
X170534286Y-5427381D01*
X170391428Y-5379762D01*
X170296190Y-5284524D01*
X170248571Y-5189286D01*
X170200952Y-4998810D01*
X170200952Y-4855952D01*
X170248571Y-4665476D01*
X170296190Y-4570238D01*
X170391428Y-4475000D01*
X170534286Y-4427381D01*
X170629524Y-4427381D01*
X170772381Y-4475000D01*
X170820000Y-4522619D01*
X171772381Y-5427381D02*
X171200952Y-5427381D01*
X171486666Y-5427381D02*
X171486666Y-4427381D01*
X171391428Y-4570238D01*
X171296190Y-4665476D01*
X171200952Y-4713095D01*
X172343809Y-4855952D02*
X172248571Y-4808333D01*
X172200952Y-4760714D01*
X172153333Y-4665476D01*
X172153333Y-4617857D01*
X172200952Y-4522619D01*
X172248571Y-4475000D01*
X172343809Y-4427381D01*
X172534286Y-4427381D01*
X172629524Y-4475000D01*
X172677143Y-4522619D01*
X172724762Y-4617857D01*
X172724762Y-4665476D01*
X172677143Y-4760714D01*
X172629524Y-4808333D01*
X172534286Y-4855952D01*
X172343809Y-4855952D01*
X172248571Y-4903571D01*
X172200952Y-4951190D01*
X172153333Y-5046429D01*
X172153333Y-5236905D01*
X172200952Y-5332143D01*
X172248571Y-5379762D01*
X172343809Y-5427381D01*
X172534286Y-5427381D01*
X172629524Y-5379762D01*
X172677143Y-5332143D01*
X172724762Y-5236905D01*
X172724762Y-5046429D01*
X172677143Y-4951190D01*
X172629524Y-4903571D01*
X172534286Y-4855952D01*
X160340000Y-14882143D02*
X160292381Y-14929762D01*
X160149524Y-14977381D01*
X160054286Y-14977381D01*
X159911428Y-14929762D01*
X159816190Y-14834524D01*
X159768571Y-14739286D01*
X159720952Y-14548810D01*
X159720952Y-14405952D01*
X159768571Y-14215476D01*
X159816190Y-14120238D01*
X159911428Y-14025000D01*
X160054286Y-13977381D01*
X160149524Y-13977381D01*
X160292381Y-14025000D01*
X160340000Y-14072619D01*
X161292381Y-14977381D02*
X160720952Y-14977381D01*
X161006666Y-14977381D02*
X161006666Y-13977381D01*
X160911428Y-14120238D01*
X160816190Y-14215476D01*
X160720952Y-14263095D01*
X161768571Y-14977381D02*
X161959047Y-14977381D01*
X162054286Y-14929762D01*
X162101905Y-14882143D01*
X162197143Y-14739286D01*
X162244762Y-14548810D01*
X162244762Y-14167857D01*
X162197143Y-14072619D01*
X162149524Y-14025000D01*
X162054286Y-13977381D01*
X161863809Y-13977381D01*
X161768571Y-14025000D01*
X161720952Y-14072619D01*
X161673333Y-14167857D01*
X161673333Y-14405952D01*
X161720952Y-14501190D01*
X161768571Y-14548810D01*
X161863809Y-14596429D01*
X162054286Y-14596429D01*
X162149524Y-14548810D01*
X162197143Y-14501190D01*
X162244762Y-14405952D01*
X132060000Y-41922143D02*
X132012381Y-41969762D01*
X131869524Y-42017381D01*
X131774286Y-42017381D01*
X131631428Y-41969762D01*
X131536190Y-41874524D01*
X131488571Y-41779286D01*
X131440952Y-41588810D01*
X131440952Y-41445952D01*
X131488571Y-41255476D01*
X131536190Y-41160238D01*
X131631428Y-41065000D01*
X131774286Y-41017381D01*
X131869524Y-41017381D01*
X132012381Y-41065000D01*
X132060000Y-41112619D01*
X132440952Y-41112619D02*
X132488571Y-41065000D01*
X132583809Y-41017381D01*
X132821905Y-41017381D01*
X132917143Y-41065000D01*
X132964762Y-41112619D01*
X133012381Y-41207857D01*
X133012381Y-41303095D01*
X132964762Y-41445952D01*
X132393333Y-42017381D01*
X133012381Y-42017381D01*
X133631428Y-41017381D02*
X133726667Y-41017381D01*
X133821905Y-41065000D01*
X133869524Y-41112619D01*
X133917143Y-41207857D01*
X133964762Y-41398333D01*
X133964762Y-41636429D01*
X133917143Y-41826905D01*
X133869524Y-41922143D01*
X133821905Y-41969762D01*
X133726667Y-42017381D01*
X133631428Y-42017381D01*
X133536190Y-41969762D01*
X133488571Y-41922143D01*
X133440952Y-41826905D01*
X133393333Y-41636429D01*
X133393333Y-41398333D01*
X133440952Y-41207857D01*
X133488571Y-41112619D01*
X133536190Y-41065000D01*
X133631428Y-41017381D01*
X121840000Y-53672143D02*
X121792381Y-53719762D01*
X121649524Y-53767381D01*
X121554286Y-53767381D01*
X121411428Y-53719762D01*
X121316190Y-53624524D01*
X121268571Y-53529286D01*
X121220952Y-53338810D01*
X121220952Y-53195952D01*
X121268571Y-53005476D01*
X121316190Y-52910238D01*
X121411428Y-52815000D01*
X121554286Y-52767381D01*
X121649524Y-52767381D01*
X121792381Y-52815000D01*
X121840000Y-52862619D01*
X122220952Y-52862619D02*
X122268571Y-52815000D01*
X122363809Y-52767381D01*
X122601905Y-52767381D01*
X122697143Y-52815000D01*
X122744762Y-52862619D01*
X122792381Y-52957857D01*
X122792381Y-53053095D01*
X122744762Y-53195952D01*
X122173333Y-53767381D01*
X122792381Y-53767381D01*
X123744762Y-53767381D02*
X123173333Y-53767381D01*
X123459047Y-53767381D02*
X123459047Y-52767381D01*
X123363809Y-52910238D01*
X123268571Y-53005476D01*
X123173333Y-53053095D01*
X156660000Y-19472143D02*
X156612381Y-19519762D01*
X156469524Y-19567381D01*
X156374286Y-19567381D01*
X156231428Y-19519762D01*
X156136190Y-19424524D01*
X156088571Y-19329286D01*
X156040952Y-19138810D01*
X156040952Y-18995952D01*
X156088571Y-18805476D01*
X156136190Y-18710238D01*
X156231428Y-18615000D01*
X156374286Y-18567381D01*
X156469524Y-18567381D01*
X156612381Y-18615000D01*
X156660000Y-18662619D01*
X157040952Y-18662619D02*
X157088571Y-18615000D01*
X157183809Y-18567381D01*
X157421905Y-18567381D01*
X157517143Y-18615000D01*
X157564762Y-18662619D01*
X157612381Y-18757857D01*
X157612381Y-18853095D01*
X157564762Y-18995952D01*
X156993333Y-19567381D01*
X157612381Y-19567381D01*
X157993333Y-18662619D02*
X158040952Y-18615000D01*
X158136190Y-18567381D01*
X158374286Y-18567381D01*
X158469524Y-18615000D01*
X158517143Y-18662619D01*
X158564762Y-18757857D01*
X158564762Y-18853095D01*
X158517143Y-18995952D01*
X157945714Y-19567381D01*
X158564762Y-19567381D01*
X125520000Y-53472143D02*
X125472381Y-53519762D01*
X125329524Y-53567381D01*
X125234286Y-53567381D01*
X125091428Y-53519762D01*
X124996190Y-53424524D01*
X124948571Y-53329286D01*
X124900952Y-53138810D01*
X124900952Y-52995952D01*
X124948571Y-52805476D01*
X124996190Y-52710238D01*
X125091428Y-52615000D01*
X125234286Y-52567381D01*
X125329524Y-52567381D01*
X125472381Y-52615000D01*
X125520000Y-52662619D01*
X125900952Y-52662619D02*
X125948571Y-52615000D01*
X126043809Y-52567381D01*
X126281905Y-52567381D01*
X126377143Y-52615000D01*
X126424762Y-52662619D01*
X126472381Y-52757857D01*
X126472381Y-52853095D01*
X126424762Y-52995952D01*
X125853333Y-53567381D01*
X126472381Y-53567381D01*
X126805714Y-52567381D02*
X127424762Y-52567381D01*
X127091428Y-52948333D01*
X127234286Y-52948333D01*
X127329524Y-52995952D01*
X127377143Y-53043571D01*
X127424762Y-53138810D01*
X127424762Y-53376905D01*
X127377143Y-53472143D01*
X127329524Y-53519762D01*
X127234286Y-53567381D01*
X126948571Y-53567381D01*
X126853333Y-53519762D01*
X126805714Y-53472143D01*
X132060000Y-46512143D02*
X132012381Y-46559762D01*
X131869524Y-46607381D01*
X131774286Y-46607381D01*
X131631428Y-46559762D01*
X131536190Y-46464524D01*
X131488571Y-46369286D01*
X131440952Y-46178810D01*
X131440952Y-46035952D01*
X131488571Y-45845476D01*
X131536190Y-45750238D01*
X131631428Y-45655000D01*
X131774286Y-45607381D01*
X131869524Y-45607381D01*
X132012381Y-45655000D01*
X132060000Y-45702619D01*
X132440952Y-45702619D02*
X132488571Y-45655000D01*
X132583809Y-45607381D01*
X132821905Y-45607381D01*
X132917143Y-45655000D01*
X132964762Y-45702619D01*
X133012381Y-45797857D01*
X133012381Y-45893095D01*
X132964762Y-46035952D01*
X132393333Y-46607381D01*
X133012381Y-46607381D01*
X133869524Y-45940714D02*
X133869524Y-46607381D01*
X133631428Y-45559762D02*
X133393333Y-46274048D01*
X134012381Y-46274048D01*
X164020000Y-14472143D02*
X163972381Y-14519762D01*
X163829524Y-14567381D01*
X163734286Y-14567381D01*
X163591428Y-14519762D01*
X163496190Y-14424524D01*
X163448571Y-14329286D01*
X163400952Y-14138810D01*
X163400952Y-13995952D01*
X163448571Y-13805476D01*
X163496190Y-13710238D01*
X163591428Y-13615000D01*
X163734286Y-13567381D01*
X163829524Y-13567381D01*
X163972381Y-13615000D01*
X164020000Y-13662619D01*
X164400952Y-13662619D02*
X164448571Y-13615000D01*
X164543809Y-13567381D01*
X164781905Y-13567381D01*
X164877143Y-13615000D01*
X164924762Y-13662619D01*
X164972381Y-13757857D01*
X164972381Y-13853095D01*
X164924762Y-13995952D01*
X164353333Y-14567381D01*
X164972381Y-14567381D01*
X165877143Y-13567381D02*
X165400952Y-13567381D01*
X165353333Y-14043571D01*
X165400952Y-13995952D01*
X165496190Y-13948333D01*
X165734286Y-13948333D01*
X165829524Y-13995952D01*
X165877143Y-14043571D01*
X165924762Y-14138810D01*
X165924762Y-14376905D01*
X165877143Y-14472143D01*
X165829524Y-14519762D01*
X165734286Y-14567381D01*
X165496190Y-14567381D01*
X165400952Y-14519762D01*
X165353333Y-14472143D01*
X140190000Y-38322143D02*
X140142381Y-38369762D01*
X139999524Y-38417381D01*
X139904286Y-38417381D01*
X139761428Y-38369762D01*
X139666190Y-38274524D01*
X139618571Y-38179286D01*
X139570952Y-37988810D01*
X139570952Y-37845952D01*
X139618571Y-37655476D01*
X139666190Y-37560238D01*
X139761428Y-37465000D01*
X139904286Y-37417381D01*
X139999524Y-37417381D01*
X140142381Y-37465000D01*
X140190000Y-37512619D01*
X140570952Y-37512619D02*
X140618571Y-37465000D01*
X140713809Y-37417381D01*
X140951905Y-37417381D01*
X141047143Y-37465000D01*
X141094762Y-37512619D01*
X141142381Y-37607857D01*
X141142381Y-37703095D01*
X141094762Y-37845952D01*
X140523333Y-38417381D01*
X141142381Y-38417381D01*
X141999524Y-37417381D02*
X141809047Y-37417381D01*
X141713809Y-37465000D01*
X141666190Y-37512619D01*
X141570952Y-37655476D01*
X141523333Y-37845952D01*
X141523333Y-38226905D01*
X141570952Y-38322143D01*
X141618571Y-38369762D01*
X141713809Y-38417381D01*
X141904286Y-38417381D01*
X141999524Y-38369762D01*
X142047143Y-38322143D01*
X142094762Y-38226905D01*
X142094762Y-37988810D01*
X142047143Y-37893571D01*
X141999524Y-37845952D01*
X141904286Y-37798333D01*
X141713809Y-37798333D01*
X141618571Y-37845952D01*
X141570952Y-37893571D01*
X141523333Y-37988810D01*
X136510000Y-38322143D02*
X136462381Y-38369762D01*
X136319524Y-38417381D01*
X136224286Y-38417381D01*
X136081428Y-38369762D01*
X135986190Y-38274524D01*
X135938571Y-38179286D01*
X135890952Y-37988810D01*
X135890952Y-37845952D01*
X135938571Y-37655476D01*
X135986190Y-37560238D01*
X136081428Y-37465000D01*
X136224286Y-37417381D01*
X136319524Y-37417381D01*
X136462381Y-37465000D01*
X136510000Y-37512619D01*
X136890952Y-37512619D02*
X136938571Y-37465000D01*
X137033809Y-37417381D01*
X137271905Y-37417381D01*
X137367143Y-37465000D01*
X137414762Y-37512619D01*
X137462381Y-37607857D01*
X137462381Y-37703095D01*
X137414762Y-37845952D01*
X136843333Y-38417381D01*
X137462381Y-38417381D01*
X137795714Y-37417381D02*
X138462381Y-37417381D01*
X138033809Y-38417381D01*
X167140000Y-5332143D02*
X167092381Y-5379762D01*
X166949524Y-5427381D01*
X166854286Y-5427381D01*
X166711428Y-5379762D01*
X166616190Y-5284524D01*
X166568571Y-5189286D01*
X166520952Y-4998810D01*
X166520952Y-4855952D01*
X166568571Y-4665476D01*
X166616190Y-4570238D01*
X166711428Y-4475000D01*
X166854286Y-4427381D01*
X166949524Y-4427381D01*
X167092381Y-4475000D01*
X167140000Y-4522619D01*
X167520952Y-4522619D02*
X167568571Y-4475000D01*
X167663809Y-4427381D01*
X167901905Y-4427381D01*
X167997143Y-4475000D01*
X168044762Y-4522619D01*
X168092381Y-4617857D01*
X168092381Y-4713095D01*
X168044762Y-4855952D01*
X167473333Y-5427381D01*
X168092381Y-5427381D01*
X168663809Y-4855952D02*
X168568571Y-4808333D01*
X168520952Y-4760714D01*
X168473333Y-4665476D01*
X168473333Y-4617857D01*
X168520952Y-4522619D01*
X168568571Y-4475000D01*
X168663809Y-4427381D01*
X168854286Y-4427381D01*
X168949524Y-4475000D01*
X168997143Y-4522619D01*
X169044762Y-4617857D01*
X169044762Y-4665476D01*
X168997143Y-4760714D01*
X168949524Y-4808333D01*
X168854286Y-4855952D01*
X168663809Y-4855952D01*
X168568571Y-4903571D01*
X168520952Y-4951190D01*
X168473333Y-5046429D01*
X168473333Y-5236905D01*
X168520952Y-5332143D01*
X168568571Y-5379762D01*
X168663809Y-5427381D01*
X168854286Y-5427381D01*
X168949524Y-5379762D01*
X168997143Y-5332143D01*
X169044762Y-5236905D01*
X169044762Y-5046429D01*
X168997143Y-4951190D01*
X168949524Y-4903571D01*
X168854286Y-4855952D01*
X147370000Y-28942143D02*
X147322381Y-28989762D01*
X147179524Y-29037381D01*
X147084286Y-29037381D01*
X146941428Y-28989762D01*
X146846190Y-28894524D01*
X146798571Y-28799286D01*
X146750952Y-28608810D01*
X146750952Y-28465952D01*
X146798571Y-28275476D01*
X146846190Y-28180238D01*
X146941428Y-28085000D01*
X147084286Y-28037381D01*
X147179524Y-28037381D01*
X147322381Y-28085000D01*
X147370000Y-28132619D01*
X147750952Y-28132619D02*
X147798571Y-28085000D01*
X147893809Y-28037381D01*
X148131905Y-28037381D01*
X148227143Y-28085000D01*
X148274762Y-28132619D01*
X148322381Y-28227857D01*
X148322381Y-28323095D01*
X148274762Y-28465952D01*
X147703333Y-29037381D01*
X148322381Y-29037381D01*
X148798571Y-29037381D02*
X148989047Y-29037381D01*
X149084286Y-28989762D01*
X149131905Y-28942143D01*
X149227143Y-28799286D01*
X149274762Y-28608810D01*
X149274762Y-28227857D01*
X149227143Y-28132619D01*
X149179524Y-28085000D01*
X149084286Y-28037381D01*
X148893809Y-28037381D01*
X148798571Y-28085000D01*
X148750952Y-28132619D01*
X148703333Y-28227857D01*
X148703333Y-28465952D01*
X148750952Y-28561190D01*
X148798571Y-28608810D01*
X148893809Y-28656429D01*
X149084286Y-28656429D01*
X149179524Y-28608810D01*
X149227143Y-28561190D01*
X149274762Y-28465952D01*
X152410000Y-26112143D02*
X152362381Y-26159762D01*
X152219524Y-26207381D01*
X152124286Y-26207381D01*
X151981428Y-26159762D01*
X151886190Y-26064524D01*
X151838571Y-25969286D01*
X151790952Y-25778810D01*
X151790952Y-25635952D01*
X151838571Y-25445476D01*
X151886190Y-25350238D01*
X151981428Y-25255000D01*
X152124286Y-25207381D01*
X152219524Y-25207381D01*
X152362381Y-25255000D01*
X152410000Y-25302619D01*
X152743333Y-25207381D02*
X153362381Y-25207381D01*
X153029047Y-25588333D01*
X153171905Y-25588333D01*
X153267143Y-25635952D01*
X153314762Y-25683571D01*
X153362381Y-25778810D01*
X153362381Y-26016905D01*
X153314762Y-26112143D01*
X153267143Y-26159762D01*
X153171905Y-26207381D01*
X152886190Y-26207381D01*
X152790952Y-26159762D01*
X152743333Y-26112143D01*
X153981428Y-25207381D02*
X154076667Y-25207381D01*
X154171905Y-25255000D01*
X154219524Y-25302619D01*
X154267143Y-25397857D01*
X154314762Y-25588333D01*
X154314762Y-25826429D01*
X154267143Y-26016905D01*
X154219524Y-26112143D01*
X154171905Y-26159762D01*
X154076667Y-26207381D01*
X153981428Y-26207381D01*
X153886190Y-26159762D01*
X153838571Y-26112143D01*
X153790952Y-26016905D01*
X153743333Y-25826429D01*
X153743333Y-25588333D01*
X153790952Y-25397857D01*
X153838571Y-25302619D01*
X153886190Y-25255000D01*
X153981428Y-25207381D01*
X135740000Y-42912143D02*
X135692381Y-42959762D01*
X135549524Y-43007381D01*
X135454286Y-43007381D01*
X135311428Y-42959762D01*
X135216190Y-42864524D01*
X135168571Y-42769286D01*
X135120952Y-42578810D01*
X135120952Y-42435952D01*
X135168571Y-42245476D01*
X135216190Y-42150238D01*
X135311428Y-42055000D01*
X135454286Y-42007381D01*
X135549524Y-42007381D01*
X135692381Y-42055000D01*
X135740000Y-42102619D01*
X136073333Y-42007381D02*
X136692381Y-42007381D01*
X136359047Y-42388333D01*
X136501905Y-42388333D01*
X136597143Y-42435952D01*
X136644762Y-42483571D01*
X136692381Y-42578810D01*
X136692381Y-42816905D01*
X136644762Y-42912143D01*
X136597143Y-42959762D01*
X136501905Y-43007381D01*
X136216190Y-43007381D01*
X136120952Y-42959762D01*
X136073333Y-42912143D01*
X137644762Y-43007381D02*
X137073333Y-43007381D01*
X137359047Y-43007381D02*
X137359047Y-42007381D01*
X137263809Y-42150238D01*
X137168571Y-42245476D01*
X137073333Y-42293095D01*
X160340000Y-19472143D02*
X160292381Y-19519762D01*
X160149524Y-19567381D01*
X160054286Y-19567381D01*
X159911428Y-19519762D01*
X159816190Y-19424524D01*
X159768571Y-19329286D01*
X159720952Y-19138810D01*
X159720952Y-18995952D01*
X159768571Y-18805476D01*
X159816190Y-18710238D01*
X159911428Y-18615000D01*
X160054286Y-18567381D01*
X160149524Y-18567381D01*
X160292381Y-18615000D01*
X160340000Y-18662619D01*
X160673333Y-18567381D02*
X161292381Y-18567381D01*
X160959047Y-18948333D01*
X161101905Y-18948333D01*
X161197143Y-18995952D01*
X161244762Y-19043571D01*
X161292381Y-19138810D01*
X161292381Y-19376905D01*
X161244762Y-19472143D01*
X161197143Y-19519762D01*
X161101905Y-19567381D01*
X160816190Y-19567381D01*
X160720952Y-19519762D01*
X160673333Y-19472143D01*
X161673333Y-18662619D02*
X161720952Y-18615000D01*
X161816190Y-18567381D01*
X162054286Y-18567381D01*
X162149524Y-18615000D01*
X162197143Y-18662619D01*
X162244762Y-18757857D01*
X162244762Y-18853095D01*
X162197143Y-18995952D01*
X161625714Y-19567381D01*
X162244762Y-19567381D01*
X156090000Y-24062143D02*
X156042381Y-24109762D01*
X155899524Y-24157381D01*
X155804286Y-24157381D01*
X155661428Y-24109762D01*
X155566190Y-24014524D01*
X155518571Y-23919286D01*
X155470952Y-23728810D01*
X155470952Y-23585952D01*
X155518571Y-23395476D01*
X155566190Y-23300238D01*
X155661428Y-23205000D01*
X155804286Y-23157381D01*
X155899524Y-23157381D01*
X156042381Y-23205000D01*
X156090000Y-23252619D01*
X156423333Y-23157381D02*
X157042381Y-23157381D01*
X156709047Y-23538333D01*
X156851905Y-23538333D01*
X156947143Y-23585952D01*
X156994762Y-23633571D01*
X157042381Y-23728810D01*
X157042381Y-23966905D01*
X156994762Y-24062143D01*
X156947143Y-24109762D01*
X156851905Y-24157381D01*
X156566190Y-24157381D01*
X156470952Y-24109762D01*
X156423333Y-24062143D01*
X157375714Y-23157381D02*
X157994762Y-23157381D01*
X157661428Y-23538333D01*
X157804286Y-23538333D01*
X157899524Y-23585952D01*
X157947143Y-23633571D01*
X157994762Y-23728810D01*
X157994762Y-23966905D01*
X157947143Y-24062143D01*
X157899524Y-24109762D01*
X157804286Y-24157381D01*
X157518571Y-24157381D01*
X157423333Y-24109762D01*
X157375714Y-24062143D01*
X114200000Y-54282143D02*
X114152381Y-54329762D01*
X114009524Y-54377381D01*
X113914286Y-54377381D01*
X113771428Y-54329762D01*
X113676190Y-54234524D01*
X113628571Y-54139286D01*
X113580952Y-53948810D01*
X113580952Y-53805952D01*
X113628571Y-53615476D01*
X113676190Y-53520238D01*
X113771428Y-53425000D01*
X113914286Y-53377381D01*
X114009524Y-53377381D01*
X114152381Y-53425000D01*
X114200000Y-53472619D01*
X114533333Y-53377381D02*
X115152381Y-53377381D01*
X114819047Y-53758333D01*
X114961905Y-53758333D01*
X115057143Y-53805952D01*
X115104762Y-53853571D01*
X115152381Y-53948810D01*
X115152381Y-54186905D01*
X115104762Y-54282143D01*
X115057143Y-54329762D01*
X114961905Y-54377381D01*
X114676190Y-54377381D01*
X114580952Y-54329762D01*
X114533333Y-54282143D01*
X116009524Y-53710714D02*
X116009524Y-54377381D01*
X115771428Y-53329762D02*
X115533333Y-54044048D01*
X116152381Y-54044048D01*
X164020000Y-19062143D02*
X163972381Y-19109762D01*
X163829524Y-19157381D01*
X163734286Y-19157381D01*
X163591428Y-19109762D01*
X163496190Y-19014524D01*
X163448571Y-18919286D01*
X163400952Y-18728810D01*
X163400952Y-18585952D01*
X163448571Y-18395476D01*
X163496190Y-18300238D01*
X163591428Y-18205000D01*
X163734286Y-18157381D01*
X163829524Y-18157381D01*
X163972381Y-18205000D01*
X164020000Y-18252619D01*
X164353333Y-18157381D02*
X164972381Y-18157381D01*
X164639047Y-18538333D01*
X164781905Y-18538333D01*
X164877143Y-18585952D01*
X164924762Y-18633571D01*
X164972381Y-18728810D01*
X164972381Y-18966905D01*
X164924762Y-19062143D01*
X164877143Y-19109762D01*
X164781905Y-19157381D01*
X164496190Y-19157381D01*
X164400952Y-19109762D01*
X164353333Y-19062143D01*
X165877143Y-18157381D02*
X165400952Y-18157381D01*
X165353333Y-18633571D01*
X165400952Y-18585952D01*
X165496190Y-18538333D01*
X165734286Y-18538333D01*
X165829524Y-18585952D01*
X165877143Y-18633571D01*
X165924762Y-18728810D01*
X165924762Y-18966905D01*
X165877143Y-19062143D01*
X165829524Y-19109762D01*
X165734286Y-19157381D01*
X165496190Y-19157381D01*
X165400952Y-19109762D01*
X165353333Y-19062143D01*
X148730000Y-19142143D02*
X148682381Y-19189762D01*
X148539524Y-19237381D01*
X148444286Y-19237381D01*
X148301428Y-19189762D01*
X148206190Y-19094524D01*
X148158571Y-18999286D01*
X148110952Y-18808810D01*
X148110952Y-18665952D01*
X148158571Y-18475476D01*
X148206190Y-18380238D01*
X148301428Y-18285000D01*
X148444286Y-18237381D01*
X148539524Y-18237381D01*
X148682381Y-18285000D01*
X148730000Y-18332619D01*
X149063333Y-18237381D02*
X149682381Y-18237381D01*
X149349047Y-18618333D01*
X149491905Y-18618333D01*
X149587143Y-18665952D01*
X149634762Y-18713571D01*
X149682381Y-18808810D01*
X149682381Y-19046905D01*
X149634762Y-19142143D01*
X149587143Y-19189762D01*
X149491905Y-19237381D01*
X149206190Y-19237381D01*
X149110952Y-19189762D01*
X149063333Y-19142143D01*
X150539524Y-18237381D02*
X150349047Y-18237381D01*
X150253809Y-18285000D01*
X150206190Y-18332619D01*
X150110952Y-18475476D01*
X150063333Y-18665952D01*
X150063333Y-19046905D01*
X150110952Y-19142143D01*
X150158571Y-19189762D01*
X150253809Y-19237381D01*
X150444286Y-19237381D01*
X150539524Y-19189762D01*
X150587143Y-19142143D01*
X150634762Y-19046905D01*
X150634762Y-18808810D01*
X150587143Y-18713571D01*
X150539524Y-18665952D01*
X150444286Y-18618333D01*
X150253809Y-18618333D01*
X150158571Y-18665952D01*
X150110952Y-18713571D01*
X150063333Y-18808810D01*
X117880000Y-53882143D02*
X117832381Y-53929762D01*
X117689524Y-53977381D01*
X117594286Y-53977381D01*
X117451428Y-53929762D01*
X117356190Y-53834524D01*
X117308571Y-53739286D01*
X117260952Y-53548810D01*
X117260952Y-53405952D01*
X117308571Y-53215476D01*
X117356190Y-53120238D01*
X117451428Y-53025000D01*
X117594286Y-52977381D01*
X117689524Y-52977381D01*
X117832381Y-53025000D01*
X117880000Y-53072619D01*
X118213333Y-52977381D02*
X118832381Y-52977381D01*
X118499047Y-53358333D01*
X118641905Y-53358333D01*
X118737143Y-53405952D01*
X118784762Y-53453571D01*
X118832381Y-53548810D01*
X118832381Y-53786905D01*
X118784762Y-53882143D01*
X118737143Y-53929762D01*
X118641905Y-53977381D01*
X118356190Y-53977381D01*
X118260952Y-53929762D01*
X118213333Y-53882143D01*
X119165714Y-52977381D02*
X119832381Y-52977381D01*
X119403809Y-53977381D01*
X136510000Y-33732143D02*
X136462381Y-33779762D01*
X136319524Y-33827381D01*
X136224286Y-33827381D01*
X136081428Y-33779762D01*
X135986190Y-33684524D01*
X135938571Y-33589286D01*
X135890952Y-33398810D01*
X135890952Y-33255952D01*
X135938571Y-33065476D01*
X135986190Y-32970238D01*
X136081428Y-32875000D01*
X136224286Y-32827381D01*
X136319524Y-32827381D01*
X136462381Y-32875000D01*
X136510000Y-32922619D01*
X136843333Y-32827381D02*
X137462381Y-32827381D01*
X137129047Y-33208333D01*
X137271905Y-33208333D01*
X137367143Y-33255952D01*
X137414762Y-33303571D01*
X137462381Y-33398810D01*
X137462381Y-33636905D01*
X137414762Y-33732143D01*
X137367143Y-33779762D01*
X137271905Y-33827381D01*
X136986190Y-33827381D01*
X136890952Y-33779762D01*
X136843333Y-33732143D01*
X138033809Y-33255952D02*
X137938571Y-33208333D01*
X137890952Y-33160714D01*
X137843333Y-33065476D01*
X137843333Y-33017857D01*
X137890952Y-32922619D01*
X137938571Y-32875000D01*
X138033809Y-32827381D01*
X138224286Y-32827381D01*
X138319524Y-32875000D01*
X138367143Y-32922619D01*
X138414762Y-33017857D01*
X138414762Y-33065476D01*
X138367143Y-33160714D01*
X138319524Y-33208333D01*
X138224286Y-33255952D01*
X138033809Y-33255952D01*
X137938571Y-33303571D01*
X137890952Y-33351190D01*
X137843333Y-33446429D01*
X137843333Y-33636905D01*
X137890952Y-33732143D01*
X137938571Y-33779762D01*
X138033809Y-33827381D01*
X138224286Y-33827381D01*
X138319524Y-33779762D01*
X138367143Y-33732143D01*
X138414762Y-33636905D01*
X138414762Y-33446429D01*
X138367143Y-33351190D01*
X138319524Y-33303571D01*
X138224286Y-33255952D01*
X148730000Y-23732143D02*
X148682381Y-23779762D01*
X148539524Y-23827381D01*
X148444286Y-23827381D01*
X148301428Y-23779762D01*
X148206190Y-23684524D01*
X148158571Y-23589286D01*
X148110952Y-23398810D01*
X148110952Y-23255952D01*
X148158571Y-23065476D01*
X148206190Y-22970238D01*
X148301428Y-22875000D01*
X148444286Y-22827381D01*
X148539524Y-22827381D01*
X148682381Y-22875000D01*
X148730000Y-22922619D01*
X149063333Y-22827381D02*
X149682381Y-22827381D01*
X149349047Y-23208333D01*
X149491905Y-23208333D01*
X149587143Y-23255952D01*
X149634762Y-23303571D01*
X149682381Y-23398810D01*
X149682381Y-23636905D01*
X149634762Y-23732143D01*
X149587143Y-23779762D01*
X149491905Y-23827381D01*
X149206190Y-23827381D01*
X149110952Y-23779762D01*
X149063333Y-23732143D01*
X150158571Y-23827381D02*
X150349047Y-23827381D01*
X150444286Y-23779762D01*
X150491905Y-23732143D01*
X150587143Y-23589286D01*
X150634762Y-23398810D01*
X150634762Y-23017857D01*
X150587143Y-22922619D01*
X150539524Y-22875000D01*
X150444286Y-22827381D01*
X150253809Y-22827381D01*
X150158571Y-22875000D01*
X150110952Y-22922619D01*
X150063333Y-23017857D01*
X150063333Y-23255952D01*
X150110952Y-23351190D01*
X150158571Y-23398810D01*
X150253809Y-23446429D01*
X150444286Y-23446429D01*
X150539524Y-23398810D01*
X150587143Y-23351190D01*
X150634762Y-23255952D01*
X143690000Y-28942143D02*
X143642381Y-28989762D01*
X143499524Y-29037381D01*
X143404286Y-29037381D01*
X143261428Y-28989762D01*
X143166190Y-28894524D01*
X143118571Y-28799286D01*
X143070952Y-28608810D01*
X143070952Y-28465952D01*
X143118571Y-28275476D01*
X143166190Y-28180238D01*
X143261428Y-28085000D01*
X143404286Y-28037381D01*
X143499524Y-28037381D01*
X143642381Y-28085000D01*
X143690000Y-28132619D01*
X144547143Y-28370714D02*
X144547143Y-29037381D01*
X144309047Y-27989762D02*
X144070952Y-28704048D01*
X144690000Y-28704048D01*
X145261428Y-28037381D02*
X145356667Y-28037381D01*
X145451905Y-28085000D01*
X145499524Y-28132619D01*
X145547143Y-28227857D01*
X145594762Y-28418333D01*
X145594762Y-28656429D01*
X145547143Y-28846905D01*
X145499524Y-28942143D01*
X145451905Y-28989762D01*
X145356667Y-29037381D01*
X145261428Y-29037381D01*
X145166190Y-28989762D01*
X145118571Y-28942143D01*
X145070952Y-28846905D01*
X145023333Y-28656429D01*
X145023333Y-28418333D01*
X145070952Y-28227857D01*
X145118571Y-28132619D01*
X145166190Y-28085000D01*
X145261428Y-28037381D01*
X128380000Y-43672143D02*
X128332381Y-43719762D01*
X128189524Y-43767381D01*
X128094286Y-43767381D01*
X127951428Y-43719762D01*
X127856190Y-43624524D01*
X127808571Y-43529286D01*
X127760952Y-43338810D01*
X127760952Y-43195952D01*
X127808571Y-43005476D01*
X127856190Y-42910238D01*
X127951428Y-42815000D01*
X128094286Y-42767381D01*
X128189524Y-42767381D01*
X128332381Y-42815000D01*
X128380000Y-42862619D01*
X129237143Y-43100714D02*
X129237143Y-43767381D01*
X128999047Y-42719762D02*
X128760952Y-43434048D01*
X129380000Y-43434048D01*
X130284762Y-43767381D02*
X129713333Y-43767381D01*
X129999047Y-43767381D02*
X129999047Y-42767381D01*
X129903809Y-42910238D01*
X129808571Y-43005476D01*
X129713333Y-43053095D01*
X173050000Y-332143D02*
X173002381Y-379762D01*
X172859524Y-427381D01*
X172764286Y-427381D01*
X172621428Y-379762D01*
X172526190Y-284524D01*
X172478571Y-189286D01*
X172430952Y1190D01*
X172430952Y144048D01*
X172478571Y334524D01*
X172526190Y429762D01*
X172621428Y525000D01*
X172764286Y572619D01*
X172859524Y572619D01*
X173002381Y525000D01*
X173050000Y477381D01*
X173907143Y239286D02*
X173907143Y-427381D01*
X173669047Y620238D02*
X173430952Y-94048D01*
X174050000Y-94048D01*
X174383333Y477381D02*
X174430952Y525000D01*
X174526190Y572619D01*
X174764286Y572619D01*
X174859524Y525000D01*
X174907143Y477381D01*
X174954762Y382143D01*
X174954762Y286905D01*
X174907143Y144048D01*
X174335714Y-427381D01*
X174954762Y-427381D01*
X140190000Y-33732143D02*
X140142381Y-33779762D01*
X139999524Y-33827381D01*
X139904286Y-33827381D01*
X139761428Y-33779762D01*
X139666190Y-33684524D01*
X139618571Y-33589286D01*
X139570952Y-33398810D01*
X139570952Y-33255952D01*
X139618571Y-33065476D01*
X139666190Y-32970238D01*
X139761428Y-32875000D01*
X139904286Y-32827381D01*
X139999524Y-32827381D01*
X140142381Y-32875000D01*
X140190000Y-32922619D01*
X141047143Y-33160714D02*
X141047143Y-33827381D01*
X140809047Y-32779762D02*
X140570952Y-33494048D01*
X141190000Y-33494048D01*
X141475714Y-32827381D02*
X142094762Y-32827381D01*
X141761428Y-33208333D01*
X141904286Y-33208333D01*
X141999524Y-33255952D01*
X142047143Y-33303571D01*
X142094762Y-33398810D01*
X142094762Y-33636905D01*
X142047143Y-33732143D01*
X141999524Y-33779762D01*
X141904286Y-33827381D01*
X141618571Y-33827381D01*
X141523333Y-33779762D01*
X141475714Y-33732143D01*
X163460000Y-9882143D02*
X163412381Y-9929762D01*
X163269524Y-9977381D01*
X163174286Y-9977381D01*
X163031428Y-9929762D01*
X162936190Y-9834524D01*
X162888571Y-9739286D01*
X162840952Y-9548810D01*
X162840952Y-9405952D01*
X162888571Y-9215476D01*
X162936190Y-9120238D01*
X163031428Y-9025000D01*
X163174286Y-8977381D01*
X163269524Y-8977381D01*
X163412381Y-9025000D01*
X163460000Y-9072619D01*
X164317143Y-9310714D02*
X164317143Y-9977381D01*
X164079047Y-8929762D02*
X163840952Y-9644048D01*
X164460000Y-9644048D01*
X165269524Y-9310714D02*
X165269524Y-9977381D01*
X165031428Y-8929762D02*
X164793333Y-9644048D01*
X165412381Y-9644048D01*
X132380000Y-62702143D02*
X132332381Y-62749762D01*
X132189524Y-62797381D01*
X132094286Y-62797381D01*
X131951428Y-62749762D01*
X131856190Y-62654524D01*
X131808571Y-62559286D01*
X131760952Y-62368810D01*
X131760952Y-62225952D01*
X131808571Y-62035476D01*
X131856190Y-61940238D01*
X131951428Y-61845000D01*
X132094286Y-61797381D01*
X132189524Y-61797381D01*
X132332381Y-61845000D01*
X132380000Y-61892619D01*
X133237143Y-62130714D02*
X133237143Y-62797381D01*
X132999047Y-61749762D02*
X132760952Y-62464048D01*
X133380000Y-62464048D01*
X134237143Y-61797381D02*
X133760952Y-61797381D01*
X133713333Y-62273571D01*
X133760952Y-62225952D01*
X133856190Y-62178333D01*
X134094286Y-62178333D01*
X134189524Y-62225952D01*
X134237143Y-62273571D01*
X134284762Y-62368810D01*
X134284762Y-62606905D01*
X134237143Y-62702143D01*
X134189524Y-62749762D01*
X134094286Y-62797381D01*
X133856190Y-62797381D01*
X133760952Y-62749762D01*
X133713333Y-62702143D01*
X128700000Y-62702143D02*
X128652381Y-62749762D01*
X128509524Y-62797381D01*
X128414286Y-62797381D01*
X128271428Y-62749762D01*
X128176190Y-62654524D01*
X128128571Y-62559286D01*
X128080952Y-62368810D01*
X128080952Y-62225952D01*
X128128571Y-62035476D01*
X128176190Y-61940238D01*
X128271428Y-61845000D01*
X128414286Y-61797381D01*
X128509524Y-61797381D01*
X128652381Y-61845000D01*
X128700000Y-61892619D01*
X129557143Y-62130714D02*
X129557143Y-62797381D01*
X129319047Y-61749762D02*
X129080952Y-62464048D01*
X129700000Y-62464048D01*
X130509524Y-61797381D02*
X130319047Y-61797381D01*
X130223809Y-61845000D01*
X130176190Y-61892619D01*
X130080952Y-62035476D01*
X130033333Y-62225952D01*
X130033333Y-62606905D01*
X130080952Y-62702143D01*
X130128571Y-62749762D01*
X130223809Y-62797381D01*
X130414286Y-62797381D01*
X130509524Y-62749762D01*
X130557143Y-62702143D01*
X130604762Y-62606905D01*
X130604762Y-62368810D01*
X130557143Y-62273571D01*
X130509524Y-62225952D01*
X130414286Y-62178333D01*
X130223809Y-62178333D01*
X130128571Y-62225952D01*
X130080952Y-62273571D01*
X130033333Y-62368810D01*
X128050000Y-76892143D02*
X128002381Y-76939762D01*
X127859524Y-76987381D01*
X127764286Y-76987381D01*
X127621428Y-76939762D01*
X127526190Y-76844524D01*
X127478571Y-76749286D01*
X127430952Y-76558810D01*
X127430952Y-76415952D01*
X127478571Y-76225476D01*
X127526190Y-76130238D01*
X127621428Y-76035000D01*
X127764286Y-75987381D01*
X127859524Y-75987381D01*
X128002381Y-76035000D01*
X128050000Y-76082619D01*
X128907143Y-76320714D02*
X128907143Y-76987381D01*
X128669047Y-75939762D02*
X128430952Y-76654048D01*
X129050000Y-76654048D01*
X129335714Y-75987381D02*
X130002381Y-75987381D01*
X129573809Y-76987381D01*
X131730000Y-76472143D02*
X131682381Y-76519762D01*
X131539524Y-76567381D01*
X131444286Y-76567381D01*
X131301428Y-76519762D01*
X131206190Y-76424524D01*
X131158571Y-76329286D01*
X131110952Y-76138810D01*
X131110952Y-75995952D01*
X131158571Y-75805476D01*
X131206190Y-75710238D01*
X131301428Y-75615000D01*
X131444286Y-75567381D01*
X131539524Y-75567381D01*
X131682381Y-75615000D01*
X131730000Y-75662619D01*
X132587143Y-75900714D02*
X132587143Y-76567381D01*
X132349047Y-75519762D02*
X132110952Y-76234048D01*
X132730000Y-76234048D01*
X133253809Y-75995952D02*
X133158571Y-75948333D01*
X133110952Y-75900714D01*
X133063333Y-75805476D01*
X133063333Y-75757857D01*
X133110952Y-75662619D01*
X133158571Y-75615000D01*
X133253809Y-75567381D01*
X133444286Y-75567381D01*
X133539524Y-75615000D01*
X133587143Y-75662619D01*
X133634762Y-75757857D01*
X133634762Y-75805476D01*
X133587143Y-75900714D01*
X133539524Y-75948333D01*
X133444286Y-75995952D01*
X133253809Y-75995952D01*
X133158571Y-76043571D01*
X133110952Y-76091190D01*
X133063333Y-76186429D01*
X133063333Y-76376905D01*
X133110952Y-76472143D01*
X133158571Y-76519762D01*
X133253809Y-76567381D01*
X133444286Y-76567381D01*
X133539524Y-76519762D01*
X133587143Y-76472143D01*
X133634762Y-76376905D01*
X133634762Y-76186429D01*
X133587143Y-76091190D01*
X133539524Y-76043571D01*
X133444286Y-75995952D01*
X111350000Y-96092143D02*
X111302381Y-96139762D01*
X111159524Y-96187381D01*
X111064286Y-96187381D01*
X110921428Y-96139762D01*
X110826190Y-96044524D01*
X110778571Y-95949286D01*
X110730952Y-95758810D01*
X110730952Y-95615952D01*
X110778571Y-95425476D01*
X110826190Y-95330238D01*
X110921428Y-95235000D01*
X111064286Y-95187381D01*
X111159524Y-95187381D01*
X111302381Y-95235000D01*
X111350000Y-95282619D01*
X112207143Y-95520714D02*
X112207143Y-96187381D01*
X111969047Y-95139762D02*
X111730952Y-95854048D01*
X112350000Y-95854048D01*
X112778571Y-96187381D02*
X112969047Y-96187381D01*
X113064286Y-96139762D01*
X113111905Y-96092143D01*
X113207143Y-95949286D01*
X113254762Y-95758810D01*
X113254762Y-95377857D01*
X113207143Y-95282619D01*
X113159524Y-95235000D01*
X113064286Y-95187381D01*
X112873809Y-95187381D01*
X112778571Y-95235000D01*
X112730952Y-95282619D01*
X112683333Y-95377857D01*
X112683333Y-95615952D01*
X112730952Y-95711190D01*
X112778571Y-95758810D01*
X112873809Y-95806429D01*
X113064286Y-95806429D01*
X113159524Y-95758810D01*
X113207143Y-95711190D01*
X113254762Y-95615952D01*
X123040000Y-86482143D02*
X122992381Y-86529762D01*
X122849524Y-86577381D01*
X122754286Y-86577381D01*
X122611428Y-86529762D01*
X122516190Y-86434524D01*
X122468571Y-86339286D01*
X122420952Y-86148810D01*
X122420952Y-86005952D01*
X122468571Y-85815476D01*
X122516190Y-85720238D01*
X122611428Y-85625000D01*
X122754286Y-85577381D01*
X122849524Y-85577381D01*
X122992381Y-85625000D01*
X123040000Y-85672619D01*
X123944762Y-85577381D02*
X123468571Y-85577381D01*
X123420952Y-86053571D01*
X123468571Y-86005952D01*
X123563809Y-85958333D01*
X123801905Y-85958333D01*
X123897143Y-86005952D01*
X123944762Y-86053571D01*
X123992381Y-86148810D01*
X123992381Y-86386905D01*
X123944762Y-86482143D01*
X123897143Y-86529762D01*
X123801905Y-86577381D01*
X123563809Y-86577381D01*
X123468571Y-86529762D01*
X123420952Y-86482143D01*
X124611428Y-85577381D02*
X124706667Y-85577381D01*
X124801905Y-85625000D01*
X124849524Y-85672619D01*
X124897143Y-85767857D01*
X124944762Y-85958333D01*
X124944762Y-86196429D01*
X124897143Y-86386905D01*
X124849524Y-86482143D01*
X124801905Y-86529762D01*
X124706667Y-86577381D01*
X124611428Y-86577381D01*
X124516190Y-86529762D01*
X124468571Y-86482143D01*
X124420952Y-86386905D01*
X124373333Y-86196429D01*
X124373333Y-85958333D01*
X124420952Y-85767857D01*
X124468571Y-85672619D01*
X124516190Y-85625000D01*
X124611428Y-85577381D01*
X128050000Y-81482143D02*
X128002381Y-81529762D01*
X127859524Y-81577381D01*
X127764286Y-81577381D01*
X127621428Y-81529762D01*
X127526190Y-81434524D01*
X127478571Y-81339286D01*
X127430952Y-81148810D01*
X127430952Y-81005952D01*
X127478571Y-80815476D01*
X127526190Y-80720238D01*
X127621428Y-80625000D01*
X127764286Y-80577381D01*
X127859524Y-80577381D01*
X128002381Y-80625000D01*
X128050000Y-80672619D01*
X128954762Y-80577381D02*
X128478571Y-80577381D01*
X128430952Y-81053571D01*
X128478571Y-81005952D01*
X128573809Y-80958333D01*
X128811905Y-80958333D01*
X128907143Y-81005952D01*
X128954762Y-81053571D01*
X129002381Y-81148810D01*
X129002381Y-81386905D01*
X128954762Y-81482143D01*
X128907143Y-81529762D01*
X128811905Y-81577381D01*
X128573809Y-81577381D01*
X128478571Y-81529762D01*
X128430952Y-81482143D01*
X129954762Y-81577381D02*
X129383333Y-81577381D01*
X129669047Y-81577381D02*
X129669047Y-80577381D01*
X129573809Y-80720238D01*
X129478571Y-80815476D01*
X129383333Y-80863095D01*
X124370000Y-81482143D02*
X124322381Y-81529762D01*
X124179524Y-81577381D01*
X124084286Y-81577381D01*
X123941428Y-81529762D01*
X123846190Y-81434524D01*
X123798571Y-81339286D01*
X123750952Y-81148810D01*
X123750952Y-81005952D01*
X123798571Y-80815476D01*
X123846190Y-80720238D01*
X123941428Y-80625000D01*
X124084286Y-80577381D01*
X124179524Y-80577381D01*
X124322381Y-80625000D01*
X124370000Y-80672619D01*
X125274762Y-80577381D02*
X124798571Y-80577381D01*
X124750952Y-81053571D01*
X124798571Y-81005952D01*
X124893809Y-80958333D01*
X125131905Y-80958333D01*
X125227143Y-81005952D01*
X125274762Y-81053571D01*
X125322381Y-81148810D01*
X125322381Y-81386905D01*
X125274762Y-81482143D01*
X125227143Y-81529762D01*
X125131905Y-81577381D01*
X124893809Y-81577381D01*
X124798571Y-81529762D01*
X124750952Y-81482143D01*
X125703333Y-80672619D02*
X125750952Y-80625000D01*
X125846190Y-80577381D01*
X126084286Y-80577381D01*
X126179524Y-80625000D01*
X126227143Y-80672619D01*
X126274762Y-80767857D01*
X126274762Y-80863095D01*
X126227143Y-81005952D01*
X125655714Y-81577381D01*
X126274762Y-81577381D01*
X115680000Y-91082143D02*
X115632381Y-91129762D01*
X115489524Y-91177381D01*
X115394286Y-91177381D01*
X115251428Y-91129762D01*
X115156190Y-91034524D01*
X115108571Y-90939286D01*
X115060952Y-90748810D01*
X115060952Y-90605952D01*
X115108571Y-90415476D01*
X115156190Y-90320238D01*
X115251428Y-90225000D01*
X115394286Y-90177381D01*
X115489524Y-90177381D01*
X115632381Y-90225000D01*
X115680000Y-90272619D01*
X116584762Y-90177381D02*
X116108571Y-90177381D01*
X116060952Y-90653571D01*
X116108571Y-90605952D01*
X116203809Y-90558333D01*
X116441905Y-90558333D01*
X116537143Y-90605952D01*
X116584762Y-90653571D01*
X116632381Y-90748810D01*
X116632381Y-90986905D01*
X116584762Y-91082143D01*
X116537143Y-91129762D01*
X116441905Y-91177381D01*
X116203809Y-91177381D01*
X116108571Y-91129762D01*
X116060952Y-91082143D01*
X116965714Y-90177381D02*
X117584762Y-90177381D01*
X117251428Y-90558333D01*
X117394286Y-90558333D01*
X117489524Y-90605952D01*
X117537143Y-90653571D01*
X117584762Y-90748810D01*
X117584762Y-90986905D01*
X117537143Y-91082143D01*
X117489524Y-91129762D01*
X117394286Y-91177381D01*
X117108571Y-91177381D01*
X117013333Y-91129762D01*
X116965714Y-91082143D01*
X119360000Y-86482143D02*
X119312381Y-86529762D01*
X119169524Y-86577381D01*
X119074286Y-86577381D01*
X118931428Y-86529762D01*
X118836190Y-86434524D01*
X118788571Y-86339286D01*
X118740952Y-86148810D01*
X118740952Y-86005952D01*
X118788571Y-85815476D01*
X118836190Y-85720238D01*
X118931428Y-85625000D01*
X119074286Y-85577381D01*
X119169524Y-85577381D01*
X119312381Y-85625000D01*
X119360000Y-85672619D01*
X120264762Y-85577381D02*
X119788571Y-85577381D01*
X119740952Y-86053571D01*
X119788571Y-86005952D01*
X119883809Y-85958333D01*
X120121905Y-85958333D01*
X120217143Y-86005952D01*
X120264762Y-86053571D01*
X120312381Y-86148810D01*
X120312381Y-86386905D01*
X120264762Y-86482143D01*
X120217143Y-86529762D01*
X120121905Y-86577381D01*
X119883809Y-86577381D01*
X119788571Y-86529762D01*
X119740952Y-86482143D01*
X121169524Y-85910714D02*
X121169524Y-86577381D01*
X120931428Y-85529762D02*
X120693333Y-86244048D01*
X121312381Y-86244048D01*
X107670000Y-96092143D02*
X107622381Y-96139762D01*
X107479524Y-96187381D01*
X107384286Y-96187381D01*
X107241428Y-96139762D01*
X107146190Y-96044524D01*
X107098571Y-95949286D01*
X107050952Y-95758810D01*
X107050952Y-95615952D01*
X107098571Y-95425476D01*
X107146190Y-95330238D01*
X107241428Y-95235000D01*
X107384286Y-95187381D01*
X107479524Y-95187381D01*
X107622381Y-95235000D01*
X107670000Y-95282619D01*
X108574762Y-95187381D02*
X108098571Y-95187381D01*
X108050952Y-95663571D01*
X108098571Y-95615952D01*
X108193809Y-95568333D01*
X108431905Y-95568333D01*
X108527143Y-95615952D01*
X108574762Y-95663571D01*
X108622381Y-95758810D01*
X108622381Y-95996905D01*
X108574762Y-96092143D01*
X108527143Y-96139762D01*
X108431905Y-96187381D01*
X108193809Y-96187381D01*
X108098571Y-96139762D01*
X108050952Y-96092143D01*
X109527143Y-95187381D02*
X109050952Y-95187381D01*
X109003333Y-95663571D01*
X109050952Y-95615952D01*
X109146190Y-95568333D01*
X109384286Y-95568333D01*
X109479524Y-95615952D01*
X109527143Y-95663571D01*
X109574762Y-95758810D01*
X109574762Y-95996905D01*
X109527143Y-96092143D01*
X109479524Y-96139762D01*
X109384286Y-96187381D01*
X109146190Y-96187381D01*
X109050952Y-96139762D01*
X109003333Y-96092143D01*
X131350000Y-71882143D02*
X131302381Y-71929762D01*
X131159524Y-71977381D01*
X131064286Y-71977381D01*
X130921428Y-71929762D01*
X130826190Y-71834524D01*
X130778571Y-71739286D01*
X130730952Y-71548810D01*
X130730952Y-71405952D01*
X130778571Y-71215476D01*
X130826190Y-71120238D01*
X130921428Y-71025000D01*
X131064286Y-70977381D01*
X131159524Y-70977381D01*
X131302381Y-71025000D01*
X131350000Y-71072619D01*
X132254762Y-70977381D02*
X131778571Y-70977381D01*
X131730952Y-71453571D01*
X131778571Y-71405952D01*
X131873809Y-71358333D01*
X132111905Y-71358333D01*
X132207143Y-71405952D01*
X132254762Y-71453571D01*
X132302381Y-71548810D01*
X132302381Y-71786905D01*
X132254762Y-71882143D01*
X132207143Y-71929762D01*
X132111905Y-71977381D01*
X131873809Y-71977381D01*
X131778571Y-71929762D01*
X131730952Y-71882143D01*
X133159524Y-70977381D02*
X132969047Y-70977381D01*
X132873809Y-71025000D01*
X132826190Y-71072619D01*
X132730952Y-71215476D01*
X132683333Y-71405952D01*
X132683333Y-71786905D01*
X132730952Y-71882143D01*
X132778571Y-71929762D01*
X132873809Y-71977381D01*
X133064286Y-71977381D01*
X133159524Y-71929762D01*
X133207143Y-71882143D01*
X133254762Y-71786905D01*
X133254762Y-71548810D01*
X133207143Y-71453571D01*
X133159524Y-71405952D01*
X133064286Y-71358333D01*
X132873809Y-71358333D01*
X132778571Y-71405952D01*
X132730952Y-71453571D01*
X132683333Y-71548810D01*
X115680000Y-86492143D02*
X115632381Y-86539762D01*
X115489524Y-86587381D01*
X115394286Y-86587381D01*
X115251428Y-86539762D01*
X115156190Y-86444524D01*
X115108571Y-86349286D01*
X115060952Y-86158810D01*
X115060952Y-86015952D01*
X115108571Y-85825476D01*
X115156190Y-85730238D01*
X115251428Y-85635000D01*
X115394286Y-85587381D01*
X115489524Y-85587381D01*
X115632381Y-85635000D01*
X115680000Y-85682619D01*
X116584762Y-85587381D02*
X116108571Y-85587381D01*
X116060952Y-86063571D01*
X116108571Y-86015952D01*
X116203809Y-85968333D01*
X116441905Y-85968333D01*
X116537143Y-86015952D01*
X116584762Y-86063571D01*
X116632381Y-86158810D01*
X116632381Y-86396905D01*
X116584762Y-86492143D01*
X116537143Y-86539762D01*
X116441905Y-86587381D01*
X116203809Y-86587381D01*
X116108571Y-86539762D01*
X116060952Y-86492143D01*
X116965714Y-85587381D02*
X117632381Y-85587381D01*
X117203809Y-86587381D01*
X120690000Y-81892143D02*
X120642381Y-81939762D01*
X120499524Y-81987381D01*
X120404286Y-81987381D01*
X120261428Y-81939762D01*
X120166190Y-81844524D01*
X120118571Y-81749286D01*
X120070952Y-81558810D01*
X120070952Y-81415952D01*
X120118571Y-81225476D01*
X120166190Y-81130238D01*
X120261428Y-81035000D01*
X120404286Y-80987381D01*
X120499524Y-80987381D01*
X120642381Y-81035000D01*
X120690000Y-81082619D01*
X121594762Y-80987381D02*
X121118571Y-80987381D01*
X121070952Y-81463571D01*
X121118571Y-81415952D01*
X121213809Y-81368333D01*
X121451905Y-81368333D01*
X121547143Y-81415952D01*
X121594762Y-81463571D01*
X121642381Y-81558810D01*
X121642381Y-81796905D01*
X121594762Y-81892143D01*
X121547143Y-81939762D01*
X121451905Y-81987381D01*
X121213809Y-81987381D01*
X121118571Y-81939762D01*
X121070952Y-81892143D01*
X122213809Y-81415952D02*
X122118571Y-81368333D01*
X122070952Y-81320714D01*
X122023333Y-81225476D01*
X122023333Y-81177857D01*
X122070952Y-81082619D01*
X122118571Y-81035000D01*
X122213809Y-80987381D01*
X122404286Y-80987381D01*
X122499524Y-81035000D01*
X122547143Y-81082619D01*
X122594762Y-81177857D01*
X122594762Y-81225476D01*
X122547143Y-81320714D01*
X122499524Y-81368333D01*
X122404286Y-81415952D01*
X122213809Y-81415952D01*
X122118571Y-81463571D01*
X122070952Y-81511190D01*
X122023333Y-81606429D01*
X122023333Y-81796905D01*
X122070952Y-81892143D01*
X122118571Y-81939762D01*
X122213809Y-81987381D01*
X122404286Y-81987381D01*
X122499524Y-81939762D01*
X122547143Y-81892143D01*
X122594762Y-81796905D01*
X122594762Y-81606429D01*
X122547143Y-81511190D01*
X122499524Y-81463571D01*
X122404286Y-81415952D01*
X128700000Y-67292143D02*
X128652381Y-67339762D01*
X128509524Y-67387381D01*
X128414286Y-67387381D01*
X128271428Y-67339762D01*
X128176190Y-67244524D01*
X128128571Y-67149286D01*
X128080952Y-66958810D01*
X128080952Y-66815952D01*
X128128571Y-66625476D01*
X128176190Y-66530238D01*
X128271428Y-66435000D01*
X128414286Y-66387381D01*
X128509524Y-66387381D01*
X128652381Y-66435000D01*
X128700000Y-66482619D01*
X129604762Y-66387381D02*
X129128571Y-66387381D01*
X129080952Y-66863571D01*
X129128571Y-66815952D01*
X129223809Y-66768333D01*
X129461905Y-66768333D01*
X129557143Y-66815952D01*
X129604762Y-66863571D01*
X129652381Y-66958810D01*
X129652381Y-67196905D01*
X129604762Y-67292143D01*
X129557143Y-67339762D01*
X129461905Y-67387381D01*
X129223809Y-67387381D01*
X129128571Y-67339762D01*
X129080952Y-67292143D01*
X130128571Y-67387381D02*
X130319047Y-67387381D01*
X130414286Y-67339762D01*
X130461905Y-67292143D01*
X130557143Y-67149286D01*
X130604762Y-66958810D01*
X130604762Y-66577857D01*
X130557143Y-66482619D01*
X130509524Y-66435000D01*
X130414286Y-66387381D01*
X130223809Y-66387381D01*
X130128571Y-66435000D01*
X130080952Y-66482619D01*
X130033333Y-66577857D01*
X130033333Y-66815952D01*
X130080952Y-66911190D01*
X130128571Y-66958810D01*
X130223809Y-67006429D01*
X130414286Y-67006429D01*
X130509524Y-66958810D01*
X130557143Y-66911190D01*
X130604762Y-66815952D01*
X124370000Y-76892143D02*
X124322381Y-76939762D01*
X124179524Y-76987381D01*
X124084286Y-76987381D01*
X123941428Y-76939762D01*
X123846190Y-76844524D01*
X123798571Y-76749286D01*
X123750952Y-76558810D01*
X123750952Y-76415952D01*
X123798571Y-76225476D01*
X123846190Y-76130238D01*
X123941428Y-76035000D01*
X124084286Y-75987381D01*
X124179524Y-75987381D01*
X124322381Y-76035000D01*
X124370000Y-76082619D01*
X125227143Y-75987381D02*
X125036666Y-75987381D01*
X124941428Y-76035000D01*
X124893809Y-76082619D01*
X124798571Y-76225476D01*
X124750952Y-76415952D01*
X124750952Y-76796905D01*
X124798571Y-76892143D01*
X124846190Y-76939762D01*
X124941428Y-76987381D01*
X125131905Y-76987381D01*
X125227143Y-76939762D01*
X125274762Y-76892143D01*
X125322381Y-76796905D01*
X125322381Y-76558810D01*
X125274762Y-76463571D01*
X125227143Y-76415952D01*
X125131905Y-76368333D01*
X124941428Y-76368333D01*
X124846190Y-76415952D01*
X124798571Y-76463571D01*
X124750952Y-76558810D01*
X125941428Y-75987381D02*
X126036667Y-75987381D01*
X126131905Y-76035000D01*
X126179524Y-76082619D01*
X126227143Y-76177857D01*
X126274762Y-76368333D01*
X126274762Y-76606429D01*
X126227143Y-76796905D01*
X126179524Y-76892143D01*
X126131905Y-76939762D01*
X126036667Y-76987381D01*
X125941428Y-76987381D01*
X125846190Y-76939762D01*
X125798571Y-76892143D01*
X125750952Y-76796905D01*
X125703333Y-76606429D01*
X125703333Y-76368333D01*
X125750952Y-76177857D01*
X125798571Y-76082619D01*
X125846190Y-76035000D01*
X125941428Y-75987381D01*
X110970000Y-91502143D02*
X110922381Y-91549762D01*
X110779524Y-91597381D01*
X110684286Y-91597381D01*
X110541428Y-91549762D01*
X110446190Y-91454524D01*
X110398571Y-91359286D01*
X110350952Y-91168810D01*
X110350952Y-91025952D01*
X110398571Y-90835476D01*
X110446190Y-90740238D01*
X110541428Y-90645000D01*
X110684286Y-90597381D01*
X110779524Y-90597381D01*
X110922381Y-90645000D01*
X110970000Y-90692619D01*
X111827143Y-90597381D02*
X111636666Y-90597381D01*
X111541428Y-90645000D01*
X111493809Y-90692619D01*
X111398571Y-90835476D01*
X111350952Y-91025952D01*
X111350952Y-91406905D01*
X111398571Y-91502143D01*
X111446190Y-91549762D01*
X111541428Y-91597381D01*
X111731905Y-91597381D01*
X111827143Y-91549762D01*
X111874762Y-91502143D01*
X111922381Y-91406905D01*
X111922381Y-91168810D01*
X111874762Y-91073571D01*
X111827143Y-91025952D01*
X111731905Y-90978333D01*
X111541428Y-90978333D01*
X111446190Y-91025952D01*
X111398571Y-91073571D01*
X111350952Y-91168810D01*
X112874762Y-91597381D02*
X112303333Y-91597381D01*
X112589047Y-91597381D02*
X112589047Y-90597381D01*
X112493809Y-90740238D01*
X112398571Y-90835476D01*
X112303333Y-90883095D01*
X107290000Y-91502143D02*
X107242381Y-91549762D01*
X107099524Y-91597381D01*
X107004286Y-91597381D01*
X106861428Y-91549762D01*
X106766190Y-91454524D01*
X106718571Y-91359286D01*
X106670952Y-91168810D01*
X106670952Y-91025952D01*
X106718571Y-90835476D01*
X106766190Y-90740238D01*
X106861428Y-90645000D01*
X107004286Y-90597381D01*
X107099524Y-90597381D01*
X107242381Y-90645000D01*
X107290000Y-90692619D01*
X108147143Y-90597381D02*
X107956666Y-90597381D01*
X107861428Y-90645000D01*
X107813809Y-90692619D01*
X107718571Y-90835476D01*
X107670952Y-91025952D01*
X107670952Y-91406905D01*
X107718571Y-91502143D01*
X107766190Y-91549762D01*
X107861428Y-91597381D01*
X108051905Y-91597381D01*
X108147143Y-91549762D01*
X108194762Y-91502143D01*
X108242381Y-91406905D01*
X108242381Y-91168810D01*
X108194762Y-91073571D01*
X108147143Y-91025952D01*
X108051905Y-90978333D01*
X107861428Y-90978333D01*
X107766190Y-91025952D01*
X107718571Y-91073571D01*
X107670952Y-91168810D01*
X108623333Y-90692619D02*
X108670952Y-90645000D01*
X108766190Y-90597381D01*
X109004286Y-90597381D01*
X109099524Y-90645000D01*
X109147143Y-90692619D01*
X109194762Y-90787857D01*
X109194762Y-90883095D01*
X109147143Y-91025952D01*
X108575714Y-91597381D01*
X109194762Y-91597381D01*
X120690000Y-77302143D02*
X120642381Y-77349762D01*
X120499524Y-77397381D01*
X120404286Y-77397381D01*
X120261428Y-77349762D01*
X120166190Y-77254524D01*
X120118571Y-77159286D01*
X120070952Y-76968810D01*
X120070952Y-76825952D01*
X120118571Y-76635476D01*
X120166190Y-76540238D01*
X120261428Y-76445000D01*
X120404286Y-76397381D01*
X120499524Y-76397381D01*
X120642381Y-76445000D01*
X120690000Y-76492619D01*
X121547143Y-76397381D02*
X121356666Y-76397381D01*
X121261428Y-76445000D01*
X121213809Y-76492619D01*
X121118571Y-76635476D01*
X121070952Y-76825952D01*
X121070952Y-77206905D01*
X121118571Y-77302143D01*
X121166190Y-77349762D01*
X121261428Y-77397381D01*
X121451905Y-77397381D01*
X121547143Y-77349762D01*
X121594762Y-77302143D01*
X121642381Y-77206905D01*
X121642381Y-76968810D01*
X121594762Y-76873571D01*
X121547143Y-76825952D01*
X121451905Y-76778333D01*
X121261428Y-76778333D01*
X121166190Y-76825952D01*
X121118571Y-76873571D01*
X121070952Y-76968810D01*
X121975714Y-76397381D02*
X122594762Y-76397381D01*
X122261428Y-76778333D01*
X122404286Y-76778333D01*
X122499524Y-76825952D01*
X122547143Y-76873571D01*
X122594762Y-76968810D01*
X122594762Y-77206905D01*
X122547143Y-77302143D01*
X122499524Y-77349762D01*
X122404286Y-77397381D01*
X122118571Y-77397381D01*
X122023333Y-77349762D01*
X121975714Y-77302143D01*
X112000000Y-86902143D02*
X111952381Y-86949762D01*
X111809524Y-86997381D01*
X111714286Y-86997381D01*
X111571428Y-86949762D01*
X111476190Y-86854524D01*
X111428571Y-86759286D01*
X111380952Y-86568810D01*
X111380952Y-86425952D01*
X111428571Y-86235476D01*
X111476190Y-86140238D01*
X111571428Y-86045000D01*
X111714286Y-85997381D01*
X111809524Y-85997381D01*
X111952381Y-86045000D01*
X112000000Y-86092619D01*
X112857143Y-85997381D02*
X112666666Y-85997381D01*
X112571428Y-86045000D01*
X112523809Y-86092619D01*
X112428571Y-86235476D01*
X112380952Y-86425952D01*
X112380952Y-86806905D01*
X112428571Y-86902143D01*
X112476190Y-86949762D01*
X112571428Y-86997381D01*
X112761905Y-86997381D01*
X112857143Y-86949762D01*
X112904762Y-86902143D01*
X112952381Y-86806905D01*
X112952381Y-86568810D01*
X112904762Y-86473571D01*
X112857143Y-86425952D01*
X112761905Y-86378333D01*
X112571428Y-86378333D01*
X112476190Y-86425952D01*
X112428571Y-86473571D01*
X112380952Y-86568810D01*
X113809524Y-86330714D02*
X113809524Y-86997381D01*
X113571428Y-85949762D02*
X113333333Y-86664048D01*
X113952381Y-86664048D01*
X115300000Y-81902143D02*
X115252381Y-81949762D01*
X115109524Y-81997381D01*
X115014286Y-81997381D01*
X114871428Y-81949762D01*
X114776190Y-81854524D01*
X114728571Y-81759286D01*
X114680952Y-81568810D01*
X114680952Y-81425952D01*
X114728571Y-81235476D01*
X114776190Y-81140238D01*
X114871428Y-81045000D01*
X115014286Y-80997381D01*
X115109524Y-80997381D01*
X115252381Y-81045000D01*
X115300000Y-81092619D01*
X116157143Y-80997381D02*
X115966666Y-80997381D01*
X115871428Y-81045000D01*
X115823809Y-81092619D01*
X115728571Y-81235476D01*
X115680952Y-81425952D01*
X115680952Y-81806905D01*
X115728571Y-81902143D01*
X115776190Y-81949762D01*
X115871428Y-81997381D01*
X116061905Y-81997381D01*
X116157143Y-81949762D01*
X116204762Y-81902143D01*
X116252381Y-81806905D01*
X116252381Y-81568810D01*
X116204762Y-81473571D01*
X116157143Y-81425952D01*
X116061905Y-81378333D01*
X115871428Y-81378333D01*
X115776190Y-81425952D01*
X115728571Y-81473571D01*
X115680952Y-81568810D01*
X117157143Y-80997381D02*
X116680952Y-80997381D01*
X116633333Y-81473571D01*
X116680952Y-81425952D01*
X116776190Y-81378333D01*
X117014286Y-81378333D01*
X117109524Y-81425952D01*
X117157143Y-81473571D01*
X117204762Y-81568810D01*
X117204762Y-81806905D01*
X117157143Y-81902143D01*
X117109524Y-81949762D01*
X117014286Y-81997381D01*
X116776190Y-81997381D01*
X116680952Y-81949762D01*
X116633333Y-81902143D01*
X132380000Y-67292143D02*
X132332381Y-67339762D01*
X132189524Y-67387381D01*
X132094286Y-67387381D01*
X131951428Y-67339762D01*
X131856190Y-67244524D01*
X131808571Y-67149286D01*
X131760952Y-66958810D01*
X131760952Y-66815952D01*
X131808571Y-66625476D01*
X131856190Y-66530238D01*
X131951428Y-66435000D01*
X132094286Y-66387381D01*
X132189524Y-66387381D01*
X132332381Y-66435000D01*
X132380000Y-66482619D01*
X133237143Y-66387381D02*
X133046666Y-66387381D01*
X132951428Y-66435000D01*
X132903809Y-66482619D01*
X132808571Y-66625476D01*
X132760952Y-66815952D01*
X132760952Y-67196905D01*
X132808571Y-67292143D01*
X132856190Y-67339762D01*
X132951428Y-67387381D01*
X133141905Y-67387381D01*
X133237143Y-67339762D01*
X133284762Y-67292143D01*
X133332381Y-67196905D01*
X133332381Y-66958810D01*
X133284762Y-66863571D01*
X133237143Y-66815952D01*
X133141905Y-66768333D01*
X132951428Y-66768333D01*
X132856190Y-66815952D01*
X132808571Y-66863571D01*
X132760952Y-66958810D01*
X134189524Y-66387381D02*
X133999047Y-66387381D01*
X133903809Y-66435000D01*
X133856190Y-66482619D01*
X133760952Y-66625476D01*
X133713333Y-66815952D01*
X133713333Y-67196905D01*
X133760952Y-67292143D01*
X133808571Y-67339762D01*
X133903809Y-67387381D01*
X134094286Y-67387381D01*
X134189524Y-67339762D01*
X134237143Y-67292143D01*
X134284762Y-67196905D01*
X134284762Y-66958810D01*
X134237143Y-66863571D01*
X134189524Y-66815952D01*
X134094286Y-66768333D01*
X133903809Y-66768333D01*
X133808571Y-66815952D01*
X133760952Y-66863571D01*
X133713333Y-66958810D01*
X127670000Y-72302143D02*
X127622381Y-72349762D01*
X127479524Y-72397381D01*
X127384286Y-72397381D01*
X127241428Y-72349762D01*
X127146190Y-72254524D01*
X127098571Y-72159286D01*
X127050952Y-71968810D01*
X127050952Y-71825952D01*
X127098571Y-71635476D01*
X127146190Y-71540238D01*
X127241428Y-71445000D01*
X127384286Y-71397381D01*
X127479524Y-71397381D01*
X127622381Y-71445000D01*
X127670000Y-71492619D01*
X128527143Y-71397381D02*
X128336666Y-71397381D01*
X128241428Y-71445000D01*
X128193809Y-71492619D01*
X128098571Y-71635476D01*
X128050952Y-71825952D01*
X128050952Y-72206905D01*
X128098571Y-72302143D01*
X128146190Y-72349762D01*
X128241428Y-72397381D01*
X128431905Y-72397381D01*
X128527143Y-72349762D01*
X128574762Y-72302143D01*
X128622381Y-72206905D01*
X128622381Y-71968810D01*
X128574762Y-71873571D01*
X128527143Y-71825952D01*
X128431905Y-71778333D01*
X128241428Y-71778333D01*
X128146190Y-71825952D01*
X128098571Y-71873571D01*
X128050952Y-71968810D01*
X128955714Y-71397381D02*
X129622381Y-71397381D01*
X129193809Y-72397381D01*
X133990000Y-99502143D02*
X133942381Y-99549762D01*
X133799524Y-99597381D01*
X133704286Y-99597381D01*
X133561428Y-99549762D01*
X133466190Y-99454524D01*
X133418571Y-99359286D01*
X133370952Y-99168810D01*
X133370952Y-99025952D01*
X133418571Y-98835476D01*
X133466190Y-98740238D01*
X133561428Y-98645000D01*
X133704286Y-98597381D01*
X133799524Y-98597381D01*
X133942381Y-98645000D01*
X133990000Y-98692619D01*
X134847143Y-98597381D02*
X134656666Y-98597381D01*
X134561428Y-98645000D01*
X134513809Y-98692619D01*
X134418571Y-98835476D01*
X134370952Y-99025952D01*
X134370952Y-99406905D01*
X134418571Y-99502143D01*
X134466190Y-99549762D01*
X134561428Y-99597381D01*
X134751905Y-99597381D01*
X134847143Y-99549762D01*
X134894762Y-99502143D01*
X134942381Y-99406905D01*
X134942381Y-99168810D01*
X134894762Y-99073571D01*
X134847143Y-99025952D01*
X134751905Y-98978333D01*
X134561428Y-98978333D01*
X134466190Y-99025952D01*
X134418571Y-99073571D01*
X134370952Y-99168810D01*
X135513809Y-99025952D02*
X135418571Y-98978333D01*
X135370952Y-98930714D01*
X135323333Y-98835476D01*
X135323333Y-98787857D01*
X135370952Y-98692619D01*
X135418571Y-98645000D01*
X135513809Y-98597381D01*
X135704286Y-98597381D01*
X135799524Y-98645000D01*
X135847143Y-98692619D01*
X135894762Y-98787857D01*
X135894762Y-98835476D01*
X135847143Y-98930714D01*
X135799524Y-98978333D01*
X135704286Y-99025952D01*
X135513809Y-99025952D01*
X135418571Y-99073571D01*
X135370952Y-99121190D01*
X135323333Y-99216429D01*
X135323333Y-99406905D01*
X135370952Y-99502143D01*
X135418571Y-99549762D01*
X135513809Y-99597381D01*
X135704286Y-99597381D01*
X135799524Y-99549762D01*
X135847143Y-99502143D01*
X135894762Y-99406905D01*
X135894762Y-99216429D01*
X135847143Y-99121190D01*
X135799524Y-99073571D01*
X135704286Y-99025952D01*
X123990000Y-72302143D02*
X123942381Y-72349762D01*
X123799524Y-72397381D01*
X123704286Y-72397381D01*
X123561428Y-72349762D01*
X123466190Y-72254524D01*
X123418571Y-72159286D01*
X123370952Y-71968810D01*
X123370952Y-71825952D01*
X123418571Y-71635476D01*
X123466190Y-71540238D01*
X123561428Y-71445000D01*
X123704286Y-71397381D01*
X123799524Y-71397381D01*
X123942381Y-71445000D01*
X123990000Y-71492619D01*
X124847143Y-71397381D02*
X124656666Y-71397381D01*
X124561428Y-71445000D01*
X124513809Y-71492619D01*
X124418571Y-71635476D01*
X124370952Y-71825952D01*
X124370952Y-72206905D01*
X124418571Y-72302143D01*
X124466190Y-72349762D01*
X124561428Y-72397381D01*
X124751905Y-72397381D01*
X124847143Y-72349762D01*
X124894762Y-72302143D01*
X124942381Y-72206905D01*
X124942381Y-71968810D01*
X124894762Y-71873571D01*
X124847143Y-71825952D01*
X124751905Y-71778333D01*
X124561428Y-71778333D01*
X124466190Y-71825952D01*
X124418571Y-71873571D01*
X124370952Y-71968810D01*
X125418571Y-72397381D02*
X125609047Y-72397381D01*
X125704286Y-72349762D01*
X125751905Y-72302143D01*
X125847143Y-72159286D01*
X125894762Y-71968810D01*
X125894762Y-71587857D01*
X125847143Y-71492619D01*
X125799524Y-71445000D01*
X125704286Y-71397381D01*
X125513809Y-71397381D01*
X125418571Y-71445000D01*
X125370952Y-71492619D01*
X125323333Y-71587857D01*
X125323333Y-71825952D01*
X125370952Y-71921190D01*
X125418571Y-71968810D01*
X125513809Y-72016429D01*
X125704286Y-72016429D01*
X125799524Y-71968810D01*
X125847143Y-71921190D01*
X125894762Y-71825952D01*
X84372381Y-14793333D02*
X85086667Y-14793333D01*
X85229524Y-14840953D01*
X85324762Y-14936191D01*
X85372381Y-15079048D01*
X85372381Y-15174286D01*
X85372381Y-13793333D02*
X85372381Y-14364762D01*
X85372381Y-14079048D02*
X84372381Y-14079048D01*
X84515238Y-14174286D01*
X84610476Y-14269524D01*
X84658095Y-14364762D01*
X57026667Y-84652381D02*
X57026667Y-85366667D01*
X56979047Y-85509524D01*
X56883809Y-85604762D01*
X56740952Y-85652381D01*
X56645714Y-85652381D01*
X57455238Y-84747619D02*
X57502857Y-84700000D01*
X57598095Y-84652381D01*
X57836191Y-84652381D01*
X57931429Y-84700000D01*
X57979048Y-84747619D01*
X58026667Y-84842857D01*
X58026667Y-84938095D01*
X57979048Y-85080952D01*
X57407619Y-85652381D01*
X58026667Y-85652381D01*
X87152381Y-85333333D02*
X87866667Y-85333333D01*
X88009524Y-85380953D01*
X88104762Y-85476191D01*
X88152381Y-85619048D01*
X88152381Y-85714286D01*
X87485714Y-84428571D02*
X88152381Y-84428571D01*
X87104762Y-84666667D02*
X87819048Y-84904762D01*
X87819048Y-84285714D01*
X56022381Y-7218333D02*
X56736667Y-7218333D01*
X56879524Y-7265953D01*
X56974762Y-7361191D01*
X57022381Y-7504048D01*
X57022381Y-7599286D01*
X56022381Y-6265952D02*
X56022381Y-6742143D01*
X56498571Y-6789762D01*
X56450952Y-6742143D01*
X56403333Y-6646905D01*
X56403333Y-6408809D01*
X56450952Y-6313571D01*
X56498571Y-6265952D01*
X56593810Y-6218333D01*
X56831905Y-6218333D01*
X56927143Y-6265952D01*
X56974762Y-6313571D01*
X57022381Y-6408809D01*
X57022381Y-6646905D01*
X56974762Y-6742143D01*
X56927143Y-6789762D01*
X29722381Y-6683333D02*
X30436667Y-6683333D01*
X30579524Y-6730953D01*
X30674762Y-6826191D01*
X30722381Y-6969048D01*
X30722381Y-7064286D01*
X29722381Y-5778571D02*
X29722381Y-5969048D01*
X29770000Y-6064286D01*
X29817619Y-6111905D01*
X29960476Y-6207143D01*
X30150952Y-6254762D01*
X30531905Y-6254762D01*
X30627143Y-6207143D01*
X30674762Y-6159524D01*
X30722381Y-6064286D01*
X30722381Y-5873809D01*
X30674762Y-5778571D01*
X30627143Y-5730952D01*
X30531905Y-5683333D01*
X30293810Y-5683333D01*
X30198571Y-5730952D01*
X30150952Y-5778571D01*
X30103333Y-5873809D01*
X30103333Y-6064286D01*
X30150952Y-6159524D01*
X30198571Y-6207143D01*
X30293810Y-6254762D01*
X4746667Y-22522381D02*
X4746667Y-23236667D01*
X4699047Y-23379524D01*
X4603809Y-23474762D01*
X4460952Y-23522381D01*
X4365714Y-23522381D01*
X5127619Y-22522381D02*
X5794286Y-22522381D01*
X5365714Y-23522381D01*
X94916667Y-22522381D02*
X94916667Y-23236667D01*
X94869047Y-23379524D01*
X94773809Y-23474762D01*
X94630952Y-23522381D01*
X94535714Y-23522381D01*
X95535714Y-22950952D02*
X95440476Y-22903333D01*
X95392857Y-22855714D01*
X95345238Y-22760476D01*
X95345238Y-22712857D01*
X95392857Y-22617619D01*
X95440476Y-22570000D01*
X95535714Y-22522381D01*
X95726191Y-22522381D01*
X95821429Y-22570000D01*
X95869048Y-22617619D01*
X95916667Y-22712857D01*
X95916667Y-22760476D01*
X95869048Y-22855714D01*
X95821429Y-22903333D01*
X95726191Y-22950952D01*
X95535714Y-22950952D01*
X95440476Y-22998571D01*
X95392857Y-23046190D01*
X95345238Y-23141429D01*
X95345238Y-23331905D01*
X95392857Y-23427143D01*
X95440476Y-23474762D01*
X95535714Y-23522381D01*
X95726191Y-23522381D01*
X95821429Y-23474762D01*
X95869048Y-23427143D01*
X95916667Y-23331905D01*
X95916667Y-23141429D01*
X95869048Y-23046190D01*
X95821429Y-22998571D01*
X95726191Y-22950952D01*
X68242381Y-95583333D02*
X68956667Y-95583333D01*
X69099524Y-95630953D01*
X69194762Y-95726191D01*
X69242381Y-95869048D01*
X69242381Y-95964286D01*
X69242381Y-95059524D02*
X69242381Y-94869048D01*
X69194762Y-94773809D01*
X69147143Y-94726190D01*
X69004286Y-94630952D01*
X68813810Y-94583333D01*
X68432857Y-94583333D01*
X68337619Y-94630952D01*
X68290000Y-94678571D01*
X68242381Y-94773809D01*
X68242381Y-94964286D01*
X68290000Y-95059524D01*
X68337619Y-95107143D01*
X68432857Y-95154762D01*
X68670952Y-95154762D01*
X68766190Y-95107143D01*
X68813810Y-95059524D01*
X68861429Y-94964286D01*
X68861429Y-94773809D01*
X68813810Y-94678571D01*
X68766190Y-94630952D01*
X68670952Y-94583333D01*
X30678571Y-53602381D02*
X30869048Y-53602381D01*
X30964286Y-53650000D01*
X31059524Y-53745238D01*
X31107143Y-53935714D01*
X31107143Y-54269048D01*
X31059524Y-54459524D01*
X30964286Y-54554762D01*
X30869048Y-54602381D01*
X30678571Y-54602381D01*
X30583333Y-54554762D01*
X30488095Y-54459524D01*
X30440476Y-54269048D01*
X30440476Y-53935714D01*
X30488095Y-53745238D01*
X30583333Y-53650000D01*
X30678571Y-53602381D01*
X32059524Y-54602381D02*
X31488095Y-54602381D01*
X31773809Y-54602381D02*
X31773809Y-53602381D01*
X31678571Y-53745238D01*
X31583333Y-53840476D01*
X31488095Y-53888095D01*
X153408572Y-12027381D02*
X153075238Y-11551190D01*
X152837143Y-12027381D02*
X152837143Y-11027381D01*
X153218096Y-11027381D01*
X153313334Y-11075000D01*
X153360953Y-11122619D01*
X153408572Y-11217857D01*
X153408572Y-11360714D01*
X153360953Y-11455952D01*
X153313334Y-11503571D01*
X153218096Y-11551190D01*
X152837143Y-11551190D01*
X154360953Y-12027381D02*
X153789524Y-12027381D01*
X154075238Y-12027381D02*
X154075238Y-11027381D01*
X153980000Y-11170238D01*
X153884762Y-11265476D01*
X153789524Y-11313095D01*
X121168572Y-44177381D02*
X120835238Y-43701190D01*
X120597143Y-44177381D02*
X120597143Y-43177381D01*
X120978096Y-43177381D01*
X121073334Y-43225000D01*
X121120953Y-43272619D01*
X121168572Y-43367857D01*
X121168572Y-43510714D01*
X121120953Y-43605952D01*
X121073334Y-43653571D01*
X120978096Y-43701190D01*
X120597143Y-43701190D01*
X121549524Y-43272619D02*
X121597143Y-43225000D01*
X121692381Y-43177381D01*
X121930477Y-43177381D01*
X122025715Y-43225000D01*
X122073334Y-43272619D01*
X122120953Y-43367857D01*
X122120953Y-43463095D01*
X122073334Y-43605952D01*
X121501905Y-44177381D01*
X122120953Y-44177381D01*
X140438572Y-24237381D02*
X140105238Y-23761190D01*
X139867143Y-24237381D02*
X139867143Y-23237381D01*
X140248096Y-23237381D01*
X140343334Y-23285000D01*
X140390953Y-23332619D01*
X140438572Y-23427857D01*
X140438572Y-23570714D01*
X140390953Y-23665952D01*
X140343334Y-23713571D01*
X140248096Y-23761190D01*
X139867143Y-23761190D01*
X140771905Y-23237381D02*
X141390953Y-23237381D01*
X141057619Y-23618333D01*
X141200477Y-23618333D01*
X141295715Y-23665952D01*
X141343334Y-23713571D01*
X141390953Y-23808810D01*
X141390953Y-24046905D01*
X141343334Y-24142143D01*
X141295715Y-24189762D01*
X141200477Y-24237381D01*
X140914762Y-24237381D01*
X140819524Y-24189762D01*
X140771905Y-24142143D01*
X145810477Y-19237381D02*
X145477143Y-18761190D01*
X145239048Y-19237381D02*
X145239048Y-18237381D01*
X145620001Y-18237381D01*
X145715239Y-18285000D01*
X145762858Y-18332619D01*
X145810477Y-18427857D01*
X145810477Y-18570714D01*
X145762858Y-18665952D01*
X145715239Y-18713571D01*
X145620001Y-18761190D01*
X145239048Y-18761190D01*
X146667620Y-18570714D02*
X146667620Y-19237381D01*
X146429524Y-18189762D02*
X146191429Y-18904048D01*
X146810477Y-18904048D01*
X170208335Y-427381D02*
X169875001Y48810D01*
X169636906Y-427381D02*
X169636906Y572619D01*
X170017859Y572619D01*
X170113097Y525000D01*
X170160716Y477381D01*
X170208335Y382143D01*
X170208335Y239286D01*
X170160716Y144048D01*
X170113097Y96429D01*
X170017859Y48810D01*
X169636906Y48810D01*
X171113097Y572619D02*
X170636906Y572619D01*
X170589287Y96429D01*
X170636906Y144048D01*
X170732144Y191667D01*
X170970240Y191667D01*
X171065478Y144048D01*
X171113097Y96429D01*
X171160716Y1190D01*
X171160716Y-236905D01*
X171113097Y-332143D01*
X171065478Y-379762D01*
X170970240Y-427381D01*
X170732144Y-427381D01*
X170636906Y-379762D01*
X170589287Y-332143D01*
X117898335Y-44177381D02*
X117565001Y-43701190D01*
X117326906Y-44177381D02*
X117326906Y-43177381D01*
X117707859Y-43177381D01*
X117803097Y-43225000D01*
X117850716Y-43272619D01*
X117898335Y-43367857D01*
X117898335Y-43510714D01*
X117850716Y-43605952D01*
X117803097Y-43653571D01*
X117707859Y-43701190D01*
X117326906Y-43701190D01*
X118755478Y-43177381D02*
X118565001Y-43177381D01*
X118469763Y-43225000D01*
X118422144Y-43272619D01*
X118326906Y-43415476D01*
X118279287Y-43605952D01*
X118279287Y-43986905D01*
X118326906Y-44082143D01*
X118374525Y-44129762D01*
X118469763Y-44177381D01*
X118660240Y-44177381D01*
X118755478Y-44129762D01*
X118803097Y-44082143D01*
X118850716Y-43986905D01*
X118850716Y-43748810D01*
X118803097Y-43653571D01*
X118755478Y-43605952D01*
X118660240Y-43558333D01*
X118469763Y-43558333D01*
X118374525Y-43605952D01*
X118326906Y-43653571D01*
X118279287Y-43748810D01*
X124850477Y-39177381D02*
X124517143Y-38701190D01*
X124279048Y-39177381D02*
X124279048Y-38177381D01*
X124660001Y-38177381D01*
X124755239Y-38225000D01*
X124802858Y-38272619D01*
X124850477Y-38367857D01*
X124850477Y-38510714D01*
X124802858Y-38605952D01*
X124755239Y-38653571D01*
X124660001Y-38701190D01*
X124279048Y-38701190D01*
X125183810Y-38177381D02*
X125850477Y-38177381D01*
X125421905Y-39177381D01*
X133258572Y-32427381D02*
X132925238Y-31951190D01*
X132687143Y-32427381D02*
X132687143Y-31427381D01*
X133068096Y-31427381D01*
X133163334Y-31475000D01*
X133210953Y-31522619D01*
X133258572Y-31617857D01*
X133258572Y-31760714D01*
X133210953Y-31855952D01*
X133163334Y-31903571D01*
X133068096Y-31951190D01*
X132687143Y-31951190D01*
X133830000Y-31855952D02*
X133734762Y-31808333D01*
X133687143Y-31760714D01*
X133639524Y-31665476D01*
X133639524Y-31617857D01*
X133687143Y-31522619D01*
X133734762Y-31475000D01*
X133830000Y-31427381D01*
X134020477Y-31427381D01*
X134115715Y-31475000D01*
X134163334Y-31522619D01*
X134210953Y-31617857D01*
X134210953Y-31665476D01*
X134163334Y-31760714D01*
X134115715Y-31808333D01*
X134020477Y-31855952D01*
X133830000Y-31855952D01*
X133734762Y-31903571D01*
X133687143Y-31951190D01*
X133639524Y-32046429D01*
X133639524Y-32236905D01*
X133687143Y-32332143D01*
X133734762Y-32379762D01*
X133830000Y-32427381D01*
X134020477Y-32427381D01*
X134115715Y-32379762D01*
X134163334Y-32332143D01*
X134210953Y-32236905D01*
X134210953Y-32046429D01*
X134163334Y-31951190D01*
X134115715Y-31903571D01*
X134020477Y-31855952D01*
X136848572Y-27427381D02*
X136515238Y-26951190D01*
X136277143Y-27427381D02*
X136277143Y-26427381D01*
X136658096Y-26427381D01*
X136753334Y-26475000D01*
X136800953Y-26522619D01*
X136848572Y-26617857D01*
X136848572Y-26760714D01*
X136800953Y-26855952D01*
X136753334Y-26903571D01*
X136658096Y-26951190D01*
X136277143Y-26951190D01*
X137324762Y-27427381D02*
X137515238Y-27427381D01*
X137610477Y-27379762D01*
X137658096Y-27332143D01*
X137753334Y-27189286D01*
X137800953Y-26998810D01*
X137800953Y-26617857D01*
X137753334Y-26522619D01*
X137705715Y-26475000D01*
X137610477Y-26427381D01*
X137420000Y-26427381D01*
X137324762Y-26475000D01*
X137277143Y-26522619D01*
X137229524Y-26617857D01*
X137229524Y-26855952D01*
X137277143Y-26951190D01*
X137324762Y-26998810D01*
X137420000Y-27046429D01*
X137610477Y-27046429D01*
X137705715Y-26998810D01*
X137753334Y-26951190D01*
X137800953Y-26855952D01*
X110562381Y-54377381D02*
X110229047Y-53901190D01*
X109990952Y-54377381D02*
X109990952Y-53377381D01*
X110371905Y-53377381D01*
X110467143Y-53425000D01*
X110514762Y-53472619D01*
X110562381Y-53567857D01*
X110562381Y-53710714D01*
X110514762Y-53805952D01*
X110467143Y-53853571D01*
X110371905Y-53901190D01*
X109990952Y-53901190D01*
X111514762Y-54377381D02*
X110943333Y-54377381D01*
X111229047Y-54377381D02*
X111229047Y-53377381D01*
X111133809Y-53520238D01*
X111038571Y-53615476D01*
X110943333Y-53663095D01*
X112133809Y-53377381D02*
X112229048Y-53377381D01*
X112324286Y-53425000D01*
X112371905Y-53472619D01*
X112419524Y-53567857D01*
X112467143Y-53758333D01*
X112467143Y-53996429D01*
X112419524Y-54186905D01*
X112371905Y-54282143D01*
X112324286Y-54329762D01*
X112229048Y-54377381D01*
X112133809Y-54377381D01*
X112038571Y-54329762D01*
X111990952Y-54282143D01*
X111943333Y-54186905D01*
X111895714Y-53996429D01*
X111895714Y-53758333D01*
X111943333Y-53567857D01*
X111990952Y-53472619D01*
X112038571Y-53425000D01*
X112133809Y-53377381D01*
X132782381Y-27427381D02*
X132449047Y-26951190D01*
X132210952Y-27427381D02*
X132210952Y-26427381D01*
X132591905Y-26427381D01*
X132687143Y-26475000D01*
X132734762Y-26522619D01*
X132782381Y-26617857D01*
X132782381Y-26760714D01*
X132734762Y-26855952D01*
X132687143Y-26903571D01*
X132591905Y-26951190D01*
X132210952Y-26951190D01*
X133734762Y-27427381D02*
X133163333Y-27427381D01*
X133449047Y-27427381D02*
X133449047Y-26427381D01*
X133353809Y-26570238D01*
X133258571Y-26665476D01*
X133163333Y-26713095D01*
X134687143Y-27427381D02*
X134115714Y-27427381D01*
X134401428Y-27427381D02*
X134401428Y-26427381D01*
X134306190Y-26570238D01*
X134210952Y-26665476D01*
X134115714Y-26713095D01*
X170052381Y4572619D02*
X169719047Y5048810D01*
X169480952Y4572619D02*
X169480952Y5572619D01*
X169861905Y5572619D01*
X169957143Y5525000D01*
X170004762Y5477381D01*
X170052381Y5382143D01*
X170052381Y5239286D01*
X170004762Y5144048D01*
X169957143Y5096429D01*
X169861905Y5048810D01*
X169480952Y5048810D01*
X171004762Y4572619D02*
X170433333Y4572619D01*
X170719047Y4572619D02*
X170719047Y5572619D01*
X170623809Y5429762D01*
X170528571Y5334524D01*
X170433333Y5286905D01*
X171385714Y5477381D02*
X171433333Y5525000D01*
X171528571Y5572619D01*
X171766667Y5572619D01*
X171861905Y5525000D01*
X171909524Y5477381D01*
X171957143Y5382143D01*
X171957143Y5286905D01*
X171909524Y5144048D01*
X171338095Y4572619D01*
X171957143Y4572619D01*
X121022381Y-39177381D02*
X120689047Y-38701190D01*
X120450952Y-39177381D02*
X120450952Y-38177381D01*
X120831905Y-38177381D01*
X120927143Y-38225000D01*
X120974762Y-38272619D01*
X121022381Y-38367857D01*
X121022381Y-38510714D01*
X120974762Y-38605952D01*
X120927143Y-38653571D01*
X120831905Y-38701190D01*
X120450952Y-38701190D01*
X121974762Y-39177381D02*
X121403333Y-39177381D01*
X121689047Y-39177381D02*
X121689047Y-38177381D01*
X121593809Y-38320238D01*
X121498571Y-38415476D01*
X121403333Y-38463095D01*
X122308095Y-38177381D02*
X122927143Y-38177381D01*
X122593809Y-38558333D01*
X122736667Y-38558333D01*
X122831905Y-38605952D01*
X122879524Y-38653571D01*
X122927143Y-38748810D01*
X122927143Y-38986905D01*
X122879524Y-39082143D01*
X122831905Y-39129762D01*
X122736667Y-39177381D01*
X122450952Y-39177381D01*
X122355714Y-39129762D01*
X122308095Y-39082143D01*
X141982381Y-19237381D02*
X141649047Y-18761190D01*
X141410952Y-19237381D02*
X141410952Y-18237381D01*
X141791905Y-18237381D01*
X141887143Y-18285000D01*
X141934762Y-18332619D01*
X141982381Y-18427857D01*
X141982381Y-18570714D01*
X141934762Y-18665952D01*
X141887143Y-18713571D01*
X141791905Y-18761190D01*
X141410952Y-18761190D01*
X142934762Y-19237381D02*
X142363333Y-19237381D01*
X142649047Y-19237381D02*
X142649047Y-18237381D01*
X142553809Y-18380238D01*
X142458571Y-18475476D01*
X142363333Y-18523095D01*
X143791905Y-18570714D02*
X143791905Y-19237381D01*
X143553809Y-18189762D02*
X143315714Y-18904048D01*
X143934762Y-18904048D01*
X114152381Y-44377381D02*
X113819047Y-43901190D01*
X113580952Y-44377381D02*
X113580952Y-43377381D01*
X113961905Y-43377381D01*
X114057143Y-43425000D01*
X114104762Y-43472619D01*
X114152381Y-43567857D01*
X114152381Y-43710714D01*
X114104762Y-43805952D01*
X114057143Y-43853571D01*
X113961905Y-43901190D01*
X113580952Y-43901190D01*
X115104762Y-44377381D02*
X114533333Y-44377381D01*
X114819047Y-44377381D02*
X114819047Y-43377381D01*
X114723809Y-43520238D01*
X114628571Y-43615476D01*
X114533333Y-43663095D01*
X116009524Y-43377381D02*
X115533333Y-43377381D01*
X115485714Y-43853571D01*
X115533333Y-43805952D01*
X115628571Y-43758333D01*
X115866667Y-43758333D01*
X115961905Y-43805952D01*
X116009524Y-43853571D01*
X116057143Y-43948810D01*
X116057143Y-44186905D01*
X116009524Y-44282143D01*
X115961905Y-44329762D01*
X115866667Y-44377381D01*
X115628571Y-44377381D01*
X115533333Y-44329762D01*
X115485714Y-44282143D01*
X136372381Y-22427381D02*
X136039047Y-21951190D01*
X135800952Y-22427381D02*
X135800952Y-21427381D01*
X136181905Y-21427381D01*
X136277143Y-21475000D01*
X136324762Y-21522619D01*
X136372381Y-21617857D01*
X136372381Y-21760714D01*
X136324762Y-21855952D01*
X136277143Y-21903571D01*
X136181905Y-21951190D01*
X135800952Y-21951190D01*
X137324762Y-22427381D02*
X136753333Y-22427381D01*
X137039047Y-22427381D02*
X137039047Y-21427381D01*
X136943809Y-21570238D01*
X136848571Y-21665476D01*
X136753333Y-21713095D01*
X138181905Y-21427381D02*
X137991428Y-21427381D01*
X137896190Y-21475000D01*
X137848571Y-21522619D01*
X137753333Y-21665476D01*
X137705714Y-21855952D01*
X137705714Y-22236905D01*
X137753333Y-22332143D01*
X137800952Y-22379762D01*
X137896190Y-22427381D01*
X138086667Y-22427381D01*
X138181905Y-22379762D01*
X138229524Y-22332143D01*
X138277143Y-22236905D01*
X138277143Y-21998810D01*
X138229524Y-21903571D01*
X138181905Y-21855952D01*
X138086667Y-21808333D01*
X137896190Y-21808333D01*
X137800952Y-21855952D01*
X137753333Y-21903571D01*
X137705714Y-21998810D01*
X117432381Y-39177381D02*
X117099047Y-38701190D01*
X116860952Y-39177381D02*
X116860952Y-38177381D01*
X117241905Y-38177381D01*
X117337143Y-38225000D01*
X117384762Y-38272619D01*
X117432381Y-38367857D01*
X117432381Y-38510714D01*
X117384762Y-38605952D01*
X117337143Y-38653571D01*
X117241905Y-38701190D01*
X116860952Y-38701190D01*
X118384762Y-39177381D02*
X117813333Y-39177381D01*
X118099047Y-39177381D02*
X118099047Y-38177381D01*
X118003809Y-38320238D01*
X117908571Y-38415476D01*
X117813333Y-38463095D01*
X118718095Y-38177381D02*
X119384762Y-38177381D01*
X118956190Y-39177381D01*
X132782381Y-22427381D02*
X132449047Y-21951190D01*
X132210952Y-22427381D02*
X132210952Y-21427381D01*
X132591905Y-21427381D01*
X132687143Y-21475000D01*
X132734762Y-21522619D01*
X132782381Y-21617857D01*
X132782381Y-21760714D01*
X132734762Y-21855952D01*
X132687143Y-21903571D01*
X132591905Y-21951190D01*
X132210952Y-21951190D01*
X133734762Y-22427381D02*
X133163333Y-22427381D01*
X133449047Y-22427381D02*
X133449047Y-21427381D01*
X133353809Y-21570238D01*
X133258571Y-21665476D01*
X133163333Y-21713095D01*
X134306190Y-21855952D02*
X134210952Y-21808333D01*
X134163333Y-21760714D01*
X134115714Y-21665476D01*
X134115714Y-21617857D01*
X134163333Y-21522619D01*
X134210952Y-21475000D01*
X134306190Y-21427381D01*
X134496667Y-21427381D01*
X134591905Y-21475000D01*
X134639524Y-21522619D01*
X134687143Y-21617857D01*
X134687143Y-21665476D01*
X134639524Y-21760714D01*
X134591905Y-21808333D01*
X134496667Y-21855952D01*
X134306190Y-21855952D01*
X134210952Y-21903571D01*
X134163333Y-21951190D01*
X134115714Y-22046429D01*
X134115714Y-22236905D01*
X134163333Y-22332143D01*
X134210952Y-22379762D01*
X134306190Y-22427381D01*
X134496667Y-22427381D01*
X134591905Y-22379762D01*
X134639524Y-22332143D01*
X134687143Y-22236905D01*
X134687143Y-22046429D01*
X134639524Y-21951190D01*
X134591905Y-21903571D01*
X134496667Y-21855952D01*
X110562381Y-44377381D02*
X110229047Y-43901190D01*
X109990952Y-44377381D02*
X109990952Y-43377381D01*
X110371905Y-43377381D01*
X110467143Y-43425000D01*
X110514762Y-43472619D01*
X110562381Y-43567857D01*
X110562381Y-43710714D01*
X110514762Y-43805952D01*
X110467143Y-43853571D01*
X110371905Y-43901190D01*
X109990952Y-43901190D01*
X111514762Y-44377381D02*
X110943333Y-44377381D01*
X111229047Y-44377381D02*
X111229047Y-43377381D01*
X111133809Y-43520238D01*
X111038571Y-43615476D01*
X110943333Y-43663095D01*
X111990952Y-44377381D02*
X112181428Y-44377381D01*
X112276667Y-44329762D01*
X112324286Y-44282143D01*
X112419524Y-44139286D01*
X112467143Y-43948810D01*
X112467143Y-43567857D01*
X112419524Y-43472619D01*
X112371905Y-43425000D01*
X112276667Y-43377381D01*
X112086190Y-43377381D01*
X111990952Y-43425000D01*
X111943333Y-43472619D01*
X111895714Y-43567857D01*
X111895714Y-43805952D01*
X111943333Y-43901190D01*
X111990952Y-43948810D01*
X112086190Y-43996429D01*
X112276667Y-43996429D01*
X112371905Y-43948810D01*
X112419524Y-43901190D01*
X112467143Y-43805952D01*
X115932381Y-61397381D02*
X115599047Y-60921190D01*
X115360952Y-61397381D02*
X115360952Y-60397381D01*
X115741905Y-60397381D01*
X115837143Y-60445000D01*
X115884762Y-60492619D01*
X115932381Y-60587857D01*
X115932381Y-60730714D01*
X115884762Y-60825952D01*
X115837143Y-60873571D01*
X115741905Y-60921190D01*
X115360952Y-60921190D01*
X116313333Y-60492619D02*
X116360952Y-60445000D01*
X116456190Y-60397381D01*
X116694286Y-60397381D01*
X116789524Y-60445000D01*
X116837143Y-60492619D01*
X116884762Y-60587857D01*
X116884762Y-60683095D01*
X116837143Y-60825952D01*
X116265714Y-61397381D01*
X116884762Y-61397381D01*
X117503809Y-60397381D02*
X117599048Y-60397381D01*
X117694286Y-60445000D01*
X117741905Y-60492619D01*
X117789524Y-60587857D01*
X117837143Y-60778333D01*
X117837143Y-61016429D01*
X117789524Y-61206905D01*
X117741905Y-61302143D01*
X117694286Y-61349762D01*
X117599048Y-61397381D01*
X117503809Y-61397381D01*
X117408571Y-61349762D01*
X117360952Y-61302143D01*
X117313333Y-61206905D01*
X117265714Y-61016429D01*
X117265714Y-60778333D01*
X117313333Y-60587857D01*
X117360952Y-60492619D01*
X117408571Y-60445000D01*
X117503809Y-60397381D01*
X112342381Y-61397381D02*
X112009047Y-60921190D01*
X111770952Y-61397381D02*
X111770952Y-60397381D01*
X112151905Y-60397381D01*
X112247143Y-60445000D01*
X112294762Y-60492619D01*
X112342381Y-60587857D01*
X112342381Y-60730714D01*
X112294762Y-60825952D01*
X112247143Y-60873571D01*
X112151905Y-60921190D01*
X111770952Y-60921190D01*
X112723333Y-60492619D02*
X112770952Y-60445000D01*
X112866190Y-60397381D01*
X113104286Y-60397381D01*
X113199524Y-60445000D01*
X113247143Y-60492619D01*
X113294762Y-60587857D01*
X113294762Y-60683095D01*
X113247143Y-60825952D01*
X112675714Y-61397381D01*
X113294762Y-61397381D01*
X114247143Y-61397381D02*
X113675714Y-61397381D01*
X113961428Y-61397381D02*
X113961428Y-60397381D01*
X113866190Y-60540238D01*
X113770952Y-60635476D01*
X113675714Y-60683095D01*
X108752381Y-61397381D02*
X108419047Y-60921190D01*
X108180952Y-61397381D02*
X108180952Y-60397381D01*
X108561905Y-60397381D01*
X108657143Y-60445000D01*
X108704762Y-60492619D01*
X108752381Y-60587857D01*
X108752381Y-60730714D01*
X108704762Y-60825952D01*
X108657143Y-60873571D01*
X108561905Y-60921190D01*
X108180952Y-60921190D01*
X109133333Y-60492619D02*
X109180952Y-60445000D01*
X109276190Y-60397381D01*
X109514286Y-60397381D01*
X109609524Y-60445000D01*
X109657143Y-60492619D01*
X109704762Y-60587857D01*
X109704762Y-60683095D01*
X109657143Y-60825952D01*
X109085714Y-61397381D01*
X109704762Y-61397381D01*
X110085714Y-60492619D02*
X110133333Y-60445000D01*
X110228571Y-60397381D01*
X110466667Y-60397381D01*
X110561905Y-60445000D01*
X110609524Y-60492619D01*
X110657143Y-60587857D01*
X110657143Y-60683095D01*
X110609524Y-60825952D01*
X110038095Y-61397381D01*
X110657143Y-61397381D01*
X159822381Y-9977381D02*
X159489047Y-9501190D01*
X159250952Y-9977381D02*
X159250952Y-8977381D01*
X159631905Y-8977381D01*
X159727143Y-9025000D01*
X159774762Y-9072619D01*
X159822381Y-9167857D01*
X159822381Y-9310714D01*
X159774762Y-9405952D01*
X159727143Y-9453571D01*
X159631905Y-9501190D01*
X159250952Y-9501190D01*
X160203333Y-9072619D02*
X160250952Y-9025000D01*
X160346190Y-8977381D01*
X160584286Y-8977381D01*
X160679524Y-9025000D01*
X160727143Y-9072619D01*
X160774762Y-9167857D01*
X160774762Y-9263095D01*
X160727143Y-9405952D01*
X160155714Y-9977381D01*
X160774762Y-9977381D01*
X161108095Y-8977381D02*
X161727143Y-8977381D01*
X161393809Y-9358333D01*
X161536667Y-9358333D01*
X161631905Y-9405952D01*
X161679524Y-9453571D01*
X161727143Y-9548810D01*
X161727143Y-9786905D01*
X161679524Y-9882143D01*
X161631905Y-9929762D01*
X161536667Y-9977381D01*
X161250952Y-9977381D01*
X161155714Y-9929762D01*
X161108095Y-9882143D01*
X110562381Y-49377381D02*
X110229047Y-48901190D01*
X109990952Y-49377381D02*
X109990952Y-48377381D01*
X110371905Y-48377381D01*
X110467143Y-48425000D01*
X110514762Y-48472619D01*
X110562381Y-48567857D01*
X110562381Y-48710714D01*
X110514762Y-48805952D01*
X110467143Y-48853571D01*
X110371905Y-48901190D01*
X109990952Y-48901190D01*
X110943333Y-48472619D02*
X110990952Y-48425000D01*
X111086190Y-48377381D01*
X111324286Y-48377381D01*
X111419524Y-48425000D01*
X111467143Y-48472619D01*
X111514762Y-48567857D01*
X111514762Y-48663095D01*
X111467143Y-48805952D01*
X110895714Y-49377381D01*
X111514762Y-49377381D01*
X112371905Y-48710714D02*
X112371905Y-49377381D01*
X112133809Y-48329762D02*
X111895714Y-49044048D01*
X112514762Y-49044048D01*
X152932381Y-7027381D02*
X152599047Y-6551190D01*
X152360952Y-7027381D02*
X152360952Y-6027381D01*
X152741905Y-6027381D01*
X152837143Y-6075000D01*
X152884762Y-6122619D01*
X152932381Y-6217857D01*
X152932381Y-6360714D01*
X152884762Y-6455952D01*
X152837143Y-6503571D01*
X152741905Y-6551190D01*
X152360952Y-6551190D01*
X153313333Y-6122619D02*
X153360952Y-6075000D01*
X153456190Y-6027381D01*
X153694286Y-6027381D01*
X153789524Y-6075000D01*
X153837143Y-6122619D01*
X153884762Y-6217857D01*
X153884762Y-6313095D01*
X153837143Y-6455952D01*
X153265714Y-7027381D01*
X153884762Y-7027381D01*
X154789524Y-6027381D02*
X154313333Y-6027381D01*
X154265714Y-6503571D01*
X154313333Y-6455952D01*
X154408571Y-6408333D01*
X154646667Y-6408333D01*
X154741905Y-6455952D01*
X154789524Y-6503571D01*
X154837143Y-6598810D01*
X154837143Y-6836905D01*
X154789524Y-6932143D01*
X154741905Y-6979762D01*
X154646667Y-7027381D01*
X154408571Y-7027381D01*
X154313333Y-6979762D01*
X154265714Y-6932143D01*
X163132381Y-4977381D02*
X162799047Y-4501190D01*
X162560952Y-4977381D02*
X162560952Y-3977381D01*
X162941905Y-3977381D01*
X163037143Y-4025000D01*
X163084762Y-4072619D01*
X163132381Y-4167857D01*
X163132381Y-4310714D01*
X163084762Y-4405952D01*
X163037143Y-4453571D01*
X162941905Y-4501190D01*
X162560952Y-4501190D01*
X163513333Y-4072619D02*
X163560952Y-4025000D01*
X163656190Y-3977381D01*
X163894286Y-3977381D01*
X163989524Y-4025000D01*
X164037143Y-4072619D01*
X164084762Y-4167857D01*
X164084762Y-4263095D01*
X164037143Y-4405952D01*
X163465714Y-4977381D01*
X164084762Y-4977381D01*
X164941905Y-3977381D02*
X164751428Y-3977381D01*
X164656190Y-4025000D01*
X164608571Y-4072619D01*
X164513333Y-4215476D01*
X164465714Y-4405952D01*
X164465714Y-4786905D01*
X164513333Y-4882143D01*
X164560952Y-4929762D01*
X164656190Y-4977381D01*
X164846667Y-4977381D01*
X164941905Y-4929762D01*
X164989524Y-4882143D01*
X165037143Y-4786905D01*
X165037143Y-4548810D01*
X164989524Y-4453571D01*
X164941905Y-4405952D01*
X164846667Y-4358333D01*
X164656190Y-4358333D01*
X164560952Y-4405952D01*
X164513333Y-4453571D01*
X164465714Y-4548810D01*
X114152381Y-49377381D02*
X113819047Y-48901190D01*
X113580952Y-49377381D02*
X113580952Y-48377381D01*
X113961905Y-48377381D01*
X114057143Y-48425000D01*
X114104762Y-48472619D01*
X114152381Y-48567857D01*
X114152381Y-48710714D01*
X114104762Y-48805952D01*
X114057143Y-48853571D01*
X113961905Y-48901190D01*
X113580952Y-48901190D01*
X114533333Y-48472619D02*
X114580952Y-48425000D01*
X114676190Y-48377381D01*
X114914286Y-48377381D01*
X115009524Y-48425000D01*
X115057143Y-48472619D01*
X115104762Y-48567857D01*
X115104762Y-48663095D01*
X115057143Y-48805952D01*
X114485714Y-49377381D01*
X115104762Y-49377381D01*
X115438095Y-48377381D02*
X116104762Y-48377381D01*
X115676190Y-49377381D01*
X156379524Y-7027381D02*
X156046190Y-6551190D01*
X155808095Y-7027381D02*
X155808095Y-6027381D01*
X156189048Y-6027381D01*
X156284286Y-6075000D01*
X156331905Y-6122619D01*
X156379524Y-6217857D01*
X156379524Y-6360714D01*
X156331905Y-6455952D01*
X156284286Y-6503571D01*
X156189048Y-6551190D01*
X155808095Y-6551190D01*
X156760476Y-6122619D02*
X156808095Y-6075000D01*
X156903333Y-6027381D01*
X157141429Y-6027381D01*
X157236667Y-6075000D01*
X157284286Y-6122619D01*
X157331905Y-6217857D01*
X157331905Y-6313095D01*
X157284286Y-6455952D01*
X156712857Y-7027381D01*
X157331905Y-7027381D01*
X157903333Y-6455952D02*
X157808095Y-6408333D01*
X157760476Y-6360714D01*
X157712857Y-6265476D01*
X157712857Y-6217857D01*
X157760476Y-6122619D01*
X157808095Y-6075000D01*
X157903333Y-6027381D01*
X158093810Y-6027381D01*
X158189048Y-6075000D01*
X158236667Y-6122619D01*
X158284286Y-6217857D01*
X158284286Y-6265476D01*
X158236667Y-6360714D01*
X158189048Y-6408333D01*
X158093810Y-6455952D01*
X157903333Y-6455952D01*
X157808095Y-6503571D01*
X157760476Y-6551190D01*
X157712857Y-6646429D01*
X157712857Y-6836905D01*
X157760476Y-6932143D01*
X157808095Y-6979762D01*
X157903333Y-7027381D01*
X158093810Y-7027381D01*
X158189048Y-6979762D01*
X158236667Y-6932143D01*
X158284286Y-6836905D01*
X158284286Y-6646429D01*
X158236667Y-6551190D01*
X158189048Y-6503571D01*
X158093810Y-6455952D01*
X173499524Y4572619D02*
X173166190Y5048810D01*
X172928095Y4572619D02*
X172928095Y5572619D01*
X173309048Y5572619D01*
X173404286Y5525000D01*
X173451905Y5477381D01*
X173499524Y5382143D01*
X173499524Y5239286D01*
X173451905Y5144048D01*
X173404286Y5096429D01*
X173309048Y5048810D01*
X172928095Y5048810D01*
X173880476Y5477381D02*
X173928095Y5525000D01*
X174023333Y5572619D01*
X174261429Y5572619D01*
X174356667Y5525000D01*
X174404286Y5477381D01*
X174451905Y5382143D01*
X174451905Y5286905D01*
X174404286Y5144048D01*
X173832857Y4572619D01*
X174451905Y4572619D01*
X174928095Y4572619D02*
X175118571Y4572619D01*
X175213810Y4620238D01*
X175261429Y4667857D01*
X175356667Y4810714D01*
X175404286Y5001190D01*
X175404286Y5382143D01*
X175356667Y5477381D01*
X175309048Y5525000D01*
X175213810Y5572619D01*
X175023333Y5572619D01*
X174928095Y5525000D01*
X174880476Y5477381D01*
X174832857Y5382143D01*
X174832857Y5144048D01*
X174880476Y5048810D01*
X174928095Y5001190D01*
X175023333Y4953571D01*
X175213810Y4953571D01*
X175309048Y5001190D01*
X175356667Y5048810D01*
X175404286Y5144048D01*
X120499524Y-72397381D02*
X120166190Y-71921190D01*
X119928095Y-72397381D02*
X119928095Y-71397381D01*
X120309048Y-71397381D01*
X120404286Y-71445000D01*
X120451905Y-71492619D01*
X120499524Y-71587857D01*
X120499524Y-71730714D01*
X120451905Y-71825952D01*
X120404286Y-71873571D01*
X120309048Y-71921190D01*
X119928095Y-71921190D01*
X120832857Y-71397381D02*
X121451905Y-71397381D01*
X121118571Y-71778333D01*
X121261429Y-71778333D01*
X121356667Y-71825952D01*
X121404286Y-71873571D01*
X121451905Y-71968810D01*
X121451905Y-72206905D01*
X121404286Y-72302143D01*
X121356667Y-72349762D01*
X121261429Y-72397381D01*
X120975714Y-72397381D01*
X120880476Y-72349762D01*
X120832857Y-72302143D01*
X122070952Y-71397381D02*
X122166191Y-71397381D01*
X122261429Y-71445000D01*
X122309048Y-71492619D01*
X122356667Y-71587857D01*
X122404286Y-71778333D01*
X122404286Y-72016429D01*
X122356667Y-72206905D01*
X122309048Y-72302143D01*
X122261429Y-72349762D01*
X122166191Y-72397381D01*
X122070952Y-72397381D01*
X121975714Y-72349762D01*
X121928095Y-72302143D01*
X121880476Y-72206905D01*
X121832857Y-72016429D01*
X121832857Y-71778333D01*
X121880476Y-71587857D01*
X121928095Y-71492619D01*
X121975714Y-71445000D01*
X122070952Y-71397381D01*
X103799524Y-91597381D02*
X103466190Y-91121190D01*
X103228095Y-91597381D02*
X103228095Y-90597381D01*
X103609048Y-90597381D01*
X103704286Y-90645000D01*
X103751905Y-90692619D01*
X103799524Y-90787857D01*
X103799524Y-90930714D01*
X103751905Y-91025952D01*
X103704286Y-91073571D01*
X103609048Y-91121190D01*
X103228095Y-91121190D01*
X104132857Y-90597381D02*
X104751905Y-90597381D01*
X104418571Y-90978333D01*
X104561429Y-90978333D01*
X104656667Y-91025952D01*
X104704286Y-91073571D01*
X104751905Y-91168810D01*
X104751905Y-91406905D01*
X104704286Y-91502143D01*
X104656667Y-91549762D01*
X104561429Y-91597381D01*
X104275714Y-91597381D01*
X104180476Y-91549762D01*
X104132857Y-91502143D01*
X105704286Y-91597381D02*
X105132857Y-91597381D01*
X105418571Y-91597381D02*
X105418571Y-90597381D01*
X105323333Y-90740238D01*
X105228095Y-90835476D01*
X105132857Y-90883095D01*
X111809524Y-81997381D02*
X111476190Y-81521190D01*
X111238095Y-81997381D02*
X111238095Y-80997381D01*
X111619048Y-80997381D01*
X111714286Y-81045000D01*
X111761905Y-81092619D01*
X111809524Y-81187857D01*
X111809524Y-81330714D01*
X111761905Y-81425952D01*
X111714286Y-81473571D01*
X111619048Y-81521190D01*
X111238095Y-81521190D01*
X112142857Y-80997381D02*
X112761905Y-80997381D01*
X112428571Y-81378333D01*
X112571429Y-81378333D01*
X112666667Y-81425952D01*
X112714286Y-81473571D01*
X112761905Y-81568810D01*
X112761905Y-81806905D01*
X112714286Y-81902143D01*
X112666667Y-81949762D01*
X112571429Y-81997381D01*
X112285714Y-81997381D01*
X112190476Y-81949762D01*
X112142857Y-81902143D01*
X113142857Y-81092619D02*
X113190476Y-81045000D01*
X113285714Y-80997381D01*
X113523810Y-80997381D01*
X113619048Y-81045000D01*
X113666667Y-81092619D01*
X113714286Y-81187857D01*
X113714286Y-81283095D01*
X113666667Y-81425952D01*
X113095238Y-81997381D01*
X113714286Y-81997381D01*
X80238095Y-18352381D02*
X80238095Y-19161905D01*
X80285714Y-19257143D01*
X80333333Y-19304762D01*
X80428571Y-19352381D01*
X80619048Y-19352381D01*
X80714286Y-19304762D01*
X80761905Y-19257143D01*
X80809524Y-19161905D01*
X80809524Y-18352381D01*
X81809524Y-19352381D02*
X81238095Y-19352381D01*
X81523809Y-19352381D02*
X81523809Y-18352381D01*
X81428571Y-18495238D01*
X81333333Y-18590476D01*
X81238095Y-18638095D01*
X46977381Y-69761905D02*
X47786905Y-69761905D01*
X47882143Y-69714286D01*
X47929762Y-69666667D01*
X47977381Y-69571429D01*
X47977381Y-69380952D01*
X47929762Y-69285714D01*
X47882143Y-69238095D01*
X47786905Y-69190476D01*
X46977381Y-69190476D01*
X47072619Y-68761905D02*
X47025000Y-68714286D01*
X46977381Y-68619048D01*
X46977381Y-68380952D01*
X47025000Y-68285714D01*
X47072619Y-68238095D01*
X47167857Y-68190476D01*
X47263095Y-68190476D01*
X47405952Y-68238095D01*
X47977381Y-68809524D01*
X47977381Y-68190476D01*
X20252381Y-78161905D02*
X21061905Y-78161905D01*
X21157143Y-78114286D01*
X21204762Y-78066667D01*
X21252381Y-77971429D01*
X21252381Y-77780952D01*
X21204762Y-77685714D01*
X21157143Y-77638095D01*
X21061905Y-77590476D01*
X20252381Y-77590476D01*
X20252381Y-77209524D02*
X20252381Y-76590476D01*
X20633333Y-76923810D01*
X20633333Y-76780952D01*
X20680952Y-76685714D01*
X20728571Y-76638095D01*
X20823810Y-76590476D01*
X21061905Y-76590476D01*
X21157143Y-76638095D01*
X21204762Y-76685714D01*
X21252381Y-76780952D01*
X21252381Y-77066667D01*
X21204762Y-77161905D01*
X21157143Y-77209524D01*
X47588095Y-20977381D02*
X47588095Y-21786905D01*
X47635714Y-21882143D01*
X47683333Y-21929762D01*
X47778571Y-21977381D01*
X47969048Y-21977381D01*
X48064286Y-21929762D01*
X48111905Y-21882143D01*
X48159524Y-21786905D01*
X48159524Y-20977381D01*
X49064286Y-21310714D02*
X49064286Y-21977381D01*
X48826190Y-20929762D02*
X48588095Y-21644048D01*
X49207143Y-21644048D01*
X27238095Y-47752381D02*
X27238095Y-48561905D01*
X27285714Y-48657143D01*
X27333333Y-48704762D01*
X27428571Y-48752381D01*
X27619048Y-48752381D01*
X27714286Y-48704762D01*
X27761905Y-48657143D01*
X27809524Y-48561905D01*
X27809524Y-47752381D01*
X28761905Y-47752381D02*
X28285714Y-47752381D01*
X28238095Y-48228571D01*
X28285714Y-48180952D01*
X28380952Y-48133333D01*
X28619048Y-48133333D01*
X28714286Y-48180952D01*
X28761905Y-48228571D01*
X28809524Y-48323810D01*
X28809524Y-48561905D01*
X28761905Y-48657143D01*
X28714286Y-48704762D01*
X28619048Y-48752381D01*
X28380952Y-48752381D01*
X28285714Y-48704762D01*
X28238095Y-48657143D01*
X27238095Y-38752381D02*
X27238095Y-39561905D01*
X27285714Y-39657143D01*
X27333333Y-39704762D01*
X27428571Y-39752381D01*
X27619048Y-39752381D01*
X27714286Y-39704762D01*
X27761905Y-39657143D01*
X27809524Y-39561905D01*
X27809524Y-38752381D01*
X28714286Y-38752381D02*
X28523809Y-38752381D01*
X28428571Y-38800000D01*
X28380952Y-38847619D01*
X28285714Y-38990476D01*
X28238095Y-39180952D01*
X28238095Y-39561905D01*
X28285714Y-39657143D01*
X28333333Y-39704762D01*
X28428571Y-39752381D01*
X28619048Y-39752381D01*
X28714286Y-39704762D01*
X28761905Y-39657143D01*
X28809524Y-39561905D01*
X28809524Y-39323810D01*
X28761905Y-39228571D01*
X28714286Y-39180952D01*
X28619048Y-39133333D01*
X28428571Y-39133333D01*
X28333333Y-39180952D01*
X28285714Y-39228571D01*
X28238095Y-39323810D01*
X27238095Y-29752381D02*
X27238095Y-30561905D01*
X27285714Y-30657143D01*
X27333333Y-30704762D01*
X27428571Y-30752381D01*
X27619048Y-30752381D01*
X27714286Y-30704762D01*
X27761905Y-30657143D01*
X27809524Y-30561905D01*
X27809524Y-29752381D01*
X28190476Y-29752381D02*
X28857143Y-29752381D01*
X28428571Y-30752381D01*
X13738095Y-19952381D02*
X13738095Y-20761905D01*
X13785714Y-20857143D01*
X13833333Y-20904762D01*
X13928571Y-20952381D01*
X14119048Y-20952381D01*
X14214286Y-20904762D01*
X14261905Y-20857143D01*
X14309524Y-20761905D01*
X14309524Y-19952381D01*
X14928571Y-20380952D02*
X14833333Y-20333333D01*
X14785714Y-20285714D01*
X14738095Y-20190476D01*
X14738095Y-20142857D01*
X14785714Y-20047619D01*
X14833333Y-20000000D01*
X14928571Y-19952381D01*
X15119048Y-19952381D01*
X15214286Y-20000000D01*
X15261905Y-20047619D01*
X15309524Y-20142857D01*
X15309524Y-20190476D01*
X15261905Y-20285714D01*
X15214286Y-20333333D01*
X15119048Y-20380952D01*
X14928571Y-20380952D01*
X14833333Y-20428571D01*
X14785714Y-20476190D01*
X14738095Y-20571429D01*
X14738095Y-20761905D01*
X14785714Y-20857143D01*
X14833333Y-20904762D01*
X14928571Y-20952381D01*
X15119048Y-20952381D01*
X15214286Y-20904762D01*
X15261905Y-20857143D01*
X15309524Y-20761905D01*
X15309524Y-20571429D01*
X15261905Y-20476190D01*
X15214286Y-20428571D01*
X15119048Y-20380952D01*
X13738095Y-25952381D02*
X13738095Y-26761905D01*
X13785714Y-26857143D01*
X13833333Y-26904762D01*
X13928571Y-26952381D01*
X14119048Y-26952381D01*
X14214286Y-26904762D01*
X14261905Y-26857143D01*
X14309524Y-26761905D01*
X14309524Y-25952381D01*
X14833333Y-26952381D02*
X15023809Y-26952381D01*
X15119048Y-26904762D01*
X15166667Y-26857143D01*
X15261905Y-26714286D01*
X15309524Y-26523810D01*
X15309524Y-26142857D01*
X15261905Y-26047619D01*
X15214286Y-26000000D01*
X15119048Y-25952381D01*
X14928571Y-25952381D01*
X14833333Y-26000000D01*
X14785714Y-26047619D01*
X14738095Y-26142857D01*
X14738095Y-26380952D01*
X14785714Y-26476190D01*
X14833333Y-26523810D01*
X14928571Y-26571429D01*
X15119048Y-26571429D01*
X15214286Y-26523810D01*
X15261905Y-26476190D01*
X15309524Y-26380952D01*
X13261905Y-31952381D02*
X13261905Y-32761905D01*
X13309524Y-32857143D01*
X13357143Y-32904762D01*
X13452381Y-32952381D01*
X13642858Y-32952381D01*
X13738096Y-32904762D01*
X13785715Y-32857143D01*
X13833334Y-32761905D01*
X13833334Y-31952381D01*
X14833334Y-32952381D02*
X14261905Y-32952381D01*
X14547619Y-32952381D02*
X14547619Y-31952381D01*
X14452381Y-32095238D01*
X14357143Y-32190476D01*
X14261905Y-32238095D01*
X15452381Y-31952381D02*
X15547620Y-31952381D01*
X15642858Y-32000000D01*
X15690477Y-32047619D01*
X15738096Y-32142857D01*
X15785715Y-32333333D01*
X15785715Y-32571429D01*
X15738096Y-32761905D01*
X15690477Y-32857143D01*
X15642858Y-32904762D01*
X15547620Y-32952381D01*
X15452381Y-32952381D01*
X15357143Y-32904762D01*
X15309524Y-32857143D01*
X15261905Y-32761905D01*
X15214286Y-32571429D01*
X15214286Y-32333333D01*
X15261905Y-32142857D01*
X15309524Y-32047619D01*
X15357143Y-32000000D01*
X15452381Y-31952381D01*
X13261905Y-37952381D02*
X13261905Y-38761905D01*
X13309524Y-38857143D01*
X13357143Y-38904762D01*
X13452381Y-38952381D01*
X13642858Y-38952381D01*
X13738096Y-38904762D01*
X13785715Y-38857143D01*
X13833334Y-38761905D01*
X13833334Y-37952381D01*
X14833334Y-38952381D02*
X14261905Y-38952381D01*
X14547619Y-38952381D02*
X14547619Y-37952381D01*
X14452381Y-38095238D01*
X14357143Y-38190476D01*
X14261905Y-38238095D01*
X15785715Y-38952381D02*
X15214286Y-38952381D01*
X15500000Y-38952381D02*
X15500000Y-37952381D01*
X15404762Y-38095238D01*
X15309524Y-38190476D01*
X15214286Y-38238095D01*
X13261905Y-43952381D02*
X13261905Y-44761905D01*
X13309524Y-44857143D01*
X13357143Y-44904762D01*
X13452381Y-44952381D01*
X13642858Y-44952381D01*
X13738096Y-44904762D01*
X13785715Y-44857143D01*
X13833334Y-44761905D01*
X13833334Y-43952381D01*
X14833334Y-44952381D02*
X14261905Y-44952381D01*
X14547619Y-44952381D02*
X14547619Y-43952381D01*
X14452381Y-44095238D01*
X14357143Y-44190476D01*
X14261905Y-44238095D01*
X15214286Y-44047619D02*
X15261905Y-44000000D01*
X15357143Y-43952381D01*
X15595239Y-43952381D01*
X15690477Y-44000000D01*
X15738096Y-44047619D01*
X15785715Y-44142857D01*
X15785715Y-44238095D01*
X15738096Y-44380952D01*
X15166667Y-44952381D01*
X15785715Y-44952381D01*
X13261905Y-49952381D02*
X13261905Y-50761905D01*
X13309524Y-50857143D01*
X13357143Y-50904762D01*
X13452381Y-50952381D01*
X13642858Y-50952381D01*
X13738096Y-50904762D01*
X13785715Y-50857143D01*
X13833334Y-50761905D01*
X13833334Y-49952381D01*
X14833334Y-50952381D02*
X14261905Y-50952381D01*
X14547619Y-50952381D02*
X14547619Y-49952381D01*
X14452381Y-50095238D01*
X14357143Y-50190476D01*
X14261905Y-50238095D01*
X15166667Y-49952381D02*
X15785715Y-49952381D01*
X15452381Y-50333333D01*
X15595239Y-50333333D01*
X15690477Y-50380952D01*
X15738096Y-50428571D01*
X15785715Y-50523810D01*
X15785715Y-50761905D01*
X15738096Y-50857143D01*
X15690477Y-50904762D01*
X15595239Y-50952381D01*
X15309524Y-50952381D01*
X15214286Y-50904762D01*
X15166667Y-50857143D01*
X13261905Y-55952381D02*
X13261905Y-56761905D01*
X13309524Y-56857143D01*
X13357143Y-56904762D01*
X13452381Y-56952381D01*
X13642858Y-56952381D01*
X13738096Y-56904762D01*
X13785715Y-56857143D01*
X13833334Y-56761905D01*
X13833334Y-55952381D01*
X14833334Y-56952381D02*
X14261905Y-56952381D01*
X14547619Y-56952381D02*
X14547619Y-55952381D01*
X14452381Y-56095238D01*
X14357143Y-56190476D01*
X14261905Y-56238095D01*
X15690477Y-56285714D02*
X15690477Y-56952381D01*
X15452381Y-55904762D02*
X15214286Y-56619048D01*
X15833334Y-56619048D01*
X13261905Y-61952381D02*
X13261905Y-62761905D01*
X13309524Y-62857143D01*
X13357143Y-62904762D01*
X13452381Y-62952381D01*
X13642858Y-62952381D01*
X13738096Y-62904762D01*
X13785715Y-62857143D01*
X13833334Y-62761905D01*
X13833334Y-61952381D01*
X14833334Y-62952381D02*
X14261905Y-62952381D01*
X14547619Y-62952381D02*
X14547619Y-61952381D01*
X14452381Y-62095238D01*
X14357143Y-62190476D01*
X14261905Y-62238095D01*
X15738096Y-61952381D02*
X15261905Y-61952381D01*
X15214286Y-62428571D01*
X15261905Y-62380952D01*
X15357143Y-62333333D01*
X15595239Y-62333333D01*
X15690477Y-62380952D01*
X15738096Y-62428571D01*
X15785715Y-62523810D01*
X15785715Y-62761905D01*
X15738096Y-62857143D01*
X15690477Y-62904762D01*
X15595239Y-62952381D01*
X15357143Y-62952381D01*
X15261905Y-62904762D01*
X15214286Y-62857143D01*
X13261905Y-67952381D02*
X13261905Y-68761905D01*
X13309524Y-68857143D01*
X13357143Y-68904762D01*
X13452381Y-68952381D01*
X13642858Y-68952381D01*
X13738096Y-68904762D01*
X13785715Y-68857143D01*
X13833334Y-68761905D01*
X13833334Y-67952381D01*
X14833334Y-68952381D02*
X14261905Y-68952381D01*
X14547619Y-68952381D02*
X14547619Y-67952381D01*
X14452381Y-68095238D01*
X14357143Y-68190476D01*
X14261905Y-68238095D01*
X15690477Y-67952381D02*
X15500000Y-67952381D01*
X15404762Y-68000000D01*
X15357143Y-68047619D01*
X15261905Y-68190476D01*
X15214286Y-68380952D01*
X15214286Y-68761905D01*
X15261905Y-68857143D01*
X15309524Y-68904762D01*
X15404762Y-68952381D01*
X15595239Y-68952381D01*
X15690477Y-68904762D01*
X15738096Y-68857143D01*
X15785715Y-68761905D01*
X15785715Y-68523810D01*
X15738096Y-68428571D01*
X15690477Y-68380952D01*
X15595239Y-68333333D01*
X15404762Y-68333333D01*
X15309524Y-68380952D01*
X15261905Y-68428571D01*
X15214286Y-68523810D01*
X13261905Y-73952381D02*
X13261905Y-74761905D01*
X13309524Y-74857143D01*
X13357143Y-74904762D01*
X13452381Y-74952381D01*
X13642858Y-74952381D01*
X13738096Y-74904762D01*
X13785715Y-74857143D01*
X13833334Y-74761905D01*
X13833334Y-73952381D01*
X14833334Y-74952381D02*
X14261905Y-74952381D01*
X14547619Y-74952381D02*
X14547619Y-73952381D01*
X14452381Y-74095238D01*
X14357143Y-74190476D01*
X14261905Y-74238095D01*
X15166667Y-73952381D02*
X15833334Y-73952381D01*
X15404762Y-74952381D01*
X41261905Y-14452381D02*
X41261905Y-15261905D01*
X41309524Y-15357143D01*
X41357143Y-15404762D01*
X41452381Y-15452381D01*
X41642858Y-15452381D01*
X41738096Y-15404762D01*
X41785715Y-15357143D01*
X41833334Y-15261905D01*
X41833334Y-14452381D01*
X42833334Y-15452381D02*
X42261905Y-15452381D01*
X42547619Y-15452381D02*
X42547619Y-14452381D01*
X42452381Y-14595238D01*
X42357143Y-14690476D01*
X42261905Y-14738095D01*
X43404762Y-14880952D02*
X43309524Y-14833333D01*
X43261905Y-14785714D01*
X43214286Y-14690476D01*
X43214286Y-14642857D01*
X43261905Y-14547619D01*
X43309524Y-14500000D01*
X43404762Y-14452381D01*
X43595239Y-14452381D01*
X43690477Y-14500000D01*
X43738096Y-14547619D01*
X43785715Y-14642857D01*
X43785715Y-14690476D01*
X43738096Y-14785714D01*
X43690477Y-14833333D01*
X43595239Y-14880952D01*
X43404762Y-14880952D01*
X43309524Y-14928571D01*
X43261905Y-14976190D01*
X43214286Y-15071429D01*
X43214286Y-15261905D01*
X43261905Y-15357143D01*
X43309524Y-15404762D01*
X43404762Y-15452381D01*
X43595239Y-15452381D01*
X43690477Y-15404762D01*
X43738096Y-15357143D01*
X43785715Y-15261905D01*
X43785715Y-15071429D01*
X43738096Y-14976190D01*
X43690477Y-14928571D01*
X43595239Y-14880952D01*
X67761905Y-21152381D02*
X67761905Y-21961905D01*
X67809524Y-22057143D01*
X67857143Y-22104762D01*
X67952381Y-22152381D01*
X68142858Y-22152381D01*
X68238096Y-22104762D01*
X68285715Y-22057143D01*
X68333334Y-21961905D01*
X68333334Y-21152381D01*
X69333334Y-22152381D02*
X68761905Y-22152381D01*
X69047619Y-22152381D02*
X69047619Y-21152381D01*
X68952381Y-21295238D01*
X68857143Y-21390476D01*
X68761905Y-21438095D01*
X69809524Y-22152381D02*
X70000000Y-22152381D01*
X70095239Y-22104762D01*
X70142858Y-22057143D01*
X70238096Y-21914286D01*
X70285715Y-21723810D01*
X70285715Y-21342857D01*
X70238096Y-21247619D01*
X70190477Y-21200000D01*
X70095239Y-21152381D01*
X69904762Y-21152381D01*
X69809524Y-21200000D01*
X69761905Y-21247619D01*
X69714286Y-21342857D01*
X69714286Y-21580952D01*
X69761905Y-21676190D01*
X69809524Y-21723810D01*
X69904762Y-21771429D01*
X70095239Y-21771429D01*
X70190477Y-21723810D01*
X70238096Y-21676190D01*
X70285715Y-21580952D01*
X67761905Y-30152381D02*
X67761905Y-30961905D01*
X67809524Y-31057143D01*
X67857143Y-31104762D01*
X67952381Y-31152381D01*
X68142858Y-31152381D01*
X68238096Y-31104762D01*
X68285715Y-31057143D01*
X68333334Y-30961905D01*
X68333334Y-30152381D01*
X68761905Y-30247619D02*
X68809524Y-30200000D01*
X68904762Y-30152381D01*
X69142858Y-30152381D01*
X69238096Y-30200000D01*
X69285715Y-30247619D01*
X69333334Y-30342857D01*
X69333334Y-30438095D01*
X69285715Y-30580952D01*
X68714286Y-31152381D01*
X69333334Y-31152381D01*
X69952381Y-30152381D02*
X70047620Y-30152381D01*
X70142858Y-30200000D01*
X70190477Y-30247619D01*
X70238096Y-30342857D01*
X70285715Y-30533333D01*
X70285715Y-30771429D01*
X70238096Y-30961905D01*
X70190477Y-31057143D01*
X70142858Y-31104762D01*
X70047620Y-31152381D01*
X69952381Y-31152381D01*
X69857143Y-31104762D01*
X69809524Y-31057143D01*
X69761905Y-30961905D01*
X69714286Y-30771429D01*
X69714286Y-30533333D01*
X69761905Y-30342857D01*
X69809524Y-30247619D01*
X69857143Y-30200000D01*
X69952381Y-30152381D01*
X67761905Y-39152381D02*
X67761905Y-39961905D01*
X67809524Y-40057143D01*
X67857143Y-40104762D01*
X67952381Y-40152381D01*
X68142858Y-40152381D01*
X68238096Y-40104762D01*
X68285715Y-40057143D01*
X68333334Y-39961905D01*
X68333334Y-39152381D01*
X68761905Y-39247619D02*
X68809524Y-39200000D01*
X68904762Y-39152381D01*
X69142858Y-39152381D01*
X69238096Y-39200000D01*
X69285715Y-39247619D01*
X69333334Y-39342857D01*
X69333334Y-39438095D01*
X69285715Y-39580952D01*
X68714286Y-40152381D01*
X69333334Y-40152381D01*
X70285715Y-40152381D02*
X69714286Y-40152381D01*
X70000000Y-40152381D02*
X70000000Y-39152381D01*
X69904762Y-39295238D01*
X69809524Y-39390476D01*
X69714286Y-39438095D01*
X84261905Y-23952381D02*
X84261905Y-24761905D01*
X84309524Y-24857143D01*
X84357143Y-24904762D01*
X84452381Y-24952381D01*
X84642858Y-24952381D01*
X84738096Y-24904762D01*
X84785715Y-24857143D01*
X84833334Y-24761905D01*
X84833334Y-23952381D01*
X85261905Y-24047619D02*
X85309524Y-24000000D01*
X85404762Y-23952381D01*
X85642858Y-23952381D01*
X85738096Y-24000000D01*
X85785715Y-24047619D01*
X85833334Y-24142857D01*
X85833334Y-24238095D01*
X85785715Y-24380952D01*
X85214286Y-24952381D01*
X85833334Y-24952381D01*
X86214286Y-24047619D02*
X86261905Y-24000000D01*
X86357143Y-23952381D01*
X86595239Y-23952381D01*
X86690477Y-24000000D01*
X86738096Y-24047619D01*
X86785715Y-24142857D01*
X86785715Y-24238095D01*
X86738096Y-24380952D01*
X86166667Y-24952381D01*
X86785715Y-24952381D01*
X84261905Y-29952381D02*
X84261905Y-30761905D01*
X84309524Y-30857143D01*
X84357143Y-30904762D01*
X84452381Y-30952381D01*
X84642858Y-30952381D01*
X84738096Y-30904762D01*
X84785715Y-30857143D01*
X84833334Y-30761905D01*
X84833334Y-29952381D01*
X85261905Y-30047619D02*
X85309524Y-30000000D01*
X85404762Y-29952381D01*
X85642858Y-29952381D01*
X85738096Y-30000000D01*
X85785715Y-30047619D01*
X85833334Y-30142857D01*
X85833334Y-30238095D01*
X85785715Y-30380952D01*
X85214286Y-30952381D01*
X85833334Y-30952381D01*
X86166667Y-29952381D02*
X86785715Y-29952381D01*
X86452381Y-30333333D01*
X86595239Y-30333333D01*
X86690477Y-30380952D01*
X86738096Y-30428571D01*
X86785715Y-30523810D01*
X86785715Y-30761905D01*
X86738096Y-30857143D01*
X86690477Y-30904762D01*
X86595239Y-30952381D01*
X86309524Y-30952381D01*
X86214286Y-30904762D01*
X86166667Y-30857143D01*
X84261905Y-35952381D02*
X84261905Y-36761905D01*
X84309524Y-36857143D01*
X84357143Y-36904762D01*
X84452381Y-36952381D01*
X84642858Y-36952381D01*
X84738096Y-36904762D01*
X84785715Y-36857143D01*
X84833334Y-36761905D01*
X84833334Y-35952381D01*
X85261905Y-36047619D02*
X85309524Y-36000000D01*
X85404762Y-35952381D01*
X85642858Y-35952381D01*
X85738096Y-36000000D01*
X85785715Y-36047619D01*
X85833334Y-36142857D01*
X85833334Y-36238095D01*
X85785715Y-36380952D01*
X85214286Y-36952381D01*
X85833334Y-36952381D01*
X86690477Y-36285714D02*
X86690477Y-36952381D01*
X86452381Y-35904762D02*
X86214286Y-36619048D01*
X86833334Y-36619048D01*
X84261905Y-41952381D02*
X84261905Y-42761905D01*
X84309524Y-42857143D01*
X84357143Y-42904762D01*
X84452381Y-42952381D01*
X84642858Y-42952381D01*
X84738096Y-42904762D01*
X84785715Y-42857143D01*
X84833334Y-42761905D01*
X84833334Y-41952381D01*
X85261905Y-42047619D02*
X85309524Y-42000000D01*
X85404762Y-41952381D01*
X85642858Y-41952381D01*
X85738096Y-42000000D01*
X85785715Y-42047619D01*
X85833334Y-42142857D01*
X85833334Y-42238095D01*
X85785715Y-42380952D01*
X85214286Y-42952381D01*
X85833334Y-42952381D01*
X86738096Y-41952381D02*
X86261905Y-41952381D01*
X86214286Y-42428571D01*
X86261905Y-42380952D01*
X86357143Y-42333333D01*
X86595239Y-42333333D01*
X86690477Y-42380952D01*
X86738096Y-42428571D01*
X86785715Y-42523810D01*
X86785715Y-42761905D01*
X86738096Y-42857143D01*
X86690477Y-42904762D01*
X86595239Y-42952381D01*
X86357143Y-42952381D01*
X86261905Y-42904762D01*
X86214286Y-42857143D01*
X84261905Y-47952381D02*
X84261905Y-48761905D01*
X84309524Y-48857143D01*
X84357143Y-48904762D01*
X84452381Y-48952381D01*
X84642858Y-48952381D01*
X84738096Y-48904762D01*
X84785715Y-48857143D01*
X84833334Y-48761905D01*
X84833334Y-47952381D01*
X85261905Y-48047619D02*
X85309524Y-48000000D01*
X85404762Y-47952381D01*
X85642858Y-47952381D01*
X85738096Y-48000000D01*
X85785715Y-48047619D01*
X85833334Y-48142857D01*
X85833334Y-48238095D01*
X85785715Y-48380952D01*
X85214286Y-48952381D01*
X85833334Y-48952381D01*
X86690477Y-47952381D02*
X86500000Y-47952381D01*
X86404762Y-48000000D01*
X86357143Y-48047619D01*
X86261905Y-48190476D01*
X86214286Y-48380952D01*
X86214286Y-48761905D01*
X86261905Y-48857143D01*
X86309524Y-48904762D01*
X86404762Y-48952381D01*
X86595239Y-48952381D01*
X86690477Y-48904762D01*
X86738096Y-48857143D01*
X86785715Y-48761905D01*
X86785715Y-48523810D01*
X86738096Y-48428571D01*
X86690477Y-48380952D01*
X86595239Y-48333333D01*
X86404762Y-48333333D01*
X86309524Y-48380952D01*
X86261905Y-48428571D01*
X86214286Y-48523810D01*
X84261905Y-53952381D02*
X84261905Y-54761905D01*
X84309524Y-54857143D01*
X84357143Y-54904762D01*
X84452381Y-54952381D01*
X84642858Y-54952381D01*
X84738096Y-54904762D01*
X84785715Y-54857143D01*
X84833334Y-54761905D01*
X84833334Y-53952381D01*
X85261905Y-54047619D02*
X85309524Y-54000000D01*
X85404762Y-53952381D01*
X85642858Y-53952381D01*
X85738096Y-54000000D01*
X85785715Y-54047619D01*
X85833334Y-54142857D01*
X85833334Y-54238095D01*
X85785715Y-54380952D01*
X85214286Y-54952381D01*
X85833334Y-54952381D01*
X86166667Y-53952381D02*
X86833334Y-53952381D01*
X86404762Y-54952381D01*
X84261905Y-59952381D02*
X84261905Y-60761905D01*
X84309524Y-60857143D01*
X84357143Y-60904762D01*
X84452381Y-60952381D01*
X84642858Y-60952381D01*
X84738096Y-60904762D01*
X84785715Y-60857143D01*
X84833334Y-60761905D01*
X84833334Y-59952381D01*
X85261905Y-60047619D02*
X85309524Y-60000000D01*
X85404762Y-59952381D01*
X85642858Y-59952381D01*
X85738096Y-60000000D01*
X85785715Y-60047619D01*
X85833334Y-60142857D01*
X85833334Y-60238095D01*
X85785715Y-60380952D01*
X85214286Y-60952381D01*
X85833334Y-60952381D01*
X86404762Y-60380952D02*
X86309524Y-60333333D01*
X86261905Y-60285714D01*
X86214286Y-60190476D01*
X86214286Y-60142857D01*
X86261905Y-60047619D01*
X86309524Y-60000000D01*
X86404762Y-59952381D01*
X86595239Y-59952381D01*
X86690477Y-60000000D01*
X86738096Y-60047619D01*
X86785715Y-60142857D01*
X86785715Y-60190476D01*
X86738096Y-60285714D01*
X86690477Y-60333333D01*
X86595239Y-60380952D01*
X86404762Y-60380952D01*
X86309524Y-60428571D01*
X86261905Y-60476190D01*
X86214286Y-60571429D01*
X86214286Y-60761905D01*
X86261905Y-60857143D01*
X86309524Y-60904762D01*
X86404762Y-60952381D01*
X86595239Y-60952381D01*
X86690477Y-60904762D01*
X86738096Y-60857143D01*
X86785715Y-60761905D01*
X86785715Y-60571429D01*
X86738096Y-60476190D01*
X86690477Y-60428571D01*
X86595239Y-60380952D01*
X84261905Y-65952381D02*
X84261905Y-66761905D01*
X84309524Y-66857143D01*
X84357143Y-66904762D01*
X84452381Y-66952381D01*
X84642858Y-66952381D01*
X84738096Y-66904762D01*
X84785715Y-66857143D01*
X84833334Y-66761905D01*
X84833334Y-65952381D01*
X85261905Y-66047619D02*
X85309524Y-66000000D01*
X85404762Y-65952381D01*
X85642858Y-65952381D01*
X85738096Y-66000000D01*
X85785715Y-66047619D01*
X85833334Y-66142857D01*
X85833334Y-66238095D01*
X85785715Y-66380952D01*
X85214286Y-66952381D01*
X85833334Y-66952381D01*
X86309524Y-66952381D02*
X86500000Y-66952381D01*
X86595239Y-66904762D01*
X86642858Y-66857143D01*
X86738096Y-66714286D01*
X86785715Y-66523810D01*
X86785715Y-66142857D01*
X86738096Y-66047619D01*
X86690477Y-66000000D01*
X86595239Y-65952381D01*
X86404762Y-65952381D01*
X86309524Y-66000000D01*
X86261905Y-66047619D01*
X86214286Y-66142857D01*
X86214286Y-66380952D01*
X86261905Y-66476190D01*
X86309524Y-66523810D01*
X86404762Y-66571429D01*
X86595239Y-66571429D01*
X86690477Y-66523810D01*
X86738096Y-66476190D01*
X86785715Y-66380952D01*
X84261905Y-71952381D02*
X84261905Y-72761905D01*
X84309524Y-72857143D01*
X84357143Y-72904762D01*
X84452381Y-72952381D01*
X84642858Y-72952381D01*
X84738096Y-72904762D01*
X84785715Y-72857143D01*
X84833334Y-72761905D01*
X84833334Y-71952381D01*
X85214286Y-71952381D02*
X85833334Y-71952381D01*
X85500000Y-72333333D01*
X85642858Y-72333333D01*
X85738096Y-72380952D01*
X85785715Y-72428571D01*
X85833334Y-72523810D01*
X85833334Y-72761905D01*
X85785715Y-72857143D01*
X85738096Y-72904762D01*
X85642858Y-72952381D01*
X85357143Y-72952381D01*
X85261905Y-72904762D01*
X85214286Y-72857143D01*
X86452381Y-71952381D02*
X86547620Y-71952381D01*
X86642858Y-72000000D01*
X86690477Y-72047619D01*
X86738096Y-72142857D01*
X86785715Y-72333333D01*
X86785715Y-72571429D01*
X86738096Y-72761905D01*
X86690477Y-72857143D01*
X86642858Y-72904762D01*
X86547620Y-72952381D01*
X86452381Y-72952381D01*
X86357143Y-72904762D01*
X86309524Y-72857143D01*
X86261905Y-72761905D01*
X86214286Y-72571429D01*
X86214286Y-72333333D01*
X86261905Y-72142857D01*
X86309524Y-72047619D01*
X86357143Y-72000000D01*
X86452381Y-71952381D01*
M02*
