G04 #@! TF.FileFunction,Soldermask,Bot*
%FSLAX46Y46*%
G04 Gerber Fmt 4.6, Leading zero omitted, Abs format (unit mm)*
G04 Created by KiCad (PCBNEW 4.0.7) date 12/17/17 16:00:19*
%MOMM*%
%LPD*%
G01*
G04 APERTURE LIST*
%ADD10C,0.100000*%
%ADD11R,2.100000X2.100000*%
%ADD12O,2.100000X2.100000*%
%ADD13C,3.400000*%
%ADD14R,3.400000X3.400000*%
%ADD15R,2.200000X2.200000*%
%ADD16C,2.200000*%
%ADD17C,1.400000*%
%ADD18O,3.200000X2.000000*%
%ADD19C,6.800000*%
G04 APERTURE END LIST*
D10*
D11*
X71120000Y-96520000D03*
D12*
X71120000Y-93980000D03*
X73660000Y-96520000D03*
X73660000Y-93980000D03*
X76200000Y-96520000D03*
X76200000Y-93980000D03*
X78740000Y-96520000D03*
X78740000Y-93980000D03*
X81280000Y-96520000D03*
X81280000Y-93980000D03*
X83820000Y-96520000D03*
X83820000Y-93980000D03*
X86360000Y-96520000D03*
X86360000Y-93980000D03*
D13*
X54840000Y-90000000D03*
X59920000Y-90000000D03*
D14*
X49760000Y-90000000D03*
D13*
X65000000Y-90000000D03*
D15*
X40000000Y-87460000D03*
D16*
X40000000Y-90000000D03*
X37460000Y-87460000D03*
X37460000Y-90000000D03*
X34920000Y-87460000D03*
X34920000Y-90000000D03*
X32380000Y-87460000D03*
X32380000Y-90000000D03*
X29840000Y-87460000D03*
X29840000Y-90000000D03*
X27300000Y-87460000D03*
X27300000Y-90000000D03*
X24760000Y-87460000D03*
X24760000Y-90000000D03*
D11*
X93980000Y-25400000D03*
D12*
X96520000Y-25400000D03*
X93980000Y-27940000D03*
X96520000Y-27940000D03*
X93980000Y-30480000D03*
X96520000Y-30480000D03*
X93980000Y-33020000D03*
X96520000Y-33020000D03*
X93980000Y-35560000D03*
X96520000Y-35560000D03*
X93980000Y-38100000D03*
X96520000Y-38100000D03*
X93980000Y-40640000D03*
X96520000Y-40640000D03*
X93980000Y-43180000D03*
X96520000Y-43180000D03*
X93980000Y-45720000D03*
X96520000Y-45720000D03*
X93980000Y-48260000D03*
X96520000Y-48260000D03*
X93980000Y-50800000D03*
X96520000Y-50800000D03*
X93980000Y-53340000D03*
X96520000Y-53340000D03*
X93980000Y-55880000D03*
X96520000Y-55880000D03*
X93980000Y-58420000D03*
X96520000Y-58420000D03*
X93980000Y-60960000D03*
X96520000Y-60960000D03*
X93980000Y-63500000D03*
X96520000Y-63500000D03*
X93980000Y-66040000D03*
X96520000Y-66040000D03*
X93980000Y-68580000D03*
X96520000Y-68580000D03*
X93980000Y-71120000D03*
X96520000Y-71120000D03*
X93980000Y-73660000D03*
X96520000Y-73660000D03*
D11*
X3810000Y-25400000D03*
D12*
X6350000Y-25400000D03*
X3810000Y-27940000D03*
X6350000Y-27940000D03*
X3810000Y-30480000D03*
X6350000Y-30480000D03*
X3810000Y-33020000D03*
X6350000Y-33020000D03*
X3810000Y-35560000D03*
X6350000Y-35560000D03*
X3810000Y-38100000D03*
X6350000Y-38100000D03*
X3810000Y-40640000D03*
X6350000Y-40640000D03*
X3810000Y-43180000D03*
X6350000Y-43180000D03*
X3810000Y-45720000D03*
X6350000Y-45720000D03*
X3810000Y-48260000D03*
X6350000Y-48260000D03*
X3810000Y-50800000D03*
X6350000Y-50800000D03*
X3810000Y-53340000D03*
X6350000Y-53340000D03*
X3810000Y-55880000D03*
X6350000Y-55880000D03*
X3810000Y-58420000D03*
X6350000Y-58420000D03*
X3810000Y-60960000D03*
X6350000Y-60960000D03*
X3810000Y-63500000D03*
X6350000Y-63500000D03*
X3810000Y-66040000D03*
X6350000Y-66040000D03*
X3810000Y-68580000D03*
X6350000Y-68580000D03*
X3810000Y-71120000D03*
X6350000Y-71120000D03*
X3810000Y-73660000D03*
X6350000Y-73660000D03*
D11*
X27940000Y-5080000D03*
D12*
X27940000Y-7620000D03*
X25400000Y-5080000D03*
X25400000Y-7620000D03*
X22860000Y-5080000D03*
X22860000Y-7620000D03*
X20320000Y-5080000D03*
X20320000Y-7620000D03*
X17780000Y-5080000D03*
X17780000Y-7620000D03*
X15240000Y-5080000D03*
X15240000Y-7620000D03*
X12700000Y-5080000D03*
X12700000Y-7620000D03*
D11*
X58840000Y-12540000D03*
D12*
X58840000Y-10000000D03*
X61380000Y-12540000D03*
X61380000Y-10000000D03*
X63920000Y-12540000D03*
X63920000Y-10000000D03*
X66460000Y-12540000D03*
X66460000Y-10000000D03*
X69000000Y-12540000D03*
X69000000Y-10000000D03*
D17*
X90000000Y-86600000D03*
X91200000Y-85800000D03*
X90000000Y-85000000D03*
X91200000Y-84200000D03*
X90000000Y-83400000D03*
D18*
X90900000Y-88700000D03*
X95650000Y-88700000D03*
X90900000Y-81300000D03*
X95650000Y-81300000D03*
D14*
X90000000Y-17000000D03*
D13*
X90000000Y-11920000D03*
D19*
X5000000Y-5000000D03*
X95000000Y-5000000D03*
X95000000Y-95000000D03*
X5000000Y-95000000D03*
M02*
