G04 #@! TF.FileFunction,Soldermask,Top*
%FSLAX46Y46*%
G04 Gerber Fmt 4.6, Leading zero omitted, Abs format (unit mm)*
G04 Created by KiCad (PCBNEW 4.0.7) date 12/04/17 00:21:40*
%MOMM*%
%LPD*%
G01*
G04 APERTURE LIST*
%ADD10C,0.100000*%
%ADD11R,2.200000X2.200000*%
%ADD12C,2.200000*%
%ADD13R,1.200000X1.150000*%
%ADD14R,2.900000X1.400000*%
%ADD15R,1.000000X0.900000*%
%ADD16R,0.900000X1.000000*%
%ADD17R,1.600000X1.150000*%
%ADD18R,3.400000X3.400000*%
%ADD19C,3.400000*%
%ADD20C,1.600000*%
%ADD21O,3.200000X2.000000*%
%ADD22R,2.100000X2.100000*%
%ADD23O,2.100000X2.100000*%
%ADD24R,2.200000X2.400000*%
%ADD25R,0.900000X1.300000*%
%ADD26R,1.100000X1.500000*%
%ADD27R,1.200000X1.500000*%
%ADD28R,0.700000X1.950000*%
%ADD29R,1.950000X0.700000*%
%ADD30R,0.800000X1.500000*%
%ADD31R,3.700000X3.200000*%
%ADD32R,1.850000X0.850000*%
%ADD33R,1.900000X0.900000*%
%ADD34R,1.900000X0.700000*%
G04 APERTURE END LIST*
D10*
D11*
X40000000Y-87460000D03*
D12*
X40000000Y-90000000D03*
X37460000Y-87460000D03*
X37460000Y-90000000D03*
X34920000Y-87460000D03*
X34920000Y-90000000D03*
X32380000Y-87460000D03*
X32380000Y-90000000D03*
X29840000Y-87460000D03*
X29840000Y-90000000D03*
X27300000Y-87460000D03*
X27300000Y-90000000D03*
X24760000Y-87460000D03*
X24760000Y-90000000D03*
D13*
X106725001Y-62445000D03*
X105225001Y-62445000D03*
D14*
X75000000Y-17500000D03*
X75000000Y-14500000D03*
D15*
X52150000Y-81750000D03*
X53250000Y-81750000D03*
X58050000Y-81750000D03*
X56950000Y-81750000D03*
X61950000Y-81750000D03*
X63050000Y-81750000D03*
D16*
X73500000Y-73050000D03*
X73500000Y-71950000D03*
X72750000Y-66700000D03*
X72750000Y-67800000D03*
D15*
X68300000Y-56250000D03*
X67200000Y-56250000D03*
X59800000Y-56250000D03*
X58700000Y-56250000D03*
X53800000Y-56250000D03*
X52700000Y-56250000D03*
D16*
X47250000Y-65050000D03*
X47250000Y-63950000D03*
X47250000Y-71800000D03*
X47250000Y-70700000D03*
X47250000Y-76800000D03*
X47250000Y-75700000D03*
D15*
X152502857Y-22435000D03*
X153602857Y-22435000D03*
D17*
X124205001Y-44975000D03*
X126105001Y-44975000D03*
X117665001Y-49975000D03*
X119565001Y-49975000D03*
X143475001Y-25035000D03*
X145375001Y-25035000D03*
D15*
X170912857Y-6245000D03*
X172012857Y-6245000D03*
X160432857Y-15795000D03*
X161532857Y-15795000D03*
X132152857Y-42835000D03*
X133252857Y-42835000D03*
X121932857Y-54585000D03*
X123032857Y-54585000D03*
X156752857Y-20385000D03*
X157852857Y-20385000D03*
X125612857Y-54385000D03*
X126712857Y-54385000D03*
X132152857Y-47425000D03*
X133252857Y-47425000D03*
X164112857Y-15385000D03*
X165212857Y-15385000D03*
X140282857Y-39235000D03*
X141382857Y-39235000D03*
X136602857Y-39235000D03*
X137702857Y-39235000D03*
X167232857Y-6245000D03*
X168332857Y-6245000D03*
X147462857Y-29855000D03*
X148562857Y-29855000D03*
X152502857Y-27025000D03*
X153602857Y-27025000D03*
X135832857Y-43825000D03*
X136932857Y-43825000D03*
X160432857Y-20385000D03*
X161532857Y-20385000D03*
X156182857Y-24975000D03*
X157282857Y-24975000D03*
X114292857Y-55195000D03*
X115392857Y-55195000D03*
X164112857Y-19975000D03*
X165212857Y-19975000D03*
X148822857Y-20055000D03*
X149922857Y-20055000D03*
X117972857Y-54795000D03*
X119072857Y-54795000D03*
X136602857Y-34645000D03*
X137702857Y-34645000D03*
X148822857Y-24645000D03*
X149922857Y-24645000D03*
X143782857Y-29855000D03*
X144882857Y-29855000D03*
X128472857Y-44585000D03*
X129572857Y-44585000D03*
X173142857Y-1245000D03*
X174242857Y-1245000D03*
X140282857Y-34645000D03*
X141382857Y-34645000D03*
X163552857Y-10795000D03*
X164652857Y-10795000D03*
X132472857Y-63615000D03*
X133572857Y-63615000D03*
X128792857Y-63615000D03*
X129892857Y-63615000D03*
X128142857Y-77805000D03*
X129242857Y-77805000D03*
X131822857Y-77385000D03*
X132922857Y-77385000D03*
X111442857Y-97005000D03*
X112542857Y-97005000D03*
X123132857Y-87395000D03*
X124232857Y-87395000D03*
X128142857Y-82395000D03*
X129242857Y-82395000D03*
X124462857Y-82395000D03*
X125562857Y-82395000D03*
X115772857Y-91995000D03*
X116872857Y-91995000D03*
X119452857Y-87395000D03*
X120552857Y-87395000D03*
X107762857Y-97005000D03*
X108862857Y-97005000D03*
X131442857Y-72795000D03*
X132542857Y-72795000D03*
X115772857Y-87405000D03*
X116872857Y-87405000D03*
X120782857Y-82805000D03*
X121882857Y-82805000D03*
X128792857Y-68205000D03*
X129892857Y-68205000D03*
X124462857Y-77805000D03*
X125562857Y-77805000D03*
X111062857Y-92415000D03*
X112162857Y-92415000D03*
X107382857Y-92415000D03*
X108482857Y-92415000D03*
X120782857Y-78215000D03*
X121882857Y-78215000D03*
X112092857Y-87815000D03*
X113192857Y-87815000D03*
X115392857Y-82815000D03*
X116492857Y-82815000D03*
X132472857Y-68205000D03*
X133572857Y-68205000D03*
X127762857Y-73215000D03*
X128862857Y-73215000D03*
X134082857Y-100415000D03*
X135182857Y-100415000D03*
X124082857Y-73215000D03*
X125182857Y-73215000D03*
D18*
X90000000Y-17000000D03*
D19*
X90000000Y-11920000D03*
X54840000Y-90000000D03*
X59920000Y-90000000D03*
D18*
X49760000Y-90000000D03*
D19*
X65000000Y-90000000D03*
D20*
X90000000Y-86600000D03*
X91200000Y-85800000D03*
X90000000Y-85000000D03*
X91200000Y-84200000D03*
X90000000Y-83400000D03*
D21*
X90900000Y-88700000D03*
X95650000Y-88700000D03*
X90900000Y-81300000D03*
X95650000Y-81300000D03*
D22*
X58840000Y-12540000D03*
D23*
X58840000Y-10000000D03*
X61380000Y-12540000D03*
X61380000Y-10000000D03*
X63920000Y-12540000D03*
X63920000Y-10000000D03*
X66460000Y-12540000D03*
X66460000Y-10000000D03*
X69000000Y-12540000D03*
X69000000Y-10000000D03*
D22*
X27940000Y-5080000D03*
D23*
X27940000Y-7620000D03*
X25400000Y-5080000D03*
X25400000Y-7620000D03*
X22860000Y-5080000D03*
X22860000Y-7620000D03*
X20320000Y-5080000D03*
X20320000Y-7620000D03*
X17780000Y-5080000D03*
X17780000Y-7620000D03*
X15240000Y-5080000D03*
X15240000Y-7620000D03*
X12700000Y-5080000D03*
X12700000Y-7620000D03*
D22*
X3810000Y-25400000D03*
D23*
X6350000Y-25400000D03*
X3810000Y-27940000D03*
X6350000Y-27940000D03*
X3810000Y-30480000D03*
X6350000Y-30480000D03*
X3810000Y-33020000D03*
X6350000Y-33020000D03*
X3810000Y-35560000D03*
X6350000Y-35560000D03*
X3810000Y-38100000D03*
X6350000Y-38100000D03*
X3810000Y-40640000D03*
X6350000Y-40640000D03*
X3810000Y-43180000D03*
X6350000Y-43180000D03*
X3810000Y-45720000D03*
X6350000Y-45720000D03*
X3810000Y-48260000D03*
X6350000Y-48260000D03*
X3810000Y-50800000D03*
X6350000Y-50800000D03*
X3810000Y-53340000D03*
X6350000Y-53340000D03*
X3810000Y-55880000D03*
X6350000Y-55880000D03*
X3810000Y-58420000D03*
X6350000Y-58420000D03*
X3810000Y-60960000D03*
X6350000Y-60960000D03*
X3810000Y-63500000D03*
X6350000Y-63500000D03*
X3810000Y-66040000D03*
X6350000Y-66040000D03*
X3810000Y-68580000D03*
X6350000Y-68580000D03*
X3810000Y-71120000D03*
X6350000Y-71120000D03*
X3810000Y-73660000D03*
X6350000Y-73660000D03*
D22*
X93980000Y-25400000D03*
D23*
X96520000Y-25400000D03*
X93980000Y-27940000D03*
X96520000Y-27940000D03*
X93980000Y-30480000D03*
X96520000Y-30480000D03*
X93980000Y-33020000D03*
X96520000Y-33020000D03*
X93980000Y-35560000D03*
X96520000Y-35560000D03*
X93980000Y-38100000D03*
X96520000Y-38100000D03*
X93980000Y-40640000D03*
X96520000Y-40640000D03*
X93980000Y-43180000D03*
X96520000Y-43180000D03*
X93980000Y-45720000D03*
X96520000Y-45720000D03*
X93980000Y-48260000D03*
X96520000Y-48260000D03*
X93980000Y-50800000D03*
X96520000Y-50800000D03*
X93980000Y-53340000D03*
X96520000Y-53340000D03*
X93980000Y-55880000D03*
X96520000Y-55880000D03*
X93980000Y-58420000D03*
X96520000Y-58420000D03*
X93980000Y-60960000D03*
X96520000Y-60960000D03*
X93980000Y-63500000D03*
X96520000Y-63500000D03*
X93980000Y-66040000D03*
X96520000Y-66040000D03*
X93980000Y-68580000D03*
X96520000Y-68580000D03*
X93980000Y-71120000D03*
X96520000Y-71120000D03*
X93980000Y-73660000D03*
X96520000Y-73660000D03*
D22*
X71120000Y-96520000D03*
D23*
X71120000Y-93980000D03*
X73660000Y-96520000D03*
X73660000Y-93980000D03*
X76200000Y-96520000D03*
X76200000Y-93980000D03*
X78740000Y-96520000D03*
X78740000Y-93980000D03*
X81280000Y-96520000D03*
X81280000Y-93980000D03*
X83820000Y-96520000D03*
X83820000Y-93980000D03*
X86360000Y-96520000D03*
X86360000Y-93980000D03*
D24*
X28710000Y-60350000D03*
X33790000Y-60350000D03*
X33790000Y-56150000D03*
X28710000Y-56150000D03*
D25*
X152825238Y-13025000D03*
X154325238Y-13025000D03*
X120585238Y-45175000D03*
X122085238Y-45175000D03*
X139855238Y-25235000D03*
X141355238Y-25235000D03*
X145227143Y-20235000D03*
X146727143Y-20235000D03*
X169625001Y-1425000D03*
X171125001Y-1425000D03*
X117315001Y-45175000D03*
X118815001Y-45175000D03*
X124267143Y-40175000D03*
X125767143Y-40175000D03*
X132675238Y-33425000D03*
X134175238Y-33425000D03*
X136265238Y-28425000D03*
X137765238Y-28425000D03*
X110455238Y-55375000D03*
X111955238Y-55375000D03*
X132675238Y-28425000D03*
X134175238Y-28425000D03*
X169945238Y3575000D03*
X171445238Y3575000D03*
X120915238Y-40175000D03*
X122415238Y-40175000D03*
X141875238Y-20235000D03*
X143375238Y-20235000D03*
X114045238Y-45375000D03*
X115545238Y-45375000D03*
X136265238Y-23425000D03*
X137765238Y-23425000D03*
X117325238Y-40175000D03*
X118825238Y-40175000D03*
X132675238Y-23425000D03*
X134175238Y-23425000D03*
X110455238Y-45375000D03*
X111955238Y-45375000D03*
X115825238Y-62395000D03*
X117325238Y-62395000D03*
X112235238Y-62395000D03*
X113735238Y-62395000D03*
X108645238Y-62395000D03*
X110145238Y-62395000D03*
X159715238Y-10975000D03*
X161215238Y-10975000D03*
X110455238Y-50375000D03*
X111955238Y-50375000D03*
X152825238Y-8025000D03*
X154325238Y-8025000D03*
X163025238Y-5975000D03*
X164525238Y-5975000D03*
X114045238Y-50375000D03*
X115545238Y-50375000D03*
X156272381Y-8025000D03*
X157772381Y-8025000D03*
X173392381Y3575000D03*
X174892381Y3575000D03*
X120392381Y-73395000D03*
X121892381Y-73395000D03*
X103692381Y-92595000D03*
X105192381Y-92595000D03*
X111702381Y-82995000D03*
X113202381Y-82995000D03*
D26*
X83250000Y-13300000D03*
X82150000Y-13300000D03*
D27*
X81000000Y-13300000D03*
D26*
X79850000Y-13300000D03*
X78750000Y-13300000D03*
X78750000Y-15000000D03*
X78750000Y-16700000D03*
X79850000Y-16700000D03*
D27*
X81000000Y-16700000D03*
D26*
X82150000Y-16700000D03*
X83250000Y-16700000D03*
X83250000Y-15000000D03*
D27*
X81000000Y-15000000D03*
D26*
X79850000Y-15000000D03*
D28*
X51250000Y-79700000D03*
X51750000Y-79700000D03*
X52250000Y-79700000D03*
X52750000Y-79700000D03*
X53250000Y-79700000D03*
X53750000Y-79700000D03*
X54250000Y-79700000D03*
X54750000Y-79700000D03*
X55250000Y-79700000D03*
X55750000Y-79700000D03*
X56250000Y-79700000D03*
X56750000Y-79700000D03*
X57250000Y-79700000D03*
X57750000Y-79700000D03*
X58250000Y-79700000D03*
X58750000Y-79700000D03*
X59250000Y-79700000D03*
X59750000Y-79700000D03*
X60250000Y-79700000D03*
X60750000Y-79700000D03*
X61250000Y-79700000D03*
X61750000Y-79700000D03*
X62250000Y-79700000D03*
X62750000Y-79700000D03*
X63250000Y-79700000D03*
X63750000Y-79700000D03*
X64250000Y-79700000D03*
X64750000Y-79700000D03*
X65250000Y-79700000D03*
X65750000Y-79700000D03*
X66250000Y-79700000D03*
X66750000Y-79700000D03*
X67250000Y-79700000D03*
X67750000Y-79700000D03*
X68250000Y-79700000D03*
X68750000Y-79700000D03*
D29*
X70700000Y-77750000D03*
X70700000Y-77250000D03*
X70700000Y-76750000D03*
X70700000Y-76250000D03*
X70700000Y-75750000D03*
X70700000Y-75250000D03*
X70700000Y-74750000D03*
X70700000Y-74250000D03*
X70700000Y-73750000D03*
X70700000Y-73250000D03*
X70700000Y-72750000D03*
X70700000Y-72250000D03*
X70700000Y-71750000D03*
X70700000Y-71250000D03*
X70700000Y-70750000D03*
X70700000Y-70250000D03*
X70700000Y-69750000D03*
X70700000Y-69250000D03*
X70700000Y-68750000D03*
X70700000Y-68250000D03*
X70700000Y-67750000D03*
X70700000Y-67250000D03*
X70700000Y-66750000D03*
X70700000Y-66250000D03*
X70700000Y-65750000D03*
X70700000Y-65250000D03*
X70700000Y-64750000D03*
X70700000Y-64250000D03*
X70700000Y-63750000D03*
X70700000Y-63250000D03*
X70700000Y-62750000D03*
X70700000Y-62250000D03*
X70700000Y-61750000D03*
X70700000Y-61250000D03*
X70700000Y-60750000D03*
X70700000Y-60250000D03*
D28*
X68750000Y-58300000D03*
X68250000Y-58300000D03*
X67750000Y-58300000D03*
X67250000Y-58300000D03*
X66750000Y-58300000D03*
X66250000Y-58300000D03*
X65750000Y-58300000D03*
X65250000Y-58300000D03*
X64750000Y-58300000D03*
X64250000Y-58300000D03*
X63750000Y-58300000D03*
X63250000Y-58300000D03*
X62750000Y-58300000D03*
X62250000Y-58300000D03*
X61750000Y-58300000D03*
X61250000Y-58300000D03*
X60750000Y-58300000D03*
X60250000Y-58300000D03*
X59750000Y-58300000D03*
X59250000Y-58300000D03*
X58750000Y-58300000D03*
X58250000Y-58300000D03*
X57750000Y-58300000D03*
X57250000Y-58300000D03*
X56750000Y-58300000D03*
X56250000Y-58300000D03*
X55750000Y-58300000D03*
X55250000Y-58300000D03*
X54750000Y-58300000D03*
X54250000Y-58300000D03*
X53750000Y-58300000D03*
X53250000Y-58300000D03*
X52750000Y-58300000D03*
X52250000Y-58300000D03*
X51750000Y-58300000D03*
X51250000Y-58300000D03*
D29*
X49300000Y-60250000D03*
X49300000Y-60750000D03*
X49300000Y-61250000D03*
X49300000Y-61750000D03*
X49300000Y-62250000D03*
X49300000Y-62750000D03*
X49300000Y-63250000D03*
X49300000Y-63750000D03*
X49300000Y-64250000D03*
X49300000Y-64750000D03*
X49300000Y-65250000D03*
X49300000Y-65750000D03*
X49300000Y-66250000D03*
X49300000Y-66750000D03*
X49300000Y-67250000D03*
X49300000Y-67750000D03*
X49300000Y-68250000D03*
X49300000Y-68750000D03*
X49300000Y-69250000D03*
X49300000Y-69750000D03*
X49300000Y-70250000D03*
X49300000Y-70750000D03*
X49300000Y-71250000D03*
X49300000Y-71750000D03*
X49300000Y-72250000D03*
X49300000Y-72750000D03*
X49300000Y-73250000D03*
X49300000Y-73750000D03*
X49300000Y-74250000D03*
X49300000Y-74750000D03*
X49300000Y-75250000D03*
X49300000Y-75750000D03*
X49300000Y-76250000D03*
X49300000Y-76750000D03*
X49300000Y-77250000D03*
X49300000Y-77750000D03*
D30*
X22400000Y-78800000D03*
X23200000Y-78800000D03*
X24000000Y-78800000D03*
X24800000Y-78800000D03*
X25600000Y-78800000D03*
X26400000Y-78800000D03*
X27200000Y-78800000D03*
X28000000Y-78800000D03*
X28800000Y-78800000D03*
X29600000Y-78800000D03*
X30400000Y-78800000D03*
X31200000Y-78800000D03*
X32000000Y-78800000D03*
X32800000Y-78800000D03*
X33600000Y-78800000D03*
X34400000Y-78800000D03*
X35200000Y-78800000D03*
X36000000Y-78800000D03*
X36800000Y-78800000D03*
X37600000Y-78800000D03*
X38400000Y-78800000D03*
X39200000Y-78800000D03*
X40000000Y-78800000D03*
X40800000Y-78800000D03*
X41600000Y-78800000D03*
X42400000Y-78800000D03*
X43200000Y-78800000D03*
X43200000Y-67000000D03*
X42400000Y-67000000D03*
X41600000Y-67000000D03*
X40800000Y-67000000D03*
X40000000Y-67000000D03*
X39200000Y-67000000D03*
X38400000Y-67000000D03*
X37600000Y-67000000D03*
X36800000Y-67000000D03*
X36000000Y-67000000D03*
X35200000Y-67000000D03*
X34400000Y-67000000D03*
X33600000Y-67000000D03*
X32800000Y-67000000D03*
X32000000Y-67000000D03*
X31200000Y-67000000D03*
X30400000Y-67000000D03*
X29600000Y-67000000D03*
X28800000Y-67000000D03*
X28000000Y-67000000D03*
X27200000Y-67000000D03*
X26400000Y-67000000D03*
X25600000Y-67000000D03*
X24800000Y-67000000D03*
X24000000Y-67000000D03*
X23200000Y-67000000D03*
X22400000Y-67000000D03*
D29*
X37650000Y-25250000D03*
X37650000Y-25750000D03*
X37650000Y-26250000D03*
X37650000Y-26750000D03*
X37650000Y-27250000D03*
X37650000Y-27750000D03*
X37650000Y-28250000D03*
X37650000Y-28750000D03*
X37650000Y-29250000D03*
X37650000Y-29750000D03*
X37650000Y-30250000D03*
X37650000Y-30750000D03*
X37650000Y-31250000D03*
X37650000Y-31750000D03*
X37650000Y-32250000D03*
X37650000Y-32750000D03*
X37650000Y-33250000D03*
X37650000Y-33750000D03*
X37650000Y-34250000D03*
X37650000Y-34750000D03*
X37650000Y-35250000D03*
X37650000Y-35750000D03*
X37650000Y-36250000D03*
X37650000Y-36750000D03*
X37650000Y-37250000D03*
X37650000Y-37750000D03*
X37650000Y-38250000D03*
X37650000Y-38750000D03*
X37650000Y-39250000D03*
X37650000Y-39750000D03*
X37650000Y-40250000D03*
X37650000Y-40750000D03*
X37650000Y-41250000D03*
X37650000Y-41750000D03*
X37650000Y-42250000D03*
X37650000Y-42750000D03*
D28*
X39600000Y-44700000D03*
X40100000Y-44700000D03*
X40600000Y-44700000D03*
X41100000Y-44700000D03*
X41600000Y-44700000D03*
X42100000Y-44700000D03*
X42600000Y-44700000D03*
X43100000Y-44700000D03*
X43600000Y-44700000D03*
X44100000Y-44700000D03*
X44600000Y-44700000D03*
X45100000Y-44700000D03*
X45600000Y-44700000D03*
X46100000Y-44700000D03*
X46600000Y-44700000D03*
X47100000Y-44700000D03*
X47600000Y-44700000D03*
X48100000Y-44700000D03*
X48600000Y-44700000D03*
X49100000Y-44700000D03*
X49600000Y-44700000D03*
X50100000Y-44700000D03*
X50600000Y-44700000D03*
X51100000Y-44700000D03*
X51600000Y-44700000D03*
X52100000Y-44700000D03*
X52600000Y-44700000D03*
X53100000Y-44700000D03*
X53600000Y-44700000D03*
X54100000Y-44700000D03*
X54600000Y-44700000D03*
X55100000Y-44700000D03*
X55600000Y-44700000D03*
X56100000Y-44700000D03*
X56600000Y-44700000D03*
X57100000Y-44700000D03*
D29*
X59050000Y-42750000D03*
X59050000Y-42250000D03*
X59050000Y-41750000D03*
X59050000Y-41250000D03*
X59050000Y-40750000D03*
X59050000Y-40250000D03*
X59050000Y-39750000D03*
X59050000Y-39250000D03*
X59050000Y-38750000D03*
X59050000Y-38250000D03*
X59050000Y-37750000D03*
X59050000Y-37250000D03*
X59050000Y-36750000D03*
X59050000Y-36250000D03*
X59050000Y-35750000D03*
X59050000Y-35250000D03*
X59050000Y-34750000D03*
X59050000Y-34250000D03*
X59050000Y-33750000D03*
X59050000Y-33250000D03*
X59050000Y-32750000D03*
X59050000Y-32250000D03*
X59050000Y-31750000D03*
X59050000Y-31250000D03*
X59050000Y-30750000D03*
X59050000Y-30250000D03*
X59050000Y-29750000D03*
X59050000Y-29250000D03*
X59050000Y-28750000D03*
X59050000Y-28250000D03*
X59050000Y-27750000D03*
X59050000Y-27250000D03*
X59050000Y-26750000D03*
X59050000Y-26250000D03*
X59050000Y-25750000D03*
X59050000Y-25250000D03*
D28*
X57100000Y-23300000D03*
X56600000Y-23300000D03*
X56100000Y-23300000D03*
X55600000Y-23300000D03*
X55100000Y-23300000D03*
X54600000Y-23300000D03*
X54100000Y-23300000D03*
X53600000Y-23300000D03*
X53100000Y-23300000D03*
X52600000Y-23300000D03*
X52100000Y-23300000D03*
X51600000Y-23300000D03*
X51100000Y-23300000D03*
X50600000Y-23300000D03*
X50100000Y-23300000D03*
X49600000Y-23300000D03*
X49100000Y-23300000D03*
X48600000Y-23300000D03*
X48100000Y-23300000D03*
X47600000Y-23300000D03*
X47100000Y-23300000D03*
X46600000Y-23300000D03*
X46100000Y-23300000D03*
X45600000Y-23300000D03*
X45100000Y-23300000D03*
X44600000Y-23300000D03*
X44100000Y-23300000D03*
X43600000Y-23300000D03*
X43100000Y-23300000D03*
X42600000Y-23300000D03*
X42100000Y-23300000D03*
X41600000Y-23300000D03*
X41100000Y-23300000D03*
X40600000Y-23300000D03*
X40100000Y-23300000D03*
X39600000Y-23300000D03*
D31*
X46700000Y-32600000D03*
X50000000Y-32600000D03*
X46700000Y-35400000D03*
X50000000Y-35400000D03*
D32*
X30950000Y-46925000D03*
X30950000Y-46275000D03*
X30950000Y-45625000D03*
X30950000Y-44975000D03*
X30950000Y-44325000D03*
X30950000Y-43675000D03*
X30950000Y-43025000D03*
X30950000Y-42375000D03*
X30950000Y-41725000D03*
X30950000Y-41075000D03*
X25050000Y-41075000D03*
X25050000Y-41725000D03*
X25050000Y-42375000D03*
X25050000Y-43025000D03*
X25050000Y-43675000D03*
X25050000Y-44325000D03*
X25050000Y-44975000D03*
X25050000Y-45625000D03*
X25050000Y-46275000D03*
X25050000Y-46925000D03*
X30950000Y-37925000D03*
X30950000Y-37275000D03*
X30950000Y-36625000D03*
X30950000Y-35975000D03*
X30950000Y-35325000D03*
X30950000Y-34675000D03*
X30950000Y-34025000D03*
X30950000Y-33375000D03*
X30950000Y-32725000D03*
X30950000Y-32075000D03*
X25050000Y-32075000D03*
X25050000Y-32725000D03*
X25050000Y-33375000D03*
X25050000Y-34025000D03*
X25050000Y-34675000D03*
X25050000Y-35325000D03*
X25050000Y-35975000D03*
X25050000Y-36625000D03*
X25050000Y-37275000D03*
X25050000Y-37925000D03*
X30950000Y-28925000D03*
X30950000Y-28275000D03*
X30950000Y-27625000D03*
X30950000Y-26975000D03*
X30950000Y-26325000D03*
X30950000Y-25675000D03*
X30950000Y-25025000D03*
X30950000Y-24375000D03*
X30950000Y-23725000D03*
X30950000Y-23075000D03*
X25050000Y-23075000D03*
X25050000Y-23725000D03*
X25050000Y-24375000D03*
X25050000Y-25025000D03*
X25050000Y-25675000D03*
X25050000Y-26325000D03*
X25050000Y-26975000D03*
X25050000Y-27625000D03*
X25050000Y-28275000D03*
X25050000Y-28925000D03*
D33*
X17750000Y-19000000D03*
X17750000Y-18000000D03*
X17750000Y-17000000D03*
X17750000Y-16000000D03*
X17750000Y-15000000D03*
X12250000Y-15000000D03*
X12250000Y-16000000D03*
X12250000Y-17000000D03*
X12250000Y-18000000D03*
X12250000Y-19000000D03*
X17750000Y-25000000D03*
X17750000Y-24000000D03*
X17750000Y-23000000D03*
X17750000Y-22000000D03*
X17750000Y-21000000D03*
X12250000Y-21000000D03*
X12250000Y-22000000D03*
X12250000Y-23000000D03*
X12250000Y-24000000D03*
X12250000Y-25000000D03*
X17750000Y-31000000D03*
X17750000Y-30000000D03*
X17750000Y-29000000D03*
X17750000Y-28000000D03*
X17750000Y-27000000D03*
X12250000Y-27000000D03*
X12250000Y-28000000D03*
X12250000Y-29000000D03*
X12250000Y-30000000D03*
X12250000Y-31000000D03*
X17750000Y-37000000D03*
X17750000Y-36000000D03*
X17750000Y-35000000D03*
X17750000Y-34000000D03*
X17750000Y-33000000D03*
X12250000Y-33000000D03*
X12250000Y-34000000D03*
X12250000Y-35000000D03*
X12250000Y-36000000D03*
X12250000Y-37000000D03*
X17750000Y-43000000D03*
X17750000Y-42000000D03*
X17750000Y-41000000D03*
X17750000Y-40000000D03*
X17750000Y-39000000D03*
X12250000Y-39000000D03*
X12250000Y-40000000D03*
X12250000Y-41000000D03*
X12250000Y-42000000D03*
X12250000Y-43000000D03*
X17750000Y-49000000D03*
X17750000Y-48000000D03*
X17750000Y-47000000D03*
X17750000Y-46000000D03*
X17750000Y-45000000D03*
X12250000Y-45000000D03*
X12250000Y-46000000D03*
X12250000Y-47000000D03*
X12250000Y-48000000D03*
X12250000Y-49000000D03*
X17750000Y-55000000D03*
X17750000Y-54000000D03*
X17750000Y-53000000D03*
X17750000Y-52000000D03*
X17750000Y-51000000D03*
X12250000Y-51000000D03*
X12250000Y-52000000D03*
X12250000Y-53000000D03*
X12250000Y-54000000D03*
X12250000Y-55000000D03*
X17750000Y-61000000D03*
X17750000Y-60000000D03*
X17750000Y-59000000D03*
X17750000Y-58000000D03*
X17750000Y-57000000D03*
X12250000Y-57000000D03*
X12250000Y-58000000D03*
X12250000Y-59000000D03*
X12250000Y-60000000D03*
X12250000Y-61000000D03*
X17750000Y-67000000D03*
X17750000Y-66000000D03*
X17750000Y-65000000D03*
X17750000Y-64000000D03*
X17750000Y-63000000D03*
X12250000Y-63000000D03*
X12250000Y-64000000D03*
X12250000Y-65000000D03*
X12250000Y-66000000D03*
X12250000Y-67000000D03*
X17750000Y-73000000D03*
X17750000Y-72000000D03*
X17750000Y-71000000D03*
X17750000Y-70000000D03*
X17750000Y-69000000D03*
X12250000Y-69000000D03*
X12250000Y-70000000D03*
X12250000Y-71000000D03*
X12250000Y-72000000D03*
X12250000Y-73000000D03*
D34*
X46000000Y-13600000D03*
X46000000Y-12950000D03*
X46000000Y-12300000D03*
X46000000Y-11650000D03*
X46000000Y-11000000D03*
X46000000Y-10350000D03*
X46000000Y-9700000D03*
X46000000Y-9050000D03*
X46000000Y-8400000D03*
X40000000Y-8400000D03*
X40000000Y-9050000D03*
X40000000Y-9700000D03*
X40000000Y-10350000D03*
X40000000Y-11000000D03*
X40000000Y-11650000D03*
X40000000Y-12300000D03*
X40000000Y-12950000D03*
X40000000Y-13600000D03*
D32*
X66050000Y-23075000D03*
X66050000Y-23725000D03*
X66050000Y-24375000D03*
X66050000Y-25025000D03*
X66050000Y-25675000D03*
X66050000Y-26325000D03*
X66050000Y-26975000D03*
X66050000Y-27625000D03*
X66050000Y-28275000D03*
X66050000Y-28925000D03*
X71950000Y-28925000D03*
X71950000Y-28275000D03*
X71950000Y-27625000D03*
X71950000Y-26975000D03*
X71950000Y-26325000D03*
X71950000Y-25675000D03*
X71950000Y-25025000D03*
X71950000Y-24375000D03*
X71950000Y-23725000D03*
X71950000Y-23075000D03*
X66050000Y-32075000D03*
X66050000Y-32725000D03*
X66050000Y-33375000D03*
X66050000Y-34025000D03*
X66050000Y-34675000D03*
X66050000Y-35325000D03*
X66050000Y-35975000D03*
X66050000Y-36625000D03*
X66050000Y-37275000D03*
X66050000Y-37925000D03*
X71950000Y-37925000D03*
X71950000Y-37275000D03*
X71950000Y-36625000D03*
X71950000Y-35975000D03*
X71950000Y-35325000D03*
X71950000Y-34675000D03*
X71950000Y-34025000D03*
X71950000Y-33375000D03*
X71950000Y-32725000D03*
X71950000Y-32075000D03*
X66050000Y-41075000D03*
X66050000Y-41725000D03*
X66050000Y-42375000D03*
X66050000Y-43025000D03*
X66050000Y-43675000D03*
X66050000Y-44325000D03*
X66050000Y-44975000D03*
X66050000Y-45625000D03*
X66050000Y-46275000D03*
X66050000Y-46925000D03*
X71950000Y-46925000D03*
X71950000Y-46275000D03*
X71950000Y-45625000D03*
X71950000Y-44975000D03*
X71950000Y-44325000D03*
X71950000Y-43675000D03*
X71950000Y-43025000D03*
X71950000Y-42375000D03*
X71950000Y-41725000D03*
X71950000Y-41075000D03*
D33*
X82250000Y-26000000D03*
X82250000Y-27000000D03*
X82250000Y-28000000D03*
X82250000Y-29000000D03*
X82250000Y-30000000D03*
X87750000Y-30000000D03*
X87750000Y-29000000D03*
X87750000Y-28000000D03*
X87750000Y-27000000D03*
X87750000Y-26000000D03*
X82250000Y-32000000D03*
X82250000Y-33000000D03*
X82250000Y-34000000D03*
X82250000Y-35000000D03*
X82250000Y-36000000D03*
X87750000Y-36000000D03*
X87750000Y-35000000D03*
X87750000Y-34000000D03*
X87750000Y-33000000D03*
X87750000Y-32000000D03*
X82250000Y-38000000D03*
X82250000Y-39000000D03*
X82250000Y-40000000D03*
X82250000Y-41000000D03*
X82250000Y-42000000D03*
X87750000Y-42000000D03*
X87750000Y-41000000D03*
X87750000Y-40000000D03*
X87750000Y-39000000D03*
X87750000Y-38000000D03*
X82250000Y-44000000D03*
X82250000Y-45000000D03*
X82250000Y-46000000D03*
X82250000Y-47000000D03*
X82250000Y-48000000D03*
X87750000Y-48000000D03*
X87750000Y-47000000D03*
X87750000Y-46000000D03*
X87750000Y-45000000D03*
X87750000Y-44000000D03*
X82250000Y-50000000D03*
X82250000Y-51000000D03*
X82250000Y-52000000D03*
X82250000Y-53000000D03*
X82250000Y-54000000D03*
X87750000Y-54000000D03*
X87750000Y-53000000D03*
X87750000Y-52000000D03*
X87750000Y-51000000D03*
X87750000Y-50000000D03*
X82250000Y-56000000D03*
X82250000Y-57000000D03*
X82250000Y-58000000D03*
X82250000Y-59000000D03*
X82250000Y-60000000D03*
X87750000Y-60000000D03*
X87750000Y-59000000D03*
X87750000Y-58000000D03*
X87750000Y-57000000D03*
X87750000Y-56000000D03*
X82250000Y-62000000D03*
X82250000Y-63000000D03*
X82250000Y-64000000D03*
X82250000Y-65000000D03*
X82250000Y-66000000D03*
X87750000Y-66000000D03*
X87750000Y-65000000D03*
X87750000Y-64000000D03*
X87750000Y-63000000D03*
X87750000Y-62000000D03*
X82250000Y-68000000D03*
X82250000Y-69000000D03*
X82250000Y-70000000D03*
X82250000Y-71000000D03*
X82250000Y-72000000D03*
X87750000Y-72000000D03*
X87750000Y-71000000D03*
X87750000Y-70000000D03*
X87750000Y-69000000D03*
X87750000Y-68000000D03*
X82250000Y-74000000D03*
X82250000Y-75000000D03*
X82250000Y-76000000D03*
X82250000Y-77000000D03*
X82250000Y-78000000D03*
X87750000Y-78000000D03*
X87750000Y-77000000D03*
X87750000Y-76000000D03*
X87750000Y-75000000D03*
X87750000Y-74000000D03*
M02*
