M48
;DRILL file {KiCad 4.0.1-stable} date 2017/12/18 12:13:55
;FORMAT={-:-/ absolute / metric / decimal}
FMAT,2
METRIC,TZ
T1C0.400
T2C0.700
T3C0.800
T4C0.900
T5C1.000
T6C1.520
T7C3.200
%
G90
G05
M71
T1
X1.Y-30.
X1.Y-40.
X1.Y-50.
X1.Y-60.
X1.Y-70.
X2.Y-10.
X2.Y-20.
X2.Y-80.
X2.Y-90.
X10.Y-2.
X10.Y-80.
X10.Y-90.
X10.Y-98.
X13.7Y-15.
X13.7Y-21.
X13.7Y-27.
X13.7Y-33.
X13.7Y-39.
X13.7Y-45.
X13.7Y-51.
X13.7Y-57.
X13.7Y-63.
X13.7Y-69.
X18.Y-80.
X18.Y-84.5
X18.Y-90.
X19.3Y-16.
X19.3Y-18.
X19.3Y-22.
X19.3Y-24.
X19.3Y-28.
X19.3Y-30.
X19.3Y-34.
X19.3Y-36.
X19.3Y-40.
X19.3Y-42.
X19.3Y-46.
X19.3Y-48.
X19.3Y-52.
X19.3Y-54.
X19.3Y-58.
X19.3Y-60.
X19.3Y-64.
X19.3Y-66.
X19.3Y-70.
X19.3Y-71.
X19.55Y-77.7
X19.55Y-78.8
X20.Y-2.
X20.Y-98.
X20.35Y-19.2
X20.35Y-20.3
X20.35Y-25.2
X20.35Y-26.3
X20.35Y-31.2
X20.35Y-32.3
X20.35Y-37.2
X20.35Y-38.3
X20.35Y-43.2
X20.35Y-44.3
X20.35Y-49.2
X20.35Y-50.3
X20.35Y-55.2
X20.35Y-56.3
X20.35Y-61.2
X20.35Y-62.3
X20.35Y-67.2
X20.35Y-68.3
X20.35Y-73.2
X20.35Y-74.3
X20.5Y-22.
X21.Y-90.
X23.Y-42.
X23.2Y-68.6
X23.2Y-77.25
X23.6Y-64.9
X24.4Y-12.85
X24.7Y-81.75
X24.8Y-69.1
X24.8Y-76.55
X25.Y-29.5
X25.Y-40.
X25.Y-54.
X25.Y-60.5
X25.5Y-15.5
X25.6Y-68.6
X25.718Y-76.16
X25.8Y-81.75
X27.2Y-63.8
X27.2Y-69.1
X27.2Y-75.74
X27.45Y-71.85
X28.Y-48.5
X28.Y-68.6
X28.068Y-75.32
X28.2Y-52.9
X28.2Y-54.
X28.35Y-63.8
X29.45Y-31.35
X29.45Y-40.35
X29.45Y-49.35
X29.45Y-81.7
X29.6Y-69.1
X29.6Y-74.9
X30.Y-2.
X30.Y-98.
X30.25Y-27.5
X30.25Y-33.25
X30.25Y-34.75
X30.25Y-36.25
X30.25Y-37.75
X30.25Y-42.25
X30.25Y-43.75
X30.25Y-45.25
X30.25Y-46.75
X30.4Y-68.6
X30.504Y-74.48
X30.55Y-31.35
X30.55Y-40.35
X30.55Y-49.35
X30.55Y-81.7
X31.45Y-23.05
X31.45Y-24.35
X31.45Y-25.65
X31.45Y-63.8
X31.5Y-26.75
X31.5Y-28.285
X31.5Y-32.5
X31.5Y-34.
X31.5Y-35.5
X31.5Y-37.
X31.5Y-41.5
X31.5Y-43.
X31.5Y-44.5
X31.5Y-46.
X31.7Y-81.7
X32.Y-68.6
X32.Y-74.06
X32.55Y-63.8
X32.8Y-81.7
X33.Y-19.5
X33.6Y-73.64
X34.Y-48.5
X34.Y-55.
X34.4Y-69.6
X35.2Y-68.55
X35.55Y-28.
X36.45Y-25.9
X36.45Y-29.4
X36.45Y-36.4
X36.5Y-73.6
X36.505Y-42.15
X36.505Y-43.9
X36.55Y-59.05
X36.7Y-68.93
X37.55Y-25.9
X37.55Y-29.4
X37.55Y-36.4
X37.55Y-40.45
X37.55Y-42.15
X37.6Y-70.5
X37.75Y-34.8
X38.2Y-46.6
X38.4Y-23.2
X38.4Y-24.3
X38.45Y-57.1
X38.5Y-83.85
X39.3Y-46.6
X39.5Y-48.5
X40.Y-2.
X40.Y-76.6
X40.Y-98.
X40.15Y-62.75
X40.75Y-21.85
X40.75Y-22.8
X40.8Y-27.
X40.8Y-28.
X40.8Y-77.25
X40.853Y-30.592
X40.9Y-40.25
X40.9Y-52.95
X41.05Y-35.75
X41.05Y-37.15
X41.05Y-38.2
X41.35Y-81.65
X41.45Y-68.65
X41.529Y-29.983
X41.6Y-76.55
X41.7Y-27.
X41.75Y-29.1
X41.85Y-34.1
X41.85Y-35.05
X41.85Y-36.45
X42.Y-44.
X42.4Y-77.25
X42.55Y-18.35
X42.592Y-48.953
X42.65Y-33.25
X42.7Y-27.
X42.75Y-21.85
X42.75Y-22.8
X43.5Y-26.5
X43.5Y-48.9
X43.737Y-52.125
X43.75Y-90.3
X44.Y-83.75
X44.55Y-26.5
X44.684Y-52.124
X44.693Y-51.185
X44.95Y-72.25
X44.984Y-70.377
X45.Y-53.9
X45.05Y-57.85
X45.15Y-71.3
X45.25Y-76.75
X45.4Y-83.8
X45.457Y-69.352
X45.55Y-26.5
X45.64Y-50.238
X45.65Y-75.6
X45.657Y-51.202
X46.036Y-67.777
X46.05Y-33.6
X46.05Y-36.4
X46.096Y-66.345
X46.15Y-71.2
X46.202Y-68.682
X46.25Y-22.65
X46.25Y-25.75
X46.3Y-18.122
X46.35Y-76.2
X46.35Y-77.3
X46.35Y-78.8
X46.4Y-63.95
X46.4Y-65.005
X46.6Y-49.3
X46.6Y-50.25
X46.709Y-60.209
X46.718Y-67.024
X46.882Y-75.073
X47.05Y-61.08
X47.3Y-18.85
X47.35Y-82.3
X47.45Y-74.35
X47.5Y-14.5
X47.55Y-49.3
X47.563Y-59.666
X47.65Y-8.4
X47.65Y-9.7
X47.65Y-11.
X47.96Y-20.497
X48.055Y-48.543
X48.35Y-26.7
X48.35Y-31.6
X48.35Y-33.6
X48.35Y-36.4
X48.35Y-38.45
X48.95Y-53.943
X48.965Y-48.551
X49.5Y-20.7
X49.75Y-58.3
X49.9Y-48.65
X50.Y-2.
X50.Y-22.65
X50.Y-98.
X50.45Y-57.15
X50.5Y-20.7
X50.55Y-47.7
X50.8Y-65.25
X51.15Y-56.48
X51.2Y-81.75
X51.208Y-60.116
X51.25Y-17.5
X51.5Y-71.5
X51.55Y-22.85
X51.65Y-31.6
X51.65Y-33.6
X51.65Y-36.4
X51.65Y-38.45
X52.5Y-78.2
X52.7Y-55.683
X53.25Y-59.85
X53.717Y-55.683
X53.75Y-25.75
X53.95Y-33.6
X53.95Y-36.4
X54.Y-75.5
X54.098Y-60.398
X54.1Y-21.45
X54.1Y-22.55
X54.2Y-81.75
X54.25Y-44.25
X54.45Y-26.5
X54.5Y-68.5
X54.65Y-55.649
X55.2Y-61.2
X55.25Y-25.75
X55.57Y-55.65
X55.87Y-60.4
X56.05Y-81.75
X56.75Y-44.25
X56.9Y-21.45
X56.9Y-22.55
X56.95Y-60.6
X57.35Y-47.45
X57.35Y-48.55
X57.75Y-59.85
X58.Y-29.
X58.3Y-38.25
X58.45Y-78.2
X58.5Y-60.6
X58.5Y-64.5
X58.6Y-55.7
X58.95Y-81.75
X59.Y-36.
X59.1Y-47.45
X59.1Y-48.55
X59.15Y-27.75
X59.15Y-28.75
X59.15Y-29.75
X59.15Y-30.75
X59.15Y-32.45
X59.15Y-33.5
X59.15Y-34.5
X59.15Y-37.5
X59.15Y-39.
X59.2Y-43.25
X59.25Y-59.85
X59.565Y-55.685
X60.Y-2.
X60.Y-63.
X60.Y-72.
X60.Y-98.
X60.173Y-22.923
X60.25Y-76.7
X61.Y-81.75
X61.25Y-83.85
X61.65Y-45.7
X61.65Y-46.8
X61.75Y-78.2
X62.05Y-83.25
X62.15Y-43.7
X62.45Y-25.6
X62.45Y-29.35
X62.45Y-33.85
X62.45Y-38.15
X62.6Y-77.6
X62.8Y-42.05
X62.8Y-43.
X62.8Y-82.55
X63.Y-60.
X63.Y-61.3
X63.55Y-24.25
X63.55Y-25.6
X63.55Y-29.35
X63.55Y-33.85
X63.55Y-38.15
X63.7Y-77.3
X64.Y-61.35
X64.Y-68.
X64.Y-75.5
X64.05Y-62.3
X64.118Y-64.365
X64.25Y-42.55
X64.25Y-78.2
X64.295Y-66.25
X64.4Y-81.95
X64.65Y-85.8
X64.95Y-51.85
X65.056Y-53.094
X66.25Y-83.
X67.2Y-55.2
X67.555Y-81.8
X67.6Y-77.9
X68.3Y-55.25
X68.4Y-82.2
X68.5Y-23.5
X68.5Y-25.035
X68.5Y-26.5
X68.5Y-28.
X68.5Y-32.5
X68.5Y-34.035
X68.5Y-35.5
X68.5Y-37.
X68.5Y-41.5
X68.55Y-43.05
X68.55Y-44.3
X68.55Y-45.6
X69.Y-98.
X69.186Y-75.584
X69.2Y-74.65
X69.2Y-76.55
X69.2Y-77.5
X69.334Y-82.185
X69.433Y-53.067
X69.45Y-20.65
X69.45Y-29.65
X69.45Y-38.65
X69.75Y-24.25
X69.75Y-25.75
X69.75Y-27.25
X69.75Y-28.75
X69.75Y-33.25
X69.75Y-34.75
X69.75Y-36.25
X69.75Y-37.75
X69.75Y-42.25
X70.Y-2.
X70.05Y-81.55
X70.5Y-79.5
X70.55Y-20.65
X70.55Y-29.65
X70.55Y-38.65
X70.986Y-40.65
X72.1Y-17.5
X72.3Y-77.8
X72.4Y-72.
X72.4Y-72.91
X73.Y-30.
X73.05Y-17.5
X73.15Y-14.5
X73.4Y-74.25
X73.5Y-48.
X73.5Y-54.
X73.57Y-60.
X73.6Y-66.7
X73.6Y-67.8
X74.25Y-71.25
X74.25Y-73.74
X74.25Y-74.65
X75.Y-13.4
X75.Y-18.65
X76.15Y-79.15
X76.15Y-80.25
X77.Y-82.5
X77.205Y-77.011
X77.5Y-15.
X77.5Y-24.5
X77.5Y-34.5
X77.75Y-86.3
X80.Y-2.
X80.65Y-24.7
X80.65Y-25.8
X80.65Y-36.7
X80.65Y-37.8
X80.65Y-42.7
X80.65Y-43.8
X80.65Y-48.7
X80.65Y-49.8
X80.65Y-54.7
X80.65Y-55.8
X80.65Y-60.7
X80.65Y-61.8
X80.65Y-66.7
X80.65Y-67.8
X80.65Y-72.7
X80.65Y-73.8
X80.694Y-80.5
X81.5Y-32.7
X81.75Y-65.
X81.75Y-71.
X81.75Y-77.
X81.8Y-47.
X81.8Y-53.
X81.85Y-27.
X81.85Y-29.
X81.85Y-41.
X82.Y-86.5
X82.15Y-15.
X82.35Y-31.
X82.5Y-37.
X84.75Y-33.
X84.75Y-35.
X84.75Y-39.
X84.75Y-45.
X84.75Y-51.
X84.75Y-57.
X84.75Y-59.05
X84.75Y-63.
X84.75Y-69.
X84.75Y-75.
X85.Y-89.
X85.1Y-82.35
X85.1Y-83.35
X85.65Y-20.
X87.3Y-30.
X87.3Y-36.
X87.3Y-42.
X87.3Y-48.
X87.3Y-54.
X87.3Y-60.
X87.3Y-66.
X87.3Y-72.
X87.3Y-78.
X88.7Y-85.
X90.Y-2.
X98.Y-10.
X98.Y-20.
X99.Y-30.
X99.Y-40.
X99.Y-50.
X99.Y-60.
X99.Y-70.
T2
X90.Y-83.4
X90.Y-85.
X90.Y-86.6
X91.2Y-84.2
X91.2Y-85.8
T4
X24.76Y-87.46
X24.76Y-90.
X27.3Y-87.46
X27.3Y-90.
X29.84Y-87.46
X29.84Y-90.
X32.38Y-87.46
X32.38Y-90.
X34.92Y-87.46
X34.92Y-90.
X37.46Y-87.46
X37.46Y-90.
X40.Y-87.46
X40.Y-90.
T5
X3.81Y-25.4
X3.81Y-27.94
X3.81Y-30.48
X3.81Y-33.02
X3.81Y-35.56
X3.81Y-38.1
X3.81Y-40.64
X3.81Y-43.18
X3.81Y-45.72
X3.81Y-48.26
X3.81Y-50.8
X3.81Y-53.34
X3.81Y-55.88
X3.81Y-58.42
X3.81Y-60.96
X3.81Y-63.5
X3.81Y-66.04
X3.81Y-68.58
X3.81Y-71.12
X3.81Y-73.66
X6.35Y-25.4
X6.35Y-27.94
X6.35Y-30.48
X6.35Y-33.02
X6.35Y-35.56
X6.35Y-38.1
X6.35Y-40.64
X6.35Y-43.18
X6.35Y-45.72
X6.35Y-48.26
X6.35Y-50.8
X6.35Y-53.34
X6.35Y-55.88
X6.35Y-58.42
X6.35Y-60.96
X6.35Y-63.5
X6.35Y-66.04
X6.35Y-68.58
X6.35Y-71.12
X6.35Y-73.66
X12.7Y-5.08
X12.7Y-7.62
X15.24Y-5.08
X15.24Y-7.62
X17.78Y-5.08
X17.78Y-7.62
X20.32Y-5.08
X20.32Y-7.62
X22.86Y-5.08
X22.86Y-7.62
X25.4Y-5.08
X25.4Y-7.62
X27.94Y-5.08
X27.94Y-7.62
X58.84Y-10.
X58.84Y-12.54
X61.38Y-10.
X61.38Y-12.54
X63.92Y-10.
X63.92Y-12.54
X66.46Y-10.
X66.46Y-12.54
X69.Y-10.
X69.Y-12.54
X71.12Y-93.98
X71.12Y-96.52
X73.66Y-93.98
X73.66Y-96.52
X76.2Y-93.98
X76.2Y-96.52
X78.74Y-93.98
X78.74Y-96.52
X81.28Y-93.98
X81.28Y-96.52
X83.82Y-93.98
X83.82Y-96.52
X86.36Y-93.98
X86.36Y-96.52
X93.98Y-25.4
X93.98Y-27.94
X93.98Y-30.48
X93.98Y-33.02
X93.98Y-35.56
X93.98Y-38.1
X93.98Y-40.64
X93.98Y-43.18
X93.98Y-45.72
X93.98Y-48.26
X93.98Y-50.8
X93.98Y-53.34
X93.98Y-55.88
X93.98Y-58.42
X93.98Y-60.96
X93.98Y-63.5
X93.98Y-66.04
X93.98Y-68.58
X93.98Y-71.12
X93.98Y-73.66
X96.52Y-25.4
X96.52Y-27.94
X96.52Y-30.48
X96.52Y-33.02
X96.52Y-35.56
X96.52Y-38.1
X96.52Y-40.64
X96.52Y-43.18
X96.52Y-45.72
X96.52Y-48.26
X96.52Y-50.8
X96.52Y-53.34
X96.52Y-55.88
X96.52Y-58.42
X96.52Y-60.96
X96.52Y-63.5
X96.52Y-66.04
X96.52Y-68.58
X96.52Y-71.12
X96.52Y-73.66
T6
X49.76Y-90.
X54.84Y-90.
X59.92Y-90.
X65.Y-90.
X90.Y-11.92
X90.Y-17.
T7
X5.Y-5.
X5.Y-95.
X95.Y-5.
X95.Y-95.
T3
X91.5Y-81.3G85X90.3Y-81.3
G05
X91.5Y-88.7G85X90.3Y-88.7
G05
X96.25Y-81.3G85X95.05Y-81.3
G05
X96.25Y-88.7G85X95.05Y-88.7
G05
T0
M30
