G04 #@! TF.FileFunction,Legend,Top*
%FSLAX46Y46*%
G04 Gerber Fmt 4.6, Leading zero omitted, Abs format (unit mm)*
G04 Created by KiCad (PCBNEW 4.0.7) date 12/17/17 16:00:19*
%MOMM*%
%LPD*%
G01*
G04 APERTURE LIST*
%ADD10C,0.100000*%
%ADD11C,0.300000*%
%ADD12C,0.200000*%
%ADD13C,0.120000*%
%ADD14C,0.150000*%
G04 APERTURE END LIST*
D10*
D11*
X96678571Y-79892857D02*
X97892857Y-79892857D01*
X98035714Y-79821429D01*
X98107143Y-79750000D01*
X98178571Y-79607143D01*
X98178571Y-79321429D01*
X98107143Y-79178571D01*
X98035714Y-79107143D01*
X97892857Y-79035714D01*
X96678571Y-79035714D01*
X98107143Y-78392857D02*
X98178571Y-78178571D01*
X98178571Y-77821428D01*
X98107143Y-77678571D01*
X98035714Y-77607142D01*
X97892857Y-77535714D01*
X97750000Y-77535714D01*
X97607143Y-77607142D01*
X97535714Y-77678571D01*
X97464286Y-77821428D01*
X97392857Y-78107142D01*
X97321429Y-78250000D01*
X97250000Y-78321428D01*
X97107143Y-78392857D01*
X96964286Y-78392857D01*
X96821429Y-78321428D01*
X96750000Y-78250000D01*
X96678571Y-78107142D01*
X96678571Y-77750000D01*
X96750000Y-77535714D01*
X97392857Y-76392857D02*
X97464286Y-76178571D01*
X97535714Y-76107143D01*
X97678571Y-76035714D01*
X97892857Y-76035714D01*
X98035714Y-76107143D01*
X98107143Y-76178571D01*
X98178571Y-76321429D01*
X98178571Y-76892857D01*
X96678571Y-76892857D01*
X96678571Y-76392857D01*
X96750000Y-76250000D01*
X96821429Y-76178571D01*
X96964286Y-76107143D01*
X97107143Y-76107143D01*
X97250000Y-76178571D01*
X97321429Y-76250000D01*
X97392857Y-76392857D01*
X97392857Y-76892857D01*
X14071428Y-95403571D02*
X14071428Y-93903571D01*
X14571428Y-94975000D01*
X15071428Y-93903571D01*
X15071428Y-95403571D01*
X16642857Y-95260714D02*
X16571428Y-95332143D01*
X16357142Y-95403571D01*
X16214285Y-95403571D01*
X16000000Y-95332143D01*
X15857142Y-95189286D01*
X15785714Y-95046429D01*
X15714285Y-94760714D01*
X15714285Y-94546429D01*
X15785714Y-94260714D01*
X15857142Y-94117857D01*
X16000000Y-93975000D01*
X16214285Y-93903571D01*
X16357142Y-93903571D01*
X16571428Y-93975000D01*
X16642857Y-94046429D01*
X17285714Y-93903571D02*
X17285714Y-95117857D01*
X17357142Y-95260714D01*
X17428571Y-95332143D01*
X17571428Y-95403571D01*
X17857142Y-95403571D01*
X18000000Y-95332143D01*
X18071428Y-95260714D01*
X18142857Y-95117857D01*
X18142857Y-93903571D01*
X14214286Y-96453571D02*
X14214286Y-97525000D01*
X14142858Y-97739286D01*
X14000001Y-97882143D01*
X13785715Y-97953571D01*
X13642858Y-97953571D01*
X14714286Y-96453571D02*
X15571429Y-96453571D01*
X15142858Y-97953571D02*
X15142858Y-96453571D01*
X16000000Y-97525000D02*
X16714286Y-97525000D01*
X15857143Y-97953571D02*
X16357143Y-96453571D01*
X16857143Y-97953571D01*
X18142857Y-96525000D02*
X18000000Y-96453571D01*
X17785714Y-96453571D01*
X17571429Y-96525000D01*
X17428571Y-96667857D01*
X17357143Y-96810714D01*
X17285714Y-97096429D01*
X17285714Y-97310714D01*
X17357143Y-97596429D01*
X17428571Y-97739286D01*
X17571429Y-97882143D01*
X17785714Y-97953571D01*
X17928571Y-97953571D01*
X18142857Y-97882143D01*
X18214286Y-97810714D01*
X18214286Y-97310714D01*
X17928571Y-97310714D01*
X55035713Y-3107143D02*
X55535713Y-3107143D01*
X55535713Y-2321429D02*
X55535713Y-3821429D01*
X54821427Y-3821429D01*
X54249999Y-2321429D02*
X54249999Y-3821429D01*
X53678571Y-3821429D01*
X53535713Y-3750000D01*
X53464285Y-3678571D01*
X53392856Y-3535714D01*
X53392856Y-3321429D01*
X53464285Y-3178571D01*
X53535713Y-3107143D01*
X53678571Y-3035714D01*
X54249999Y-3035714D01*
X51964285Y-3750000D02*
X52107142Y-3821429D01*
X52321428Y-3821429D01*
X52535713Y-3750000D01*
X52678571Y-3607143D01*
X52749999Y-3464286D01*
X52821428Y-3178571D01*
X52821428Y-2964286D01*
X52749999Y-2678571D01*
X52678571Y-2535714D01*
X52535713Y-2392857D01*
X52321428Y-2321429D01*
X52178571Y-2321429D01*
X51964285Y-2392857D01*
X51892856Y-2464286D01*
X51892856Y-2964286D01*
X52178571Y-2964286D01*
X51321428Y-2750000D02*
X50607142Y-2750000D01*
X51464285Y-2321429D02*
X50964285Y-3821429D01*
X50464285Y-2321429D01*
X48392857Y-3821429D02*
X48392857Y-2750000D01*
X48464285Y-2535714D01*
X48607142Y-2392857D01*
X48821428Y-2321429D01*
X48964285Y-2321429D01*
X47892857Y-3821429D02*
X47035714Y-3821429D01*
X47464285Y-2321429D02*
X47464285Y-3821429D01*
X46607143Y-2750000D02*
X45892857Y-2750000D01*
X46750000Y-2321429D02*
X46250000Y-3821429D01*
X45750000Y-2321429D01*
X44464286Y-3750000D02*
X44607143Y-3821429D01*
X44821429Y-3821429D01*
X45035714Y-3750000D01*
X45178572Y-3607143D01*
X45250000Y-3464286D01*
X45321429Y-3178571D01*
X45321429Y-2964286D01*
X45250000Y-2678571D01*
X45178572Y-2535714D01*
X45035714Y-2392857D01*
X44821429Y-2321429D01*
X44678572Y-2321429D01*
X44464286Y-2392857D01*
X44392857Y-2464286D01*
X44392857Y-2964286D01*
X44678572Y-2964286D01*
X90678571Y-7892857D02*
X90678571Y-8750000D01*
X90678571Y-8321428D02*
X89178571Y-8321428D01*
X89392857Y-8464285D01*
X89535714Y-8607143D01*
X89607143Y-8750000D01*
X89321429Y-7321429D02*
X89250000Y-7250000D01*
X89178571Y-7107143D01*
X89178571Y-6750000D01*
X89250000Y-6607143D01*
X89321429Y-6535714D01*
X89464286Y-6464286D01*
X89607143Y-6464286D01*
X89821429Y-6535714D01*
X90678571Y-7392857D01*
X90678571Y-6464286D01*
X89178571Y-6035715D02*
X90678571Y-5535715D01*
X89178571Y-5035715D01*
X90678571Y-3392858D02*
X89178571Y-3392858D01*
X90678571Y-2678572D02*
X89178571Y-2678572D01*
X90678571Y-1821429D01*
X89178571Y-1821429D01*
D12*
X1457143Y-88985714D02*
X1628572Y-89042857D01*
X1914286Y-89042857D01*
X2028572Y-88985714D01*
X2085715Y-88928571D01*
X2142858Y-88814286D01*
X2142858Y-88700000D01*
X2085715Y-88585714D01*
X2028572Y-88528571D01*
X1914286Y-88471429D01*
X1685715Y-88414286D01*
X1571429Y-88357143D01*
X1514286Y-88300000D01*
X1457143Y-88185714D01*
X1457143Y-88071429D01*
X1514286Y-87957143D01*
X1571429Y-87900000D01*
X1685715Y-87842857D01*
X1971429Y-87842857D01*
X2142858Y-87900000D01*
X2828572Y-89042857D02*
X2714286Y-88985714D01*
X2657143Y-88928571D01*
X2600000Y-88814286D01*
X2600000Y-88471429D01*
X2657143Y-88357143D01*
X2714286Y-88300000D01*
X2828572Y-88242857D01*
X3000000Y-88242857D01*
X3114286Y-88300000D01*
X3171429Y-88357143D01*
X3228572Y-88471429D01*
X3228572Y-88814286D01*
X3171429Y-88928571D01*
X3114286Y-88985714D01*
X3000000Y-89042857D01*
X2828572Y-89042857D01*
X3742857Y-88242857D02*
X3742857Y-89042857D01*
X3742857Y-88357143D02*
X3800000Y-88300000D01*
X3914286Y-88242857D01*
X4085714Y-88242857D01*
X4200000Y-88300000D01*
X4257143Y-88414286D01*
X4257143Y-89042857D01*
X5342857Y-89042857D02*
X5342857Y-88414286D01*
X5285714Y-88300000D01*
X5171428Y-88242857D01*
X4942857Y-88242857D01*
X4828571Y-88300000D01*
X5342857Y-88985714D02*
X5228571Y-89042857D01*
X4942857Y-89042857D01*
X4828571Y-88985714D01*
X4771428Y-88871429D01*
X4771428Y-88757143D01*
X4828571Y-88642857D01*
X4942857Y-88585714D01*
X5228571Y-88585714D01*
X5342857Y-88528571D01*
X5914285Y-89042857D02*
X5914285Y-88242857D01*
X5914285Y-88471429D02*
X5971428Y-88357143D01*
X6028571Y-88300000D01*
X6142857Y-88242857D01*
X6257142Y-88242857D01*
X8428571Y-87785714D02*
X7400000Y-89328571D01*
X9742857Y-89042857D02*
X9742857Y-87842857D01*
X10142857Y-88700000D01*
X10542857Y-87842857D01*
X10542857Y-89042857D01*
X11628572Y-89042857D02*
X11628572Y-88414286D01*
X11571429Y-88300000D01*
X11457143Y-88242857D01*
X11228572Y-88242857D01*
X11114286Y-88300000D01*
X11628572Y-88985714D02*
X11514286Y-89042857D01*
X11228572Y-89042857D01*
X11114286Y-88985714D01*
X11057143Y-88871429D01*
X11057143Y-88757143D01*
X11114286Y-88642857D01*
X11228572Y-88585714D01*
X11514286Y-88585714D01*
X11628572Y-88528571D01*
X12200000Y-89042857D02*
X12200000Y-88242857D01*
X12200000Y-87842857D02*
X12142857Y-87900000D01*
X12200000Y-87957143D01*
X12257143Y-87900000D01*
X12200000Y-87842857D01*
X12200000Y-87957143D01*
X12771429Y-88242857D02*
X12771429Y-89042857D01*
X12771429Y-88357143D02*
X12828572Y-88300000D01*
X12942858Y-88242857D01*
X13114286Y-88242857D01*
X13228572Y-88300000D01*
X13285715Y-88414286D01*
X13285715Y-89042857D01*
X14257143Y-88414286D02*
X14428572Y-88471429D01*
X14485715Y-88528571D01*
X14542858Y-88642857D01*
X14542858Y-88814286D01*
X14485715Y-88928571D01*
X14428572Y-88985714D01*
X14314286Y-89042857D01*
X13857143Y-89042857D01*
X13857143Y-87842857D01*
X14257143Y-87842857D01*
X14371429Y-87900000D01*
X14428572Y-87957143D01*
X14485715Y-88071429D01*
X14485715Y-88185714D01*
X14428572Y-88300000D01*
X14371429Y-88357143D01*
X14257143Y-88414286D01*
X13857143Y-88414286D01*
X15228572Y-89042857D02*
X15114286Y-88985714D01*
X15057143Y-88928571D01*
X15000000Y-88814286D01*
X15000000Y-88471429D01*
X15057143Y-88357143D01*
X15114286Y-88300000D01*
X15228572Y-88242857D01*
X15400000Y-88242857D01*
X15514286Y-88300000D01*
X15571429Y-88357143D01*
X15628572Y-88471429D01*
X15628572Y-88814286D01*
X15571429Y-88928571D01*
X15514286Y-88985714D01*
X15400000Y-89042857D01*
X15228572Y-89042857D01*
X16657143Y-89042857D02*
X16657143Y-88414286D01*
X16600000Y-88300000D01*
X16485714Y-88242857D01*
X16257143Y-88242857D01*
X16142857Y-88300000D01*
X16657143Y-88985714D02*
X16542857Y-89042857D01*
X16257143Y-89042857D01*
X16142857Y-88985714D01*
X16085714Y-88871429D01*
X16085714Y-88757143D01*
X16142857Y-88642857D01*
X16257143Y-88585714D01*
X16542857Y-88585714D01*
X16657143Y-88528571D01*
X17228571Y-89042857D02*
X17228571Y-88242857D01*
X17228571Y-88471429D02*
X17285714Y-88357143D01*
X17342857Y-88300000D01*
X17457143Y-88242857D01*
X17571428Y-88242857D01*
X18485714Y-89042857D02*
X18485714Y-87842857D01*
X18485714Y-88985714D02*
X18371428Y-89042857D01*
X18142857Y-89042857D01*
X18028571Y-88985714D01*
X17971428Y-88928571D01*
X17914285Y-88814286D01*
X17914285Y-88471429D01*
X17971428Y-88357143D01*
X18028571Y-88300000D01*
X18142857Y-88242857D01*
X18371428Y-88242857D01*
X18485714Y-88300000D01*
X4800000Y-79542857D02*
X4800000Y-78342857D01*
X5085715Y-78342857D01*
X5257143Y-78400000D01*
X5371429Y-78514286D01*
X5428572Y-78628571D01*
X5485715Y-78857143D01*
X5485715Y-79028571D01*
X5428572Y-79257143D01*
X5371429Y-79371429D01*
X5257143Y-79485714D01*
X5085715Y-79542857D01*
X4800000Y-79542857D01*
X6457143Y-79485714D02*
X6342857Y-79542857D01*
X6114286Y-79542857D01*
X6000000Y-79485714D01*
X5942857Y-79371429D01*
X5942857Y-78914286D01*
X6000000Y-78800000D01*
X6114286Y-78742857D01*
X6342857Y-78742857D01*
X6457143Y-78800000D01*
X6514286Y-78914286D01*
X6514286Y-79028571D01*
X5942857Y-79142857D01*
X6971428Y-79485714D02*
X7085714Y-79542857D01*
X7314286Y-79542857D01*
X7428571Y-79485714D01*
X7485714Y-79371429D01*
X7485714Y-79314286D01*
X7428571Y-79200000D01*
X7314286Y-79142857D01*
X7142857Y-79142857D01*
X7028571Y-79085714D01*
X6971428Y-78971429D01*
X6971428Y-78914286D01*
X7028571Y-78800000D01*
X7142857Y-78742857D01*
X7314286Y-78742857D01*
X7428571Y-78800000D01*
X8000000Y-79542857D02*
X8000000Y-78742857D01*
X8000000Y-78342857D02*
X7942857Y-78400000D01*
X8000000Y-78457143D01*
X8057143Y-78400000D01*
X8000000Y-78342857D01*
X8000000Y-78457143D01*
X9085715Y-78742857D02*
X9085715Y-79714286D01*
X9028572Y-79828571D01*
X8971429Y-79885714D01*
X8857144Y-79942857D01*
X8685715Y-79942857D01*
X8571429Y-79885714D01*
X9085715Y-79485714D02*
X8971429Y-79542857D01*
X8742858Y-79542857D01*
X8628572Y-79485714D01*
X8571429Y-79428571D01*
X8514286Y-79314286D01*
X8514286Y-78971429D01*
X8571429Y-78857143D01*
X8628572Y-78800000D01*
X8742858Y-78742857D01*
X8971429Y-78742857D01*
X9085715Y-78800000D01*
X9657143Y-78742857D02*
X9657143Y-79542857D01*
X9657143Y-78857143D02*
X9714286Y-78800000D01*
X9828572Y-78742857D01*
X10000000Y-78742857D01*
X10114286Y-78800000D01*
X10171429Y-78914286D01*
X10171429Y-79542857D01*
X11200000Y-79485714D02*
X11085714Y-79542857D01*
X10857143Y-79542857D01*
X10742857Y-79485714D01*
X10685714Y-79371429D01*
X10685714Y-78914286D01*
X10742857Y-78800000D01*
X10857143Y-78742857D01*
X11085714Y-78742857D01*
X11200000Y-78800000D01*
X11257143Y-78914286D01*
X11257143Y-79028571D01*
X10685714Y-79142857D01*
X12285714Y-79542857D02*
X12285714Y-78342857D01*
X12285714Y-79485714D02*
X12171428Y-79542857D01*
X11942857Y-79542857D01*
X11828571Y-79485714D01*
X11771428Y-79428571D01*
X11714285Y-79314286D01*
X11714285Y-78971429D01*
X11771428Y-78857143D01*
X11828571Y-78800000D01*
X11942857Y-78742857D01*
X12171428Y-78742857D01*
X12285714Y-78800000D01*
X13771428Y-79542857D02*
X13771428Y-78342857D01*
X13771428Y-78800000D02*
X13885714Y-78742857D01*
X14114285Y-78742857D01*
X14228571Y-78800000D01*
X14285714Y-78857143D01*
X14342857Y-78971429D01*
X14342857Y-79314286D01*
X14285714Y-79428571D01*
X14228571Y-79485714D01*
X14114285Y-79542857D01*
X13885714Y-79542857D01*
X13771428Y-79485714D01*
X14742857Y-78742857D02*
X15028571Y-79542857D01*
X15314285Y-78742857D02*
X15028571Y-79542857D01*
X14914285Y-79828571D01*
X14857142Y-79885714D01*
X14742857Y-79942857D01*
X3657144Y-80342857D02*
X4342858Y-80342857D01*
X4000001Y-81542857D02*
X4000001Y-80342857D01*
X5257144Y-81542857D02*
X5257144Y-80914286D01*
X5200001Y-80800000D01*
X5085715Y-80742857D01*
X4857144Y-80742857D01*
X4742858Y-80800000D01*
X5257144Y-81485714D02*
X5142858Y-81542857D01*
X4857144Y-81542857D01*
X4742858Y-81485714D01*
X4685715Y-81371429D01*
X4685715Y-81257143D01*
X4742858Y-81142857D01*
X4857144Y-81085714D01*
X5142858Y-81085714D01*
X5257144Y-81028571D01*
X5828572Y-81542857D02*
X5828572Y-80742857D01*
X5828572Y-80857143D02*
X5885715Y-80800000D01*
X6000001Y-80742857D01*
X6171429Y-80742857D01*
X6285715Y-80800000D01*
X6342858Y-80914286D01*
X6342858Y-81542857D01*
X6342858Y-80914286D02*
X6400001Y-80800000D01*
X6514287Y-80742857D01*
X6685715Y-80742857D01*
X6800001Y-80800000D01*
X6857144Y-80914286D01*
X6857144Y-81542857D01*
X7942858Y-81542857D02*
X7942858Y-80914286D01*
X7885715Y-80800000D01*
X7771429Y-80742857D01*
X7542858Y-80742857D01*
X7428572Y-80800000D01*
X7942858Y-81485714D02*
X7828572Y-81542857D01*
X7542858Y-81542857D01*
X7428572Y-81485714D01*
X7371429Y-81371429D01*
X7371429Y-81257143D01*
X7428572Y-81142857D01*
X7542858Y-81085714D01*
X7828572Y-81085714D01*
X7942858Y-81028571D01*
X8514286Y-80742857D02*
X8514286Y-81942857D01*
X8514286Y-80800000D02*
X8628572Y-80742857D01*
X8857143Y-80742857D01*
X8971429Y-80800000D01*
X9028572Y-80857143D01*
X9085715Y-80971429D01*
X9085715Y-81314286D01*
X9028572Y-81428571D01*
X8971429Y-81485714D01*
X8857143Y-81542857D01*
X8628572Y-81542857D01*
X8514286Y-81485714D01*
X9771429Y-81542857D02*
X9657143Y-81485714D01*
X9600000Y-81428571D01*
X9542857Y-81314286D01*
X9542857Y-80971429D01*
X9600000Y-80857143D01*
X9657143Y-80800000D01*
X9771429Y-80742857D01*
X9942857Y-80742857D01*
X10057143Y-80800000D01*
X10114286Y-80857143D01*
X10171429Y-80971429D01*
X10171429Y-81314286D01*
X10114286Y-81428571D01*
X10057143Y-81485714D01*
X9942857Y-81542857D01*
X9771429Y-81542857D01*
X11200000Y-81485714D02*
X11085714Y-81542857D01*
X10857143Y-81542857D01*
X10742857Y-81485714D01*
X10685714Y-81428571D01*
X10628571Y-81314286D01*
X10628571Y-80971429D01*
X10685714Y-80857143D01*
X10742857Y-80800000D01*
X10857143Y-80742857D01*
X11085714Y-80742857D01*
X11200000Y-80800000D01*
X11714285Y-81542857D02*
X11714285Y-80342857D01*
X12228571Y-81542857D02*
X12228571Y-80914286D01*
X12171428Y-80800000D01*
X12057142Y-80742857D01*
X11885714Y-80742857D01*
X11771428Y-80800000D01*
X11714285Y-80857143D01*
X12799999Y-81542857D02*
X12799999Y-80742857D01*
X12799999Y-80342857D02*
X12742856Y-80400000D01*
X12799999Y-80457143D01*
X12857142Y-80400000D01*
X12799999Y-80342857D01*
X12799999Y-80457143D01*
X13600000Y-80342857D02*
X13828571Y-80342857D01*
X13942857Y-80400000D01*
X14057143Y-80514286D01*
X14114285Y-80742857D01*
X14114285Y-81142857D01*
X14057143Y-81371429D01*
X13942857Y-81485714D01*
X13828571Y-81542857D01*
X13600000Y-81542857D01*
X13485714Y-81485714D01*
X13371428Y-81371429D01*
X13314285Y-81142857D01*
X13314285Y-80742857D01*
X13371428Y-80514286D01*
X13485714Y-80400000D01*
X13600000Y-80342857D01*
X14628571Y-80742857D02*
X14628571Y-81542857D01*
X14628571Y-80857143D02*
X14685714Y-80800000D01*
X14800000Y-80742857D01*
X14971428Y-80742857D01*
X15085714Y-80800000D01*
X15142857Y-80914286D01*
X15142857Y-81542857D01*
X16171428Y-81485714D02*
X16057142Y-81542857D01*
X15828571Y-81542857D01*
X15714285Y-81485714D01*
X15657142Y-81371429D01*
X15657142Y-80914286D01*
X15714285Y-80800000D01*
X15828571Y-80742857D01*
X16057142Y-80742857D01*
X16171428Y-80800000D01*
X16228571Y-80914286D01*
X16228571Y-81028571D01*
X15657142Y-81142857D01*
D13*
X87690000Y-97850000D02*
X87690000Y-92650000D01*
X72390000Y-97850000D02*
X87690000Y-97850000D01*
X69790000Y-92650000D02*
X87690000Y-92650000D01*
X72390000Y-97850000D02*
X72390000Y-95250000D01*
X72390000Y-95250000D02*
X69790000Y-95250000D01*
X69790000Y-95250000D02*
X69790000Y-92650000D01*
X71120000Y-97850000D02*
X69790000Y-97850000D01*
X69790000Y-97850000D02*
X69790000Y-96520000D01*
D14*
X67775000Y-29450000D02*
X72225000Y-29450000D01*
X66250000Y-22550000D02*
X72225000Y-22550000D01*
X39825000Y-24825000D02*
X39825000Y-25800000D01*
X60175000Y-24825000D02*
X60175000Y-25875000D01*
X60175000Y-45175000D02*
X60175000Y-44125000D01*
X39825000Y-45175000D02*
X39825000Y-44125000D01*
X39825000Y-24825000D02*
X40875000Y-24825000D01*
X39825000Y-45175000D02*
X40875000Y-45175000D01*
X60175000Y-45175000D02*
X59125000Y-45175000D01*
X60175000Y-24825000D02*
X59125000Y-24825000D01*
X39825000Y-25800000D02*
X38525000Y-25800000D01*
D13*
X87500000Y-84680000D02*
X86500000Y-84680000D01*
X86500000Y-83320000D02*
X87500000Y-83320000D01*
D14*
X49825000Y-79175000D02*
X50800000Y-79175000D01*
X49825000Y-58825000D02*
X50875000Y-58825000D01*
X70175000Y-58825000D02*
X69125000Y-58825000D01*
X70175000Y-79175000D02*
X69125000Y-79175000D01*
X49825000Y-79175000D02*
X49825000Y-78125000D01*
X70175000Y-79175000D02*
X70175000Y-78125000D01*
X70175000Y-58825000D02*
X70175000Y-59875000D01*
X49825000Y-58825000D02*
X49825000Y-59875000D01*
X50800000Y-79175000D02*
X50800000Y-80475000D01*
D13*
X47220000Y-86190000D02*
X47220000Y-93810000D01*
X67540000Y-93810000D02*
X67540000Y-86190000D01*
X67540000Y-92540000D02*
X47220000Y-92540000D01*
X47220000Y-86190000D02*
X67540000Y-86190000D01*
X47220000Y-93810000D02*
X67540000Y-93810000D01*
D14*
X22900000Y-77100000D02*
G75*
G03X22900000Y-77100000I-500000J0D01*
G01*
X21600000Y-77900000D02*
X21600000Y-79500000D01*
X21600000Y-67800000D02*
X21600000Y-77900000D01*
X44000000Y-77900000D02*
X44000000Y-67800000D01*
X39880000Y-86030000D02*
X39380000Y-84530000D01*
X39380000Y-84530000D02*
X40380000Y-84530000D01*
X40380000Y-84530000D02*
X39880000Y-86030000D01*
X19380000Y-99000000D02*
X19380000Y-90000000D01*
X45380000Y-90000000D02*
X45380000Y-99000000D01*
X84000000Y-73250000D02*
X82500000Y-73250000D01*
X85500000Y-74250000D02*
G75*
G03X85500000Y-74250000I-500000J0D01*
G01*
X84000000Y-78500000D02*
X84000000Y-78750000D01*
X84000000Y-78750000D02*
X88000000Y-78750000D01*
X88000000Y-78750000D02*
X88000000Y-78500000D01*
X84000000Y-73500000D02*
X84000000Y-73250000D01*
X84000000Y-73250000D02*
X88000000Y-73250000D01*
X88000000Y-73250000D02*
X88000000Y-73500000D01*
X84000000Y-67250000D02*
X82500000Y-67250000D01*
X85500000Y-68250000D02*
G75*
G03X85500000Y-68250000I-500000J0D01*
G01*
X84000000Y-72500000D02*
X84000000Y-72750000D01*
X84000000Y-72750000D02*
X88000000Y-72750000D01*
X88000000Y-72750000D02*
X88000000Y-72500000D01*
X84000000Y-67500000D02*
X84000000Y-67250000D01*
X84000000Y-67250000D02*
X88000000Y-67250000D01*
X88000000Y-67250000D02*
X88000000Y-67500000D01*
X84000000Y-61250000D02*
X82500000Y-61250000D01*
X85500000Y-62250000D02*
G75*
G03X85500000Y-62250000I-500000J0D01*
G01*
X84000000Y-66500000D02*
X84000000Y-66750000D01*
X84000000Y-66750000D02*
X88000000Y-66750000D01*
X88000000Y-66750000D02*
X88000000Y-66500000D01*
X84000000Y-61500000D02*
X84000000Y-61250000D01*
X84000000Y-61250000D02*
X88000000Y-61250000D01*
X88000000Y-61250000D02*
X88000000Y-61500000D01*
X84000000Y-55250000D02*
X82500000Y-55250000D01*
X85500000Y-56250000D02*
G75*
G03X85500000Y-56250000I-500000J0D01*
G01*
X84000000Y-60500000D02*
X84000000Y-60750000D01*
X84000000Y-60750000D02*
X88000000Y-60750000D01*
X88000000Y-60750000D02*
X88000000Y-60500000D01*
X84000000Y-55500000D02*
X84000000Y-55250000D01*
X84000000Y-55250000D02*
X88000000Y-55250000D01*
X88000000Y-55250000D02*
X88000000Y-55500000D01*
X84000000Y-49250000D02*
X82500000Y-49250000D01*
X85500000Y-50250000D02*
G75*
G03X85500000Y-50250000I-500000J0D01*
G01*
X84000000Y-54500000D02*
X84000000Y-54750000D01*
X84000000Y-54750000D02*
X88000000Y-54750000D01*
X88000000Y-54750000D02*
X88000000Y-54500000D01*
X84000000Y-49500000D02*
X84000000Y-49250000D01*
X84000000Y-49250000D02*
X88000000Y-49250000D01*
X88000000Y-49250000D02*
X88000000Y-49500000D01*
X84000000Y-43250000D02*
X82500000Y-43250000D01*
X85500000Y-44250000D02*
G75*
G03X85500000Y-44250000I-500000J0D01*
G01*
X84000000Y-48500000D02*
X84000000Y-48750000D01*
X84000000Y-48750000D02*
X88000000Y-48750000D01*
X88000000Y-48750000D02*
X88000000Y-48500000D01*
X84000000Y-43500000D02*
X84000000Y-43250000D01*
X84000000Y-43250000D02*
X88000000Y-43250000D01*
X88000000Y-43250000D02*
X88000000Y-43500000D01*
X84000000Y-37250000D02*
X82500000Y-37250000D01*
X85500000Y-38250000D02*
G75*
G03X85500000Y-38250000I-500000J0D01*
G01*
X84000000Y-42500000D02*
X84000000Y-42750000D01*
X84000000Y-42750000D02*
X88000000Y-42750000D01*
X88000000Y-42750000D02*
X88000000Y-42500000D01*
X84000000Y-37500000D02*
X84000000Y-37250000D01*
X84000000Y-37250000D02*
X88000000Y-37250000D01*
X88000000Y-37250000D02*
X88000000Y-37500000D01*
X84000000Y-31250000D02*
X82500000Y-31250000D01*
X85500000Y-32250000D02*
G75*
G03X85500000Y-32250000I-500000J0D01*
G01*
X84000000Y-36500000D02*
X84000000Y-36750000D01*
X84000000Y-36750000D02*
X88000000Y-36750000D01*
X88000000Y-36750000D02*
X88000000Y-36500000D01*
X84000000Y-31500000D02*
X84000000Y-31250000D01*
X84000000Y-31250000D02*
X88000000Y-31250000D01*
X88000000Y-31250000D02*
X88000000Y-31500000D01*
X84000000Y-25250000D02*
X82500000Y-25250000D01*
X85500000Y-26250000D02*
G75*
G03X85500000Y-26250000I-500000J0D01*
G01*
X84000000Y-30500000D02*
X84000000Y-30750000D01*
X84000000Y-30750000D02*
X88000000Y-30750000D01*
X88000000Y-30750000D02*
X88000000Y-30500000D01*
X84000000Y-25500000D02*
X84000000Y-25250000D01*
X84000000Y-25250000D02*
X88000000Y-25250000D01*
X88000000Y-25250000D02*
X88000000Y-25500000D01*
X67775000Y-47450000D02*
X72225000Y-47450000D01*
X66250000Y-40550000D02*
X72225000Y-40550000D01*
X67775000Y-38450000D02*
X72225000Y-38450000D01*
X66250000Y-31550000D02*
X72225000Y-31550000D01*
X45250000Y-14250000D02*
X46700000Y-14250000D01*
X45250000Y-8000000D02*
X45250000Y-7750000D01*
X45250000Y-7750000D02*
X40750000Y-7750000D01*
X40750000Y-7750000D02*
X40750000Y-8000000D01*
X45250000Y-14000000D02*
X45250000Y-14250000D01*
X45250000Y-14250000D02*
X40750000Y-14250000D01*
X40750000Y-14250000D02*
X40750000Y-14000000D01*
X44750000Y-13250000D02*
G75*
G03X44750000Y-13250000I-500000J0D01*
G01*
X17000000Y-73750000D02*
X18500000Y-73750000D01*
X16500000Y-72750000D02*
G75*
G03X16500000Y-72750000I-500000J0D01*
G01*
X17000000Y-68500000D02*
X17000000Y-68250000D01*
X17000000Y-68250000D02*
X13000000Y-68250000D01*
X13000000Y-68250000D02*
X13000000Y-68500000D01*
X17000000Y-73500000D02*
X17000000Y-73750000D01*
X17000000Y-73750000D02*
X13000000Y-73750000D01*
X13000000Y-73750000D02*
X13000000Y-73500000D01*
X17000000Y-67750000D02*
X18500000Y-67750000D01*
X16500000Y-66750000D02*
G75*
G03X16500000Y-66750000I-500000J0D01*
G01*
X17000000Y-62500000D02*
X17000000Y-62250000D01*
X17000000Y-62250000D02*
X13000000Y-62250000D01*
X13000000Y-62250000D02*
X13000000Y-62500000D01*
X17000000Y-67500000D02*
X17000000Y-67750000D01*
X17000000Y-67750000D02*
X13000000Y-67750000D01*
X13000000Y-67750000D02*
X13000000Y-67500000D01*
X17000000Y-61750000D02*
X18500000Y-61750000D01*
X16500000Y-60750000D02*
G75*
G03X16500000Y-60750000I-500000J0D01*
G01*
X17000000Y-56500000D02*
X17000000Y-56250000D01*
X17000000Y-56250000D02*
X13000000Y-56250000D01*
X13000000Y-56250000D02*
X13000000Y-56500000D01*
X17000000Y-61500000D02*
X17000000Y-61750000D01*
X17000000Y-61750000D02*
X13000000Y-61750000D01*
X13000000Y-61750000D02*
X13000000Y-61500000D01*
X17000000Y-55750000D02*
X18500000Y-55750000D01*
X16500000Y-54750000D02*
G75*
G03X16500000Y-54750000I-500000J0D01*
G01*
X17000000Y-50500000D02*
X17000000Y-50250000D01*
X17000000Y-50250000D02*
X13000000Y-50250000D01*
X13000000Y-50250000D02*
X13000000Y-50500000D01*
X17000000Y-55500000D02*
X17000000Y-55750000D01*
X17000000Y-55750000D02*
X13000000Y-55750000D01*
X13000000Y-55750000D02*
X13000000Y-55500000D01*
X17000000Y-49750000D02*
X18500000Y-49750000D01*
X16500000Y-48750000D02*
G75*
G03X16500000Y-48750000I-500000J0D01*
G01*
X17000000Y-44500000D02*
X17000000Y-44250000D01*
X17000000Y-44250000D02*
X13000000Y-44250000D01*
X13000000Y-44250000D02*
X13000000Y-44500000D01*
X17000000Y-49500000D02*
X17000000Y-49750000D01*
X17000000Y-49750000D02*
X13000000Y-49750000D01*
X13000000Y-49750000D02*
X13000000Y-49500000D01*
X17000000Y-43750000D02*
X18500000Y-43750000D01*
X16500000Y-42750000D02*
G75*
G03X16500000Y-42750000I-500000J0D01*
G01*
X17000000Y-38500000D02*
X17000000Y-38250000D01*
X17000000Y-38250000D02*
X13000000Y-38250000D01*
X13000000Y-38250000D02*
X13000000Y-38500000D01*
X17000000Y-43500000D02*
X17000000Y-43750000D01*
X17000000Y-43750000D02*
X13000000Y-43750000D01*
X13000000Y-43750000D02*
X13000000Y-43500000D01*
X17000000Y-37750000D02*
X18500000Y-37750000D01*
X16500000Y-36750000D02*
G75*
G03X16500000Y-36750000I-500000J0D01*
G01*
X17000000Y-32500000D02*
X17000000Y-32250000D01*
X17000000Y-32250000D02*
X13000000Y-32250000D01*
X13000000Y-32250000D02*
X13000000Y-32500000D01*
X17000000Y-37500000D02*
X17000000Y-37750000D01*
X17000000Y-37750000D02*
X13000000Y-37750000D01*
X13000000Y-37750000D02*
X13000000Y-37500000D01*
X17000000Y-31750000D02*
X18500000Y-31750000D01*
X16500000Y-30750000D02*
G75*
G03X16500000Y-30750000I-500000J0D01*
G01*
X17000000Y-26500000D02*
X17000000Y-26250000D01*
X17000000Y-26250000D02*
X13000000Y-26250000D01*
X13000000Y-26250000D02*
X13000000Y-26500000D01*
X17000000Y-31500000D02*
X17000000Y-31750000D01*
X17000000Y-31750000D02*
X13000000Y-31750000D01*
X13000000Y-31750000D02*
X13000000Y-31500000D01*
X17000000Y-25750000D02*
X18500000Y-25750000D01*
X16500000Y-24750000D02*
G75*
G03X16500000Y-24750000I-500000J0D01*
G01*
X17000000Y-20500000D02*
X17000000Y-20250000D01*
X17000000Y-20250000D02*
X13000000Y-20250000D01*
X13000000Y-20250000D02*
X13000000Y-20500000D01*
X17000000Y-25500000D02*
X17000000Y-25750000D01*
X17000000Y-25750000D02*
X13000000Y-25750000D01*
X13000000Y-25750000D02*
X13000000Y-25500000D01*
X17000000Y-19750000D02*
X18500000Y-19750000D01*
X16500000Y-18750000D02*
G75*
G03X16500000Y-18750000I-500000J0D01*
G01*
X17000000Y-14500000D02*
X17000000Y-14250000D01*
X17000000Y-14250000D02*
X13000000Y-14250000D01*
X13000000Y-14250000D02*
X13000000Y-14500000D01*
X17000000Y-19500000D02*
X17000000Y-19750000D01*
X17000000Y-19750000D02*
X13000000Y-19750000D01*
X13000000Y-19750000D02*
X13000000Y-19500000D01*
X32225000Y-22550000D02*
X27775000Y-22550000D01*
X33750000Y-29450000D02*
X27775000Y-29450000D01*
X32225000Y-31550000D02*
X27775000Y-31550000D01*
X33750000Y-38450000D02*
X27775000Y-38450000D01*
X32225000Y-40550000D02*
X27775000Y-40550000D01*
X33750000Y-47450000D02*
X27775000Y-47450000D01*
X78000000Y-12350000D02*
X78000000Y-17650000D01*
X84000000Y-12350000D02*
X78000000Y-12350000D01*
X84000000Y-17650000D02*
X84000000Y-12350000D01*
X78000000Y-17650000D02*
X84000000Y-17650000D01*
D13*
X36500000Y-9930000D02*
X35500000Y-9930000D01*
X35500000Y-8570000D02*
X36500000Y-8570000D01*
X36500000Y-11680000D02*
X35500000Y-11680000D01*
X35500000Y-10320000D02*
X36500000Y-10320000D01*
X36500000Y-13430000D02*
X35500000Y-13430000D01*
X35500000Y-12070000D02*
X36500000Y-12070000D01*
X77500000Y-88180000D02*
X76500000Y-88180000D01*
X76500000Y-86820000D02*
X77500000Y-86820000D01*
X77500000Y-90430000D02*
X76500000Y-90430000D01*
X76500000Y-89070000D02*
X77500000Y-89070000D01*
X50000000Y-16430000D02*
X49000000Y-16430000D01*
X49000000Y-15070000D02*
X50000000Y-15070000D01*
X50000000Y-18180000D02*
X49000000Y-18180000D01*
X49000000Y-16820000D02*
X50000000Y-16820000D01*
X50000000Y-19930000D02*
X49000000Y-19930000D01*
X49000000Y-18570000D02*
X50000000Y-18570000D01*
X40430000Y-81250000D02*
X40430000Y-82250000D01*
X39070000Y-82250000D02*
X39070000Y-81250000D01*
X35180000Y-81250000D02*
X35180000Y-82250000D01*
X33820000Y-82250000D02*
X33820000Y-81250000D01*
X36930000Y-81250000D02*
X36930000Y-82250000D01*
X35570000Y-82250000D02*
X35570000Y-81250000D01*
X34500000Y-62070000D02*
X35500000Y-62070000D01*
X35500000Y-63430000D02*
X34500000Y-63430000D01*
X38680000Y-81250000D02*
X38680000Y-82250000D01*
X37320000Y-82250000D02*
X37320000Y-81250000D01*
X60500000Y-83680000D02*
X59500000Y-83680000D01*
X59500000Y-82320000D02*
X60500000Y-82320000D01*
X84500000Y-20680000D02*
X83500000Y-20680000D01*
X83500000Y-19320000D02*
X84500000Y-19320000D01*
X22250000Y-89430000D02*
X21250000Y-89430000D01*
X21250000Y-88070000D02*
X22250000Y-88070000D01*
X31570000Y-85250000D02*
X31570000Y-84250000D01*
X32930000Y-84250000D02*
X32930000Y-85250000D01*
X67430000Y-16000000D02*
X67430000Y-17000000D01*
X66070000Y-17000000D02*
X66070000Y-16000000D01*
X24070000Y-85250000D02*
X24070000Y-84250000D01*
X25430000Y-84250000D02*
X25430000Y-85250000D01*
X26570000Y-85250000D02*
X26570000Y-84250000D01*
X27930000Y-84250000D02*
X27930000Y-85250000D01*
X29070000Y-85250000D02*
X29070000Y-84250000D01*
X30430000Y-84250000D02*
X30430000Y-85250000D01*
X43500000Y-89680000D02*
X42500000Y-89680000D01*
X42500000Y-88320000D02*
X43500000Y-88320000D01*
X34070000Y-85250000D02*
X34070000Y-84250000D01*
X35430000Y-84250000D02*
X35430000Y-85250000D01*
X37930000Y-84250000D02*
X37930000Y-85250000D01*
X36570000Y-85250000D02*
X36570000Y-84250000D01*
X41820000Y-85250000D02*
X41820000Y-84250000D01*
X43180000Y-84250000D02*
X43180000Y-85250000D01*
X84320000Y-87750000D02*
X84320000Y-86750000D01*
X85680000Y-86750000D02*
X85680000Y-87750000D01*
X87500000Y-82430000D02*
X86500000Y-82430000D01*
X86500000Y-81070000D02*
X87500000Y-81070000D01*
X88000000Y-87180000D02*
X87000000Y-87180000D01*
X87000000Y-85820000D02*
X88000000Y-85820000D01*
X70180000Y-16000000D02*
X70180000Y-17000000D01*
X68820000Y-17000000D02*
X68820000Y-16000000D01*
X64680000Y-16000000D02*
X64680000Y-17000000D01*
X63320000Y-17000000D02*
X63320000Y-16000000D01*
X55680000Y-11000000D02*
X55680000Y-12000000D01*
X54320000Y-12000000D02*
X54320000Y-11000000D01*
X37640000Y-52300000D02*
X37700000Y-52300000D01*
X37700000Y-52300000D02*
X37700000Y-57700000D01*
X37700000Y-57700000D02*
X37640000Y-57700000D01*
X32560000Y-52300000D02*
X35440000Y-52300000D01*
X30360000Y-58300000D02*
X30360000Y-57700000D01*
X30360000Y-57700000D02*
X30300000Y-57700000D01*
X30300000Y-57700000D02*
X30300000Y-52300000D01*
X30300000Y-52300000D02*
X30360000Y-52300000D01*
X35440000Y-57700000D02*
X32560000Y-57700000D01*
X32560000Y-57700000D02*
X32560000Y-58300000D01*
X92650000Y-74990000D02*
X97850000Y-74990000D01*
X92650000Y-26670000D02*
X92650000Y-74990000D01*
X97850000Y-24070000D02*
X97850000Y-74990000D01*
X92650000Y-26670000D02*
X95250000Y-26670000D01*
X95250000Y-26670000D02*
X95250000Y-24070000D01*
X95250000Y-24070000D02*
X97850000Y-24070000D01*
X92650000Y-25400000D02*
X92650000Y-24070000D01*
X92650000Y-24070000D02*
X93980000Y-24070000D01*
X2480000Y-74990000D02*
X7680000Y-74990000D01*
X2480000Y-26670000D02*
X2480000Y-74990000D01*
X7680000Y-24070000D02*
X7680000Y-74990000D01*
X2480000Y-26670000D02*
X5080000Y-26670000D01*
X5080000Y-26670000D02*
X5080000Y-24070000D01*
X5080000Y-24070000D02*
X7680000Y-24070000D01*
X2480000Y-25400000D02*
X2480000Y-24070000D01*
X2480000Y-24070000D02*
X3810000Y-24070000D01*
X11370000Y-3750000D02*
X11370000Y-8950000D01*
X26670000Y-3750000D02*
X11370000Y-3750000D01*
X29270000Y-8950000D02*
X11370000Y-8950000D01*
X26670000Y-3750000D02*
X26670000Y-6350000D01*
X26670000Y-6350000D02*
X29270000Y-6350000D01*
X29270000Y-6350000D02*
X29270000Y-8950000D01*
X27940000Y-3750000D02*
X29270000Y-3750000D01*
X29270000Y-3750000D02*
X29270000Y-5080000D01*
X57510000Y-8560000D02*
X70330000Y-8560000D01*
X70330000Y-8560000D02*
X70330000Y-5900000D01*
X70330000Y-5900000D02*
X57510000Y-5900000D01*
X57510000Y-5900000D02*
X57510000Y-8560000D01*
X58460000Y-5900000D02*
X58460000Y100000D01*
X58460000Y100000D02*
X59220000Y100000D01*
X59220000Y100000D02*
X59220000Y-5900000D01*
X58520000Y-5900000D02*
X58520000Y100000D01*
X58640000Y-5900000D02*
X58640000Y100000D01*
X58760000Y-5900000D02*
X58760000Y100000D01*
X58880000Y-5900000D02*
X58880000Y100000D01*
X59000000Y-5900000D02*
X59000000Y100000D01*
X59120000Y-5900000D02*
X59120000Y100000D01*
X58460000Y-8957071D02*
X58460000Y-8560000D01*
X59220000Y-8957071D02*
X59220000Y-8560000D01*
X58460000Y-11430000D02*
X58460000Y-11042929D01*
X59220000Y-11430000D02*
X59220000Y-11042929D01*
X60110000Y-8560000D02*
X60110000Y-5900000D01*
X61000000Y-5900000D02*
X61000000Y100000D01*
X61000000Y100000D02*
X61760000Y100000D01*
X61760000Y100000D02*
X61760000Y-5900000D01*
X61000000Y-8957071D02*
X61000000Y-8560000D01*
X61760000Y-8957071D02*
X61760000Y-8560000D01*
X61000000Y-11497071D02*
X61000000Y-11042929D01*
X61760000Y-11497071D02*
X61760000Y-11042929D01*
X62650000Y-8560000D02*
X62650000Y-5900000D01*
X63540000Y-5900000D02*
X63540000Y100000D01*
X63540000Y100000D02*
X64300000Y100000D01*
X64300000Y100000D02*
X64300000Y-5900000D01*
X63540000Y-8957071D02*
X63540000Y-8560000D01*
X64300000Y-8957071D02*
X64300000Y-8560000D01*
X63540000Y-11497071D02*
X63540000Y-11042929D01*
X64300000Y-11497071D02*
X64300000Y-11042929D01*
X65190000Y-8560000D02*
X65190000Y-5900000D01*
X66080000Y-5900000D02*
X66080000Y100000D01*
X66080000Y100000D02*
X66840000Y100000D01*
X66840000Y100000D02*
X66840000Y-5900000D01*
X66080000Y-8957071D02*
X66080000Y-8560000D01*
X66840000Y-8957071D02*
X66840000Y-8560000D01*
X66080000Y-11497071D02*
X66080000Y-11042929D01*
X66840000Y-11497071D02*
X66840000Y-11042929D01*
X67730000Y-8560000D02*
X67730000Y-5900000D01*
X68620000Y-5900000D02*
X68620000Y100000D01*
X68620000Y100000D02*
X69380000Y100000D01*
X69380000Y100000D02*
X69380000Y-5900000D01*
X68620000Y-8957071D02*
X68620000Y-8560000D01*
X69380000Y-8957071D02*
X69380000Y-8560000D01*
X68620000Y-11497071D02*
X68620000Y-11042929D01*
X69380000Y-11497071D02*
X69380000Y-11042929D01*
X58840000Y-13810000D02*
X57570000Y-13810000D01*
X57570000Y-13810000D02*
X57570000Y-12540000D01*
D14*
X92200000Y-80800000D02*
X99800000Y-80800000D01*
X92200000Y-89200000D02*
X99800000Y-89200000D01*
D13*
X92540000Y-9380000D02*
X92540000Y-19540000D01*
X93810000Y-9380000D02*
X86190000Y-9380000D01*
X86190000Y-9380000D02*
X86190000Y-19540000D01*
X86190000Y-19540000D02*
X93810000Y-19540000D01*
X93810000Y-19540000D02*
X93810000Y-9380000D01*
X81030000Y-73000000D02*
X81030000Y-73500000D01*
X81970000Y-73500000D02*
X81970000Y-73000000D01*
X81030000Y-67000000D02*
X81030000Y-67500000D01*
X81970000Y-67500000D02*
X81970000Y-67000000D01*
X81030000Y-61000000D02*
X81030000Y-61500000D01*
X81970000Y-61500000D02*
X81970000Y-61000000D01*
X81030000Y-55000000D02*
X81030000Y-55500000D01*
X81970000Y-55500000D02*
X81970000Y-55000000D01*
X81030000Y-49000000D02*
X81030000Y-49500000D01*
X81970000Y-49500000D02*
X81970000Y-49000000D01*
X81030000Y-43000000D02*
X81030000Y-43500000D01*
X81970000Y-43500000D02*
X81970000Y-43000000D01*
X81030000Y-37000000D02*
X81030000Y-37500000D01*
X81970000Y-37500000D02*
X81970000Y-37000000D01*
X81030000Y-31000000D02*
X81030000Y-31500000D01*
X81970000Y-31500000D02*
X81970000Y-31000000D01*
X81030000Y-25000000D02*
X81030000Y-25500000D01*
X81970000Y-25500000D02*
X81970000Y-25000000D01*
X69750000Y-39970000D02*
X70250000Y-39970000D01*
X70250000Y-39030000D02*
X69750000Y-39030000D01*
X69750000Y-30970000D02*
X70250000Y-30970000D01*
X70250000Y-30030000D02*
X69750000Y-30030000D01*
X69750000Y-21970000D02*
X70250000Y-21970000D01*
X70250000Y-21030000D02*
X69750000Y-21030000D01*
X19970000Y-74000000D02*
X19970000Y-73500000D01*
X19030000Y-73500000D02*
X19030000Y-74000000D01*
X19970000Y-68000000D02*
X19970000Y-67500000D01*
X19030000Y-67500000D02*
X19030000Y-68000000D01*
X19970000Y-62000000D02*
X19970000Y-61500000D01*
X19030000Y-61500000D02*
X19030000Y-62000000D01*
X19970000Y-56000000D02*
X19970000Y-55500000D01*
X19030000Y-55500000D02*
X19030000Y-56000000D01*
X19970000Y-50000000D02*
X19970000Y-49500000D01*
X19030000Y-49500000D02*
X19030000Y-50000000D01*
X19970000Y-44000000D02*
X19970000Y-43500000D01*
X19030000Y-43500000D02*
X19030000Y-44000000D01*
X19970000Y-38000000D02*
X19970000Y-37500000D01*
X19030000Y-37500000D02*
X19030000Y-38000000D01*
X19970000Y-32000000D02*
X19970000Y-31500000D01*
X19030000Y-31500000D02*
X19030000Y-32000000D01*
X19970000Y-26000000D02*
X19970000Y-25500000D01*
X19030000Y-25500000D02*
X19030000Y-26000000D01*
X19970000Y-20000000D02*
X19970000Y-19500000D01*
X19030000Y-19500000D02*
X19030000Y-20000000D01*
X30250000Y-30030000D02*
X29750000Y-30030000D01*
X29750000Y-30970000D02*
X30250000Y-30970000D01*
X30250000Y-39030000D02*
X29750000Y-39030000D01*
X29750000Y-39970000D02*
X30250000Y-39970000D01*
X30250000Y-48030000D02*
X29750000Y-48030000D01*
X29750000Y-48970000D02*
X30250000Y-48970000D01*
X29620000Y-53700000D02*
X29620000Y-53200000D01*
X28680000Y-53200000D02*
X28680000Y-53700000D01*
X41280000Y-21750000D02*
X41280000Y-22250000D01*
X42220000Y-22250000D02*
X42220000Y-21750000D01*
X43280000Y-21750000D02*
X43280000Y-22250000D01*
X44220000Y-22250000D02*
X44220000Y-21750000D01*
X50250000Y-21130000D02*
X49750000Y-21130000D01*
X49750000Y-22070000D02*
X50250000Y-22070000D01*
X54530000Y-21750000D02*
X54530000Y-22250000D01*
X55470000Y-22250000D02*
X55470000Y-21750000D01*
X55530000Y-21750000D02*
X55530000Y-22250000D01*
X56470000Y-22250000D02*
X56470000Y-21750000D01*
X61500000Y-23780000D02*
X61000000Y-23780000D01*
X61000000Y-24720000D02*
X61500000Y-24720000D01*
X63250000Y-26030000D02*
X62750000Y-26030000D01*
X62750000Y-26970000D02*
X63250000Y-26970000D01*
X63250000Y-28030000D02*
X62750000Y-28030000D01*
X62750000Y-28970000D02*
X63250000Y-28970000D01*
X63250000Y-32530000D02*
X62750000Y-32530000D01*
X62750000Y-33470000D02*
X63250000Y-33470000D01*
X63250000Y-38530000D02*
X62750000Y-38530000D01*
X62750000Y-39470000D02*
X63250000Y-39470000D01*
X61220000Y-46500000D02*
X61220000Y-46000000D01*
X60280000Y-46000000D02*
X60280000Y-46500000D01*
X58720000Y-48250000D02*
X58720000Y-47750000D01*
X57780000Y-47750000D02*
X57780000Y-48250000D01*
X56970000Y-48250000D02*
X56970000Y-47750000D01*
X56030000Y-47750000D02*
X56030000Y-48250000D01*
X48500000Y-47280000D02*
X48000000Y-47280000D01*
X48000000Y-48220000D02*
X48500000Y-48220000D01*
X43250000Y-47530000D02*
X42750000Y-47530000D01*
X42750000Y-48470000D02*
X43250000Y-48470000D01*
X38500000Y-46220000D02*
X39000000Y-46220000D01*
X39000000Y-45280000D02*
X38500000Y-45280000D01*
X36750000Y-43470000D02*
X37250000Y-43470000D01*
X37250000Y-42530000D02*
X36750000Y-42530000D01*
X36750000Y-41720000D02*
X37250000Y-41720000D01*
X37250000Y-40780000D02*
X36750000Y-40780000D01*
X36750000Y-37720000D02*
X37250000Y-37720000D01*
X37250000Y-36780000D02*
X36750000Y-36780000D01*
X36750000Y-30720000D02*
X37250000Y-30720000D01*
X37250000Y-29780000D02*
X36750000Y-29780000D01*
X36750000Y-28470000D02*
X37250000Y-28470000D01*
X37250000Y-27530000D02*
X36750000Y-27530000D01*
X36750000Y-27220000D02*
X37250000Y-27220000D01*
X37250000Y-26280000D02*
X36750000Y-26280000D01*
X38780000Y-23500000D02*
X38780000Y-24000000D01*
X39720000Y-24000000D02*
X39720000Y-23500000D01*
X28000000Y-64530000D02*
X27500000Y-64530000D01*
X27500000Y-65470000D02*
X28000000Y-65470000D01*
X32250000Y-64530000D02*
X31750000Y-64530000D01*
X31750000Y-65470000D02*
X32250000Y-65470000D01*
X44780000Y-78000000D02*
X44780000Y-78500000D01*
X45720000Y-78500000D02*
X45720000Y-78000000D01*
X20030000Y-78000000D02*
X20030000Y-78500000D01*
X20970000Y-78500000D02*
X20970000Y-78000000D01*
X46780000Y-76500000D02*
X46780000Y-77000000D01*
X47720000Y-77000000D02*
X47720000Y-76500000D01*
X46780000Y-71500000D02*
X46780000Y-72000000D01*
X47720000Y-72000000D02*
X47720000Y-71500000D01*
X46780000Y-64250000D02*
X46780000Y-64750000D01*
X47720000Y-64750000D02*
X47720000Y-64250000D01*
X53000000Y-56970000D02*
X53500000Y-56970000D01*
X53500000Y-56030000D02*
X53000000Y-56030000D01*
X59000000Y-56970000D02*
X59500000Y-56970000D01*
X59500000Y-56030000D02*
X59000000Y-56030000D01*
X67500000Y-56720000D02*
X68000000Y-56720000D01*
X68000000Y-55780000D02*
X67500000Y-55780000D01*
X73220000Y-67500000D02*
X73220000Y-67000000D01*
X72280000Y-67000000D02*
X72280000Y-67500000D01*
X73030000Y-72250000D02*
X73030000Y-72750000D01*
X73970000Y-72750000D02*
X73970000Y-72250000D01*
X62750000Y-81280000D02*
X62250000Y-81280000D01*
X62250000Y-82220000D02*
X62750000Y-82220000D01*
X57250000Y-82220000D02*
X57750000Y-82220000D01*
X57750000Y-81280000D02*
X57250000Y-81280000D01*
X52950000Y-81280000D02*
X52450000Y-81280000D01*
X52450000Y-82220000D02*
X52950000Y-82220000D01*
X73520000Y-15000000D02*
X73520000Y-17000000D01*
X76480000Y-17000000D02*
X76480000Y-15000000D01*
X82650000Y-87600000D02*
X82650000Y-86900000D01*
X83850000Y-86900000D02*
X83850000Y-87600000D01*
X25500000Y-80280000D02*
X25000000Y-80280000D01*
X25000000Y-81220000D02*
X25500000Y-81220000D01*
X30250000Y-80280000D02*
X29750000Y-80280000D01*
X29750000Y-81220000D02*
X30250000Y-81220000D01*
X32000000Y-81220000D02*
X32500000Y-81220000D01*
X32500000Y-80280000D02*
X32000000Y-80280000D01*
D14*
X68242381Y-95583333D02*
X68956667Y-95583333D01*
X69099524Y-95630953D01*
X69194762Y-95726191D01*
X69242381Y-95869048D01*
X69242381Y-95964286D01*
X69242381Y-95059524D02*
X69242381Y-94869048D01*
X69194762Y-94773809D01*
X69147143Y-94726190D01*
X69004286Y-94630952D01*
X68813810Y-94583333D01*
X68432857Y-94583333D01*
X68337619Y-94630952D01*
X68290000Y-94678571D01*
X68242381Y-94773809D01*
X68242381Y-94964286D01*
X68290000Y-95059524D01*
X68337619Y-95107143D01*
X68432857Y-95154762D01*
X68670952Y-95154762D01*
X68766190Y-95107143D01*
X68813810Y-95059524D01*
X68861429Y-94964286D01*
X68861429Y-94773809D01*
X68813810Y-94678571D01*
X68766190Y-94630952D01*
X68670952Y-94583333D01*
X74361905Y-25452381D02*
X74361905Y-26261905D01*
X74409524Y-26357143D01*
X74457143Y-26404762D01*
X74552381Y-26452381D01*
X74742858Y-26452381D01*
X74838096Y-26404762D01*
X74885715Y-26357143D01*
X74933334Y-26261905D01*
X74933334Y-25452381D01*
X75933334Y-26452381D02*
X75361905Y-26452381D01*
X75647619Y-26452381D02*
X75647619Y-25452381D01*
X75552381Y-25595238D01*
X75457143Y-25690476D01*
X75361905Y-25738095D01*
X76409524Y-26452381D02*
X76600000Y-26452381D01*
X76695239Y-26404762D01*
X76742858Y-26357143D01*
X76838096Y-26214286D01*
X76885715Y-26023810D01*
X76885715Y-25642857D01*
X76838096Y-25547619D01*
X76790477Y-25500000D01*
X76695239Y-25452381D01*
X76504762Y-25452381D01*
X76409524Y-25500000D01*
X76361905Y-25547619D01*
X76314286Y-25642857D01*
X76314286Y-25880952D01*
X76361905Y-25976190D01*
X76409524Y-26023810D01*
X76504762Y-26071429D01*
X76695239Y-26071429D01*
X76790477Y-26023810D01*
X76838096Y-25976190D01*
X76885715Y-25880952D01*
X36488095Y-23202381D02*
X36488095Y-24011905D01*
X36535714Y-24107143D01*
X36583333Y-24154762D01*
X36678571Y-24202381D01*
X36869048Y-24202381D01*
X36964286Y-24154762D01*
X37011905Y-24107143D01*
X37059524Y-24011905D01*
X37059524Y-23202381D01*
X37964286Y-23535714D02*
X37964286Y-24202381D01*
X37726190Y-23154762D02*
X37488095Y-23869048D01*
X38107143Y-23869048D01*
X84233334Y-84452381D02*
X83900000Y-83976190D01*
X83661905Y-84452381D02*
X83661905Y-83452381D01*
X84042858Y-83452381D01*
X84138096Y-83500000D01*
X84185715Y-83547619D01*
X84233334Y-83642857D01*
X84233334Y-83785714D01*
X84185715Y-83880952D01*
X84138096Y-83928571D01*
X84042858Y-83976190D01*
X83661905Y-83976190D01*
X85138096Y-83452381D02*
X84661905Y-83452381D01*
X84614286Y-83928571D01*
X84661905Y-83880952D01*
X84757143Y-83833333D01*
X84995239Y-83833333D01*
X85090477Y-83880952D01*
X85138096Y-83928571D01*
X85185715Y-84023810D01*
X85185715Y-84261905D01*
X85138096Y-84357143D01*
X85090477Y-84404762D01*
X84995239Y-84452381D01*
X84757143Y-84452381D01*
X84661905Y-84404762D01*
X84614286Y-84357143D01*
X47738095Y-58202381D02*
X47738095Y-59011905D01*
X47785714Y-59107143D01*
X47833333Y-59154762D01*
X47928571Y-59202381D01*
X48119048Y-59202381D01*
X48214286Y-59154762D01*
X48261905Y-59107143D01*
X48309524Y-59011905D01*
X48309524Y-58202381D01*
X48738095Y-58297619D02*
X48785714Y-58250000D01*
X48880952Y-58202381D01*
X49119048Y-58202381D01*
X49214286Y-58250000D01*
X49261905Y-58297619D01*
X49309524Y-58392857D01*
X49309524Y-58488095D01*
X49261905Y-58630952D01*
X48690476Y-59202381D01*
X49309524Y-59202381D01*
X49666667Y-84652381D02*
X49666667Y-85366667D01*
X49619047Y-85509524D01*
X49523809Y-85604762D01*
X49380952Y-85652381D01*
X49285714Y-85652381D01*
X50095238Y-84747619D02*
X50142857Y-84700000D01*
X50238095Y-84652381D01*
X50476191Y-84652381D01*
X50571429Y-84700000D01*
X50619048Y-84747619D01*
X50666667Y-84842857D01*
X50666667Y-84938095D01*
X50619048Y-85080952D01*
X50047619Y-85652381D01*
X50666667Y-85652381D01*
X20952381Y-81761905D02*
X21761905Y-81761905D01*
X21857143Y-81714286D01*
X21904762Y-81666667D01*
X21952381Y-81571429D01*
X21952381Y-81380952D01*
X21904762Y-81285714D01*
X21857143Y-81238095D01*
X21761905Y-81190476D01*
X20952381Y-81190476D01*
X20952381Y-80809524D02*
X20952381Y-80190476D01*
X21333333Y-80523810D01*
X21333333Y-80380952D01*
X21380952Y-80285714D01*
X21428571Y-80238095D01*
X21523810Y-80190476D01*
X21761905Y-80190476D01*
X21857143Y-80238095D01*
X21904762Y-80285714D01*
X21952381Y-80380952D01*
X21952381Y-80666667D01*
X21904762Y-80761905D01*
X21857143Y-80809524D01*
X17866667Y-91452381D02*
X17866667Y-92166667D01*
X17819047Y-92309524D01*
X17723809Y-92404762D01*
X17580952Y-92452381D01*
X17485714Y-92452381D01*
X18247619Y-91452381D02*
X18866667Y-91452381D01*
X18533333Y-91833333D01*
X18676191Y-91833333D01*
X18771429Y-91880952D01*
X18819048Y-91928571D01*
X18866667Y-92023810D01*
X18866667Y-92261905D01*
X18819048Y-92357143D01*
X18771429Y-92404762D01*
X18676191Y-92452381D01*
X18390476Y-92452381D01*
X18295238Y-92404762D01*
X18247619Y-92357143D01*
X89961905Y-75452381D02*
X89961905Y-76261905D01*
X90009524Y-76357143D01*
X90057143Y-76404762D01*
X90152381Y-76452381D01*
X90342858Y-76452381D01*
X90438096Y-76404762D01*
X90485715Y-76357143D01*
X90533334Y-76261905D01*
X90533334Y-75452381D01*
X90914286Y-75452381D02*
X91533334Y-75452381D01*
X91200000Y-75833333D01*
X91342858Y-75833333D01*
X91438096Y-75880952D01*
X91485715Y-75928571D01*
X91533334Y-76023810D01*
X91533334Y-76261905D01*
X91485715Y-76357143D01*
X91438096Y-76404762D01*
X91342858Y-76452381D01*
X91057143Y-76452381D01*
X90961905Y-76404762D01*
X90914286Y-76357143D01*
X92152381Y-75452381D02*
X92247620Y-75452381D01*
X92342858Y-75500000D01*
X92390477Y-75547619D01*
X92438096Y-75642857D01*
X92485715Y-75833333D01*
X92485715Y-76071429D01*
X92438096Y-76261905D01*
X92390477Y-76357143D01*
X92342858Y-76404762D01*
X92247620Y-76452381D01*
X92152381Y-76452381D01*
X92057143Y-76404762D01*
X92009524Y-76357143D01*
X91961905Y-76261905D01*
X91914286Y-76071429D01*
X91914286Y-75833333D01*
X91961905Y-75642857D01*
X92009524Y-75547619D01*
X92057143Y-75500000D01*
X92152381Y-75452381D01*
X89961905Y-69452381D02*
X89961905Y-70261905D01*
X90009524Y-70357143D01*
X90057143Y-70404762D01*
X90152381Y-70452381D01*
X90342858Y-70452381D01*
X90438096Y-70404762D01*
X90485715Y-70357143D01*
X90533334Y-70261905D01*
X90533334Y-69452381D01*
X90961905Y-69547619D02*
X91009524Y-69500000D01*
X91104762Y-69452381D01*
X91342858Y-69452381D01*
X91438096Y-69500000D01*
X91485715Y-69547619D01*
X91533334Y-69642857D01*
X91533334Y-69738095D01*
X91485715Y-69880952D01*
X90914286Y-70452381D01*
X91533334Y-70452381D01*
X92009524Y-70452381D02*
X92200000Y-70452381D01*
X92295239Y-70404762D01*
X92342858Y-70357143D01*
X92438096Y-70214286D01*
X92485715Y-70023810D01*
X92485715Y-69642857D01*
X92438096Y-69547619D01*
X92390477Y-69500000D01*
X92295239Y-69452381D01*
X92104762Y-69452381D01*
X92009524Y-69500000D01*
X91961905Y-69547619D01*
X91914286Y-69642857D01*
X91914286Y-69880952D01*
X91961905Y-69976190D01*
X92009524Y-70023810D01*
X92104762Y-70071429D01*
X92295239Y-70071429D01*
X92390477Y-70023810D01*
X92438096Y-69976190D01*
X92485715Y-69880952D01*
X89961905Y-63452381D02*
X89961905Y-64261905D01*
X90009524Y-64357143D01*
X90057143Y-64404762D01*
X90152381Y-64452381D01*
X90342858Y-64452381D01*
X90438096Y-64404762D01*
X90485715Y-64357143D01*
X90533334Y-64261905D01*
X90533334Y-63452381D01*
X90961905Y-63547619D02*
X91009524Y-63500000D01*
X91104762Y-63452381D01*
X91342858Y-63452381D01*
X91438096Y-63500000D01*
X91485715Y-63547619D01*
X91533334Y-63642857D01*
X91533334Y-63738095D01*
X91485715Y-63880952D01*
X90914286Y-64452381D01*
X91533334Y-64452381D01*
X92104762Y-63880952D02*
X92009524Y-63833333D01*
X91961905Y-63785714D01*
X91914286Y-63690476D01*
X91914286Y-63642857D01*
X91961905Y-63547619D01*
X92009524Y-63500000D01*
X92104762Y-63452381D01*
X92295239Y-63452381D01*
X92390477Y-63500000D01*
X92438096Y-63547619D01*
X92485715Y-63642857D01*
X92485715Y-63690476D01*
X92438096Y-63785714D01*
X92390477Y-63833333D01*
X92295239Y-63880952D01*
X92104762Y-63880952D01*
X92009524Y-63928571D01*
X91961905Y-63976190D01*
X91914286Y-64071429D01*
X91914286Y-64261905D01*
X91961905Y-64357143D01*
X92009524Y-64404762D01*
X92104762Y-64452381D01*
X92295239Y-64452381D01*
X92390477Y-64404762D01*
X92438096Y-64357143D01*
X92485715Y-64261905D01*
X92485715Y-64071429D01*
X92438096Y-63976190D01*
X92390477Y-63928571D01*
X92295239Y-63880952D01*
X89961905Y-57452381D02*
X89961905Y-58261905D01*
X90009524Y-58357143D01*
X90057143Y-58404762D01*
X90152381Y-58452381D01*
X90342858Y-58452381D01*
X90438096Y-58404762D01*
X90485715Y-58357143D01*
X90533334Y-58261905D01*
X90533334Y-57452381D01*
X90961905Y-57547619D02*
X91009524Y-57500000D01*
X91104762Y-57452381D01*
X91342858Y-57452381D01*
X91438096Y-57500000D01*
X91485715Y-57547619D01*
X91533334Y-57642857D01*
X91533334Y-57738095D01*
X91485715Y-57880952D01*
X90914286Y-58452381D01*
X91533334Y-58452381D01*
X91866667Y-57452381D02*
X92533334Y-57452381D01*
X92104762Y-58452381D01*
X89961905Y-51452381D02*
X89961905Y-52261905D01*
X90009524Y-52357143D01*
X90057143Y-52404762D01*
X90152381Y-52452381D01*
X90342858Y-52452381D01*
X90438096Y-52404762D01*
X90485715Y-52357143D01*
X90533334Y-52261905D01*
X90533334Y-51452381D01*
X90961905Y-51547619D02*
X91009524Y-51500000D01*
X91104762Y-51452381D01*
X91342858Y-51452381D01*
X91438096Y-51500000D01*
X91485715Y-51547619D01*
X91533334Y-51642857D01*
X91533334Y-51738095D01*
X91485715Y-51880952D01*
X90914286Y-52452381D01*
X91533334Y-52452381D01*
X92390477Y-51452381D02*
X92200000Y-51452381D01*
X92104762Y-51500000D01*
X92057143Y-51547619D01*
X91961905Y-51690476D01*
X91914286Y-51880952D01*
X91914286Y-52261905D01*
X91961905Y-52357143D01*
X92009524Y-52404762D01*
X92104762Y-52452381D01*
X92295239Y-52452381D01*
X92390477Y-52404762D01*
X92438096Y-52357143D01*
X92485715Y-52261905D01*
X92485715Y-52023810D01*
X92438096Y-51928571D01*
X92390477Y-51880952D01*
X92295239Y-51833333D01*
X92104762Y-51833333D01*
X92009524Y-51880952D01*
X91961905Y-51928571D01*
X91914286Y-52023810D01*
X89961905Y-45452381D02*
X89961905Y-46261905D01*
X90009524Y-46357143D01*
X90057143Y-46404762D01*
X90152381Y-46452381D01*
X90342858Y-46452381D01*
X90438096Y-46404762D01*
X90485715Y-46357143D01*
X90533334Y-46261905D01*
X90533334Y-45452381D01*
X90961905Y-45547619D02*
X91009524Y-45500000D01*
X91104762Y-45452381D01*
X91342858Y-45452381D01*
X91438096Y-45500000D01*
X91485715Y-45547619D01*
X91533334Y-45642857D01*
X91533334Y-45738095D01*
X91485715Y-45880952D01*
X90914286Y-46452381D01*
X91533334Y-46452381D01*
X92438096Y-45452381D02*
X91961905Y-45452381D01*
X91914286Y-45928571D01*
X91961905Y-45880952D01*
X92057143Y-45833333D01*
X92295239Y-45833333D01*
X92390477Y-45880952D01*
X92438096Y-45928571D01*
X92485715Y-46023810D01*
X92485715Y-46261905D01*
X92438096Y-46357143D01*
X92390477Y-46404762D01*
X92295239Y-46452381D01*
X92057143Y-46452381D01*
X91961905Y-46404762D01*
X91914286Y-46357143D01*
X89961905Y-39452381D02*
X89961905Y-40261905D01*
X90009524Y-40357143D01*
X90057143Y-40404762D01*
X90152381Y-40452381D01*
X90342858Y-40452381D01*
X90438096Y-40404762D01*
X90485715Y-40357143D01*
X90533334Y-40261905D01*
X90533334Y-39452381D01*
X90961905Y-39547619D02*
X91009524Y-39500000D01*
X91104762Y-39452381D01*
X91342858Y-39452381D01*
X91438096Y-39500000D01*
X91485715Y-39547619D01*
X91533334Y-39642857D01*
X91533334Y-39738095D01*
X91485715Y-39880952D01*
X90914286Y-40452381D01*
X91533334Y-40452381D01*
X92390477Y-39785714D02*
X92390477Y-40452381D01*
X92152381Y-39404762D02*
X91914286Y-40119048D01*
X92533334Y-40119048D01*
X89961905Y-33452381D02*
X89961905Y-34261905D01*
X90009524Y-34357143D01*
X90057143Y-34404762D01*
X90152381Y-34452381D01*
X90342858Y-34452381D01*
X90438096Y-34404762D01*
X90485715Y-34357143D01*
X90533334Y-34261905D01*
X90533334Y-33452381D01*
X90961905Y-33547619D02*
X91009524Y-33500000D01*
X91104762Y-33452381D01*
X91342858Y-33452381D01*
X91438096Y-33500000D01*
X91485715Y-33547619D01*
X91533334Y-33642857D01*
X91533334Y-33738095D01*
X91485715Y-33880952D01*
X90914286Y-34452381D01*
X91533334Y-34452381D01*
X91866667Y-33452381D02*
X92485715Y-33452381D01*
X92152381Y-33833333D01*
X92295239Y-33833333D01*
X92390477Y-33880952D01*
X92438096Y-33928571D01*
X92485715Y-34023810D01*
X92485715Y-34261905D01*
X92438096Y-34357143D01*
X92390477Y-34404762D01*
X92295239Y-34452381D01*
X92009524Y-34452381D01*
X91914286Y-34404762D01*
X91866667Y-34357143D01*
X89961905Y-27452381D02*
X89961905Y-28261905D01*
X90009524Y-28357143D01*
X90057143Y-28404762D01*
X90152381Y-28452381D01*
X90342858Y-28452381D01*
X90438096Y-28404762D01*
X90485715Y-28357143D01*
X90533334Y-28261905D01*
X90533334Y-27452381D01*
X90961905Y-27547619D02*
X91009524Y-27500000D01*
X91104762Y-27452381D01*
X91342858Y-27452381D01*
X91438096Y-27500000D01*
X91485715Y-27547619D01*
X91533334Y-27642857D01*
X91533334Y-27738095D01*
X91485715Y-27880952D01*
X90914286Y-28452381D01*
X91533334Y-28452381D01*
X91914286Y-27547619D02*
X91961905Y-27500000D01*
X92057143Y-27452381D01*
X92295239Y-27452381D01*
X92390477Y-27500000D01*
X92438096Y-27547619D01*
X92485715Y-27642857D01*
X92485715Y-27738095D01*
X92438096Y-27880952D01*
X91866667Y-28452381D01*
X92485715Y-28452381D01*
X74361905Y-43452381D02*
X74361905Y-44261905D01*
X74409524Y-44357143D01*
X74457143Y-44404762D01*
X74552381Y-44452381D01*
X74742858Y-44452381D01*
X74838096Y-44404762D01*
X74885715Y-44357143D01*
X74933334Y-44261905D01*
X74933334Y-43452381D01*
X75361905Y-43547619D02*
X75409524Y-43500000D01*
X75504762Y-43452381D01*
X75742858Y-43452381D01*
X75838096Y-43500000D01*
X75885715Y-43547619D01*
X75933334Y-43642857D01*
X75933334Y-43738095D01*
X75885715Y-43880952D01*
X75314286Y-44452381D01*
X75933334Y-44452381D01*
X76885715Y-44452381D02*
X76314286Y-44452381D01*
X76600000Y-44452381D02*
X76600000Y-43452381D01*
X76504762Y-43595238D01*
X76409524Y-43690476D01*
X76314286Y-43738095D01*
X74361905Y-34452381D02*
X74361905Y-35261905D01*
X74409524Y-35357143D01*
X74457143Y-35404762D01*
X74552381Y-35452381D01*
X74742858Y-35452381D01*
X74838096Y-35404762D01*
X74885715Y-35357143D01*
X74933334Y-35261905D01*
X74933334Y-34452381D01*
X75361905Y-34547619D02*
X75409524Y-34500000D01*
X75504762Y-34452381D01*
X75742858Y-34452381D01*
X75838096Y-34500000D01*
X75885715Y-34547619D01*
X75933334Y-34642857D01*
X75933334Y-34738095D01*
X75885715Y-34880952D01*
X75314286Y-35452381D01*
X75933334Y-35452381D01*
X76552381Y-34452381D02*
X76647620Y-34452381D01*
X76742858Y-34500000D01*
X76790477Y-34547619D01*
X76838096Y-34642857D01*
X76885715Y-34833333D01*
X76885715Y-35071429D01*
X76838096Y-35261905D01*
X76790477Y-35357143D01*
X76742858Y-35404762D01*
X76647620Y-35452381D01*
X76552381Y-35452381D01*
X76457143Y-35404762D01*
X76409524Y-35357143D01*
X76361905Y-35261905D01*
X76314286Y-35071429D01*
X76314286Y-34833333D01*
X76361905Y-34642857D01*
X76409524Y-34547619D01*
X76457143Y-34500000D01*
X76552381Y-34452381D01*
X41261905Y-14452381D02*
X41261905Y-15261905D01*
X41309524Y-15357143D01*
X41357143Y-15404762D01*
X41452381Y-15452381D01*
X41642858Y-15452381D01*
X41738096Y-15404762D01*
X41785715Y-15357143D01*
X41833334Y-15261905D01*
X41833334Y-14452381D01*
X42833334Y-15452381D02*
X42261905Y-15452381D01*
X42547619Y-15452381D02*
X42547619Y-14452381D01*
X42452381Y-14595238D01*
X42357143Y-14690476D01*
X42261905Y-14738095D01*
X43404762Y-14880952D02*
X43309524Y-14833333D01*
X43261905Y-14785714D01*
X43214286Y-14690476D01*
X43214286Y-14642857D01*
X43261905Y-14547619D01*
X43309524Y-14500000D01*
X43404762Y-14452381D01*
X43595239Y-14452381D01*
X43690477Y-14500000D01*
X43738096Y-14547619D01*
X43785715Y-14642857D01*
X43785715Y-14690476D01*
X43738096Y-14785714D01*
X43690477Y-14833333D01*
X43595239Y-14880952D01*
X43404762Y-14880952D01*
X43309524Y-14928571D01*
X43261905Y-14976190D01*
X43214286Y-15071429D01*
X43214286Y-15261905D01*
X43261905Y-15357143D01*
X43309524Y-15404762D01*
X43404762Y-15452381D01*
X43595239Y-15452381D01*
X43690477Y-15404762D01*
X43738096Y-15357143D01*
X43785715Y-15261905D01*
X43785715Y-15071429D01*
X43738096Y-14976190D01*
X43690477Y-14928571D01*
X43595239Y-14880952D01*
X8511905Y-70452381D02*
X8511905Y-71261905D01*
X8559524Y-71357143D01*
X8607143Y-71404762D01*
X8702381Y-71452381D01*
X8892858Y-71452381D01*
X8988096Y-71404762D01*
X9035715Y-71357143D01*
X9083334Y-71261905D01*
X9083334Y-70452381D01*
X10083334Y-71452381D02*
X9511905Y-71452381D01*
X9797619Y-71452381D02*
X9797619Y-70452381D01*
X9702381Y-70595238D01*
X9607143Y-70690476D01*
X9511905Y-70738095D01*
X10416667Y-70452381D02*
X11083334Y-70452381D01*
X10654762Y-71452381D01*
X8511905Y-64452381D02*
X8511905Y-65261905D01*
X8559524Y-65357143D01*
X8607143Y-65404762D01*
X8702381Y-65452381D01*
X8892858Y-65452381D01*
X8988096Y-65404762D01*
X9035715Y-65357143D01*
X9083334Y-65261905D01*
X9083334Y-64452381D01*
X10083334Y-65452381D02*
X9511905Y-65452381D01*
X9797619Y-65452381D02*
X9797619Y-64452381D01*
X9702381Y-64595238D01*
X9607143Y-64690476D01*
X9511905Y-64738095D01*
X10940477Y-64452381D02*
X10750000Y-64452381D01*
X10654762Y-64500000D01*
X10607143Y-64547619D01*
X10511905Y-64690476D01*
X10464286Y-64880952D01*
X10464286Y-65261905D01*
X10511905Y-65357143D01*
X10559524Y-65404762D01*
X10654762Y-65452381D01*
X10845239Y-65452381D01*
X10940477Y-65404762D01*
X10988096Y-65357143D01*
X11035715Y-65261905D01*
X11035715Y-65023810D01*
X10988096Y-64928571D01*
X10940477Y-64880952D01*
X10845239Y-64833333D01*
X10654762Y-64833333D01*
X10559524Y-64880952D01*
X10511905Y-64928571D01*
X10464286Y-65023810D01*
X8511905Y-58452381D02*
X8511905Y-59261905D01*
X8559524Y-59357143D01*
X8607143Y-59404762D01*
X8702381Y-59452381D01*
X8892858Y-59452381D01*
X8988096Y-59404762D01*
X9035715Y-59357143D01*
X9083334Y-59261905D01*
X9083334Y-58452381D01*
X10083334Y-59452381D02*
X9511905Y-59452381D01*
X9797619Y-59452381D02*
X9797619Y-58452381D01*
X9702381Y-58595238D01*
X9607143Y-58690476D01*
X9511905Y-58738095D01*
X10988096Y-58452381D02*
X10511905Y-58452381D01*
X10464286Y-58928571D01*
X10511905Y-58880952D01*
X10607143Y-58833333D01*
X10845239Y-58833333D01*
X10940477Y-58880952D01*
X10988096Y-58928571D01*
X11035715Y-59023810D01*
X11035715Y-59261905D01*
X10988096Y-59357143D01*
X10940477Y-59404762D01*
X10845239Y-59452381D01*
X10607143Y-59452381D01*
X10511905Y-59404762D01*
X10464286Y-59357143D01*
X8511905Y-52452381D02*
X8511905Y-53261905D01*
X8559524Y-53357143D01*
X8607143Y-53404762D01*
X8702381Y-53452381D01*
X8892858Y-53452381D01*
X8988096Y-53404762D01*
X9035715Y-53357143D01*
X9083334Y-53261905D01*
X9083334Y-52452381D01*
X10083334Y-53452381D02*
X9511905Y-53452381D01*
X9797619Y-53452381D02*
X9797619Y-52452381D01*
X9702381Y-52595238D01*
X9607143Y-52690476D01*
X9511905Y-52738095D01*
X10940477Y-52785714D02*
X10940477Y-53452381D01*
X10702381Y-52404762D02*
X10464286Y-53119048D01*
X11083334Y-53119048D01*
X8511905Y-46452381D02*
X8511905Y-47261905D01*
X8559524Y-47357143D01*
X8607143Y-47404762D01*
X8702381Y-47452381D01*
X8892858Y-47452381D01*
X8988096Y-47404762D01*
X9035715Y-47357143D01*
X9083334Y-47261905D01*
X9083334Y-46452381D01*
X10083334Y-47452381D02*
X9511905Y-47452381D01*
X9797619Y-47452381D02*
X9797619Y-46452381D01*
X9702381Y-46595238D01*
X9607143Y-46690476D01*
X9511905Y-46738095D01*
X10416667Y-46452381D02*
X11035715Y-46452381D01*
X10702381Y-46833333D01*
X10845239Y-46833333D01*
X10940477Y-46880952D01*
X10988096Y-46928571D01*
X11035715Y-47023810D01*
X11035715Y-47261905D01*
X10988096Y-47357143D01*
X10940477Y-47404762D01*
X10845239Y-47452381D01*
X10559524Y-47452381D01*
X10464286Y-47404762D01*
X10416667Y-47357143D01*
X8511905Y-40452381D02*
X8511905Y-41261905D01*
X8559524Y-41357143D01*
X8607143Y-41404762D01*
X8702381Y-41452381D01*
X8892858Y-41452381D01*
X8988096Y-41404762D01*
X9035715Y-41357143D01*
X9083334Y-41261905D01*
X9083334Y-40452381D01*
X10083334Y-41452381D02*
X9511905Y-41452381D01*
X9797619Y-41452381D02*
X9797619Y-40452381D01*
X9702381Y-40595238D01*
X9607143Y-40690476D01*
X9511905Y-40738095D01*
X10464286Y-40547619D02*
X10511905Y-40500000D01*
X10607143Y-40452381D01*
X10845239Y-40452381D01*
X10940477Y-40500000D01*
X10988096Y-40547619D01*
X11035715Y-40642857D01*
X11035715Y-40738095D01*
X10988096Y-40880952D01*
X10416667Y-41452381D01*
X11035715Y-41452381D01*
X8511905Y-34452381D02*
X8511905Y-35261905D01*
X8559524Y-35357143D01*
X8607143Y-35404762D01*
X8702381Y-35452381D01*
X8892858Y-35452381D01*
X8988096Y-35404762D01*
X9035715Y-35357143D01*
X9083334Y-35261905D01*
X9083334Y-34452381D01*
X10083334Y-35452381D02*
X9511905Y-35452381D01*
X9797619Y-35452381D02*
X9797619Y-34452381D01*
X9702381Y-34595238D01*
X9607143Y-34690476D01*
X9511905Y-34738095D01*
X11035715Y-35452381D02*
X10464286Y-35452381D01*
X10750000Y-35452381D02*
X10750000Y-34452381D01*
X10654762Y-34595238D01*
X10559524Y-34690476D01*
X10464286Y-34738095D01*
X8511905Y-28452381D02*
X8511905Y-29261905D01*
X8559524Y-29357143D01*
X8607143Y-29404762D01*
X8702381Y-29452381D01*
X8892858Y-29452381D01*
X8988096Y-29404762D01*
X9035715Y-29357143D01*
X9083334Y-29261905D01*
X9083334Y-28452381D01*
X10083334Y-29452381D02*
X9511905Y-29452381D01*
X9797619Y-29452381D02*
X9797619Y-28452381D01*
X9702381Y-28595238D01*
X9607143Y-28690476D01*
X9511905Y-28738095D01*
X10702381Y-28452381D02*
X10797620Y-28452381D01*
X10892858Y-28500000D01*
X10940477Y-28547619D01*
X10988096Y-28642857D01*
X11035715Y-28833333D01*
X11035715Y-29071429D01*
X10988096Y-29261905D01*
X10940477Y-29357143D01*
X10892858Y-29404762D01*
X10797620Y-29452381D01*
X10702381Y-29452381D01*
X10607143Y-29404762D01*
X10559524Y-29357143D01*
X10511905Y-29261905D01*
X10464286Y-29071429D01*
X10464286Y-28833333D01*
X10511905Y-28642857D01*
X10559524Y-28547619D01*
X10607143Y-28500000D01*
X10702381Y-28452381D01*
X9238095Y-22452381D02*
X9238095Y-23261905D01*
X9285714Y-23357143D01*
X9333333Y-23404762D01*
X9428571Y-23452381D01*
X9619048Y-23452381D01*
X9714286Y-23404762D01*
X9761905Y-23357143D01*
X9809524Y-23261905D01*
X9809524Y-22452381D01*
X10333333Y-23452381D02*
X10523809Y-23452381D01*
X10619048Y-23404762D01*
X10666667Y-23357143D01*
X10761905Y-23214286D01*
X10809524Y-23023810D01*
X10809524Y-22642857D01*
X10761905Y-22547619D01*
X10714286Y-22500000D01*
X10619048Y-22452381D01*
X10428571Y-22452381D01*
X10333333Y-22500000D01*
X10285714Y-22547619D01*
X10238095Y-22642857D01*
X10238095Y-22880952D01*
X10285714Y-22976190D01*
X10333333Y-23023810D01*
X10428571Y-23071429D01*
X10619048Y-23071429D01*
X10714286Y-23023810D01*
X10761905Y-22976190D01*
X10809524Y-22880952D01*
X9238095Y-16702381D02*
X9238095Y-17511905D01*
X9285714Y-17607143D01*
X9333333Y-17654762D01*
X9428571Y-17702381D01*
X9619048Y-17702381D01*
X9714286Y-17654762D01*
X9761905Y-17607143D01*
X9809524Y-17511905D01*
X9809524Y-16702381D01*
X10428571Y-17130952D02*
X10333333Y-17083333D01*
X10285714Y-17035714D01*
X10238095Y-16940476D01*
X10238095Y-16892857D01*
X10285714Y-16797619D01*
X10333333Y-16750000D01*
X10428571Y-16702381D01*
X10619048Y-16702381D01*
X10714286Y-16750000D01*
X10761905Y-16797619D01*
X10809524Y-16892857D01*
X10809524Y-16940476D01*
X10761905Y-17035714D01*
X10714286Y-17083333D01*
X10619048Y-17130952D01*
X10428571Y-17130952D01*
X10333333Y-17178571D01*
X10285714Y-17226190D01*
X10238095Y-17321429D01*
X10238095Y-17511905D01*
X10285714Y-17607143D01*
X10333333Y-17654762D01*
X10428571Y-17702381D01*
X10619048Y-17702381D01*
X10714286Y-17654762D01*
X10761905Y-17607143D01*
X10809524Y-17511905D01*
X10809524Y-17321429D01*
X10761905Y-17226190D01*
X10714286Y-17178571D01*
X10619048Y-17130952D01*
X32238095Y-29702381D02*
X32238095Y-30511905D01*
X32285714Y-30607143D01*
X32333333Y-30654762D01*
X32428571Y-30702381D01*
X32619048Y-30702381D01*
X32714286Y-30654762D01*
X32761905Y-30607143D01*
X32809524Y-30511905D01*
X32809524Y-29702381D01*
X33190476Y-29702381D02*
X33857143Y-29702381D01*
X33428571Y-30702381D01*
X32238095Y-38702381D02*
X32238095Y-39511905D01*
X32285714Y-39607143D01*
X32333333Y-39654762D01*
X32428571Y-39702381D01*
X32619048Y-39702381D01*
X32714286Y-39654762D01*
X32761905Y-39607143D01*
X32809524Y-39511905D01*
X32809524Y-38702381D01*
X33714286Y-38702381D02*
X33523809Y-38702381D01*
X33428571Y-38750000D01*
X33380952Y-38797619D01*
X33285714Y-38940476D01*
X33238095Y-39130952D01*
X33238095Y-39511905D01*
X33285714Y-39607143D01*
X33333333Y-39654762D01*
X33428571Y-39702381D01*
X33619048Y-39702381D01*
X33714286Y-39654762D01*
X33761905Y-39607143D01*
X33809524Y-39511905D01*
X33809524Y-39273810D01*
X33761905Y-39178571D01*
X33714286Y-39130952D01*
X33619048Y-39083333D01*
X33428571Y-39083333D01*
X33333333Y-39130952D01*
X33285714Y-39178571D01*
X33238095Y-39273810D01*
X32238095Y-47702381D02*
X32238095Y-48511905D01*
X32285714Y-48607143D01*
X32333333Y-48654762D01*
X32428571Y-48702381D01*
X32619048Y-48702381D01*
X32714286Y-48654762D01*
X32761905Y-48607143D01*
X32809524Y-48511905D01*
X32809524Y-47702381D01*
X33761905Y-47702381D02*
X33285714Y-47702381D01*
X33238095Y-48178571D01*
X33285714Y-48130952D01*
X33380952Y-48083333D01*
X33619048Y-48083333D01*
X33714286Y-48130952D01*
X33761905Y-48178571D01*
X33809524Y-48273810D01*
X33809524Y-48511905D01*
X33761905Y-48607143D01*
X33714286Y-48654762D01*
X33619048Y-48702381D01*
X33380952Y-48702381D01*
X33285714Y-48654762D01*
X33238095Y-48607143D01*
X80238095Y-18352381D02*
X80238095Y-19161905D01*
X80285714Y-19257143D01*
X80333333Y-19304762D01*
X80428571Y-19352381D01*
X80619048Y-19352381D01*
X80714286Y-19304762D01*
X80761905Y-19257143D01*
X80809524Y-19161905D01*
X80809524Y-18352381D01*
X81809524Y-19352381D02*
X81238095Y-19352381D01*
X81523809Y-19352381D02*
X81523809Y-18352381D01*
X81428571Y-18495238D01*
X81333333Y-18590476D01*
X81238095Y-18638095D01*
X32357143Y-9702381D02*
X32023809Y-9226190D01*
X31785714Y-9702381D02*
X31785714Y-8702381D01*
X32166667Y-8702381D01*
X32261905Y-8750000D01*
X32309524Y-8797619D01*
X32357143Y-8892857D01*
X32357143Y-9035714D01*
X32309524Y-9130952D01*
X32261905Y-9178571D01*
X32166667Y-9226190D01*
X31785714Y-9226190D01*
X32690476Y-8702381D02*
X33309524Y-8702381D01*
X32976190Y-9083333D01*
X33119048Y-9083333D01*
X33214286Y-9130952D01*
X33261905Y-9178571D01*
X33309524Y-9273810D01*
X33309524Y-9511905D01*
X33261905Y-9607143D01*
X33214286Y-9654762D01*
X33119048Y-9702381D01*
X32833333Y-9702381D01*
X32738095Y-9654762D01*
X32690476Y-9607143D01*
X33690476Y-8797619D02*
X33738095Y-8750000D01*
X33833333Y-8702381D01*
X34071429Y-8702381D01*
X34166667Y-8750000D01*
X34214286Y-8797619D01*
X34261905Y-8892857D01*
X34261905Y-8988095D01*
X34214286Y-9130952D01*
X33642857Y-9702381D01*
X34261905Y-9702381D01*
X32357143Y-11452381D02*
X32023809Y-10976190D01*
X31785714Y-11452381D02*
X31785714Y-10452381D01*
X32166667Y-10452381D01*
X32261905Y-10500000D01*
X32309524Y-10547619D01*
X32357143Y-10642857D01*
X32357143Y-10785714D01*
X32309524Y-10880952D01*
X32261905Y-10928571D01*
X32166667Y-10976190D01*
X31785714Y-10976190D01*
X32690476Y-10452381D02*
X33309524Y-10452381D01*
X32976190Y-10833333D01*
X33119048Y-10833333D01*
X33214286Y-10880952D01*
X33261905Y-10928571D01*
X33309524Y-11023810D01*
X33309524Y-11261905D01*
X33261905Y-11357143D01*
X33214286Y-11404762D01*
X33119048Y-11452381D01*
X32833333Y-11452381D01*
X32738095Y-11404762D01*
X32690476Y-11357143D01*
X34261905Y-11452381D02*
X33690476Y-11452381D01*
X33976190Y-11452381D02*
X33976190Y-10452381D01*
X33880952Y-10595238D01*
X33785714Y-10690476D01*
X33690476Y-10738095D01*
X32357143Y-13202381D02*
X32023809Y-12726190D01*
X31785714Y-13202381D02*
X31785714Y-12202381D01*
X32166667Y-12202381D01*
X32261905Y-12250000D01*
X32309524Y-12297619D01*
X32357143Y-12392857D01*
X32357143Y-12535714D01*
X32309524Y-12630952D01*
X32261905Y-12678571D01*
X32166667Y-12726190D01*
X31785714Y-12726190D01*
X32690476Y-12202381D02*
X33309524Y-12202381D01*
X32976190Y-12583333D01*
X33119048Y-12583333D01*
X33214286Y-12630952D01*
X33261905Y-12678571D01*
X33309524Y-12773810D01*
X33309524Y-13011905D01*
X33261905Y-13107143D01*
X33214286Y-13154762D01*
X33119048Y-13202381D01*
X32833333Y-13202381D01*
X32738095Y-13154762D01*
X32690476Y-13107143D01*
X33928571Y-12202381D02*
X34023810Y-12202381D01*
X34119048Y-12250000D01*
X34166667Y-12297619D01*
X34214286Y-12392857D01*
X34261905Y-12583333D01*
X34261905Y-12821429D01*
X34214286Y-13011905D01*
X34166667Y-13107143D01*
X34119048Y-13154762D01*
X34023810Y-13202381D01*
X33928571Y-13202381D01*
X33833333Y-13154762D01*
X33785714Y-13107143D01*
X33738095Y-13011905D01*
X33690476Y-12821429D01*
X33690476Y-12583333D01*
X33738095Y-12392857D01*
X33785714Y-12297619D01*
X33833333Y-12250000D01*
X33928571Y-12202381D01*
X73357143Y-88052381D02*
X73023809Y-87576190D01*
X72785714Y-88052381D02*
X72785714Y-87052381D01*
X73166667Y-87052381D01*
X73261905Y-87100000D01*
X73309524Y-87147619D01*
X73357143Y-87242857D01*
X73357143Y-87385714D01*
X73309524Y-87480952D01*
X73261905Y-87528571D01*
X73166667Y-87576190D01*
X72785714Y-87576190D01*
X73738095Y-87147619D02*
X73785714Y-87100000D01*
X73880952Y-87052381D01*
X74119048Y-87052381D01*
X74214286Y-87100000D01*
X74261905Y-87147619D01*
X74309524Y-87242857D01*
X74309524Y-87338095D01*
X74261905Y-87480952D01*
X73690476Y-88052381D01*
X74309524Y-88052381D01*
X74785714Y-88052381D02*
X74976190Y-88052381D01*
X75071429Y-88004762D01*
X75119048Y-87957143D01*
X75214286Y-87814286D01*
X75261905Y-87623810D01*
X75261905Y-87242857D01*
X75214286Y-87147619D01*
X75166667Y-87100000D01*
X75071429Y-87052381D01*
X74880952Y-87052381D01*
X74785714Y-87100000D01*
X74738095Y-87147619D01*
X74690476Y-87242857D01*
X74690476Y-87480952D01*
X74738095Y-87576190D01*
X74785714Y-87623810D01*
X74880952Y-87671429D01*
X75071429Y-87671429D01*
X75166667Y-87623810D01*
X75214286Y-87576190D01*
X75261905Y-87480952D01*
X73357143Y-90252381D02*
X73023809Y-89776190D01*
X72785714Y-90252381D02*
X72785714Y-89252381D01*
X73166667Y-89252381D01*
X73261905Y-89300000D01*
X73309524Y-89347619D01*
X73357143Y-89442857D01*
X73357143Y-89585714D01*
X73309524Y-89680952D01*
X73261905Y-89728571D01*
X73166667Y-89776190D01*
X72785714Y-89776190D01*
X73738095Y-89347619D02*
X73785714Y-89300000D01*
X73880952Y-89252381D01*
X74119048Y-89252381D01*
X74214286Y-89300000D01*
X74261905Y-89347619D01*
X74309524Y-89442857D01*
X74309524Y-89538095D01*
X74261905Y-89680952D01*
X73690476Y-90252381D01*
X74309524Y-90252381D01*
X74880952Y-89680952D02*
X74785714Y-89633333D01*
X74738095Y-89585714D01*
X74690476Y-89490476D01*
X74690476Y-89442857D01*
X74738095Y-89347619D01*
X74785714Y-89300000D01*
X74880952Y-89252381D01*
X75071429Y-89252381D01*
X75166667Y-89300000D01*
X75214286Y-89347619D01*
X75261905Y-89442857D01*
X75261905Y-89490476D01*
X75214286Y-89585714D01*
X75166667Y-89633333D01*
X75071429Y-89680952D01*
X74880952Y-89680952D01*
X74785714Y-89728571D01*
X74738095Y-89776190D01*
X74690476Y-89871429D01*
X74690476Y-90061905D01*
X74738095Y-90157143D01*
X74785714Y-90204762D01*
X74880952Y-90252381D01*
X75071429Y-90252381D01*
X75166667Y-90204762D01*
X75214286Y-90157143D01*
X75261905Y-90061905D01*
X75261905Y-89871429D01*
X75214286Y-89776190D01*
X75166667Y-89728571D01*
X75071429Y-89680952D01*
X51857143Y-16202381D02*
X51523809Y-15726190D01*
X51285714Y-16202381D02*
X51285714Y-15202381D01*
X51666667Y-15202381D01*
X51761905Y-15250000D01*
X51809524Y-15297619D01*
X51857143Y-15392857D01*
X51857143Y-15535714D01*
X51809524Y-15630952D01*
X51761905Y-15678571D01*
X51666667Y-15726190D01*
X51285714Y-15726190D01*
X52238095Y-15297619D02*
X52285714Y-15250000D01*
X52380952Y-15202381D01*
X52619048Y-15202381D01*
X52714286Y-15250000D01*
X52761905Y-15297619D01*
X52809524Y-15392857D01*
X52809524Y-15488095D01*
X52761905Y-15630952D01*
X52190476Y-16202381D01*
X52809524Y-16202381D01*
X53142857Y-15202381D02*
X53809524Y-15202381D01*
X53380952Y-16202381D01*
X51857143Y-17952381D02*
X51523809Y-17476190D01*
X51285714Y-17952381D02*
X51285714Y-16952381D01*
X51666667Y-16952381D01*
X51761905Y-17000000D01*
X51809524Y-17047619D01*
X51857143Y-17142857D01*
X51857143Y-17285714D01*
X51809524Y-17380952D01*
X51761905Y-17428571D01*
X51666667Y-17476190D01*
X51285714Y-17476190D01*
X52238095Y-17047619D02*
X52285714Y-17000000D01*
X52380952Y-16952381D01*
X52619048Y-16952381D01*
X52714286Y-17000000D01*
X52761905Y-17047619D01*
X52809524Y-17142857D01*
X52809524Y-17238095D01*
X52761905Y-17380952D01*
X52190476Y-17952381D01*
X52809524Y-17952381D01*
X53666667Y-16952381D02*
X53476190Y-16952381D01*
X53380952Y-17000000D01*
X53333333Y-17047619D01*
X53238095Y-17190476D01*
X53190476Y-17380952D01*
X53190476Y-17761905D01*
X53238095Y-17857143D01*
X53285714Y-17904762D01*
X53380952Y-17952381D01*
X53571429Y-17952381D01*
X53666667Y-17904762D01*
X53714286Y-17857143D01*
X53761905Y-17761905D01*
X53761905Y-17523810D01*
X53714286Y-17428571D01*
X53666667Y-17380952D01*
X53571429Y-17333333D01*
X53380952Y-17333333D01*
X53285714Y-17380952D01*
X53238095Y-17428571D01*
X53190476Y-17523810D01*
X51857143Y-19702381D02*
X51523809Y-19226190D01*
X51285714Y-19702381D02*
X51285714Y-18702381D01*
X51666667Y-18702381D01*
X51761905Y-18750000D01*
X51809524Y-18797619D01*
X51857143Y-18892857D01*
X51857143Y-19035714D01*
X51809524Y-19130952D01*
X51761905Y-19178571D01*
X51666667Y-19226190D01*
X51285714Y-19226190D01*
X52238095Y-18797619D02*
X52285714Y-18750000D01*
X52380952Y-18702381D01*
X52619048Y-18702381D01*
X52714286Y-18750000D01*
X52761905Y-18797619D01*
X52809524Y-18892857D01*
X52809524Y-18988095D01*
X52761905Y-19130952D01*
X52190476Y-19702381D01*
X52809524Y-19702381D01*
X53714286Y-18702381D02*
X53238095Y-18702381D01*
X53190476Y-19178571D01*
X53238095Y-19130952D01*
X53333333Y-19083333D01*
X53571429Y-19083333D01*
X53666667Y-19130952D01*
X53714286Y-19178571D01*
X53761905Y-19273810D01*
X53761905Y-19511905D01*
X53714286Y-19607143D01*
X53666667Y-19654762D01*
X53571429Y-19702381D01*
X53333333Y-19702381D01*
X53238095Y-19654762D01*
X53190476Y-19607143D01*
X45452381Y-82392857D02*
X44976190Y-82726191D01*
X45452381Y-82964286D02*
X44452381Y-82964286D01*
X44452381Y-82583333D01*
X44500000Y-82488095D01*
X44547619Y-82440476D01*
X44642857Y-82392857D01*
X44785714Y-82392857D01*
X44880952Y-82440476D01*
X44928571Y-82488095D01*
X44976190Y-82583333D01*
X44976190Y-82964286D01*
X44547619Y-82011905D02*
X44500000Y-81964286D01*
X44452381Y-81869048D01*
X44452381Y-81630952D01*
X44500000Y-81535714D01*
X44547619Y-81488095D01*
X44642857Y-81440476D01*
X44738095Y-81440476D01*
X44880952Y-81488095D01*
X45452381Y-82059524D01*
X45452381Y-81440476D01*
X44785714Y-80583333D02*
X45452381Y-80583333D01*
X44404762Y-80821429D02*
X45119048Y-81059524D01*
X45119048Y-80440476D01*
X41702381Y-82392857D02*
X41226190Y-82726191D01*
X41702381Y-82964286D02*
X40702381Y-82964286D01*
X40702381Y-82583333D01*
X40750000Y-82488095D01*
X40797619Y-82440476D01*
X40892857Y-82392857D01*
X41035714Y-82392857D01*
X41130952Y-82440476D01*
X41178571Y-82488095D01*
X41226190Y-82583333D01*
X41226190Y-82964286D01*
X40797619Y-82011905D02*
X40750000Y-81964286D01*
X40702381Y-81869048D01*
X40702381Y-81630952D01*
X40750000Y-81535714D01*
X40797619Y-81488095D01*
X40892857Y-81440476D01*
X40988095Y-81440476D01*
X41130952Y-81488095D01*
X41702381Y-82059524D01*
X41702381Y-81440476D01*
X40702381Y-81107143D02*
X40702381Y-80488095D01*
X41083333Y-80821429D01*
X41083333Y-80678571D01*
X41130952Y-80583333D01*
X41178571Y-80535714D01*
X41273810Y-80488095D01*
X41511905Y-80488095D01*
X41607143Y-80535714D01*
X41654762Y-80583333D01*
X41702381Y-80678571D01*
X41702381Y-80964286D01*
X41654762Y-81059524D01*
X41607143Y-81107143D01*
X42952381Y-82392857D02*
X42476190Y-82726191D01*
X42952381Y-82964286D02*
X41952381Y-82964286D01*
X41952381Y-82583333D01*
X42000000Y-82488095D01*
X42047619Y-82440476D01*
X42142857Y-82392857D01*
X42285714Y-82392857D01*
X42380952Y-82440476D01*
X42428571Y-82488095D01*
X42476190Y-82583333D01*
X42476190Y-82964286D01*
X42047619Y-82011905D02*
X42000000Y-81964286D01*
X41952381Y-81869048D01*
X41952381Y-81630952D01*
X42000000Y-81535714D01*
X42047619Y-81488095D01*
X42142857Y-81440476D01*
X42238095Y-81440476D01*
X42380952Y-81488095D01*
X42952381Y-82059524D01*
X42952381Y-81440476D01*
X42047619Y-81059524D02*
X42000000Y-81011905D01*
X41952381Y-80916667D01*
X41952381Y-80678571D01*
X42000000Y-80583333D01*
X42047619Y-80535714D01*
X42142857Y-80488095D01*
X42238095Y-80488095D01*
X42380952Y-80535714D01*
X42952381Y-81107143D01*
X42952381Y-80488095D01*
X34357143Y-61702381D02*
X34023809Y-61226190D01*
X33785714Y-61702381D02*
X33785714Y-60702381D01*
X34166667Y-60702381D01*
X34261905Y-60750000D01*
X34309524Y-60797619D01*
X34357143Y-60892857D01*
X34357143Y-61035714D01*
X34309524Y-61130952D01*
X34261905Y-61178571D01*
X34166667Y-61226190D01*
X33785714Y-61226190D01*
X34738095Y-60797619D02*
X34785714Y-60750000D01*
X34880952Y-60702381D01*
X35119048Y-60702381D01*
X35214286Y-60750000D01*
X35261905Y-60797619D01*
X35309524Y-60892857D01*
X35309524Y-60988095D01*
X35261905Y-61130952D01*
X34690476Y-61702381D01*
X35309524Y-61702381D01*
X36261905Y-61702381D02*
X35690476Y-61702381D01*
X35976190Y-61702381D02*
X35976190Y-60702381D01*
X35880952Y-60845238D01*
X35785714Y-60940476D01*
X35690476Y-60988095D01*
X44202381Y-82392857D02*
X43726190Y-82726191D01*
X44202381Y-82964286D02*
X43202381Y-82964286D01*
X43202381Y-82583333D01*
X43250000Y-82488095D01*
X43297619Y-82440476D01*
X43392857Y-82392857D01*
X43535714Y-82392857D01*
X43630952Y-82440476D01*
X43678571Y-82488095D01*
X43726190Y-82583333D01*
X43726190Y-82964286D01*
X43297619Y-82011905D02*
X43250000Y-81964286D01*
X43202381Y-81869048D01*
X43202381Y-81630952D01*
X43250000Y-81535714D01*
X43297619Y-81488095D01*
X43392857Y-81440476D01*
X43488095Y-81440476D01*
X43630952Y-81488095D01*
X44202381Y-82059524D01*
X44202381Y-81440476D01*
X43202381Y-80821429D02*
X43202381Y-80726190D01*
X43250000Y-80630952D01*
X43297619Y-80583333D01*
X43392857Y-80535714D01*
X43583333Y-80488095D01*
X43821429Y-80488095D01*
X44011905Y-80535714D01*
X44107143Y-80583333D01*
X44154762Y-80630952D01*
X44202381Y-80726190D01*
X44202381Y-80821429D01*
X44154762Y-80916667D01*
X44107143Y-80964286D01*
X44011905Y-81011905D01*
X43821429Y-81059524D01*
X43583333Y-81059524D01*
X43392857Y-81011905D01*
X43297619Y-80964286D01*
X43250000Y-80916667D01*
X43202381Y-80821429D01*
X59357143Y-85052381D02*
X59023809Y-84576190D01*
X58785714Y-85052381D02*
X58785714Y-84052381D01*
X59166667Y-84052381D01*
X59261905Y-84100000D01*
X59309524Y-84147619D01*
X59357143Y-84242857D01*
X59357143Y-84385714D01*
X59309524Y-84480952D01*
X59261905Y-84528571D01*
X59166667Y-84576190D01*
X58785714Y-84576190D01*
X60309524Y-85052381D02*
X59738095Y-85052381D01*
X60023809Y-85052381D02*
X60023809Y-84052381D01*
X59928571Y-84195238D01*
X59833333Y-84290476D01*
X59738095Y-84338095D01*
X60785714Y-85052381D02*
X60976190Y-85052381D01*
X61071429Y-85004762D01*
X61119048Y-84957143D01*
X61214286Y-84814286D01*
X61261905Y-84623810D01*
X61261905Y-84242857D01*
X61214286Y-84147619D01*
X61166667Y-84100000D01*
X61071429Y-84052381D01*
X60880952Y-84052381D01*
X60785714Y-84100000D01*
X60738095Y-84147619D01*
X60690476Y-84242857D01*
X60690476Y-84480952D01*
X60738095Y-84576190D01*
X60785714Y-84623810D01*
X60880952Y-84671429D01*
X61071429Y-84671429D01*
X61166667Y-84623810D01*
X61214286Y-84576190D01*
X61261905Y-84480952D01*
X83357143Y-22052381D02*
X83023809Y-21576190D01*
X82785714Y-22052381D02*
X82785714Y-21052381D01*
X83166667Y-21052381D01*
X83261905Y-21100000D01*
X83309524Y-21147619D01*
X83357143Y-21242857D01*
X83357143Y-21385714D01*
X83309524Y-21480952D01*
X83261905Y-21528571D01*
X83166667Y-21576190D01*
X82785714Y-21576190D01*
X84309524Y-22052381D02*
X83738095Y-22052381D01*
X84023809Y-22052381D02*
X84023809Y-21052381D01*
X83928571Y-21195238D01*
X83833333Y-21290476D01*
X83738095Y-21338095D01*
X84880952Y-21480952D02*
X84785714Y-21433333D01*
X84738095Y-21385714D01*
X84690476Y-21290476D01*
X84690476Y-21242857D01*
X84738095Y-21147619D01*
X84785714Y-21100000D01*
X84880952Y-21052381D01*
X85071429Y-21052381D01*
X85166667Y-21100000D01*
X85214286Y-21147619D01*
X85261905Y-21242857D01*
X85261905Y-21290476D01*
X85214286Y-21385714D01*
X85166667Y-21433333D01*
X85071429Y-21480952D01*
X84880952Y-21480952D01*
X84785714Y-21528571D01*
X84738095Y-21576190D01*
X84690476Y-21671429D01*
X84690476Y-21861905D01*
X84738095Y-21957143D01*
X84785714Y-22004762D01*
X84880952Y-22052381D01*
X85071429Y-22052381D01*
X85166667Y-22004762D01*
X85214286Y-21957143D01*
X85261905Y-21861905D01*
X85261905Y-21671429D01*
X85214286Y-21576190D01*
X85166667Y-21528571D01*
X85071429Y-21480952D01*
X21107143Y-87752381D02*
X20773809Y-87276190D01*
X20535714Y-87752381D02*
X20535714Y-86752381D01*
X20916667Y-86752381D01*
X21011905Y-86800000D01*
X21059524Y-86847619D01*
X21107143Y-86942857D01*
X21107143Y-87085714D01*
X21059524Y-87180952D01*
X21011905Y-87228571D01*
X20916667Y-87276190D01*
X20535714Y-87276190D01*
X22059524Y-87752381D02*
X21488095Y-87752381D01*
X21773809Y-87752381D02*
X21773809Y-86752381D01*
X21678571Y-86895238D01*
X21583333Y-86990476D01*
X21488095Y-87038095D01*
X22392857Y-86752381D02*
X23059524Y-86752381D01*
X22630952Y-87752381D01*
X21202381Y-85392857D02*
X20726190Y-85726191D01*
X21202381Y-85964286D02*
X20202381Y-85964286D01*
X20202381Y-85583333D01*
X20250000Y-85488095D01*
X20297619Y-85440476D01*
X20392857Y-85392857D01*
X20535714Y-85392857D01*
X20630952Y-85440476D01*
X20678571Y-85488095D01*
X20726190Y-85583333D01*
X20726190Y-85964286D01*
X21202381Y-84440476D02*
X21202381Y-85011905D01*
X21202381Y-84726191D02*
X20202381Y-84726191D01*
X20345238Y-84821429D01*
X20440476Y-84916667D01*
X20488095Y-85011905D01*
X20202381Y-83583333D02*
X20202381Y-83773810D01*
X20250000Y-83869048D01*
X20297619Y-83916667D01*
X20440476Y-84011905D01*
X20630952Y-84059524D01*
X21011905Y-84059524D01*
X21107143Y-84011905D01*
X21154762Y-83964286D01*
X21202381Y-83869048D01*
X21202381Y-83678571D01*
X21154762Y-83583333D01*
X21107143Y-83535714D01*
X21011905Y-83488095D01*
X20773810Y-83488095D01*
X20678571Y-83535714D01*
X20630952Y-83583333D01*
X20583333Y-83678571D01*
X20583333Y-83869048D01*
X20630952Y-83964286D01*
X20678571Y-84011905D01*
X20773810Y-84059524D01*
X65952381Y-17142857D02*
X65476190Y-17476191D01*
X65952381Y-17714286D02*
X64952381Y-17714286D01*
X64952381Y-17333333D01*
X65000000Y-17238095D01*
X65047619Y-17190476D01*
X65142857Y-17142857D01*
X65285714Y-17142857D01*
X65380952Y-17190476D01*
X65428571Y-17238095D01*
X65476190Y-17333333D01*
X65476190Y-17714286D01*
X65952381Y-16190476D02*
X65952381Y-16761905D01*
X65952381Y-16476191D02*
X64952381Y-16476191D01*
X65095238Y-16571429D01*
X65190476Y-16666667D01*
X65238095Y-16761905D01*
X64952381Y-15285714D02*
X64952381Y-15761905D01*
X65428571Y-15809524D01*
X65380952Y-15761905D01*
X65333333Y-15666667D01*
X65333333Y-15428571D01*
X65380952Y-15333333D01*
X65428571Y-15285714D01*
X65523810Y-15238095D01*
X65761905Y-15238095D01*
X65857143Y-15285714D01*
X65904762Y-15333333D01*
X65952381Y-15428571D01*
X65952381Y-15666667D01*
X65904762Y-15761905D01*
X65857143Y-15809524D01*
X17452381Y-85392857D02*
X16976190Y-85726191D01*
X17452381Y-85964286D02*
X16452381Y-85964286D01*
X16452381Y-85583333D01*
X16500000Y-85488095D01*
X16547619Y-85440476D01*
X16642857Y-85392857D01*
X16785714Y-85392857D01*
X16880952Y-85440476D01*
X16928571Y-85488095D01*
X16976190Y-85583333D01*
X16976190Y-85964286D01*
X17452381Y-84440476D02*
X17452381Y-85011905D01*
X17452381Y-84726191D02*
X16452381Y-84726191D01*
X16595238Y-84821429D01*
X16690476Y-84916667D01*
X16738095Y-85011905D01*
X16785714Y-83583333D02*
X17452381Y-83583333D01*
X16404762Y-83821429D02*
X17119048Y-84059524D01*
X17119048Y-83440476D01*
X18702381Y-85392857D02*
X18226190Y-85726191D01*
X18702381Y-85964286D02*
X17702381Y-85964286D01*
X17702381Y-85583333D01*
X17750000Y-85488095D01*
X17797619Y-85440476D01*
X17892857Y-85392857D01*
X18035714Y-85392857D01*
X18130952Y-85440476D01*
X18178571Y-85488095D01*
X18226190Y-85583333D01*
X18226190Y-85964286D01*
X18702381Y-84440476D02*
X18702381Y-85011905D01*
X18702381Y-84726191D02*
X17702381Y-84726191D01*
X17845238Y-84821429D01*
X17940476Y-84916667D01*
X17988095Y-85011905D01*
X17702381Y-84107143D02*
X17702381Y-83488095D01*
X18083333Y-83821429D01*
X18083333Y-83678571D01*
X18130952Y-83583333D01*
X18178571Y-83535714D01*
X18273810Y-83488095D01*
X18511905Y-83488095D01*
X18607143Y-83535714D01*
X18654762Y-83583333D01*
X18702381Y-83678571D01*
X18702381Y-83964286D01*
X18654762Y-84059524D01*
X18607143Y-84107143D01*
X19952381Y-85392857D02*
X19476190Y-85726191D01*
X19952381Y-85964286D02*
X18952381Y-85964286D01*
X18952381Y-85583333D01*
X19000000Y-85488095D01*
X19047619Y-85440476D01*
X19142857Y-85392857D01*
X19285714Y-85392857D01*
X19380952Y-85440476D01*
X19428571Y-85488095D01*
X19476190Y-85583333D01*
X19476190Y-85964286D01*
X19952381Y-84440476D02*
X19952381Y-85011905D01*
X19952381Y-84726191D02*
X18952381Y-84726191D01*
X19095238Y-84821429D01*
X19190476Y-84916667D01*
X19238095Y-85011905D01*
X19047619Y-84059524D02*
X19000000Y-84011905D01*
X18952381Y-83916667D01*
X18952381Y-83678571D01*
X19000000Y-83583333D01*
X19047619Y-83535714D01*
X19142857Y-83488095D01*
X19238095Y-83488095D01*
X19380952Y-83535714D01*
X19952381Y-84107143D01*
X19952381Y-83488095D01*
X42357143Y-88002381D02*
X42023809Y-87526190D01*
X41785714Y-88002381D02*
X41785714Y-87002381D01*
X42166667Y-87002381D01*
X42261905Y-87050000D01*
X42309524Y-87097619D01*
X42357143Y-87192857D01*
X42357143Y-87335714D01*
X42309524Y-87430952D01*
X42261905Y-87478571D01*
X42166667Y-87526190D01*
X41785714Y-87526190D01*
X43309524Y-88002381D02*
X42738095Y-88002381D01*
X43023809Y-88002381D02*
X43023809Y-87002381D01*
X42928571Y-87145238D01*
X42833333Y-87240476D01*
X42738095Y-87288095D01*
X44261905Y-88002381D02*
X43690476Y-88002381D01*
X43976190Y-88002381D02*
X43976190Y-87002381D01*
X43880952Y-87145238D01*
X43785714Y-87240476D01*
X43690476Y-87288095D01*
X22452381Y-85392857D02*
X21976190Y-85726191D01*
X22452381Y-85964286D02*
X21452381Y-85964286D01*
X21452381Y-85583333D01*
X21500000Y-85488095D01*
X21547619Y-85440476D01*
X21642857Y-85392857D01*
X21785714Y-85392857D01*
X21880952Y-85440476D01*
X21928571Y-85488095D01*
X21976190Y-85583333D01*
X21976190Y-85964286D01*
X22452381Y-84440476D02*
X22452381Y-85011905D01*
X22452381Y-84726191D02*
X21452381Y-84726191D01*
X21595238Y-84821429D01*
X21690476Y-84916667D01*
X21738095Y-85011905D01*
X21452381Y-83821429D02*
X21452381Y-83726190D01*
X21500000Y-83630952D01*
X21547619Y-83583333D01*
X21642857Y-83535714D01*
X21833333Y-83488095D01*
X22071429Y-83488095D01*
X22261905Y-83535714D01*
X22357143Y-83583333D01*
X22404762Y-83630952D01*
X22452381Y-83726190D01*
X22452381Y-83821429D01*
X22404762Y-83916667D01*
X22357143Y-83964286D01*
X22261905Y-84011905D01*
X22071429Y-84059524D01*
X21833333Y-84059524D01*
X21642857Y-84011905D01*
X21547619Y-83964286D01*
X21500000Y-83916667D01*
X21452381Y-83821429D01*
X23702381Y-84916666D02*
X23226190Y-85250000D01*
X23702381Y-85488095D02*
X22702381Y-85488095D01*
X22702381Y-85107142D01*
X22750000Y-85011904D01*
X22797619Y-84964285D01*
X22892857Y-84916666D01*
X23035714Y-84916666D01*
X23130952Y-84964285D01*
X23178571Y-85011904D01*
X23226190Y-85107142D01*
X23226190Y-85488095D01*
X23702381Y-84440476D02*
X23702381Y-84250000D01*
X23654762Y-84154761D01*
X23607143Y-84107142D01*
X23464286Y-84011904D01*
X23273810Y-83964285D01*
X22892857Y-83964285D01*
X22797619Y-84011904D01*
X22750000Y-84059523D01*
X22702381Y-84154761D01*
X22702381Y-84345238D01*
X22750000Y-84440476D01*
X22797619Y-84488095D01*
X22892857Y-84535714D01*
X23130952Y-84535714D01*
X23226190Y-84488095D01*
X23273810Y-84440476D01*
X23321429Y-84345238D01*
X23321429Y-84154761D01*
X23273810Y-84059523D01*
X23226190Y-84011904D01*
X23130952Y-83964285D01*
X44402381Y-84916666D02*
X43926190Y-85250000D01*
X44402381Y-85488095D02*
X43402381Y-85488095D01*
X43402381Y-85107142D01*
X43450000Y-85011904D01*
X43497619Y-84964285D01*
X43592857Y-84916666D01*
X43735714Y-84916666D01*
X43830952Y-84964285D01*
X43878571Y-85011904D01*
X43926190Y-85107142D01*
X43926190Y-85488095D01*
X43830952Y-84345238D02*
X43783333Y-84440476D01*
X43735714Y-84488095D01*
X43640476Y-84535714D01*
X43592857Y-84535714D01*
X43497619Y-84488095D01*
X43450000Y-84440476D01*
X43402381Y-84345238D01*
X43402381Y-84154761D01*
X43450000Y-84059523D01*
X43497619Y-84011904D01*
X43592857Y-83964285D01*
X43640476Y-83964285D01*
X43735714Y-84011904D01*
X43783333Y-84059523D01*
X43830952Y-84154761D01*
X43830952Y-84345238D01*
X43878571Y-84440476D01*
X43926190Y-84488095D01*
X44021429Y-84535714D01*
X44211905Y-84535714D01*
X44307143Y-84488095D01*
X44354762Y-84440476D01*
X44402381Y-84345238D01*
X44402381Y-84154761D01*
X44354762Y-84059523D01*
X44307143Y-84011904D01*
X44211905Y-83964285D01*
X44021429Y-83964285D01*
X43926190Y-84011904D01*
X43878571Y-84059523D01*
X43830952Y-84154761D01*
X85452381Y-89966666D02*
X84976190Y-90300000D01*
X85452381Y-90538095D02*
X84452381Y-90538095D01*
X84452381Y-90157142D01*
X84500000Y-90061904D01*
X84547619Y-90014285D01*
X84642857Y-89966666D01*
X84785714Y-89966666D01*
X84880952Y-90014285D01*
X84928571Y-90061904D01*
X84976190Y-90157142D01*
X84976190Y-90538095D01*
X84452381Y-89633333D02*
X84452381Y-88966666D01*
X85452381Y-89395238D01*
X84233334Y-82252381D02*
X83900000Y-81776190D01*
X83661905Y-82252381D02*
X83661905Y-81252381D01*
X84042858Y-81252381D01*
X84138096Y-81300000D01*
X84185715Y-81347619D01*
X84233334Y-81442857D01*
X84233334Y-81585714D01*
X84185715Y-81680952D01*
X84138096Y-81728571D01*
X84042858Y-81776190D01*
X83661905Y-81776190D01*
X85090477Y-81252381D02*
X84900000Y-81252381D01*
X84804762Y-81300000D01*
X84757143Y-81347619D01*
X84661905Y-81490476D01*
X84614286Y-81680952D01*
X84614286Y-82061905D01*
X84661905Y-82157143D01*
X84709524Y-82204762D01*
X84804762Y-82252381D01*
X84995239Y-82252381D01*
X85090477Y-82204762D01*
X85138096Y-82157143D01*
X85185715Y-82061905D01*
X85185715Y-81823810D01*
X85138096Y-81728571D01*
X85090477Y-81680952D01*
X84995239Y-81633333D01*
X84804762Y-81633333D01*
X84709524Y-81680952D01*
X84661905Y-81728571D01*
X84614286Y-81823810D01*
X87333334Y-88652381D02*
X87000000Y-88176190D01*
X86761905Y-88652381D02*
X86761905Y-87652381D01*
X87142858Y-87652381D01*
X87238096Y-87700000D01*
X87285715Y-87747619D01*
X87333334Y-87842857D01*
X87333334Y-87985714D01*
X87285715Y-88080952D01*
X87238096Y-88128571D01*
X87142858Y-88176190D01*
X86761905Y-88176190D01*
X88190477Y-87985714D02*
X88190477Y-88652381D01*
X87952381Y-87604762D02*
X87714286Y-88319048D01*
X88333334Y-88319048D01*
X68702381Y-16666666D02*
X68226190Y-17000000D01*
X68702381Y-17238095D02*
X67702381Y-17238095D01*
X67702381Y-16857142D01*
X67750000Y-16761904D01*
X67797619Y-16714285D01*
X67892857Y-16666666D01*
X68035714Y-16666666D01*
X68130952Y-16714285D01*
X68178571Y-16761904D01*
X68226190Y-16857142D01*
X68226190Y-17238095D01*
X67702381Y-16333333D02*
X67702381Y-15714285D01*
X68083333Y-16047619D01*
X68083333Y-15904761D01*
X68130952Y-15809523D01*
X68178571Y-15761904D01*
X68273810Y-15714285D01*
X68511905Y-15714285D01*
X68607143Y-15761904D01*
X68654762Y-15809523D01*
X68702381Y-15904761D01*
X68702381Y-16190476D01*
X68654762Y-16285714D01*
X68607143Y-16333333D01*
X63002381Y-16666666D02*
X62526190Y-17000000D01*
X63002381Y-17238095D02*
X62002381Y-17238095D01*
X62002381Y-16857142D01*
X62050000Y-16761904D01*
X62097619Y-16714285D01*
X62192857Y-16666666D01*
X62335714Y-16666666D01*
X62430952Y-16714285D01*
X62478571Y-16761904D01*
X62526190Y-16857142D01*
X62526190Y-17238095D01*
X62097619Y-16285714D02*
X62050000Y-16238095D01*
X62002381Y-16142857D01*
X62002381Y-15904761D01*
X62050000Y-15809523D01*
X62097619Y-15761904D01*
X62192857Y-15714285D01*
X62288095Y-15714285D01*
X62430952Y-15761904D01*
X63002381Y-16333333D01*
X63002381Y-15714285D01*
X54002381Y-11666666D02*
X53526190Y-12000000D01*
X54002381Y-12238095D02*
X53002381Y-12238095D01*
X53002381Y-11857142D01*
X53050000Y-11761904D01*
X53097619Y-11714285D01*
X53192857Y-11666666D01*
X53335714Y-11666666D01*
X53430952Y-11714285D01*
X53478571Y-11761904D01*
X53526190Y-11857142D01*
X53526190Y-12238095D01*
X54002381Y-10714285D02*
X54002381Y-11285714D01*
X54002381Y-11000000D02*
X53002381Y-11000000D01*
X53145238Y-11095238D01*
X53240476Y-11190476D01*
X53288095Y-11285714D01*
X33428571Y-50202381D02*
X33619048Y-50202381D01*
X33714286Y-50250000D01*
X33809524Y-50345238D01*
X33857143Y-50535714D01*
X33857143Y-50869048D01*
X33809524Y-51059524D01*
X33714286Y-51154762D01*
X33619048Y-51202381D01*
X33428571Y-51202381D01*
X33333333Y-51154762D01*
X33238095Y-51059524D01*
X33190476Y-50869048D01*
X33190476Y-50535714D01*
X33238095Y-50345238D01*
X33333333Y-50250000D01*
X33428571Y-50202381D01*
X34809524Y-51202381D02*
X34238095Y-51202381D01*
X34523809Y-51202381D02*
X34523809Y-50202381D01*
X34428571Y-50345238D01*
X34333333Y-50440476D01*
X34238095Y-50488095D01*
X94916667Y-22522381D02*
X94916667Y-23236667D01*
X94869047Y-23379524D01*
X94773809Y-23474762D01*
X94630952Y-23522381D01*
X94535714Y-23522381D01*
X95535714Y-22950952D02*
X95440476Y-22903333D01*
X95392857Y-22855714D01*
X95345238Y-22760476D01*
X95345238Y-22712857D01*
X95392857Y-22617619D01*
X95440476Y-22570000D01*
X95535714Y-22522381D01*
X95726191Y-22522381D01*
X95821429Y-22570000D01*
X95869048Y-22617619D01*
X95916667Y-22712857D01*
X95916667Y-22760476D01*
X95869048Y-22855714D01*
X95821429Y-22903333D01*
X95726191Y-22950952D01*
X95535714Y-22950952D01*
X95440476Y-22998571D01*
X95392857Y-23046190D01*
X95345238Y-23141429D01*
X95345238Y-23331905D01*
X95392857Y-23427143D01*
X95440476Y-23474762D01*
X95535714Y-23522381D01*
X95726191Y-23522381D01*
X95821429Y-23474762D01*
X95869048Y-23427143D01*
X95916667Y-23331905D01*
X95916667Y-23141429D01*
X95869048Y-23046190D01*
X95821429Y-22998571D01*
X95726191Y-22950952D01*
X4746667Y-22522381D02*
X4746667Y-23236667D01*
X4699047Y-23379524D01*
X4603809Y-23474762D01*
X4460952Y-23522381D01*
X4365714Y-23522381D01*
X5127619Y-22522381D02*
X5794286Y-22522381D01*
X5365714Y-23522381D01*
X29722381Y-6683333D02*
X30436667Y-6683333D01*
X30579524Y-6730953D01*
X30674762Y-6826191D01*
X30722381Y-6969048D01*
X30722381Y-7064286D01*
X29722381Y-5778571D02*
X29722381Y-5969048D01*
X29770000Y-6064286D01*
X29817619Y-6111905D01*
X29960476Y-6207143D01*
X30150952Y-6254762D01*
X30531905Y-6254762D01*
X30627143Y-6207143D01*
X30674762Y-6159524D01*
X30722381Y-6064286D01*
X30722381Y-5873809D01*
X30674762Y-5778571D01*
X30627143Y-5730952D01*
X30531905Y-5683333D01*
X30293810Y-5683333D01*
X30198571Y-5730952D01*
X30150952Y-5778571D01*
X30103333Y-5873809D01*
X30103333Y-6064286D01*
X30150952Y-6159524D01*
X30198571Y-6207143D01*
X30293810Y-6254762D01*
X56022381Y-7218333D02*
X56736667Y-7218333D01*
X56879524Y-7265953D01*
X56974762Y-7361191D01*
X57022381Y-7504048D01*
X57022381Y-7599286D01*
X56022381Y-6265952D02*
X56022381Y-6742143D01*
X56498571Y-6789762D01*
X56450952Y-6742143D01*
X56403333Y-6646905D01*
X56403333Y-6408809D01*
X56450952Y-6313571D01*
X56498571Y-6265952D01*
X56593810Y-6218333D01*
X56831905Y-6218333D01*
X56927143Y-6265952D01*
X56974762Y-6313571D01*
X57022381Y-6408809D01*
X57022381Y-6646905D01*
X56974762Y-6742143D01*
X56927143Y-6789762D01*
X92652381Y-79533333D02*
X93366667Y-79533333D01*
X93509524Y-79580953D01*
X93604762Y-79676191D01*
X93652381Y-79819048D01*
X93652381Y-79914286D01*
X92985714Y-78628571D02*
X93652381Y-78628571D01*
X92604762Y-78866667D02*
X93319048Y-79104762D01*
X93319048Y-78485714D01*
X84372381Y-14793333D02*
X85086667Y-14793333D01*
X85229524Y-14840953D01*
X85324762Y-14936191D01*
X85372381Y-15079048D01*
X85372381Y-15174286D01*
X85372381Y-13793333D02*
X85372381Y-14364762D01*
X85372381Y-14079048D02*
X84372381Y-14079048D01*
X84515238Y-14174286D01*
X84610476Y-14269524D01*
X84658095Y-14364762D01*
X80587143Y-73892857D02*
X80634762Y-73940476D01*
X80682381Y-74083333D01*
X80682381Y-74178571D01*
X80634762Y-74321429D01*
X80539524Y-74416667D01*
X80444286Y-74464286D01*
X80253810Y-74511905D01*
X80110952Y-74511905D01*
X79920476Y-74464286D01*
X79825238Y-74416667D01*
X79730000Y-74321429D01*
X79682381Y-74178571D01*
X79682381Y-74083333D01*
X79730000Y-73940476D01*
X79777619Y-73892857D01*
X79682381Y-73035714D02*
X79682381Y-73226191D01*
X79730000Y-73321429D01*
X79777619Y-73369048D01*
X79920476Y-73464286D01*
X80110952Y-73511905D01*
X80491905Y-73511905D01*
X80587143Y-73464286D01*
X80634762Y-73416667D01*
X80682381Y-73321429D01*
X80682381Y-73130952D01*
X80634762Y-73035714D01*
X80587143Y-72988095D01*
X80491905Y-72940476D01*
X80253810Y-72940476D01*
X80158571Y-72988095D01*
X80110952Y-73035714D01*
X80063333Y-73130952D01*
X80063333Y-73321429D01*
X80110952Y-73416667D01*
X80158571Y-73464286D01*
X80253810Y-73511905D01*
X80682381Y-72464286D02*
X80682381Y-72273810D01*
X80634762Y-72178571D01*
X80587143Y-72130952D01*
X80444286Y-72035714D01*
X80253810Y-71988095D01*
X79872857Y-71988095D01*
X79777619Y-72035714D01*
X79730000Y-72083333D01*
X79682381Y-72178571D01*
X79682381Y-72369048D01*
X79730000Y-72464286D01*
X79777619Y-72511905D01*
X79872857Y-72559524D01*
X80110952Y-72559524D01*
X80206190Y-72511905D01*
X80253810Y-72464286D01*
X80301429Y-72369048D01*
X80301429Y-72178571D01*
X80253810Y-72083333D01*
X80206190Y-72035714D01*
X80110952Y-71988095D01*
X80587143Y-67892857D02*
X80634762Y-67940476D01*
X80682381Y-68083333D01*
X80682381Y-68178571D01*
X80634762Y-68321429D01*
X80539524Y-68416667D01*
X80444286Y-68464286D01*
X80253810Y-68511905D01*
X80110952Y-68511905D01*
X79920476Y-68464286D01*
X79825238Y-68416667D01*
X79730000Y-68321429D01*
X79682381Y-68178571D01*
X79682381Y-68083333D01*
X79730000Y-67940476D01*
X79777619Y-67892857D01*
X79682381Y-67035714D02*
X79682381Y-67226191D01*
X79730000Y-67321429D01*
X79777619Y-67369048D01*
X79920476Y-67464286D01*
X80110952Y-67511905D01*
X80491905Y-67511905D01*
X80587143Y-67464286D01*
X80634762Y-67416667D01*
X80682381Y-67321429D01*
X80682381Y-67130952D01*
X80634762Y-67035714D01*
X80587143Y-66988095D01*
X80491905Y-66940476D01*
X80253810Y-66940476D01*
X80158571Y-66988095D01*
X80110952Y-67035714D01*
X80063333Y-67130952D01*
X80063333Y-67321429D01*
X80110952Y-67416667D01*
X80158571Y-67464286D01*
X80253810Y-67511905D01*
X80110952Y-66369048D02*
X80063333Y-66464286D01*
X80015714Y-66511905D01*
X79920476Y-66559524D01*
X79872857Y-66559524D01*
X79777619Y-66511905D01*
X79730000Y-66464286D01*
X79682381Y-66369048D01*
X79682381Y-66178571D01*
X79730000Y-66083333D01*
X79777619Y-66035714D01*
X79872857Y-65988095D01*
X79920476Y-65988095D01*
X80015714Y-66035714D01*
X80063333Y-66083333D01*
X80110952Y-66178571D01*
X80110952Y-66369048D01*
X80158571Y-66464286D01*
X80206190Y-66511905D01*
X80301429Y-66559524D01*
X80491905Y-66559524D01*
X80587143Y-66511905D01*
X80634762Y-66464286D01*
X80682381Y-66369048D01*
X80682381Y-66178571D01*
X80634762Y-66083333D01*
X80587143Y-66035714D01*
X80491905Y-65988095D01*
X80301429Y-65988095D01*
X80206190Y-66035714D01*
X80158571Y-66083333D01*
X80110952Y-66178571D01*
X80587143Y-61892857D02*
X80634762Y-61940476D01*
X80682381Y-62083333D01*
X80682381Y-62178571D01*
X80634762Y-62321429D01*
X80539524Y-62416667D01*
X80444286Y-62464286D01*
X80253810Y-62511905D01*
X80110952Y-62511905D01*
X79920476Y-62464286D01*
X79825238Y-62416667D01*
X79730000Y-62321429D01*
X79682381Y-62178571D01*
X79682381Y-62083333D01*
X79730000Y-61940476D01*
X79777619Y-61892857D01*
X79682381Y-61035714D02*
X79682381Y-61226191D01*
X79730000Y-61321429D01*
X79777619Y-61369048D01*
X79920476Y-61464286D01*
X80110952Y-61511905D01*
X80491905Y-61511905D01*
X80587143Y-61464286D01*
X80634762Y-61416667D01*
X80682381Y-61321429D01*
X80682381Y-61130952D01*
X80634762Y-61035714D01*
X80587143Y-60988095D01*
X80491905Y-60940476D01*
X80253810Y-60940476D01*
X80158571Y-60988095D01*
X80110952Y-61035714D01*
X80063333Y-61130952D01*
X80063333Y-61321429D01*
X80110952Y-61416667D01*
X80158571Y-61464286D01*
X80253810Y-61511905D01*
X79682381Y-60607143D02*
X79682381Y-59940476D01*
X80682381Y-60369048D01*
X80587143Y-55892857D02*
X80634762Y-55940476D01*
X80682381Y-56083333D01*
X80682381Y-56178571D01*
X80634762Y-56321429D01*
X80539524Y-56416667D01*
X80444286Y-56464286D01*
X80253810Y-56511905D01*
X80110952Y-56511905D01*
X79920476Y-56464286D01*
X79825238Y-56416667D01*
X79730000Y-56321429D01*
X79682381Y-56178571D01*
X79682381Y-56083333D01*
X79730000Y-55940476D01*
X79777619Y-55892857D01*
X79682381Y-55035714D02*
X79682381Y-55226191D01*
X79730000Y-55321429D01*
X79777619Y-55369048D01*
X79920476Y-55464286D01*
X80110952Y-55511905D01*
X80491905Y-55511905D01*
X80587143Y-55464286D01*
X80634762Y-55416667D01*
X80682381Y-55321429D01*
X80682381Y-55130952D01*
X80634762Y-55035714D01*
X80587143Y-54988095D01*
X80491905Y-54940476D01*
X80253810Y-54940476D01*
X80158571Y-54988095D01*
X80110952Y-55035714D01*
X80063333Y-55130952D01*
X80063333Y-55321429D01*
X80110952Y-55416667D01*
X80158571Y-55464286D01*
X80253810Y-55511905D01*
X79682381Y-54083333D02*
X79682381Y-54273810D01*
X79730000Y-54369048D01*
X79777619Y-54416667D01*
X79920476Y-54511905D01*
X80110952Y-54559524D01*
X80491905Y-54559524D01*
X80587143Y-54511905D01*
X80634762Y-54464286D01*
X80682381Y-54369048D01*
X80682381Y-54178571D01*
X80634762Y-54083333D01*
X80587143Y-54035714D01*
X80491905Y-53988095D01*
X80253810Y-53988095D01*
X80158571Y-54035714D01*
X80110952Y-54083333D01*
X80063333Y-54178571D01*
X80063333Y-54369048D01*
X80110952Y-54464286D01*
X80158571Y-54511905D01*
X80253810Y-54559524D01*
X80587143Y-49892857D02*
X80634762Y-49940476D01*
X80682381Y-50083333D01*
X80682381Y-50178571D01*
X80634762Y-50321429D01*
X80539524Y-50416667D01*
X80444286Y-50464286D01*
X80253810Y-50511905D01*
X80110952Y-50511905D01*
X79920476Y-50464286D01*
X79825238Y-50416667D01*
X79730000Y-50321429D01*
X79682381Y-50178571D01*
X79682381Y-50083333D01*
X79730000Y-49940476D01*
X79777619Y-49892857D01*
X79682381Y-49035714D02*
X79682381Y-49226191D01*
X79730000Y-49321429D01*
X79777619Y-49369048D01*
X79920476Y-49464286D01*
X80110952Y-49511905D01*
X80491905Y-49511905D01*
X80587143Y-49464286D01*
X80634762Y-49416667D01*
X80682381Y-49321429D01*
X80682381Y-49130952D01*
X80634762Y-49035714D01*
X80587143Y-48988095D01*
X80491905Y-48940476D01*
X80253810Y-48940476D01*
X80158571Y-48988095D01*
X80110952Y-49035714D01*
X80063333Y-49130952D01*
X80063333Y-49321429D01*
X80110952Y-49416667D01*
X80158571Y-49464286D01*
X80253810Y-49511905D01*
X79682381Y-48035714D02*
X79682381Y-48511905D01*
X80158571Y-48559524D01*
X80110952Y-48511905D01*
X80063333Y-48416667D01*
X80063333Y-48178571D01*
X80110952Y-48083333D01*
X80158571Y-48035714D01*
X80253810Y-47988095D01*
X80491905Y-47988095D01*
X80587143Y-48035714D01*
X80634762Y-48083333D01*
X80682381Y-48178571D01*
X80682381Y-48416667D01*
X80634762Y-48511905D01*
X80587143Y-48559524D01*
X80587143Y-43892857D02*
X80634762Y-43940476D01*
X80682381Y-44083333D01*
X80682381Y-44178571D01*
X80634762Y-44321429D01*
X80539524Y-44416667D01*
X80444286Y-44464286D01*
X80253810Y-44511905D01*
X80110952Y-44511905D01*
X79920476Y-44464286D01*
X79825238Y-44416667D01*
X79730000Y-44321429D01*
X79682381Y-44178571D01*
X79682381Y-44083333D01*
X79730000Y-43940476D01*
X79777619Y-43892857D01*
X79682381Y-43035714D02*
X79682381Y-43226191D01*
X79730000Y-43321429D01*
X79777619Y-43369048D01*
X79920476Y-43464286D01*
X80110952Y-43511905D01*
X80491905Y-43511905D01*
X80587143Y-43464286D01*
X80634762Y-43416667D01*
X80682381Y-43321429D01*
X80682381Y-43130952D01*
X80634762Y-43035714D01*
X80587143Y-42988095D01*
X80491905Y-42940476D01*
X80253810Y-42940476D01*
X80158571Y-42988095D01*
X80110952Y-43035714D01*
X80063333Y-43130952D01*
X80063333Y-43321429D01*
X80110952Y-43416667D01*
X80158571Y-43464286D01*
X80253810Y-43511905D01*
X80015714Y-42083333D02*
X80682381Y-42083333D01*
X79634762Y-42321429D02*
X80349048Y-42559524D01*
X80349048Y-41940476D01*
X80587143Y-37892857D02*
X80634762Y-37940476D01*
X80682381Y-38083333D01*
X80682381Y-38178571D01*
X80634762Y-38321429D01*
X80539524Y-38416667D01*
X80444286Y-38464286D01*
X80253810Y-38511905D01*
X80110952Y-38511905D01*
X79920476Y-38464286D01*
X79825238Y-38416667D01*
X79730000Y-38321429D01*
X79682381Y-38178571D01*
X79682381Y-38083333D01*
X79730000Y-37940476D01*
X79777619Y-37892857D01*
X79682381Y-37035714D02*
X79682381Y-37226191D01*
X79730000Y-37321429D01*
X79777619Y-37369048D01*
X79920476Y-37464286D01*
X80110952Y-37511905D01*
X80491905Y-37511905D01*
X80587143Y-37464286D01*
X80634762Y-37416667D01*
X80682381Y-37321429D01*
X80682381Y-37130952D01*
X80634762Y-37035714D01*
X80587143Y-36988095D01*
X80491905Y-36940476D01*
X80253810Y-36940476D01*
X80158571Y-36988095D01*
X80110952Y-37035714D01*
X80063333Y-37130952D01*
X80063333Y-37321429D01*
X80110952Y-37416667D01*
X80158571Y-37464286D01*
X80253810Y-37511905D01*
X79682381Y-36607143D02*
X79682381Y-35988095D01*
X80063333Y-36321429D01*
X80063333Y-36178571D01*
X80110952Y-36083333D01*
X80158571Y-36035714D01*
X80253810Y-35988095D01*
X80491905Y-35988095D01*
X80587143Y-36035714D01*
X80634762Y-36083333D01*
X80682381Y-36178571D01*
X80682381Y-36464286D01*
X80634762Y-36559524D01*
X80587143Y-36607143D01*
X80587143Y-31892857D02*
X80634762Y-31940476D01*
X80682381Y-32083333D01*
X80682381Y-32178571D01*
X80634762Y-32321429D01*
X80539524Y-32416667D01*
X80444286Y-32464286D01*
X80253810Y-32511905D01*
X80110952Y-32511905D01*
X79920476Y-32464286D01*
X79825238Y-32416667D01*
X79730000Y-32321429D01*
X79682381Y-32178571D01*
X79682381Y-32083333D01*
X79730000Y-31940476D01*
X79777619Y-31892857D01*
X79682381Y-31035714D02*
X79682381Y-31226191D01*
X79730000Y-31321429D01*
X79777619Y-31369048D01*
X79920476Y-31464286D01*
X80110952Y-31511905D01*
X80491905Y-31511905D01*
X80587143Y-31464286D01*
X80634762Y-31416667D01*
X80682381Y-31321429D01*
X80682381Y-31130952D01*
X80634762Y-31035714D01*
X80587143Y-30988095D01*
X80491905Y-30940476D01*
X80253810Y-30940476D01*
X80158571Y-30988095D01*
X80110952Y-31035714D01*
X80063333Y-31130952D01*
X80063333Y-31321429D01*
X80110952Y-31416667D01*
X80158571Y-31464286D01*
X80253810Y-31511905D01*
X79777619Y-30559524D02*
X79730000Y-30511905D01*
X79682381Y-30416667D01*
X79682381Y-30178571D01*
X79730000Y-30083333D01*
X79777619Y-30035714D01*
X79872857Y-29988095D01*
X79968095Y-29988095D01*
X80110952Y-30035714D01*
X80682381Y-30607143D01*
X80682381Y-29988095D01*
X80587143Y-25892857D02*
X80634762Y-25940476D01*
X80682381Y-26083333D01*
X80682381Y-26178571D01*
X80634762Y-26321429D01*
X80539524Y-26416667D01*
X80444286Y-26464286D01*
X80253810Y-26511905D01*
X80110952Y-26511905D01*
X79920476Y-26464286D01*
X79825238Y-26416667D01*
X79730000Y-26321429D01*
X79682381Y-26178571D01*
X79682381Y-26083333D01*
X79730000Y-25940476D01*
X79777619Y-25892857D01*
X79682381Y-25035714D02*
X79682381Y-25226191D01*
X79730000Y-25321429D01*
X79777619Y-25369048D01*
X79920476Y-25464286D01*
X80110952Y-25511905D01*
X80491905Y-25511905D01*
X80587143Y-25464286D01*
X80634762Y-25416667D01*
X80682381Y-25321429D01*
X80682381Y-25130952D01*
X80634762Y-25035714D01*
X80587143Y-24988095D01*
X80491905Y-24940476D01*
X80253810Y-24940476D01*
X80158571Y-24988095D01*
X80110952Y-25035714D01*
X80063333Y-25130952D01*
X80063333Y-25321429D01*
X80110952Y-25416667D01*
X80158571Y-25464286D01*
X80253810Y-25511905D01*
X80682381Y-23988095D02*
X80682381Y-24559524D01*
X80682381Y-24273810D02*
X79682381Y-24273810D01*
X79825238Y-24369048D01*
X79920476Y-24464286D01*
X79968095Y-24559524D01*
X66757143Y-39957143D02*
X66709524Y-40004762D01*
X66566667Y-40052381D01*
X66471429Y-40052381D01*
X66328571Y-40004762D01*
X66233333Y-39909524D01*
X66185714Y-39814286D01*
X66138095Y-39623810D01*
X66138095Y-39480952D01*
X66185714Y-39290476D01*
X66233333Y-39195238D01*
X66328571Y-39100000D01*
X66471429Y-39052381D01*
X66566667Y-39052381D01*
X66709524Y-39100000D01*
X66757143Y-39147619D01*
X67614286Y-39052381D02*
X67423809Y-39052381D01*
X67328571Y-39100000D01*
X67280952Y-39147619D01*
X67185714Y-39290476D01*
X67138095Y-39480952D01*
X67138095Y-39861905D01*
X67185714Y-39957143D01*
X67233333Y-40004762D01*
X67328571Y-40052381D01*
X67519048Y-40052381D01*
X67614286Y-40004762D01*
X67661905Y-39957143D01*
X67709524Y-39861905D01*
X67709524Y-39623810D01*
X67661905Y-39528571D01*
X67614286Y-39480952D01*
X67519048Y-39433333D01*
X67328571Y-39433333D01*
X67233333Y-39480952D01*
X67185714Y-39528571D01*
X67138095Y-39623810D01*
X68328571Y-39052381D02*
X68423810Y-39052381D01*
X68519048Y-39100000D01*
X68566667Y-39147619D01*
X68614286Y-39242857D01*
X68661905Y-39433333D01*
X68661905Y-39671429D01*
X68614286Y-39861905D01*
X68566667Y-39957143D01*
X68519048Y-40004762D01*
X68423810Y-40052381D01*
X68328571Y-40052381D01*
X68233333Y-40004762D01*
X68185714Y-39957143D01*
X68138095Y-39861905D01*
X68090476Y-39671429D01*
X68090476Y-39433333D01*
X68138095Y-39242857D01*
X68185714Y-39147619D01*
X68233333Y-39100000D01*
X68328571Y-39052381D01*
X66757143Y-30957143D02*
X66709524Y-31004762D01*
X66566667Y-31052381D01*
X66471429Y-31052381D01*
X66328571Y-31004762D01*
X66233333Y-30909524D01*
X66185714Y-30814286D01*
X66138095Y-30623810D01*
X66138095Y-30480952D01*
X66185714Y-30290476D01*
X66233333Y-30195238D01*
X66328571Y-30100000D01*
X66471429Y-30052381D01*
X66566667Y-30052381D01*
X66709524Y-30100000D01*
X66757143Y-30147619D01*
X67661905Y-30052381D02*
X67185714Y-30052381D01*
X67138095Y-30528571D01*
X67185714Y-30480952D01*
X67280952Y-30433333D01*
X67519048Y-30433333D01*
X67614286Y-30480952D01*
X67661905Y-30528571D01*
X67709524Y-30623810D01*
X67709524Y-30861905D01*
X67661905Y-30957143D01*
X67614286Y-31004762D01*
X67519048Y-31052381D01*
X67280952Y-31052381D01*
X67185714Y-31004762D01*
X67138095Y-30957143D01*
X68185714Y-31052381D02*
X68376190Y-31052381D01*
X68471429Y-31004762D01*
X68519048Y-30957143D01*
X68614286Y-30814286D01*
X68661905Y-30623810D01*
X68661905Y-30242857D01*
X68614286Y-30147619D01*
X68566667Y-30100000D01*
X68471429Y-30052381D01*
X68280952Y-30052381D01*
X68185714Y-30100000D01*
X68138095Y-30147619D01*
X68090476Y-30242857D01*
X68090476Y-30480952D01*
X68138095Y-30576190D01*
X68185714Y-30623810D01*
X68280952Y-30671429D01*
X68471429Y-30671429D01*
X68566667Y-30623810D01*
X68614286Y-30576190D01*
X68661905Y-30480952D01*
X66757143Y-21957143D02*
X66709524Y-22004762D01*
X66566667Y-22052381D01*
X66471429Y-22052381D01*
X66328571Y-22004762D01*
X66233333Y-21909524D01*
X66185714Y-21814286D01*
X66138095Y-21623810D01*
X66138095Y-21480952D01*
X66185714Y-21290476D01*
X66233333Y-21195238D01*
X66328571Y-21100000D01*
X66471429Y-21052381D01*
X66566667Y-21052381D01*
X66709524Y-21100000D01*
X66757143Y-21147619D01*
X67661905Y-21052381D02*
X67185714Y-21052381D01*
X67138095Y-21528571D01*
X67185714Y-21480952D01*
X67280952Y-21433333D01*
X67519048Y-21433333D01*
X67614286Y-21480952D01*
X67661905Y-21528571D01*
X67709524Y-21623810D01*
X67709524Y-21861905D01*
X67661905Y-21957143D01*
X67614286Y-22004762D01*
X67519048Y-22052381D01*
X67280952Y-22052381D01*
X67185714Y-22004762D01*
X67138095Y-21957143D01*
X68280952Y-21480952D02*
X68185714Y-21433333D01*
X68138095Y-21385714D01*
X68090476Y-21290476D01*
X68090476Y-21242857D01*
X68138095Y-21147619D01*
X68185714Y-21100000D01*
X68280952Y-21052381D01*
X68471429Y-21052381D01*
X68566667Y-21100000D01*
X68614286Y-21147619D01*
X68661905Y-21242857D01*
X68661905Y-21290476D01*
X68614286Y-21385714D01*
X68566667Y-21433333D01*
X68471429Y-21480952D01*
X68280952Y-21480952D01*
X68185714Y-21528571D01*
X68138095Y-21576190D01*
X68090476Y-21671429D01*
X68090476Y-21861905D01*
X68138095Y-21957143D01*
X68185714Y-22004762D01*
X68280952Y-22052381D01*
X68471429Y-22052381D01*
X68566667Y-22004762D01*
X68614286Y-21957143D01*
X68661905Y-21861905D01*
X68661905Y-21671429D01*
X68614286Y-21576190D01*
X68566667Y-21528571D01*
X68471429Y-21480952D01*
X21127143Y-74392857D02*
X21174762Y-74440476D01*
X21222381Y-74583333D01*
X21222381Y-74678571D01*
X21174762Y-74821429D01*
X21079524Y-74916667D01*
X20984286Y-74964286D01*
X20793810Y-75011905D01*
X20650952Y-75011905D01*
X20460476Y-74964286D01*
X20365238Y-74916667D01*
X20270000Y-74821429D01*
X20222381Y-74678571D01*
X20222381Y-74583333D01*
X20270000Y-74440476D01*
X20317619Y-74392857D01*
X20222381Y-73488095D02*
X20222381Y-73964286D01*
X20698571Y-74011905D01*
X20650952Y-73964286D01*
X20603333Y-73869048D01*
X20603333Y-73630952D01*
X20650952Y-73535714D01*
X20698571Y-73488095D01*
X20793810Y-73440476D01*
X21031905Y-73440476D01*
X21127143Y-73488095D01*
X21174762Y-73535714D01*
X21222381Y-73630952D01*
X21222381Y-73869048D01*
X21174762Y-73964286D01*
X21127143Y-74011905D01*
X20222381Y-73107143D02*
X20222381Y-72440476D01*
X21222381Y-72869048D01*
X21127143Y-68392857D02*
X21174762Y-68440476D01*
X21222381Y-68583333D01*
X21222381Y-68678571D01*
X21174762Y-68821429D01*
X21079524Y-68916667D01*
X20984286Y-68964286D01*
X20793810Y-69011905D01*
X20650952Y-69011905D01*
X20460476Y-68964286D01*
X20365238Y-68916667D01*
X20270000Y-68821429D01*
X20222381Y-68678571D01*
X20222381Y-68583333D01*
X20270000Y-68440476D01*
X20317619Y-68392857D01*
X20222381Y-67488095D02*
X20222381Y-67964286D01*
X20698571Y-68011905D01*
X20650952Y-67964286D01*
X20603333Y-67869048D01*
X20603333Y-67630952D01*
X20650952Y-67535714D01*
X20698571Y-67488095D01*
X20793810Y-67440476D01*
X21031905Y-67440476D01*
X21127143Y-67488095D01*
X21174762Y-67535714D01*
X21222381Y-67630952D01*
X21222381Y-67869048D01*
X21174762Y-67964286D01*
X21127143Y-68011905D01*
X20222381Y-66583333D02*
X20222381Y-66773810D01*
X20270000Y-66869048D01*
X20317619Y-66916667D01*
X20460476Y-67011905D01*
X20650952Y-67059524D01*
X21031905Y-67059524D01*
X21127143Y-67011905D01*
X21174762Y-66964286D01*
X21222381Y-66869048D01*
X21222381Y-66678571D01*
X21174762Y-66583333D01*
X21127143Y-66535714D01*
X21031905Y-66488095D01*
X20793810Y-66488095D01*
X20698571Y-66535714D01*
X20650952Y-66583333D01*
X20603333Y-66678571D01*
X20603333Y-66869048D01*
X20650952Y-66964286D01*
X20698571Y-67011905D01*
X20793810Y-67059524D01*
X21127143Y-62392857D02*
X21174762Y-62440476D01*
X21222381Y-62583333D01*
X21222381Y-62678571D01*
X21174762Y-62821429D01*
X21079524Y-62916667D01*
X20984286Y-62964286D01*
X20793810Y-63011905D01*
X20650952Y-63011905D01*
X20460476Y-62964286D01*
X20365238Y-62916667D01*
X20270000Y-62821429D01*
X20222381Y-62678571D01*
X20222381Y-62583333D01*
X20270000Y-62440476D01*
X20317619Y-62392857D01*
X20222381Y-61488095D02*
X20222381Y-61964286D01*
X20698571Y-62011905D01*
X20650952Y-61964286D01*
X20603333Y-61869048D01*
X20603333Y-61630952D01*
X20650952Y-61535714D01*
X20698571Y-61488095D01*
X20793810Y-61440476D01*
X21031905Y-61440476D01*
X21127143Y-61488095D01*
X21174762Y-61535714D01*
X21222381Y-61630952D01*
X21222381Y-61869048D01*
X21174762Y-61964286D01*
X21127143Y-62011905D01*
X20222381Y-60535714D02*
X20222381Y-61011905D01*
X20698571Y-61059524D01*
X20650952Y-61011905D01*
X20603333Y-60916667D01*
X20603333Y-60678571D01*
X20650952Y-60583333D01*
X20698571Y-60535714D01*
X20793810Y-60488095D01*
X21031905Y-60488095D01*
X21127143Y-60535714D01*
X21174762Y-60583333D01*
X21222381Y-60678571D01*
X21222381Y-60916667D01*
X21174762Y-61011905D01*
X21127143Y-61059524D01*
X21127143Y-56392857D02*
X21174762Y-56440476D01*
X21222381Y-56583333D01*
X21222381Y-56678571D01*
X21174762Y-56821429D01*
X21079524Y-56916667D01*
X20984286Y-56964286D01*
X20793810Y-57011905D01*
X20650952Y-57011905D01*
X20460476Y-56964286D01*
X20365238Y-56916667D01*
X20270000Y-56821429D01*
X20222381Y-56678571D01*
X20222381Y-56583333D01*
X20270000Y-56440476D01*
X20317619Y-56392857D01*
X20222381Y-55488095D02*
X20222381Y-55964286D01*
X20698571Y-56011905D01*
X20650952Y-55964286D01*
X20603333Y-55869048D01*
X20603333Y-55630952D01*
X20650952Y-55535714D01*
X20698571Y-55488095D01*
X20793810Y-55440476D01*
X21031905Y-55440476D01*
X21127143Y-55488095D01*
X21174762Y-55535714D01*
X21222381Y-55630952D01*
X21222381Y-55869048D01*
X21174762Y-55964286D01*
X21127143Y-56011905D01*
X20555714Y-54583333D02*
X21222381Y-54583333D01*
X20174762Y-54821429D02*
X20889048Y-55059524D01*
X20889048Y-54440476D01*
X21127143Y-50392857D02*
X21174762Y-50440476D01*
X21222381Y-50583333D01*
X21222381Y-50678571D01*
X21174762Y-50821429D01*
X21079524Y-50916667D01*
X20984286Y-50964286D01*
X20793810Y-51011905D01*
X20650952Y-51011905D01*
X20460476Y-50964286D01*
X20365238Y-50916667D01*
X20270000Y-50821429D01*
X20222381Y-50678571D01*
X20222381Y-50583333D01*
X20270000Y-50440476D01*
X20317619Y-50392857D01*
X20222381Y-49488095D02*
X20222381Y-49964286D01*
X20698571Y-50011905D01*
X20650952Y-49964286D01*
X20603333Y-49869048D01*
X20603333Y-49630952D01*
X20650952Y-49535714D01*
X20698571Y-49488095D01*
X20793810Y-49440476D01*
X21031905Y-49440476D01*
X21127143Y-49488095D01*
X21174762Y-49535714D01*
X21222381Y-49630952D01*
X21222381Y-49869048D01*
X21174762Y-49964286D01*
X21127143Y-50011905D01*
X20222381Y-49107143D02*
X20222381Y-48488095D01*
X20603333Y-48821429D01*
X20603333Y-48678571D01*
X20650952Y-48583333D01*
X20698571Y-48535714D01*
X20793810Y-48488095D01*
X21031905Y-48488095D01*
X21127143Y-48535714D01*
X21174762Y-48583333D01*
X21222381Y-48678571D01*
X21222381Y-48964286D01*
X21174762Y-49059524D01*
X21127143Y-49107143D01*
X21127143Y-44392857D02*
X21174762Y-44440476D01*
X21222381Y-44583333D01*
X21222381Y-44678571D01*
X21174762Y-44821429D01*
X21079524Y-44916667D01*
X20984286Y-44964286D01*
X20793810Y-45011905D01*
X20650952Y-45011905D01*
X20460476Y-44964286D01*
X20365238Y-44916667D01*
X20270000Y-44821429D01*
X20222381Y-44678571D01*
X20222381Y-44583333D01*
X20270000Y-44440476D01*
X20317619Y-44392857D01*
X20222381Y-43488095D02*
X20222381Y-43964286D01*
X20698571Y-44011905D01*
X20650952Y-43964286D01*
X20603333Y-43869048D01*
X20603333Y-43630952D01*
X20650952Y-43535714D01*
X20698571Y-43488095D01*
X20793810Y-43440476D01*
X21031905Y-43440476D01*
X21127143Y-43488095D01*
X21174762Y-43535714D01*
X21222381Y-43630952D01*
X21222381Y-43869048D01*
X21174762Y-43964286D01*
X21127143Y-44011905D01*
X20317619Y-43059524D02*
X20270000Y-43011905D01*
X20222381Y-42916667D01*
X20222381Y-42678571D01*
X20270000Y-42583333D01*
X20317619Y-42535714D01*
X20412857Y-42488095D01*
X20508095Y-42488095D01*
X20650952Y-42535714D01*
X21222381Y-43107143D01*
X21222381Y-42488095D01*
X21127143Y-38392857D02*
X21174762Y-38440476D01*
X21222381Y-38583333D01*
X21222381Y-38678571D01*
X21174762Y-38821429D01*
X21079524Y-38916667D01*
X20984286Y-38964286D01*
X20793810Y-39011905D01*
X20650952Y-39011905D01*
X20460476Y-38964286D01*
X20365238Y-38916667D01*
X20270000Y-38821429D01*
X20222381Y-38678571D01*
X20222381Y-38583333D01*
X20270000Y-38440476D01*
X20317619Y-38392857D01*
X20222381Y-37488095D02*
X20222381Y-37964286D01*
X20698571Y-38011905D01*
X20650952Y-37964286D01*
X20603333Y-37869048D01*
X20603333Y-37630952D01*
X20650952Y-37535714D01*
X20698571Y-37488095D01*
X20793810Y-37440476D01*
X21031905Y-37440476D01*
X21127143Y-37488095D01*
X21174762Y-37535714D01*
X21222381Y-37630952D01*
X21222381Y-37869048D01*
X21174762Y-37964286D01*
X21127143Y-38011905D01*
X21222381Y-36488095D02*
X21222381Y-37059524D01*
X21222381Y-36773810D02*
X20222381Y-36773810D01*
X20365238Y-36869048D01*
X20460476Y-36964286D01*
X20508095Y-37059524D01*
X21127143Y-32392857D02*
X21174762Y-32440476D01*
X21222381Y-32583333D01*
X21222381Y-32678571D01*
X21174762Y-32821429D01*
X21079524Y-32916667D01*
X20984286Y-32964286D01*
X20793810Y-33011905D01*
X20650952Y-33011905D01*
X20460476Y-32964286D01*
X20365238Y-32916667D01*
X20270000Y-32821429D01*
X20222381Y-32678571D01*
X20222381Y-32583333D01*
X20270000Y-32440476D01*
X20317619Y-32392857D01*
X20222381Y-31488095D02*
X20222381Y-31964286D01*
X20698571Y-32011905D01*
X20650952Y-31964286D01*
X20603333Y-31869048D01*
X20603333Y-31630952D01*
X20650952Y-31535714D01*
X20698571Y-31488095D01*
X20793810Y-31440476D01*
X21031905Y-31440476D01*
X21127143Y-31488095D01*
X21174762Y-31535714D01*
X21222381Y-31630952D01*
X21222381Y-31869048D01*
X21174762Y-31964286D01*
X21127143Y-32011905D01*
X20222381Y-30821429D02*
X20222381Y-30726190D01*
X20270000Y-30630952D01*
X20317619Y-30583333D01*
X20412857Y-30535714D01*
X20603333Y-30488095D01*
X20841429Y-30488095D01*
X21031905Y-30535714D01*
X21127143Y-30583333D01*
X21174762Y-30630952D01*
X21222381Y-30726190D01*
X21222381Y-30821429D01*
X21174762Y-30916667D01*
X21127143Y-30964286D01*
X21031905Y-31011905D01*
X20841429Y-31059524D01*
X20603333Y-31059524D01*
X20412857Y-31011905D01*
X20317619Y-30964286D01*
X20270000Y-30916667D01*
X20222381Y-30821429D01*
X21127143Y-26392857D02*
X21174762Y-26440476D01*
X21222381Y-26583333D01*
X21222381Y-26678571D01*
X21174762Y-26821429D01*
X21079524Y-26916667D01*
X20984286Y-26964286D01*
X20793810Y-27011905D01*
X20650952Y-27011905D01*
X20460476Y-26964286D01*
X20365238Y-26916667D01*
X20270000Y-26821429D01*
X20222381Y-26678571D01*
X20222381Y-26583333D01*
X20270000Y-26440476D01*
X20317619Y-26392857D01*
X20555714Y-25535714D02*
X21222381Y-25535714D01*
X20174762Y-25773810D02*
X20889048Y-26011905D01*
X20889048Y-25392857D01*
X21222381Y-24964286D02*
X21222381Y-24773810D01*
X21174762Y-24678571D01*
X21127143Y-24630952D01*
X20984286Y-24535714D01*
X20793810Y-24488095D01*
X20412857Y-24488095D01*
X20317619Y-24535714D01*
X20270000Y-24583333D01*
X20222381Y-24678571D01*
X20222381Y-24869048D01*
X20270000Y-24964286D01*
X20317619Y-25011905D01*
X20412857Y-25059524D01*
X20650952Y-25059524D01*
X20746190Y-25011905D01*
X20793810Y-24964286D01*
X20841429Y-24869048D01*
X20841429Y-24678571D01*
X20793810Y-24583333D01*
X20746190Y-24535714D01*
X20650952Y-24488095D01*
X21127143Y-20392857D02*
X21174762Y-20440476D01*
X21222381Y-20583333D01*
X21222381Y-20678571D01*
X21174762Y-20821429D01*
X21079524Y-20916667D01*
X20984286Y-20964286D01*
X20793810Y-21011905D01*
X20650952Y-21011905D01*
X20460476Y-20964286D01*
X20365238Y-20916667D01*
X20270000Y-20821429D01*
X20222381Y-20678571D01*
X20222381Y-20583333D01*
X20270000Y-20440476D01*
X20317619Y-20392857D01*
X20555714Y-19535714D02*
X21222381Y-19535714D01*
X20174762Y-19773810D02*
X20889048Y-20011905D01*
X20889048Y-19392857D01*
X20650952Y-18869048D02*
X20603333Y-18964286D01*
X20555714Y-19011905D01*
X20460476Y-19059524D01*
X20412857Y-19059524D01*
X20317619Y-19011905D01*
X20270000Y-18964286D01*
X20222381Y-18869048D01*
X20222381Y-18678571D01*
X20270000Y-18583333D01*
X20317619Y-18535714D01*
X20412857Y-18488095D01*
X20460476Y-18488095D01*
X20555714Y-18535714D01*
X20603333Y-18583333D01*
X20650952Y-18678571D01*
X20650952Y-18869048D01*
X20698571Y-18964286D01*
X20746190Y-19011905D01*
X20841429Y-19059524D01*
X21031905Y-19059524D01*
X21127143Y-19011905D01*
X21174762Y-18964286D01*
X21222381Y-18869048D01*
X21222381Y-18678571D01*
X21174762Y-18583333D01*
X21127143Y-18535714D01*
X21031905Y-18488095D01*
X20841429Y-18488095D01*
X20746190Y-18535714D01*
X20698571Y-18583333D01*
X20650952Y-18678571D01*
X26607143Y-30857143D02*
X26559524Y-30904762D01*
X26416667Y-30952381D01*
X26321429Y-30952381D01*
X26178571Y-30904762D01*
X26083333Y-30809524D01*
X26035714Y-30714286D01*
X25988095Y-30523810D01*
X25988095Y-30380952D01*
X26035714Y-30190476D01*
X26083333Y-30095238D01*
X26178571Y-30000000D01*
X26321429Y-29952381D01*
X26416667Y-29952381D01*
X26559524Y-30000000D01*
X26607143Y-30047619D01*
X27464286Y-30285714D02*
X27464286Y-30952381D01*
X27226190Y-29904762D02*
X26988095Y-30619048D01*
X27607143Y-30619048D01*
X27892857Y-29952381D02*
X28559524Y-29952381D01*
X28130952Y-30952381D01*
X26607143Y-39857143D02*
X26559524Y-39904762D01*
X26416667Y-39952381D01*
X26321429Y-39952381D01*
X26178571Y-39904762D01*
X26083333Y-39809524D01*
X26035714Y-39714286D01*
X25988095Y-39523810D01*
X25988095Y-39380952D01*
X26035714Y-39190476D01*
X26083333Y-39095238D01*
X26178571Y-39000000D01*
X26321429Y-38952381D01*
X26416667Y-38952381D01*
X26559524Y-39000000D01*
X26607143Y-39047619D01*
X27464286Y-39285714D02*
X27464286Y-39952381D01*
X27226190Y-38904762D02*
X26988095Y-39619048D01*
X27607143Y-39619048D01*
X28416667Y-38952381D02*
X28226190Y-38952381D01*
X28130952Y-39000000D01*
X28083333Y-39047619D01*
X27988095Y-39190476D01*
X27940476Y-39380952D01*
X27940476Y-39761905D01*
X27988095Y-39857143D01*
X28035714Y-39904762D01*
X28130952Y-39952381D01*
X28321429Y-39952381D01*
X28416667Y-39904762D01*
X28464286Y-39857143D01*
X28511905Y-39761905D01*
X28511905Y-39523810D01*
X28464286Y-39428571D01*
X28416667Y-39380952D01*
X28321429Y-39333333D01*
X28130952Y-39333333D01*
X28035714Y-39380952D01*
X27988095Y-39428571D01*
X27940476Y-39523810D01*
X26607143Y-48857143D02*
X26559524Y-48904762D01*
X26416667Y-48952381D01*
X26321429Y-48952381D01*
X26178571Y-48904762D01*
X26083333Y-48809524D01*
X26035714Y-48714286D01*
X25988095Y-48523810D01*
X25988095Y-48380952D01*
X26035714Y-48190476D01*
X26083333Y-48095238D01*
X26178571Y-48000000D01*
X26321429Y-47952381D01*
X26416667Y-47952381D01*
X26559524Y-48000000D01*
X26607143Y-48047619D01*
X27464286Y-48285714D02*
X27464286Y-48952381D01*
X27226190Y-47904762D02*
X26988095Y-48619048D01*
X27607143Y-48619048D01*
X28464286Y-47952381D02*
X27988095Y-47952381D01*
X27940476Y-48428571D01*
X27988095Y-48380952D01*
X28083333Y-48333333D01*
X28321429Y-48333333D01*
X28416667Y-48380952D01*
X28464286Y-48428571D01*
X28511905Y-48523810D01*
X28511905Y-48761905D01*
X28464286Y-48857143D01*
X28416667Y-48904762D01*
X28321429Y-48952381D01*
X28083333Y-48952381D01*
X27988095Y-48904762D01*
X27940476Y-48857143D01*
X27857143Y-54092857D02*
X27904762Y-54140476D01*
X27952381Y-54283333D01*
X27952381Y-54378571D01*
X27904762Y-54521429D01*
X27809524Y-54616667D01*
X27714286Y-54664286D01*
X27523810Y-54711905D01*
X27380952Y-54711905D01*
X27190476Y-54664286D01*
X27095238Y-54616667D01*
X27000000Y-54521429D01*
X26952381Y-54378571D01*
X26952381Y-54283333D01*
X27000000Y-54140476D01*
X27047619Y-54092857D01*
X27285714Y-53235714D02*
X27952381Y-53235714D01*
X26904762Y-53473810D02*
X27619048Y-53711905D01*
X27619048Y-53092857D01*
X27285714Y-52283333D02*
X27952381Y-52283333D01*
X26904762Y-52521429D02*
X27619048Y-52759524D01*
X27619048Y-52140476D01*
X42107143Y-19892857D02*
X42154762Y-19940476D01*
X42202381Y-20083333D01*
X42202381Y-20178571D01*
X42154762Y-20321429D01*
X42059524Y-20416667D01*
X41964286Y-20464286D01*
X41773810Y-20511905D01*
X41630952Y-20511905D01*
X41440476Y-20464286D01*
X41345238Y-20416667D01*
X41250000Y-20321429D01*
X41202381Y-20178571D01*
X41202381Y-20083333D01*
X41250000Y-19940476D01*
X41297619Y-19892857D01*
X41535714Y-19035714D02*
X42202381Y-19035714D01*
X41154762Y-19273810D02*
X41869048Y-19511905D01*
X41869048Y-18892857D01*
X41202381Y-18607143D02*
X41202381Y-17988095D01*
X41583333Y-18321429D01*
X41583333Y-18178571D01*
X41630952Y-18083333D01*
X41678571Y-18035714D01*
X41773810Y-17988095D01*
X42011905Y-17988095D01*
X42107143Y-18035714D01*
X42154762Y-18083333D01*
X42202381Y-18178571D01*
X42202381Y-18464286D01*
X42154762Y-18559524D01*
X42107143Y-18607143D01*
X44107143Y-19892857D02*
X44154762Y-19940476D01*
X44202381Y-20083333D01*
X44202381Y-20178571D01*
X44154762Y-20321429D01*
X44059524Y-20416667D01*
X43964286Y-20464286D01*
X43773810Y-20511905D01*
X43630952Y-20511905D01*
X43440476Y-20464286D01*
X43345238Y-20416667D01*
X43250000Y-20321429D01*
X43202381Y-20178571D01*
X43202381Y-20083333D01*
X43250000Y-19940476D01*
X43297619Y-19892857D01*
X43535714Y-19035714D02*
X44202381Y-19035714D01*
X43154762Y-19273810D02*
X43869048Y-19511905D01*
X43869048Y-18892857D01*
X43297619Y-18559524D02*
X43250000Y-18511905D01*
X43202381Y-18416667D01*
X43202381Y-18178571D01*
X43250000Y-18083333D01*
X43297619Y-18035714D01*
X43392857Y-17988095D01*
X43488095Y-17988095D01*
X43630952Y-18035714D01*
X44202381Y-18607143D01*
X44202381Y-17988095D01*
X46857143Y-21857143D02*
X46809524Y-21904762D01*
X46666667Y-21952381D01*
X46571429Y-21952381D01*
X46428571Y-21904762D01*
X46333333Y-21809524D01*
X46285714Y-21714286D01*
X46238095Y-21523810D01*
X46238095Y-21380952D01*
X46285714Y-21190476D01*
X46333333Y-21095238D01*
X46428571Y-21000000D01*
X46571429Y-20952381D01*
X46666667Y-20952381D01*
X46809524Y-21000000D01*
X46857143Y-21047619D01*
X47714286Y-21285714D02*
X47714286Y-21952381D01*
X47476190Y-20904762D02*
X47238095Y-21619048D01*
X47857143Y-21619048D01*
X48761905Y-21952381D02*
X48190476Y-21952381D01*
X48476190Y-21952381D02*
X48476190Y-20952381D01*
X48380952Y-21095238D01*
X48285714Y-21190476D01*
X48190476Y-21238095D01*
X55357143Y-19892857D02*
X55404762Y-19940476D01*
X55452381Y-20083333D01*
X55452381Y-20178571D01*
X55404762Y-20321429D01*
X55309524Y-20416667D01*
X55214286Y-20464286D01*
X55023810Y-20511905D01*
X54880952Y-20511905D01*
X54690476Y-20464286D01*
X54595238Y-20416667D01*
X54500000Y-20321429D01*
X54452381Y-20178571D01*
X54452381Y-20083333D01*
X54500000Y-19940476D01*
X54547619Y-19892857D01*
X54785714Y-19035714D02*
X55452381Y-19035714D01*
X54404762Y-19273810D02*
X55119048Y-19511905D01*
X55119048Y-18892857D01*
X54452381Y-18321429D02*
X54452381Y-18226190D01*
X54500000Y-18130952D01*
X54547619Y-18083333D01*
X54642857Y-18035714D01*
X54833333Y-17988095D01*
X55071429Y-17988095D01*
X55261905Y-18035714D01*
X55357143Y-18083333D01*
X55404762Y-18130952D01*
X55452381Y-18226190D01*
X55452381Y-18321429D01*
X55404762Y-18416667D01*
X55357143Y-18464286D01*
X55261905Y-18511905D01*
X55071429Y-18559524D01*
X54833333Y-18559524D01*
X54642857Y-18511905D01*
X54547619Y-18464286D01*
X54500000Y-18416667D01*
X54452381Y-18321429D01*
X56607143Y-19892857D02*
X56654762Y-19940476D01*
X56702381Y-20083333D01*
X56702381Y-20178571D01*
X56654762Y-20321429D01*
X56559524Y-20416667D01*
X56464286Y-20464286D01*
X56273810Y-20511905D01*
X56130952Y-20511905D01*
X55940476Y-20464286D01*
X55845238Y-20416667D01*
X55750000Y-20321429D01*
X55702381Y-20178571D01*
X55702381Y-20083333D01*
X55750000Y-19940476D01*
X55797619Y-19892857D01*
X55702381Y-19559524D02*
X55702381Y-18940476D01*
X56083333Y-19273810D01*
X56083333Y-19130952D01*
X56130952Y-19035714D01*
X56178571Y-18988095D01*
X56273810Y-18940476D01*
X56511905Y-18940476D01*
X56607143Y-18988095D01*
X56654762Y-19035714D01*
X56702381Y-19130952D01*
X56702381Y-19416667D01*
X56654762Y-19511905D01*
X56607143Y-19559524D01*
X56702381Y-18464286D02*
X56702381Y-18273810D01*
X56654762Y-18178571D01*
X56607143Y-18130952D01*
X56464286Y-18035714D01*
X56273810Y-17988095D01*
X55892857Y-17988095D01*
X55797619Y-18035714D01*
X55750000Y-18083333D01*
X55702381Y-18178571D01*
X55702381Y-18369048D01*
X55750000Y-18464286D01*
X55797619Y-18511905D01*
X55892857Y-18559524D01*
X56130952Y-18559524D01*
X56226190Y-18511905D01*
X56273810Y-18464286D01*
X56321429Y-18369048D01*
X56321429Y-18178571D01*
X56273810Y-18083333D01*
X56226190Y-18035714D01*
X56130952Y-17988095D01*
X60607143Y-23337143D02*
X60559524Y-23384762D01*
X60416667Y-23432381D01*
X60321429Y-23432381D01*
X60178571Y-23384762D01*
X60083333Y-23289524D01*
X60035714Y-23194286D01*
X59988095Y-23003810D01*
X59988095Y-22860952D01*
X60035714Y-22670476D01*
X60083333Y-22575238D01*
X60178571Y-22480000D01*
X60321429Y-22432381D01*
X60416667Y-22432381D01*
X60559524Y-22480000D01*
X60607143Y-22527619D01*
X60940476Y-22432381D02*
X61559524Y-22432381D01*
X61226190Y-22813333D01*
X61369048Y-22813333D01*
X61464286Y-22860952D01*
X61511905Y-22908571D01*
X61559524Y-23003810D01*
X61559524Y-23241905D01*
X61511905Y-23337143D01*
X61464286Y-23384762D01*
X61369048Y-23432381D01*
X61083333Y-23432381D01*
X60988095Y-23384762D01*
X60940476Y-23337143D01*
X62130952Y-22860952D02*
X62035714Y-22813333D01*
X61988095Y-22765714D01*
X61940476Y-22670476D01*
X61940476Y-22622857D01*
X61988095Y-22527619D01*
X62035714Y-22480000D01*
X62130952Y-22432381D01*
X62321429Y-22432381D01*
X62416667Y-22480000D01*
X62464286Y-22527619D01*
X62511905Y-22622857D01*
X62511905Y-22670476D01*
X62464286Y-22765714D01*
X62416667Y-22813333D01*
X62321429Y-22860952D01*
X62130952Y-22860952D01*
X62035714Y-22908571D01*
X61988095Y-22956190D01*
X61940476Y-23051429D01*
X61940476Y-23241905D01*
X61988095Y-23337143D01*
X62035714Y-23384762D01*
X62130952Y-23432381D01*
X62321429Y-23432381D01*
X62416667Y-23384762D01*
X62464286Y-23337143D01*
X62511905Y-23241905D01*
X62511905Y-23051429D01*
X62464286Y-22956190D01*
X62416667Y-22908571D01*
X62321429Y-22860952D01*
X62357143Y-25587143D02*
X62309524Y-25634762D01*
X62166667Y-25682381D01*
X62071429Y-25682381D01*
X61928571Y-25634762D01*
X61833333Y-25539524D01*
X61785714Y-25444286D01*
X61738095Y-25253810D01*
X61738095Y-25110952D01*
X61785714Y-24920476D01*
X61833333Y-24825238D01*
X61928571Y-24730000D01*
X62071429Y-24682381D01*
X62166667Y-24682381D01*
X62309524Y-24730000D01*
X62357143Y-24777619D01*
X62690476Y-24682381D02*
X63309524Y-24682381D01*
X62976190Y-25063333D01*
X63119048Y-25063333D01*
X63214286Y-25110952D01*
X63261905Y-25158571D01*
X63309524Y-25253810D01*
X63309524Y-25491905D01*
X63261905Y-25587143D01*
X63214286Y-25634762D01*
X63119048Y-25682381D01*
X62833333Y-25682381D01*
X62738095Y-25634762D01*
X62690476Y-25587143D01*
X63642857Y-24682381D02*
X64309524Y-24682381D01*
X63880952Y-25682381D01*
X62607143Y-30357143D02*
X62559524Y-30404762D01*
X62416667Y-30452381D01*
X62321429Y-30452381D01*
X62178571Y-30404762D01*
X62083333Y-30309524D01*
X62035714Y-30214286D01*
X61988095Y-30023810D01*
X61988095Y-29880952D01*
X62035714Y-29690476D01*
X62083333Y-29595238D01*
X62178571Y-29500000D01*
X62321429Y-29452381D01*
X62416667Y-29452381D01*
X62559524Y-29500000D01*
X62607143Y-29547619D01*
X62940476Y-29452381D02*
X63559524Y-29452381D01*
X63226190Y-29833333D01*
X63369048Y-29833333D01*
X63464286Y-29880952D01*
X63511905Y-29928571D01*
X63559524Y-30023810D01*
X63559524Y-30261905D01*
X63511905Y-30357143D01*
X63464286Y-30404762D01*
X63369048Y-30452381D01*
X63083333Y-30452381D01*
X62988095Y-30404762D01*
X62940476Y-30357143D01*
X64416667Y-29452381D02*
X64226190Y-29452381D01*
X64130952Y-29500000D01*
X64083333Y-29547619D01*
X63988095Y-29690476D01*
X63940476Y-29880952D01*
X63940476Y-30261905D01*
X63988095Y-30357143D01*
X64035714Y-30404762D01*
X64130952Y-30452381D01*
X64321429Y-30452381D01*
X64416667Y-30404762D01*
X64464286Y-30357143D01*
X64511905Y-30261905D01*
X64511905Y-30023810D01*
X64464286Y-29928571D01*
X64416667Y-29880952D01*
X64321429Y-29833333D01*
X64130952Y-29833333D01*
X64035714Y-29880952D01*
X63988095Y-29928571D01*
X63940476Y-30023810D01*
X62607143Y-32087143D02*
X62559524Y-32134762D01*
X62416667Y-32182381D01*
X62321429Y-32182381D01*
X62178571Y-32134762D01*
X62083333Y-32039524D01*
X62035714Y-31944286D01*
X61988095Y-31753810D01*
X61988095Y-31610952D01*
X62035714Y-31420476D01*
X62083333Y-31325238D01*
X62178571Y-31230000D01*
X62321429Y-31182381D01*
X62416667Y-31182381D01*
X62559524Y-31230000D01*
X62607143Y-31277619D01*
X62940476Y-31182381D02*
X63559524Y-31182381D01*
X63226190Y-31563333D01*
X63369048Y-31563333D01*
X63464286Y-31610952D01*
X63511905Y-31658571D01*
X63559524Y-31753810D01*
X63559524Y-31991905D01*
X63511905Y-32087143D01*
X63464286Y-32134762D01*
X63369048Y-32182381D01*
X63083333Y-32182381D01*
X62988095Y-32134762D01*
X62940476Y-32087143D01*
X64464286Y-31182381D02*
X63988095Y-31182381D01*
X63940476Y-31658571D01*
X63988095Y-31610952D01*
X64083333Y-31563333D01*
X64321429Y-31563333D01*
X64416667Y-31610952D01*
X64464286Y-31658571D01*
X64511905Y-31753810D01*
X64511905Y-31991905D01*
X64464286Y-32087143D01*
X64416667Y-32134762D01*
X64321429Y-32182381D01*
X64083333Y-32182381D01*
X63988095Y-32134762D01*
X63940476Y-32087143D01*
X62607143Y-38087143D02*
X62559524Y-38134762D01*
X62416667Y-38182381D01*
X62321429Y-38182381D01*
X62178571Y-38134762D01*
X62083333Y-38039524D01*
X62035714Y-37944286D01*
X61988095Y-37753810D01*
X61988095Y-37610952D01*
X62035714Y-37420476D01*
X62083333Y-37325238D01*
X62178571Y-37230000D01*
X62321429Y-37182381D01*
X62416667Y-37182381D01*
X62559524Y-37230000D01*
X62607143Y-37277619D01*
X62940476Y-37182381D02*
X63559524Y-37182381D01*
X63226190Y-37563333D01*
X63369048Y-37563333D01*
X63464286Y-37610952D01*
X63511905Y-37658571D01*
X63559524Y-37753810D01*
X63559524Y-37991905D01*
X63511905Y-38087143D01*
X63464286Y-38134762D01*
X63369048Y-38182381D01*
X63083333Y-38182381D01*
X62988095Y-38134762D01*
X62940476Y-38087143D01*
X64416667Y-37515714D02*
X64416667Y-38182381D01*
X64178571Y-37134762D02*
X63940476Y-37849048D01*
X64559524Y-37849048D01*
X62377143Y-46892857D02*
X62424762Y-46940476D01*
X62472381Y-47083333D01*
X62472381Y-47178571D01*
X62424762Y-47321429D01*
X62329524Y-47416667D01*
X62234286Y-47464286D01*
X62043810Y-47511905D01*
X61900952Y-47511905D01*
X61710476Y-47464286D01*
X61615238Y-47416667D01*
X61520000Y-47321429D01*
X61472381Y-47178571D01*
X61472381Y-47083333D01*
X61520000Y-46940476D01*
X61567619Y-46892857D01*
X61472381Y-46559524D02*
X61472381Y-45940476D01*
X61853333Y-46273810D01*
X61853333Y-46130952D01*
X61900952Y-46035714D01*
X61948571Y-45988095D01*
X62043810Y-45940476D01*
X62281905Y-45940476D01*
X62377143Y-45988095D01*
X62424762Y-46035714D01*
X62472381Y-46130952D01*
X62472381Y-46416667D01*
X62424762Y-46511905D01*
X62377143Y-46559524D01*
X61472381Y-45607143D02*
X61472381Y-44988095D01*
X61853333Y-45321429D01*
X61853333Y-45178571D01*
X61900952Y-45083333D01*
X61948571Y-45035714D01*
X62043810Y-44988095D01*
X62281905Y-44988095D01*
X62377143Y-45035714D01*
X62424762Y-45083333D01*
X62472381Y-45178571D01*
X62472381Y-45464286D01*
X62424762Y-45559524D01*
X62377143Y-45607143D01*
X58857143Y-51142857D02*
X58904762Y-51190476D01*
X58952381Y-51333333D01*
X58952381Y-51428571D01*
X58904762Y-51571429D01*
X58809524Y-51666667D01*
X58714286Y-51714286D01*
X58523810Y-51761905D01*
X58380952Y-51761905D01*
X58190476Y-51714286D01*
X58095238Y-51666667D01*
X58000000Y-51571429D01*
X57952381Y-51428571D01*
X57952381Y-51333333D01*
X58000000Y-51190476D01*
X58047619Y-51142857D01*
X57952381Y-50809524D02*
X57952381Y-50190476D01*
X58333333Y-50523810D01*
X58333333Y-50380952D01*
X58380952Y-50285714D01*
X58428571Y-50238095D01*
X58523810Y-50190476D01*
X58761905Y-50190476D01*
X58857143Y-50238095D01*
X58904762Y-50285714D01*
X58952381Y-50380952D01*
X58952381Y-50666667D01*
X58904762Y-50761905D01*
X58857143Y-50809524D01*
X58047619Y-49809524D02*
X58000000Y-49761905D01*
X57952381Y-49666667D01*
X57952381Y-49428571D01*
X58000000Y-49333333D01*
X58047619Y-49285714D01*
X58142857Y-49238095D01*
X58238095Y-49238095D01*
X58380952Y-49285714D01*
X58952381Y-49857143D01*
X58952381Y-49238095D01*
X56857143Y-51142857D02*
X56904762Y-51190476D01*
X56952381Y-51333333D01*
X56952381Y-51428571D01*
X56904762Y-51571429D01*
X56809524Y-51666667D01*
X56714286Y-51714286D01*
X56523810Y-51761905D01*
X56380952Y-51761905D01*
X56190476Y-51714286D01*
X56095238Y-51666667D01*
X56000000Y-51571429D01*
X55952381Y-51428571D01*
X55952381Y-51333333D01*
X56000000Y-51190476D01*
X56047619Y-51142857D01*
X55952381Y-50809524D02*
X55952381Y-50190476D01*
X56333333Y-50523810D01*
X56333333Y-50380952D01*
X56380952Y-50285714D01*
X56428571Y-50238095D01*
X56523810Y-50190476D01*
X56761905Y-50190476D01*
X56857143Y-50238095D01*
X56904762Y-50285714D01*
X56952381Y-50380952D01*
X56952381Y-50666667D01*
X56904762Y-50761905D01*
X56857143Y-50809524D01*
X56952381Y-49238095D02*
X56952381Y-49809524D01*
X56952381Y-49523810D02*
X55952381Y-49523810D01*
X56095238Y-49619048D01*
X56190476Y-49714286D01*
X56238095Y-49809524D01*
X47607143Y-49607143D02*
X47559524Y-49654762D01*
X47416667Y-49702381D01*
X47321429Y-49702381D01*
X47178571Y-49654762D01*
X47083333Y-49559524D01*
X47035714Y-49464286D01*
X46988095Y-49273810D01*
X46988095Y-49130952D01*
X47035714Y-48940476D01*
X47083333Y-48845238D01*
X47178571Y-48750000D01*
X47321429Y-48702381D01*
X47416667Y-48702381D01*
X47559524Y-48750000D01*
X47607143Y-48797619D01*
X47940476Y-48702381D02*
X48559524Y-48702381D01*
X48226190Y-49083333D01*
X48369048Y-49083333D01*
X48464286Y-49130952D01*
X48511905Y-49178571D01*
X48559524Y-49273810D01*
X48559524Y-49511905D01*
X48511905Y-49607143D01*
X48464286Y-49654762D01*
X48369048Y-49702381D01*
X48083333Y-49702381D01*
X47988095Y-49654762D01*
X47940476Y-49607143D01*
X49178571Y-48702381D02*
X49273810Y-48702381D01*
X49369048Y-48750000D01*
X49416667Y-48797619D01*
X49464286Y-48892857D01*
X49511905Y-49083333D01*
X49511905Y-49321429D01*
X49464286Y-49511905D01*
X49416667Y-49607143D01*
X49369048Y-49654762D01*
X49273810Y-49702381D01*
X49178571Y-49702381D01*
X49083333Y-49654762D01*
X49035714Y-49607143D01*
X48988095Y-49511905D01*
X48940476Y-49321429D01*
X48940476Y-49083333D01*
X48988095Y-48892857D01*
X49035714Y-48797619D01*
X49083333Y-48750000D01*
X49178571Y-48702381D01*
X42357143Y-49857143D02*
X42309524Y-49904762D01*
X42166667Y-49952381D01*
X42071429Y-49952381D01*
X41928571Y-49904762D01*
X41833333Y-49809524D01*
X41785714Y-49714286D01*
X41738095Y-49523810D01*
X41738095Y-49380952D01*
X41785714Y-49190476D01*
X41833333Y-49095238D01*
X41928571Y-49000000D01*
X42071429Y-48952381D01*
X42166667Y-48952381D01*
X42309524Y-49000000D01*
X42357143Y-49047619D01*
X42738095Y-49047619D02*
X42785714Y-49000000D01*
X42880952Y-48952381D01*
X43119048Y-48952381D01*
X43214286Y-49000000D01*
X43261905Y-49047619D01*
X43309524Y-49142857D01*
X43309524Y-49238095D01*
X43261905Y-49380952D01*
X42690476Y-49952381D01*
X43309524Y-49952381D01*
X43785714Y-49952381D02*
X43976190Y-49952381D01*
X44071429Y-49904762D01*
X44119048Y-49857143D01*
X44214286Y-49714286D01*
X44261905Y-49523810D01*
X44261905Y-49142857D01*
X44214286Y-49047619D01*
X44166667Y-49000000D01*
X44071429Y-48952381D01*
X43880952Y-48952381D01*
X43785714Y-49000000D01*
X43738095Y-49047619D01*
X43690476Y-49142857D01*
X43690476Y-49380952D01*
X43738095Y-49476190D01*
X43785714Y-49523810D01*
X43880952Y-49571429D01*
X44071429Y-49571429D01*
X44166667Y-49523810D01*
X44214286Y-49476190D01*
X44261905Y-49380952D01*
X38107143Y-47377143D02*
X38059524Y-47424762D01*
X37916667Y-47472381D01*
X37821429Y-47472381D01*
X37678571Y-47424762D01*
X37583333Y-47329524D01*
X37535714Y-47234286D01*
X37488095Y-47043810D01*
X37488095Y-46900952D01*
X37535714Y-46710476D01*
X37583333Y-46615238D01*
X37678571Y-46520000D01*
X37821429Y-46472381D01*
X37916667Y-46472381D01*
X38059524Y-46520000D01*
X38107143Y-46567619D01*
X38488095Y-46567619D02*
X38535714Y-46520000D01*
X38630952Y-46472381D01*
X38869048Y-46472381D01*
X38964286Y-46520000D01*
X39011905Y-46567619D01*
X39059524Y-46662857D01*
X39059524Y-46758095D01*
X39011905Y-46900952D01*
X38440476Y-47472381D01*
X39059524Y-47472381D01*
X39630952Y-46900952D02*
X39535714Y-46853333D01*
X39488095Y-46805714D01*
X39440476Y-46710476D01*
X39440476Y-46662857D01*
X39488095Y-46567619D01*
X39535714Y-46520000D01*
X39630952Y-46472381D01*
X39821429Y-46472381D01*
X39916667Y-46520000D01*
X39964286Y-46567619D01*
X40011905Y-46662857D01*
X40011905Y-46710476D01*
X39964286Y-46805714D01*
X39916667Y-46853333D01*
X39821429Y-46900952D01*
X39630952Y-46900952D01*
X39535714Y-46948571D01*
X39488095Y-46996190D01*
X39440476Y-47091429D01*
X39440476Y-47281905D01*
X39488095Y-47377143D01*
X39535714Y-47424762D01*
X39630952Y-47472381D01*
X39821429Y-47472381D01*
X39916667Y-47424762D01*
X39964286Y-47377143D01*
X40011905Y-47281905D01*
X40011905Y-47091429D01*
X39964286Y-46996190D01*
X39916667Y-46948571D01*
X39821429Y-46900952D01*
X36107143Y-44627143D02*
X36059524Y-44674762D01*
X35916667Y-44722381D01*
X35821429Y-44722381D01*
X35678571Y-44674762D01*
X35583333Y-44579524D01*
X35535714Y-44484286D01*
X35488095Y-44293810D01*
X35488095Y-44150952D01*
X35535714Y-43960476D01*
X35583333Y-43865238D01*
X35678571Y-43770000D01*
X35821429Y-43722381D01*
X35916667Y-43722381D01*
X36059524Y-43770000D01*
X36107143Y-43817619D01*
X36488095Y-43817619D02*
X36535714Y-43770000D01*
X36630952Y-43722381D01*
X36869048Y-43722381D01*
X36964286Y-43770000D01*
X37011905Y-43817619D01*
X37059524Y-43912857D01*
X37059524Y-44008095D01*
X37011905Y-44150952D01*
X36440476Y-44722381D01*
X37059524Y-44722381D01*
X37392857Y-43722381D02*
X38059524Y-43722381D01*
X37630952Y-44722381D01*
X36107143Y-40357143D02*
X36059524Y-40404762D01*
X35916667Y-40452381D01*
X35821429Y-40452381D01*
X35678571Y-40404762D01*
X35583333Y-40309524D01*
X35535714Y-40214286D01*
X35488095Y-40023810D01*
X35488095Y-39880952D01*
X35535714Y-39690476D01*
X35583333Y-39595238D01*
X35678571Y-39500000D01*
X35821429Y-39452381D01*
X35916667Y-39452381D01*
X36059524Y-39500000D01*
X36107143Y-39547619D01*
X36488095Y-39547619D02*
X36535714Y-39500000D01*
X36630952Y-39452381D01*
X36869048Y-39452381D01*
X36964286Y-39500000D01*
X37011905Y-39547619D01*
X37059524Y-39642857D01*
X37059524Y-39738095D01*
X37011905Y-39880952D01*
X36440476Y-40452381D01*
X37059524Y-40452381D01*
X37916667Y-39452381D02*
X37726190Y-39452381D01*
X37630952Y-39500000D01*
X37583333Y-39547619D01*
X37488095Y-39690476D01*
X37440476Y-39880952D01*
X37440476Y-40261905D01*
X37488095Y-40357143D01*
X37535714Y-40404762D01*
X37630952Y-40452381D01*
X37821429Y-40452381D01*
X37916667Y-40404762D01*
X37964286Y-40357143D01*
X38011905Y-40261905D01*
X38011905Y-40023810D01*
X37964286Y-39928571D01*
X37916667Y-39880952D01*
X37821429Y-39833333D01*
X37630952Y-39833333D01*
X37535714Y-39880952D01*
X37488095Y-39928571D01*
X37440476Y-40023810D01*
X36107143Y-36357143D02*
X36059524Y-36404762D01*
X35916667Y-36452381D01*
X35821429Y-36452381D01*
X35678571Y-36404762D01*
X35583333Y-36309524D01*
X35535714Y-36214286D01*
X35488095Y-36023810D01*
X35488095Y-35880952D01*
X35535714Y-35690476D01*
X35583333Y-35595238D01*
X35678571Y-35500000D01*
X35821429Y-35452381D01*
X35916667Y-35452381D01*
X36059524Y-35500000D01*
X36107143Y-35547619D01*
X36488095Y-35547619D02*
X36535714Y-35500000D01*
X36630952Y-35452381D01*
X36869048Y-35452381D01*
X36964286Y-35500000D01*
X37011905Y-35547619D01*
X37059524Y-35642857D01*
X37059524Y-35738095D01*
X37011905Y-35880952D01*
X36440476Y-36452381D01*
X37059524Y-36452381D01*
X37964286Y-35452381D02*
X37488095Y-35452381D01*
X37440476Y-35928571D01*
X37488095Y-35880952D01*
X37583333Y-35833333D01*
X37821429Y-35833333D01*
X37916667Y-35880952D01*
X37964286Y-35928571D01*
X38011905Y-36023810D01*
X38011905Y-36261905D01*
X37964286Y-36357143D01*
X37916667Y-36404762D01*
X37821429Y-36452381D01*
X37583333Y-36452381D01*
X37488095Y-36404762D01*
X37440476Y-36357143D01*
X36107143Y-31877143D02*
X36059524Y-31924762D01*
X35916667Y-31972381D01*
X35821429Y-31972381D01*
X35678571Y-31924762D01*
X35583333Y-31829524D01*
X35535714Y-31734286D01*
X35488095Y-31543810D01*
X35488095Y-31400952D01*
X35535714Y-31210476D01*
X35583333Y-31115238D01*
X35678571Y-31020000D01*
X35821429Y-30972381D01*
X35916667Y-30972381D01*
X36059524Y-31020000D01*
X36107143Y-31067619D01*
X36488095Y-31067619D02*
X36535714Y-31020000D01*
X36630952Y-30972381D01*
X36869048Y-30972381D01*
X36964286Y-31020000D01*
X37011905Y-31067619D01*
X37059524Y-31162857D01*
X37059524Y-31258095D01*
X37011905Y-31400952D01*
X36440476Y-31972381D01*
X37059524Y-31972381D01*
X37916667Y-31305714D02*
X37916667Y-31972381D01*
X37678571Y-30924762D02*
X37440476Y-31639048D01*
X38059524Y-31639048D01*
X36107143Y-29607143D02*
X36059524Y-29654762D01*
X35916667Y-29702381D01*
X35821429Y-29702381D01*
X35678571Y-29654762D01*
X35583333Y-29559524D01*
X35535714Y-29464286D01*
X35488095Y-29273810D01*
X35488095Y-29130952D01*
X35535714Y-28940476D01*
X35583333Y-28845238D01*
X35678571Y-28750000D01*
X35821429Y-28702381D01*
X35916667Y-28702381D01*
X36059524Y-28750000D01*
X36107143Y-28797619D01*
X36488095Y-28797619D02*
X36535714Y-28750000D01*
X36630952Y-28702381D01*
X36869048Y-28702381D01*
X36964286Y-28750000D01*
X37011905Y-28797619D01*
X37059524Y-28892857D01*
X37059524Y-28988095D01*
X37011905Y-29130952D01*
X36440476Y-29702381D01*
X37059524Y-29702381D01*
X37392857Y-28702381D02*
X38011905Y-28702381D01*
X37678571Y-29083333D01*
X37821429Y-29083333D01*
X37916667Y-29130952D01*
X37964286Y-29178571D01*
X38011905Y-29273810D01*
X38011905Y-29511905D01*
X37964286Y-29607143D01*
X37916667Y-29654762D01*
X37821429Y-29702381D01*
X37535714Y-29702381D01*
X37440476Y-29654762D01*
X37392857Y-29607143D01*
X36107143Y-25857143D02*
X36059524Y-25904762D01*
X35916667Y-25952381D01*
X35821429Y-25952381D01*
X35678571Y-25904762D01*
X35583333Y-25809524D01*
X35535714Y-25714286D01*
X35488095Y-25523810D01*
X35488095Y-25380952D01*
X35535714Y-25190476D01*
X35583333Y-25095238D01*
X35678571Y-25000000D01*
X35821429Y-24952381D01*
X35916667Y-24952381D01*
X36059524Y-25000000D01*
X36107143Y-25047619D01*
X36488095Y-25047619D02*
X36535714Y-25000000D01*
X36630952Y-24952381D01*
X36869048Y-24952381D01*
X36964286Y-25000000D01*
X37011905Y-25047619D01*
X37059524Y-25142857D01*
X37059524Y-25238095D01*
X37011905Y-25380952D01*
X36440476Y-25952381D01*
X37059524Y-25952381D01*
X37440476Y-25047619D02*
X37488095Y-25000000D01*
X37583333Y-24952381D01*
X37821429Y-24952381D01*
X37916667Y-25000000D01*
X37964286Y-25047619D01*
X38011905Y-25142857D01*
X38011905Y-25238095D01*
X37964286Y-25380952D01*
X37392857Y-25952381D01*
X38011905Y-25952381D01*
X39607143Y-21642857D02*
X39654762Y-21690476D01*
X39702381Y-21833333D01*
X39702381Y-21928571D01*
X39654762Y-22071429D01*
X39559524Y-22166667D01*
X39464286Y-22214286D01*
X39273810Y-22261905D01*
X39130952Y-22261905D01*
X38940476Y-22214286D01*
X38845238Y-22166667D01*
X38750000Y-22071429D01*
X38702381Y-21928571D01*
X38702381Y-21833333D01*
X38750000Y-21690476D01*
X38797619Y-21642857D01*
X38797619Y-21261905D02*
X38750000Y-21214286D01*
X38702381Y-21119048D01*
X38702381Y-20880952D01*
X38750000Y-20785714D01*
X38797619Y-20738095D01*
X38892857Y-20690476D01*
X38988095Y-20690476D01*
X39130952Y-20738095D01*
X39702381Y-21309524D01*
X39702381Y-20690476D01*
X39702381Y-19738095D02*
X39702381Y-20309524D01*
X39702381Y-20023810D02*
X38702381Y-20023810D01*
X38845238Y-20119048D01*
X38940476Y-20214286D01*
X38988095Y-20309524D01*
X27107143Y-64087143D02*
X27059524Y-64134762D01*
X26916667Y-64182381D01*
X26821429Y-64182381D01*
X26678571Y-64134762D01*
X26583333Y-64039524D01*
X26535714Y-63944286D01*
X26488095Y-63753810D01*
X26488095Y-63610952D01*
X26535714Y-63420476D01*
X26583333Y-63325238D01*
X26678571Y-63230000D01*
X26821429Y-63182381D01*
X26916667Y-63182381D01*
X27059524Y-63230000D01*
X27107143Y-63277619D01*
X27488095Y-63277619D02*
X27535714Y-63230000D01*
X27630952Y-63182381D01*
X27869048Y-63182381D01*
X27964286Y-63230000D01*
X28011905Y-63277619D01*
X28059524Y-63372857D01*
X28059524Y-63468095D01*
X28011905Y-63610952D01*
X27440476Y-64182381D01*
X28059524Y-64182381D01*
X28678571Y-63182381D02*
X28773810Y-63182381D01*
X28869048Y-63230000D01*
X28916667Y-63277619D01*
X28964286Y-63372857D01*
X29011905Y-63563333D01*
X29011905Y-63801429D01*
X28964286Y-63991905D01*
X28916667Y-64087143D01*
X28869048Y-64134762D01*
X28773810Y-64182381D01*
X28678571Y-64182381D01*
X28583333Y-64134762D01*
X28535714Y-64087143D01*
X28488095Y-63991905D01*
X28440476Y-63801429D01*
X28440476Y-63563333D01*
X28488095Y-63372857D01*
X28535714Y-63277619D01*
X28583333Y-63230000D01*
X28678571Y-63182381D01*
X31357143Y-64087143D02*
X31309524Y-64134762D01*
X31166667Y-64182381D01*
X31071429Y-64182381D01*
X30928571Y-64134762D01*
X30833333Y-64039524D01*
X30785714Y-63944286D01*
X30738095Y-63753810D01*
X30738095Y-63610952D01*
X30785714Y-63420476D01*
X30833333Y-63325238D01*
X30928571Y-63230000D01*
X31071429Y-63182381D01*
X31166667Y-63182381D01*
X31309524Y-63230000D01*
X31357143Y-63277619D01*
X32309524Y-64182381D02*
X31738095Y-64182381D01*
X32023809Y-64182381D02*
X32023809Y-63182381D01*
X31928571Y-63325238D01*
X31833333Y-63420476D01*
X31738095Y-63468095D01*
X32785714Y-64182381D02*
X32976190Y-64182381D01*
X33071429Y-64134762D01*
X33119048Y-64087143D01*
X33214286Y-63944286D01*
X33261905Y-63753810D01*
X33261905Y-63372857D01*
X33214286Y-63277619D01*
X33166667Y-63230000D01*
X33071429Y-63182381D01*
X32880952Y-63182381D01*
X32785714Y-63230000D01*
X32738095Y-63277619D01*
X32690476Y-63372857D01*
X32690476Y-63610952D01*
X32738095Y-63706190D01*
X32785714Y-63753810D01*
X32880952Y-63801429D01*
X33071429Y-63801429D01*
X33166667Y-63753810D01*
X33214286Y-63706190D01*
X33261905Y-63610952D01*
X45757143Y-76242857D02*
X45804762Y-76290476D01*
X45852381Y-76433333D01*
X45852381Y-76528571D01*
X45804762Y-76671429D01*
X45709524Y-76766667D01*
X45614286Y-76814286D01*
X45423810Y-76861905D01*
X45280952Y-76861905D01*
X45090476Y-76814286D01*
X44995238Y-76766667D01*
X44900000Y-76671429D01*
X44852381Y-76528571D01*
X44852381Y-76433333D01*
X44900000Y-76290476D01*
X44947619Y-76242857D01*
X45852381Y-75290476D02*
X45852381Y-75861905D01*
X45852381Y-75576191D02*
X44852381Y-75576191D01*
X44995238Y-75671429D01*
X45090476Y-75766667D01*
X45138095Y-75861905D01*
X45280952Y-74719048D02*
X45233333Y-74814286D01*
X45185714Y-74861905D01*
X45090476Y-74909524D01*
X45042857Y-74909524D01*
X44947619Y-74861905D01*
X44900000Y-74814286D01*
X44852381Y-74719048D01*
X44852381Y-74528571D01*
X44900000Y-74433333D01*
X44947619Y-74385714D01*
X45042857Y-74338095D01*
X45090476Y-74338095D01*
X45185714Y-74385714D01*
X45233333Y-74433333D01*
X45280952Y-74528571D01*
X45280952Y-74719048D01*
X45328571Y-74814286D01*
X45376190Y-74861905D01*
X45471429Y-74909524D01*
X45661905Y-74909524D01*
X45757143Y-74861905D01*
X45804762Y-74814286D01*
X45852381Y-74719048D01*
X45852381Y-74528571D01*
X45804762Y-74433333D01*
X45757143Y-74385714D01*
X45661905Y-74338095D01*
X45471429Y-74338095D01*
X45376190Y-74385714D01*
X45328571Y-74433333D01*
X45280952Y-74528571D01*
X19587143Y-78892857D02*
X19634762Y-78940476D01*
X19682381Y-79083333D01*
X19682381Y-79178571D01*
X19634762Y-79321429D01*
X19539524Y-79416667D01*
X19444286Y-79464286D01*
X19253810Y-79511905D01*
X19110952Y-79511905D01*
X18920476Y-79464286D01*
X18825238Y-79416667D01*
X18730000Y-79321429D01*
X18682381Y-79178571D01*
X18682381Y-79083333D01*
X18730000Y-78940476D01*
X18777619Y-78892857D01*
X19682381Y-77940476D02*
X19682381Y-78511905D01*
X19682381Y-78226191D02*
X18682381Y-78226191D01*
X18825238Y-78321429D01*
X18920476Y-78416667D01*
X18968095Y-78511905D01*
X19015714Y-77083333D02*
X19682381Y-77083333D01*
X18634762Y-77321429D02*
X19349048Y-77559524D01*
X19349048Y-76940476D01*
X47557143Y-80042857D02*
X47604762Y-80090476D01*
X47652381Y-80233333D01*
X47652381Y-80328571D01*
X47604762Y-80471429D01*
X47509524Y-80566667D01*
X47414286Y-80614286D01*
X47223810Y-80661905D01*
X47080952Y-80661905D01*
X46890476Y-80614286D01*
X46795238Y-80566667D01*
X46700000Y-80471429D01*
X46652381Y-80328571D01*
X46652381Y-80233333D01*
X46700000Y-80090476D01*
X46747619Y-80042857D01*
X47652381Y-79090476D02*
X47652381Y-79661905D01*
X47652381Y-79376191D02*
X46652381Y-79376191D01*
X46795238Y-79471429D01*
X46890476Y-79566667D01*
X46938095Y-79661905D01*
X46652381Y-78757143D02*
X46652381Y-78138095D01*
X47033333Y-78471429D01*
X47033333Y-78328571D01*
X47080952Y-78233333D01*
X47128571Y-78185714D01*
X47223810Y-78138095D01*
X47461905Y-78138095D01*
X47557143Y-78185714D01*
X47604762Y-78233333D01*
X47652381Y-78328571D01*
X47652381Y-78614286D01*
X47604762Y-78709524D01*
X47557143Y-78757143D01*
X46337143Y-72392857D02*
X46384762Y-72440476D01*
X46432381Y-72583333D01*
X46432381Y-72678571D01*
X46384762Y-72821429D01*
X46289524Y-72916667D01*
X46194286Y-72964286D01*
X46003810Y-73011905D01*
X45860952Y-73011905D01*
X45670476Y-72964286D01*
X45575238Y-72916667D01*
X45480000Y-72821429D01*
X45432381Y-72678571D01*
X45432381Y-72583333D01*
X45480000Y-72440476D01*
X45527619Y-72392857D01*
X46432381Y-71440476D02*
X46432381Y-72011905D01*
X46432381Y-71726191D02*
X45432381Y-71726191D01*
X45575238Y-71821429D01*
X45670476Y-71916667D01*
X45718095Y-72011905D01*
X45527619Y-71059524D02*
X45480000Y-71011905D01*
X45432381Y-70916667D01*
X45432381Y-70678571D01*
X45480000Y-70583333D01*
X45527619Y-70535714D01*
X45622857Y-70488095D01*
X45718095Y-70488095D01*
X45860952Y-70535714D01*
X46432381Y-71107143D01*
X46432381Y-70488095D01*
X46337143Y-65142857D02*
X46384762Y-65190476D01*
X46432381Y-65333333D01*
X46432381Y-65428571D01*
X46384762Y-65571429D01*
X46289524Y-65666667D01*
X46194286Y-65714286D01*
X46003810Y-65761905D01*
X45860952Y-65761905D01*
X45670476Y-65714286D01*
X45575238Y-65666667D01*
X45480000Y-65571429D01*
X45432381Y-65428571D01*
X45432381Y-65333333D01*
X45480000Y-65190476D01*
X45527619Y-65142857D01*
X46432381Y-64190476D02*
X46432381Y-64761905D01*
X46432381Y-64476191D02*
X45432381Y-64476191D01*
X45575238Y-64571429D01*
X45670476Y-64666667D01*
X45718095Y-64761905D01*
X46432381Y-63238095D02*
X46432381Y-63809524D01*
X46432381Y-63523810D02*
X45432381Y-63523810D01*
X45575238Y-63619048D01*
X45670476Y-63714286D01*
X45718095Y-63809524D01*
X52607143Y-55557143D02*
X52559524Y-55604762D01*
X52416667Y-55652381D01*
X52321429Y-55652381D01*
X52178571Y-55604762D01*
X52083333Y-55509524D01*
X52035714Y-55414286D01*
X51988095Y-55223810D01*
X51988095Y-55080952D01*
X52035714Y-54890476D01*
X52083333Y-54795238D01*
X52178571Y-54700000D01*
X52321429Y-54652381D01*
X52416667Y-54652381D01*
X52559524Y-54700000D01*
X52607143Y-54747619D01*
X53559524Y-55652381D02*
X52988095Y-55652381D01*
X53273809Y-55652381D02*
X53273809Y-54652381D01*
X53178571Y-54795238D01*
X53083333Y-54890476D01*
X52988095Y-54938095D01*
X54178571Y-54652381D02*
X54273810Y-54652381D01*
X54369048Y-54700000D01*
X54416667Y-54747619D01*
X54464286Y-54842857D01*
X54511905Y-55033333D01*
X54511905Y-55271429D01*
X54464286Y-55461905D01*
X54416667Y-55557143D01*
X54369048Y-55604762D01*
X54273810Y-55652381D01*
X54178571Y-55652381D01*
X54083333Y-55604762D01*
X54035714Y-55557143D01*
X53988095Y-55461905D01*
X53940476Y-55271429D01*
X53940476Y-55033333D01*
X53988095Y-54842857D01*
X54035714Y-54747619D01*
X54083333Y-54700000D01*
X54178571Y-54652381D01*
X59083334Y-55557143D02*
X59035715Y-55604762D01*
X58892858Y-55652381D01*
X58797620Y-55652381D01*
X58654762Y-55604762D01*
X58559524Y-55509524D01*
X58511905Y-55414286D01*
X58464286Y-55223810D01*
X58464286Y-55080952D01*
X58511905Y-54890476D01*
X58559524Y-54795238D01*
X58654762Y-54700000D01*
X58797620Y-54652381D01*
X58892858Y-54652381D01*
X59035715Y-54700000D01*
X59083334Y-54747619D01*
X59559524Y-55652381D02*
X59750000Y-55652381D01*
X59845239Y-55604762D01*
X59892858Y-55557143D01*
X59988096Y-55414286D01*
X60035715Y-55223810D01*
X60035715Y-54842857D01*
X59988096Y-54747619D01*
X59940477Y-54700000D01*
X59845239Y-54652381D01*
X59654762Y-54652381D01*
X59559524Y-54700000D01*
X59511905Y-54747619D01*
X59464286Y-54842857D01*
X59464286Y-55080952D01*
X59511905Y-55176190D01*
X59559524Y-55223810D01*
X59654762Y-55271429D01*
X59845239Y-55271429D01*
X59940477Y-55223810D01*
X59988096Y-55176190D01*
X60035715Y-55080952D01*
X67583334Y-55357143D02*
X67535715Y-55404762D01*
X67392858Y-55452381D01*
X67297620Y-55452381D01*
X67154762Y-55404762D01*
X67059524Y-55309524D01*
X67011905Y-55214286D01*
X66964286Y-55023810D01*
X66964286Y-54880952D01*
X67011905Y-54690476D01*
X67059524Y-54595238D01*
X67154762Y-54500000D01*
X67297620Y-54452381D01*
X67392858Y-54452381D01*
X67535715Y-54500000D01*
X67583334Y-54547619D01*
X68154762Y-54880952D02*
X68059524Y-54833333D01*
X68011905Y-54785714D01*
X67964286Y-54690476D01*
X67964286Y-54642857D01*
X68011905Y-54547619D01*
X68059524Y-54500000D01*
X68154762Y-54452381D01*
X68345239Y-54452381D01*
X68440477Y-54500000D01*
X68488096Y-54547619D01*
X68535715Y-54642857D01*
X68535715Y-54690476D01*
X68488096Y-54785714D01*
X68440477Y-54833333D01*
X68345239Y-54880952D01*
X68154762Y-54880952D01*
X68059524Y-54928571D01*
X68011905Y-54976190D01*
X67964286Y-55071429D01*
X67964286Y-55261905D01*
X68011905Y-55357143D01*
X68059524Y-55404762D01*
X68154762Y-55452381D01*
X68345239Y-55452381D01*
X68440477Y-55404762D01*
X68488096Y-55357143D01*
X68535715Y-55261905D01*
X68535715Y-55071429D01*
X68488096Y-54976190D01*
X68440477Y-54928571D01*
X68345239Y-54880952D01*
X74377143Y-67416666D02*
X74424762Y-67464285D01*
X74472381Y-67607142D01*
X74472381Y-67702380D01*
X74424762Y-67845238D01*
X74329524Y-67940476D01*
X74234286Y-67988095D01*
X74043810Y-68035714D01*
X73900952Y-68035714D01*
X73710476Y-67988095D01*
X73615238Y-67940476D01*
X73520000Y-67845238D01*
X73472381Y-67702380D01*
X73472381Y-67607142D01*
X73520000Y-67464285D01*
X73567619Y-67416666D01*
X73472381Y-67083333D02*
X73472381Y-66416666D01*
X74472381Y-66845238D01*
X75157143Y-72666666D02*
X75204762Y-72714285D01*
X75252381Y-72857142D01*
X75252381Y-72952380D01*
X75204762Y-73095238D01*
X75109524Y-73190476D01*
X75014286Y-73238095D01*
X74823810Y-73285714D01*
X74680952Y-73285714D01*
X74490476Y-73238095D01*
X74395238Y-73190476D01*
X74300000Y-73095238D01*
X74252381Y-72952380D01*
X74252381Y-72857142D01*
X74300000Y-72714285D01*
X74347619Y-72666666D01*
X74252381Y-71809523D02*
X74252381Y-72000000D01*
X74300000Y-72095238D01*
X74347619Y-72142857D01*
X74490476Y-72238095D01*
X74680952Y-72285714D01*
X75061905Y-72285714D01*
X75157143Y-72238095D01*
X75204762Y-72190476D01*
X75252381Y-72095238D01*
X75252381Y-71904761D01*
X75204762Y-71809523D01*
X75157143Y-71761904D01*
X75061905Y-71714285D01*
X74823810Y-71714285D01*
X74728571Y-71761904D01*
X74680952Y-71809523D01*
X74633333Y-71904761D01*
X74633333Y-72095238D01*
X74680952Y-72190476D01*
X74728571Y-72238095D01*
X74823810Y-72285714D01*
X62333334Y-83357143D02*
X62285715Y-83404762D01*
X62142858Y-83452381D01*
X62047620Y-83452381D01*
X61904762Y-83404762D01*
X61809524Y-83309524D01*
X61761905Y-83214286D01*
X61714286Y-83023810D01*
X61714286Y-82880952D01*
X61761905Y-82690476D01*
X61809524Y-82595238D01*
X61904762Y-82500000D01*
X62047620Y-82452381D01*
X62142858Y-82452381D01*
X62285715Y-82500000D01*
X62333334Y-82547619D01*
X63238096Y-82452381D02*
X62761905Y-82452381D01*
X62714286Y-82928571D01*
X62761905Y-82880952D01*
X62857143Y-82833333D01*
X63095239Y-82833333D01*
X63190477Y-82880952D01*
X63238096Y-82928571D01*
X63285715Y-83023810D01*
X63285715Y-83261905D01*
X63238096Y-83357143D01*
X63190477Y-83404762D01*
X63095239Y-83452381D01*
X62857143Y-83452381D01*
X62761905Y-83404762D01*
X62714286Y-83357143D01*
X57333334Y-83377143D02*
X57285715Y-83424762D01*
X57142858Y-83472381D01*
X57047620Y-83472381D01*
X56904762Y-83424762D01*
X56809524Y-83329524D01*
X56761905Y-83234286D01*
X56714286Y-83043810D01*
X56714286Y-82900952D01*
X56761905Y-82710476D01*
X56809524Y-82615238D01*
X56904762Y-82520000D01*
X57047620Y-82472381D01*
X57142858Y-82472381D01*
X57285715Y-82520000D01*
X57333334Y-82567619D01*
X58190477Y-82805714D02*
X58190477Y-83472381D01*
X57952381Y-82424762D02*
X57714286Y-83139048D01*
X58333334Y-83139048D01*
X52533334Y-83357143D02*
X52485715Y-83404762D01*
X52342858Y-83452381D01*
X52247620Y-83452381D01*
X52104762Y-83404762D01*
X52009524Y-83309524D01*
X51961905Y-83214286D01*
X51914286Y-83023810D01*
X51914286Y-82880952D01*
X51961905Y-82690476D01*
X52009524Y-82595238D01*
X52104762Y-82500000D01*
X52247620Y-82452381D01*
X52342858Y-82452381D01*
X52485715Y-82500000D01*
X52533334Y-82547619D01*
X52866667Y-82452381D02*
X53485715Y-82452381D01*
X53152381Y-82833333D01*
X53295239Y-82833333D01*
X53390477Y-82880952D01*
X53438096Y-82928571D01*
X53485715Y-83023810D01*
X53485715Y-83261905D01*
X53438096Y-83357143D01*
X53390477Y-83404762D01*
X53295239Y-83452381D01*
X53009524Y-83452381D01*
X52914286Y-83404762D01*
X52866667Y-83357143D01*
X73107143Y-16166666D02*
X73154762Y-16214285D01*
X73202381Y-16357142D01*
X73202381Y-16452380D01*
X73154762Y-16595238D01*
X73059524Y-16690476D01*
X72964286Y-16738095D01*
X72773810Y-16785714D01*
X72630952Y-16785714D01*
X72440476Y-16738095D01*
X72345238Y-16690476D01*
X72250000Y-16595238D01*
X72202381Y-16452380D01*
X72202381Y-16357142D01*
X72250000Y-16214285D01*
X72297619Y-16166666D01*
X72297619Y-15785714D02*
X72250000Y-15738095D01*
X72202381Y-15642857D01*
X72202381Y-15404761D01*
X72250000Y-15309523D01*
X72297619Y-15261904D01*
X72392857Y-15214285D01*
X72488095Y-15214285D01*
X72630952Y-15261904D01*
X73202381Y-15833333D01*
X73202381Y-15214285D01*
X83557143Y-89966666D02*
X83604762Y-90014285D01*
X83652381Y-90157142D01*
X83652381Y-90252380D01*
X83604762Y-90395238D01*
X83509524Y-90490476D01*
X83414286Y-90538095D01*
X83223810Y-90585714D01*
X83080952Y-90585714D01*
X82890476Y-90538095D01*
X82795238Y-90490476D01*
X82700000Y-90395238D01*
X82652381Y-90252380D01*
X82652381Y-90157142D01*
X82700000Y-90014285D01*
X82747619Y-89966666D01*
X83652381Y-89014285D02*
X83652381Y-89585714D01*
X83652381Y-89300000D02*
X82652381Y-89300000D01*
X82795238Y-89395238D01*
X82890476Y-89490476D01*
X82938095Y-89585714D01*
X24607143Y-82357143D02*
X24559524Y-82404762D01*
X24416667Y-82452381D01*
X24321429Y-82452381D01*
X24178571Y-82404762D01*
X24083333Y-82309524D01*
X24035714Y-82214286D01*
X23988095Y-82023810D01*
X23988095Y-81880952D01*
X24035714Y-81690476D01*
X24083333Y-81595238D01*
X24178571Y-81500000D01*
X24321429Y-81452381D01*
X24416667Y-81452381D01*
X24559524Y-81500000D01*
X24607143Y-81547619D01*
X25559524Y-82452381D02*
X24988095Y-82452381D01*
X25273809Y-82452381D02*
X25273809Y-81452381D01*
X25178571Y-81595238D01*
X25083333Y-81690476D01*
X24988095Y-81738095D01*
X26464286Y-81452381D02*
X25988095Y-81452381D01*
X25940476Y-81928571D01*
X25988095Y-81880952D01*
X26083333Y-81833333D01*
X26321429Y-81833333D01*
X26416667Y-81880952D01*
X26464286Y-81928571D01*
X26511905Y-82023810D01*
X26511905Y-82261905D01*
X26464286Y-82357143D01*
X26416667Y-82404762D01*
X26321429Y-82452381D01*
X26083333Y-82452381D01*
X25988095Y-82404762D01*
X25940476Y-82357143D01*
X28357143Y-82357143D02*
X28309524Y-82404762D01*
X28166667Y-82452381D01*
X28071429Y-82452381D01*
X27928571Y-82404762D01*
X27833333Y-82309524D01*
X27785714Y-82214286D01*
X27738095Y-82023810D01*
X27738095Y-81880952D01*
X27785714Y-81690476D01*
X27833333Y-81595238D01*
X27928571Y-81500000D01*
X28071429Y-81452381D01*
X28166667Y-81452381D01*
X28309524Y-81500000D01*
X28357143Y-81547619D01*
X29309524Y-82452381D02*
X28738095Y-82452381D01*
X29023809Y-82452381D02*
X29023809Y-81452381D01*
X28928571Y-81595238D01*
X28833333Y-81690476D01*
X28738095Y-81738095D01*
X30166667Y-81452381D02*
X29976190Y-81452381D01*
X29880952Y-81500000D01*
X29833333Y-81547619D01*
X29738095Y-81690476D01*
X29690476Y-81880952D01*
X29690476Y-82261905D01*
X29738095Y-82357143D01*
X29785714Y-82404762D01*
X29880952Y-82452381D01*
X30071429Y-82452381D01*
X30166667Y-82404762D01*
X30214286Y-82357143D01*
X30261905Y-82261905D01*
X30261905Y-82023810D01*
X30214286Y-81928571D01*
X30166667Y-81880952D01*
X30071429Y-81833333D01*
X29880952Y-81833333D01*
X29785714Y-81880952D01*
X29738095Y-81928571D01*
X29690476Y-82023810D01*
X31607143Y-82357143D02*
X31559524Y-82404762D01*
X31416667Y-82452381D01*
X31321429Y-82452381D01*
X31178571Y-82404762D01*
X31083333Y-82309524D01*
X31035714Y-82214286D01*
X30988095Y-82023810D01*
X30988095Y-81880952D01*
X31035714Y-81690476D01*
X31083333Y-81595238D01*
X31178571Y-81500000D01*
X31321429Y-81452381D01*
X31416667Y-81452381D01*
X31559524Y-81500000D01*
X31607143Y-81547619D01*
X32559524Y-82452381D02*
X31988095Y-82452381D01*
X32273809Y-82452381D02*
X32273809Y-81452381D01*
X32178571Y-81595238D01*
X32083333Y-81690476D01*
X31988095Y-81738095D01*
X32892857Y-81452381D02*
X33559524Y-81452381D01*
X33130952Y-82452381D01*
M02*
